%TF.GenerationSoftware,KiCad,Pcbnew,(5.1.9)-1*%
%TF.CreationDate,2023-05-11T19:32:03+01:00*%
%TF.ProjectId,#3_7segment_double,23335f37-7365-4676-9d65-6e745f646f75,Rev 01*%
%TF.SameCoordinates,Original*%
%TF.FileFunction,Copper,L2,Bot*%
%TF.FilePolarity,Positive*%
%FSLAX46Y46*%
G04 Gerber Fmt 4.6, Leading zero omitted, Abs format (unit mm)*
G04 Created by KiCad (PCBNEW (5.1.9)-1) date 2023-05-11 19:32:03*
%MOMM*%
%LPD*%
G01*
G04 APERTURE LIST*
%TA.AperFunction,ComponentPad*%
%ADD10R,1.700000X1.700000*%
%TD*%
%TA.AperFunction,ComponentPad*%
%ADD11O,1.700000X1.700000*%
%TD*%
%TA.AperFunction,ComponentPad*%
%ADD12C,1.600000*%
%TD*%
%TA.AperFunction,ComponentPad*%
%ADD13O,1.600000X1.600000*%
%TD*%
%TA.AperFunction,ComponentPad*%
%ADD14O,1.524000X2.524000*%
%TD*%
%TA.AperFunction,ComponentPad*%
%ADD15R,1.524000X2.524000*%
%TD*%
%TA.AperFunction,ComponentPad*%
%ADD16O,1.500000X1.050000*%
%TD*%
%TA.AperFunction,ComponentPad*%
%ADD17R,1.500000X1.050000*%
%TD*%
%TA.AperFunction,ComponentPad*%
%ADD18R,1.600000X1.600000*%
%TD*%
%TA.AperFunction,ViaPad*%
%ADD19C,0.800000*%
%TD*%
%TA.AperFunction,Conductor*%
%ADD20C,0.400000*%
%TD*%
%TA.AperFunction,Conductor*%
%ADD21C,0.250000*%
%TD*%
%TA.AperFunction,Conductor*%
%ADD22C,0.254000*%
%TD*%
%TA.AperFunction,Conductor*%
%ADD23C,0.100000*%
%TD*%
G04 APERTURE END LIST*
D10*
%TO.P,J1,1*%
%TO.N,Net-(J1-Pad1)*%
X181750000Y-96475000D03*
D11*
%TO.P,J1,2*%
%TO.N,Net-(J1-Pad2)*%
X181750000Y-99015000D03*
%TO.P,J1,3*%
%TO.N,Net-(J1-Pad3)*%
X179210000Y-96475000D03*
%TO.P,J1,4*%
%TO.N,Net-(J1-Pad4)*%
X179210000Y-99015000D03*
%TO.P,J1,5*%
%TO.N,GND*%
X176670000Y-96475000D03*
%TO.P,J1,6*%
%TO.N,Net-(J1-Pad6)*%
X176670000Y-99015000D03*
%TO.P,J1,7*%
%TO.N,GND*%
X174130000Y-96475000D03*
%TO.P,J1,8*%
%TO.N,Net-(J1-Pad8)*%
X174130000Y-99015000D03*
%TO.P,J1,9*%
%TO.N,Net-(J1-Pad9)*%
X171590000Y-96475000D03*
%TO.P,J1,10*%
%TO.N,Net-(J1-Pad10)*%
X171590000Y-99015000D03*
%TO.P,J1,11*%
%TO.N,Net-(J1-Pad11)*%
X169050000Y-96475000D03*
%TO.P,J1,12*%
%TO.N,Net-(J1-Pad12)*%
X169050000Y-99015000D03*
%TO.P,J1,13*%
%TO.N,Net-(J1-Pad13)*%
X166510000Y-96475000D03*
%TO.P,J1,14*%
%TO.N,Net-(J1-Pad14)*%
X166510000Y-99015000D03*
%TO.P,J1,15*%
%TO.N,Net-(J1-Pad15)*%
X163970000Y-96475000D03*
%TO.P,J1,16*%
%TO.N,Net-(J1-Pad16)*%
X163970000Y-99015000D03*
%TO.P,J1,17*%
%TO.N,GPIO_PD6*%
X161430000Y-96475000D03*
%TO.P,J1,18*%
%TO.N,GPIO_PD7*%
X161430000Y-99015000D03*
%TO.P,J1,19*%
%TO.N,GPIO_PC0*%
X158890000Y-96475000D03*
%TO.P,J1,20*%
%TO.N,GPIO_PC1*%
X158890000Y-99015000D03*
%TO.P,J1,21*%
%TO.N,GPIO_PC2*%
X156350000Y-96475000D03*
%TO.P,J1,22*%
%TO.N,GPIO_PC3*%
X156350000Y-99015000D03*
%TO.P,J1,23*%
%TO.N,GPIO_PC4*%
X153810000Y-96475000D03*
%TO.P,J1,24*%
%TO.N,GPIO_PC5*%
X153810000Y-99015000D03*
%TO.P,J1,25*%
%TO.N,GPIO_PC6*%
X151270000Y-96475000D03*
%TO.P,J1,26*%
%TO.N,GPIO_PC7*%
X151270000Y-99015000D03*
%TO.P,J1,27*%
%TO.N,Net-(J1-Pad27)*%
X148730000Y-96475000D03*
%TO.P,J1,28*%
%TO.N,Net-(J1-Pad28)*%
X148730000Y-99015000D03*
%TO.P,J1,29*%
%TO.N,Net-(J1-Pad29)*%
X146190000Y-96475000D03*
%TO.P,J1,30*%
%TO.N,Net-(J1-Pad30)*%
X146190000Y-99015000D03*
%TO.P,J1,31*%
%TO.N,Net-(J1-Pad31)*%
X143650000Y-96475000D03*
%TO.P,J1,32*%
%TO.N,Net-(J1-Pad32)*%
X143650000Y-99015000D03*
%TO.P,J1,33*%
%TO.N,Net-(J1-Pad33)*%
X141110000Y-96475000D03*
%TO.P,J1,34*%
%TO.N,Net-(J1-Pad34)*%
X141110000Y-99015000D03*
%TO.P,J1,35*%
%TO.N,GND*%
X138570000Y-96475000D03*
%TO.P,J1,36*%
%TO.N,3.3V*%
X138570000Y-99015000D03*
%TO.P,J1,37*%
%TO.N,Net-(J1-Pad37)*%
X136030000Y-96475000D03*
%TO.P,J1,38*%
%TO.N,Net-(J1-Pad38)*%
X136030000Y-99015000D03*
%TD*%
D12*
%TO.P,R1,1*%
%TO.N,GND*%
X138400000Y-107175000D03*
D13*
%TO.P,R1,2*%
%TO.N,Net-(R1-Pad2)*%
X146020000Y-107175000D03*
%TD*%
%TO.P,R2,2*%
%TO.N,Net-(R2-Pad2)*%
X146020000Y-101950000D03*
D12*
%TO.P,R2,1*%
%TO.N,GND*%
X138400000Y-101950000D03*
%TD*%
D14*
%TO.P,U1,10*%
%TO.N,Net-(RN2-Pad6)*%
X171590000Y-90485000D03*
%TO.P,U1,9*%
%TO.N,Net-(RN2-Pad4)*%
X174130000Y-90485000D03*
%TO.P,U1,8*%
%TO.N,Net-(R1-Pad2)*%
X176670000Y-90485000D03*
%TO.P,U1,7*%
%TO.N,Net-(RN1-Pad2)*%
X179210000Y-90485000D03*
%TO.P,U1,6*%
%TO.N,Net-(RN1-Pad4)*%
X181750000Y-90485000D03*
%TO.P,U1,5*%
%TO.N,Net-(RN2-Pad8)*%
X181750000Y-105725000D03*
%TO.P,U1,4*%
%TO.N,Net-(RN1-Pad6)*%
X179210000Y-105725000D03*
%TO.P,U1,3*%
%TO.N,Net-(Q1-Pad3)*%
X176670000Y-105725000D03*
%TO.P,U1,2*%
%TO.N,Net-(RN1-Pad8)*%
X174130000Y-105725000D03*
D15*
%TO.P,U1,1*%
%TO.N,Net-(RN2-Pad2)*%
X171590000Y-105725000D03*
%TD*%
D16*
%TO.P,Q1,2*%
%TO.N,GPIO_PD7*%
X149250000Y-104555000D03*
%TO.P,Q1,3*%
%TO.N,Net-(Q1-Pad3)*%
X149250000Y-103285000D03*
D17*
%TO.P,Q1,1*%
%TO.N,3.3V*%
X149250000Y-105825000D03*
%TD*%
%TO.P,Q2,1*%
%TO.N,3.3V*%
X154250000Y-105825000D03*
D16*
%TO.P,Q2,3*%
%TO.N,Net-(Q2-Pad3)*%
X154250000Y-103285000D03*
%TO.P,Q2,2*%
%TO.N,GPIO_PD6*%
X154250000Y-104555000D03*
%TD*%
D18*
%TO.P,RN1,1*%
%TO.N,GPIO_PC0*%
X154175000Y-89985000D03*
D13*
%TO.P,RN1,2*%
%TO.N,Net-(RN1-Pad2)*%
X151635000Y-89985000D03*
%TO.P,RN1,3*%
%TO.N,GPIO_PC1*%
X149095000Y-89985000D03*
%TO.P,RN1,4*%
%TO.N,Net-(RN1-Pad4)*%
X146555000Y-89985000D03*
%TO.P,RN1,5*%
%TO.N,GPIO_PC2*%
X144015000Y-89985000D03*
%TO.P,RN1,6*%
%TO.N,Net-(RN1-Pad6)*%
X141475000Y-89985000D03*
%TO.P,RN1,7*%
%TO.N,GPIO_PC3*%
X138935000Y-89985000D03*
%TO.P,RN1,8*%
%TO.N,Net-(RN1-Pad8)*%
X136395000Y-89985000D03*
%TD*%
%TO.P,RN2,8*%
%TO.N,Net-(RN2-Pad8)*%
X136395000Y-93525000D03*
%TO.P,RN2,7*%
%TO.N,GPIO_PC7*%
X138935000Y-93525000D03*
%TO.P,RN2,6*%
%TO.N,Net-(RN2-Pad6)*%
X141475000Y-93525000D03*
%TO.P,RN2,5*%
%TO.N,GPIO_PC6*%
X144015000Y-93525000D03*
%TO.P,RN2,4*%
%TO.N,Net-(RN2-Pad4)*%
X146555000Y-93525000D03*
%TO.P,RN2,3*%
%TO.N,GPIO_PC5*%
X149095000Y-93525000D03*
%TO.P,RN2,2*%
%TO.N,Net-(RN2-Pad2)*%
X151635000Y-93525000D03*
D18*
%TO.P,RN2,1*%
%TO.N,GPIO_PC4*%
X154175000Y-93525000D03*
%TD*%
D14*
%TO.P,U2,10*%
%TO.N,Net-(RN2-Pad6)*%
X158390000Y-90485000D03*
%TO.P,U2,9*%
%TO.N,Net-(RN2-Pad4)*%
X160930000Y-90485000D03*
%TO.P,U2,8*%
%TO.N,Net-(R2-Pad2)*%
X163470000Y-90485000D03*
%TO.P,U2,7*%
%TO.N,Net-(RN1-Pad2)*%
X166010000Y-90485000D03*
%TO.P,U2,6*%
%TO.N,Net-(RN1-Pad4)*%
X168550000Y-90485000D03*
%TO.P,U2,5*%
%TO.N,Net-(RN2-Pad8)*%
X168550000Y-105725000D03*
%TO.P,U2,4*%
%TO.N,Net-(RN1-Pad6)*%
X166010000Y-105725000D03*
%TO.P,U2,3*%
%TO.N,Net-(Q2-Pad3)*%
X163470000Y-105725000D03*
%TO.P,U2,2*%
%TO.N,Net-(RN1-Pad8)*%
X160930000Y-105725000D03*
D15*
%TO.P,U2,1*%
%TO.N,Net-(RN2-Pad2)*%
X158390000Y-105725000D03*
%TD*%
D19*
%TO.N,GPIO_PC0*%
X158224996Y-93125010D03*
%TO.N,GPIO_PC1*%
X159881487Y-94123761D03*
%TO.N,GPIO_PD6*%
X156143134Y-101950010D03*
%TO.N,Net-(RN1-Pad8)*%
X152475000Y-102950000D03*
%TO.N,Net-(RN2-Pad4)*%
X144972191Y-91474990D03*
%TD*%
D20*
%TO.N,GND*%
X137280001Y-100830001D02*
X138400000Y-101950000D01*
X137280001Y-97764999D02*
X137280001Y-100830001D01*
X138570000Y-96475000D02*
X137280001Y-97764999D01*
X177920001Y-97725001D02*
X176670000Y-96475000D01*
X183825000Y-105656670D02*
X177920001Y-99751671D01*
X177920001Y-99751671D02*
X177920001Y-97725001D01*
X183825000Y-107675000D02*
X183825000Y-105656670D01*
X183124999Y-108375001D02*
X183825000Y-107675000D01*
X139600001Y-108375001D02*
X183124999Y-108375001D01*
X138400000Y-107175000D02*
X139600001Y-108375001D01*
D21*
%TO.N,GPIO_PC0*%
X158890000Y-96475000D02*
X158890000Y-93790014D01*
X158890000Y-93790014D02*
X158224996Y-93125010D01*
%TO.N,GPIO_PC1*%
X158890000Y-99015000D02*
X160254022Y-97650978D01*
X160254022Y-97650978D02*
X160254022Y-94496296D01*
X160254022Y-94496296D02*
X159881487Y-94123761D01*
%TO.N,GPIO_PC5*%
X150670011Y-95100011D02*
X149095000Y-93525000D01*
X151634013Y-95100011D02*
X150670011Y-95100011D01*
X152445001Y-95910999D02*
X151634013Y-95100011D01*
X152445001Y-97650001D02*
X152445001Y-95910999D01*
X153810000Y-99015000D02*
X152445001Y-97650001D01*
%TO.N,GPIO_PC6*%
X144015000Y-93525000D02*
X145515000Y-95025000D01*
X149820000Y-95025000D02*
X151270000Y-96475000D01*
X145515000Y-95025000D02*
X149820000Y-95025000D01*
%TO.N,GPIO_PC7*%
X150094999Y-100190001D02*
X151270000Y-99015000D01*
X140545999Y-100190001D02*
X150094999Y-100190001D01*
X139934999Y-99579001D02*
X140545999Y-100190001D01*
X139934999Y-94524999D02*
X139934999Y-99579001D01*
X138935000Y-93525000D02*
X139934999Y-94524999D01*
%TO.N,GPIO_PC3*%
X141150000Y-92200000D02*
X138935000Y-89985000D01*
X157525000Y-94689998D02*
X155035002Y-92200000D01*
X156350000Y-99015000D02*
X157525000Y-97840000D01*
X155035002Y-92200000D02*
X141150000Y-92200000D01*
X157525000Y-97840000D02*
X157525000Y-94689998D01*
D20*
%TO.N,3.3V*%
X148100000Y-105825000D02*
X149250000Y-105825000D01*
X145425001Y-103150001D02*
X148100000Y-105825000D01*
X142705001Y-103150001D02*
X145425001Y-103150001D01*
X138570000Y-99015000D02*
X142705001Y-103150001D01*
D21*
%TO.N,GPIO_PD6*%
X155250000Y-104555000D02*
X154250000Y-104555000D01*
X156143134Y-103661866D02*
X155250000Y-104555000D01*
X156143134Y-101950010D02*
X156143134Y-103661866D01*
%TO.N,Net-(Q1-Pad3)*%
X149407095Y-103285000D02*
X149250000Y-103285000D01*
X153434105Y-107312010D02*
X149407095Y-103285000D01*
X166460254Y-107312010D02*
X153434105Y-107312010D01*
X167097010Y-106675254D02*
X166460254Y-107312010D01*
X167097010Y-104774746D02*
X167097010Y-106675254D01*
X167733766Y-104137990D02*
X167097010Y-104774746D01*
X175082990Y-104137990D02*
X167733766Y-104137990D01*
X176670000Y-105725000D02*
X175082990Y-104137990D01*
%TO.N,Net-(RN1-Pad2)*%
X167597010Y-92072010D02*
X166010000Y-90485000D01*
X177622990Y-92072010D02*
X167597010Y-92072010D01*
X179210000Y-90485000D02*
X177622990Y-92072010D01*
X152760001Y-88859999D02*
X151635000Y-89985000D01*
X164384999Y-88859999D02*
X152760001Y-88859999D01*
X166010000Y-90485000D02*
X164384999Y-88859999D01*
%TO.N,Net-(RN1-Pad4)*%
X170137010Y-88897990D02*
X168550000Y-90485000D01*
X180162990Y-88897990D02*
X170137010Y-88897990D01*
X181750000Y-90485000D02*
X180162990Y-88897990D01*
X148165000Y-88375000D02*
X146555000Y-89985000D01*
X167000000Y-88375000D02*
X148165000Y-88375000D01*
X168550000Y-89925000D02*
X167000000Y-88375000D01*
X168550000Y-90485000D02*
X168550000Y-89925000D01*
%TO.N,Net-(RN1-Pad8)*%
X151964999Y-97839999D02*
X152475000Y-98350000D01*
X143275997Y-97839999D02*
X151964999Y-97839999D01*
X142474999Y-97039001D02*
X143275997Y-97839999D01*
X142474999Y-96124999D02*
X142474999Y-97039001D01*
X140349999Y-93999999D02*
X142474999Y-96124999D01*
X140349999Y-92984999D02*
X140349999Y-93999999D01*
X138475001Y-91110001D02*
X140349999Y-92984999D01*
X137520001Y-91110001D02*
X138475001Y-91110001D01*
X152475000Y-98350000D02*
X152475000Y-102950000D01*
X136395000Y-89985000D02*
X137520001Y-91110001D01*
%TO.N,Net-(RN2-Pad8)*%
X168550000Y-105725000D02*
X168550000Y-107237000D01*
X168024980Y-107762020D02*
X148272022Y-107762020D01*
X148272022Y-107762020D02*
X145835002Y-105325000D01*
X168550000Y-107237000D02*
X168024980Y-107762020D01*
X140109998Y-105325000D02*
X143825000Y-105325000D01*
X134854999Y-100070001D02*
X140109998Y-105325000D01*
X134854999Y-95065001D02*
X134854999Y-100070001D01*
X136395000Y-93525000D02*
X134854999Y-95065001D01*
X143825000Y-105325000D02*
X143600000Y-105325000D01*
X145835002Y-105325000D02*
X143825000Y-105325000D01*
X179850000Y-107625000D02*
X181750000Y-105725000D01*
X170450000Y-107625000D02*
X179850000Y-107625000D01*
X168550000Y-105725000D02*
X170450000Y-107625000D01*
%TO.N,Net-(RN2-Pad4)*%
X160930000Y-90485000D02*
X159342990Y-92072010D01*
X155997010Y-92072010D02*
X155399990Y-91474990D01*
X159342990Y-92072010D02*
X155997010Y-92072010D01*
X155399990Y-91474990D02*
X144972191Y-91474990D01*
%TO.N,Net-(RN2-Pad2)*%
X158390000Y-102798854D02*
X155174999Y-99583853D01*
X155174999Y-99583853D02*
X155174999Y-96100997D01*
X158390000Y-105725000D02*
X158390000Y-102798854D01*
X153724003Y-94650001D02*
X152760001Y-94650001D01*
X155174999Y-96100997D02*
X153724003Y-94650001D01*
X152760001Y-94650001D02*
X151635000Y-93525000D01*
%TD*%
D22*
%TO.N,GND*%
X139546198Y-105836002D02*
X139569997Y-105865001D01*
X139685722Y-105959974D01*
X139817751Y-106030546D01*
X139961012Y-106074003D01*
X140072665Y-106085000D01*
X140072675Y-106085000D01*
X140109998Y-106088676D01*
X140147321Y-106085000D01*
X145080604Y-106085000D01*
X144905363Y-106260241D01*
X144748320Y-106495273D01*
X144640147Y-106756426D01*
X144585000Y-107033665D01*
X144585000Y-107316335D01*
X144640147Y-107593574D01*
X144748320Y-107854727D01*
X144905363Y-108089759D01*
X145105241Y-108289637D01*
X145143199Y-108315000D01*
X139169878Y-108315000D01*
X139213097Y-108167702D01*
X138400000Y-107354605D01*
X137586903Y-108167702D01*
X137630122Y-108315000D01*
X134769606Y-108315000D01*
X134715000Y-108260394D01*
X134715000Y-107245512D01*
X136959783Y-107245512D01*
X137001213Y-107525130D01*
X137096397Y-107791292D01*
X137163329Y-107916514D01*
X137407298Y-107988097D01*
X138220395Y-107175000D01*
X138579605Y-107175000D01*
X139392702Y-107988097D01*
X139636671Y-107916514D01*
X139757571Y-107661004D01*
X139826300Y-107386816D01*
X139840217Y-107104488D01*
X139798787Y-106824870D01*
X139703603Y-106558708D01*
X139636671Y-106433486D01*
X139392702Y-106361903D01*
X138579605Y-107175000D01*
X138220395Y-107175000D01*
X137407298Y-106361903D01*
X137163329Y-106433486D01*
X137042429Y-106688996D01*
X136973700Y-106963184D01*
X136959783Y-107245512D01*
X134715000Y-107245512D01*
X134715000Y-106182298D01*
X137586903Y-106182298D01*
X138400000Y-106995395D01*
X139213097Y-106182298D01*
X139141514Y-105938329D01*
X138886004Y-105817429D01*
X138611816Y-105748700D01*
X138329488Y-105734783D01*
X138049870Y-105776213D01*
X137783708Y-105871397D01*
X137658486Y-105938329D01*
X137586903Y-106182298D01*
X134715000Y-106182298D01*
X134715000Y-101004803D01*
X139546198Y-105836002D01*
%TA.AperFunction,Conductor*%
D23*
G36*
X139546198Y-105836002D02*
G01*
X139569997Y-105865001D01*
X139685722Y-105959974D01*
X139817751Y-106030546D01*
X139961012Y-106074003D01*
X140072665Y-106085000D01*
X140072675Y-106085000D01*
X140109998Y-106088676D01*
X140147321Y-106085000D01*
X145080604Y-106085000D01*
X144905363Y-106260241D01*
X144748320Y-106495273D01*
X144640147Y-106756426D01*
X144585000Y-107033665D01*
X144585000Y-107316335D01*
X144640147Y-107593574D01*
X144748320Y-107854727D01*
X144905363Y-108089759D01*
X145105241Y-108289637D01*
X145143199Y-108315000D01*
X139169878Y-108315000D01*
X139213097Y-108167702D01*
X138400000Y-107354605D01*
X137586903Y-108167702D01*
X137630122Y-108315000D01*
X134769606Y-108315000D01*
X134715000Y-108260394D01*
X134715000Y-107245512D01*
X136959783Y-107245512D01*
X137001213Y-107525130D01*
X137096397Y-107791292D01*
X137163329Y-107916514D01*
X137407298Y-107988097D01*
X138220395Y-107175000D01*
X138579605Y-107175000D01*
X139392702Y-107988097D01*
X139636671Y-107916514D01*
X139757571Y-107661004D01*
X139826300Y-107386816D01*
X139840217Y-107104488D01*
X139798787Y-106824870D01*
X139703603Y-106558708D01*
X139636671Y-106433486D01*
X139392702Y-106361903D01*
X138579605Y-107175000D01*
X138220395Y-107175000D01*
X137407298Y-106361903D01*
X137163329Y-106433486D01*
X137042429Y-106688996D01*
X136973700Y-106963184D01*
X136959783Y-107245512D01*
X134715000Y-107245512D01*
X134715000Y-106182298D01*
X137586903Y-106182298D01*
X138400000Y-106995395D01*
X139213097Y-106182298D01*
X139141514Y-105938329D01*
X138886004Y-105817429D01*
X138611816Y-105748700D01*
X138329488Y-105734783D01*
X138049870Y-105776213D01*
X137783708Y-105871397D01*
X137658486Y-105938329D01*
X137586903Y-106182298D01*
X134715000Y-106182298D01*
X134715000Y-101004803D01*
X139546198Y-105836002D01*
G37*
%TD.AperFunction*%
D22*
X185605000Y-88409606D02*
X185605001Y-107890393D01*
X185180394Y-108315000D01*
X180171331Y-108315000D01*
X180274276Y-108259974D01*
X180390001Y-108165001D01*
X180413804Y-108135997D01*
X181092306Y-107457496D01*
X181212806Y-107521904D01*
X181476141Y-107601786D01*
X181750000Y-107628759D01*
X182023860Y-107601786D01*
X182287195Y-107521904D01*
X182529887Y-107392183D01*
X182742608Y-107217608D01*
X182917183Y-107004887D01*
X183046904Y-106762195D01*
X183126786Y-106498860D01*
X183147000Y-106293625D01*
X183147000Y-105156375D01*
X183126786Y-104951140D01*
X183046904Y-104687805D01*
X182917183Y-104445113D01*
X182742607Y-104232392D01*
X182529886Y-104057817D01*
X182287194Y-103928096D01*
X182023859Y-103848214D01*
X181750000Y-103821241D01*
X181476140Y-103848214D01*
X181212805Y-103928096D01*
X180970113Y-104057817D01*
X180757392Y-104232393D01*
X180582817Y-104445114D01*
X180480000Y-104637471D01*
X180377183Y-104445113D01*
X180202607Y-104232392D01*
X179989886Y-104057817D01*
X179747194Y-103928096D01*
X179483859Y-103848214D01*
X179210000Y-103821241D01*
X178936140Y-103848214D01*
X178672805Y-103928096D01*
X178430113Y-104057817D01*
X178217392Y-104232393D01*
X178042817Y-104445114D01*
X177940000Y-104637471D01*
X177837183Y-104445113D01*
X177662607Y-104232392D01*
X177449886Y-104057817D01*
X177207194Y-103928096D01*
X176943859Y-103848214D01*
X176670000Y-103821241D01*
X176396140Y-103848214D01*
X176132805Y-103928096D01*
X176012305Y-103992504D01*
X175646794Y-103626993D01*
X175622991Y-103597989D01*
X175507266Y-103503016D01*
X175375237Y-103432444D01*
X175231976Y-103388987D01*
X175120323Y-103377990D01*
X175120312Y-103377990D01*
X175082990Y-103374314D01*
X175045668Y-103377990D01*
X167771089Y-103377990D01*
X167733766Y-103374314D01*
X167696443Y-103377990D01*
X167696433Y-103377990D01*
X167584780Y-103388987D01*
X167441519Y-103432444D01*
X167309489Y-103503016D01*
X167297469Y-103512881D01*
X167193765Y-103597989D01*
X167169966Y-103626988D01*
X166756815Y-104040140D01*
X166547194Y-103928096D01*
X166283859Y-103848214D01*
X166010000Y-103821241D01*
X165736140Y-103848214D01*
X165472805Y-103928096D01*
X165230113Y-104057817D01*
X165017392Y-104232393D01*
X164842817Y-104445114D01*
X164740000Y-104637471D01*
X164637183Y-104445113D01*
X164462607Y-104232392D01*
X164249886Y-104057817D01*
X164007194Y-103928096D01*
X163743859Y-103848214D01*
X163470000Y-103821241D01*
X163196140Y-103848214D01*
X162932805Y-103928096D01*
X162690113Y-104057817D01*
X162477392Y-104232393D01*
X162302817Y-104445114D01*
X162200000Y-104637471D01*
X162097183Y-104445113D01*
X161922607Y-104232392D01*
X161709886Y-104057817D01*
X161467194Y-103928096D01*
X161203859Y-103848214D01*
X160930000Y-103821241D01*
X160656140Y-103848214D01*
X160392805Y-103928096D01*
X160150113Y-104057817D01*
X159937392Y-104232393D01*
X159785579Y-104417379D01*
X159777812Y-104338518D01*
X159741502Y-104218820D01*
X159682537Y-104108506D01*
X159603185Y-104011815D01*
X159506494Y-103932463D01*
X159396180Y-103873498D01*
X159276482Y-103837188D01*
X159152000Y-103824928D01*
X159150000Y-103824928D01*
X159150000Y-102836176D01*
X159153676Y-102798853D01*
X159150000Y-102761531D01*
X159150000Y-102761521D01*
X159139003Y-102649868D01*
X159095546Y-102506607D01*
X159066553Y-102452365D01*
X159024974Y-102374577D01*
X158953799Y-102287851D01*
X158930001Y-102258853D01*
X158901003Y-102235055D01*
X157013478Y-100347531D01*
X157053411Y-100330990D01*
X157296632Y-100168475D01*
X157503475Y-99961632D01*
X157620000Y-99787240D01*
X157736525Y-99961632D01*
X157943368Y-100168475D01*
X158186589Y-100330990D01*
X158456842Y-100442932D01*
X158743740Y-100500000D01*
X159036260Y-100500000D01*
X159323158Y-100442932D01*
X159593411Y-100330990D01*
X159836632Y-100168475D01*
X160043475Y-99961632D01*
X160160000Y-99787240D01*
X160276525Y-99961632D01*
X160483368Y-100168475D01*
X160726589Y-100330990D01*
X160996842Y-100442932D01*
X161283740Y-100500000D01*
X161576260Y-100500000D01*
X161863158Y-100442932D01*
X162133411Y-100330990D01*
X162376632Y-100168475D01*
X162583475Y-99961632D01*
X162700000Y-99787240D01*
X162816525Y-99961632D01*
X163023368Y-100168475D01*
X163266589Y-100330990D01*
X163536842Y-100442932D01*
X163823740Y-100500000D01*
X164116260Y-100500000D01*
X164403158Y-100442932D01*
X164673411Y-100330990D01*
X164916632Y-100168475D01*
X165123475Y-99961632D01*
X165240000Y-99787240D01*
X165356525Y-99961632D01*
X165563368Y-100168475D01*
X165806589Y-100330990D01*
X166076842Y-100442932D01*
X166363740Y-100500000D01*
X166656260Y-100500000D01*
X166943158Y-100442932D01*
X167213411Y-100330990D01*
X167456632Y-100168475D01*
X167663475Y-99961632D01*
X167780000Y-99787240D01*
X167896525Y-99961632D01*
X168103368Y-100168475D01*
X168346589Y-100330990D01*
X168616842Y-100442932D01*
X168903740Y-100500000D01*
X169196260Y-100500000D01*
X169483158Y-100442932D01*
X169753411Y-100330990D01*
X169996632Y-100168475D01*
X170203475Y-99961632D01*
X170320000Y-99787240D01*
X170436525Y-99961632D01*
X170643368Y-100168475D01*
X170886589Y-100330990D01*
X171156842Y-100442932D01*
X171443740Y-100500000D01*
X171736260Y-100500000D01*
X172023158Y-100442932D01*
X172293411Y-100330990D01*
X172536632Y-100168475D01*
X172743475Y-99961632D01*
X172860000Y-99787240D01*
X172976525Y-99961632D01*
X173183368Y-100168475D01*
X173426589Y-100330990D01*
X173696842Y-100442932D01*
X173983740Y-100500000D01*
X174276260Y-100500000D01*
X174563158Y-100442932D01*
X174833411Y-100330990D01*
X175076632Y-100168475D01*
X175283475Y-99961632D01*
X175400000Y-99787240D01*
X175516525Y-99961632D01*
X175723368Y-100168475D01*
X175966589Y-100330990D01*
X176236842Y-100442932D01*
X176523740Y-100500000D01*
X176816260Y-100500000D01*
X177103158Y-100442932D01*
X177373411Y-100330990D01*
X177616632Y-100168475D01*
X177823475Y-99961632D01*
X177940000Y-99787240D01*
X178056525Y-99961632D01*
X178263368Y-100168475D01*
X178506589Y-100330990D01*
X178776842Y-100442932D01*
X179063740Y-100500000D01*
X179356260Y-100500000D01*
X179643158Y-100442932D01*
X179913411Y-100330990D01*
X180156632Y-100168475D01*
X180363475Y-99961632D01*
X180480000Y-99787240D01*
X180596525Y-99961632D01*
X180803368Y-100168475D01*
X181046589Y-100330990D01*
X181316842Y-100442932D01*
X181603740Y-100500000D01*
X181896260Y-100500000D01*
X182183158Y-100442932D01*
X182453411Y-100330990D01*
X182696632Y-100168475D01*
X182903475Y-99961632D01*
X183065990Y-99718411D01*
X183177932Y-99448158D01*
X183235000Y-99161260D01*
X183235000Y-98868740D01*
X183177932Y-98581842D01*
X183065990Y-98311589D01*
X182903475Y-98068368D01*
X182771620Y-97936513D01*
X182844180Y-97914502D01*
X182954494Y-97855537D01*
X183051185Y-97776185D01*
X183130537Y-97679494D01*
X183189502Y-97569180D01*
X183225812Y-97449482D01*
X183238072Y-97325000D01*
X183238072Y-95625000D01*
X183225812Y-95500518D01*
X183189502Y-95380820D01*
X183130537Y-95270506D01*
X183051185Y-95173815D01*
X182954494Y-95094463D01*
X182844180Y-95035498D01*
X182724482Y-94999188D01*
X182600000Y-94986928D01*
X180900000Y-94986928D01*
X180775518Y-94999188D01*
X180655820Y-95035498D01*
X180545506Y-95094463D01*
X180448815Y-95173815D01*
X180369463Y-95270506D01*
X180310498Y-95380820D01*
X180288487Y-95453380D01*
X180156632Y-95321525D01*
X179913411Y-95159010D01*
X179643158Y-95047068D01*
X179356260Y-94990000D01*
X179063740Y-94990000D01*
X178776842Y-95047068D01*
X178506589Y-95159010D01*
X178263368Y-95321525D01*
X178056525Y-95528368D01*
X177934805Y-95710534D01*
X177865178Y-95593645D01*
X177670269Y-95377412D01*
X177436920Y-95203359D01*
X177174099Y-95078175D01*
X177026890Y-95033524D01*
X176797000Y-95154845D01*
X176797000Y-96348000D01*
X176817000Y-96348000D01*
X176817000Y-96602000D01*
X176797000Y-96602000D01*
X176797000Y-96622000D01*
X176543000Y-96622000D01*
X176543000Y-96602000D01*
X174257000Y-96602000D01*
X174257000Y-96622000D01*
X174003000Y-96622000D01*
X174003000Y-96602000D01*
X173983000Y-96602000D01*
X173983000Y-96348000D01*
X174003000Y-96348000D01*
X174003000Y-95154845D01*
X174257000Y-95154845D01*
X174257000Y-96348000D01*
X176543000Y-96348000D01*
X176543000Y-95154845D01*
X176313110Y-95033524D01*
X176165901Y-95078175D01*
X175903080Y-95203359D01*
X175669731Y-95377412D01*
X175474822Y-95593645D01*
X175400000Y-95719255D01*
X175325178Y-95593645D01*
X175130269Y-95377412D01*
X174896920Y-95203359D01*
X174634099Y-95078175D01*
X174486890Y-95033524D01*
X174257000Y-95154845D01*
X174003000Y-95154845D01*
X173773110Y-95033524D01*
X173625901Y-95078175D01*
X173363080Y-95203359D01*
X173129731Y-95377412D01*
X172934822Y-95593645D01*
X172865195Y-95710534D01*
X172743475Y-95528368D01*
X172536632Y-95321525D01*
X172293411Y-95159010D01*
X172023158Y-95047068D01*
X171736260Y-94990000D01*
X171443740Y-94990000D01*
X171156842Y-95047068D01*
X170886589Y-95159010D01*
X170643368Y-95321525D01*
X170436525Y-95528368D01*
X170320000Y-95702760D01*
X170203475Y-95528368D01*
X169996632Y-95321525D01*
X169753411Y-95159010D01*
X169483158Y-95047068D01*
X169196260Y-94990000D01*
X168903740Y-94990000D01*
X168616842Y-95047068D01*
X168346589Y-95159010D01*
X168103368Y-95321525D01*
X167896525Y-95528368D01*
X167780000Y-95702760D01*
X167663475Y-95528368D01*
X167456632Y-95321525D01*
X167213411Y-95159010D01*
X166943158Y-95047068D01*
X166656260Y-94990000D01*
X166363740Y-94990000D01*
X166076842Y-95047068D01*
X165806589Y-95159010D01*
X165563368Y-95321525D01*
X165356525Y-95528368D01*
X165240000Y-95702760D01*
X165123475Y-95528368D01*
X164916632Y-95321525D01*
X164673411Y-95159010D01*
X164403158Y-95047068D01*
X164116260Y-94990000D01*
X163823740Y-94990000D01*
X163536842Y-95047068D01*
X163266589Y-95159010D01*
X163023368Y-95321525D01*
X162816525Y-95528368D01*
X162700000Y-95702760D01*
X162583475Y-95528368D01*
X162376632Y-95321525D01*
X162133411Y-95159010D01*
X161863158Y-95047068D01*
X161576260Y-94990000D01*
X161283740Y-94990000D01*
X161014022Y-95043651D01*
X161014022Y-94533618D01*
X161017698Y-94496295D01*
X161014022Y-94458972D01*
X161014022Y-94458963D01*
X161003025Y-94347310D01*
X160959568Y-94204049D01*
X160916487Y-94123451D01*
X160916487Y-94021822D01*
X160876713Y-93821863D01*
X160798692Y-93633505D01*
X160685424Y-93463987D01*
X160541261Y-93319824D01*
X160371743Y-93206556D01*
X160183385Y-93128535D01*
X159983426Y-93088761D01*
X159779548Y-93088761D01*
X159579589Y-93128535D01*
X159391231Y-93206556D01*
X159385304Y-93210516D01*
X159259996Y-93085208D01*
X159259996Y-93023071D01*
X159221992Y-92832010D01*
X159305668Y-92832010D01*
X159342990Y-92835686D01*
X159380312Y-92832010D01*
X159380323Y-92832010D01*
X159491976Y-92821013D01*
X159635237Y-92777556D01*
X159767266Y-92706984D01*
X159882991Y-92612011D01*
X159906794Y-92583007D01*
X160272306Y-92217496D01*
X160392806Y-92281904D01*
X160656141Y-92361786D01*
X160930000Y-92388759D01*
X161203860Y-92361786D01*
X161467195Y-92281904D01*
X161709887Y-92152183D01*
X161922608Y-91977608D01*
X162097183Y-91764887D01*
X162200000Y-91572529D01*
X162302817Y-91764887D01*
X162477393Y-91977608D01*
X162690114Y-92152183D01*
X162932806Y-92281904D01*
X163196141Y-92361786D01*
X163470000Y-92388759D01*
X163743860Y-92361786D01*
X164007195Y-92281904D01*
X164249887Y-92152183D01*
X164462608Y-91977608D01*
X164637183Y-91764887D01*
X164740000Y-91572529D01*
X164842817Y-91764887D01*
X165017393Y-91977608D01*
X165230114Y-92152183D01*
X165472806Y-92281904D01*
X165736141Y-92361786D01*
X166010000Y-92388759D01*
X166283860Y-92361786D01*
X166547195Y-92281904D01*
X166667694Y-92217496D01*
X167033211Y-92583013D01*
X167057009Y-92612011D01*
X167086007Y-92635809D01*
X167172733Y-92706984D01*
X167279026Y-92763799D01*
X167304763Y-92777556D01*
X167448024Y-92821013D01*
X167559677Y-92832010D01*
X167559686Y-92832010D01*
X167597009Y-92835686D01*
X167634332Y-92832010D01*
X177585668Y-92832010D01*
X177622990Y-92835686D01*
X177660312Y-92832010D01*
X177660323Y-92832010D01*
X177771976Y-92821013D01*
X177915237Y-92777556D01*
X178047266Y-92706984D01*
X178162991Y-92612011D01*
X178186794Y-92583007D01*
X178552306Y-92217496D01*
X178672806Y-92281904D01*
X178936141Y-92361786D01*
X179210000Y-92388759D01*
X179483860Y-92361786D01*
X179747195Y-92281904D01*
X179989887Y-92152183D01*
X180202608Y-91977608D01*
X180377183Y-91764887D01*
X180480000Y-91572529D01*
X180582817Y-91764887D01*
X180757393Y-91977608D01*
X180970114Y-92152183D01*
X181212806Y-92281904D01*
X181476141Y-92361786D01*
X181750000Y-92388759D01*
X182023860Y-92361786D01*
X182287195Y-92281904D01*
X182529887Y-92152183D01*
X182742608Y-91977608D01*
X182917183Y-91764887D01*
X183046904Y-91522195D01*
X183126786Y-91258860D01*
X183147000Y-91053625D01*
X183147000Y-89916375D01*
X183126786Y-89711140D01*
X183046904Y-89447805D01*
X182917183Y-89205113D01*
X182742607Y-88992392D01*
X182529886Y-88817817D01*
X182287194Y-88688096D01*
X182023859Y-88608214D01*
X181750000Y-88581241D01*
X181476140Y-88608214D01*
X181212805Y-88688096D01*
X181092305Y-88752504D01*
X180726794Y-88386993D01*
X180702991Y-88357989D01*
X180587266Y-88263016D01*
X180455237Y-88192444D01*
X180430697Y-88185000D01*
X185380394Y-88185000D01*
X185605000Y-88409606D01*
%TA.AperFunction,Conductor*%
D23*
G36*
X185605000Y-88409606D02*
G01*
X185605001Y-107890393D01*
X185180394Y-108315000D01*
X180171331Y-108315000D01*
X180274276Y-108259974D01*
X180390001Y-108165001D01*
X180413804Y-108135997D01*
X181092306Y-107457496D01*
X181212806Y-107521904D01*
X181476141Y-107601786D01*
X181750000Y-107628759D01*
X182023860Y-107601786D01*
X182287195Y-107521904D01*
X182529887Y-107392183D01*
X182742608Y-107217608D01*
X182917183Y-107004887D01*
X183046904Y-106762195D01*
X183126786Y-106498860D01*
X183147000Y-106293625D01*
X183147000Y-105156375D01*
X183126786Y-104951140D01*
X183046904Y-104687805D01*
X182917183Y-104445113D01*
X182742607Y-104232392D01*
X182529886Y-104057817D01*
X182287194Y-103928096D01*
X182023859Y-103848214D01*
X181750000Y-103821241D01*
X181476140Y-103848214D01*
X181212805Y-103928096D01*
X180970113Y-104057817D01*
X180757392Y-104232393D01*
X180582817Y-104445114D01*
X180480000Y-104637471D01*
X180377183Y-104445113D01*
X180202607Y-104232392D01*
X179989886Y-104057817D01*
X179747194Y-103928096D01*
X179483859Y-103848214D01*
X179210000Y-103821241D01*
X178936140Y-103848214D01*
X178672805Y-103928096D01*
X178430113Y-104057817D01*
X178217392Y-104232393D01*
X178042817Y-104445114D01*
X177940000Y-104637471D01*
X177837183Y-104445113D01*
X177662607Y-104232392D01*
X177449886Y-104057817D01*
X177207194Y-103928096D01*
X176943859Y-103848214D01*
X176670000Y-103821241D01*
X176396140Y-103848214D01*
X176132805Y-103928096D01*
X176012305Y-103992504D01*
X175646794Y-103626993D01*
X175622991Y-103597989D01*
X175507266Y-103503016D01*
X175375237Y-103432444D01*
X175231976Y-103388987D01*
X175120323Y-103377990D01*
X175120312Y-103377990D01*
X175082990Y-103374314D01*
X175045668Y-103377990D01*
X167771089Y-103377990D01*
X167733766Y-103374314D01*
X167696443Y-103377990D01*
X167696433Y-103377990D01*
X167584780Y-103388987D01*
X167441519Y-103432444D01*
X167309489Y-103503016D01*
X167297469Y-103512881D01*
X167193765Y-103597989D01*
X167169966Y-103626988D01*
X166756815Y-104040140D01*
X166547194Y-103928096D01*
X166283859Y-103848214D01*
X166010000Y-103821241D01*
X165736140Y-103848214D01*
X165472805Y-103928096D01*
X165230113Y-104057817D01*
X165017392Y-104232393D01*
X164842817Y-104445114D01*
X164740000Y-104637471D01*
X164637183Y-104445113D01*
X164462607Y-104232392D01*
X164249886Y-104057817D01*
X164007194Y-103928096D01*
X163743859Y-103848214D01*
X163470000Y-103821241D01*
X163196140Y-103848214D01*
X162932805Y-103928096D01*
X162690113Y-104057817D01*
X162477392Y-104232393D01*
X162302817Y-104445114D01*
X162200000Y-104637471D01*
X162097183Y-104445113D01*
X161922607Y-104232392D01*
X161709886Y-104057817D01*
X161467194Y-103928096D01*
X161203859Y-103848214D01*
X160930000Y-103821241D01*
X160656140Y-103848214D01*
X160392805Y-103928096D01*
X160150113Y-104057817D01*
X159937392Y-104232393D01*
X159785579Y-104417379D01*
X159777812Y-104338518D01*
X159741502Y-104218820D01*
X159682537Y-104108506D01*
X159603185Y-104011815D01*
X159506494Y-103932463D01*
X159396180Y-103873498D01*
X159276482Y-103837188D01*
X159152000Y-103824928D01*
X159150000Y-103824928D01*
X159150000Y-102836176D01*
X159153676Y-102798853D01*
X159150000Y-102761531D01*
X159150000Y-102761521D01*
X159139003Y-102649868D01*
X159095546Y-102506607D01*
X159066553Y-102452365D01*
X159024974Y-102374577D01*
X158953799Y-102287851D01*
X158930001Y-102258853D01*
X158901003Y-102235055D01*
X157013478Y-100347531D01*
X157053411Y-100330990D01*
X157296632Y-100168475D01*
X157503475Y-99961632D01*
X157620000Y-99787240D01*
X157736525Y-99961632D01*
X157943368Y-100168475D01*
X158186589Y-100330990D01*
X158456842Y-100442932D01*
X158743740Y-100500000D01*
X159036260Y-100500000D01*
X159323158Y-100442932D01*
X159593411Y-100330990D01*
X159836632Y-100168475D01*
X160043475Y-99961632D01*
X160160000Y-99787240D01*
X160276525Y-99961632D01*
X160483368Y-100168475D01*
X160726589Y-100330990D01*
X160996842Y-100442932D01*
X161283740Y-100500000D01*
X161576260Y-100500000D01*
X161863158Y-100442932D01*
X162133411Y-100330990D01*
X162376632Y-100168475D01*
X162583475Y-99961632D01*
X162700000Y-99787240D01*
X162816525Y-99961632D01*
X163023368Y-100168475D01*
X163266589Y-100330990D01*
X163536842Y-100442932D01*
X163823740Y-100500000D01*
X164116260Y-100500000D01*
X164403158Y-100442932D01*
X164673411Y-100330990D01*
X164916632Y-100168475D01*
X165123475Y-99961632D01*
X165240000Y-99787240D01*
X165356525Y-99961632D01*
X165563368Y-100168475D01*
X165806589Y-100330990D01*
X166076842Y-100442932D01*
X166363740Y-100500000D01*
X166656260Y-100500000D01*
X166943158Y-100442932D01*
X167213411Y-100330990D01*
X167456632Y-100168475D01*
X167663475Y-99961632D01*
X167780000Y-99787240D01*
X167896525Y-99961632D01*
X168103368Y-100168475D01*
X168346589Y-100330990D01*
X168616842Y-100442932D01*
X168903740Y-100500000D01*
X169196260Y-100500000D01*
X169483158Y-100442932D01*
X169753411Y-100330990D01*
X169996632Y-100168475D01*
X170203475Y-99961632D01*
X170320000Y-99787240D01*
X170436525Y-99961632D01*
X170643368Y-100168475D01*
X170886589Y-100330990D01*
X171156842Y-100442932D01*
X171443740Y-100500000D01*
X171736260Y-100500000D01*
X172023158Y-100442932D01*
X172293411Y-100330990D01*
X172536632Y-100168475D01*
X172743475Y-99961632D01*
X172860000Y-99787240D01*
X172976525Y-99961632D01*
X173183368Y-100168475D01*
X173426589Y-100330990D01*
X173696842Y-100442932D01*
X173983740Y-100500000D01*
X174276260Y-100500000D01*
X174563158Y-100442932D01*
X174833411Y-100330990D01*
X175076632Y-100168475D01*
X175283475Y-99961632D01*
X175400000Y-99787240D01*
X175516525Y-99961632D01*
X175723368Y-100168475D01*
X175966589Y-100330990D01*
X176236842Y-100442932D01*
X176523740Y-100500000D01*
X176816260Y-100500000D01*
X177103158Y-100442932D01*
X177373411Y-100330990D01*
X177616632Y-100168475D01*
X177823475Y-99961632D01*
X177940000Y-99787240D01*
X178056525Y-99961632D01*
X178263368Y-100168475D01*
X178506589Y-100330990D01*
X178776842Y-100442932D01*
X179063740Y-100500000D01*
X179356260Y-100500000D01*
X179643158Y-100442932D01*
X179913411Y-100330990D01*
X180156632Y-100168475D01*
X180363475Y-99961632D01*
X180480000Y-99787240D01*
X180596525Y-99961632D01*
X180803368Y-100168475D01*
X181046589Y-100330990D01*
X181316842Y-100442932D01*
X181603740Y-100500000D01*
X181896260Y-100500000D01*
X182183158Y-100442932D01*
X182453411Y-100330990D01*
X182696632Y-100168475D01*
X182903475Y-99961632D01*
X183065990Y-99718411D01*
X183177932Y-99448158D01*
X183235000Y-99161260D01*
X183235000Y-98868740D01*
X183177932Y-98581842D01*
X183065990Y-98311589D01*
X182903475Y-98068368D01*
X182771620Y-97936513D01*
X182844180Y-97914502D01*
X182954494Y-97855537D01*
X183051185Y-97776185D01*
X183130537Y-97679494D01*
X183189502Y-97569180D01*
X183225812Y-97449482D01*
X183238072Y-97325000D01*
X183238072Y-95625000D01*
X183225812Y-95500518D01*
X183189502Y-95380820D01*
X183130537Y-95270506D01*
X183051185Y-95173815D01*
X182954494Y-95094463D01*
X182844180Y-95035498D01*
X182724482Y-94999188D01*
X182600000Y-94986928D01*
X180900000Y-94986928D01*
X180775518Y-94999188D01*
X180655820Y-95035498D01*
X180545506Y-95094463D01*
X180448815Y-95173815D01*
X180369463Y-95270506D01*
X180310498Y-95380820D01*
X180288487Y-95453380D01*
X180156632Y-95321525D01*
X179913411Y-95159010D01*
X179643158Y-95047068D01*
X179356260Y-94990000D01*
X179063740Y-94990000D01*
X178776842Y-95047068D01*
X178506589Y-95159010D01*
X178263368Y-95321525D01*
X178056525Y-95528368D01*
X177934805Y-95710534D01*
X177865178Y-95593645D01*
X177670269Y-95377412D01*
X177436920Y-95203359D01*
X177174099Y-95078175D01*
X177026890Y-95033524D01*
X176797000Y-95154845D01*
X176797000Y-96348000D01*
X176817000Y-96348000D01*
X176817000Y-96602000D01*
X176797000Y-96602000D01*
X176797000Y-96622000D01*
X176543000Y-96622000D01*
X176543000Y-96602000D01*
X174257000Y-96602000D01*
X174257000Y-96622000D01*
X174003000Y-96622000D01*
X174003000Y-96602000D01*
X173983000Y-96602000D01*
X173983000Y-96348000D01*
X174003000Y-96348000D01*
X174003000Y-95154845D01*
X174257000Y-95154845D01*
X174257000Y-96348000D01*
X176543000Y-96348000D01*
X176543000Y-95154845D01*
X176313110Y-95033524D01*
X176165901Y-95078175D01*
X175903080Y-95203359D01*
X175669731Y-95377412D01*
X175474822Y-95593645D01*
X175400000Y-95719255D01*
X175325178Y-95593645D01*
X175130269Y-95377412D01*
X174896920Y-95203359D01*
X174634099Y-95078175D01*
X174486890Y-95033524D01*
X174257000Y-95154845D01*
X174003000Y-95154845D01*
X173773110Y-95033524D01*
X173625901Y-95078175D01*
X173363080Y-95203359D01*
X173129731Y-95377412D01*
X172934822Y-95593645D01*
X172865195Y-95710534D01*
X172743475Y-95528368D01*
X172536632Y-95321525D01*
X172293411Y-95159010D01*
X172023158Y-95047068D01*
X171736260Y-94990000D01*
X171443740Y-94990000D01*
X171156842Y-95047068D01*
X170886589Y-95159010D01*
X170643368Y-95321525D01*
X170436525Y-95528368D01*
X170320000Y-95702760D01*
X170203475Y-95528368D01*
X169996632Y-95321525D01*
X169753411Y-95159010D01*
X169483158Y-95047068D01*
X169196260Y-94990000D01*
X168903740Y-94990000D01*
X168616842Y-95047068D01*
X168346589Y-95159010D01*
X168103368Y-95321525D01*
X167896525Y-95528368D01*
X167780000Y-95702760D01*
X167663475Y-95528368D01*
X167456632Y-95321525D01*
X167213411Y-95159010D01*
X166943158Y-95047068D01*
X166656260Y-94990000D01*
X166363740Y-94990000D01*
X166076842Y-95047068D01*
X165806589Y-95159010D01*
X165563368Y-95321525D01*
X165356525Y-95528368D01*
X165240000Y-95702760D01*
X165123475Y-95528368D01*
X164916632Y-95321525D01*
X164673411Y-95159010D01*
X164403158Y-95047068D01*
X164116260Y-94990000D01*
X163823740Y-94990000D01*
X163536842Y-95047068D01*
X163266589Y-95159010D01*
X163023368Y-95321525D01*
X162816525Y-95528368D01*
X162700000Y-95702760D01*
X162583475Y-95528368D01*
X162376632Y-95321525D01*
X162133411Y-95159010D01*
X161863158Y-95047068D01*
X161576260Y-94990000D01*
X161283740Y-94990000D01*
X161014022Y-95043651D01*
X161014022Y-94533618D01*
X161017698Y-94496295D01*
X161014022Y-94458972D01*
X161014022Y-94458963D01*
X161003025Y-94347310D01*
X160959568Y-94204049D01*
X160916487Y-94123451D01*
X160916487Y-94021822D01*
X160876713Y-93821863D01*
X160798692Y-93633505D01*
X160685424Y-93463987D01*
X160541261Y-93319824D01*
X160371743Y-93206556D01*
X160183385Y-93128535D01*
X159983426Y-93088761D01*
X159779548Y-93088761D01*
X159579589Y-93128535D01*
X159391231Y-93206556D01*
X159385304Y-93210516D01*
X159259996Y-93085208D01*
X159259996Y-93023071D01*
X159221992Y-92832010D01*
X159305668Y-92832010D01*
X159342990Y-92835686D01*
X159380312Y-92832010D01*
X159380323Y-92832010D01*
X159491976Y-92821013D01*
X159635237Y-92777556D01*
X159767266Y-92706984D01*
X159882991Y-92612011D01*
X159906794Y-92583007D01*
X160272306Y-92217496D01*
X160392806Y-92281904D01*
X160656141Y-92361786D01*
X160930000Y-92388759D01*
X161203860Y-92361786D01*
X161467195Y-92281904D01*
X161709887Y-92152183D01*
X161922608Y-91977608D01*
X162097183Y-91764887D01*
X162200000Y-91572529D01*
X162302817Y-91764887D01*
X162477393Y-91977608D01*
X162690114Y-92152183D01*
X162932806Y-92281904D01*
X163196141Y-92361786D01*
X163470000Y-92388759D01*
X163743860Y-92361786D01*
X164007195Y-92281904D01*
X164249887Y-92152183D01*
X164462608Y-91977608D01*
X164637183Y-91764887D01*
X164740000Y-91572529D01*
X164842817Y-91764887D01*
X165017393Y-91977608D01*
X165230114Y-92152183D01*
X165472806Y-92281904D01*
X165736141Y-92361786D01*
X166010000Y-92388759D01*
X166283860Y-92361786D01*
X166547195Y-92281904D01*
X166667694Y-92217496D01*
X167033211Y-92583013D01*
X167057009Y-92612011D01*
X167086007Y-92635809D01*
X167172733Y-92706984D01*
X167279026Y-92763799D01*
X167304763Y-92777556D01*
X167448024Y-92821013D01*
X167559677Y-92832010D01*
X167559686Y-92832010D01*
X167597009Y-92835686D01*
X167634332Y-92832010D01*
X177585668Y-92832010D01*
X177622990Y-92835686D01*
X177660312Y-92832010D01*
X177660323Y-92832010D01*
X177771976Y-92821013D01*
X177915237Y-92777556D01*
X178047266Y-92706984D01*
X178162991Y-92612011D01*
X178186794Y-92583007D01*
X178552306Y-92217496D01*
X178672806Y-92281904D01*
X178936141Y-92361786D01*
X179210000Y-92388759D01*
X179483860Y-92361786D01*
X179747195Y-92281904D01*
X179989887Y-92152183D01*
X180202608Y-91977608D01*
X180377183Y-91764887D01*
X180480000Y-91572529D01*
X180582817Y-91764887D01*
X180757393Y-91977608D01*
X180970114Y-92152183D01*
X181212806Y-92281904D01*
X181476141Y-92361786D01*
X181750000Y-92388759D01*
X182023860Y-92361786D01*
X182287195Y-92281904D01*
X182529887Y-92152183D01*
X182742608Y-91977608D01*
X182917183Y-91764887D01*
X183046904Y-91522195D01*
X183126786Y-91258860D01*
X183147000Y-91053625D01*
X183147000Y-89916375D01*
X183126786Y-89711140D01*
X183046904Y-89447805D01*
X182917183Y-89205113D01*
X182742607Y-88992392D01*
X182529886Y-88817817D01*
X182287194Y-88688096D01*
X182023859Y-88608214D01*
X181750000Y-88581241D01*
X181476140Y-88608214D01*
X181212805Y-88688096D01*
X181092305Y-88752504D01*
X180726794Y-88386993D01*
X180702991Y-88357989D01*
X180587266Y-88263016D01*
X180455237Y-88192444D01*
X180430697Y-88185000D01*
X185380394Y-88185000D01*
X185605000Y-88409606D01*
G37*
%TD.AperFunction*%
D22*
X137416525Y-99961632D02*
X137623368Y-100168475D01*
X137866589Y-100330990D01*
X138136842Y-100442932D01*
X138423740Y-100500000D01*
X138716260Y-100500000D01*
X138847940Y-100473807D01*
X139038915Y-100664782D01*
X138886004Y-100592429D01*
X138611816Y-100523700D01*
X138329488Y-100509783D01*
X138049870Y-100551213D01*
X137783708Y-100646397D01*
X137658486Y-100713329D01*
X137586903Y-100957298D01*
X138400000Y-101770395D01*
X138414143Y-101756253D01*
X138593748Y-101935858D01*
X138579605Y-101950000D01*
X139392702Y-102763097D01*
X139636671Y-102691514D01*
X139757571Y-102436004D01*
X139826300Y-102161816D01*
X139840217Y-101879488D01*
X139798787Y-101599870D01*
X139703603Y-101333708D01*
X139698737Y-101324605D01*
X142085560Y-103711428D01*
X142111710Y-103743292D01*
X142238855Y-103847637D01*
X142383914Y-103925173D01*
X142541312Y-103972919D01*
X142663982Y-103985001D01*
X142663992Y-103985001D01*
X142705000Y-103989040D01*
X142746008Y-103985001D01*
X145079134Y-103985001D01*
X145659132Y-104565000D01*
X140424800Y-104565000D01*
X139079577Y-103219777D01*
X139141514Y-103186671D01*
X139213097Y-102942702D01*
X138400000Y-102129605D01*
X138385858Y-102143748D01*
X138206253Y-101964143D01*
X138220395Y-101950000D01*
X137407298Y-101136903D01*
X137163329Y-101208486D01*
X137132802Y-101273002D01*
X136329348Y-100469549D01*
X136463158Y-100442932D01*
X136733411Y-100330990D01*
X136976632Y-100168475D01*
X137183475Y-99961632D01*
X137300000Y-99787240D01*
X137416525Y-99961632D01*
%TA.AperFunction,Conductor*%
D23*
G36*
X137416525Y-99961632D02*
G01*
X137623368Y-100168475D01*
X137866589Y-100330990D01*
X138136842Y-100442932D01*
X138423740Y-100500000D01*
X138716260Y-100500000D01*
X138847940Y-100473807D01*
X139038915Y-100664782D01*
X138886004Y-100592429D01*
X138611816Y-100523700D01*
X138329488Y-100509783D01*
X138049870Y-100551213D01*
X137783708Y-100646397D01*
X137658486Y-100713329D01*
X137586903Y-100957298D01*
X138400000Y-101770395D01*
X138414143Y-101756253D01*
X138593748Y-101935858D01*
X138579605Y-101950000D01*
X139392702Y-102763097D01*
X139636671Y-102691514D01*
X139757571Y-102436004D01*
X139826300Y-102161816D01*
X139840217Y-101879488D01*
X139798787Y-101599870D01*
X139703603Y-101333708D01*
X139698737Y-101324605D01*
X142085560Y-103711428D01*
X142111710Y-103743292D01*
X142238855Y-103847637D01*
X142383914Y-103925173D01*
X142541312Y-103972919D01*
X142663982Y-103985001D01*
X142663992Y-103985001D01*
X142705000Y-103989040D01*
X142746008Y-103985001D01*
X145079134Y-103985001D01*
X145659132Y-104565000D01*
X140424800Y-104565000D01*
X139079577Y-103219777D01*
X139141514Y-103186671D01*
X139213097Y-102942702D01*
X138400000Y-102129605D01*
X138385858Y-102143748D01*
X138206253Y-101964143D01*
X138220395Y-101950000D01*
X137407298Y-101136903D01*
X137163329Y-101208486D01*
X137132802Y-101273002D01*
X136329348Y-100469549D01*
X136463158Y-100442932D01*
X136733411Y-100330990D01*
X136976632Y-100168475D01*
X137183475Y-99961632D01*
X137300000Y-99787240D01*
X137416525Y-99961632D01*
G37*
%TD.AperFunction*%
D22*
X137374822Y-97356355D02*
X137569731Y-97572588D01*
X137799406Y-97743900D01*
X137623368Y-97861525D01*
X137416525Y-98068368D01*
X137300000Y-98242760D01*
X137183475Y-98068368D01*
X136976632Y-97861525D01*
X136802240Y-97745000D01*
X136976632Y-97628475D01*
X137183475Y-97421632D01*
X137305195Y-97239466D01*
X137374822Y-97356355D01*
%TA.AperFunction,Conductor*%
D23*
G36*
X137374822Y-97356355D02*
G01*
X137569731Y-97572588D01*
X137799406Y-97743900D01*
X137623368Y-97861525D01*
X137416525Y-98068368D01*
X137300000Y-98242760D01*
X137183475Y-98068368D01*
X136976632Y-97861525D01*
X136802240Y-97745000D01*
X136976632Y-97628475D01*
X137183475Y-97421632D01*
X137305195Y-97239466D01*
X137374822Y-97356355D01*
G37*
%TD.AperFunction*%
D22*
X178056525Y-97421632D02*
X178263368Y-97628475D01*
X178437760Y-97745000D01*
X178263368Y-97861525D01*
X178056525Y-98068368D01*
X177940000Y-98242760D01*
X177823475Y-98068368D01*
X177616632Y-97861525D01*
X177440594Y-97743900D01*
X177670269Y-97572588D01*
X177865178Y-97356355D01*
X177934805Y-97239466D01*
X178056525Y-97421632D01*
%TA.AperFunction,Conductor*%
D23*
G36*
X178056525Y-97421632D02*
G01*
X178263368Y-97628475D01*
X178437760Y-97745000D01*
X178263368Y-97861525D01*
X178056525Y-98068368D01*
X177940000Y-98242760D01*
X177823475Y-98068368D01*
X177616632Y-97861525D01*
X177440594Y-97743900D01*
X177670269Y-97572588D01*
X177865178Y-97356355D01*
X177934805Y-97239466D01*
X178056525Y-97421632D01*
G37*
%TD.AperFunction*%
D22*
X137820363Y-94439759D02*
X138020241Y-94639637D01*
X138255273Y-94796680D01*
X138516426Y-94904853D01*
X138793665Y-94960000D01*
X139076335Y-94960000D01*
X139174999Y-94940374D01*
X139174999Y-95126235D01*
X139074099Y-95078175D01*
X138926890Y-95033524D01*
X138697000Y-95154845D01*
X138697000Y-96348000D01*
X138717000Y-96348000D01*
X138717000Y-96602000D01*
X138697000Y-96602000D01*
X138697000Y-96622000D01*
X138443000Y-96622000D01*
X138443000Y-96602000D01*
X138423000Y-96602000D01*
X138423000Y-96348000D01*
X138443000Y-96348000D01*
X138443000Y-95154845D01*
X138213110Y-95033524D01*
X138065901Y-95078175D01*
X137803080Y-95203359D01*
X137569731Y-95377412D01*
X137374822Y-95593645D01*
X137305195Y-95710534D01*
X137183475Y-95528368D01*
X136976632Y-95321525D01*
X136733411Y-95159010D01*
X136463158Y-95047068D01*
X136176260Y-94990000D01*
X136004801Y-94990000D01*
X136071114Y-94923688D01*
X136253665Y-94960000D01*
X136536335Y-94960000D01*
X136813574Y-94904853D01*
X137074727Y-94796680D01*
X137309759Y-94639637D01*
X137509637Y-94439759D01*
X137665000Y-94207241D01*
X137820363Y-94439759D01*
%TA.AperFunction,Conductor*%
D23*
G36*
X137820363Y-94439759D02*
G01*
X138020241Y-94639637D01*
X138255273Y-94796680D01*
X138516426Y-94904853D01*
X138793665Y-94960000D01*
X139076335Y-94960000D01*
X139174999Y-94940374D01*
X139174999Y-95126235D01*
X139074099Y-95078175D01*
X138926890Y-95033524D01*
X138697000Y-95154845D01*
X138697000Y-96348000D01*
X138717000Y-96348000D01*
X138717000Y-96602000D01*
X138697000Y-96602000D01*
X138697000Y-96622000D01*
X138443000Y-96622000D01*
X138443000Y-96602000D01*
X138423000Y-96602000D01*
X138423000Y-96348000D01*
X138443000Y-96348000D01*
X138443000Y-95154845D01*
X138213110Y-95033524D01*
X138065901Y-95078175D01*
X137803080Y-95203359D01*
X137569731Y-95377412D01*
X137374822Y-95593645D01*
X137305195Y-95710534D01*
X137183475Y-95528368D01*
X136976632Y-95321525D01*
X136733411Y-95159010D01*
X136463158Y-95047068D01*
X136176260Y-94990000D01*
X136004801Y-94990000D01*
X136071114Y-94923688D01*
X136253665Y-94960000D01*
X136536335Y-94960000D01*
X136813574Y-94904853D01*
X137074727Y-94796680D01*
X137309759Y-94639637D01*
X137509637Y-94439759D01*
X137665000Y-94207241D01*
X137820363Y-94439759D01*
G37*
%TD.AperFunction*%
%TD*%
M02*
