%TF.GenerationSoftware,KiCad,Pcbnew,(5.1.9)-1*%
%TF.CreationDate,2023-05-11T19:32:03+01:00*%
%TF.ProjectId,#3_7segment_double,23335f37-7365-4676-9d65-6e745f646f75,Rev 01*%
%TF.SameCoordinates,Original*%
%TF.FileFunction,Legend,Top*%
%TF.FilePolarity,Positive*%
%FSLAX46Y46*%
G04 Gerber Fmt 4.6, Leading zero omitted, Abs format (unit mm)*
G04 Created by KiCad (PCBNEW (5.1.9)-1) date 2023-05-11 19:32:03*
%MOMM*%
%LPD*%
G01*
G04 APERTURE LIST*
%ADD10C,0.120000*%
%ADD11C,0.075000*%
%ADD12C,0.150000*%
%ADD13R,1.700000X1.700000*%
%ADD14O,1.700000X1.700000*%
%ADD15C,1.600000*%
%ADD16O,1.600000X1.600000*%
%ADD17O,1.524000X2.524000*%
%ADD18R,1.524000X2.524000*%
%ADD19O,1.500000X1.050000*%
%ADD20R,1.500000X1.050000*%
%ADD21R,1.600000X1.600000*%
G04 APERTURE END LIST*
D10*
X147732142Y-105453571D02*
X147760714Y-105382142D01*
X147789285Y-105358333D01*
X147846428Y-105334523D01*
X147932142Y-105334523D01*
X147989285Y-105358333D01*
X148017857Y-105382142D01*
X148046428Y-105429761D01*
X148046428Y-105620238D01*
X147446428Y-105620238D01*
X147446428Y-105453571D01*
X147475000Y-105405952D01*
X147503571Y-105382142D01*
X147560714Y-105358333D01*
X147617857Y-105358333D01*
X147675000Y-105382142D01*
X147703571Y-105405952D01*
X147732142Y-105453571D01*
X147732142Y-105620238D01*
X147989285Y-104834523D02*
X148017857Y-104858333D01*
X148046428Y-104929761D01*
X148046428Y-104977380D01*
X148017857Y-105048809D01*
X147960714Y-105096428D01*
X147903571Y-105120238D01*
X147789285Y-105144047D01*
X147703571Y-105144047D01*
X147589285Y-105120238D01*
X147532142Y-105096428D01*
X147475000Y-105048809D01*
X147446428Y-104977380D01*
X147446428Y-104929761D01*
X147475000Y-104858333D01*
X147503571Y-104834523D01*
X147446428Y-104382142D02*
X147446428Y-104620238D01*
X147732142Y-104644047D01*
X147703571Y-104620238D01*
X147675000Y-104572619D01*
X147675000Y-104453571D01*
X147703571Y-104405952D01*
X147732142Y-104382142D01*
X147789285Y-104358333D01*
X147932142Y-104358333D01*
X147989285Y-104382142D01*
X148017857Y-104405952D01*
X148046428Y-104453571D01*
X148046428Y-104572619D01*
X148017857Y-104620238D01*
X147989285Y-104644047D01*
X147446428Y-103905952D02*
X147446428Y-104144047D01*
X147732142Y-104167857D01*
X147703571Y-104144047D01*
X147675000Y-104096428D01*
X147675000Y-103977380D01*
X147703571Y-103929761D01*
X147732142Y-103905952D01*
X147789285Y-103882142D01*
X147932142Y-103882142D01*
X147989285Y-103905952D01*
X148017857Y-103929761D01*
X148046428Y-103977380D01*
X148046428Y-104096428D01*
X148017857Y-104144047D01*
X147989285Y-104167857D01*
X147446428Y-103715476D02*
X147446428Y-103382142D01*
X148046428Y-103596428D01*
X152632142Y-105453571D02*
X152660714Y-105382142D01*
X152689285Y-105358333D01*
X152746428Y-105334523D01*
X152832142Y-105334523D01*
X152889285Y-105358333D01*
X152917857Y-105382142D01*
X152946428Y-105429761D01*
X152946428Y-105620238D01*
X152346428Y-105620238D01*
X152346428Y-105453571D01*
X152375000Y-105405952D01*
X152403571Y-105382142D01*
X152460714Y-105358333D01*
X152517857Y-105358333D01*
X152575000Y-105382142D01*
X152603571Y-105405952D01*
X152632142Y-105453571D01*
X152632142Y-105620238D01*
X152889285Y-104834523D02*
X152917857Y-104858333D01*
X152946428Y-104929761D01*
X152946428Y-104977380D01*
X152917857Y-105048809D01*
X152860714Y-105096428D01*
X152803571Y-105120238D01*
X152689285Y-105144047D01*
X152603571Y-105144047D01*
X152489285Y-105120238D01*
X152432142Y-105096428D01*
X152375000Y-105048809D01*
X152346428Y-104977380D01*
X152346428Y-104929761D01*
X152375000Y-104858333D01*
X152403571Y-104834523D01*
X152346428Y-104382142D02*
X152346428Y-104620238D01*
X152632142Y-104644047D01*
X152603571Y-104620238D01*
X152575000Y-104572619D01*
X152575000Y-104453571D01*
X152603571Y-104405952D01*
X152632142Y-104382142D01*
X152689285Y-104358333D01*
X152832142Y-104358333D01*
X152889285Y-104382142D01*
X152917857Y-104405952D01*
X152946428Y-104453571D01*
X152946428Y-104572619D01*
X152917857Y-104620238D01*
X152889285Y-104644047D01*
X152346428Y-103905952D02*
X152346428Y-104144047D01*
X152632142Y-104167857D01*
X152603571Y-104144047D01*
X152575000Y-104096428D01*
X152575000Y-103977380D01*
X152603571Y-103929761D01*
X152632142Y-103905952D01*
X152689285Y-103882142D01*
X152832142Y-103882142D01*
X152889285Y-103905952D01*
X152917857Y-103929761D01*
X152946428Y-103977380D01*
X152946428Y-104096428D01*
X152917857Y-104144047D01*
X152889285Y-104167857D01*
X152346428Y-103715476D02*
X152346428Y-103382142D01*
X152946428Y-103596428D01*
X141616666Y-101728571D02*
X141640476Y-101700000D01*
X141688095Y-101671428D01*
X141807142Y-101671428D01*
X141854761Y-101700000D01*
X141878571Y-101728571D01*
X141902380Y-101785714D01*
X141902380Y-101842857D01*
X141878571Y-101928571D01*
X141592857Y-102271428D01*
X141902380Y-102271428D01*
X142116666Y-102271428D02*
X142116666Y-101671428D01*
X142164285Y-102042857D02*
X142307142Y-102271428D01*
X142307142Y-101871428D02*
X142116666Y-102100000D01*
X142497619Y-101728571D02*
X142521428Y-101700000D01*
X142569047Y-101671428D01*
X142688095Y-101671428D01*
X142735714Y-101700000D01*
X142759523Y-101728571D01*
X142783333Y-101785714D01*
X142783333Y-101842857D01*
X142759523Y-101928571D01*
X142473809Y-102271428D01*
X142783333Y-102271428D01*
X141616666Y-106853571D02*
X141640476Y-106825000D01*
X141688095Y-106796428D01*
X141807142Y-106796428D01*
X141854761Y-106825000D01*
X141878571Y-106853571D01*
X141902380Y-106910714D01*
X141902380Y-106967857D01*
X141878571Y-107053571D01*
X141592857Y-107396428D01*
X141902380Y-107396428D01*
X142116666Y-107396428D02*
X142116666Y-106796428D01*
X142164285Y-107167857D02*
X142307142Y-107396428D01*
X142307142Y-106996428D02*
X142116666Y-107225000D01*
X142497619Y-106853571D02*
X142521428Y-106825000D01*
X142569047Y-106796428D01*
X142688095Y-106796428D01*
X142735714Y-106825000D01*
X142759523Y-106853571D01*
X142783333Y-106910714D01*
X142783333Y-106967857D01*
X142759523Y-107053571D01*
X142473809Y-107396428D01*
X142783333Y-107396428D01*
D11*
X135610714Y-101932142D02*
X135610714Y-101760714D01*
X135910714Y-101846428D02*
X135610714Y-101846428D01*
X135910714Y-101660714D02*
X135610714Y-101660714D01*
X135825000Y-101560714D01*
X135610714Y-101460714D01*
X135910714Y-101460714D01*
D12*
X137007142Y-104578571D02*
X136964285Y-104664285D01*
X136878571Y-104707142D01*
X136107142Y-104707142D01*
X137007142Y-104235714D02*
X136407142Y-104235714D01*
X136107142Y-104235714D02*
X136150000Y-104278571D01*
X136192857Y-104235714D01*
X136150000Y-104192857D01*
X136107142Y-104235714D01*
X136192857Y-104235714D01*
X136407142Y-103421428D02*
X137135714Y-103421428D01*
X137221428Y-103464285D01*
X137264285Y-103507142D01*
X137307142Y-103592857D01*
X137307142Y-103721428D01*
X137264285Y-103807142D01*
X136964285Y-103421428D02*
X137007142Y-103507142D01*
X137007142Y-103678571D01*
X136964285Y-103764285D01*
X136921428Y-103807142D01*
X136835714Y-103850000D01*
X136578571Y-103850000D01*
X136492857Y-103807142D01*
X136450000Y-103764285D01*
X136407142Y-103678571D01*
X136407142Y-103507142D01*
X136450000Y-103421428D01*
X137007142Y-102992857D02*
X136107142Y-102992857D01*
X137007142Y-102607142D02*
X136535714Y-102607142D01*
X136450000Y-102650000D01*
X136407142Y-102735714D01*
X136407142Y-102864285D01*
X136450000Y-102950000D01*
X136492857Y-102992857D01*
X136407142Y-102307142D02*
X136407142Y-101964285D01*
X136107142Y-102178571D02*
X136878571Y-102178571D01*
X136964285Y-102135714D01*
X137007142Y-102050000D01*
X137007142Y-101964285D01*
X135350000Y-108214285D02*
X135350000Y-107642857D01*
X135692857Y-108328571D02*
X134492857Y-107928571D01*
X135692857Y-107528571D01*
X134892857Y-106614285D02*
X135864285Y-106614285D01*
X135978571Y-106671428D01*
X136035714Y-106728571D01*
X136092857Y-106842857D01*
X136092857Y-107014285D01*
X136035714Y-107128571D01*
X135635714Y-106614285D02*
X135692857Y-106728571D01*
X135692857Y-106957142D01*
X135635714Y-107071428D01*
X135578571Y-107128571D01*
X135464285Y-107185714D01*
X135121428Y-107185714D01*
X135007142Y-107128571D01*
X134950000Y-107071428D01*
X134892857Y-106957142D01*
X134892857Y-106728571D01*
X134950000Y-106614285D01*
X135692857Y-105871428D02*
X135635714Y-105985714D01*
X135578571Y-106042857D01*
X135464285Y-106100000D01*
X135121428Y-106100000D01*
X135007142Y-106042857D01*
X134950000Y-105985714D01*
X134892857Y-105871428D01*
X134892857Y-105700000D01*
X134950000Y-105585714D01*
X135007142Y-105528571D01*
X135121428Y-105471428D01*
X135464285Y-105471428D01*
X135578571Y-105528571D01*
X135635714Y-105585714D01*
X135692857Y-105700000D01*
X135692857Y-105871428D01*
X134892857Y-104957142D02*
X135692857Y-104957142D01*
X135007142Y-104957142D02*
X134950000Y-104900000D01*
X134892857Y-104785714D01*
X134892857Y-104614285D01*
X134950000Y-104500000D01*
X135064285Y-104442857D01*
X135692857Y-104442857D01*
X184535714Y-104761904D02*
X184535714Y-104047619D01*
X184107142Y-104476190D02*
X185392857Y-104761904D01*
X184964285Y-104142857D02*
X184964285Y-104857142D01*
X185392857Y-104428571D02*
X184107142Y-104142857D01*
X184202380Y-103809523D02*
X184202380Y-103190476D01*
X184583333Y-103523809D01*
X184583333Y-103380952D01*
X184630952Y-103285714D01*
X184678571Y-103238095D01*
X184773809Y-103190476D01*
X185011904Y-103190476D01*
X185107142Y-103238095D01*
X185154761Y-103285714D01*
X185202380Y-103380952D01*
X185202380Y-103666666D01*
X185154761Y-103761904D01*
X185107142Y-103809523D01*
X185202380Y-102000000D02*
X184202380Y-102000000D01*
X184202380Y-101761904D01*
X184250000Y-101619047D01*
X184345238Y-101523809D01*
X184440476Y-101476190D01*
X184630952Y-101428571D01*
X184773809Y-101428571D01*
X184964285Y-101476190D01*
X185059523Y-101523809D01*
X185154761Y-101619047D01*
X185202380Y-101761904D01*
X185202380Y-102000000D01*
X185202380Y-100857142D02*
X185154761Y-100952380D01*
X185107142Y-101000000D01*
X185011904Y-101047619D01*
X184726190Y-101047619D01*
X184630952Y-101000000D01*
X184583333Y-100952380D01*
X184535714Y-100857142D01*
X184535714Y-100714285D01*
X184583333Y-100619047D01*
X184630952Y-100571428D01*
X184726190Y-100523809D01*
X185011904Y-100523809D01*
X185107142Y-100571428D01*
X185154761Y-100619047D01*
X185202380Y-100714285D01*
X185202380Y-100857142D01*
X184535714Y-99666666D02*
X185202380Y-99666666D01*
X184535714Y-100095238D02*
X185059523Y-100095238D01*
X185154761Y-100047619D01*
X185202380Y-99952380D01*
X185202380Y-99809523D01*
X185154761Y-99714285D01*
X185107142Y-99666666D01*
X185202380Y-99190476D02*
X184202380Y-99190476D01*
X184583333Y-99190476D02*
X184535714Y-99095238D01*
X184535714Y-98904761D01*
X184583333Y-98809523D01*
X184630952Y-98761904D01*
X184726190Y-98714285D01*
X185011904Y-98714285D01*
X185107142Y-98761904D01*
X185154761Y-98809523D01*
X185202380Y-98904761D01*
X185202380Y-99095238D01*
X185154761Y-99190476D01*
X185202380Y-98142857D02*
X185154761Y-98238095D01*
X185059523Y-98285714D01*
X184202380Y-98285714D01*
X185154761Y-97380952D02*
X185202380Y-97476190D01*
X185202380Y-97666666D01*
X185154761Y-97761904D01*
X185059523Y-97809523D01*
X184678571Y-97809523D01*
X184583333Y-97761904D01*
X184535714Y-97666666D01*
X184535714Y-97476190D01*
X184583333Y-97380952D01*
X184678571Y-97333333D01*
X184773809Y-97333333D01*
X184869047Y-97809523D01*
X185154761Y-96190476D02*
X185202380Y-96047619D01*
X185202380Y-95809523D01*
X185154761Y-95714285D01*
X185107142Y-95666666D01*
X185011904Y-95619047D01*
X184916666Y-95619047D01*
X184821428Y-95666666D01*
X184773809Y-95714285D01*
X184726190Y-95809523D01*
X184678571Y-96000000D01*
X184630952Y-96095238D01*
X184583333Y-96142857D01*
X184488095Y-96190476D01*
X184392857Y-96190476D01*
X184297619Y-96142857D01*
X184250000Y-96095238D01*
X184202380Y-96000000D01*
X184202380Y-95761904D01*
X184250000Y-95619047D01*
X185154761Y-94809523D02*
X185202380Y-94904761D01*
X185202380Y-95095238D01*
X185154761Y-95190476D01*
X185059523Y-95238095D01*
X184678571Y-95238095D01*
X184583333Y-95190476D01*
X184535714Y-95095238D01*
X184535714Y-94904761D01*
X184583333Y-94809523D01*
X184678571Y-94761904D01*
X184773809Y-94761904D01*
X184869047Y-95238095D01*
X184535714Y-94428571D02*
X185202380Y-94190476D01*
X184535714Y-93952380D01*
X185154761Y-93190476D02*
X185202380Y-93285714D01*
X185202380Y-93476190D01*
X185154761Y-93571428D01*
X185059523Y-93619047D01*
X184678571Y-93619047D01*
X184583333Y-93571428D01*
X184535714Y-93476190D01*
X184535714Y-93285714D01*
X184583333Y-93190476D01*
X184678571Y-93142857D01*
X184773809Y-93142857D01*
X184869047Y-93619047D01*
X184535714Y-92714285D02*
X185202380Y-92714285D01*
X184630952Y-92714285D02*
X184583333Y-92666666D01*
X184535714Y-92571428D01*
X184535714Y-92428571D01*
X184583333Y-92333333D01*
X184678571Y-92285714D01*
X185202380Y-92285714D01*
D10*
%TO.C,R1*%
X145480000Y-108545000D02*
X145480000Y-108215000D01*
X138940000Y-108545000D02*
X145480000Y-108545000D01*
X138940000Y-108215000D02*
X138940000Y-108545000D01*
X145480000Y-105805000D02*
X145480000Y-106135000D01*
X138940000Y-105805000D02*
X145480000Y-105805000D01*
X138940000Y-106135000D02*
X138940000Y-105805000D01*
%TO.C,R2*%
X138940000Y-100910000D02*
X138940000Y-100580000D01*
X138940000Y-100580000D02*
X145480000Y-100580000D01*
X145480000Y-100580000D02*
X145480000Y-100910000D01*
X138940000Y-102990000D02*
X138940000Y-103320000D01*
X138940000Y-103320000D02*
X145480000Y-103320000D01*
X145480000Y-103320000D02*
X145480000Y-102990000D01*
%TO.C,U1*%
X170260000Y-103820000D02*
X170260000Y-92390000D01*
X183080000Y-103820000D02*
X183080000Y-92390000D01*
X171370000Y-107740000D02*
X182970000Y-107740000D01*
X182970000Y-88470000D02*
X170370000Y-88470000D01*
X173670000Y-93105000D02*
X172670000Y-98105000D01*
X172670000Y-98105000D02*
X171670000Y-103105000D01*
X171670000Y-103105000D02*
X178670000Y-103105000D01*
X178670000Y-103105000D02*
X179670000Y-98105000D01*
X180670000Y-93105000D02*
X179670000Y-98105000D01*
X179670000Y-98105000D02*
X172670000Y-98105000D01*
X173670000Y-93105000D02*
X180670000Y-93105000D01*
X181117214Y-103105000D02*
G75*
G03*
X181117214Y-103105000I-447214J0D01*
G01*
%TO.C,Q1*%
X151100000Y-106355000D02*
X151100000Y-102755000D01*
X151088478Y-106393478D02*
G75*
G02*
X146650000Y-104555000I-1838478J1838478D01*
G01*
X151088478Y-102716522D02*
G75*
G03*
X146650000Y-104555000I-1838478J-1838478D01*
G01*
%TO.C,Q2*%
X156100000Y-106355000D02*
X156100000Y-102755000D01*
X156088478Y-102716522D02*
G75*
G03*
X151650000Y-104555000I-1838478J-1838478D01*
G01*
X156088478Y-106393478D02*
G75*
G02*
X151650000Y-104555000I-1838478J1838478D01*
G01*
%TO.C,RN1*%
X155615000Y-91385000D02*
X155615000Y-88585000D01*
X155615000Y-88585000D02*
X134955000Y-88585000D01*
X134955000Y-88585000D02*
X134955000Y-91385000D01*
X134955000Y-91385000D02*
X155615000Y-91385000D01*
X152905000Y-91385000D02*
X152905000Y-88585000D01*
%TO.C,RN2*%
X152905000Y-94925000D02*
X152905000Y-92125000D01*
X134955000Y-94925000D02*
X155615000Y-94925000D01*
X134955000Y-92125000D02*
X134955000Y-94925000D01*
X155615000Y-92125000D02*
X134955000Y-92125000D01*
X155615000Y-94925000D02*
X155615000Y-92125000D01*
%TO.C,U2*%
X167917214Y-103105000D02*
G75*
G03*
X167917214Y-103105000I-447214J0D01*
G01*
X160470000Y-93105000D02*
X167470000Y-93105000D01*
X166470000Y-98105000D02*
X159470000Y-98105000D01*
X167470000Y-93105000D02*
X166470000Y-98105000D01*
X165470000Y-103105000D02*
X166470000Y-98105000D01*
X158470000Y-103105000D02*
X165470000Y-103105000D01*
X159470000Y-98105000D02*
X158470000Y-103105000D01*
X160470000Y-93105000D02*
X159470000Y-98105000D01*
X169770000Y-88470000D02*
X157170000Y-88470000D01*
X158170000Y-107740000D02*
X169770000Y-107740000D01*
X169880000Y-103820000D02*
X169880000Y-92390000D01*
X157060000Y-103820000D02*
X157060000Y-92390000D01*
%TO.C,U1*%
D12*
X171307380Y-94436904D02*
X172116904Y-94436904D01*
X172212142Y-94389285D01*
X172259761Y-94341666D01*
X172307380Y-94246428D01*
X172307380Y-94055952D01*
X172259761Y-93960714D01*
X172212142Y-93913095D01*
X172116904Y-93865476D01*
X171307380Y-93865476D01*
X172307380Y-92865476D02*
X172307380Y-93436904D01*
X172307380Y-93151190D02*
X171307380Y-93151190D01*
X171450238Y-93246428D01*
X171545476Y-93341666D01*
X171593095Y-93436904D01*
%TO.C,U2*%
X157552380Y-94311904D02*
X158361904Y-94311904D01*
X158457142Y-94264285D01*
X158504761Y-94216666D01*
X158552380Y-94121428D01*
X158552380Y-93930952D01*
X158504761Y-93835714D01*
X158457142Y-93788095D01*
X158361904Y-93740476D01*
X157552380Y-93740476D01*
X157647619Y-93311904D02*
X157600000Y-93264285D01*
X157552380Y-93169047D01*
X157552380Y-92930952D01*
X157600000Y-92835714D01*
X157647619Y-92788095D01*
X157742857Y-92740476D01*
X157838095Y-92740476D01*
X157980952Y-92788095D01*
X158552380Y-93359523D01*
X158552380Y-92740476D01*
%TD*%
%LPC*%
D13*
%TO.C,J1*%
X181750000Y-96475000D03*
D14*
X181750000Y-99015000D03*
X179210000Y-96475000D03*
X179210000Y-99015000D03*
X176670000Y-96475000D03*
X176670000Y-99015000D03*
X174130000Y-96475000D03*
X174130000Y-99015000D03*
X171590000Y-96475000D03*
X171590000Y-99015000D03*
X169050000Y-96475000D03*
X169050000Y-99015000D03*
X166510000Y-96475000D03*
X166510000Y-99015000D03*
X163970000Y-96475000D03*
X163970000Y-99015000D03*
X161430000Y-96475000D03*
X161430000Y-99015000D03*
X158890000Y-96475000D03*
X158890000Y-99015000D03*
X156350000Y-96475000D03*
X156350000Y-99015000D03*
X153810000Y-96475000D03*
X153810000Y-99015000D03*
X151270000Y-96475000D03*
X151270000Y-99015000D03*
X148730000Y-96475000D03*
X148730000Y-99015000D03*
X146190000Y-96475000D03*
X146190000Y-99015000D03*
X143650000Y-96475000D03*
X143650000Y-99015000D03*
X141110000Y-96475000D03*
X141110000Y-99015000D03*
X138570000Y-96475000D03*
X138570000Y-99015000D03*
X136030000Y-96475000D03*
X136030000Y-99015000D03*
%TD*%
D15*
%TO.C,R1*%
X138400000Y-107175000D03*
D16*
X146020000Y-107175000D03*
%TD*%
%TO.C,R2*%
X146020000Y-101950000D03*
D15*
X138400000Y-101950000D03*
%TD*%
D17*
%TO.C,U1*%
X171590000Y-90485000D03*
X174130000Y-90485000D03*
X176670000Y-90485000D03*
X179210000Y-90485000D03*
X181750000Y-90485000D03*
X181750000Y-105725000D03*
X179210000Y-105725000D03*
X176670000Y-105725000D03*
X174130000Y-105725000D03*
D18*
X171590000Y-105725000D03*
%TD*%
D19*
%TO.C,Q1*%
X149250000Y-104555000D03*
X149250000Y-103285000D03*
D20*
X149250000Y-105825000D03*
%TD*%
%TO.C,Q2*%
X154250000Y-105825000D03*
D19*
X154250000Y-103285000D03*
X154250000Y-104555000D03*
%TD*%
D21*
%TO.C,RN1*%
X154175000Y-89985000D03*
D16*
X151635000Y-89985000D03*
X149095000Y-89985000D03*
X146555000Y-89985000D03*
X144015000Y-89985000D03*
X141475000Y-89985000D03*
X138935000Y-89985000D03*
X136395000Y-89985000D03*
%TD*%
%TO.C,RN2*%
X136395000Y-93525000D03*
X138935000Y-93525000D03*
X141475000Y-93525000D03*
X144015000Y-93525000D03*
X146555000Y-93525000D03*
X149095000Y-93525000D03*
X151635000Y-93525000D03*
D21*
X154175000Y-93525000D03*
%TD*%
D17*
%TO.C,U2*%
X158390000Y-90485000D03*
X160930000Y-90485000D03*
X163470000Y-90485000D03*
X166010000Y-90485000D03*
X168550000Y-90485000D03*
X168550000Y-105725000D03*
X166010000Y-105725000D03*
X163470000Y-105725000D03*
X160930000Y-105725000D03*
D18*
X158390000Y-105725000D03*
%TD*%
M02*
