M48
; DRILL file {KiCad (5.1.9)-1} date 05/11/23 19:32:07
; FORMAT={-:-/ absolute / metric / decimal}
; #@! TF.CreationDate,2023-05-11T19:32:07+01:00
; #@! TF.GenerationSoftware,Kicad,Pcbnew,(5.1.9)-1
; #@! TF.FileFunction,Plated,1,2,PTH
FMAT,2
METRIC
T1C0.400
T2C0.750
T3C0.800
T4C1.000
%
G90
G05
T1
X144.972Y-91.475
X152.475Y-102.95
X156.143Y-101.95
X158.225Y-93.125
X159.881Y-94.124
T2
X149.25Y-103.285
X149.25Y-104.555
X149.25Y-105.825
X154.25Y-103.285
X154.25Y-104.555
X154.25Y-105.825
T3
X136.395Y-89.985
X136.395Y-93.525
X138.4Y-101.95
X138.4Y-107.175
X138.935Y-89.985
X138.935Y-93.525
X141.475Y-89.985
X141.475Y-93.525
X144.015Y-89.985
X144.015Y-93.525
X146.02Y-101.95
X146.02Y-107.175
X146.555Y-89.985
X146.555Y-93.525
X149.095Y-89.985
X149.095Y-93.525
X151.635Y-89.985
X151.635Y-93.525
X154.175Y-89.985
X154.175Y-93.525
X158.39Y-90.485
X158.39Y-105.725
X160.93Y-90.485
X160.93Y-105.725
X163.47Y-90.485
X163.47Y-105.725
X166.01Y-90.485
X166.01Y-105.725
X168.55Y-90.485
X168.55Y-105.725
X171.59Y-90.485
X171.59Y-105.725
X174.13Y-90.485
X174.13Y-105.725
X176.67Y-90.485
X176.67Y-105.725
X179.21Y-90.485
X179.21Y-105.725
X181.75Y-90.485
X181.75Y-105.725
T4
X136.03Y-96.475
X136.03Y-99.015
X138.57Y-96.475
X138.57Y-99.015
X141.11Y-96.475
X141.11Y-99.015
X143.65Y-96.475
X143.65Y-99.015
X146.19Y-96.475
X146.19Y-99.015
X148.73Y-96.475
X148.73Y-99.015
X151.27Y-96.475
X151.27Y-99.015
X153.81Y-96.475
X153.81Y-99.015
X156.35Y-96.475
X156.35Y-99.015
X158.89Y-96.475
X158.89Y-99.015
X161.43Y-96.475
X161.43Y-99.015
X163.97Y-96.475
X163.97Y-99.015
X166.51Y-96.475
X166.51Y-99.015
X169.05Y-96.475
X169.05Y-99.015
X171.59Y-96.475
X171.59Y-99.015
X174.13Y-96.475
X174.13Y-99.015
X176.67Y-96.475
X176.67Y-99.015
X179.21Y-96.475
X179.21Y-99.015
X181.75Y-96.475
X181.75Y-99.015
T0
M30
