%FSLAX45Y45*%
G04 Gerber Fmt 4.5, Leading zero omitted, Abs format (unit mm)*
G04 Created by KiCad (PCBNEW (5.1.9)-1) date 2023-05-11 19:32:07*
%MOMM*%
%LPD*%
G01*
G04 APERTURE LIST*
%TA.AperFunction,Profile*%
%ADD10C,0.100000*%
%TD*%
%ADD11C,0.200000*%
%ADD12C,0.300000*%
G04 APERTURE END LIST*
D10*
X18629000Y-8750000D02*
X18629000Y-10900000D01*
X13403000Y-8750000D02*
X18629000Y-8750000D01*
X13403000Y-10900000D02*
X13403000Y-8750000D01*
X18629000Y-10900000D02*
X13403000Y-10900000D01*
D11*
X14477219Y-9127499D02*
X14517219Y-9167499D01*
X14517219Y-9127499D02*
X14477219Y-9167499D01*
X15227500Y-10275000D02*
X15267500Y-10315000D01*
X15267500Y-10275000D02*
X15227500Y-10315000D01*
X15594313Y-10175001D02*
X15634313Y-10215001D01*
X15634313Y-10175001D02*
X15594313Y-10215001D01*
X15802500Y-9292501D02*
X15842500Y-9332501D01*
X15842500Y-9292501D02*
X15802500Y-9332501D01*
X15968149Y-9392376D02*
X16008149Y-9432376D01*
X16008149Y-9392376D02*
X15968149Y-9432376D01*
X14962500Y-10328500D02*
G75*
G03*
X14962500Y-10328500I-37500J0D01*
G01*
X14962500Y-10455500D02*
G75*
G03*
X14962500Y-10455500I-37500J0D01*
G01*
X14962500Y-10582500D02*
G75*
G03*
X14962500Y-10582500I-37500J0D01*
G01*
X15462500Y-10328500D02*
G75*
G03*
X15462500Y-10328500I-37500J0D01*
G01*
X15462500Y-10455500D02*
G75*
G03*
X15462500Y-10455500I-37500J0D01*
G01*
X15462500Y-10582500D02*
G75*
G03*
X15462500Y-10582500I-37500J0D01*
G01*
X13639500Y-8958500D02*
X13639500Y-9038500D01*
X13599500Y-8998500D02*
X13679500Y-8998500D01*
X13639500Y-9312500D02*
X13639500Y-9392500D01*
X13599500Y-9352500D02*
X13679500Y-9352500D01*
X13840000Y-10155000D02*
X13840000Y-10235000D01*
X13800000Y-10195000D02*
X13880000Y-10195000D01*
X13840000Y-10677500D02*
X13840000Y-10757500D01*
X13800000Y-10717500D02*
X13880000Y-10717500D01*
X13893500Y-8958500D02*
X13893500Y-9038500D01*
X13853500Y-8998500D02*
X13933500Y-8998500D01*
X13893500Y-9312500D02*
X13893500Y-9392500D01*
X13853500Y-9352500D02*
X13933500Y-9352500D01*
X14147500Y-8958500D02*
X14147500Y-9038500D01*
X14107500Y-8998500D02*
X14187500Y-8998500D01*
X14147500Y-9312500D02*
X14147500Y-9392500D01*
X14107500Y-9352500D02*
X14187500Y-9352500D01*
X14401500Y-8958500D02*
X14401500Y-9038500D01*
X14361500Y-8998500D02*
X14441500Y-8998500D01*
X14401500Y-9312500D02*
X14401500Y-9392500D01*
X14361500Y-9352500D02*
X14441500Y-9352500D01*
X14602000Y-10155000D02*
X14602000Y-10235000D01*
X14562000Y-10195000D02*
X14642000Y-10195000D01*
X14602000Y-10677500D02*
X14602000Y-10757500D01*
X14562000Y-10717500D02*
X14642000Y-10717500D01*
X14655500Y-8958500D02*
X14655500Y-9038500D01*
X14615500Y-8998500D02*
X14695500Y-8998500D01*
X14655500Y-9312500D02*
X14655500Y-9392500D01*
X14615500Y-9352500D02*
X14695500Y-9352500D01*
X14909500Y-8958500D02*
X14909500Y-9038500D01*
X14869500Y-8998500D02*
X14949500Y-8998500D01*
X14909500Y-9312500D02*
X14909500Y-9392500D01*
X14869500Y-9352500D02*
X14949500Y-9352500D01*
X15163500Y-8958500D02*
X15163500Y-9038500D01*
X15123500Y-8998500D02*
X15203500Y-8998500D01*
X15163500Y-9312500D02*
X15163500Y-9392500D01*
X15123500Y-9352500D02*
X15203500Y-9352500D01*
X15417500Y-8958500D02*
X15417500Y-9038500D01*
X15377500Y-8998500D02*
X15457500Y-8998500D01*
X15417500Y-9312500D02*
X15417500Y-9392500D01*
X15377500Y-9352500D02*
X15457500Y-9352500D01*
X15839000Y-9008500D02*
X15839000Y-9088500D01*
X15799000Y-9048500D02*
X15879000Y-9048500D01*
X15839000Y-10532500D02*
X15839000Y-10612500D01*
X15799000Y-10572500D02*
X15879000Y-10572500D01*
X16093000Y-9008500D02*
X16093000Y-9088500D01*
X16053000Y-9048500D02*
X16133000Y-9048500D01*
X16093000Y-10532500D02*
X16093000Y-10612500D01*
X16053000Y-10572500D02*
X16133000Y-10572500D01*
X16347000Y-9008500D02*
X16347000Y-9088500D01*
X16307000Y-9048500D02*
X16387000Y-9048500D01*
X16347000Y-10532500D02*
X16347000Y-10612500D01*
X16307000Y-10572500D02*
X16387000Y-10572500D01*
X16601000Y-9008500D02*
X16601000Y-9088500D01*
X16561000Y-9048500D02*
X16641000Y-9048500D01*
X16601000Y-10532500D02*
X16601000Y-10612500D01*
X16561000Y-10572500D02*
X16641000Y-10572500D01*
X16855000Y-9008500D02*
X16855000Y-9088500D01*
X16815000Y-9048500D02*
X16895000Y-9048500D01*
X16855000Y-10532500D02*
X16855000Y-10612500D01*
X16815000Y-10572500D02*
X16895000Y-10572500D01*
X17159000Y-9008500D02*
X17159000Y-9088500D01*
X17119000Y-9048500D02*
X17199000Y-9048500D01*
X17159000Y-10532500D02*
X17159000Y-10612500D01*
X17119000Y-10572500D02*
X17199000Y-10572500D01*
X17413000Y-9008500D02*
X17413000Y-9088500D01*
X17373000Y-9048500D02*
X17453000Y-9048500D01*
X17413000Y-10532500D02*
X17413000Y-10612500D01*
X17373000Y-10572500D02*
X17453000Y-10572500D01*
X17667000Y-9008500D02*
X17667000Y-9088500D01*
X17627000Y-9048500D02*
X17707000Y-9048500D01*
X17667000Y-10532500D02*
X17667000Y-10612500D01*
X17627000Y-10572500D02*
X17707000Y-10572500D01*
X17921000Y-9008500D02*
X17921000Y-9088500D01*
X17881000Y-9048500D02*
X17961000Y-9048500D01*
X17921000Y-10532500D02*
X17921000Y-10612500D01*
X17881000Y-10572500D02*
X17961000Y-10572500D01*
X18175000Y-9008500D02*
X18175000Y-9088500D01*
X18135000Y-9048500D02*
X18215000Y-9048500D01*
X18175000Y-10532500D02*
X18175000Y-10612500D01*
X18135000Y-10572500D02*
X18215000Y-10572500D01*
X13638356Y-9682856D02*
X13638356Y-9612144D01*
X13567644Y-9612144D01*
X13567644Y-9682856D01*
X13638356Y-9682856D01*
X13638356Y-9936856D02*
X13638356Y-9866144D01*
X13567644Y-9866144D01*
X13567644Y-9936856D01*
X13638356Y-9936856D01*
X13892356Y-9682856D02*
X13892356Y-9612144D01*
X13821644Y-9612144D01*
X13821644Y-9682856D01*
X13892356Y-9682856D01*
X13892356Y-9936856D02*
X13892356Y-9866144D01*
X13821644Y-9866144D01*
X13821644Y-9936856D01*
X13892356Y-9936856D01*
X14146356Y-9682856D02*
X14146356Y-9612144D01*
X14075644Y-9612144D01*
X14075644Y-9682856D01*
X14146356Y-9682856D01*
X14146356Y-9936856D02*
X14146356Y-9866144D01*
X14075644Y-9866144D01*
X14075644Y-9936856D01*
X14146356Y-9936856D01*
X14400356Y-9682856D02*
X14400356Y-9612144D01*
X14329644Y-9612144D01*
X14329644Y-9682856D01*
X14400356Y-9682856D01*
X14400356Y-9936856D02*
X14400356Y-9866144D01*
X14329644Y-9866144D01*
X14329644Y-9936856D01*
X14400356Y-9936856D01*
X14654356Y-9682856D02*
X14654356Y-9612144D01*
X14583644Y-9612144D01*
X14583644Y-9682856D01*
X14654356Y-9682856D01*
X14654356Y-9936856D02*
X14654356Y-9866144D01*
X14583644Y-9866144D01*
X14583644Y-9936856D01*
X14654356Y-9936856D01*
X14908356Y-9682856D02*
X14908356Y-9612144D01*
X14837644Y-9612144D01*
X14837644Y-9682856D01*
X14908356Y-9682856D01*
X14908356Y-9936856D02*
X14908356Y-9866144D01*
X14837644Y-9866144D01*
X14837644Y-9936856D01*
X14908356Y-9936856D01*
X15162356Y-9682856D02*
X15162356Y-9612144D01*
X15091644Y-9612144D01*
X15091644Y-9682856D01*
X15162356Y-9682856D01*
X15162356Y-9936856D02*
X15162356Y-9866144D01*
X15091644Y-9866144D01*
X15091644Y-9936856D01*
X15162356Y-9936856D01*
X15416356Y-9682856D02*
X15416356Y-9612144D01*
X15345644Y-9612144D01*
X15345644Y-9682856D01*
X15416356Y-9682856D01*
X15416356Y-9936856D02*
X15416356Y-9866144D01*
X15345644Y-9866144D01*
X15345644Y-9936856D01*
X15416356Y-9936856D01*
X15670356Y-9682856D02*
X15670356Y-9612144D01*
X15599644Y-9612144D01*
X15599644Y-9682856D01*
X15670356Y-9682856D01*
X15670356Y-9936856D02*
X15670356Y-9866144D01*
X15599644Y-9866144D01*
X15599644Y-9936856D01*
X15670356Y-9936856D01*
X15924356Y-9682856D02*
X15924356Y-9612144D01*
X15853644Y-9612144D01*
X15853644Y-9682856D01*
X15924356Y-9682856D01*
X15924356Y-9936856D02*
X15924356Y-9866144D01*
X15853644Y-9866144D01*
X15853644Y-9936856D01*
X15924356Y-9936856D01*
X16178356Y-9682856D02*
X16178356Y-9612144D01*
X16107644Y-9612144D01*
X16107644Y-9682856D01*
X16178356Y-9682856D01*
X16178356Y-9936856D02*
X16178356Y-9866144D01*
X16107644Y-9866144D01*
X16107644Y-9936856D01*
X16178356Y-9936856D01*
X16432356Y-9682856D02*
X16432356Y-9612144D01*
X16361644Y-9612144D01*
X16361644Y-9682856D01*
X16432356Y-9682856D01*
X16432356Y-9936856D02*
X16432356Y-9866144D01*
X16361644Y-9866144D01*
X16361644Y-9936856D01*
X16432356Y-9936856D01*
X16686356Y-9682856D02*
X16686356Y-9612144D01*
X16615644Y-9612144D01*
X16615644Y-9682856D01*
X16686356Y-9682856D01*
X16686356Y-9936856D02*
X16686356Y-9866144D01*
X16615644Y-9866144D01*
X16615644Y-9936856D01*
X16686356Y-9936856D01*
X16940356Y-9682856D02*
X16940356Y-9612144D01*
X16869644Y-9612144D01*
X16869644Y-9682856D01*
X16940356Y-9682856D01*
X16940356Y-9936856D02*
X16940356Y-9866144D01*
X16869644Y-9866144D01*
X16869644Y-9936856D01*
X16940356Y-9936856D01*
X17194356Y-9682856D02*
X17194356Y-9612144D01*
X17123644Y-9612144D01*
X17123644Y-9682856D01*
X17194356Y-9682856D01*
X17194356Y-9936856D02*
X17194356Y-9866144D01*
X17123644Y-9866144D01*
X17123644Y-9936856D01*
X17194356Y-9936856D01*
X17448356Y-9682856D02*
X17448356Y-9612144D01*
X17377644Y-9612144D01*
X17377644Y-9682856D01*
X17448356Y-9682856D01*
X17448356Y-9936856D02*
X17448356Y-9866144D01*
X17377644Y-9866144D01*
X17377644Y-9936856D01*
X17448356Y-9936856D01*
X17702356Y-9682856D02*
X17702356Y-9612144D01*
X17631644Y-9612144D01*
X17631644Y-9682856D01*
X17702356Y-9682856D01*
X17702356Y-9936856D02*
X17702356Y-9866144D01*
X17631644Y-9866144D01*
X17631644Y-9936856D01*
X17702356Y-9936856D01*
X17956356Y-9682856D02*
X17956356Y-9612144D01*
X17885644Y-9612144D01*
X17885644Y-9682856D01*
X17956356Y-9682856D01*
X17956356Y-9936856D02*
X17956356Y-9866144D01*
X17885644Y-9866144D01*
X17885644Y-9936856D01*
X17956356Y-9936856D01*
X18210356Y-9682856D02*
X18210356Y-9612144D01*
X18139644Y-9612144D01*
X18139644Y-9682856D01*
X18210356Y-9682856D01*
X18210356Y-9936856D02*
X18210356Y-9866144D01*
X18139644Y-9866144D01*
X18139644Y-9936856D01*
X18210356Y-9936856D01*
D12*
X13684428Y-11370714D02*
X13684428Y-11070714D01*
X13755857Y-11070714D01*
X13798714Y-11085000D01*
X13827286Y-11113572D01*
X13841571Y-11142143D01*
X13855857Y-11199286D01*
X13855857Y-11242143D01*
X13841571Y-11299286D01*
X13827286Y-11327857D01*
X13798714Y-11356429D01*
X13755857Y-11370714D01*
X13684428Y-11370714D01*
X13984428Y-11370714D02*
X13984428Y-11170714D01*
X13984428Y-11227857D02*
X13998714Y-11199286D01*
X14013000Y-11185000D01*
X14041571Y-11170714D01*
X14070143Y-11170714D01*
X14170143Y-11370714D02*
X14170143Y-11170714D01*
X14170143Y-11070714D02*
X14155857Y-11085000D01*
X14170143Y-11099286D01*
X14184428Y-11085000D01*
X14170143Y-11070714D01*
X14170143Y-11099286D01*
X14355857Y-11370714D02*
X14327286Y-11356429D01*
X14313000Y-11327857D01*
X14313000Y-11070714D01*
X14513000Y-11370714D02*
X14484428Y-11356429D01*
X14470143Y-11327857D01*
X14470143Y-11070714D01*
X14855857Y-11370714D02*
X14855857Y-11070714D01*
X14955857Y-11285000D01*
X15055857Y-11070714D01*
X15055857Y-11370714D01*
X15327286Y-11370714D02*
X15327286Y-11213571D01*
X15313000Y-11185000D01*
X15284428Y-11170714D01*
X15227286Y-11170714D01*
X15198714Y-11185000D01*
X15327286Y-11356429D02*
X15298714Y-11370714D01*
X15227286Y-11370714D01*
X15198714Y-11356429D01*
X15184428Y-11327857D01*
X15184428Y-11299286D01*
X15198714Y-11270714D01*
X15227286Y-11256429D01*
X15298714Y-11256429D01*
X15327286Y-11242143D01*
X15470143Y-11170714D02*
X15470143Y-11470714D01*
X15470143Y-11185000D02*
X15498714Y-11170714D01*
X15555857Y-11170714D01*
X15584428Y-11185000D01*
X15598714Y-11199286D01*
X15613000Y-11227857D01*
X15613000Y-11313571D01*
X15598714Y-11342143D01*
X15584428Y-11356429D01*
X15555857Y-11370714D01*
X15498714Y-11370714D01*
X15470143Y-11356429D01*
X15741571Y-11342143D02*
X15755857Y-11356429D01*
X15741571Y-11370714D01*
X15727286Y-11356429D01*
X15741571Y-11342143D01*
X15741571Y-11370714D01*
X15741571Y-11185000D02*
X15755857Y-11199286D01*
X15741571Y-11213571D01*
X15727286Y-11199286D01*
X15741571Y-11185000D01*
X15741571Y-11213571D01*
X13358000Y-11845000D02*
X13398000Y-11885000D01*
X13398000Y-11845000D02*
X13358000Y-11885000D01*
X13741571Y-11700714D02*
X13770143Y-11700714D01*
X13798714Y-11715000D01*
X13813000Y-11729286D01*
X13827286Y-11757857D01*
X13841571Y-11815000D01*
X13841571Y-11886429D01*
X13827286Y-11943571D01*
X13813000Y-11972143D01*
X13798714Y-11986429D01*
X13770143Y-12000714D01*
X13741571Y-12000714D01*
X13713000Y-11986429D01*
X13698714Y-11972143D01*
X13684428Y-11943571D01*
X13670143Y-11886429D01*
X13670143Y-11815000D01*
X13684428Y-11757857D01*
X13698714Y-11729286D01*
X13713000Y-11715000D01*
X13741571Y-11700714D01*
X13970143Y-11972143D02*
X13984428Y-11986429D01*
X13970143Y-12000714D01*
X13955857Y-11986429D01*
X13970143Y-11972143D01*
X13970143Y-12000714D01*
X14241571Y-11800714D02*
X14241571Y-12000714D01*
X14170143Y-11686429D02*
X14098714Y-11900714D01*
X14284428Y-11900714D01*
X14455857Y-11700714D02*
X14484428Y-11700714D01*
X14513000Y-11715000D01*
X14527286Y-11729286D01*
X14541571Y-11757857D01*
X14555857Y-11815000D01*
X14555857Y-11886429D01*
X14541571Y-11943571D01*
X14527286Y-11972143D01*
X14513000Y-11986429D01*
X14484428Y-12000714D01*
X14455857Y-12000714D01*
X14427286Y-11986429D01*
X14413000Y-11972143D01*
X14398714Y-11943571D01*
X14384428Y-11886429D01*
X14384428Y-11815000D01*
X14398714Y-11757857D01*
X14413000Y-11729286D01*
X14427286Y-11715000D01*
X14455857Y-11700714D01*
X14684428Y-12000714D02*
X14684428Y-11800714D01*
X14684428Y-11829286D02*
X14698714Y-11815000D01*
X14727286Y-11800714D01*
X14770143Y-11800714D01*
X14798714Y-11815000D01*
X14813000Y-11843571D01*
X14813000Y-12000714D01*
X14813000Y-11843571D02*
X14827286Y-11815000D01*
X14855857Y-11800714D01*
X14898714Y-11800714D01*
X14927286Y-11815000D01*
X14941571Y-11843571D01*
X14941571Y-12000714D01*
X15084428Y-12000714D02*
X15084428Y-11800714D01*
X15084428Y-11829286D02*
X15098714Y-11815000D01*
X15127286Y-11800714D01*
X15170143Y-11800714D01*
X15198714Y-11815000D01*
X15213000Y-11843571D01*
X15213000Y-12000714D01*
X15213000Y-11843571D02*
X15227286Y-11815000D01*
X15255857Y-11800714D01*
X15298714Y-11800714D01*
X15327286Y-11815000D01*
X15341571Y-11843571D01*
X15341571Y-12000714D01*
X15927286Y-11686429D02*
X15670143Y-12072143D01*
X16313000Y-11700714D02*
X16341571Y-11700714D01*
X16370143Y-11715000D01*
X16384428Y-11729286D01*
X16398714Y-11757857D01*
X16413000Y-11815000D01*
X16413000Y-11886429D01*
X16398714Y-11943571D01*
X16384428Y-11972143D01*
X16370143Y-11986429D01*
X16341571Y-12000714D01*
X16313000Y-12000714D01*
X16284428Y-11986429D01*
X16270143Y-11972143D01*
X16255857Y-11943571D01*
X16241571Y-11886429D01*
X16241571Y-11815000D01*
X16255857Y-11757857D01*
X16270143Y-11729286D01*
X16284428Y-11715000D01*
X16313000Y-11700714D01*
X16541571Y-11972143D02*
X16555857Y-11986429D01*
X16541571Y-12000714D01*
X16527286Y-11986429D01*
X16541571Y-11972143D01*
X16541571Y-12000714D01*
X16741571Y-11700714D02*
X16770143Y-11700714D01*
X16798714Y-11715000D01*
X16813000Y-11729286D01*
X16827286Y-11757857D01*
X16841571Y-11815000D01*
X16841571Y-11886429D01*
X16827286Y-11943571D01*
X16813000Y-11972143D01*
X16798714Y-11986429D01*
X16770143Y-12000714D01*
X16741571Y-12000714D01*
X16713000Y-11986429D01*
X16698714Y-11972143D01*
X16684428Y-11943571D01*
X16670143Y-11886429D01*
X16670143Y-11815000D01*
X16684428Y-11757857D01*
X16698714Y-11729286D01*
X16713000Y-11715000D01*
X16741571Y-11700714D01*
X17127286Y-12000714D02*
X16955857Y-12000714D01*
X17041571Y-12000714D02*
X17041571Y-11700714D01*
X17013000Y-11743571D01*
X16984428Y-11772143D01*
X16955857Y-11786429D01*
X17384428Y-11700714D02*
X17327286Y-11700714D01*
X17298714Y-11715000D01*
X17284428Y-11729286D01*
X17255857Y-11772143D01*
X17241571Y-11829286D01*
X17241571Y-11943571D01*
X17255857Y-11972143D01*
X17270143Y-11986429D01*
X17298714Y-12000714D01*
X17355857Y-12000714D01*
X17384428Y-11986429D01*
X17398714Y-11972143D01*
X17413000Y-11943571D01*
X17413000Y-11872143D01*
X17398714Y-11843571D01*
X17384428Y-11829286D01*
X17355857Y-11815000D01*
X17298714Y-11815000D01*
X17270143Y-11829286D01*
X17255857Y-11843571D01*
X17241571Y-11872143D01*
X17527286Y-11700714D02*
X17527286Y-11757857D01*
X17641571Y-11700714D02*
X17641571Y-11757857D01*
X18084428Y-12115000D02*
X18070143Y-12100714D01*
X18041571Y-12057857D01*
X18027286Y-12029286D01*
X18013000Y-11986429D01*
X17998714Y-11915000D01*
X17998714Y-11857857D01*
X18013000Y-11786429D01*
X18027286Y-11743571D01*
X18041571Y-11715000D01*
X18070143Y-11672143D01*
X18084428Y-11657857D01*
X18341571Y-11700714D02*
X18198714Y-11700714D01*
X18184428Y-11843571D01*
X18198714Y-11829286D01*
X18227286Y-11815000D01*
X18298714Y-11815000D01*
X18327286Y-11829286D01*
X18341571Y-11843571D01*
X18355857Y-11872143D01*
X18355857Y-11943571D01*
X18341571Y-11972143D01*
X18327286Y-11986429D01*
X18298714Y-12000714D01*
X18227286Y-12000714D01*
X18198714Y-11986429D01*
X18184428Y-11972143D01*
X18713000Y-12000714D02*
X18713000Y-11700714D01*
X18841571Y-12000714D02*
X18841571Y-11843571D01*
X18827286Y-11815000D01*
X18798714Y-11800714D01*
X18755857Y-11800714D01*
X18727286Y-11815000D01*
X18713000Y-11829286D01*
X19027286Y-12000714D02*
X18998714Y-11986429D01*
X18984428Y-11972143D01*
X18970143Y-11943571D01*
X18970143Y-11857857D01*
X18984428Y-11829286D01*
X18998714Y-11815000D01*
X19027286Y-11800714D01*
X19070143Y-11800714D01*
X19098714Y-11815000D01*
X19113000Y-11829286D01*
X19127286Y-11857857D01*
X19127286Y-11943571D01*
X19113000Y-11972143D01*
X19098714Y-11986429D01*
X19070143Y-12000714D01*
X19027286Y-12000714D01*
X19298714Y-12000714D02*
X19270143Y-11986429D01*
X19255857Y-11957857D01*
X19255857Y-11700714D01*
X19527286Y-11986429D02*
X19498714Y-12000714D01*
X19441571Y-12000714D01*
X19413000Y-11986429D01*
X19398714Y-11957857D01*
X19398714Y-11843571D01*
X19413000Y-11815000D01*
X19441571Y-11800714D01*
X19498714Y-11800714D01*
X19527286Y-11815000D01*
X19541571Y-11843571D01*
X19541571Y-11872143D01*
X19398714Y-11900714D01*
X19655857Y-11986429D02*
X19684428Y-12000714D01*
X19741571Y-12000714D01*
X19770143Y-11986429D01*
X19784428Y-11957857D01*
X19784428Y-11943571D01*
X19770143Y-11915000D01*
X19741571Y-11900714D01*
X19698714Y-11900714D01*
X19670143Y-11886429D01*
X19655857Y-11857857D01*
X19655857Y-11843571D01*
X19670143Y-11815000D01*
X19698714Y-11800714D01*
X19741571Y-11800714D01*
X19770143Y-11815000D01*
X19884428Y-12115000D02*
X19898714Y-12100714D01*
X19927286Y-12057857D01*
X19941571Y-12029286D01*
X19955857Y-11986429D01*
X19970143Y-11915000D01*
X19970143Y-11857857D01*
X19955857Y-11786429D01*
X19941571Y-11743571D01*
X19927286Y-11715000D01*
X19898714Y-11672143D01*
X19884428Y-11657857D01*
X13398000Y-12261000D02*
G75*
G03*
X13398000Y-12261000I-37500J0D01*
G01*
X13741571Y-12096714D02*
X13770143Y-12096714D01*
X13798714Y-12111000D01*
X13813000Y-12125286D01*
X13827286Y-12153857D01*
X13841571Y-12211000D01*
X13841571Y-12282429D01*
X13827286Y-12339571D01*
X13813000Y-12368143D01*
X13798714Y-12382429D01*
X13770143Y-12396714D01*
X13741571Y-12396714D01*
X13713000Y-12382429D01*
X13698714Y-12368143D01*
X13684428Y-12339571D01*
X13670143Y-12282429D01*
X13670143Y-12211000D01*
X13684428Y-12153857D01*
X13698714Y-12125286D01*
X13713000Y-12111000D01*
X13741571Y-12096714D01*
X13970143Y-12368143D02*
X13984428Y-12382429D01*
X13970143Y-12396714D01*
X13955857Y-12382429D01*
X13970143Y-12368143D01*
X13970143Y-12396714D01*
X14084428Y-12096714D02*
X14284428Y-12096714D01*
X14155857Y-12396714D01*
X14541571Y-12096714D02*
X14398714Y-12096714D01*
X14384428Y-12239571D01*
X14398714Y-12225286D01*
X14427286Y-12211000D01*
X14498714Y-12211000D01*
X14527286Y-12225286D01*
X14541571Y-12239571D01*
X14555857Y-12268143D01*
X14555857Y-12339571D01*
X14541571Y-12368143D01*
X14527286Y-12382429D01*
X14498714Y-12396714D01*
X14427286Y-12396714D01*
X14398714Y-12382429D01*
X14384428Y-12368143D01*
X14684428Y-12396714D02*
X14684428Y-12196714D01*
X14684428Y-12225286D02*
X14698714Y-12211000D01*
X14727286Y-12196714D01*
X14770143Y-12196714D01*
X14798714Y-12211000D01*
X14813000Y-12239571D01*
X14813000Y-12396714D01*
X14813000Y-12239571D02*
X14827286Y-12211000D01*
X14855857Y-12196714D01*
X14898714Y-12196714D01*
X14927286Y-12211000D01*
X14941571Y-12239571D01*
X14941571Y-12396714D01*
X15084428Y-12396714D02*
X15084428Y-12196714D01*
X15084428Y-12225286D02*
X15098714Y-12211000D01*
X15127286Y-12196714D01*
X15170143Y-12196714D01*
X15198714Y-12211000D01*
X15213000Y-12239571D01*
X15213000Y-12396714D01*
X15213000Y-12239571D02*
X15227286Y-12211000D01*
X15255857Y-12196714D01*
X15298714Y-12196714D01*
X15327286Y-12211000D01*
X15341571Y-12239571D01*
X15341571Y-12396714D01*
X15927286Y-12082429D02*
X15670143Y-12468143D01*
X16313000Y-12096714D02*
X16341571Y-12096714D01*
X16370143Y-12111000D01*
X16384428Y-12125286D01*
X16398714Y-12153857D01*
X16413000Y-12211000D01*
X16413000Y-12282429D01*
X16398714Y-12339571D01*
X16384428Y-12368143D01*
X16370143Y-12382429D01*
X16341571Y-12396714D01*
X16313000Y-12396714D01*
X16284428Y-12382429D01*
X16270143Y-12368143D01*
X16255857Y-12339571D01*
X16241571Y-12282429D01*
X16241571Y-12211000D01*
X16255857Y-12153857D01*
X16270143Y-12125286D01*
X16284428Y-12111000D01*
X16313000Y-12096714D01*
X16541571Y-12368143D02*
X16555857Y-12382429D01*
X16541571Y-12396714D01*
X16527286Y-12382429D01*
X16541571Y-12368143D01*
X16541571Y-12396714D01*
X16741571Y-12096714D02*
X16770143Y-12096714D01*
X16798714Y-12111000D01*
X16813000Y-12125286D01*
X16827286Y-12153857D01*
X16841571Y-12211000D01*
X16841571Y-12282429D01*
X16827286Y-12339571D01*
X16813000Y-12368143D01*
X16798714Y-12382429D01*
X16770143Y-12396714D01*
X16741571Y-12396714D01*
X16713000Y-12382429D01*
X16698714Y-12368143D01*
X16684428Y-12339571D01*
X16670143Y-12282429D01*
X16670143Y-12211000D01*
X16684428Y-12153857D01*
X16698714Y-12125286D01*
X16713000Y-12111000D01*
X16741571Y-12096714D01*
X16941571Y-12096714D02*
X17127286Y-12096714D01*
X17027286Y-12211000D01*
X17070143Y-12211000D01*
X17098714Y-12225286D01*
X17113000Y-12239571D01*
X17127286Y-12268143D01*
X17127286Y-12339571D01*
X17113000Y-12368143D01*
X17098714Y-12382429D01*
X17070143Y-12396714D01*
X16984428Y-12396714D01*
X16955857Y-12382429D01*
X16941571Y-12368143D01*
X17313000Y-12096714D02*
X17341571Y-12096714D01*
X17370143Y-12111000D01*
X17384428Y-12125286D01*
X17398714Y-12153857D01*
X17413000Y-12211000D01*
X17413000Y-12282429D01*
X17398714Y-12339571D01*
X17384428Y-12368143D01*
X17370143Y-12382429D01*
X17341571Y-12396714D01*
X17313000Y-12396714D01*
X17284428Y-12382429D01*
X17270143Y-12368143D01*
X17255857Y-12339571D01*
X17241571Y-12282429D01*
X17241571Y-12211000D01*
X17255857Y-12153857D01*
X17270143Y-12125286D01*
X17284428Y-12111000D01*
X17313000Y-12096714D01*
X17527286Y-12096714D02*
X17527286Y-12153857D01*
X17641571Y-12096714D02*
X17641571Y-12153857D01*
X18084428Y-12511000D02*
X18070143Y-12496714D01*
X18041571Y-12453857D01*
X18027286Y-12425286D01*
X18013000Y-12382429D01*
X17998714Y-12311000D01*
X17998714Y-12253857D01*
X18013000Y-12182429D01*
X18027286Y-12139571D01*
X18041571Y-12111000D01*
X18070143Y-12068143D01*
X18084428Y-12053857D01*
X18327286Y-12096714D02*
X18270143Y-12096714D01*
X18241571Y-12111000D01*
X18227286Y-12125286D01*
X18198714Y-12168143D01*
X18184428Y-12225286D01*
X18184428Y-12339571D01*
X18198714Y-12368143D01*
X18213000Y-12382429D01*
X18241571Y-12396714D01*
X18298714Y-12396714D01*
X18327286Y-12382429D01*
X18341571Y-12368143D01*
X18355857Y-12339571D01*
X18355857Y-12268143D01*
X18341571Y-12239571D01*
X18327286Y-12225286D01*
X18298714Y-12211000D01*
X18241571Y-12211000D01*
X18213000Y-12225286D01*
X18198714Y-12239571D01*
X18184428Y-12268143D01*
X18713000Y-12396714D02*
X18713000Y-12096714D01*
X18841571Y-12396714D02*
X18841571Y-12239571D01*
X18827286Y-12211000D01*
X18798714Y-12196714D01*
X18755857Y-12196714D01*
X18727286Y-12211000D01*
X18713000Y-12225286D01*
X19027286Y-12396714D02*
X18998714Y-12382429D01*
X18984428Y-12368143D01*
X18970143Y-12339571D01*
X18970143Y-12253857D01*
X18984428Y-12225286D01*
X18998714Y-12211000D01*
X19027286Y-12196714D01*
X19070143Y-12196714D01*
X19098714Y-12211000D01*
X19113000Y-12225286D01*
X19127286Y-12253857D01*
X19127286Y-12339571D01*
X19113000Y-12368143D01*
X19098714Y-12382429D01*
X19070143Y-12396714D01*
X19027286Y-12396714D01*
X19298714Y-12396714D02*
X19270143Y-12382429D01*
X19255857Y-12353857D01*
X19255857Y-12096714D01*
X19527286Y-12382429D02*
X19498714Y-12396714D01*
X19441571Y-12396714D01*
X19413000Y-12382429D01*
X19398714Y-12353857D01*
X19398714Y-12239571D01*
X19413000Y-12211000D01*
X19441571Y-12196714D01*
X19498714Y-12196714D01*
X19527286Y-12211000D01*
X19541571Y-12239571D01*
X19541571Y-12268143D01*
X19398714Y-12296714D01*
X19655857Y-12382429D02*
X19684428Y-12396714D01*
X19741571Y-12396714D01*
X19770143Y-12382429D01*
X19784428Y-12353857D01*
X19784428Y-12339571D01*
X19770143Y-12311000D01*
X19741571Y-12296714D01*
X19698714Y-12296714D01*
X19670143Y-12282429D01*
X19655857Y-12253857D01*
X19655857Y-12239571D01*
X19670143Y-12211000D01*
X19698714Y-12196714D01*
X19741571Y-12196714D01*
X19770143Y-12211000D01*
X19884428Y-12511000D02*
X19898714Y-12496714D01*
X19927286Y-12453857D01*
X19941571Y-12425286D01*
X19955857Y-12382429D01*
X19970143Y-12311000D01*
X19970143Y-12253857D01*
X19955857Y-12182429D01*
X19941571Y-12139571D01*
X19927286Y-12111000D01*
X19898714Y-12068143D01*
X19884428Y-12053857D01*
X13358000Y-12617000D02*
X13358000Y-12697000D01*
X13318000Y-12657000D02*
X13398000Y-12657000D01*
X13741571Y-12492714D02*
X13770143Y-12492714D01*
X13798714Y-12507000D01*
X13813000Y-12521286D01*
X13827286Y-12549857D01*
X13841571Y-12607000D01*
X13841571Y-12678429D01*
X13827286Y-12735571D01*
X13813000Y-12764143D01*
X13798714Y-12778429D01*
X13770143Y-12792714D01*
X13741571Y-12792714D01*
X13713000Y-12778429D01*
X13698714Y-12764143D01*
X13684428Y-12735571D01*
X13670143Y-12678429D01*
X13670143Y-12607000D01*
X13684428Y-12549857D01*
X13698714Y-12521286D01*
X13713000Y-12507000D01*
X13741571Y-12492714D01*
X13970143Y-12764143D02*
X13984428Y-12778429D01*
X13970143Y-12792714D01*
X13955857Y-12778429D01*
X13970143Y-12764143D01*
X13970143Y-12792714D01*
X14155857Y-12621286D02*
X14127286Y-12607000D01*
X14113000Y-12592714D01*
X14098714Y-12564143D01*
X14098714Y-12549857D01*
X14113000Y-12521286D01*
X14127286Y-12507000D01*
X14155857Y-12492714D01*
X14213000Y-12492714D01*
X14241571Y-12507000D01*
X14255857Y-12521286D01*
X14270143Y-12549857D01*
X14270143Y-12564143D01*
X14255857Y-12592714D01*
X14241571Y-12607000D01*
X14213000Y-12621286D01*
X14155857Y-12621286D01*
X14127286Y-12635571D01*
X14113000Y-12649857D01*
X14098714Y-12678429D01*
X14098714Y-12735571D01*
X14113000Y-12764143D01*
X14127286Y-12778429D01*
X14155857Y-12792714D01*
X14213000Y-12792714D01*
X14241571Y-12778429D01*
X14255857Y-12764143D01*
X14270143Y-12735571D01*
X14270143Y-12678429D01*
X14255857Y-12649857D01*
X14241571Y-12635571D01*
X14213000Y-12621286D01*
X14455857Y-12492714D02*
X14484428Y-12492714D01*
X14513000Y-12507000D01*
X14527286Y-12521286D01*
X14541571Y-12549857D01*
X14555857Y-12607000D01*
X14555857Y-12678429D01*
X14541571Y-12735571D01*
X14527286Y-12764143D01*
X14513000Y-12778429D01*
X14484428Y-12792714D01*
X14455857Y-12792714D01*
X14427286Y-12778429D01*
X14413000Y-12764143D01*
X14398714Y-12735571D01*
X14384428Y-12678429D01*
X14384428Y-12607000D01*
X14398714Y-12549857D01*
X14413000Y-12521286D01*
X14427286Y-12507000D01*
X14455857Y-12492714D01*
X14684428Y-12792714D02*
X14684428Y-12592714D01*
X14684428Y-12621286D02*
X14698714Y-12607000D01*
X14727286Y-12592714D01*
X14770143Y-12592714D01*
X14798714Y-12607000D01*
X14813000Y-12635571D01*
X14813000Y-12792714D01*
X14813000Y-12635571D02*
X14827286Y-12607000D01*
X14855857Y-12592714D01*
X14898714Y-12592714D01*
X14927286Y-12607000D01*
X14941571Y-12635571D01*
X14941571Y-12792714D01*
X15084428Y-12792714D02*
X15084428Y-12592714D01*
X15084428Y-12621286D02*
X15098714Y-12607000D01*
X15127286Y-12592714D01*
X15170143Y-12592714D01*
X15198714Y-12607000D01*
X15213000Y-12635571D01*
X15213000Y-12792714D01*
X15213000Y-12635571D02*
X15227286Y-12607000D01*
X15255857Y-12592714D01*
X15298714Y-12592714D01*
X15327286Y-12607000D01*
X15341571Y-12635571D01*
X15341571Y-12792714D01*
X15927286Y-12478429D02*
X15670143Y-12864143D01*
X16313000Y-12492714D02*
X16341571Y-12492714D01*
X16370143Y-12507000D01*
X16384428Y-12521286D01*
X16398714Y-12549857D01*
X16413000Y-12607000D01*
X16413000Y-12678429D01*
X16398714Y-12735571D01*
X16384428Y-12764143D01*
X16370143Y-12778429D01*
X16341571Y-12792714D01*
X16313000Y-12792714D01*
X16284428Y-12778429D01*
X16270143Y-12764143D01*
X16255857Y-12735571D01*
X16241571Y-12678429D01*
X16241571Y-12607000D01*
X16255857Y-12549857D01*
X16270143Y-12521286D01*
X16284428Y-12507000D01*
X16313000Y-12492714D01*
X16541571Y-12764143D02*
X16555857Y-12778429D01*
X16541571Y-12792714D01*
X16527286Y-12778429D01*
X16541571Y-12764143D01*
X16541571Y-12792714D01*
X16741571Y-12492714D02*
X16770143Y-12492714D01*
X16798714Y-12507000D01*
X16813000Y-12521286D01*
X16827286Y-12549857D01*
X16841571Y-12607000D01*
X16841571Y-12678429D01*
X16827286Y-12735571D01*
X16813000Y-12764143D01*
X16798714Y-12778429D01*
X16770143Y-12792714D01*
X16741571Y-12792714D01*
X16713000Y-12778429D01*
X16698714Y-12764143D01*
X16684428Y-12735571D01*
X16670143Y-12678429D01*
X16670143Y-12607000D01*
X16684428Y-12549857D01*
X16698714Y-12521286D01*
X16713000Y-12507000D01*
X16741571Y-12492714D01*
X16941571Y-12492714D02*
X17127286Y-12492714D01*
X17027286Y-12607000D01*
X17070143Y-12607000D01*
X17098714Y-12621286D01*
X17113000Y-12635571D01*
X17127286Y-12664143D01*
X17127286Y-12735571D01*
X17113000Y-12764143D01*
X17098714Y-12778429D01*
X17070143Y-12792714D01*
X16984428Y-12792714D01*
X16955857Y-12778429D01*
X16941571Y-12764143D01*
X17413000Y-12792714D02*
X17241571Y-12792714D01*
X17327286Y-12792714D02*
X17327286Y-12492714D01*
X17298714Y-12535571D01*
X17270143Y-12564143D01*
X17241571Y-12578429D01*
X17527286Y-12492714D02*
X17527286Y-12549857D01*
X17641571Y-12492714D02*
X17641571Y-12549857D01*
X18084428Y-12907000D02*
X18070143Y-12892714D01*
X18041571Y-12849857D01*
X18027286Y-12821286D01*
X18013000Y-12778429D01*
X17998714Y-12707000D01*
X17998714Y-12649857D01*
X18013000Y-12578429D01*
X18027286Y-12535571D01*
X18041571Y-12507000D01*
X18070143Y-12464143D01*
X18084428Y-12449857D01*
X18327286Y-12592714D02*
X18327286Y-12792714D01*
X18255857Y-12478429D02*
X18184428Y-12692714D01*
X18370143Y-12692714D01*
X18541571Y-12492714D02*
X18570143Y-12492714D01*
X18598714Y-12507000D01*
X18613000Y-12521286D01*
X18627286Y-12549857D01*
X18641571Y-12607000D01*
X18641571Y-12678429D01*
X18627286Y-12735571D01*
X18613000Y-12764143D01*
X18598714Y-12778429D01*
X18570143Y-12792714D01*
X18541571Y-12792714D01*
X18513000Y-12778429D01*
X18498714Y-12764143D01*
X18484428Y-12735571D01*
X18470143Y-12678429D01*
X18470143Y-12607000D01*
X18484428Y-12549857D01*
X18498714Y-12521286D01*
X18513000Y-12507000D01*
X18541571Y-12492714D01*
X18998714Y-12792714D02*
X18998714Y-12492714D01*
X19127286Y-12792714D02*
X19127286Y-12635571D01*
X19113000Y-12607000D01*
X19084428Y-12592714D01*
X19041571Y-12592714D01*
X19013000Y-12607000D01*
X18998714Y-12621286D01*
X19313000Y-12792714D02*
X19284428Y-12778429D01*
X19270143Y-12764143D01*
X19255857Y-12735571D01*
X19255857Y-12649857D01*
X19270143Y-12621286D01*
X19284428Y-12607000D01*
X19313000Y-12592714D01*
X19355857Y-12592714D01*
X19384428Y-12607000D01*
X19398714Y-12621286D01*
X19413000Y-12649857D01*
X19413000Y-12735571D01*
X19398714Y-12764143D01*
X19384428Y-12778429D01*
X19355857Y-12792714D01*
X19313000Y-12792714D01*
X19584428Y-12792714D02*
X19555857Y-12778429D01*
X19541571Y-12749857D01*
X19541571Y-12492714D01*
X19813000Y-12778429D02*
X19784428Y-12792714D01*
X19727286Y-12792714D01*
X19698714Y-12778429D01*
X19684428Y-12749857D01*
X19684428Y-12635571D01*
X19698714Y-12607000D01*
X19727286Y-12592714D01*
X19784428Y-12592714D01*
X19813000Y-12607000D01*
X19827286Y-12635571D01*
X19827286Y-12664143D01*
X19684428Y-12692714D01*
X19941571Y-12778429D02*
X19970143Y-12792714D01*
X20027286Y-12792714D01*
X20055857Y-12778429D01*
X20070143Y-12749857D01*
X20070143Y-12735571D01*
X20055857Y-12707000D01*
X20027286Y-12692714D01*
X19984428Y-12692714D01*
X19955857Y-12678429D01*
X19941571Y-12649857D01*
X19941571Y-12635571D01*
X19955857Y-12607000D01*
X19984428Y-12592714D01*
X20027286Y-12592714D01*
X20055857Y-12607000D01*
X20170143Y-12907000D02*
X20184428Y-12892714D01*
X20213000Y-12849857D01*
X20227286Y-12821286D01*
X20241571Y-12778429D01*
X20255857Y-12707000D01*
X20255857Y-12649857D01*
X20241571Y-12578429D01*
X20227286Y-12535571D01*
X20213000Y-12507000D01*
X20184428Y-12464143D01*
X20170143Y-12449857D01*
X13383356Y-13088356D02*
X13383356Y-13017644D01*
X13312644Y-13017644D01*
X13312644Y-13088356D01*
X13383356Y-13088356D01*
X13841571Y-13188714D02*
X13670143Y-13188714D01*
X13755857Y-13188714D02*
X13755857Y-12888714D01*
X13727286Y-12931571D01*
X13698714Y-12960143D01*
X13670143Y-12974429D01*
X13970143Y-13160143D02*
X13984428Y-13174429D01*
X13970143Y-13188714D01*
X13955857Y-13174429D01*
X13970143Y-13160143D01*
X13970143Y-13188714D01*
X14170143Y-12888714D02*
X14198714Y-12888714D01*
X14227286Y-12903000D01*
X14241571Y-12917286D01*
X14255857Y-12945857D01*
X14270143Y-13003000D01*
X14270143Y-13074429D01*
X14255857Y-13131571D01*
X14241571Y-13160143D01*
X14227286Y-13174429D01*
X14198714Y-13188714D01*
X14170143Y-13188714D01*
X14141571Y-13174429D01*
X14127286Y-13160143D01*
X14113000Y-13131571D01*
X14098714Y-13074429D01*
X14098714Y-13003000D01*
X14113000Y-12945857D01*
X14127286Y-12917286D01*
X14141571Y-12903000D01*
X14170143Y-12888714D01*
X14455857Y-12888714D02*
X14484428Y-12888714D01*
X14513000Y-12903000D01*
X14527286Y-12917286D01*
X14541571Y-12945857D01*
X14555857Y-13003000D01*
X14555857Y-13074429D01*
X14541571Y-13131571D01*
X14527286Y-13160143D01*
X14513000Y-13174429D01*
X14484428Y-13188714D01*
X14455857Y-13188714D01*
X14427286Y-13174429D01*
X14413000Y-13160143D01*
X14398714Y-13131571D01*
X14384428Y-13074429D01*
X14384428Y-13003000D01*
X14398714Y-12945857D01*
X14413000Y-12917286D01*
X14427286Y-12903000D01*
X14455857Y-12888714D01*
X14684428Y-13188714D02*
X14684428Y-12988714D01*
X14684428Y-13017286D02*
X14698714Y-13003000D01*
X14727286Y-12988714D01*
X14770143Y-12988714D01*
X14798714Y-13003000D01*
X14813000Y-13031571D01*
X14813000Y-13188714D01*
X14813000Y-13031571D02*
X14827286Y-13003000D01*
X14855857Y-12988714D01*
X14898714Y-12988714D01*
X14927286Y-13003000D01*
X14941571Y-13031571D01*
X14941571Y-13188714D01*
X15084428Y-13188714D02*
X15084428Y-12988714D01*
X15084428Y-13017286D02*
X15098714Y-13003000D01*
X15127286Y-12988714D01*
X15170143Y-12988714D01*
X15198714Y-13003000D01*
X15213000Y-13031571D01*
X15213000Y-13188714D01*
X15213000Y-13031571D02*
X15227286Y-13003000D01*
X15255857Y-12988714D01*
X15298714Y-12988714D01*
X15327286Y-13003000D01*
X15341571Y-13031571D01*
X15341571Y-13188714D01*
X15927286Y-12874429D02*
X15670143Y-13260143D01*
X16313000Y-12888714D02*
X16341571Y-12888714D01*
X16370143Y-12903000D01*
X16384428Y-12917286D01*
X16398714Y-12945857D01*
X16413000Y-13003000D01*
X16413000Y-13074429D01*
X16398714Y-13131571D01*
X16384428Y-13160143D01*
X16370143Y-13174429D01*
X16341571Y-13188714D01*
X16313000Y-13188714D01*
X16284428Y-13174429D01*
X16270143Y-13160143D01*
X16255857Y-13131571D01*
X16241571Y-13074429D01*
X16241571Y-13003000D01*
X16255857Y-12945857D01*
X16270143Y-12917286D01*
X16284428Y-12903000D01*
X16313000Y-12888714D01*
X16541571Y-13160143D02*
X16555857Y-13174429D01*
X16541571Y-13188714D01*
X16527286Y-13174429D01*
X16541571Y-13160143D01*
X16541571Y-13188714D01*
X16741571Y-12888714D02*
X16770143Y-12888714D01*
X16798714Y-12903000D01*
X16813000Y-12917286D01*
X16827286Y-12945857D01*
X16841571Y-13003000D01*
X16841571Y-13074429D01*
X16827286Y-13131571D01*
X16813000Y-13160143D01*
X16798714Y-13174429D01*
X16770143Y-13188714D01*
X16741571Y-13188714D01*
X16713000Y-13174429D01*
X16698714Y-13160143D01*
X16684428Y-13131571D01*
X16670143Y-13074429D01*
X16670143Y-13003000D01*
X16684428Y-12945857D01*
X16698714Y-12917286D01*
X16713000Y-12903000D01*
X16741571Y-12888714D01*
X16941571Y-12888714D02*
X17127286Y-12888714D01*
X17027286Y-13003000D01*
X17070143Y-13003000D01*
X17098714Y-13017286D01*
X17113000Y-13031571D01*
X17127286Y-13060143D01*
X17127286Y-13131571D01*
X17113000Y-13160143D01*
X17098714Y-13174429D01*
X17070143Y-13188714D01*
X16984428Y-13188714D01*
X16955857Y-13174429D01*
X16941571Y-13160143D01*
X17270143Y-13188714D02*
X17327286Y-13188714D01*
X17355857Y-13174429D01*
X17370143Y-13160143D01*
X17398714Y-13117286D01*
X17413000Y-13060143D01*
X17413000Y-12945857D01*
X17398714Y-12917286D01*
X17384428Y-12903000D01*
X17355857Y-12888714D01*
X17298714Y-12888714D01*
X17270143Y-12903000D01*
X17255857Y-12917286D01*
X17241571Y-12945857D01*
X17241571Y-13017286D01*
X17255857Y-13045857D01*
X17270143Y-13060143D01*
X17298714Y-13074429D01*
X17355857Y-13074429D01*
X17384428Y-13060143D01*
X17398714Y-13045857D01*
X17413000Y-13017286D01*
X17527286Y-12888714D02*
X17527286Y-12945857D01*
X17641571Y-12888714D02*
X17641571Y-12945857D01*
X18084428Y-13303000D02*
X18070143Y-13288714D01*
X18041571Y-13245857D01*
X18027286Y-13217286D01*
X18013000Y-13174429D01*
X17998714Y-13103000D01*
X17998714Y-13045857D01*
X18013000Y-12974429D01*
X18027286Y-12931571D01*
X18041571Y-12903000D01*
X18070143Y-12860143D01*
X18084428Y-12845857D01*
X18170143Y-12888714D02*
X18355857Y-12888714D01*
X18255857Y-13003000D01*
X18298714Y-13003000D01*
X18327286Y-13017286D01*
X18341571Y-13031571D01*
X18355857Y-13060143D01*
X18355857Y-13131571D01*
X18341571Y-13160143D01*
X18327286Y-13174429D01*
X18298714Y-13188714D01*
X18213000Y-13188714D01*
X18184428Y-13174429D01*
X18170143Y-13160143D01*
X18527286Y-13017286D02*
X18498714Y-13003000D01*
X18484428Y-12988714D01*
X18470143Y-12960143D01*
X18470143Y-12945857D01*
X18484428Y-12917286D01*
X18498714Y-12903000D01*
X18527286Y-12888714D01*
X18584428Y-12888714D01*
X18613000Y-12903000D01*
X18627286Y-12917286D01*
X18641571Y-12945857D01*
X18641571Y-12960143D01*
X18627286Y-12988714D01*
X18613000Y-13003000D01*
X18584428Y-13017286D01*
X18527286Y-13017286D01*
X18498714Y-13031571D01*
X18484428Y-13045857D01*
X18470143Y-13074429D01*
X18470143Y-13131571D01*
X18484428Y-13160143D01*
X18498714Y-13174429D01*
X18527286Y-13188714D01*
X18584428Y-13188714D01*
X18613000Y-13174429D01*
X18627286Y-13160143D01*
X18641571Y-13131571D01*
X18641571Y-13074429D01*
X18627286Y-13045857D01*
X18613000Y-13031571D01*
X18584428Y-13017286D01*
X18998714Y-13188714D02*
X18998714Y-12888714D01*
X19127286Y-13188714D02*
X19127286Y-13031571D01*
X19113000Y-13003000D01*
X19084428Y-12988714D01*
X19041571Y-12988714D01*
X19013000Y-13003000D01*
X18998714Y-13017286D01*
X19313000Y-13188714D02*
X19284428Y-13174429D01*
X19270143Y-13160143D01*
X19255857Y-13131571D01*
X19255857Y-13045857D01*
X19270143Y-13017286D01*
X19284428Y-13003000D01*
X19313000Y-12988714D01*
X19355857Y-12988714D01*
X19384428Y-13003000D01*
X19398714Y-13017286D01*
X19413000Y-13045857D01*
X19413000Y-13131571D01*
X19398714Y-13160143D01*
X19384428Y-13174429D01*
X19355857Y-13188714D01*
X19313000Y-13188714D01*
X19584428Y-13188714D02*
X19555857Y-13174429D01*
X19541571Y-13145857D01*
X19541571Y-12888714D01*
X19813000Y-13174429D02*
X19784428Y-13188714D01*
X19727286Y-13188714D01*
X19698714Y-13174429D01*
X19684428Y-13145857D01*
X19684428Y-13031571D01*
X19698714Y-13003000D01*
X19727286Y-12988714D01*
X19784428Y-12988714D01*
X19813000Y-13003000D01*
X19827286Y-13031571D01*
X19827286Y-13060143D01*
X19684428Y-13088714D01*
X19941571Y-13174429D02*
X19970143Y-13188714D01*
X20027286Y-13188714D01*
X20055857Y-13174429D01*
X20070143Y-13145857D01*
X20070143Y-13131571D01*
X20055857Y-13103000D01*
X20027286Y-13088714D01*
X19984428Y-13088714D01*
X19955857Y-13074429D01*
X19941571Y-13045857D01*
X19941571Y-13031571D01*
X19955857Y-13003000D01*
X19984428Y-12988714D01*
X20027286Y-12988714D01*
X20055857Y-13003000D01*
X20170143Y-13303000D02*
X20184428Y-13288714D01*
X20213000Y-13245857D01*
X20227286Y-13217286D01*
X20241571Y-13174429D01*
X20255857Y-13103000D01*
X20255857Y-13045857D01*
X20241571Y-12974429D01*
X20227286Y-12931571D01*
X20213000Y-12903000D01*
X20184428Y-12860143D01*
X20170143Y-12845857D01*
M02*
