M48
; DRILL file {KiCad (5.1.9)-1} date 05/11/23 19:28:02
; FORMAT={-:-/ absolute / metric / decimal}
; #@! TF.CreationDate,2023-05-11T19:28:02+01:00
; #@! TF.GenerationSoftware,Kicad,Pcbnew,(5.1.9)-1
; #@! TF.FileFunction,Plated,1,2,PTH
FMAT,2
METRIC
T1C0.800
T2C0.900
T3C1.000
T4C1.100
%
G90
G05
T1
X138.57Y-90.0
X143.65Y-102.515
X143.65Y-106.055
X146.19Y-90.15
X151.27Y-102.515
X151.27Y-106.055
X171.59Y-90.0
X171.59Y-93.54
X179.21Y-90.0
X179.21Y-93.54
T2
X156.825Y-91.775
X158.095Y-91.775
X159.365Y-91.775
X160.635Y-91.775
T3
X136.03Y-96.475
X136.03Y-99.015
X138.57Y-96.475
X138.57Y-99.015
X141.11Y-96.475
X141.11Y-99.015
X143.65Y-96.475
X143.65Y-99.015
X146.19Y-96.475
X146.19Y-99.015
X148.73Y-96.475
X148.73Y-99.015
X151.27Y-96.475
X151.27Y-99.015
X153.81Y-96.475
X153.81Y-99.015
X156.35Y-96.475
X156.35Y-99.015
X158.89Y-96.475
X158.89Y-99.015
X161.43Y-96.475
X161.43Y-99.015
X163.97Y-96.475
X163.97Y-99.015
X166.51Y-96.475
X166.51Y-99.015
X169.05Y-96.475
X169.05Y-99.015
X171.59Y-96.475
X171.59Y-99.015
X174.13Y-96.475
X174.13Y-99.015
X176.67Y-96.475
X176.67Y-99.015
X179.21Y-96.475
X179.21Y-99.015
X181.75Y-96.475
X181.75Y-99.015
T4
X158.89Y-102.515
X158.89Y-107.015
X165.39Y-102.515
X165.39Y-107.015
X171.59Y-102.515
X171.59Y-107.015
X178.09Y-102.515
X178.09Y-107.015
T0
M30
