%TF.GenerationSoftware,KiCad,Pcbnew,(5.1.9)-1*%
%TF.CreationDate,2023-05-11T19:27:58+01:00*%
%TF.ProjectId,#4_Moody,23345f4d-6f6f-4647-992e-6b696361645f,Rev 01*%
%TF.SameCoordinates,Original*%
%TF.FileFunction,Copper,L1,Top*%
%TF.FilePolarity,Positive*%
%FSLAX46Y46*%
G04 Gerber Fmt 4.6, Leading zero omitted, Abs format (unit mm)*
G04 Created by KiCad (PCBNEW (5.1.9)-1) date 2023-05-11 19:27:58*
%MOMM*%
%LPD*%
G01*
G04 APERTURE LIST*
%TA.AperFunction,ComponentPad*%
%ADD10R,1.700000X1.700000*%
%TD*%
%TA.AperFunction,ComponentPad*%
%ADD11O,1.700000X1.700000*%
%TD*%
%TA.AperFunction,ComponentPad*%
%ADD12R,1.070000X1.800000*%
%TD*%
%TA.AperFunction,ComponentPad*%
%ADD13O,1.070000X1.800000*%
%TD*%
%TA.AperFunction,ComponentPad*%
%ADD14C,1.600000*%
%TD*%
%TA.AperFunction,ComponentPad*%
%ADD15O,1.600000X1.600000*%
%TD*%
%TA.AperFunction,ComponentPad*%
%ADD16C,2.000000*%
%TD*%
%TA.AperFunction,Conductor*%
%ADD17C,0.250000*%
%TD*%
%TA.AperFunction,Conductor*%
%ADD18C,0.400000*%
%TD*%
%TA.AperFunction,Conductor*%
%ADD19C,0.254000*%
%TD*%
%TA.AperFunction,Conductor*%
%ADD20C,0.100000*%
%TD*%
G04 APERTURE END LIST*
D10*
%TO.P,J1,1*%
%TO.N,Net-(J1-Pad1)*%
X181750000Y-96475000D03*
D11*
%TO.P,J1,2*%
%TO.N,Net-(J1-Pad2)*%
X181750000Y-99015000D03*
%TO.P,J1,3*%
%TO.N,Net-(J1-Pad3)*%
X179210000Y-96475000D03*
%TO.P,J1,4*%
%TO.N,Net-(J1-Pad4)*%
X179210000Y-99015000D03*
%TO.P,J1,5*%
%TO.N,GND*%
X176670000Y-96475000D03*
%TO.P,J1,6*%
%TO.N,Net-(J1-Pad6)*%
X176670000Y-99015000D03*
%TO.P,J1,7*%
%TO.N,GND*%
X174130000Y-96475000D03*
%TO.P,J1,8*%
%TO.N,Net-(J1-Pad8)*%
X174130000Y-99015000D03*
%TO.P,J1,9*%
%TO.N,Net-(J1-Pad9)*%
X171590000Y-96475000D03*
%TO.P,J1,10*%
%TO.N,Net-(J1-Pad10)*%
X171590000Y-99015000D03*
%TO.P,J1,11*%
%TO.N,Net-(J1-Pad11)*%
X169050000Y-96475000D03*
%TO.P,J1,12*%
%TO.N,Net-(J1-Pad12)*%
X169050000Y-99015000D03*
%TO.P,J1,13*%
%TO.N,Net-(J1-Pad13)*%
X166510000Y-96475000D03*
%TO.P,J1,14*%
%TO.N,Net-(J1-Pad14)*%
X166510000Y-99015000D03*
%TO.P,J1,15*%
%TO.N,Net-(J1-Pad15)*%
X163970000Y-96475000D03*
%TO.P,J1,16*%
%TO.N,Net-(J1-Pad16)*%
X163970000Y-99015000D03*
%TO.P,J1,17*%
%TO.N,GPIO_PD6*%
X161430000Y-96475000D03*
%TO.P,J1,18*%
%TO.N,GPIO_PD7*%
X161430000Y-99015000D03*
%TO.P,J1,19*%
%TO.N,GPIO_PC0*%
X158890000Y-96475000D03*
%TO.P,J1,20*%
%TO.N,GPIO_PC1*%
X158890000Y-99015000D03*
%TO.P,J1,21*%
%TO.N,GPIO_PC2*%
X156350000Y-96475000D03*
%TO.P,J1,22*%
%TO.N,GPIO_PC3*%
X156350000Y-99015000D03*
%TO.P,J1,23*%
%TO.N,GPIO_PC4*%
X153810000Y-96475000D03*
%TO.P,J1,24*%
%TO.N,GPIO_PC5*%
X153810000Y-99015000D03*
%TO.P,J1,25*%
%TO.N,GPIO_PC6*%
X151270000Y-96475000D03*
%TO.P,J1,26*%
%TO.N,GPIO_PC7*%
X151270000Y-99015000D03*
%TO.P,J1,27*%
%TO.N,Net-(J1-Pad27)*%
X148730000Y-96475000D03*
%TO.P,J1,28*%
%TO.N,Net-(J1-Pad28)*%
X148730000Y-99015000D03*
%TO.P,J1,29*%
%TO.N,Net-(J1-Pad29)*%
X146190000Y-96475000D03*
%TO.P,J1,30*%
%TO.N,Net-(J1-Pad30)*%
X146190000Y-99015000D03*
%TO.P,J1,31*%
%TO.N,Net-(J1-Pad31)*%
X143650000Y-96475000D03*
%TO.P,J1,32*%
%TO.N,Net-(J1-Pad32)*%
X143650000Y-99015000D03*
%TO.P,J1,33*%
%TO.N,Net-(J1-Pad33)*%
X141110000Y-96475000D03*
%TO.P,J1,34*%
%TO.N,Net-(J1-Pad34)*%
X141110000Y-99015000D03*
%TO.P,J1,35*%
%TO.N,GND*%
X138570000Y-96475000D03*
%TO.P,J1,36*%
%TO.N,3.3V*%
X138570000Y-99015000D03*
%TO.P,J1,37*%
%TO.N,Net-(J1-Pad37)*%
X136030000Y-96475000D03*
%TO.P,J1,38*%
%TO.N,Net-(J1-Pad38)*%
X136030000Y-99015000D03*
%TD*%
D12*
%TO.P,D1,1*%
%TO.N,Net-(D1-Pad1)*%
X156825000Y-91775000D03*
D13*
%TO.P,D1,2*%
%TO.N,GND*%
X158095000Y-91775000D03*
%TO.P,D1,3*%
%TO.N,Net-(D1-Pad3)*%
X159365000Y-91775000D03*
%TO.P,D1,4*%
%TO.N,Net-(D1-Pad4)*%
X160635000Y-91775000D03*
%TD*%
D14*
%TO.P,R1,1*%
%TO.N,Net-(D1-Pad1)*%
X146190000Y-90150000D03*
D15*
%TO.P,R1,2*%
%TO.N,GPIO_PC2*%
X138570000Y-90000000D03*
%TD*%
%TO.P,R2,2*%
%TO.N,GPIO_PC1*%
X179210000Y-93540000D03*
D14*
%TO.P,R2,1*%
%TO.N,Net-(D1-Pad3)*%
X171590000Y-93540000D03*
%TD*%
%TO.P,R3,1*%
%TO.N,Net-(D1-Pad4)*%
X171590000Y-90000000D03*
D15*
%TO.P,R3,2*%
%TO.N,GPIO_PC0*%
X179210000Y-90000000D03*
%TD*%
%TO.P,R4,2*%
%TO.N,3.3V*%
X143650000Y-106055000D03*
D14*
%TO.P,R4,1*%
%TO.N,GPIO_PC3*%
X151270000Y-106055000D03*
%TD*%
%TO.P,R5,1*%
%TO.N,GPIO_PC4*%
X151270000Y-102515000D03*
D15*
%TO.P,R5,2*%
%TO.N,3.3V*%
X143650000Y-102515000D03*
%TD*%
D16*
%TO.P,SW1,1*%
%TO.N,GPIO_PC3*%
X165390000Y-102515000D03*
%TO.P,SW1,2*%
%TO.N,GND*%
X165390000Y-107015000D03*
%TO.P,SW1,1*%
%TO.N,GPIO_PC3*%
X158890000Y-102515000D03*
%TO.P,SW1,2*%
%TO.N,GND*%
X158890000Y-107015000D03*
%TD*%
%TO.P,SW2,1*%
%TO.N,GPIO_PC4*%
X178090000Y-102515000D03*
%TO.P,SW2,2*%
%TO.N,GND*%
X178090000Y-107015000D03*
%TO.P,SW2,1*%
%TO.N,GPIO_PC4*%
X171590000Y-102515000D03*
%TO.P,SW2,2*%
%TO.N,GND*%
X171590000Y-107015000D03*
%TD*%
D17*
%TO.N,GPIO_PC2*%
X138650000Y-90100000D02*
X141025000Y-92475000D01*
X152425000Y-92475000D02*
X156425000Y-96475000D01*
X141025000Y-92475000D02*
X152425000Y-92475000D01*
%TO.N,GPIO_PC3*%
X151400000Y-106050000D02*
X152600000Y-104850000D01*
X163175000Y-104850000D02*
X165425000Y-102600000D01*
X152600000Y-104850000D02*
X163175000Y-104850000D01*
X159025000Y-102425000D02*
X158850000Y-102600000D01*
X165400000Y-102425000D02*
X159025000Y-102425000D01*
X158900000Y-101775000D02*
X156250000Y-99125000D01*
X158900000Y-102525000D02*
X158900000Y-101775000D01*
D18*
%TO.N,3.3V*%
X138550000Y-99025000D02*
X138550000Y-101300000D01*
X139800000Y-102550000D02*
X143650000Y-102550000D01*
X138550000Y-101300000D02*
X139800000Y-102550000D01*
X143575000Y-106050000D02*
X143625000Y-106100000D01*
X143575000Y-102550000D02*
X143575000Y-106050000D01*
D17*
%TO.N,Net-(D1-Pad1)*%
X155125000Y-90050000D02*
X156950000Y-91875000D01*
X146300000Y-90050000D02*
X155125000Y-90050000D01*
%TO.N,Net-(D1-Pad3)*%
X159425000Y-91750000D02*
X159425000Y-92675000D01*
X160250000Y-93500000D02*
X171600000Y-93500000D01*
X159425000Y-92675000D02*
X160250000Y-93500000D01*
%TO.N,Net-(D1-Pad4)*%
X160600000Y-91900000D02*
X160600000Y-90725000D01*
X170850000Y-90725000D02*
X171600000Y-89975000D01*
X160600000Y-90725000D02*
X170850000Y-90725000D01*
%TD*%
D19*
%TO.N,3.3V*%
X138697000Y-98888000D02*
X138717000Y-98888000D01*
X138717000Y-99142000D01*
X138697000Y-99142000D01*
X138697000Y-100335155D01*
X138926890Y-100456476D01*
X139074099Y-100411825D01*
X139336920Y-100286641D01*
X139570269Y-100112588D01*
X139765178Y-99896355D01*
X139834805Y-99779466D01*
X139956525Y-99961632D01*
X140163368Y-100168475D01*
X140406589Y-100330990D01*
X140676842Y-100442932D01*
X140963740Y-100500000D01*
X141256260Y-100500000D01*
X141543158Y-100442932D01*
X141813411Y-100330990D01*
X142056632Y-100168475D01*
X142263475Y-99961632D01*
X142380000Y-99787240D01*
X142496525Y-99961632D01*
X142703368Y-100168475D01*
X142946589Y-100330990D01*
X143216842Y-100442932D01*
X143503740Y-100500000D01*
X143796260Y-100500000D01*
X144083158Y-100442932D01*
X144353411Y-100330990D01*
X144596632Y-100168475D01*
X144803475Y-99961632D01*
X144920000Y-99787240D01*
X145036525Y-99961632D01*
X145243368Y-100168475D01*
X145486589Y-100330990D01*
X145756842Y-100442932D01*
X146043740Y-100500000D01*
X146336260Y-100500000D01*
X146623158Y-100442932D01*
X146893411Y-100330990D01*
X147136632Y-100168475D01*
X147343475Y-99961632D01*
X147460000Y-99787240D01*
X147576525Y-99961632D01*
X147783368Y-100168475D01*
X148026589Y-100330990D01*
X148296842Y-100442932D01*
X148583740Y-100500000D01*
X148876260Y-100500000D01*
X149163158Y-100442932D01*
X149433411Y-100330990D01*
X149676632Y-100168475D01*
X149883475Y-99961632D01*
X150000000Y-99787240D01*
X150116525Y-99961632D01*
X150323368Y-100168475D01*
X150566589Y-100330990D01*
X150836842Y-100442932D01*
X151123740Y-100500000D01*
X151416260Y-100500000D01*
X151703158Y-100442932D01*
X151973411Y-100330990D01*
X152216632Y-100168475D01*
X152423475Y-99961632D01*
X152540000Y-99787240D01*
X152656525Y-99961632D01*
X152863368Y-100168475D01*
X153106589Y-100330990D01*
X153376842Y-100442932D01*
X153663740Y-100500000D01*
X153956260Y-100500000D01*
X154243158Y-100442932D01*
X154513411Y-100330990D01*
X154756632Y-100168475D01*
X154963475Y-99961632D01*
X155080000Y-99787240D01*
X155196525Y-99961632D01*
X155403368Y-100168475D01*
X155646589Y-100330990D01*
X155916842Y-100442932D01*
X156203740Y-100500000D01*
X156496260Y-100500000D01*
X156541250Y-100491051D01*
X157581134Y-101530935D01*
X157441082Y-101740537D01*
X157317832Y-102038088D01*
X157255000Y-102353967D01*
X157255000Y-102676033D01*
X157317832Y-102991912D01*
X157441082Y-103289463D01*
X157620013Y-103557252D01*
X157847748Y-103784987D01*
X158115537Y-103963918D01*
X158413088Y-104087168D01*
X158427325Y-104090000D01*
X152637322Y-104090000D01*
X152599999Y-104086324D01*
X152562676Y-104090000D01*
X152562667Y-104090000D01*
X152451014Y-104100997D01*
X152307753Y-104144454D01*
X152175724Y-104215026D01*
X152059999Y-104309999D01*
X152036201Y-104338997D01*
X151696690Y-104678509D01*
X151688574Y-104675147D01*
X151411335Y-104620000D01*
X151128665Y-104620000D01*
X150851426Y-104675147D01*
X150590273Y-104783320D01*
X150355241Y-104940363D01*
X150155363Y-105140241D01*
X149998320Y-105375273D01*
X149890147Y-105636426D01*
X149835000Y-105913665D01*
X149835000Y-106196335D01*
X149890147Y-106473574D01*
X149998320Y-106734727D01*
X150155363Y-106969759D01*
X150355241Y-107169637D01*
X150590273Y-107326680D01*
X150851426Y-107434853D01*
X151128665Y-107490000D01*
X151411335Y-107490000D01*
X151688574Y-107434853D01*
X151949727Y-107326680D01*
X152184759Y-107169637D01*
X152384637Y-106969759D01*
X152541680Y-106734727D01*
X152649853Y-106473574D01*
X152705000Y-106196335D01*
X152705000Y-105913665D01*
X152689427Y-105835375D01*
X152914802Y-105610000D01*
X158049809Y-105610000D01*
X157847748Y-105745013D01*
X157620013Y-105972748D01*
X157441082Y-106240537D01*
X157317832Y-106538088D01*
X157255000Y-106853967D01*
X157255000Y-107176033D01*
X157317832Y-107491912D01*
X157441082Y-107789463D01*
X157620013Y-108057252D01*
X157847748Y-108284987D01*
X157892666Y-108315000D01*
X135094606Y-108315000D01*
X134715000Y-107935394D01*
X134715000Y-106404039D01*
X142258096Y-106404039D01*
X142298754Y-106538087D01*
X142418963Y-106792420D01*
X142586481Y-107018414D01*
X142794869Y-107207385D01*
X143036119Y-107352070D01*
X143300960Y-107446909D01*
X143523000Y-107325624D01*
X143523000Y-106182000D01*
X143777000Y-106182000D01*
X143777000Y-107325624D01*
X143999040Y-107446909D01*
X144263881Y-107352070D01*
X144505131Y-107207385D01*
X144713519Y-107018414D01*
X144881037Y-106792420D01*
X145001246Y-106538087D01*
X145041904Y-106404039D01*
X144919915Y-106182000D01*
X143777000Y-106182000D01*
X143523000Y-106182000D01*
X142380085Y-106182000D01*
X142258096Y-106404039D01*
X134715000Y-106404039D01*
X134715000Y-105705961D01*
X142258096Y-105705961D01*
X142380085Y-105928000D01*
X143523000Y-105928000D01*
X143523000Y-104784376D01*
X143777000Y-104784376D01*
X143777000Y-105928000D01*
X144919915Y-105928000D01*
X145041904Y-105705961D01*
X145001246Y-105571913D01*
X144881037Y-105317580D01*
X144713519Y-105091586D01*
X144505131Y-104902615D01*
X144263881Y-104757930D01*
X143999040Y-104663091D01*
X143777000Y-104784376D01*
X143523000Y-104784376D01*
X143300960Y-104663091D01*
X143036119Y-104757930D01*
X142794869Y-104902615D01*
X142586481Y-105091586D01*
X142418963Y-105317580D01*
X142298754Y-105571913D01*
X142258096Y-105705961D01*
X134715000Y-105705961D01*
X134715000Y-102864039D01*
X142258096Y-102864039D01*
X142298754Y-102998087D01*
X142418963Y-103252420D01*
X142586481Y-103478414D01*
X142794869Y-103667385D01*
X143036119Y-103812070D01*
X143300960Y-103906909D01*
X143523000Y-103785624D01*
X143523000Y-102642000D01*
X143777000Y-102642000D01*
X143777000Y-103785624D01*
X143999040Y-103906909D01*
X144263881Y-103812070D01*
X144505131Y-103667385D01*
X144713519Y-103478414D01*
X144881037Y-103252420D01*
X145001246Y-102998087D01*
X145041904Y-102864039D01*
X144919915Y-102642000D01*
X143777000Y-102642000D01*
X143523000Y-102642000D01*
X142380085Y-102642000D01*
X142258096Y-102864039D01*
X134715000Y-102864039D01*
X134715000Y-102165961D01*
X142258096Y-102165961D01*
X142380085Y-102388000D01*
X143523000Y-102388000D01*
X143523000Y-101244376D01*
X143777000Y-101244376D01*
X143777000Y-102388000D01*
X144919915Y-102388000D01*
X144927790Y-102373665D01*
X149835000Y-102373665D01*
X149835000Y-102656335D01*
X149890147Y-102933574D01*
X149998320Y-103194727D01*
X150155363Y-103429759D01*
X150355241Y-103629637D01*
X150590273Y-103786680D01*
X150851426Y-103894853D01*
X151128665Y-103950000D01*
X151411335Y-103950000D01*
X151688574Y-103894853D01*
X151949727Y-103786680D01*
X152184759Y-103629637D01*
X152384637Y-103429759D01*
X152541680Y-103194727D01*
X152649853Y-102933574D01*
X152705000Y-102656335D01*
X152705000Y-102373665D01*
X152649853Y-102096426D01*
X152541680Y-101835273D01*
X152384637Y-101600241D01*
X152184759Y-101400363D01*
X151949727Y-101243320D01*
X151688574Y-101135147D01*
X151411335Y-101080000D01*
X151128665Y-101080000D01*
X150851426Y-101135147D01*
X150590273Y-101243320D01*
X150355241Y-101400363D01*
X150155363Y-101600241D01*
X149998320Y-101835273D01*
X149890147Y-102096426D01*
X149835000Y-102373665D01*
X144927790Y-102373665D01*
X145041904Y-102165961D01*
X145001246Y-102031913D01*
X144881037Y-101777580D01*
X144713519Y-101551586D01*
X144505131Y-101362615D01*
X144263881Y-101217930D01*
X143999040Y-101123091D01*
X143777000Y-101244376D01*
X143523000Y-101244376D01*
X143300960Y-101123091D01*
X143036119Y-101217930D01*
X142794869Y-101362615D01*
X142586481Y-101551586D01*
X142418963Y-101777580D01*
X142298754Y-102031913D01*
X142258096Y-102165961D01*
X134715000Y-102165961D01*
X134715000Y-99719893D01*
X134876525Y-99961632D01*
X135083368Y-100168475D01*
X135326589Y-100330990D01*
X135596842Y-100442932D01*
X135883740Y-100500000D01*
X136176260Y-100500000D01*
X136463158Y-100442932D01*
X136733411Y-100330990D01*
X136976632Y-100168475D01*
X137183475Y-99961632D01*
X137305195Y-99779466D01*
X137374822Y-99896355D01*
X137569731Y-100112588D01*
X137803080Y-100286641D01*
X138065901Y-100411825D01*
X138213110Y-100456476D01*
X138443000Y-100335155D01*
X138443000Y-99142000D01*
X138423000Y-99142000D01*
X138423000Y-98888000D01*
X138443000Y-98888000D01*
X138443000Y-98868000D01*
X138697000Y-98868000D01*
X138697000Y-98888000D01*
%TA.AperFunction,Conductor*%
D20*
G36*
X138697000Y-98888000D02*
G01*
X138717000Y-98888000D01*
X138717000Y-99142000D01*
X138697000Y-99142000D01*
X138697000Y-100335155D01*
X138926890Y-100456476D01*
X139074099Y-100411825D01*
X139336920Y-100286641D01*
X139570269Y-100112588D01*
X139765178Y-99896355D01*
X139834805Y-99779466D01*
X139956525Y-99961632D01*
X140163368Y-100168475D01*
X140406589Y-100330990D01*
X140676842Y-100442932D01*
X140963740Y-100500000D01*
X141256260Y-100500000D01*
X141543158Y-100442932D01*
X141813411Y-100330990D01*
X142056632Y-100168475D01*
X142263475Y-99961632D01*
X142380000Y-99787240D01*
X142496525Y-99961632D01*
X142703368Y-100168475D01*
X142946589Y-100330990D01*
X143216842Y-100442932D01*
X143503740Y-100500000D01*
X143796260Y-100500000D01*
X144083158Y-100442932D01*
X144353411Y-100330990D01*
X144596632Y-100168475D01*
X144803475Y-99961632D01*
X144920000Y-99787240D01*
X145036525Y-99961632D01*
X145243368Y-100168475D01*
X145486589Y-100330990D01*
X145756842Y-100442932D01*
X146043740Y-100500000D01*
X146336260Y-100500000D01*
X146623158Y-100442932D01*
X146893411Y-100330990D01*
X147136632Y-100168475D01*
X147343475Y-99961632D01*
X147460000Y-99787240D01*
X147576525Y-99961632D01*
X147783368Y-100168475D01*
X148026589Y-100330990D01*
X148296842Y-100442932D01*
X148583740Y-100500000D01*
X148876260Y-100500000D01*
X149163158Y-100442932D01*
X149433411Y-100330990D01*
X149676632Y-100168475D01*
X149883475Y-99961632D01*
X150000000Y-99787240D01*
X150116525Y-99961632D01*
X150323368Y-100168475D01*
X150566589Y-100330990D01*
X150836842Y-100442932D01*
X151123740Y-100500000D01*
X151416260Y-100500000D01*
X151703158Y-100442932D01*
X151973411Y-100330990D01*
X152216632Y-100168475D01*
X152423475Y-99961632D01*
X152540000Y-99787240D01*
X152656525Y-99961632D01*
X152863368Y-100168475D01*
X153106589Y-100330990D01*
X153376842Y-100442932D01*
X153663740Y-100500000D01*
X153956260Y-100500000D01*
X154243158Y-100442932D01*
X154513411Y-100330990D01*
X154756632Y-100168475D01*
X154963475Y-99961632D01*
X155080000Y-99787240D01*
X155196525Y-99961632D01*
X155403368Y-100168475D01*
X155646589Y-100330990D01*
X155916842Y-100442932D01*
X156203740Y-100500000D01*
X156496260Y-100500000D01*
X156541250Y-100491051D01*
X157581134Y-101530935D01*
X157441082Y-101740537D01*
X157317832Y-102038088D01*
X157255000Y-102353967D01*
X157255000Y-102676033D01*
X157317832Y-102991912D01*
X157441082Y-103289463D01*
X157620013Y-103557252D01*
X157847748Y-103784987D01*
X158115537Y-103963918D01*
X158413088Y-104087168D01*
X158427325Y-104090000D01*
X152637322Y-104090000D01*
X152599999Y-104086324D01*
X152562676Y-104090000D01*
X152562667Y-104090000D01*
X152451014Y-104100997D01*
X152307753Y-104144454D01*
X152175724Y-104215026D01*
X152059999Y-104309999D01*
X152036201Y-104338997D01*
X151696690Y-104678509D01*
X151688574Y-104675147D01*
X151411335Y-104620000D01*
X151128665Y-104620000D01*
X150851426Y-104675147D01*
X150590273Y-104783320D01*
X150355241Y-104940363D01*
X150155363Y-105140241D01*
X149998320Y-105375273D01*
X149890147Y-105636426D01*
X149835000Y-105913665D01*
X149835000Y-106196335D01*
X149890147Y-106473574D01*
X149998320Y-106734727D01*
X150155363Y-106969759D01*
X150355241Y-107169637D01*
X150590273Y-107326680D01*
X150851426Y-107434853D01*
X151128665Y-107490000D01*
X151411335Y-107490000D01*
X151688574Y-107434853D01*
X151949727Y-107326680D01*
X152184759Y-107169637D01*
X152384637Y-106969759D01*
X152541680Y-106734727D01*
X152649853Y-106473574D01*
X152705000Y-106196335D01*
X152705000Y-105913665D01*
X152689427Y-105835375D01*
X152914802Y-105610000D01*
X158049809Y-105610000D01*
X157847748Y-105745013D01*
X157620013Y-105972748D01*
X157441082Y-106240537D01*
X157317832Y-106538088D01*
X157255000Y-106853967D01*
X157255000Y-107176033D01*
X157317832Y-107491912D01*
X157441082Y-107789463D01*
X157620013Y-108057252D01*
X157847748Y-108284987D01*
X157892666Y-108315000D01*
X135094606Y-108315000D01*
X134715000Y-107935394D01*
X134715000Y-106404039D01*
X142258096Y-106404039D01*
X142298754Y-106538087D01*
X142418963Y-106792420D01*
X142586481Y-107018414D01*
X142794869Y-107207385D01*
X143036119Y-107352070D01*
X143300960Y-107446909D01*
X143523000Y-107325624D01*
X143523000Y-106182000D01*
X143777000Y-106182000D01*
X143777000Y-107325624D01*
X143999040Y-107446909D01*
X144263881Y-107352070D01*
X144505131Y-107207385D01*
X144713519Y-107018414D01*
X144881037Y-106792420D01*
X145001246Y-106538087D01*
X145041904Y-106404039D01*
X144919915Y-106182000D01*
X143777000Y-106182000D01*
X143523000Y-106182000D01*
X142380085Y-106182000D01*
X142258096Y-106404039D01*
X134715000Y-106404039D01*
X134715000Y-105705961D01*
X142258096Y-105705961D01*
X142380085Y-105928000D01*
X143523000Y-105928000D01*
X143523000Y-104784376D01*
X143777000Y-104784376D01*
X143777000Y-105928000D01*
X144919915Y-105928000D01*
X145041904Y-105705961D01*
X145001246Y-105571913D01*
X144881037Y-105317580D01*
X144713519Y-105091586D01*
X144505131Y-104902615D01*
X144263881Y-104757930D01*
X143999040Y-104663091D01*
X143777000Y-104784376D01*
X143523000Y-104784376D01*
X143300960Y-104663091D01*
X143036119Y-104757930D01*
X142794869Y-104902615D01*
X142586481Y-105091586D01*
X142418963Y-105317580D01*
X142298754Y-105571913D01*
X142258096Y-105705961D01*
X134715000Y-105705961D01*
X134715000Y-102864039D01*
X142258096Y-102864039D01*
X142298754Y-102998087D01*
X142418963Y-103252420D01*
X142586481Y-103478414D01*
X142794869Y-103667385D01*
X143036119Y-103812070D01*
X143300960Y-103906909D01*
X143523000Y-103785624D01*
X143523000Y-102642000D01*
X143777000Y-102642000D01*
X143777000Y-103785624D01*
X143999040Y-103906909D01*
X144263881Y-103812070D01*
X144505131Y-103667385D01*
X144713519Y-103478414D01*
X144881037Y-103252420D01*
X145001246Y-102998087D01*
X145041904Y-102864039D01*
X144919915Y-102642000D01*
X143777000Y-102642000D01*
X143523000Y-102642000D01*
X142380085Y-102642000D01*
X142258096Y-102864039D01*
X134715000Y-102864039D01*
X134715000Y-102165961D01*
X142258096Y-102165961D01*
X142380085Y-102388000D01*
X143523000Y-102388000D01*
X143523000Y-101244376D01*
X143777000Y-101244376D01*
X143777000Y-102388000D01*
X144919915Y-102388000D01*
X144927790Y-102373665D01*
X149835000Y-102373665D01*
X149835000Y-102656335D01*
X149890147Y-102933574D01*
X149998320Y-103194727D01*
X150155363Y-103429759D01*
X150355241Y-103629637D01*
X150590273Y-103786680D01*
X150851426Y-103894853D01*
X151128665Y-103950000D01*
X151411335Y-103950000D01*
X151688574Y-103894853D01*
X151949727Y-103786680D01*
X152184759Y-103629637D01*
X152384637Y-103429759D01*
X152541680Y-103194727D01*
X152649853Y-102933574D01*
X152705000Y-102656335D01*
X152705000Y-102373665D01*
X152649853Y-102096426D01*
X152541680Y-101835273D01*
X152384637Y-101600241D01*
X152184759Y-101400363D01*
X151949727Y-101243320D01*
X151688574Y-101135147D01*
X151411335Y-101080000D01*
X151128665Y-101080000D01*
X150851426Y-101135147D01*
X150590273Y-101243320D01*
X150355241Y-101400363D01*
X150155363Y-101600241D01*
X149998320Y-101835273D01*
X149890147Y-102096426D01*
X149835000Y-102373665D01*
X144927790Y-102373665D01*
X145041904Y-102165961D01*
X145001246Y-102031913D01*
X144881037Y-101777580D01*
X144713519Y-101551586D01*
X144505131Y-101362615D01*
X144263881Y-101217930D01*
X143999040Y-101123091D01*
X143777000Y-101244376D01*
X143523000Y-101244376D01*
X143300960Y-101123091D01*
X143036119Y-101217930D01*
X142794869Y-101362615D01*
X142586481Y-101551586D01*
X142418963Y-101777580D01*
X142298754Y-102031913D01*
X142258096Y-102165961D01*
X134715000Y-102165961D01*
X134715000Y-99719893D01*
X134876525Y-99961632D01*
X135083368Y-100168475D01*
X135326589Y-100330990D01*
X135596842Y-100442932D01*
X135883740Y-100500000D01*
X136176260Y-100500000D01*
X136463158Y-100442932D01*
X136733411Y-100330990D01*
X136976632Y-100168475D01*
X137183475Y-99961632D01*
X137305195Y-99779466D01*
X137374822Y-99896355D01*
X137569731Y-100112588D01*
X137803080Y-100286641D01*
X138065901Y-100411825D01*
X138213110Y-100456476D01*
X138443000Y-100335155D01*
X138443000Y-99142000D01*
X138423000Y-99142000D01*
X138423000Y-98888000D01*
X138443000Y-98888000D01*
X138443000Y-98868000D01*
X138697000Y-98868000D01*
X138697000Y-98888000D01*
G37*
%TD.AperFunction*%
%TD*%
M02*
