%TF.GenerationSoftware,KiCad,Pcbnew,(5.1.9)-1*%
%TF.CreationDate,2023-04-10T19:45:02+01:00*%
%TF.ProjectId,#1_Blinkenlight,23315f42-6c69-46e6-9b65-6e6c69676874,Rev 01*%
%TF.SameCoordinates,Original*%
%TF.FileFunction,Legend,Top*%
%TF.FilePolarity,Positive*%
%FSLAX46Y46*%
G04 Gerber Fmt 4.6, Leading zero omitted, Abs format (unit mm)*
G04 Created by KiCad (PCBNEW (5.1.9)-1) date 2023-04-10 19:45:02*
%MOMM*%
%LPD*%
G01*
G04 APERTURE LIST*
%ADD10C,0.120000*%
%ADD11C,0.075000*%
%ADD12C,0.150000*%
%ADD13R,1.800000X1.800000*%
%ADD14C,1.800000*%
%ADD15R,1.700000X1.700000*%
%ADD16O,1.700000X1.700000*%
%ADD17O,1.600000X1.600000*%
%ADD18C,1.600000*%
G04 APERTURE END LIST*
D10*
X173810714Y-106421428D02*
X173525000Y-106421428D01*
X173667857Y-106421428D02*
X173667857Y-105821428D01*
X173620238Y-105907142D01*
X173572619Y-105964285D01*
X173525000Y-105992857D01*
X174025000Y-106421428D02*
X174025000Y-105821428D01*
X174310714Y-106421428D02*
X174096428Y-106078571D01*
X174310714Y-105821428D02*
X174025000Y-106164285D01*
X174905952Y-106421428D02*
X174905952Y-106021428D01*
X174905952Y-106135714D02*
X174929761Y-106078571D01*
X174953571Y-106050000D01*
X175001190Y-106021428D01*
X175048809Y-106021428D01*
X175405952Y-106392857D02*
X175358333Y-106421428D01*
X175263095Y-106421428D01*
X175215476Y-106392857D01*
X175191666Y-106335714D01*
X175191666Y-106107142D01*
X175215476Y-106050000D01*
X175263095Y-106021428D01*
X175358333Y-106021428D01*
X175405952Y-106050000D01*
X175429761Y-106107142D01*
X175429761Y-106164285D01*
X175191666Y-106221428D01*
X175620238Y-106392857D02*
X175667857Y-106421428D01*
X175763095Y-106421428D01*
X175810714Y-106392857D01*
X175834523Y-106335714D01*
X175834523Y-106307142D01*
X175810714Y-106250000D01*
X175763095Y-106221428D01*
X175691666Y-106221428D01*
X175644047Y-106192857D01*
X175620238Y-106135714D01*
X175620238Y-106107142D01*
X175644047Y-106050000D01*
X175691666Y-106021428D01*
X175763095Y-106021428D01*
X175810714Y-106050000D01*
X176048809Y-106421428D02*
X176048809Y-106021428D01*
X176048809Y-105821428D02*
X176025000Y-105850000D01*
X176048809Y-105878571D01*
X176072619Y-105850000D01*
X176048809Y-105821428D01*
X176048809Y-105878571D01*
X176263095Y-106392857D02*
X176310714Y-106421428D01*
X176405952Y-106421428D01*
X176453571Y-106392857D01*
X176477380Y-106335714D01*
X176477380Y-106307142D01*
X176453571Y-106250000D01*
X176405952Y-106221428D01*
X176334523Y-106221428D01*
X176286904Y-106192857D01*
X176263095Y-106135714D01*
X176263095Y-106107142D01*
X176286904Y-106050000D01*
X176334523Y-106021428D01*
X176405952Y-106021428D01*
X176453571Y-106050000D01*
X176620238Y-106021428D02*
X176810714Y-106021428D01*
X176691666Y-105821428D02*
X176691666Y-106335714D01*
X176715476Y-106392857D01*
X176763095Y-106421428D01*
X176810714Y-106421428D01*
X177048809Y-106421428D02*
X177001190Y-106392857D01*
X176977380Y-106364285D01*
X176953571Y-106307142D01*
X176953571Y-106135714D01*
X176977380Y-106078571D01*
X177001190Y-106050000D01*
X177048809Y-106021428D01*
X177120238Y-106021428D01*
X177167857Y-106050000D01*
X177191666Y-106078571D01*
X177215476Y-106135714D01*
X177215476Y-106307142D01*
X177191666Y-106364285D01*
X177167857Y-106392857D01*
X177120238Y-106421428D01*
X177048809Y-106421428D01*
X177429761Y-106421428D02*
X177429761Y-106021428D01*
X177429761Y-106135714D02*
X177453571Y-106078571D01*
X177477380Y-106050000D01*
X177525000Y-106021428D01*
X177572619Y-106021428D01*
X162835714Y-106421428D02*
X162550000Y-106421428D01*
X162692857Y-106421428D02*
X162692857Y-105821428D01*
X162645238Y-105907142D01*
X162597619Y-105964285D01*
X162550000Y-105992857D01*
X163050000Y-106421428D02*
X163050000Y-105821428D01*
X163335714Y-106421428D02*
X163121428Y-106078571D01*
X163335714Y-105821428D02*
X163050000Y-106164285D01*
X163930952Y-106421428D02*
X163930952Y-106021428D01*
X163930952Y-106135714D02*
X163954761Y-106078571D01*
X163978571Y-106050000D01*
X164026190Y-106021428D01*
X164073809Y-106021428D01*
X164430952Y-106392857D02*
X164383333Y-106421428D01*
X164288095Y-106421428D01*
X164240476Y-106392857D01*
X164216666Y-106335714D01*
X164216666Y-106107142D01*
X164240476Y-106050000D01*
X164288095Y-106021428D01*
X164383333Y-106021428D01*
X164430952Y-106050000D01*
X164454761Y-106107142D01*
X164454761Y-106164285D01*
X164216666Y-106221428D01*
X164645238Y-106392857D02*
X164692857Y-106421428D01*
X164788095Y-106421428D01*
X164835714Y-106392857D01*
X164859523Y-106335714D01*
X164859523Y-106307142D01*
X164835714Y-106250000D01*
X164788095Y-106221428D01*
X164716666Y-106221428D01*
X164669047Y-106192857D01*
X164645238Y-106135714D01*
X164645238Y-106107142D01*
X164669047Y-106050000D01*
X164716666Y-106021428D01*
X164788095Y-106021428D01*
X164835714Y-106050000D01*
X165073809Y-106421428D02*
X165073809Y-106021428D01*
X165073809Y-105821428D02*
X165050000Y-105850000D01*
X165073809Y-105878571D01*
X165097619Y-105850000D01*
X165073809Y-105821428D01*
X165073809Y-105878571D01*
X165288095Y-106392857D02*
X165335714Y-106421428D01*
X165430952Y-106421428D01*
X165478571Y-106392857D01*
X165502380Y-106335714D01*
X165502380Y-106307142D01*
X165478571Y-106250000D01*
X165430952Y-106221428D01*
X165359523Y-106221428D01*
X165311904Y-106192857D01*
X165288095Y-106135714D01*
X165288095Y-106107142D01*
X165311904Y-106050000D01*
X165359523Y-106021428D01*
X165430952Y-106021428D01*
X165478571Y-106050000D01*
X165645238Y-106021428D02*
X165835714Y-106021428D01*
X165716666Y-105821428D02*
X165716666Y-106335714D01*
X165740476Y-106392857D01*
X165788095Y-106421428D01*
X165835714Y-106421428D01*
X166073809Y-106421428D02*
X166026190Y-106392857D01*
X166002380Y-106364285D01*
X165978571Y-106307142D01*
X165978571Y-106135714D01*
X166002380Y-106078571D01*
X166026190Y-106050000D01*
X166073809Y-106021428D01*
X166145238Y-106021428D01*
X166192857Y-106050000D01*
X166216666Y-106078571D01*
X166240476Y-106135714D01*
X166240476Y-106307142D01*
X166216666Y-106364285D01*
X166192857Y-106392857D01*
X166145238Y-106421428D01*
X166073809Y-106421428D01*
X166454761Y-106421428D02*
X166454761Y-106021428D01*
X166454761Y-106135714D02*
X166478571Y-106078571D01*
X166502380Y-106050000D01*
X166550000Y-106021428D01*
X166597619Y-106021428D01*
X151860714Y-106421428D02*
X151575000Y-106421428D01*
X151717857Y-106421428D02*
X151717857Y-105821428D01*
X151670238Y-105907142D01*
X151622619Y-105964285D01*
X151575000Y-105992857D01*
X152075000Y-106421428D02*
X152075000Y-105821428D01*
X152360714Y-106421428D02*
X152146428Y-106078571D01*
X152360714Y-105821428D02*
X152075000Y-106164285D01*
X152955952Y-106421428D02*
X152955952Y-106021428D01*
X152955952Y-106135714D02*
X152979761Y-106078571D01*
X153003571Y-106050000D01*
X153051190Y-106021428D01*
X153098809Y-106021428D01*
X153455952Y-106392857D02*
X153408333Y-106421428D01*
X153313095Y-106421428D01*
X153265476Y-106392857D01*
X153241666Y-106335714D01*
X153241666Y-106107142D01*
X153265476Y-106050000D01*
X153313095Y-106021428D01*
X153408333Y-106021428D01*
X153455952Y-106050000D01*
X153479761Y-106107142D01*
X153479761Y-106164285D01*
X153241666Y-106221428D01*
X153670238Y-106392857D02*
X153717857Y-106421428D01*
X153813095Y-106421428D01*
X153860714Y-106392857D01*
X153884523Y-106335714D01*
X153884523Y-106307142D01*
X153860714Y-106250000D01*
X153813095Y-106221428D01*
X153741666Y-106221428D01*
X153694047Y-106192857D01*
X153670238Y-106135714D01*
X153670238Y-106107142D01*
X153694047Y-106050000D01*
X153741666Y-106021428D01*
X153813095Y-106021428D01*
X153860714Y-106050000D01*
X154098809Y-106421428D02*
X154098809Y-106021428D01*
X154098809Y-105821428D02*
X154075000Y-105850000D01*
X154098809Y-105878571D01*
X154122619Y-105850000D01*
X154098809Y-105821428D01*
X154098809Y-105878571D01*
X154313095Y-106392857D02*
X154360714Y-106421428D01*
X154455952Y-106421428D01*
X154503571Y-106392857D01*
X154527380Y-106335714D01*
X154527380Y-106307142D01*
X154503571Y-106250000D01*
X154455952Y-106221428D01*
X154384523Y-106221428D01*
X154336904Y-106192857D01*
X154313095Y-106135714D01*
X154313095Y-106107142D01*
X154336904Y-106050000D01*
X154384523Y-106021428D01*
X154455952Y-106021428D01*
X154503571Y-106050000D01*
X154670238Y-106021428D02*
X154860714Y-106021428D01*
X154741666Y-105821428D02*
X154741666Y-106335714D01*
X154765476Y-106392857D01*
X154813095Y-106421428D01*
X154860714Y-106421428D01*
X155098809Y-106421428D02*
X155051190Y-106392857D01*
X155027380Y-106364285D01*
X155003571Y-106307142D01*
X155003571Y-106135714D01*
X155027380Y-106078571D01*
X155051190Y-106050000D01*
X155098809Y-106021428D01*
X155170238Y-106021428D01*
X155217857Y-106050000D01*
X155241666Y-106078571D01*
X155265476Y-106135714D01*
X155265476Y-106307142D01*
X155241666Y-106364285D01*
X155217857Y-106392857D01*
X155170238Y-106421428D01*
X155098809Y-106421428D01*
X155479761Y-106421428D02*
X155479761Y-106021428D01*
X155479761Y-106135714D02*
X155503571Y-106078571D01*
X155527380Y-106050000D01*
X155575000Y-106021428D01*
X155622619Y-106021428D01*
X173610714Y-103196428D02*
X173325000Y-103196428D01*
X173467857Y-103196428D02*
X173467857Y-102596428D01*
X173420238Y-102682142D01*
X173372619Y-102739285D01*
X173325000Y-102767857D01*
X173825000Y-103196428D02*
X173825000Y-102596428D01*
X174110714Y-103196428D02*
X173896428Y-102853571D01*
X174110714Y-102596428D02*
X173825000Y-102939285D01*
X174705952Y-103196428D02*
X174705952Y-102796428D01*
X174705952Y-102910714D02*
X174729761Y-102853571D01*
X174753571Y-102825000D01*
X174801190Y-102796428D01*
X174848809Y-102796428D01*
X175205952Y-103167857D02*
X175158333Y-103196428D01*
X175063095Y-103196428D01*
X175015476Y-103167857D01*
X174991666Y-103110714D01*
X174991666Y-102882142D01*
X175015476Y-102825000D01*
X175063095Y-102796428D01*
X175158333Y-102796428D01*
X175205952Y-102825000D01*
X175229761Y-102882142D01*
X175229761Y-102939285D01*
X174991666Y-102996428D01*
X175420238Y-103167857D02*
X175467857Y-103196428D01*
X175563095Y-103196428D01*
X175610714Y-103167857D01*
X175634523Y-103110714D01*
X175634523Y-103082142D01*
X175610714Y-103025000D01*
X175563095Y-102996428D01*
X175491666Y-102996428D01*
X175444047Y-102967857D01*
X175420238Y-102910714D01*
X175420238Y-102882142D01*
X175444047Y-102825000D01*
X175491666Y-102796428D01*
X175563095Y-102796428D01*
X175610714Y-102825000D01*
X175848809Y-103196428D02*
X175848809Y-102796428D01*
X175848809Y-102596428D02*
X175825000Y-102625000D01*
X175848809Y-102653571D01*
X175872619Y-102625000D01*
X175848809Y-102596428D01*
X175848809Y-102653571D01*
X176063095Y-103167857D02*
X176110714Y-103196428D01*
X176205952Y-103196428D01*
X176253571Y-103167857D01*
X176277380Y-103110714D01*
X176277380Y-103082142D01*
X176253571Y-103025000D01*
X176205952Y-102996428D01*
X176134523Y-102996428D01*
X176086904Y-102967857D01*
X176063095Y-102910714D01*
X176063095Y-102882142D01*
X176086904Y-102825000D01*
X176134523Y-102796428D01*
X176205952Y-102796428D01*
X176253571Y-102825000D01*
X176420238Y-102796428D02*
X176610714Y-102796428D01*
X176491666Y-102596428D02*
X176491666Y-103110714D01*
X176515476Y-103167857D01*
X176563095Y-103196428D01*
X176610714Y-103196428D01*
X176848809Y-103196428D02*
X176801190Y-103167857D01*
X176777380Y-103139285D01*
X176753571Y-103082142D01*
X176753571Y-102910714D01*
X176777380Y-102853571D01*
X176801190Y-102825000D01*
X176848809Y-102796428D01*
X176920238Y-102796428D01*
X176967857Y-102825000D01*
X176991666Y-102853571D01*
X177015476Y-102910714D01*
X177015476Y-103082142D01*
X176991666Y-103139285D01*
X176967857Y-103167857D01*
X176920238Y-103196428D01*
X176848809Y-103196428D01*
X177229761Y-103196428D02*
X177229761Y-102796428D01*
X177229761Y-102910714D02*
X177253571Y-102853571D01*
X177277380Y-102825000D01*
X177325000Y-102796428D01*
X177372619Y-102796428D01*
X162669046Y-103196428D02*
X162383332Y-103196428D01*
X162526189Y-103196428D02*
X162526189Y-102596428D01*
X162478570Y-102682142D01*
X162430951Y-102739285D01*
X162383332Y-102767857D01*
X162883332Y-103196428D02*
X162883332Y-102596428D01*
X163169046Y-103196428D02*
X162954760Y-102853571D01*
X163169046Y-102596428D02*
X162883332Y-102939285D01*
X163764284Y-103196428D02*
X163764284Y-102796428D01*
X163764284Y-102910714D02*
X163788093Y-102853571D01*
X163811903Y-102825000D01*
X163859522Y-102796428D01*
X163907141Y-102796428D01*
X164264284Y-103167857D02*
X164216665Y-103196428D01*
X164121427Y-103196428D01*
X164073808Y-103167857D01*
X164049998Y-103110714D01*
X164049998Y-102882142D01*
X164073808Y-102825000D01*
X164121427Y-102796428D01*
X164216665Y-102796428D01*
X164264284Y-102825000D01*
X164288093Y-102882142D01*
X164288093Y-102939285D01*
X164049998Y-102996428D01*
X164478570Y-103167857D02*
X164526189Y-103196428D01*
X164621427Y-103196428D01*
X164669046Y-103167857D01*
X164692855Y-103110714D01*
X164692855Y-103082142D01*
X164669046Y-103025000D01*
X164621427Y-102996428D01*
X164549998Y-102996428D01*
X164502379Y-102967857D01*
X164478570Y-102910714D01*
X164478570Y-102882142D01*
X164502379Y-102825000D01*
X164549998Y-102796428D01*
X164621427Y-102796428D01*
X164669046Y-102825000D01*
X164907141Y-103196428D02*
X164907141Y-102796428D01*
X164907141Y-102596428D02*
X164883332Y-102625000D01*
X164907141Y-102653571D01*
X164930951Y-102625000D01*
X164907141Y-102596428D01*
X164907141Y-102653571D01*
X165121427Y-103167857D02*
X165169046Y-103196428D01*
X165264284Y-103196428D01*
X165311903Y-103167857D01*
X165335712Y-103110714D01*
X165335712Y-103082142D01*
X165311903Y-103025000D01*
X165264284Y-102996428D01*
X165192855Y-102996428D01*
X165145236Y-102967857D01*
X165121427Y-102910714D01*
X165121427Y-102882142D01*
X165145236Y-102825000D01*
X165192855Y-102796428D01*
X165264284Y-102796428D01*
X165311903Y-102825000D01*
X165478570Y-102796428D02*
X165669046Y-102796428D01*
X165549998Y-102596428D02*
X165549998Y-103110714D01*
X165573808Y-103167857D01*
X165621427Y-103196428D01*
X165669046Y-103196428D01*
X165907141Y-103196428D02*
X165859522Y-103167857D01*
X165835712Y-103139285D01*
X165811903Y-103082142D01*
X165811903Y-102910714D01*
X165835712Y-102853571D01*
X165859522Y-102825000D01*
X165907141Y-102796428D01*
X165978570Y-102796428D01*
X166026189Y-102825000D01*
X166049998Y-102853571D01*
X166073808Y-102910714D01*
X166073808Y-103082142D01*
X166049998Y-103139285D01*
X166026189Y-103167857D01*
X165978570Y-103196428D01*
X165907141Y-103196428D01*
X166288093Y-103196428D02*
X166288093Y-102796428D01*
X166288093Y-102910714D02*
X166311903Y-102853571D01*
X166335712Y-102825000D01*
X166383332Y-102796428D01*
X166430951Y-102796428D01*
X151727380Y-103196428D02*
X151441666Y-103196428D01*
X151584523Y-103196428D02*
X151584523Y-102596428D01*
X151536904Y-102682142D01*
X151489285Y-102739285D01*
X151441666Y-102767857D01*
X151941666Y-103196428D02*
X151941666Y-102596428D01*
X152227380Y-103196428D02*
X152013094Y-102853571D01*
X152227380Y-102596428D02*
X151941666Y-102939285D01*
X152822618Y-103196428D02*
X152822618Y-102796428D01*
X152822618Y-102910714D02*
X152846427Y-102853571D01*
X152870237Y-102825000D01*
X152917856Y-102796428D01*
X152965475Y-102796428D01*
X153322618Y-103167857D02*
X153274999Y-103196428D01*
X153179761Y-103196428D01*
X153132142Y-103167857D01*
X153108332Y-103110714D01*
X153108332Y-102882142D01*
X153132142Y-102825000D01*
X153179761Y-102796428D01*
X153274999Y-102796428D01*
X153322618Y-102825000D01*
X153346427Y-102882142D01*
X153346427Y-102939285D01*
X153108332Y-102996428D01*
X153536904Y-103167857D02*
X153584523Y-103196428D01*
X153679761Y-103196428D01*
X153727380Y-103167857D01*
X153751189Y-103110714D01*
X153751189Y-103082142D01*
X153727380Y-103025000D01*
X153679761Y-102996428D01*
X153608332Y-102996428D01*
X153560713Y-102967857D01*
X153536904Y-102910714D01*
X153536904Y-102882142D01*
X153560713Y-102825000D01*
X153608332Y-102796428D01*
X153679761Y-102796428D01*
X153727380Y-102825000D01*
X153965475Y-103196428D02*
X153965475Y-102796428D01*
X153965475Y-102596428D02*
X153941666Y-102625000D01*
X153965475Y-102653571D01*
X153989285Y-102625000D01*
X153965475Y-102596428D01*
X153965475Y-102653571D01*
X154179761Y-103167857D02*
X154227380Y-103196428D01*
X154322618Y-103196428D01*
X154370237Y-103167857D01*
X154394046Y-103110714D01*
X154394046Y-103082142D01*
X154370237Y-103025000D01*
X154322618Y-102996428D01*
X154251189Y-102996428D01*
X154203570Y-102967857D01*
X154179761Y-102910714D01*
X154179761Y-102882142D01*
X154203570Y-102825000D01*
X154251189Y-102796428D01*
X154322618Y-102796428D01*
X154370237Y-102825000D01*
X154536904Y-102796428D02*
X154727380Y-102796428D01*
X154608332Y-102596428D02*
X154608332Y-103110714D01*
X154632142Y-103167857D01*
X154679761Y-103196428D01*
X154727380Y-103196428D01*
X154965475Y-103196428D02*
X154917856Y-103167857D01*
X154894046Y-103139285D01*
X154870237Y-103082142D01*
X154870237Y-102910714D01*
X154894046Y-102853571D01*
X154917856Y-102825000D01*
X154965475Y-102796428D01*
X155036904Y-102796428D01*
X155084523Y-102825000D01*
X155108332Y-102853571D01*
X155132142Y-102910714D01*
X155132142Y-103082142D01*
X155108332Y-103139285D01*
X155084523Y-103167857D01*
X155036904Y-103196428D01*
X154965475Y-103196428D01*
X155346427Y-103196428D02*
X155346427Y-102796428D01*
X155346427Y-102910714D02*
X155370237Y-102853571D01*
X155394046Y-102825000D01*
X155441666Y-102796428D01*
X155489285Y-102796428D01*
X140785714Y-103196428D02*
X140500000Y-103196428D01*
X140642857Y-103196428D02*
X140642857Y-102596428D01*
X140595238Y-102682142D01*
X140547619Y-102739285D01*
X140500000Y-102767857D01*
X141000000Y-103196428D02*
X141000000Y-102596428D01*
X141285714Y-103196428D02*
X141071428Y-102853571D01*
X141285714Y-102596428D02*
X141000000Y-102939285D01*
X141880952Y-103196428D02*
X141880952Y-102796428D01*
X141880952Y-102910714D02*
X141904761Y-102853571D01*
X141928571Y-102825000D01*
X141976190Y-102796428D01*
X142023809Y-102796428D01*
X142380952Y-103167857D02*
X142333333Y-103196428D01*
X142238095Y-103196428D01*
X142190476Y-103167857D01*
X142166666Y-103110714D01*
X142166666Y-102882142D01*
X142190476Y-102825000D01*
X142238095Y-102796428D01*
X142333333Y-102796428D01*
X142380952Y-102825000D01*
X142404761Y-102882142D01*
X142404761Y-102939285D01*
X142166666Y-102996428D01*
X142595238Y-103167857D02*
X142642857Y-103196428D01*
X142738095Y-103196428D01*
X142785714Y-103167857D01*
X142809523Y-103110714D01*
X142809523Y-103082142D01*
X142785714Y-103025000D01*
X142738095Y-102996428D01*
X142666666Y-102996428D01*
X142619047Y-102967857D01*
X142595238Y-102910714D01*
X142595238Y-102882142D01*
X142619047Y-102825000D01*
X142666666Y-102796428D01*
X142738095Y-102796428D01*
X142785714Y-102825000D01*
X143023809Y-103196428D02*
X143023809Y-102796428D01*
X143023809Y-102596428D02*
X143000000Y-102625000D01*
X143023809Y-102653571D01*
X143047619Y-102625000D01*
X143023809Y-102596428D01*
X143023809Y-102653571D01*
X143238095Y-103167857D02*
X143285714Y-103196428D01*
X143380952Y-103196428D01*
X143428571Y-103167857D01*
X143452380Y-103110714D01*
X143452380Y-103082142D01*
X143428571Y-103025000D01*
X143380952Y-102996428D01*
X143309523Y-102996428D01*
X143261904Y-102967857D01*
X143238095Y-102910714D01*
X143238095Y-102882142D01*
X143261904Y-102825000D01*
X143309523Y-102796428D01*
X143380952Y-102796428D01*
X143428571Y-102825000D01*
X143595238Y-102796428D02*
X143785714Y-102796428D01*
X143666666Y-102596428D02*
X143666666Y-103110714D01*
X143690476Y-103167857D01*
X143738095Y-103196428D01*
X143785714Y-103196428D01*
X144023809Y-103196428D02*
X143976190Y-103167857D01*
X143952380Y-103139285D01*
X143928571Y-103082142D01*
X143928571Y-102910714D01*
X143952380Y-102853571D01*
X143976190Y-102825000D01*
X144023809Y-102796428D01*
X144095238Y-102796428D01*
X144142857Y-102825000D01*
X144166666Y-102853571D01*
X144190476Y-102910714D01*
X144190476Y-103082142D01*
X144166666Y-103139285D01*
X144142857Y-103167857D01*
X144095238Y-103196428D01*
X144023809Y-103196428D01*
X144404761Y-103196428D02*
X144404761Y-102796428D01*
X144404761Y-102910714D02*
X144428571Y-102853571D01*
X144452380Y-102825000D01*
X144500000Y-102796428D01*
X144547619Y-102796428D01*
X140885714Y-106421428D02*
X140600000Y-106421428D01*
X140742857Y-106421428D02*
X140742857Y-105821428D01*
X140695238Y-105907142D01*
X140647619Y-105964285D01*
X140600000Y-105992857D01*
X141100000Y-106421428D02*
X141100000Y-105821428D01*
X141385714Y-106421428D02*
X141171428Y-106078571D01*
X141385714Y-105821428D02*
X141100000Y-106164285D01*
X141980952Y-106421428D02*
X141980952Y-106021428D01*
X141980952Y-106135714D02*
X142004761Y-106078571D01*
X142028571Y-106050000D01*
X142076190Y-106021428D01*
X142123809Y-106021428D01*
X142480952Y-106392857D02*
X142433333Y-106421428D01*
X142338095Y-106421428D01*
X142290476Y-106392857D01*
X142266666Y-106335714D01*
X142266666Y-106107142D01*
X142290476Y-106050000D01*
X142338095Y-106021428D01*
X142433333Y-106021428D01*
X142480952Y-106050000D01*
X142504761Y-106107142D01*
X142504761Y-106164285D01*
X142266666Y-106221428D01*
X142695238Y-106392857D02*
X142742857Y-106421428D01*
X142838095Y-106421428D01*
X142885714Y-106392857D01*
X142909523Y-106335714D01*
X142909523Y-106307142D01*
X142885714Y-106250000D01*
X142838095Y-106221428D01*
X142766666Y-106221428D01*
X142719047Y-106192857D01*
X142695238Y-106135714D01*
X142695238Y-106107142D01*
X142719047Y-106050000D01*
X142766666Y-106021428D01*
X142838095Y-106021428D01*
X142885714Y-106050000D01*
X143123809Y-106421428D02*
X143123809Y-106021428D01*
X143123809Y-105821428D02*
X143100000Y-105850000D01*
X143123809Y-105878571D01*
X143147619Y-105850000D01*
X143123809Y-105821428D01*
X143123809Y-105878571D01*
X143338095Y-106392857D02*
X143385714Y-106421428D01*
X143480952Y-106421428D01*
X143528571Y-106392857D01*
X143552380Y-106335714D01*
X143552380Y-106307142D01*
X143528571Y-106250000D01*
X143480952Y-106221428D01*
X143409523Y-106221428D01*
X143361904Y-106192857D01*
X143338095Y-106135714D01*
X143338095Y-106107142D01*
X143361904Y-106050000D01*
X143409523Y-106021428D01*
X143480952Y-106021428D01*
X143528571Y-106050000D01*
X143695238Y-106021428D02*
X143885714Y-106021428D01*
X143766666Y-105821428D02*
X143766666Y-106335714D01*
X143790476Y-106392857D01*
X143838095Y-106421428D01*
X143885714Y-106421428D01*
X144123809Y-106421428D02*
X144076190Y-106392857D01*
X144052380Y-106364285D01*
X144028571Y-106307142D01*
X144028571Y-106135714D01*
X144052380Y-106078571D01*
X144076190Y-106050000D01*
X144123809Y-106021428D01*
X144195238Y-106021428D01*
X144242857Y-106050000D01*
X144266666Y-106078571D01*
X144290476Y-106135714D01*
X144290476Y-106307142D01*
X144266666Y-106364285D01*
X144242857Y-106392857D01*
X144195238Y-106421428D01*
X144123809Y-106421428D01*
X144504761Y-106421428D02*
X144504761Y-106021428D01*
X144504761Y-106135714D02*
X144528571Y-106078571D01*
X144552380Y-106050000D01*
X144600000Y-106021428D01*
X144647619Y-106021428D01*
D11*
X135610714Y-101932142D02*
X135610714Y-101760714D01*
X135910714Y-101846428D02*
X135610714Y-101846428D01*
X135910714Y-101660714D02*
X135610714Y-101660714D01*
X135825000Y-101560714D01*
X135610714Y-101460714D01*
X135910714Y-101460714D01*
D12*
X137007142Y-104578571D02*
X136964285Y-104664285D01*
X136878571Y-104707142D01*
X136107142Y-104707142D01*
X137007142Y-104235714D02*
X136407142Y-104235714D01*
X136107142Y-104235714D02*
X136150000Y-104278571D01*
X136192857Y-104235714D01*
X136150000Y-104192857D01*
X136107142Y-104235714D01*
X136192857Y-104235714D01*
X136407142Y-103421428D02*
X137135714Y-103421428D01*
X137221428Y-103464285D01*
X137264285Y-103507142D01*
X137307142Y-103592857D01*
X137307142Y-103721428D01*
X137264285Y-103807142D01*
X136964285Y-103421428D02*
X137007142Y-103507142D01*
X137007142Y-103678571D01*
X136964285Y-103764285D01*
X136921428Y-103807142D01*
X136835714Y-103850000D01*
X136578571Y-103850000D01*
X136492857Y-103807142D01*
X136450000Y-103764285D01*
X136407142Y-103678571D01*
X136407142Y-103507142D01*
X136450000Y-103421428D01*
X137007142Y-102992857D02*
X136107142Y-102992857D01*
X137007142Y-102607142D02*
X136535714Y-102607142D01*
X136450000Y-102650000D01*
X136407142Y-102735714D01*
X136407142Y-102864285D01*
X136450000Y-102950000D01*
X136492857Y-102992857D01*
X136407142Y-102307142D02*
X136407142Y-101964285D01*
X136107142Y-102178571D02*
X136878571Y-102178571D01*
X136964285Y-102135714D01*
X137007142Y-102050000D01*
X137007142Y-101964285D01*
X135350000Y-108214285D02*
X135350000Y-107642857D01*
X135692857Y-108328571D02*
X134492857Y-107928571D01*
X135692857Y-107528571D01*
X134892857Y-106614285D02*
X135864285Y-106614285D01*
X135978571Y-106671428D01*
X136035714Y-106728571D01*
X136092857Y-106842857D01*
X136092857Y-107014285D01*
X136035714Y-107128571D01*
X135635714Y-106614285D02*
X135692857Y-106728571D01*
X135692857Y-106957142D01*
X135635714Y-107071428D01*
X135578571Y-107128571D01*
X135464285Y-107185714D01*
X135121428Y-107185714D01*
X135007142Y-107128571D01*
X134950000Y-107071428D01*
X134892857Y-106957142D01*
X134892857Y-106728571D01*
X134950000Y-106614285D01*
X135692857Y-105871428D02*
X135635714Y-105985714D01*
X135578571Y-106042857D01*
X135464285Y-106100000D01*
X135121428Y-106100000D01*
X135007142Y-106042857D01*
X134950000Y-105985714D01*
X134892857Y-105871428D01*
X134892857Y-105700000D01*
X134950000Y-105585714D01*
X135007142Y-105528571D01*
X135121428Y-105471428D01*
X135464285Y-105471428D01*
X135578571Y-105528571D01*
X135635714Y-105585714D01*
X135692857Y-105700000D01*
X135692857Y-105871428D01*
X134892857Y-104957142D02*
X135692857Y-104957142D01*
X135007142Y-104957142D02*
X134950000Y-104900000D01*
X134892857Y-104785714D01*
X134892857Y-104614285D01*
X134950000Y-104500000D01*
X135064285Y-104442857D01*
X135692857Y-104442857D01*
X184535714Y-104095238D02*
X184535714Y-103380952D01*
X184107142Y-103809523D02*
X185392857Y-104095238D01*
X184964285Y-103476190D02*
X184964285Y-104190476D01*
X185392857Y-103761904D02*
X184107142Y-103476190D01*
X185202380Y-102523809D02*
X185202380Y-103095238D01*
X185202380Y-102809523D02*
X184202380Y-102809523D01*
X184345238Y-102904761D01*
X184440476Y-103000000D01*
X184488095Y-103095238D01*
X184678571Y-101000000D02*
X184726190Y-100857142D01*
X184773809Y-100809523D01*
X184869047Y-100761904D01*
X185011904Y-100761904D01*
X185107142Y-100809523D01*
X185154761Y-100857142D01*
X185202380Y-100952380D01*
X185202380Y-101333333D01*
X184202380Y-101333333D01*
X184202380Y-101000000D01*
X184250000Y-100904761D01*
X184297619Y-100857142D01*
X184392857Y-100809523D01*
X184488095Y-100809523D01*
X184583333Y-100857142D01*
X184630952Y-100904761D01*
X184678571Y-101000000D01*
X184678571Y-101333333D01*
X185202380Y-100190476D02*
X185154761Y-100285714D01*
X185059523Y-100333333D01*
X184202380Y-100333333D01*
X185202380Y-99809523D02*
X184535714Y-99809523D01*
X184202380Y-99809523D02*
X184250000Y-99857142D01*
X184297619Y-99809523D01*
X184250000Y-99761904D01*
X184202380Y-99809523D01*
X184297619Y-99809523D01*
X184535714Y-99333333D02*
X185202380Y-99333333D01*
X184630952Y-99333333D02*
X184583333Y-99285714D01*
X184535714Y-99190476D01*
X184535714Y-99047619D01*
X184583333Y-98952380D01*
X184678571Y-98904761D01*
X185202380Y-98904761D01*
X185202380Y-98428571D02*
X184202380Y-98428571D01*
X184821428Y-98333333D02*
X185202380Y-98047619D01*
X184535714Y-98047619D02*
X184916666Y-98428571D01*
X185154761Y-97238095D02*
X185202380Y-97333333D01*
X185202380Y-97523809D01*
X185154761Y-97619047D01*
X185059523Y-97666666D01*
X184678571Y-97666666D01*
X184583333Y-97619047D01*
X184535714Y-97523809D01*
X184535714Y-97333333D01*
X184583333Y-97238095D01*
X184678571Y-97190476D01*
X184773809Y-97190476D01*
X184869047Y-97666666D01*
X184535714Y-96761904D02*
X185202380Y-96761904D01*
X184630952Y-96761904D02*
X184583333Y-96714285D01*
X184535714Y-96619047D01*
X184535714Y-96476190D01*
X184583333Y-96380952D01*
X184678571Y-96333333D01*
X185202380Y-96333333D01*
X185202380Y-95714285D02*
X185154761Y-95809523D01*
X185059523Y-95857142D01*
X184202380Y-95857142D01*
X185202380Y-95333333D02*
X184535714Y-95333333D01*
X184202380Y-95333333D02*
X184250000Y-95380952D01*
X184297619Y-95333333D01*
X184250000Y-95285714D01*
X184202380Y-95333333D01*
X184297619Y-95333333D01*
X184535714Y-94428571D02*
X185345238Y-94428571D01*
X185440476Y-94476190D01*
X185488095Y-94523809D01*
X185535714Y-94619047D01*
X185535714Y-94761904D01*
X185488095Y-94857142D01*
X185154761Y-94428571D02*
X185202380Y-94523809D01*
X185202380Y-94714285D01*
X185154761Y-94809523D01*
X185107142Y-94857142D01*
X185011904Y-94904761D01*
X184726190Y-94904761D01*
X184630952Y-94857142D01*
X184583333Y-94809523D01*
X184535714Y-94714285D01*
X184535714Y-94523809D01*
X184583333Y-94428571D01*
X185202380Y-93952380D02*
X184202380Y-93952380D01*
X185202380Y-93523809D02*
X184678571Y-93523809D01*
X184583333Y-93571428D01*
X184535714Y-93666666D01*
X184535714Y-93809523D01*
X184583333Y-93904761D01*
X184630952Y-93952380D01*
X184535714Y-93190476D02*
X184535714Y-92809523D01*
X184202380Y-93047619D02*
X185059523Y-93047619D01*
X185154761Y-93000000D01*
X185202380Y-92904761D01*
X185202380Y-92809523D01*
D10*
%TO.C,PC_0*%
X179500000Y-91065000D02*
X179500000Y-90909000D01*
X179500000Y-93381000D02*
X179500000Y-93225000D01*
X176267665Y-93223608D02*
G75*
G03*
X179500000Y-93380516I1672335J1078608D01*
G01*
X176267665Y-91066392D02*
G75*
G02*
X179500000Y-90909484I1672335J-1078608D01*
G01*
X176898870Y-93224837D02*
G75*
G03*
X178980961Y-93225000I1041130J1079837D01*
G01*
X176898870Y-91065163D02*
G75*
G02*
X178980961Y-91065000I1041130J-1079837D01*
G01*
%TO.C,PC_1*%
X174057142Y-93381000D02*
X174057142Y-93225000D01*
X174057142Y-91065000D02*
X174057142Y-90909000D01*
X171456012Y-91065163D02*
G75*
G02*
X173538103Y-91065000I1041130J-1079837D01*
G01*
X171456012Y-93224837D02*
G75*
G03*
X173538103Y-93225000I1041130J1079837D01*
G01*
X170824807Y-91066392D02*
G75*
G02*
X174057142Y-90909484I1672335J-1078608D01*
G01*
X170824807Y-93223608D02*
G75*
G03*
X174057142Y-93380516I1672335J1078608D01*
G01*
%TO.C,PC_2*%
X168614285Y-91065000D02*
X168614285Y-90909000D01*
X168614285Y-93381000D02*
X168614285Y-93225000D01*
X165381950Y-93223608D02*
G75*
G03*
X168614285Y-93380516I1672335J1078608D01*
G01*
X165381950Y-91066392D02*
G75*
G02*
X168614285Y-90909484I1672335J-1078608D01*
G01*
X166013155Y-93224837D02*
G75*
G03*
X168095246Y-93225000I1041130J1079837D01*
G01*
X166013155Y-91065163D02*
G75*
G02*
X168095246Y-91065000I1041130J-1079837D01*
G01*
%TO.C,PC_3*%
X163171428Y-93381000D02*
X163171428Y-93225000D01*
X163171428Y-91065000D02*
X163171428Y-90909000D01*
X160570298Y-91065163D02*
G75*
G02*
X162652389Y-91065000I1041130J-1079837D01*
G01*
X160570298Y-93224837D02*
G75*
G03*
X162652389Y-93225000I1041130J1079837D01*
G01*
X159939093Y-91066392D02*
G75*
G02*
X163171428Y-90909484I1672335J-1078608D01*
G01*
X159939093Y-93223608D02*
G75*
G03*
X163171428Y-93380516I1672335J1078608D01*
G01*
%TO.C,PC_4*%
X157728571Y-91065000D02*
X157728571Y-90909000D01*
X157728571Y-93381000D02*
X157728571Y-93225000D01*
X154496236Y-93223608D02*
G75*
G03*
X157728571Y-93380516I1672335J1078608D01*
G01*
X154496236Y-91066392D02*
G75*
G02*
X157728571Y-90909484I1672335J-1078608D01*
G01*
X155127441Y-93224837D02*
G75*
G03*
X157209532Y-93225000I1041130J1079837D01*
G01*
X155127441Y-91065163D02*
G75*
G02*
X157209532Y-91065000I1041130J-1079837D01*
G01*
%TO.C,PC_5*%
X152285714Y-91065000D02*
X152285714Y-90909000D01*
X152285714Y-93381000D02*
X152285714Y-93225000D01*
X149053379Y-93223608D02*
G75*
G03*
X152285714Y-93380516I1672335J1078608D01*
G01*
X149053379Y-91066392D02*
G75*
G02*
X152285714Y-90909484I1672335J-1078608D01*
G01*
X149684584Y-93224837D02*
G75*
G03*
X151766675Y-93225000I1041130J1079837D01*
G01*
X149684584Y-91065163D02*
G75*
G02*
X151766675Y-91065000I1041130J-1079837D01*
G01*
%TO.C,PC_6*%
X146842857Y-93381000D02*
X146842857Y-93225000D01*
X146842857Y-91065000D02*
X146842857Y-90909000D01*
X144241727Y-91065163D02*
G75*
G02*
X146323818Y-91065000I1041130J-1079837D01*
G01*
X144241727Y-93224837D02*
G75*
G03*
X146323818Y-93225000I1041130J1079837D01*
G01*
X143610522Y-91066392D02*
G75*
G02*
X146842857Y-90909484I1672335J-1078608D01*
G01*
X143610522Y-93223608D02*
G75*
G03*
X146842857Y-93380516I1672335J1078608D01*
G01*
%TO.C,PC_7*%
X141400000Y-93381000D02*
X141400000Y-93225000D01*
X141400000Y-91065000D02*
X141400000Y-90909000D01*
X138798870Y-91065163D02*
G75*
G02*
X140880961Y-91065000I1041130J-1079837D01*
G01*
X138798870Y-93224837D02*
G75*
G03*
X140880961Y-93225000I1041130J1079837D01*
G01*
X138167665Y-91066392D02*
G75*
G02*
X141400000Y-90909484I1672335J-1078608D01*
G01*
X138167665Y-93223608D02*
G75*
G03*
X141400000Y-93380516I1672335J1078608D01*
G01*
%TO.C,R0*%
X172130000Y-101960000D02*
X172130000Y-101630000D01*
X172130000Y-101630000D02*
X178670000Y-101630000D01*
X178670000Y-101630000D02*
X178670000Y-101960000D01*
X172130000Y-104040000D02*
X172130000Y-104370000D01*
X172130000Y-104370000D02*
X178670000Y-104370000D01*
X178670000Y-104370000D02*
X178670000Y-104040000D01*
%TO.C,R1*%
X167756666Y-104370000D02*
X167756666Y-104040000D01*
X161216666Y-104370000D02*
X167756666Y-104370000D01*
X161216666Y-104040000D02*
X161216666Y-104370000D01*
X167756666Y-101630000D02*
X167756666Y-101960000D01*
X161216666Y-101630000D02*
X167756666Y-101630000D01*
X161216666Y-101960000D02*
X161216666Y-101630000D01*
%TO.C,R2*%
X150303333Y-102085000D02*
X150303333Y-101755000D01*
X150303333Y-101755000D02*
X156843333Y-101755000D01*
X156843333Y-101755000D02*
X156843333Y-102085000D01*
X150303333Y-104165000D02*
X150303333Y-104495000D01*
X150303333Y-104495000D02*
X156843333Y-104495000D01*
X156843333Y-104495000D02*
X156843333Y-104165000D01*
%TO.C,R3*%
X145930000Y-104470000D02*
X145930000Y-104140000D01*
X139390000Y-104470000D02*
X145930000Y-104470000D01*
X139390000Y-104140000D02*
X139390000Y-104470000D01*
X145930000Y-101730000D02*
X145930000Y-102060000D01*
X139390000Y-101730000D02*
X145930000Y-101730000D01*
X139390000Y-102060000D02*
X139390000Y-101730000D01*
%TO.C,R4*%
X172140000Y-105160000D02*
X172140000Y-104830000D01*
X172140000Y-104830000D02*
X178680000Y-104830000D01*
X178680000Y-104830000D02*
X178680000Y-105160000D01*
X172140000Y-107240000D02*
X172140000Y-107570000D01*
X172140000Y-107570000D02*
X178680000Y-107570000D01*
X178680000Y-107570000D02*
X178680000Y-107240000D01*
%TO.C,R5*%
X167755000Y-107570000D02*
X167755000Y-107240000D01*
X161215000Y-107570000D02*
X167755000Y-107570000D01*
X161215000Y-107240000D02*
X161215000Y-107570000D01*
X167755000Y-104830000D02*
X167755000Y-105160000D01*
X161215000Y-104830000D02*
X167755000Y-104830000D01*
X161215000Y-105160000D02*
X161215000Y-104830000D01*
%TO.C,R6*%
X157135000Y-107240000D02*
X157135000Y-107570000D01*
X157135000Y-107570000D02*
X150595000Y-107570000D01*
X150595000Y-107570000D02*
X150595000Y-107240000D01*
X157135000Y-105160000D02*
X157135000Y-104830000D01*
X157135000Y-104830000D02*
X150595000Y-104830000D01*
X150595000Y-104830000D02*
X150595000Y-105160000D01*
%TO.C,R7*%
X139390000Y-104830000D02*
X139390000Y-105160000D01*
X145930000Y-104830000D02*
X139390000Y-104830000D01*
X145930000Y-105160000D02*
X145930000Y-104830000D01*
X139390000Y-107570000D02*
X139390000Y-107240000D01*
X145930000Y-107570000D02*
X139390000Y-107570000D01*
X145930000Y-107240000D02*
X145930000Y-107570000D01*
%TO.C,PC_0*%
D12*
X176320952Y-89477380D02*
X176320952Y-88477380D01*
X176701904Y-88477380D01*
X176797142Y-88525000D01*
X176844761Y-88572619D01*
X176892380Y-88667857D01*
X176892380Y-88810714D01*
X176844761Y-88905952D01*
X176797142Y-88953571D01*
X176701904Y-89001190D01*
X176320952Y-89001190D01*
X177892380Y-89382142D02*
X177844761Y-89429761D01*
X177701904Y-89477380D01*
X177606666Y-89477380D01*
X177463809Y-89429761D01*
X177368571Y-89334523D01*
X177320952Y-89239285D01*
X177273333Y-89048809D01*
X177273333Y-88905952D01*
X177320952Y-88715476D01*
X177368571Y-88620238D01*
X177463809Y-88525000D01*
X177606666Y-88477380D01*
X177701904Y-88477380D01*
X177844761Y-88525000D01*
X177892380Y-88572619D01*
X178082857Y-89572619D02*
X178844761Y-89572619D01*
X179273333Y-88477380D02*
X179368571Y-88477380D01*
X179463809Y-88525000D01*
X179511428Y-88572619D01*
X179559047Y-88667857D01*
X179606666Y-88858333D01*
X179606666Y-89096428D01*
X179559047Y-89286904D01*
X179511428Y-89382142D01*
X179463809Y-89429761D01*
X179368571Y-89477380D01*
X179273333Y-89477380D01*
X179178095Y-89429761D01*
X179130476Y-89382142D01*
X179082857Y-89286904D01*
X179035238Y-89096428D01*
X179035238Y-88858333D01*
X179082857Y-88667857D01*
X179130476Y-88572619D01*
X179178095Y-88525000D01*
X179273333Y-88477380D01*
%TO.C,PC_1*%
X170878094Y-89477380D02*
X170878094Y-88477380D01*
X171259046Y-88477380D01*
X171354284Y-88525000D01*
X171401903Y-88572619D01*
X171449522Y-88667857D01*
X171449522Y-88810714D01*
X171401903Y-88905952D01*
X171354284Y-88953571D01*
X171259046Y-89001190D01*
X170878094Y-89001190D01*
X172449522Y-89382142D02*
X172401903Y-89429761D01*
X172259046Y-89477380D01*
X172163808Y-89477380D01*
X172020951Y-89429761D01*
X171925713Y-89334523D01*
X171878094Y-89239285D01*
X171830475Y-89048809D01*
X171830475Y-88905952D01*
X171878094Y-88715476D01*
X171925713Y-88620238D01*
X172020951Y-88525000D01*
X172163808Y-88477380D01*
X172259046Y-88477380D01*
X172401903Y-88525000D01*
X172449522Y-88572619D01*
X172639999Y-89572619D02*
X173401903Y-89572619D01*
X174163808Y-89477380D02*
X173592380Y-89477380D01*
X173878094Y-89477380D02*
X173878094Y-88477380D01*
X173782856Y-88620238D01*
X173687618Y-88715476D01*
X173592380Y-88763095D01*
%TO.C,PC_2*%
X165435237Y-89477380D02*
X165435237Y-88477380D01*
X165816189Y-88477380D01*
X165911427Y-88525000D01*
X165959046Y-88572619D01*
X166006665Y-88667857D01*
X166006665Y-88810714D01*
X165959046Y-88905952D01*
X165911427Y-88953571D01*
X165816189Y-89001190D01*
X165435237Y-89001190D01*
X167006665Y-89382142D02*
X166959046Y-89429761D01*
X166816189Y-89477380D01*
X166720951Y-89477380D01*
X166578094Y-89429761D01*
X166482856Y-89334523D01*
X166435237Y-89239285D01*
X166387618Y-89048809D01*
X166387618Y-88905952D01*
X166435237Y-88715476D01*
X166482856Y-88620238D01*
X166578094Y-88525000D01*
X166720951Y-88477380D01*
X166816189Y-88477380D01*
X166959046Y-88525000D01*
X167006665Y-88572619D01*
X167197142Y-89572619D02*
X167959046Y-89572619D01*
X168149523Y-88572619D02*
X168197142Y-88525000D01*
X168292380Y-88477380D01*
X168530475Y-88477380D01*
X168625713Y-88525000D01*
X168673332Y-88572619D01*
X168720951Y-88667857D01*
X168720951Y-88763095D01*
X168673332Y-88905952D01*
X168101904Y-89477380D01*
X168720951Y-89477380D01*
%TO.C,PC_3*%
X159992380Y-89477380D02*
X159992380Y-88477380D01*
X160373332Y-88477380D01*
X160468570Y-88525000D01*
X160516189Y-88572619D01*
X160563808Y-88667857D01*
X160563808Y-88810714D01*
X160516189Y-88905952D01*
X160468570Y-88953571D01*
X160373332Y-89001190D01*
X159992380Y-89001190D01*
X161563808Y-89382142D02*
X161516189Y-89429761D01*
X161373332Y-89477380D01*
X161278094Y-89477380D01*
X161135237Y-89429761D01*
X161039999Y-89334523D01*
X160992380Y-89239285D01*
X160944761Y-89048809D01*
X160944761Y-88905952D01*
X160992380Y-88715476D01*
X161039999Y-88620238D01*
X161135237Y-88525000D01*
X161278094Y-88477380D01*
X161373332Y-88477380D01*
X161516189Y-88525000D01*
X161563808Y-88572619D01*
X161754285Y-89572619D02*
X162516189Y-89572619D01*
X162659047Y-88477380D02*
X163278094Y-88477380D01*
X162944761Y-88858333D01*
X163087618Y-88858333D01*
X163182856Y-88905952D01*
X163230475Y-88953571D01*
X163278094Y-89048809D01*
X163278094Y-89286904D01*
X163230475Y-89382142D01*
X163182856Y-89429761D01*
X163087618Y-89477380D01*
X162801904Y-89477380D01*
X162706666Y-89429761D01*
X162659047Y-89382142D01*
%TO.C,PC_4*%
X154549523Y-89477380D02*
X154549523Y-88477380D01*
X154930475Y-88477380D01*
X155025713Y-88525000D01*
X155073332Y-88572619D01*
X155120951Y-88667857D01*
X155120951Y-88810714D01*
X155073332Y-88905952D01*
X155025713Y-88953571D01*
X154930475Y-89001190D01*
X154549523Y-89001190D01*
X156120951Y-89382142D02*
X156073332Y-89429761D01*
X155930475Y-89477380D01*
X155835237Y-89477380D01*
X155692380Y-89429761D01*
X155597142Y-89334523D01*
X155549523Y-89239285D01*
X155501904Y-89048809D01*
X155501904Y-88905952D01*
X155549523Y-88715476D01*
X155597142Y-88620238D01*
X155692380Y-88525000D01*
X155835237Y-88477380D01*
X155930475Y-88477380D01*
X156073332Y-88525000D01*
X156120951Y-88572619D01*
X156311428Y-89572619D02*
X157073332Y-89572619D01*
X157739999Y-88810714D02*
X157739999Y-89477380D01*
X157501904Y-88429761D02*
X157263809Y-89144047D01*
X157882856Y-89144047D01*
%TO.C,PC_5*%
X149106666Y-89477380D02*
X149106666Y-88477380D01*
X149487618Y-88477380D01*
X149582856Y-88525000D01*
X149630475Y-88572619D01*
X149678094Y-88667857D01*
X149678094Y-88810714D01*
X149630475Y-88905952D01*
X149582856Y-88953571D01*
X149487618Y-89001190D01*
X149106666Y-89001190D01*
X150678094Y-89382142D02*
X150630475Y-89429761D01*
X150487618Y-89477380D01*
X150392380Y-89477380D01*
X150249523Y-89429761D01*
X150154285Y-89334523D01*
X150106666Y-89239285D01*
X150059047Y-89048809D01*
X150059047Y-88905952D01*
X150106666Y-88715476D01*
X150154285Y-88620238D01*
X150249523Y-88525000D01*
X150392380Y-88477380D01*
X150487618Y-88477380D01*
X150630475Y-88525000D01*
X150678094Y-88572619D01*
X150868571Y-89572619D02*
X151630475Y-89572619D01*
X152344761Y-88477380D02*
X151868571Y-88477380D01*
X151820952Y-88953571D01*
X151868571Y-88905952D01*
X151963809Y-88858333D01*
X152201904Y-88858333D01*
X152297142Y-88905952D01*
X152344761Y-88953571D01*
X152392380Y-89048809D01*
X152392380Y-89286904D01*
X152344761Y-89382142D01*
X152297142Y-89429761D01*
X152201904Y-89477380D01*
X151963809Y-89477380D01*
X151868571Y-89429761D01*
X151820952Y-89382142D01*
%TO.C,PC_6*%
X143663809Y-89477380D02*
X143663809Y-88477380D01*
X144044761Y-88477380D01*
X144139999Y-88525000D01*
X144187618Y-88572619D01*
X144235237Y-88667857D01*
X144235237Y-88810714D01*
X144187618Y-88905952D01*
X144139999Y-88953571D01*
X144044761Y-89001190D01*
X143663809Y-89001190D01*
X145235237Y-89382142D02*
X145187618Y-89429761D01*
X145044761Y-89477380D01*
X144949523Y-89477380D01*
X144806666Y-89429761D01*
X144711428Y-89334523D01*
X144663809Y-89239285D01*
X144616190Y-89048809D01*
X144616190Y-88905952D01*
X144663809Y-88715476D01*
X144711428Y-88620238D01*
X144806666Y-88525000D01*
X144949523Y-88477380D01*
X145044761Y-88477380D01*
X145187618Y-88525000D01*
X145235237Y-88572619D01*
X145425714Y-89572619D02*
X146187618Y-89572619D01*
X146854285Y-88477380D02*
X146663809Y-88477380D01*
X146568571Y-88525000D01*
X146520952Y-88572619D01*
X146425714Y-88715476D01*
X146378095Y-88905952D01*
X146378095Y-89286904D01*
X146425714Y-89382142D01*
X146473333Y-89429761D01*
X146568571Y-89477380D01*
X146759047Y-89477380D01*
X146854285Y-89429761D01*
X146901904Y-89382142D01*
X146949523Y-89286904D01*
X146949523Y-89048809D01*
X146901904Y-88953571D01*
X146854285Y-88905952D01*
X146759047Y-88858333D01*
X146568571Y-88858333D01*
X146473333Y-88905952D01*
X146425714Y-88953571D01*
X146378095Y-89048809D01*
%TO.C,PC_7*%
X138220952Y-89477380D02*
X138220952Y-88477380D01*
X138601904Y-88477380D01*
X138697142Y-88525000D01*
X138744761Y-88572619D01*
X138792380Y-88667857D01*
X138792380Y-88810714D01*
X138744761Y-88905952D01*
X138697142Y-88953571D01*
X138601904Y-89001190D01*
X138220952Y-89001190D01*
X139792380Y-89382142D02*
X139744761Y-89429761D01*
X139601904Y-89477380D01*
X139506666Y-89477380D01*
X139363809Y-89429761D01*
X139268571Y-89334523D01*
X139220952Y-89239285D01*
X139173333Y-89048809D01*
X139173333Y-88905952D01*
X139220952Y-88715476D01*
X139268571Y-88620238D01*
X139363809Y-88525000D01*
X139506666Y-88477380D01*
X139601904Y-88477380D01*
X139744761Y-88525000D01*
X139792380Y-88572619D01*
X139982857Y-89572619D02*
X140744761Y-89572619D01*
X140887619Y-88477380D02*
X141554285Y-88477380D01*
X141125714Y-89477380D01*
%TD*%
%LPC*%
D13*
%TO.C,PC_0*%
X179210000Y-92145000D03*
D14*
X176670000Y-92145000D03*
%TD*%
%TO.C,PC_1*%
X171227142Y-92145000D03*
D13*
X173767142Y-92145000D03*
%TD*%
%TO.C,PC_2*%
X168324285Y-92145000D03*
D14*
X165784285Y-92145000D03*
%TD*%
%TO.C,PC_3*%
X160341428Y-92145000D03*
D13*
X162881428Y-92145000D03*
%TD*%
%TO.C,PC_4*%
X157438571Y-92145000D03*
D14*
X154898571Y-92145000D03*
%TD*%
D13*
%TO.C,PC_5*%
X151995714Y-92145000D03*
D14*
X149455714Y-92145000D03*
%TD*%
%TO.C,PC_6*%
X144012857Y-92145000D03*
D13*
X146552857Y-92145000D03*
%TD*%
D14*
%TO.C,PC_7*%
X138570000Y-92145000D03*
D13*
X141110000Y-92145000D03*
%TD*%
D15*
%TO.C,J1*%
X181750000Y-96475000D03*
D16*
X181750000Y-99015000D03*
X179210000Y-96475000D03*
X179210000Y-99015000D03*
X176670000Y-96475000D03*
X176670000Y-99015000D03*
X174130000Y-96475000D03*
X174130000Y-99015000D03*
X171590000Y-96475000D03*
X171590000Y-99015000D03*
X169050000Y-96475000D03*
X169050000Y-99015000D03*
X166510000Y-96475000D03*
X166510000Y-99015000D03*
X163970000Y-96475000D03*
X163970000Y-99015000D03*
X161430000Y-96475000D03*
X161430000Y-99015000D03*
X158890000Y-96475000D03*
X158890000Y-99015000D03*
X156350000Y-96475000D03*
X156350000Y-99015000D03*
X153810000Y-96475000D03*
X153810000Y-99015000D03*
X151270000Y-96475000D03*
X151270000Y-99015000D03*
X148730000Y-96475000D03*
X148730000Y-99015000D03*
X146190000Y-96475000D03*
X146190000Y-99015000D03*
X143650000Y-96475000D03*
X143650000Y-99015000D03*
X141110000Y-96475000D03*
X141110000Y-99015000D03*
X138570000Y-96475000D03*
X138570000Y-99015000D03*
X136030000Y-96475000D03*
X136030000Y-99015000D03*
%TD*%
D17*
%TO.C,R0*%
X179210000Y-103000000D03*
D18*
X171590000Y-103000000D03*
%TD*%
%TO.C,R1*%
X160676666Y-103000000D03*
D17*
X168296666Y-103000000D03*
%TD*%
%TO.C,R2*%
X157383333Y-103125000D03*
D18*
X149763333Y-103125000D03*
%TD*%
%TO.C,R3*%
X138850000Y-103100000D03*
D17*
X146470000Y-103100000D03*
%TD*%
%TO.C,R4*%
X179220000Y-106200000D03*
D18*
X171600000Y-106200000D03*
%TD*%
%TO.C,R5*%
X160675000Y-106200000D03*
D17*
X168295000Y-106200000D03*
%TD*%
%TO.C,R6*%
X150055000Y-106200000D03*
D18*
X157675000Y-106200000D03*
%TD*%
%TO.C,R7*%
X146470000Y-106200000D03*
D17*
X138850000Y-106200000D03*
%TD*%
M02*
