%TF.GenerationSoftware,KiCad,Pcbnew,(5.1.9)-1*%
%TF.CreationDate,2023-04-10T19:45:02+01:00*%
%TF.ProjectId,#1_Blinkenlight,23315f42-6c69-46e6-9b65-6e6c69676874,Rev 01*%
%TF.SameCoordinates,Original*%
%TF.FileFunction,Copper,L2,Bot*%
%TF.FilePolarity,Positive*%
%FSLAX46Y46*%
G04 Gerber Fmt 4.6, Leading zero omitted, Abs format (unit mm)*
G04 Created by KiCad (PCBNEW (5.1.9)-1) date 2023-04-10 19:45:02*
%MOMM*%
%LPD*%
G01*
G04 APERTURE LIST*
%TA.AperFunction,ComponentPad*%
%ADD10R,1.800000X1.800000*%
%TD*%
%TA.AperFunction,ComponentPad*%
%ADD11C,1.800000*%
%TD*%
%TA.AperFunction,ComponentPad*%
%ADD12R,1.700000X1.700000*%
%TD*%
%TA.AperFunction,ComponentPad*%
%ADD13O,1.700000X1.700000*%
%TD*%
%TA.AperFunction,ComponentPad*%
%ADD14O,1.600000X1.600000*%
%TD*%
%TA.AperFunction,ComponentPad*%
%ADD15C,1.600000*%
%TD*%
%TA.AperFunction,Conductor*%
%ADD16C,0.250000*%
%TD*%
%TA.AperFunction,Conductor*%
%ADD17C,0.254000*%
%TD*%
%TA.AperFunction,Conductor*%
%ADD18C,0.100000*%
%TD*%
G04 APERTURE END LIST*
D10*
%TO.P,PC_0,1*%
%TO.N,GND*%
X179210000Y-92145000D03*
D11*
%TO.P,PC_0,2*%
%TO.N,Net-(D0-Pad2)*%
X176670000Y-92145000D03*
%TD*%
%TO.P,PC_1,2*%
%TO.N,Net-(D1-Pad2)*%
X171227142Y-92145000D03*
D10*
%TO.P,PC_1,1*%
%TO.N,GND*%
X173767142Y-92145000D03*
%TD*%
%TO.P,PC_2,1*%
%TO.N,GND*%
X168324285Y-92145000D03*
D11*
%TO.P,PC_2,2*%
%TO.N,Net-(D2-Pad2)*%
X165784285Y-92145000D03*
%TD*%
%TO.P,PC_3,2*%
%TO.N,Net-(D3-Pad2)*%
X160341428Y-92145000D03*
D10*
%TO.P,PC_3,1*%
%TO.N,GND*%
X162881428Y-92145000D03*
%TD*%
%TO.P,PC_4,1*%
%TO.N,GND*%
X157438571Y-92145000D03*
D11*
%TO.P,PC_4,2*%
%TO.N,Net-(D4-Pad2)*%
X154898571Y-92145000D03*
%TD*%
D10*
%TO.P,PC_5,1*%
%TO.N,GND*%
X151995714Y-92145000D03*
D11*
%TO.P,PC_5,2*%
%TO.N,Net-(D5-Pad2)*%
X149455714Y-92145000D03*
%TD*%
%TO.P,PC_6,2*%
%TO.N,Net-(D6-Pad2)*%
X144012857Y-92145000D03*
D10*
%TO.P,PC_6,1*%
%TO.N,GND*%
X146552857Y-92145000D03*
%TD*%
D11*
%TO.P,PC_7,2*%
%TO.N,Net-(D7-Pad2)*%
X138570000Y-92145000D03*
D10*
%TO.P,PC_7,1*%
%TO.N,GND*%
X141110000Y-92145000D03*
%TD*%
D12*
%TO.P,J1,1*%
%TO.N,Net-(J1-Pad1)*%
X181750000Y-96475000D03*
D13*
%TO.P,J1,2*%
%TO.N,Net-(J1-Pad2)*%
X181750000Y-99015000D03*
%TO.P,J1,3*%
%TO.N,Net-(J1-Pad3)*%
X179210000Y-96475000D03*
%TO.P,J1,4*%
%TO.N,Net-(J1-Pad4)*%
X179210000Y-99015000D03*
%TO.P,J1,5*%
%TO.N,GND*%
X176670000Y-96475000D03*
%TO.P,J1,6*%
%TO.N,Net-(J1-Pad6)*%
X176670000Y-99015000D03*
%TO.P,J1,7*%
%TO.N,GND*%
X174130000Y-96475000D03*
%TO.P,J1,8*%
%TO.N,Net-(J1-Pad8)*%
X174130000Y-99015000D03*
%TO.P,J1,9*%
%TO.N,Net-(J1-Pad9)*%
X171590000Y-96475000D03*
%TO.P,J1,10*%
%TO.N,Net-(J1-Pad10)*%
X171590000Y-99015000D03*
%TO.P,J1,11*%
%TO.N,Net-(J1-Pad11)*%
X169050000Y-96475000D03*
%TO.P,J1,12*%
%TO.N,Net-(J1-Pad12)*%
X169050000Y-99015000D03*
%TO.P,J1,13*%
%TO.N,Net-(J1-Pad13)*%
X166510000Y-96475000D03*
%TO.P,J1,14*%
%TO.N,Net-(J1-Pad14)*%
X166510000Y-99015000D03*
%TO.P,J1,15*%
%TO.N,Net-(J1-Pad15)*%
X163970000Y-96475000D03*
%TO.P,J1,16*%
%TO.N,Net-(J1-Pad16)*%
X163970000Y-99015000D03*
%TO.P,J1,17*%
%TO.N,Net-(J1-Pad17)*%
X161430000Y-96475000D03*
%TO.P,J1,18*%
%TO.N,Net-(J1-Pad18)*%
X161430000Y-99015000D03*
%TO.P,J1,19*%
%TO.N,GPIO_PC0*%
X158890000Y-96475000D03*
%TO.P,J1,20*%
%TO.N,GPIO_PC1*%
X158890000Y-99015000D03*
%TO.P,J1,21*%
%TO.N,GPIO_PC2*%
X156350000Y-96475000D03*
%TO.P,J1,22*%
%TO.N,GPIO_PC3*%
X156350000Y-99015000D03*
%TO.P,J1,23*%
%TO.N,GPIO_PC4*%
X153810000Y-96475000D03*
%TO.P,J1,24*%
%TO.N,GPIO_PC5*%
X153810000Y-99015000D03*
%TO.P,J1,25*%
%TO.N,GPIO_PC6*%
X151270000Y-96475000D03*
%TO.P,J1,26*%
%TO.N,GPIO_PC7*%
X151270000Y-99015000D03*
%TO.P,J1,27*%
%TO.N,Net-(J1-Pad27)*%
X148730000Y-96475000D03*
%TO.P,J1,28*%
%TO.N,Net-(J1-Pad28)*%
X148730000Y-99015000D03*
%TO.P,J1,29*%
%TO.N,Net-(J1-Pad29)*%
X146190000Y-96475000D03*
%TO.P,J1,30*%
%TO.N,Net-(J1-Pad30)*%
X146190000Y-99015000D03*
%TO.P,J1,31*%
%TO.N,Net-(J1-Pad31)*%
X143650000Y-96475000D03*
%TO.P,J1,32*%
%TO.N,Net-(J1-Pad32)*%
X143650000Y-99015000D03*
%TO.P,J1,33*%
%TO.N,Net-(J1-Pad33)*%
X141110000Y-96475000D03*
%TO.P,J1,34*%
%TO.N,Net-(J1-Pad34)*%
X141110000Y-99015000D03*
%TO.P,J1,35*%
%TO.N,Net-(J1-Pad35)*%
X138570000Y-96475000D03*
%TO.P,J1,36*%
%TO.N,Net-(J1-Pad36)*%
X138570000Y-99015000D03*
%TO.P,J1,37*%
%TO.N,Net-(J1-Pad37)*%
X136030000Y-96475000D03*
%TO.P,J1,38*%
%TO.N,Net-(J1-Pad38)*%
X136030000Y-99015000D03*
%TD*%
D14*
%TO.P,R0,2*%
%TO.N,Net-(D0-Pad2)*%
X179210000Y-103000000D03*
D15*
%TO.P,R0,1*%
%TO.N,GPIO_PC0*%
X171590000Y-103000000D03*
%TD*%
%TO.P,R1,1*%
%TO.N,GPIO_PC1*%
X160676666Y-103000000D03*
D14*
%TO.P,R1,2*%
%TO.N,Net-(D1-Pad2)*%
X168296666Y-103000000D03*
%TD*%
%TO.P,R2,2*%
%TO.N,Net-(D2-Pad2)*%
X157383333Y-103125000D03*
D15*
%TO.P,R2,1*%
%TO.N,GPIO_PC2*%
X149763333Y-103125000D03*
%TD*%
%TO.P,R3,1*%
%TO.N,GPIO_PC4*%
X138850000Y-103100000D03*
D14*
%TO.P,R3,2*%
%TO.N,Net-(D3-Pad2)*%
X146470000Y-103100000D03*
%TD*%
%TO.P,R4,2*%
%TO.N,Net-(D4-Pad2)*%
X179220000Y-106200000D03*
D15*
%TO.P,R4,1*%
%TO.N,GPIO_PC4*%
X171600000Y-106200000D03*
%TD*%
%TO.P,R5,1*%
%TO.N,GPIO_PC5*%
X160675000Y-106200000D03*
D14*
%TO.P,R5,2*%
%TO.N,Net-(D5-Pad2)*%
X168295000Y-106200000D03*
%TD*%
%TO.P,R6,2*%
%TO.N,Net-(D6-Pad2)*%
X150055000Y-106200000D03*
D15*
%TO.P,R6,1*%
%TO.N,GPIO_PC6*%
X157675000Y-106200000D03*
%TD*%
%TO.P,R7,1*%
%TO.N,GPIO_PC7*%
X146470000Y-106200000D03*
D14*
%TO.P,R7,2*%
%TO.N,Net-(D7-Pad2)*%
X138850000Y-106200000D03*
%TD*%
D16*
%TO.N,GPIO_PC0*%
X169164999Y-100574999D02*
X171590000Y-103000000D01*
X160065001Y-99389003D02*
X161250997Y-100574999D01*
X160065001Y-97650001D02*
X160065001Y-99389003D01*
X161250997Y-100574999D02*
X169164999Y-100574999D01*
X158890000Y-96475000D02*
X160065001Y-97650001D01*
%TO.N,GPIO_PC4*%
X157550019Y-101475019D02*
X155850019Y-101475019D01*
X163400001Y-107325001D02*
X157550019Y-101475019D01*
X170474999Y-107325001D02*
X163400001Y-107325001D01*
X171600000Y-106200000D02*
X170474999Y-107325001D01*
X154985001Y-100610001D02*
X155100000Y-100725000D01*
X153810000Y-96475000D02*
X154985001Y-97650001D01*
X154985001Y-97650001D02*
X154985001Y-100610001D01*
X155850019Y-101475019D02*
X155100000Y-100725000D01*
%TO.N,GPIO_PC5*%
X153810000Y-101216669D02*
X153810000Y-99015000D01*
X156843332Y-104250001D02*
X153810000Y-101216669D01*
X158725001Y-104250001D02*
X156843332Y-104250001D01*
X160675000Y-106200000D02*
X158725001Y-104250001D01*
%TO.N,GPIO_PC6*%
X152445001Y-97650001D02*
X151270000Y-96475000D01*
X152445001Y-100970001D02*
X152445001Y-97650001D01*
X157675000Y-106200000D02*
X152445001Y-100970001D01*
%TO.N,GPIO_PC7*%
X147595001Y-105074999D02*
X147595001Y-102689999D01*
X147595001Y-102689999D02*
X151270000Y-99015000D01*
X146470000Y-106200000D02*
X147595001Y-105074999D01*
%TO.N,Net-(D4-Pad2)*%
X154898571Y-92698571D02*
X154898571Y-91395000D01*
X168513991Y-94199989D02*
X156399989Y-94199989D01*
X156399989Y-94199989D02*
X154898571Y-92698571D01*
X170225001Y-95910999D02*
X168513991Y-94199989D01*
X170225001Y-99625001D02*
X170225001Y-95910999D01*
X171175000Y-100575000D02*
X170225001Y-99625001D01*
X173595000Y-100575000D02*
X171175000Y-100575000D01*
X179220000Y-106200000D02*
X173595000Y-100575000D01*
%TO.N,Net-(D5-Pad2)*%
X149455714Y-92145000D02*
X149455714Y-91395000D01*
X150020713Y-92709999D02*
X149455714Y-92145000D01*
X156450000Y-94650000D02*
X151960714Y-94650000D01*
X157714999Y-95914999D02*
X156450000Y-94650000D01*
X151960714Y-94650000D02*
X150020713Y-92709999D01*
X157714999Y-99579001D02*
X157714999Y-95914999D01*
X159161007Y-101025009D02*
X157714999Y-99579001D01*
X163120009Y-101025009D02*
X159161007Y-101025009D01*
X168295000Y-106200000D02*
X163120009Y-101025009D01*
%TO.N,Net-(D6-Pad2)*%
X142474999Y-92932858D02*
X144012857Y-91395000D01*
X145929999Y-107325001D02*
X142474999Y-103870001D01*
X142474999Y-103870001D02*
X142474999Y-92932858D01*
X148929999Y-107325001D02*
X145929999Y-107325001D01*
X150055000Y-106200000D02*
X148929999Y-107325001D01*
%TO.N,Net-(D7-Pad2)*%
X139745001Y-92570001D02*
X138570000Y-91395000D01*
X139745001Y-99389003D02*
X139745001Y-92570001D01*
X139975001Y-99619003D02*
X139745001Y-99389003D01*
X139975001Y-105074999D02*
X139975001Y-99619003D01*
X138850000Y-106200000D02*
X139975001Y-105074999D01*
%TD*%
D17*
%TO.N,GND*%
X185605000Y-89084606D02*
X185605001Y-107465393D01*
X184755394Y-108315000D01*
X135744606Y-108315000D01*
X134715000Y-107285394D01*
X134715000Y-99719893D01*
X134876525Y-99961632D01*
X135083368Y-100168475D01*
X135326589Y-100330990D01*
X135596842Y-100442932D01*
X135883740Y-100500000D01*
X136176260Y-100500000D01*
X136463158Y-100442932D01*
X136733411Y-100330990D01*
X136976632Y-100168475D01*
X137183475Y-99961632D01*
X137300000Y-99787240D01*
X137416525Y-99961632D01*
X137623368Y-100168475D01*
X137866589Y-100330990D01*
X138136842Y-100442932D01*
X138423740Y-100500000D01*
X138716260Y-100500000D01*
X139003158Y-100442932D01*
X139215002Y-100355184D01*
X139215002Y-101709491D01*
X138991335Y-101665000D01*
X138708665Y-101665000D01*
X138431426Y-101720147D01*
X138170273Y-101828320D01*
X137935241Y-101985363D01*
X137735363Y-102185241D01*
X137578320Y-102420273D01*
X137470147Y-102681426D01*
X137415000Y-102958665D01*
X137415000Y-103241335D01*
X137470147Y-103518574D01*
X137578320Y-103779727D01*
X137735363Y-104014759D01*
X137935241Y-104214637D01*
X138170273Y-104371680D01*
X138431426Y-104479853D01*
X138708665Y-104535000D01*
X138991335Y-104535000D01*
X139215001Y-104490509D01*
X139215001Y-104760197D01*
X139173886Y-104801312D01*
X138991335Y-104765000D01*
X138708665Y-104765000D01*
X138431426Y-104820147D01*
X138170273Y-104928320D01*
X137935241Y-105085363D01*
X137735363Y-105285241D01*
X137578320Y-105520273D01*
X137470147Y-105781426D01*
X137415000Y-106058665D01*
X137415000Y-106341335D01*
X137470147Y-106618574D01*
X137578320Y-106879727D01*
X137735363Y-107114759D01*
X137935241Y-107314637D01*
X138170273Y-107471680D01*
X138431426Y-107579853D01*
X138708665Y-107635000D01*
X138991335Y-107635000D01*
X139268574Y-107579853D01*
X139529727Y-107471680D01*
X139764759Y-107314637D01*
X139964637Y-107114759D01*
X140121680Y-106879727D01*
X140229853Y-106618574D01*
X140285000Y-106341335D01*
X140285000Y-106058665D01*
X140248688Y-105876114D01*
X140486005Y-105638797D01*
X140515002Y-105615000D01*
X140609975Y-105499275D01*
X140680547Y-105367246D01*
X140724004Y-105223985D01*
X140735001Y-105112332D01*
X140735001Y-105112324D01*
X140738677Y-105074999D01*
X140735001Y-105037674D01*
X140735001Y-100454501D01*
X140963740Y-100500000D01*
X141256260Y-100500000D01*
X141543158Y-100442932D01*
X141714999Y-100371753D01*
X141714999Y-103832679D01*
X141711323Y-103870001D01*
X141714999Y-103907323D01*
X141714999Y-103907333D01*
X141725996Y-104018986D01*
X141755011Y-104114637D01*
X141769453Y-104162247D01*
X141840025Y-104294277D01*
X141879870Y-104342827D01*
X141934998Y-104410002D01*
X141964002Y-104433805D01*
X145366200Y-107836004D01*
X145389998Y-107865002D01*
X145505723Y-107959975D01*
X145637752Y-108030547D01*
X145781013Y-108074004D01*
X145892666Y-108085001D01*
X145892676Y-108085001D01*
X145929999Y-108088677D01*
X145967322Y-108085001D01*
X148892677Y-108085001D01*
X148929999Y-108088677D01*
X148967321Y-108085001D01*
X148967332Y-108085001D01*
X149078985Y-108074004D01*
X149222246Y-108030547D01*
X149354275Y-107959975D01*
X149470000Y-107865002D01*
X149493803Y-107835999D01*
X149731113Y-107598688D01*
X149913665Y-107635000D01*
X150196335Y-107635000D01*
X150473574Y-107579853D01*
X150734727Y-107471680D01*
X150969759Y-107314637D01*
X151169637Y-107114759D01*
X151326680Y-106879727D01*
X151434853Y-106618574D01*
X151490000Y-106341335D01*
X151490000Y-106058665D01*
X151434853Y-105781426D01*
X151326680Y-105520273D01*
X151169637Y-105285241D01*
X150969759Y-105085363D01*
X150734727Y-104928320D01*
X150473574Y-104820147D01*
X150196335Y-104765000D01*
X149913665Y-104765000D01*
X149636426Y-104820147D01*
X149375273Y-104928320D01*
X149140241Y-105085363D01*
X148940363Y-105285241D01*
X148783320Y-105520273D01*
X148675147Y-105781426D01*
X148620000Y-106058665D01*
X148620000Y-106341335D01*
X148656312Y-106523887D01*
X148615198Y-106565001D01*
X147860509Y-106565001D01*
X147905000Y-106341335D01*
X147905000Y-106058665D01*
X147868688Y-105876114D01*
X148106005Y-105638797D01*
X148135002Y-105615000D01*
X148229975Y-105499275D01*
X148300547Y-105367246D01*
X148344004Y-105223985D01*
X148355001Y-105112332D01*
X148355001Y-105112324D01*
X148358677Y-105074999D01*
X148355001Y-105037674D01*
X148355001Y-103400402D01*
X148383480Y-103543574D01*
X148491653Y-103804727D01*
X148648696Y-104039759D01*
X148848574Y-104239637D01*
X149083606Y-104396680D01*
X149344759Y-104504853D01*
X149621998Y-104560000D01*
X149904668Y-104560000D01*
X150181907Y-104504853D01*
X150443060Y-104396680D01*
X150678092Y-104239637D01*
X150877970Y-104039759D01*
X151035013Y-103804727D01*
X151143186Y-103543574D01*
X151198333Y-103266335D01*
X151198333Y-102983665D01*
X151143186Y-102706426D01*
X151035013Y-102445273D01*
X150877970Y-102210241D01*
X150678092Y-102010363D01*
X150443060Y-101853320D01*
X150181907Y-101745147D01*
X149904668Y-101690000D01*
X149669802Y-101690000D01*
X150903593Y-100456210D01*
X151123740Y-100500000D01*
X151416260Y-100500000D01*
X151685001Y-100446544D01*
X151685001Y-100932678D01*
X151681325Y-100970001D01*
X151685001Y-101007323D01*
X151685001Y-101007333D01*
X151695998Y-101118986D01*
X151731494Y-101236002D01*
X151739455Y-101262247D01*
X151810027Y-101394277D01*
X151839793Y-101430546D01*
X151905000Y-101510002D01*
X151934004Y-101533805D01*
X156276312Y-105876114D01*
X156240000Y-106058665D01*
X156240000Y-106341335D01*
X156295147Y-106618574D01*
X156403320Y-106879727D01*
X156560363Y-107114759D01*
X156760241Y-107314637D01*
X156995273Y-107471680D01*
X157256426Y-107579853D01*
X157533665Y-107635000D01*
X157816335Y-107635000D01*
X158093574Y-107579853D01*
X158354727Y-107471680D01*
X158589759Y-107314637D01*
X158789637Y-107114759D01*
X158946680Y-106879727D01*
X159054853Y-106618574D01*
X159110000Y-106341335D01*
X159110000Y-106058665D01*
X159054853Y-105781426D01*
X158965212Y-105565014D01*
X159276312Y-105876114D01*
X159240000Y-106058665D01*
X159240000Y-106341335D01*
X159295147Y-106618574D01*
X159403320Y-106879727D01*
X159560363Y-107114759D01*
X159760241Y-107314637D01*
X159995273Y-107471680D01*
X160256426Y-107579853D01*
X160533665Y-107635000D01*
X160816335Y-107635000D01*
X161093574Y-107579853D01*
X161354727Y-107471680D01*
X161589759Y-107314637D01*
X161789637Y-107114759D01*
X161919942Y-106919744D01*
X162836202Y-107836004D01*
X162860000Y-107865002D01*
X162888998Y-107888800D01*
X162975724Y-107959975D01*
X163107754Y-108030547D01*
X163251015Y-108074004D01*
X163362668Y-108085001D01*
X163362678Y-108085001D01*
X163400001Y-108088677D01*
X163437324Y-108085001D01*
X170437677Y-108085001D01*
X170474999Y-108088677D01*
X170512321Y-108085001D01*
X170512332Y-108085001D01*
X170623985Y-108074004D01*
X170767246Y-108030547D01*
X170899275Y-107959975D01*
X171015000Y-107865002D01*
X171038803Y-107835999D01*
X171276113Y-107598688D01*
X171458665Y-107635000D01*
X171741335Y-107635000D01*
X172018574Y-107579853D01*
X172279727Y-107471680D01*
X172514759Y-107314637D01*
X172714637Y-107114759D01*
X172871680Y-106879727D01*
X172979853Y-106618574D01*
X173035000Y-106341335D01*
X173035000Y-106058665D01*
X172979853Y-105781426D01*
X172871680Y-105520273D01*
X172714637Y-105285241D01*
X172514759Y-105085363D01*
X172279727Y-104928320D01*
X172018574Y-104820147D01*
X171741335Y-104765000D01*
X171458665Y-104765000D01*
X171181426Y-104820147D01*
X170920273Y-104928320D01*
X170685241Y-105085363D01*
X170485363Y-105285241D01*
X170328320Y-105520273D01*
X170220147Y-105781426D01*
X170165000Y-106058665D01*
X170165000Y-106341335D01*
X170201312Y-106523887D01*
X170160198Y-106565001D01*
X169685509Y-106565001D01*
X169730000Y-106341335D01*
X169730000Y-106058665D01*
X169674853Y-105781426D01*
X169566680Y-105520273D01*
X169409637Y-105285241D01*
X169209759Y-105085363D01*
X168974727Y-104928320D01*
X168713574Y-104820147D01*
X168436335Y-104765000D01*
X168153665Y-104765000D01*
X167971115Y-104801312D01*
X166028467Y-102858665D01*
X166861666Y-102858665D01*
X166861666Y-103141335D01*
X166916813Y-103418574D01*
X167024986Y-103679727D01*
X167182029Y-103914759D01*
X167381907Y-104114637D01*
X167616939Y-104271680D01*
X167878092Y-104379853D01*
X168155331Y-104435000D01*
X168438001Y-104435000D01*
X168715240Y-104379853D01*
X168976393Y-104271680D01*
X169211425Y-104114637D01*
X169411303Y-103914759D01*
X169568346Y-103679727D01*
X169676519Y-103418574D01*
X169731666Y-103141335D01*
X169731666Y-102858665D01*
X169676519Y-102581426D01*
X169568346Y-102320273D01*
X169411303Y-102085241D01*
X169211425Y-101885363D01*
X168976393Y-101728320D01*
X168715240Y-101620147D01*
X168438001Y-101565000D01*
X168155331Y-101565000D01*
X167878092Y-101620147D01*
X167616939Y-101728320D01*
X167381907Y-101885363D01*
X167182029Y-102085241D01*
X167024986Y-102320273D01*
X166916813Y-102581426D01*
X166861666Y-102858665D01*
X166028467Y-102858665D01*
X164504800Y-101334999D01*
X168850198Y-101334999D01*
X170191312Y-102676114D01*
X170155000Y-102858665D01*
X170155000Y-103141335D01*
X170210147Y-103418574D01*
X170318320Y-103679727D01*
X170475363Y-103914759D01*
X170675241Y-104114637D01*
X170910273Y-104271680D01*
X171171426Y-104379853D01*
X171448665Y-104435000D01*
X171731335Y-104435000D01*
X172008574Y-104379853D01*
X172269727Y-104271680D01*
X172504759Y-104114637D01*
X172704637Y-103914759D01*
X172861680Y-103679727D01*
X172969853Y-103418574D01*
X173025000Y-103141335D01*
X173025000Y-102858665D01*
X172969853Y-102581426D01*
X172861680Y-102320273D01*
X172704637Y-102085241D01*
X172504759Y-101885363D01*
X172269727Y-101728320D01*
X172008574Y-101620147D01*
X171731335Y-101565000D01*
X171448665Y-101565000D01*
X171266114Y-101601312D01*
X170972603Y-101307801D01*
X171026014Y-101324003D01*
X171137667Y-101335000D01*
X171137676Y-101335000D01*
X171174999Y-101338676D01*
X171212322Y-101335000D01*
X173280199Y-101335000D01*
X177821312Y-105876114D01*
X177785000Y-106058665D01*
X177785000Y-106341335D01*
X177840147Y-106618574D01*
X177948320Y-106879727D01*
X178105363Y-107114759D01*
X178305241Y-107314637D01*
X178540273Y-107471680D01*
X178801426Y-107579853D01*
X179078665Y-107635000D01*
X179361335Y-107635000D01*
X179638574Y-107579853D01*
X179899727Y-107471680D01*
X180134759Y-107314637D01*
X180334637Y-107114759D01*
X180491680Y-106879727D01*
X180599853Y-106618574D01*
X180655000Y-106341335D01*
X180655000Y-106058665D01*
X180599853Y-105781426D01*
X180491680Y-105520273D01*
X180334637Y-105285241D01*
X180134759Y-105085363D01*
X179899727Y-104928320D01*
X179638574Y-104820147D01*
X179361335Y-104765000D01*
X179078665Y-104765000D01*
X178896114Y-104801312D01*
X176953467Y-102858665D01*
X177775000Y-102858665D01*
X177775000Y-103141335D01*
X177830147Y-103418574D01*
X177938320Y-103679727D01*
X178095363Y-103914759D01*
X178295241Y-104114637D01*
X178530273Y-104271680D01*
X178791426Y-104379853D01*
X179068665Y-104435000D01*
X179351335Y-104435000D01*
X179628574Y-104379853D01*
X179889727Y-104271680D01*
X180124759Y-104114637D01*
X180324637Y-103914759D01*
X180481680Y-103679727D01*
X180589853Y-103418574D01*
X180645000Y-103141335D01*
X180645000Y-102858665D01*
X180589853Y-102581426D01*
X180481680Y-102320273D01*
X180324637Y-102085241D01*
X180124759Y-101885363D01*
X179889727Y-101728320D01*
X179628574Y-101620147D01*
X179351335Y-101565000D01*
X179068665Y-101565000D01*
X178791426Y-101620147D01*
X178530273Y-101728320D01*
X178295241Y-101885363D01*
X178095363Y-102085241D01*
X177938320Y-102320273D01*
X177830147Y-102581426D01*
X177775000Y-102858665D01*
X176953467Y-102858665D01*
X174541951Y-100447150D01*
X174563158Y-100442932D01*
X174833411Y-100330990D01*
X175076632Y-100168475D01*
X175283475Y-99961632D01*
X175400000Y-99787240D01*
X175516525Y-99961632D01*
X175723368Y-100168475D01*
X175966589Y-100330990D01*
X176236842Y-100442932D01*
X176523740Y-100500000D01*
X176816260Y-100500000D01*
X177103158Y-100442932D01*
X177373411Y-100330990D01*
X177616632Y-100168475D01*
X177823475Y-99961632D01*
X177940000Y-99787240D01*
X178056525Y-99961632D01*
X178263368Y-100168475D01*
X178506589Y-100330990D01*
X178776842Y-100442932D01*
X179063740Y-100500000D01*
X179356260Y-100500000D01*
X179643158Y-100442932D01*
X179913411Y-100330990D01*
X180156632Y-100168475D01*
X180363475Y-99961632D01*
X180480000Y-99787240D01*
X180596525Y-99961632D01*
X180803368Y-100168475D01*
X181046589Y-100330990D01*
X181316842Y-100442932D01*
X181603740Y-100500000D01*
X181896260Y-100500000D01*
X182183158Y-100442932D01*
X182453411Y-100330990D01*
X182696632Y-100168475D01*
X182903475Y-99961632D01*
X183065990Y-99718411D01*
X183177932Y-99448158D01*
X183235000Y-99161260D01*
X183235000Y-98868740D01*
X183177932Y-98581842D01*
X183065990Y-98311589D01*
X182903475Y-98068368D01*
X182771620Y-97936513D01*
X182844180Y-97914502D01*
X182954494Y-97855537D01*
X183051185Y-97776185D01*
X183130537Y-97679494D01*
X183189502Y-97569180D01*
X183225812Y-97449482D01*
X183238072Y-97325000D01*
X183238072Y-95625000D01*
X183225812Y-95500518D01*
X183189502Y-95380820D01*
X183130537Y-95270506D01*
X183051185Y-95173815D01*
X182954494Y-95094463D01*
X182844180Y-95035498D01*
X182724482Y-94999188D01*
X182600000Y-94986928D01*
X180900000Y-94986928D01*
X180775518Y-94999188D01*
X180655820Y-95035498D01*
X180545506Y-95094463D01*
X180448815Y-95173815D01*
X180369463Y-95270506D01*
X180310498Y-95380820D01*
X180288487Y-95453380D01*
X180156632Y-95321525D01*
X179913411Y-95159010D01*
X179643158Y-95047068D01*
X179356260Y-94990000D01*
X179063740Y-94990000D01*
X178776842Y-95047068D01*
X178506589Y-95159010D01*
X178263368Y-95321525D01*
X178056525Y-95528368D01*
X177934805Y-95710534D01*
X177865178Y-95593645D01*
X177670269Y-95377412D01*
X177436920Y-95203359D01*
X177174099Y-95078175D01*
X177026890Y-95033524D01*
X176797000Y-95154845D01*
X176797000Y-96348000D01*
X176817000Y-96348000D01*
X176817000Y-96602000D01*
X176797000Y-96602000D01*
X176797000Y-96622000D01*
X176543000Y-96622000D01*
X176543000Y-96602000D01*
X174257000Y-96602000D01*
X174257000Y-96622000D01*
X174003000Y-96622000D01*
X174003000Y-96602000D01*
X173983000Y-96602000D01*
X173983000Y-96348000D01*
X174003000Y-96348000D01*
X174003000Y-95154845D01*
X174257000Y-95154845D01*
X174257000Y-96348000D01*
X176543000Y-96348000D01*
X176543000Y-95154845D01*
X176313110Y-95033524D01*
X176165901Y-95078175D01*
X175903080Y-95203359D01*
X175669731Y-95377412D01*
X175474822Y-95593645D01*
X175400000Y-95719255D01*
X175325178Y-95593645D01*
X175130269Y-95377412D01*
X174896920Y-95203359D01*
X174634099Y-95078175D01*
X174486890Y-95033524D01*
X174257000Y-95154845D01*
X174003000Y-95154845D01*
X173773110Y-95033524D01*
X173625901Y-95078175D01*
X173363080Y-95203359D01*
X173129731Y-95377412D01*
X172934822Y-95593645D01*
X172865195Y-95710534D01*
X172743475Y-95528368D01*
X172536632Y-95321525D01*
X172293411Y-95159010D01*
X172023158Y-95047068D01*
X171736260Y-94990000D01*
X171443740Y-94990000D01*
X171156842Y-95047068D01*
X170886589Y-95159010D01*
X170683508Y-95294704D01*
X169077795Y-93688992D01*
X169072313Y-93682312D01*
X169224285Y-93683072D01*
X169348767Y-93670812D01*
X169468465Y-93634502D01*
X169578779Y-93575537D01*
X169675470Y-93496185D01*
X169754822Y-93399494D01*
X169813787Y-93289180D01*
X169850097Y-93169482D01*
X169862357Y-93045000D01*
X169861427Y-92859019D01*
X169866843Y-92872095D01*
X170034830Y-93123505D01*
X170248637Y-93337312D01*
X170500047Y-93505299D01*
X170779399Y-93621011D01*
X171075958Y-93680000D01*
X171378326Y-93680000D01*
X171674885Y-93621011D01*
X171954237Y-93505299D01*
X172205647Y-93337312D01*
X172272086Y-93270873D01*
X172277640Y-93289180D01*
X172336605Y-93399494D01*
X172415957Y-93496185D01*
X172512648Y-93575537D01*
X172622962Y-93634502D01*
X172742660Y-93670812D01*
X172867142Y-93683072D01*
X173481392Y-93680000D01*
X173640142Y-93521250D01*
X173640142Y-92272000D01*
X173620142Y-92272000D01*
X173620142Y-92018000D01*
X173640142Y-92018000D01*
X173640142Y-90768750D01*
X173894142Y-90768750D01*
X173894142Y-92018000D01*
X173914142Y-92018000D01*
X173914142Y-92272000D01*
X173894142Y-92272000D01*
X173894142Y-93521250D01*
X174052892Y-93680000D01*
X174667142Y-93683072D01*
X174791624Y-93670812D01*
X174911322Y-93634502D01*
X175021636Y-93575537D01*
X175118327Y-93496185D01*
X175197679Y-93399494D01*
X175256644Y-93289180D01*
X175292954Y-93169482D01*
X175305214Y-93045000D01*
X175304284Y-92859017D01*
X175309701Y-92872095D01*
X175477688Y-93123505D01*
X175691495Y-93337312D01*
X175942905Y-93505299D01*
X176222257Y-93621011D01*
X176518816Y-93680000D01*
X176821184Y-93680000D01*
X177117743Y-93621011D01*
X177397095Y-93505299D01*
X177648505Y-93337312D01*
X177714944Y-93270873D01*
X177720498Y-93289180D01*
X177779463Y-93399494D01*
X177858815Y-93496185D01*
X177955506Y-93575537D01*
X178065820Y-93634502D01*
X178185518Y-93670812D01*
X178310000Y-93683072D01*
X178924250Y-93680000D01*
X179083000Y-93521250D01*
X179083000Y-92272000D01*
X179337000Y-92272000D01*
X179337000Y-93521250D01*
X179495750Y-93680000D01*
X180110000Y-93683072D01*
X180234482Y-93670812D01*
X180354180Y-93634502D01*
X180464494Y-93575537D01*
X180561185Y-93496185D01*
X180640537Y-93399494D01*
X180699502Y-93289180D01*
X180735812Y-93169482D01*
X180748072Y-93045000D01*
X180745000Y-92430750D01*
X180586250Y-92272000D01*
X179337000Y-92272000D01*
X179083000Y-92272000D01*
X179063000Y-92272000D01*
X179063000Y-92018000D01*
X179083000Y-92018000D01*
X179083000Y-90768750D01*
X179337000Y-90768750D01*
X179337000Y-92018000D01*
X180586250Y-92018000D01*
X180745000Y-91859250D01*
X180748072Y-91245000D01*
X180735812Y-91120518D01*
X180699502Y-91000820D01*
X180640537Y-90890506D01*
X180561185Y-90793815D01*
X180464494Y-90714463D01*
X180354180Y-90655498D01*
X180234482Y-90619188D01*
X180110000Y-90606928D01*
X179495750Y-90610000D01*
X179337000Y-90768750D01*
X179083000Y-90768750D01*
X178924250Y-90610000D01*
X178310000Y-90606928D01*
X178185518Y-90619188D01*
X178065820Y-90655498D01*
X177955506Y-90714463D01*
X177858815Y-90793815D01*
X177779463Y-90890506D01*
X177720498Y-91000820D01*
X177714944Y-91019127D01*
X177648505Y-90952688D01*
X177397095Y-90784701D01*
X177117743Y-90668989D01*
X176821184Y-90610000D01*
X176518816Y-90610000D01*
X176222257Y-90668989D01*
X175942905Y-90784701D01*
X175691495Y-90952688D01*
X175477688Y-91166495D01*
X175309701Y-91417905D01*
X175304284Y-91430983D01*
X175305214Y-91245000D01*
X175292954Y-91120518D01*
X175256644Y-91000820D01*
X175197679Y-90890506D01*
X175118327Y-90793815D01*
X175021636Y-90714463D01*
X174911322Y-90655498D01*
X174791624Y-90619188D01*
X174667142Y-90606928D01*
X174052892Y-90610000D01*
X173894142Y-90768750D01*
X173640142Y-90768750D01*
X173481392Y-90610000D01*
X172867142Y-90606928D01*
X172742660Y-90619188D01*
X172622962Y-90655498D01*
X172512648Y-90714463D01*
X172415957Y-90793815D01*
X172336605Y-90890506D01*
X172277640Y-91000820D01*
X172272086Y-91019127D01*
X172205647Y-90952688D01*
X171954237Y-90784701D01*
X171674885Y-90668989D01*
X171378326Y-90610000D01*
X171075958Y-90610000D01*
X170779399Y-90668989D01*
X170500047Y-90784701D01*
X170248637Y-90952688D01*
X170034830Y-91166495D01*
X169866843Y-91417905D01*
X169861427Y-91430981D01*
X169862357Y-91245000D01*
X169850097Y-91120518D01*
X169813787Y-91000820D01*
X169754822Y-90890506D01*
X169675470Y-90793815D01*
X169578779Y-90714463D01*
X169468465Y-90655498D01*
X169348767Y-90619188D01*
X169224285Y-90606928D01*
X168610035Y-90610000D01*
X168451285Y-90768750D01*
X168451285Y-92018000D01*
X168471285Y-92018000D01*
X168471285Y-92272000D01*
X168451285Y-92272000D01*
X168451285Y-92292000D01*
X168197285Y-92292000D01*
X168197285Y-92272000D01*
X168177285Y-92272000D01*
X168177285Y-92018000D01*
X168197285Y-92018000D01*
X168197285Y-90768750D01*
X168038535Y-90610000D01*
X167424285Y-90606928D01*
X167299803Y-90619188D01*
X167180105Y-90655498D01*
X167069791Y-90714463D01*
X166973100Y-90793815D01*
X166893748Y-90890506D01*
X166834783Y-91000820D01*
X166829229Y-91019127D01*
X166762790Y-90952688D01*
X166511380Y-90784701D01*
X166232028Y-90668989D01*
X165935469Y-90610000D01*
X165633101Y-90610000D01*
X165336542Y-90668989D01*
X165057190Y-90784701D01*
X164805780Y-90952688D01*
X164591973Y-91166495D01*
X164423986Y-91417905D01*
X164418570Y-91430981D01*
X164419500Y-91245000D01*
X164407240Y-91120518D01*
X164370930Y-91000820D01*
X164311965Y-90890506D01*
X164232613Y-90793815D01*
X164135922Y-90714463D01*
X164025608Y-90655498D01*
X163905910Y-90619188D01*
X163781428Y-90606928D01*
X163167178Y-90610000D01*
X163008428Y-90768750D01*
X163008428Y-92018000D01*
X163028428Y-92018000D01*
X163028428Y-92272000D01*
X163008428Y-92272000D01*
X163008428Y-92292000D01*
X162754428Y-92292000D01*
X162754428Y-92272000D01*
X162734428Y-92272000D01*
X162734428Y-92018000D01*
X162754428Y-92018000D01*
X162754428Y-90768750D01*
X162595678Y-90610000D01*
X161981428Y-90606928D01*
X161856946Y-90619188D01*
X161737248Y-90655498D01*
X161626934Y-90714463D01*
X161530243Y-90793815D01*
X161450891Y-90890506D01*
X161391926Y-91000820D01*
X161386372Y-91019127D01*
X161319933Y-90952688D01*
X161068523Y-90784701D01*
X160789171Y-90668989D01*
X160492612Y-90610000D01*
X160190244Y-90610000D01*
X159893685Y-90668989D01*
X159614333Y-90784701D01*
X159362923Y-90952688D01*
X159149116Y-91166495D01*
X158981129Y-91417905D01*
X158975713Y-91430981D01*
X158976643Y-91245000D01*
X158964383Y-91120518D01*
X158928073Y-91000820D01*
X158869108Y-90890506D01*
X158789756Y-90793815D01*
X158693065Y-90714463D01*
X158582751Y-90655498D01*
X158463053Y-90619188D01*
X158338571Y-90606928D01*
X157724321Y-90610000D01*
X157565571Y-90768750D01*
X157565571Y-92018000D01*
X157585571Y-92018000D01*
X157585571Y-92272000D01*
X157565571Y-92272000D01*
X157565571Y-92292000D01*
X157311571Y-92292000D01*
X157311571Y-92272000D01*
X157291571Y-92272000D01*
X157291571Y-92018000D01*
X157311571Y-92018000D01*
X157311571Y-90768750D01*
X157152821Y-90610000D01*
X156538571Y-90606928D01*
X156414089Y-90619188D01*
X156294391Y-90655498D01*
X156184077Y-90714463D01*
X156087386Y-90793815D01*
X156008034Y-90890506D01*
X155949069Y-91000820D01*
X155943515Y-91019127D01*
X155877076Y-90952688D01*
X155625666Y-90784701D01*
X155346314Y-90668989D01*
X155049755Y-90610000D01*
X154747387Y-90610000D01*
X154450828Y-90668989D01*
X154171476Y-90784701D01*
X153920066Y-90952688D01*
X153706259Y-91166495D01*
X153538272Y-91417905D01*
X153532856Y-91430981D01*
X153533786Y-91245000D01*
X153521526Y-91120518D01*
X153485216Y-91000820D01*
X153426251Y-90890506D01*
X153346899Y-90793815D01*
X153250208Y-90714463D01*
X153139894Y-90655498D01*
X153020196Y-90619188D01*
X152895714Y-90606928D01*
X152281464Y-90610000D01*
X152122714Y-90768750D01*
X152122714Y-92018000D01*
X152142714Y-92018000D01*
X152142714Y-92272000D01*
X152122714Y-92272000D01*
X152122714Y-92292000D01*
X151868714Y-92292000D01*
X151868714Y-92272000D01*
X151848714Y-92272000D01*
X151848714Y-92018000D01*
X151868714Y-92018000D01*
X151868714Y-90768750D01*
X151709964Y-90610000D01*
X151095714Y-90606928D01*
X150971232Y-90619188D01*
X150851534Y-90655498D01*
X150741220Y-90714463D01*
X150644529Y-90793815D01*
X150565177Y-90890506D01*
X150506212Y-91000820D01*
X150500658Y-91019127D01*
X150434219Y-90952688D01*
X150182809Y-90784701D01*
X149903457Y-90668989D01*
X149606898Y-90610000D01*
X149304530Y-90610000D01*
X149007971Y-90668989D01*
X148728619Y-90784701D01*
X148477209Y-90952688D01*
X148263402Y-91166495D01*
X148095415Y-91417905D01*
X148089999Y-91430981D01*
X148090929Y-91245000D01*
X148078669Y-91120518D01*
X148042359Y-91000820D01*
X147983394Y-90890506D01*
X147904042Y-90793815D01*
X147807351Y-90714463D01*
X147697037Y-90655498D01*
X147577339Y-90619188D01*
X147452857Y-90606928D01*
X146838607Y-90610000D01*
X146679857Y-90768750D01*
X146679857Y-92018000D01*
X146699857Y-92018000D01*
X146699857Y-92272000D01*
X146679857Y-92272000D01*
X146679857Y-93521250D01*
X146838607Y-93680000D01*
X147452857Y-93683072D01*
X147577339Y-93670812D01*
X147697037Y-93634502D01*
X147807351Y-93575537D01*
X147904042Y-93496185D01*
X147983394Y-93399494D01*
X148042359Y-93289180D01*
X148078669Y-93169482D01*
X148090929Y-93045000D01*
X148089999Y-92859019D01*
X148095415Y-92872095D01*
X148263402Y-93123505D01*
X148477209Y-93337312D01*
X148728619Y-93505299D01*
X149007971Y-93621011D01*
X149304530Y-93680000D01*
X149606898Y-93680000D01*
X149864644Y-93628731D01*
X151225912Y-94990000D01*
X151123740Y-94990000D01*
X150836842Y-95047068D01*
X150566589Y-95159010D01*
X150323368Y-95321525D01*
X150116525Y-95528368D01*
X150000000Y-95702760D01*
X149883475Y-95528368D01*
X149676632Y-95321525D01*
X149433411Y-95159010D01*
X149163158Y-95047068D01*
X148876260Y-94990000D01*
X148583740Y-94990000D01*
X148296842Y-95047068D01*
X148026589Y-95159010D01*
X147783368Y-95321525D01*
X147576525Y-95528368D01*
X147460000Y-95702760D01*
X147343475Y-95528368D01*
X147136632Y-95321525D01*
X146893411Y-95159010D01*
X146623158Y-95047068D01*
X146336260Y-94990000D01*
X146043740Y-94990000D01*
X145756842Y-95047068D01*
X145486589Y-95159010D01*
X145243368Y-95321525D01*
X145036525Y-95528368D01*
X144920000Y-95702760D01*
X144803475Y-95528368D01*
X144596632Y-95321525D01*
X144353411Y-95159010D01*
X144083158Y-95047068D01*
X143796260Y-94990000D01*
X143503740Y-94990000D01*
X143234999Y-95043456D01*
X143234999Y-93471380D01*
X143285762Y-93505299D01*
X143565114Y-93621011D01*
X143861673Y-93680000D01*
X144164041Y-93680000D01*
X144460600Y-93621011D01*
X144739952Y-93505299D01*
X144991362Y-93337312D01*
X145057801Y-93270873D01*
X145063355Y-93289180D01*
X145122320Y-93399494D01*
X145201672Y-93496185D01*
X145298363Y-93575537D01*
X145408677Y-93634502D01*
X145528375Y-93670812D01*
X145652857Y-93683072D01*
X146267107Y-93680000D01*
X146425857Y-93521250D01*
X146425857Y-92272000D01*
X146405857Y-92272000D01*
X146405857Y-92018000D01*
X146425857Y-92018000D01*
X146425857Y-90768750D01*
X146267107Y-90610000D01*
X145652857Y-90606928D01*
X145528375Y-90619188D01*
X145408677Y-90655498D01*
X145298363Y-90714463D01*
X145201672Y-90793815D01*
X145122320Y-90890506D01*
X145063355Y-91000820D01*
X145057801Y-91019127D01*
X144991362Y-90952688D01*
X144739952Y-90784701D01*
X144460600Y-90668989D01*
X144164041Y-90610000D01*
X143861673Y-90610000D01*
X143565114Y-90668989D01*
X143285762Y-90784701D01*
X143034352Y-90952688D01*
X142820545Y-91166495D01*
X142652558Y-91417905D01*
X142647142Y-91430981D01*
X142648072Y-91245000D01*
X142635812Y-91120518D01*
X142599502Y-91000820D01*
X142540537Y-90890506D01*
X142461185Y-90793815D01*
X142364494Y-90714463D01*
X142254180Y-90655498D01*
X142134482Y-90619188D01*
X142010000Y-90606928D01*
X141395750Y-90610000D01*
X141237000Y-90768750D01*
X141237000Y-92018000D01*
X141257000Y-92018000D01*
X141257000Y-92272000D01*
X141237000Y-92272000D01*
X141237000Y-93521250D01*
X141395750Y-93680000D01*
X141715000Y-93681597D01*
X141715000Y-95118247D01*
X141543158Y-95047068D01*
X141256260Y-94990000D01*
X140963740Y-94990000D01*
X140676842Y-95047068D01*
X140505001Y-95118247D01*
X140505001Y-93681597D01*
X140824250Y-93680000D01*
X140983000Y-93521250D01*
X140983000Y-92272000D01*
X140963000Y-92272000D01*
X140963000Y-92018000D01*
X140983000Y-92018000D01*
X140983000Y-90768750D01*
X140824250Y-90610000D01*
X140210000Y-90606928D01*
X140085518Y-90619188D01*
X139965820Y-90655498D01*
X139855506Y-90714463D01*
X139758815Y-90793815D01*
X139679463Y-90890506D01*
X139620498Y-91000820D01*
X139614944Y-91019127D01*
X139548505Y-90952688D01*
X139297095Y-90784701D01*
X139017743Y-90668989D01*
X138721184Y-90610000D01*
X138418816Y-90610000D01*
X138122257Y-90668989D01*
X137842905Y-90784701D01*
X137591495Y-90952688D01*
X137377688Y-91166495D01*
X137209701Y-91417905D01*
X137093989Y-91697257D01*
X137035000Y-91993816D01*
X137035000Y-92296184D01*
X137093989Y-92592743D01*
X137209701Y-92872095D01*
X137377688Y-93123505D01*
X137591495Y-93337312D01*
X137842905Y-93505299D01*
X138122257Y-93621011D01*
X138418816Y-93680000D01*
X138721184Y-93680000D01*
X138985002Y-93627524D01*
X138985002Y-95043456D01*
X138716260Y-94990000D01*
X138423740Y-94990000D01*
X138136842Y-95047068D01*
X137866589Y-95159010D01*
X137623368Y-95321525D01*
X137416525Y-95528368D01*
X137300000Y-95702760D01*
X137183475Y-95528368D01*
X136976632Y-95321525D01*
X136733411Y-95159010D01*
X136463158Y-95047068D01*
X136176260Y-94990000D01*
X135883740Y-94990000D01*
X135596842Y-95047068D01*
X135326589Y-95159010D01*
X135083368Y-95321525D01*
X134876525Y-95528368D01*
X134715000Y-95770107D01*
X134715000Y-88185000D01*
X184705394Y-88185000D01*
X185605000Y-89084606D01*
%TA.AperFunction,Conductor*%
D18*
G36*
X185605000Y-89084606D02*
G01*
X185605001Y-107465393D01*
X184755394Y-108315000D01*
X135744606Y-108315000D01*
X134715000Y-107285394D01*
X134715000Y-99719893D01*
X134876525Y-99961632D01*
X135083368Y-100168475D01*
X135326589Y-100330990D01*
X135596842Y-100442932D01*
X135883740Y-100500000D01*
X136176260Y-100500000D01*
X136463158Y-100442932D01*
X136733411Y-100330990D01*
X136976632Y-100168475D01*
X137183475Y-99961632D01*
X137300000Y-99787240D01*
X137416525Y-99961632D01*
X137623368Y-100168475D01*
X137866589Y-100330990D01*
X138136842Y-100442932D01*
X138423740Y-100500000D01*
X138716260Y-100500000D01*
X139003158Y-100442932D01*
X139215002Y-100355184D01*
X139215002Y-101709491D01*
X138991335Y-101665000D01*
X138708665Y-101665000D01*
X138431426Y-101720147D01*
X138170273Y-101828320D01*
X137935241Y-101985363D01*
X137735363Y-102185241D01*
X137578320Y-102420273D01*
X137470147Y-102681426D01*
X137415000Y-102958665D01*
X137415000Y-103241335D01*
X137470147Y-103518574D01*
X137578320Y-103779727D01*
X137735363Y-104014759D01*
X137935241Y-104214637D01*
X138170273Y-104371680D01*
X138431426Y-104479853D01*
X138708665Y-104535000D01*
X138991335Y-104535000D01*
X139215001Y-104490509D01*
X139215001Y-104760197D01*
X139173886Y-104801312D01*
X138991335Y-104765000D01*
X138708665Y-104765000D01*
X138431426Y-104820147D01*
X138170273Y-104928320D01*
X137935241Y-105085363D01*
X137735363Y-105285241D01*
X137578320Y-105520273D01*
X137470147Y-105781426D01*
X137415000Y-106058665D01*
X137415000Y-106341335D01*
X137470147Y-106618574D01*
X137578320Y-106879727D01*
X137735363Y-107114759D01*
X137935241Y-107314637D01*
X138170273Y-107471680D01*
X138431426Y-107579853D01*
X138708665Y-107635000D01*
X138991335Y-107635000D01*
X139268574Y-107579853D01*
X139529727Y-107471680D01*
X139764759Y-107314637D01*
X139964637Y-107114759D01*
X140121680Y-106879727D01*
X140229853Y-106618574D01*
X140285000Y-106341335D01*
X140285000Y-106058665D01*
X140248688Y-105876114D01*
X140486005Y-105638797D01*
X140515002Y-105615000D01*
X140609975Y-105499275D01*
X140680547Y-105367246D01*
X140724004Y-105223985D01*
X140735001Y-105112332D01*
X140735001Y-105112324D01*
X140738677Y-105074999D01*
X140735001Y-105037674D01*
X140735001Y-100454501D01*
X140963740Y-100500000D01*
X141256260Y-100500000D01*
X141543158Y-100442932D01*
X141714999Y-100371753D01*
X141714999Y-103832679D01*
X141711323Y-103870001D01*
X141714999Y-103907323D01*
X141714999Y-103907333D01*
X141725996Y-104018986D01*
X141755011Y-104114637D01*
X141769453Y-104162247D01*
X141840025Y-104294277D01*
X141879870Y-104342827D01*
X141934998Y-104410002D01*
X141964002Y-104433805D01*
X145366200Y-107836004D01*
X145389998Y-107865002D01*
X145505723Y-107959975D01*
X145637752Y-108030547D01*
X145781013Y-108074004D01*
X145892666Y-108085001D01*
X145892676Y-108085001D01*
X145929999Y-108088677D01*
X145967322Y-108085001D01*
X148892677Y-108085001D01*
X148929999Y-108088677D01*
X148967321Y-108085001D01*
X148967332Y-108085001D01*
X149078985Y-108074004D01*
X149222246Y-108030547D01*
X149354275Y-107959975D01*
X149470000Y-107865002D01*
X149493803Y-107835999D01*
X149731113Y-107598688D01*
X149913665Y-107635000D01*
X150196335Y-107635000D01*
X150473574Y-107579853D01*
X150734727Y-107471680D01*
X150969759Y-107314637D01*
X151169637Y-107114759D01*
X151326680Y-106879727D01*
X151434853Y-106618574D01*
X151490000Y-106341335D01*
X151490000Y-106058665D01*
X151434853Y-105781426D01*
X151326680Y-105520273D01*
X151169637Y-105285241D01*
X150969759Y-105085363D01*
X150734727Y-104928320D01*
X150473574Y-104820147D01*
X150196335Y-104765000D01*
X149913665Y-104765000D01*
X149636426Y-104820147D01*
X149375273Y-104928320D01*
X149140241Y-105085363D01*
X148940363Y-105285241D01*
X148783320Y-105520273D01*
X148675147Y-105781426D01*
X148620000Y-106058665D01*
X148620000Y-106341335D01*
X148656312Y-106523887D01*
X148615198Y-106565001D01*
X147860509Y-106565001D01*
X147905000Y-106341335D01*
X147905000Y-106058665D01*
X147868688Y-105876114D01*
X148106005Y-105638797D01*
X148135002Y-105615000D01*
X148229975Y-105499275D01*
X148300547Y-105367246D01*
X148344004Y-105223985D01*
X148355001Y-105112332D01*
X148355001Y-105112324D01*
X148358677Y-105074999D01*
X148355001Y-105037674D01*
X148355001Y-103400402D01*
X148383480Y-103543574D01*
X148491653Y-103804727D01*
X148648696Y-104039759D01*
X148848574Y-104239637D01*
X149083606Y-104396680D01*
X149344759Y-104504853D01*
X149621998Y-104560000D01*
X149904668Y-104560000D01*
X150181907Y-104504853D01*
X150443060Y-104396680D01*
X150678092Y-104239637D01*
X150877970Y-104039759D01*
X151035013Y-103804727D01*
X151143186Y-103543574D01*
X151198333Y-103266335D01*
X151198333Y-102983665D01*
X151143186Y-102706426D01*
X151035013Y-102445273D01*
X150877970Y-102210241D01*
X150678092Y-102010363D01*
X150443060Y-101853320D01*
X150181907Y-101745147D01*
X149904668Y-101690000D01*
X149669802Y-101690000D01*
X150903593Y-100456210D01*
X151123740Y-100500000D01*
X151416260Y-100500000D01*
X151685001Y-100446544D01*
X151685001Y-100932678D01*
X151681325Y-100970001D01*
X151685001Y-101007323D01*
X151685001Y-101007333D01*
X151695998Y-101118986D01*
X151731494Y-101236002D01*
X151739455Y-101262247D01*
X151810027Y-101394277D01*
X151839793Y-101430546D01*
X151905000Y-101510002D01*
X151934004Y-101533805D01*
X156276312Y-105876114D01*
X156240000Y-106058665D01*
X156240000Y-106341335D01*
X156295147Y-106618574D01*
X156403320Y-106879727D01*
X156560363Y-107114759D01*
X156760241Y-107314637D01*
X156995273Y-107471680D01*
X157256426Y-107579853D01*
X157533665Y-107635000D01*
X157816335Y-107635000D01*
X158093574Y-107579853D01*
X158354727Y-107471680D01*
X158589759Y-107314637D01*
X158789637Y-107114759D01*
X158946680Y-106879727D01*
X159054853Y-106618574D01*
X159110000Y-106341335D01*
X159110000Y-106058665D01*
X159054853Y-105781426D01*
X158965212Y-105565014D01*
X159276312Y-105876114D01*
X159240000Y-106058665D01*
X159240000Y-106341335D01*
X159295147Y-106618574D01*
X159403320Y-106879727D01*
X159560363Y-107114759D01*
X159760241Y-107314637D01*
X159995273Y-107471680D01*
X160256426Y-107579853D01*
X160533665Y-107635000D01*
X160816335Y-107635000D01*
X161093574Y-107579853D01*
X161354727Y-107471680D01*
X161589759Y-107314637D01*
X161789637Y-107114759D01*
X161919942Y-106919744D01*
X162836202Y-107836004D01*
X162860000Y-107865002D01*
X162888998Y-107888800D01*
X162975724Y-107959975D01*
X163107754Y-108030547D01*
X163251015Y-108074004D01*
X163362668Y-108085001D01*
X163362678Y-108085001D01*
X163400001Y-108088677D01*
X163437324Y-108085001D01*
X170437677Y-108085001D01*
X170474999Y-108088677D01*
X170512321Y-108085001D01*
X170512332Y-108085001D01*
X170623985Y-108074004D01*
X170767246Y-108030547D01*
X170899275Y-107959975D01*
X171015000Y-107865002D01*
X171038803Y-107835999D01*
X171276113Y-107598688D01*
X171458665Y-107635000D01*
X171741335Y-107635000D01*
X172018574Y-107579853D01*
X172279727Y-107471680D01*
X172514759Y-107314637D01*
X172714637Y-107114759D01*
X172871680Y-106879727D01*
X172979853Y-106618574D01*
X173035000Y-106341335D01*
X173035000Y-106058665D01*
X172979853Y-105781426D01*
X172871680Y-105520273D01*
X172714637Y-105285241D01*
X172514759Y-105085363D01*
X172279727Y-104928320D01*
X172018574Y-104820147D01*
X171741335Y-104765000D01*
X171458665Y-104765000D01*
X171181426Y-104820147D01*
X170920273Y-104928320D01*
X170685241Y-105085363D01*
X170485363Y-105285241D01*
X170328320Y-105520273D01*
X170220147Y-105781426D01*
X170165000Y-106058665D01*
X170165000Y-106341335D01*
X170201312Y-106523887D01*
X170160198Y-106565001D01*
X169685509Y-106565001D01*
X169730000Y-106341335D01*
X169730000Y-106058665D01*
X169674853Y-105781426D01*
X169566680Y-105520273D01*
X169409637Y-105285241D01*
X169209759Y-105085363D01*
X168974727Y-104928320D01*
X168713574Y-104820147D01*
X168436335Y-104765000D01*
X168153665Y-104765000D01*
X167971115Y-104801312D01*
X166028467Y-102858665D01*
X166861666Y-102858665D01*
X166861666Y-103141335D01*
X166916813Y-103418574D01*
X167024986Y-103679727D01*
X167182029Y-103914759D01*
X167381907Y-104114637D01*
X167616939Y-104271680D01*
X167878092Y-104379853D01*
X168155331Y-104435000D01*
X168438001Y-104435000D01*
X168715240Y-104379853D01*
X168976393Y-104271680D01*
X169211425Y-104114637D01*
X169411303Y-103914759D01*
X169568346Y-103679727D01*
X169676519Y-103418574D01*
X169731666Y-103141335D01*
X169731666Y-102858665D01*
X169676519Y-102581426D01*
X169568346Y-102320273D01*
X169411303Y-102085241D01*
X169211425Y-101885363D01*
X168976393Y-101728320D01*
X168715240Y-101620147D01*
X168438001Y-101565000D01*
X168155331Y-101565000D01*
X167878092Y-101620147D01*
X167616939Y-101728320D01*
X167381907Y-101885363D01*
X167182029Y-102085241D01*
X167024986Y-102320273D01*
X166916813Y-102581426D01*
X166861666Y-102858665D01*
X166028467Y-102858665D01*
X164504800Y-101334999D01*
X168850198Y-101334999D01*
X170191312Y-102676114D01*
X170155000Y-102858665D01*
X170155000Y-103141335D01*
X170210147Y-103418574D01*
X170318320Y-103679727D01*
X170475363Y-103914759D01*
X170675241Y-104114637D01*
X170910273Y-104271680D01*
X171171426Y-104379853D01*
X171448665Y-104435000D01*
X171731335Y-104435000D01*
X172008574Y-104379853D01*
X172269727Y-104271680D01*
X172504759Y-104114637D01*
X172704637Y-103914759D01*
X172861680Y-103679727D01*
X172969853Y-103418574D01*
X173025000Y-103141335D01*
X173025000Y-102858665D01*
X172969853Y-102581426D01*
X172861680Y-102320273D01*
X172704637Y-102085241D01*
X172504759Y-101885363D01*
X172269727Y-101728320D01*
X172008574Y-101620147D01*
X171731335Y-101565000D01*
X171448665Y-101565000D01*
X171266114Y-101601312D01*
X170972603Y-101307801D01*
X171026014Y-101324003D01*
X171137667Y-101335000D01*
X171137676Y-101335000D01*
X171174999Y-101338676D01*
X171212322Y-101335000D01*
X173280199Y-101335000D01*
X177821312Y-105876114D01*
X177785000Y-106058665D01*
X177785000Y-106341335D01*
X177840147Y-106618574D01*
X177948320Y-106879727D01*
X178105363Y-107114759D01*
X178305241Y-107314637D01*
X178540273Y-107471680D01*
X178801426Y-107579853D01*
X179078665Y-107635000D01*
X179361335Y-107635000D01*
X179638574Y-107579853D01*
X179899727Y-107471680D01*
X180134759Y-107314637D01*
X180334637Y-107114759D01*
X180491680Y-106879727D01*
X180599853Y-106618574D01*
X180655000Y-106341335D01*
X180655000Y-106058665D01*
X180599853Y-105781426D01*
X180491680Y-105520273D01*
X180334637Y-105285241D01*
X180134759Y-105085363D01*
X179899727Y-104928320D01*
X179638574Y-104820147D01*
X179361335Y-104765000D01*
X179078665Y-104765000D01*
X178896114Y-104801312D01*
X176953467Y-102858665D01*
X177775000Y-102858665D01*
X177775000Y-103141335D01*
X177830147Y-103418574D01*
X177938320Y-103679727D01*
X178095363Y-103914759D01*
X178295241Y-104114637D01*
X178530273Y-104271680D01*
X178791426Y-104379853D01*
X179068665Y-104435000D01*
X179351335Y-104435000D01*
X179628574Y-104379853D01*
X179889727Y-104271680D01*
X180124759Y-104114637D01*
X180324637Y-103914759D01*
X180481680Y-103679727D01*
X180589853Y-103418574D01*
X180645000Y-103141335D01*
X180645000Y-102858665D01*
X180589853Y-102581426D01*
X180481680Y-102320273D01*
X180324637Y-102085241D01*
X180124759Y-101885363D01*
X179889727Y-101728320D01*
X179628574Y-101620147D01*
X179351335Y-101565000D01*
X179068665Y-101565000D01*
X178791426Y-101620147D01*
X178530273Y-101728320D01*
X178295241Y-101885363D01*
X178095363Y-102085241D01*
X177938320Y-102320273D01*
X177830147Y-102581426D01*
X177775000Y-102858665D01*
X176953467Y-102858665D01*
X174541951Y-100447150D01*
X174563158Y-100442932D01*
X174833411Y-100330990D01*
X175076632Y-100168475D01*
X175283475Y-99961632D01*
X175400000Y-99787240D01*
X175516525Y-99961632D01*
X175723368Y-100168475D01*
X175966589Y-100330990D01*
X176236842Y-100442932D01*
X176523740Y-100500000D01*
X176816260Y-100500000D01*
X177103158Y-100442932D01*
X177373411Y-100330990D01*
X177616632Y-100168475D01*
X177823475Y-99961632D01*
X177940000Y-99787240D01*
X178056525Y-99961632D01*
X178263368Y-100168475D01*
X178506589Y-100330990D01*
X178776842Y-100442932D01*
X179063740Y-100500000D01*
X179356260Y-100500000D01*
X179643158Y-100442932D01*
X179913411Y-100330990D01*
X180156632Y-100168475D01*
X180363475Y-99961632D01*
X180480000Y-99787240D01*
X180596525Y-99961632D01*
X180803368Y-100168475D01*
X181046589Y-100330990D01*
X181316842Y-100442932D01*
X181603740Y-100500000D01*
X181896260Y-100500000D01*
X182183158Y-100442932D01*
X182453411Y-100330990D01*
X182696632Y-100168475D01*
X182903475Y-99961632D01*
X183065990Y-99718411D01*
X183177932Y-99448158D01*
X183235000Y-99161260D01*
X183235000Y-98868740D01*
X183177932Y-98581842D01*
X183065990Y-98311589D01*
X182903475Y-98068368D01*
X182771620Y-97936513D01*
X182844180Y-97914502D01*
X182954494Y-97855537D01*
X183051185Y-97776185D01*
X183130537Y-97679494D01*
X183189502Y-97569180D01*
X183225812Y-97449482D01*
X183238072Y-97325000D01*
X183238072Y-95625000D01*
X183225812Y-95500518D01*
X183189502Y-95380820D01*
X183130537Y-95270506D01*
X183051185Y-95173815D01*
X182954494Y-95094463D01*
X182844180Y-95035498D01*
X182724482Y-94999188D01*
X182600000Y-94986928D01*
X180900000Y-94986928D01*
X180775518Y-94999188D01*
X180655820Y-95035498D01*
X180545506Y-95094463D01*
X180448815Y-95173815D01*
X180369463Y-95270506D01*
X180310498Y-95380820D01*
X180288487Y-95453380D01*
X180156632Y-95321525D01*
X179913411Y-95159010D01*
X179643158Y-95047068D01*
X179356260Y-94990000D01*
X179063740Y-94990000D01*
X178776842Y-95047068D01*
X178506589Y-95159010D01*
X178263368Y-95321525D01*
X178056525Y-95528368D01*
X177934805Y-95710534D01*
X177865178Y-95593645D01*
X177670269Y-95377412D01*
X177436920Y-95203359D01*
X177174099Y-95078175D01*
X177026890Y-95033524D01*
X176797000Y-95154845D01*
X176797000Y-96348000D01*
X176817000Y-96348000D01*
X176817000Y-96602000D01*
X176797000Y-96602000D01*
X176797000Y-96622000D01*
X176543000Y-96622000D01*
X176543000Y-96602000D01*
X174257000Y-96602000D01*
X174257000Y-96622000D01*
X174003000Y-96622000D01*
X174003000Y-96602000D01*
X173983000Y-96602000D01*
X173983000Y-96348000D01*
X174003000Y-96348000D01*
X174003000Y-95154845D01*
X174257000Y-95154845D01*
X174257000Y-96348000D01*
X176543000Y-96348000D01*
X176543000Y-95154845D01*
X176313110Y-95033524D01*
X176165901Y-95078175D01*
X175903080Y-95203359D01*
X175669731Y-95377412D01*
X175474822Y-95593645D01*
X175400000Y-95719255D01*
X175325178Y-95593645D01*
X175130269Y-95377412D01*
X174896920Y-95203359D01*
X174634099Y-95078175D01*
X174486890Y-95033524D01*
X174257000Y-95154845D01*
X174003000Y-95154845D01*
X173773110Y-95033524D01*
X173625901Y-95078175D01*
X173363080Y-95203359D01*
X173129731Y-95377412D01*
X172934822Y-95593645D01*
X172865195Y-95710534D01*
X172743475Y-95528368D01*
X172536632Y-95321525D01*
X172293411Y-95159010D01*
X172023158Y-95047068D01*
X171736260Y-94990000D01*
X171443740Y-94990000D01*
X171156842Y-95047068D01*
X170886589Y-95159010D01*
X170683508Y-95294704D01*
X169077795Y-93688992D01*
X169072313Y-93682312D01*
X169224285Y-93683072D01*
X169348767Y-93670812D01*
X169468465Y-93634502D01*
X169578779Y-93575537D01*
X169675470Y-93496185D01*
X169754822Y-93399494D01*
X169813787Y-93289180D01*
X169850097Y-93169482D01*
X169862357Y-93045000D01*
X169861427Y-92859019D01*
X169866843Y-92872095D01*
X170034830Y-93123505D01*
X170248637Y-93337312D01*
X170500047Y-93505299D01*
X170779399Y-93621011D01*
X171075958Y-93680000D01*
X171378326Y-93680000D01*
X171674885Y-93621011D01*
X171954237Y-93505299D01*
X172205647Y-93337312D01*
X172272086Y-93270873D01*
X172277640Y-93289180D01*
X172336605Y-93399494D01*
X172415957Y-93496185D01*
X172512648Y-93575537D01*
X172622962Y-93634502D01*
X172742660Y-93670812D01*
X172867142Y-93683072D01*
X173481392Y-93680000D01*
X173640142Y-93521250D01*
X173640142Y-92272000D01*
X173620142Y-92272000D01*
X173620142Y-92018000D01*
X173640142Y-92018000D01*
X173640142Y-90768750D01*
X173894142Y-90768750D01*
X173894142Y-92018000D01*
X173914142Y-92018000D01*
X173914142Y-92272000D01*
X173894142Y-92272000D01*
X173894142Y-93521250D01*
X174052892Y-93680000D01*
X174667142Y-93683072D01*
X174791624Y-93670812D01*
X174911322Y-93634502D01*
X175021636Y-93575537D01*
X175118327Y-93496185D01*
X175197679Y-93399494D01*
X175256644Y-93289180D01*
X175292954Y-93169482D01*
X175305214Y-93045000D01*
X175304284Y-92859017D01*
X175309701Y-92872095D01*
X175477688Y-93123505D01*
X175691495Y-93337312D01*
X175942905Y-93505299D01*
X176222257Y-93621011D01*
X176518816Y-93680000D01*
X176821184Y-93680000D01*
X177117743Y-93621011D01*
X177397095Y-93505299D01*
X177648505Y-93337312D01*
X177714944Y-93270873D01*
X177720498Y-93289180D01*
X177779463Y-93399494D01*
X177858815Y-93496185D01*
X177955506Y-93575537D01*
X178065820Y-93634502D01*
X178185518Y-93670812D01*
X178310000Y-93683072D01*
X178924250Y-93680000D01*
X179083000Y-93521250D01*
X179083000Y-92272000D01*
X179337000Y-92272000D01*
X179337000Y-93521250D01*
X179495750Y-93680000D01*
X180110000Y-93683072D01*
X180234482Y-93670812D01*
X180354180Y-93634502D01*
X180464494Y-93575537D01*
X180561185Y-93496185D01*
X180640537Y-93399494D01*
X180699502Y-93289180D01*
X180735812Y-93169482D01*
X180748072Y-93045000D01*
X180745000Y-92430750D01*
X180586250Y-92272000D01*
X179337000Y-92272000D01*
X179083000Y-92272000D01*
X179063000Y-92272000D01*
X179063000Y-92018000D01*
X179083000Y-92018000D01*
X179083000Y-90768750D01*
X179337000Y-90768750D01*
X179337000Y-92018000D01*
X180586250Y-92018000D01*
X180745000Y-91859250D01*
X180748072Y-91245000D01*
X180735812Y-91120518D01*
X180699502Y-91000820D01*
X180640537Y-90890506D01*
X180561185Y-90793815D01*
X180464494Y-90714463D01*
X180354180Y-90655498D01*
X180234482Y-90619188D01*
X180110000Y-90606928D01*
X179495750Y-90610000D01*
X179337000Y-90768750D01*
X179083000Y-90768750D01*
X178924250Y-90610000D01*
X178310000Y-90606928D01*
X178185518Y-90619188D01*
X178065820Y-90655498D01*
X177955506Y-90714463D01*
X177858815Y-90793815D01*
X177779463Y-90890506D01*
X177720498Y-91000820D01*
X177714944Y-91019127D01*
X177648505Y-90952688D01*
X177397095Y-90784701D01*
X177117743Y-90668989D01*
X176821184Y-90610000D01*
X176518816Y-90610000D01*
X176222257Y-90668989D01*
X175942905Y-90784701D01*
X175691495Y-90952688D01*
X175477688Y-91166495D01*
X175309701Y-91417905D01*
X175304284Y-91430983D01*
X175305214Y-91245000D01*
X175292954Y-91120518D01*
X175256644Y-91000820D01*
X175197679Y-90890506D01*
X175118327Y-90793815D01*
X175021636Y-90714463D01*
X174911322Y-90655498D01*
X174791624Y-90619188D01*
X174667142Y-90606928D01*
X174052892Y-90610000D01*
X173894142Y-90768750D01*
X173640142Y-90768750D01*
X173481392Y-90610000D01*
X172867142Y-90606928D01*
X172742660Y-90619188D01*
X172622962Y-90655498D01*
X172512648Y-90714463D01*
X172415957Y-90793815D01*
X172336605Y-90890506D01*
X172277640Y-91000820D01*
X172272086Y-91019127D01*
X172205647Y-90952688D01*
X171954237Y-90784701D01*
X171674885Y-90668989D01*
X171378326Y-90610000D01*
X171075958Y-90610000D01*
X170779399Y-90668989D01*
X170500047Y-90784701D01*
X170248637Y-90952688D01*
X170034830Y-91166495D01*
X169866843Y-91417905D01*
X169861427Y-91430981D01*
X169862357Y-91245000D01*
X169850097Y-91120518D01*
X169813787Y-91000820D01*
X169754822Y-90890506D01*
X169675470Y-90793815D01*
X169578779Y-90714463D01*
X169468465Y-90655498D01*
X169348767Y-90619188D01*
X169224285Y-90606928D01*
X168610035Y-90610000D01*
X168451285Y-90768750D01*
X168451285Y-92018000D01*
X168471285Y-92018000D01*
X168471285Y-92272000D01*
X168451285Y-92272000D01*
X168451285Y-92292000D01*
X168197285Y-92292000D01*
X168197285Y-92272000D01*
X168177285Y-92272000D01*
X168177285Y-92018000D01*
X168197285Y-92018000D01*
X168197285Y-90768750D01*
X168038535Y-90610000D01*
X167424285Y-90606928D01*
X167299803Y-90619188D01*
X167180105Y-90655498D01*
X167069791Y-90714463D01*
X166973100Y-90793815D01*
X166893748Y-90890506D01*
X166834783Y-91000820D01*
X166829229Y-91019127D01*
X166762790Y-90952688D01*
X166511380Y-90784701D01*
X166232028Y-90668989D01*
X165935469Y-90610000D01*
X165633101Y-90610000D01*
X165336542Y-90668989D01*
X165057190Y-90784701D01*
X164805780Y-90952688D01*
X164591973Y-91166495D01*
X164423986Y-91417905D01*
X164418570Y-91430981D01*
X164419500Y-91245000D01*
X164407240Y-91120518D01*
X164370930Y-91000820D01*
X164311965Y-90890506D01*
X164232613Y-90793815D01*
X164135922Y-90714463D01*
X164025608Y-90655498D01*
X163905910Y-90619188D01*
X163781428Y-90606928D01*
X163167178Y-90610000D01*
X163008428Y-90768750D01*
X163008428Y-92018000D01*
X163028428Y-92018000D01*
X163028428Y-92272000D01*
X163008428Y-92272000D01*
X163008428Y-92292000D01*
X162754428Y-92292000D01*
X162754428Y-92272000D01*
X162734428Y-92272000D01*
X162734428Y-92018000D01*
X162754428Y-92018000D01*
X162754428Y-90768750D01*
X162595678Y-90610000D01*
X161981428Y-90606928D01*
X161856946Y-90619188D01*
X161737248Y-90655498D01*
X161626934Y-90714463D01*
X161530243Y-90793815D01*
X161450891Y-90890506D01*
X161391926Y-91000820D01*
X161386372Y-91019127D01*
X161319933Y-90952688D01*
X161068523Y-90784701D01*
X160789171Y-90668989D01*
X160492612Y-90610000D01*
X160190244Y-90610000D01*
X159893685Y-90668989D01*
X159614333Y-90784701D01*
X159362923Y-90952688D01*
X159149116Y-91166495D01*
X158981129Y-91417905D01*
X158975713Y-91430981D01*
X158976643Y-91245000D01*
X158964383Y-91120518D01*
X158928073Y-91000820D01*
X158869108Y-90890506D01*
X158789756Y-90793815D01*
X158693065Y-90714463D01*
X158582751Y-90655498D01*
X158463053Y-90619188D01*
X158338571Y-90606928D01*
X157724321Y-90610000D01*
X157565571Y-90768750D01*
X157565571Y-92018000D01*
X157585571Y-92018000D01*
X157585571Y-92272000D01*
X157565571Y-92272000D01*
X157565571Y-92292000D01*
X157311571Y-92292000D01*
X157311571Y-92272000D01*
X157291571Y-92272000D01*
X157291571Y-92018000D01*
X157311571Y-92018000D01*
X157311571Y-90768750D01*
X157152821Y-90610000D01*
X156538571Y-90606928D01*
X156414089Y-90619188D01*
X156294391Y-90655498D01*
X156184077Y-90714463D01*
X156087386Y-90793815D01*
X156008034Y-90890506D01*
X155949069Y-91000820D01*
X155943515Y-91019127D01*
X155877076Y-90952688D01*
X155625666Y-90784701D01*
X155346314Y-90668989D01*
X155049755Y-90610000D01*
X154747387Y-90610000D01*
X154450828Y-90668989D01*
X154171476Y-90784701D01*
X153920066Y-90952688D01*
X153706259Y-91166495D01*
X153538272Y-91417905D01*
X153532856Y-91430981D01*
X153533786Y-91245000D01*
X153521526Y-91120518D01*
X153485216Y-91000820D01*
X153426251Y-90890506D01*
X153346899Y-90793815D01*
X153250208Y-90714463D01*
X153139894Y-90655498D01*
X153020196Y-90619188D01*
X152895714Y-90606928D01*
X152281464Y-90610000D01*
X152122714Y-90768750D01*
X152122714Y-92018000D01*
X152142714Y-92018000D01*
X152142714Y-92272000D01*
X152122714Y-92272000D01*
X152122714Y-92292000D01*
X151868714Y-92292000D01*
X151868714Y-92272000D01*
X151848714Y-92272000D01*
X151848714Y-92018000D01*
X151868714Y-92018000D01*
X151868714Y-90768750D01*
X151709964Y-90610000D01*
X151095714Y-90606928D01*
X150971232Y-90619188D01*
X150851534Y-90655498D01*
X150741220Y-90714463D01*
X150644529Y-90793815D01*
X150565177Y-90890506D01*
X150506212Y-91000820D01*
X150500658Y-91019127D01*
X150434219Y-90952688D01*
X150182809Y-90784701D01*
X149903457Y-90668989D01*
X149606898Y-90610000D01*
X149304530Y-90610000D01*
X149007971Y-90668989D01*
X148728619Y-90784701D01*
X148477209Y-90952688D01*
X148263402Y-91166495D01*
X148095415Y-91417905D01*
X148089999Y-91430981D01*
X148090929Y-91245000D01*
X148078669Y-91120518D01*
X148042359Y-91000820D01*
X147983394Y-90890506D01*
X147904042Y-90793815D01*
X147807351Y-90714463D01*
X147697037Y-90655498D01*
X147577339Y-90619188D01*
X147452857Y-90606928D01*
X146838607Y-90610000D01*
X146679857Y-90768750D01*
X146679857Y-92018000D01*
X146699857Y-92018000D01*
X146699857Y-92272000D01*
X146679857Y-92272000D01*
X146679857Y-93521250D01*
X146838607Y-93680000D01*
X147452857Y-93683072D01*
X147577339Y-93670812D01*
X147697037Y-93634502D01*
X147807351Y-93575537D01*
X147904042Y-93496185D01*
X147983394Y-93399494D01*
X148042359Y-93289180D01*
X148078669Y-93169482D01*
X148090929Y-93045000D01*
X148089999Y-92859019D01*
X148095415Y-92872095D01*
X148263402Y-93123505D01*
X148477209Y-93337312D01*
X148728619Y-93505299D01*
X149007971Y-93621011D01*
X149304530Y-93680000D01*
X149606898Y-93680000D01*
X149864644Y-93628731D01*
X151225912Y-94990000D01*
X151123740Y-94990000D01*
X150836842Y-95047068D01*
X150566589Y-95159010D01*
X150323368Y-95321525D01*
X150116525Y-95528368D01*
X150000000Y-95702760D01*
X149883475Y-95528368D01*
X149676632Y-95321525D01*
X149433411Y-95159010D01*
X149163158Y-95047068D01*
X148876260Y-94990000D01*
X148583740Y-94990000D01*
X148296842Y-95047068D01*
X148026589Y-95159010D01*
X147783368Y-95321525D01*
X147576525Y-95528368D01*
X147460000Y-95702760D01*
X147343475Y-95528368D01*
X147136632Y-95321525D01*
X146893411Y-95159010D01*
X146623158Y-95047068D01*
X146336260Y-94990000D01*
X146043740Y-94990000D01*
X145756842Y-95047068D01*
X145486589Y-95159010D01*
X145243368Y-95321525D01*
X145036525Y-95528368D01*
X144920000Y-95702760D01*
X144803475Y-95528368D01*
X144596632Y-95321525D01*
X144353411Y-95159010D01*
X144083158Y-95047068D01*
X143796260Y-94990000D01*
X143503740Y-94990000D01*
X143234999Y-95043456D01*
X143234999Y-93471380D01*
X143285762Y-93505299D01*
X143565114Y-93621011D01*
X143861673Y-93680000D01*
X144164041Y-93680000D01*
X144460600Y-93621011D01*
X144739952Y-93505299D01*
X144991362Y-93337312D01*
X145057801Y-93270873D01*
X145063355Y-93289180D01*
X145122320Y-93399494D01*
X145201672Y-93496185D01*
X145298363Y-93575537D01*
X145408677Y-93634502D01*
X145528375Y-93670812D01*
X145652857Y-93683072D01*
X146267107Y-93680000D01*
X146425857Y-93521250D01*
X146425857Y-92272000D01*
X146405857Y-92272000D01*
X146405857Y-92018000D01*
X146425857Y-92018000D01*
X146425857Y-90768750D01*
X146267107Y-90610000D01*
X145652857Y-90606928D01*
X145528375Y-90619188D01*
X145408677Y-90655498D01*
X145298363Y-90714463D01*
X145201672Y-90793815D01*
X145122320Y-90890506D01*
X145063355Y-91000820D01*
X145057801Y-91019127D01*
X144991362Y-90952688D01*
X144739952Y-90784701D01*
X144460600Y-90668989D01*
X144164041Y-90610000D01*
X143861673Y-90610000D01*
X143565114Y-90668989D01*
X143285762Y-90784701D01*
X143034352Y-90952688D01*
X142820545Y-91166495D01*
X142652558Y-91417905D01*
X142647142Y-91430981D01*
X142648072Y-91245000D01*
X142635812Y-91120518D01*
X142599502Y-91000820D01*
X142540537Y-90890506D01*
X142461185Y-90793815D01*
X142364494Y-90714463D01*
X142254180Y-90655498D01*
X142134482Y-90619188D01*
X142010000Y-90606928D01*
X141395750Y-90610000D01*
X141237000Y-90768750D01*
X141237000Y-92018000D01*
X141257000Y-92018000D01*
X141257000Y-92272000D01*
X141237000Y-92272000D01*
X141237000Y-93521250D01*
X141395750Y-93680000D01*
X141715000Y-93681597D01*
X141715000Y-95118247D01*
X141543158Y-95047068D01*
X141256260Y-94990000D01*
X140963740Y-94990000D01*
X140676842Y-95047068D01*
X140505001Y-95118247D01*
X140505001Y-93681597D01*
X140824250Y-93680000D01*
X140983000Y-93521250D01*
X140983000Y-92272000D01*
X140963000Y-92272000D01*
X140963000Y-92018000D01*
X140983000Y-92018000D01*
X140983000Y-90768750D01*
X140824250Y-90610000D01*
X140210000Y-90606928D01*
X140085518Y-90619188D01*
X139965820Y-90655498D01*
X139855506Y-90714463D01*
X139758815Y-90793815D01*
X139679463Y-90890506D01*
X139620498Y-91000820D01*
X139614944Y-91019127D01*
X139548505Y-90952688D01*
X139297095Y-90784701D01*
X139017743Y-90668989D01*
X138721184Y-90610000D01*
X138418816Y-90610000D01*
X138122257Y-90668989D01*
X137842905Y-90784701D01*
X137591495Y-90952688D01*
X137377688Y-91166495D01*
X137209701Y-91417905D01*
X137093989Y-91697257D01*
X137035000Y-91993816D01*
X137035000Y-92296184D01*
X137093989Y-92592743D01*
X137209701Y-92872095D01*
X137377688Y-93123505D01*
X137591495Y-93337312D01*
X137842905Y-93505299D01*
X138122257Y-93621011D01*
X138418816Y-93680000D01*
X138721184Y-93680000D01*
X138985002Y-93627524D01*
X138985002Y-95043456D01*
X138716260Y-94990000D01*
X138423740Y-94990000D01*
X138136842Y-95047068D01*
X137866589Y-95159010D01*
X137623368Y-95321525D01*
X137416525Y-95528368D01*
X137300000Y-95702760D01*
X137183475Y-95528368D01*
X136976632Y-95321525D01*
X136733411Y-95159010D01*
X136463158Y-95047068D01*
X136176260Y-94990000D01*
X135883740Y-94990000D01*
X135596842Y-95047068D01*
X135326589Y-95159010D01*
X135083368Y-95321525D01*
X134876525Y-95528368D01*
X134715000Y-95770107D01*
X134715000Y-88185000D01*
X184705394Y-88185000D01*
X185605000Y-89084606D01*
G37*
%TD.AperFunction*%
%TD*%
M02*
