M48
; DRILL file {KiCad (5.1.9)-1} date 05/18/23 19:44:39
; FORMAT={-:-/ absolute / metric / decimal}
; #@! TF.CreationDate,2023-05-18T19:44:39+01:00
; #@! TF.GenerationSoftware,Kicad,Pcbnew,(5.1.9)-1
; #@! TF.FileFunction,Plated,1,2,PTH
FMAT,2
METRIC
T1C0.800
T2C0.900
T3C1.000
%
G90
G05
T1
X138.85Y-103.1
X138.85Y-106.2
X146.47Y-103.1
X146.47Y-106.2
X149.763Y-103.125
X150.055Y-106.2
X157.383Y-103.125
X157.675Y-106.2
X160.675Y-106.2
X160.677Y-103.0
X168.295Y-106.2
X168.297Y-103.0
X171.59Y-103.0
X171.6Y-106.2
X179.21Y-103.0
X179.22Y-106.2
T2
X138.57Y-92.145
X141.11Y-92.145
X144.013Y-92.145
X146.553Y-92.145
X149.456Y-92.145
X151.996Y-92.145
X154.899Y-92.145
X157.439Y-92.145
X160.341Y-92.145
X162.881Y-92.145
X165.784Y-92.145
X168.324Y-92.145
X171.227Y-92.145
X173.767Y-92.145
X176.67Y-92.145
X179.21Y-92.145
T3
X136.03Y-96.475
X136.03Y-99.015
X138.57Y-96.475
X138.57Y-99.015
X141.11Y-96.475
X141.11Y-99.015
X143.65Y-96.475
X143.65Y-99.015
X146.19Y-96.475
X146.19Y-99.015
X148.73Y-96.475
X148.73Y-99.015
X151.27Y-96.475
X151.27Y-99.015
X153.81Y-96.475
X153.81Y-99.015
X156.35Y-96.475
X156.35Y-99.015
X158.89Y-96.475
X158.89Y-99.015
X161.43Y-96.475
X161.43Y-99.015
X163.97Y-96.475
X163.97Y-99.015
X166.51Y-96.475
X166.51Y-99.015
X169.05Y-96.475
X169.05Y-99.015
X171.59Y-96.475
X171.59Y-99.015
X174.13Y-96.475
X174.13Y-99.015
X176.67Y-96.475
X176.67Y-99.015
X179.21Y-96.475
X179.21Y-99.015
X181.75Y-96.475
X181.75Y-99.015
T0
M30
