%TF.GenerationSoftware,KiCad,Pcbnew,(5.1.9)-1*%
%TF.CreationDate,2023-04-10T19:45:02+01:00*%
%TF.ProjectId,#1_Blinkenlight,23315f42-6c69-46e6-9b65-6e6c69676874,Rev 01*%
%TF.SameCoordinates,Original*%
%TF.FileFunction,Soldermask,Bot*%
%TF.FilePolarity,Negative*%
%FSLAX46Y46*%
G04 Gerber Fmt 4.6, Leading zero omitted, Abs format (unit mm)*
G04 Created by KiCad (PCBNEW (5.1.9)-1) date 2023-04-10 19:45:02*
%MOMM*%
%LPD*%
G01*
G04 APERTURE LIST*
%ADD10R,1.800000X1.800000*%
%ADD11C,1.800000*%
%ADD12R,1.700000X1.700000*%
%ADD13O,1.700000X1.700000*%
%ADD14O,1.600000X1.600000*%
%ADD15C,1.600000*%
G04 APERTURE END LIST*
D10*
%TO.C,PC_0*%
X179210000Y-92145000D03*
D11*
X176670000Y-92145000D03*
%TD*%
%TO.C,PC_1*%
X171227142Y-92145000D03*
D10*
X173767142Y-92145000D03*
%TD*%
%TO.C,PC_2*%
X168324285Y-92145000D03*
D11*
X165784285Y-92145000D03*
%TD*%
%TO.C,PC_3*%
X160341428Y-92145000D03*
D10*
X162881428Y-92145000D03*
%TD*%
%TO.C,PC_4*%
X157438571Y-92145000D03*
D11*
X154898571Y-92145000D03*
%TD*%
D10*
%TO.C,PC_5*%
X151995714Y-92145000D03*
D11*
X149455714Y-92145000D03*
%TD*%
%TO.C,PC_6*%
X144012857Y-92145000D03*
D10*
X146552857Y-92145000D03*
%TD*%
D11*
%TO.C,PC_7*%
X138570000Y-92145000D03*
D10*
X141110000Y-92145000D03*
%TD*%
D12*
%TO.C,J1*%
X181750000Y-96475000D03*
D13*
X181750000Y-99015000D03*
X179210000Y-96475000D03*
X179210000Y-99015000D03*
X176670000Y-96475000D03*
X176670000Y-99015000D03*
X174130000Y-96475000D03*
X174130000Y-99015000D03*
X171590000Y-96475000D03*
X171590000Y-99015000D03*
X169050000Y-96475000D03*
X169050000Y-99015000D03*
X166510000Y-96475000D03*
X166510000Y-99015000D03*
X163970000Y-96475000D03*
X163970000Y-99015000D03*
X161430000Y-96475000D03*
X161430000Y-99015000D03*
X158890000Y-96475000D03*
X158890000Y-99015000D03*
X156350000Y-96475000D03*
X156350000Y-99015000D03*
X153810000Y-96475000D03*
X153810000Y-99015000D03*
X151270000Y-96475000D03*
X151270000Y-99015000D03*
X148730000Y-96475000D03*
X148730000Y-99015000D03*
X146190000Y-96475000D03*
X146190000Y-99015000D03*
X143650000Y-96475000D03*
X143650000Y-99015000D03*
X141110000Y-96475000D03*
X141110000Y-99015000D03*
X138570000Y-96475000D03*
X138570000Y-99015000D03*
X136030000Y-96475000D03*
X136030000Y-99015000D03*
%TD*%
D14*
%TO.C,R0*%
X179210000Y-103000000D03*
D15*
X171590000Y-103000000D03*
%TD*%
%TO.C,R1*%
X160676666Y-103000000D03*
D14*
X168296666Y-103000000D03*
%TD*%
%TO.C,R2*%
X157383333Y-103125000D03*
D15*
X149763333Y-103125000D03*
%TD*%
%TO.C,R3*%
X138850000Y-103100000D03*
D14*
X146470000Y-103100000D03*
%TD*%
%TO.C,R4*%
X179220000Y-106200000D03*
D15*
X171600000Y-106200000D03*
%TD*%
%TO.C,R5*%
X160675000Y-106200000D03*
D14*
X168295000Y-106200000D03*
%TD*%
%TO.C,R6*%
X150055000Y-106200000D03*
D15*
X157675000Y-106200000D03*
%TD*%
%TO.C,R7*%
X146470000Y-106200000D03*
D14*
X138850000Y-106200000D03*
%TD*%
M02*
