%FSLAX45Y45*%
G04 Gerber Fmt 4.5, Leading zero omitted, Abs format (unit mm)*
G04 Created by KiCad (PCBNEW (5.1.9)-1) date 2023-05-18 19:44:40*
%MOMM*%
%LPD*%
G01*
G04 APERTURE LIST*
%TA.AperFunction,Profile*%
%ADD10C,0.100000*%
%TD*%
%ADD11C,0.200000*%
%ADD12C,0.300000*%
G04 APERTURE END LIST*
D10*
X18629000Y-8750000D02*
X18629000Y-10900000D01*
X13403000Y-8750000D02*
X18629000Y-8750000D01*
X13403000Y-10900000D02*
X13403000Y-8750000D01*
X18629000Y-10900000D02*
X13403000Y-10900000D01*
D11*
D12*
X13684428Y-11370714D02*
X13684428Y-11070714D01*
X13755857Y-11070714D01*
X13798714Y-11085000D01*
X13827286Y-11113572D01*
X13841571Y-11142143D01*
X13855857Y-11199286D01*
X13855857Y-11242143D01*
X13841571Y-11299286D01*
X13827286Y-11327857D01*
X13798714Y-11356429D01*
X13755857Y-11370714D01*
X13684428Y-11370714D01*
X13984428Y-11370714D02*
X13984428Y-11170714D01*
X13984428Y-11227857D02*
X13998714Y-11199286D01*
X14013000Y-11185000D01*
X14041571Y-11170714D01*
X14070143Y-11170714D01*
X14170143Y-11370714D02*
X14170143Y-11170714D01*
X14170143Y-11070714D02*
X14155857Y-11085000D01*
X14170143Y-11099286D01*
X14184428Y-11085000D01*
X14170143Y-11070714D01*
X14170143Y-11099286D01*
X14355857Y-11370714D02*
X14327286Y-11356429D01*
X14313000Y-11327857D01*
X14313000Y-11070714D01*
X14513000Y-11370714D02*
X14484428Y-11356429D01*
X14470143Y-11327857D01*
X14470143Y-11070714D01*
X14855857Y-11370714D02*
X14855857Y-11070714D01*
X14955857Y-11285000D01*
X15055857Y-11070714D01*
X15055857Y-11370714D01*
X15327286Y-11370714D02*
X15327286Y-11213571D01*
X15313000Y-11185000D01*
X15284428Y-11170714D01*
X15227286Y-11170714D01*
X15198714Y-11185000D01*
X15327286Y-11356429D02*
X15298714Y-11370714D01*
X15227286Y-11370714D01*
X15198714Y-11356429D01*
X15184428Y-11327857D01*
X15184428Y-11299286D01*
X15198714Y-11270714D01*
X15227286Y-11256429D01*
X15298714Y-11256429D01*
X15327286Y-11242143D01*
X15470143Y-11170714D02*
X15470143Y-11470714D01*
X15470143Y-11185000D02*
X15498714Y-11170714D01*
X15555857Y-11170714D01*
X15584428Y-11185000D01*
X15598714Y-11199286D01*
X15613000Y-11227857D01*
X15613000Y-11313571D01*
X15598714Y-11342143D01*
X15584428Y-11356429D01*
X15555857Y-11370714D01*
X15498714Y-11370714D01*
X15470143Y-11356429D01*
X15741571Y-11342143D02*
X15755857Y-11356429D01*
X15741571Y-11370714D01*
X15727286Y-11356429D01*
X15741571Y-11342143D01*
X15741571Y-11370714D01*
X15741571Y-11185000D02*
X15755857Y-11199286D01*
X15741571Y-11213571D01*
X15727286Y-11199286D01*
X15741571Y-11185000D01*
X15741571Y-11213571D01*
M02*
