%TF.GenerationSoftware,KiCad,Pcbnew,(5.1.9)-1*%
%TF.CreationDate,2023-05-18T19:44:36+01:00*%
%TF.ProjectId,#1_Blinkenlight,23315f42-6c69-46e6-9b65-6e6c69676874,Rev 01*%
%TF.SameCoordinates,Original*%
%TF.FileFunction,Legend,Bot*%
%TF.FilePolarity,Positive*%
%FSLAX46Y46*%
G04 Gerber Fmt 4.6, Leading zero omitted, Abs format (unit mm)*
G04 Created by KiCad (PCBNEW (5.1.9)-1) date 2023-05-18 19:44:36*
%MOMM*%
%LPD*%
G01*
G04 APERTURE LIST*
%ADD10C,0.120000*%
%ADD11C,0.010000*%
%ADD12C,0.150000*%
%ADD13R,1.800000X1.800000*%
%ADD14C,1.800000*%
%ADD15R,1.700000X1.700000*%
%ADD16O,1.700000X1.700000*%
%ADD17O,1.600000X1.600000*%
%ADD18C,1.600000*%
G04 APERTURE END LIST*
D10*
X144762428Y-88446428D02*
X144419571Y-88446428D01*
X144666000Y-89046428D02*
X144591000Y-88446428D01*
X144294571Y-89046428D02*
X144219571Y-88446428D01*
X144037428Y-89046428D02*
X143998142Y-88732142D01*
X144019571Y-88675000D01*
X144073142Y-88646428D01*
X144158857Y-88646428D01*
X144219571Y-88675000D01*
X144251714Y-88703571D01*
X143751714Y-89046428D02*
X143701714Y-88646428D01*
X143676714Y-88446428D02*
X143708857Y-88475000D01*
X143683857Y-88503571D01*
X143651714Y-88475000D01*
X143676714Y-88446428D01*
X143683857Y-88503571D01*
X143491000Y-89017857D02*
X143437428Y-89046428D01*
X143323142Y-89046428D01*
X143262428Y-89017857D01*
X143226714Y-88960714D01*
X143223142Y-88932142D01*
X143244571Y-88875000D01*
X143298142Y-88846428D01*
X143383857Y-88846428D01*
X143437428Y-88817857D01*
X143458857Y-88760714D01*
X143455285Y-88732142D01*
X143419571Y-88675000D01*
X143358857Y-88646428D01*
X143273142Y-88646428D01*
X143219571Y-88675000D01*
X142548142Y-89017857D02*
X142494571Y-89046428D01*
X142380285Y-89046428D01*
X142319571Y-89017857D01*
X142283857Y-88960714D01*
X142280285Y-88932142D01*
X142301714Y-88875000D01*
X142355285Y-88846428D01*
X142441000Y-88846428D01*
X142494571Y-88817857D01*
X142516000Y-88760714D01*
X142512428Y-88732142D01*
X142476714Y-88675000D01*
X142416000Y-88646428D01*
X142330285Y-88646428D01*
X142276714Y-88675000D01*
X142037428Y-89046428D02*
X141987428Y-88646428D01*
X141962428Y-88446428D02*
X141994571Y-88475000D01*
X141969571Y-88503571D01*
X141937428Y-88475000D01*
X141962428Y-88446428D01*
X141969571Y-88503571D01*
X141494571Y-89046428D02*
X141419571Y-88446428D01*
X141491000Y-89017857D02*
X141551714Y-89046428D01*
X141666000Y-89046428D01*
X141719571Y-89017857D01*
X141744571Y-88989285D01*
X141766000Y-88932142D01*
X141744571Y-88760714D01*
X141708857Y-88703571D01*
X141676714Y-88675000D01*
X141616000Y-88646428D01*
X141501714Y-88646428D01*
X141448142Y-88675000D01*
X140976714Y-89017857D02*
X141037428Y-89046428D01*
X141151714Y-89046428D01*
X141205285Y-89017857D01*
X141226714Y-88960714D01*
X141198142Y-88732142D01*
X141162428Y-88675000D01*
X141101714Y-88646428D01*
X140987428Y-88646428D01*
X140933857Y-88675000D01*
X140912428Y-88732142D01*
X140919571Y-88789285D01*
X141212428Y-88846428D01*
X140237428Y-89046428D02*
X140187428Y-88646428D01*
X140162428Y-88446428D02*
X140194571Y-88475000D01*
X140169571Y-88503571D01*
X140137428Y-88475000D01*
X140162428Y-88446428D01*
X140169571Y-88503571D01*
X139976714Y-89017857D02*
X139923142Y-89046428D01*
X139808857Y-89046428D01*
X139748142Y-89017857D01*
X139712428Y-88960714D01*
X139708857Y-88932142D01*
X139730285Y-88875000D01*
X139783857Y-88846428D01*
X139869571Y-88846428D01*
X139923142Y-88817857D01*
X139944571Y-88760714D01*
X139941000Y-88732142D01*
X139905285Y-88675000D01*
X139844571Y-88646428D01*
X139758857Y-88646428D01*
X139705285Y-88675000D01*
X139044571Y-88646428D02*
X138816000Y-88646428D01*
X138933857Y-88446428D02*
X138998142Y-88960714D01*
X138976714Y-89017857D01*
X138923142Y-89046428D01*
X138866000Y-89046428D01*
X138666000Y-89046428D02*
X138591000Y-88446428D01*
X138408857Y-89046428D02*
X138369571Y-88732142D01*
X138391000Y-88675000D01*
X138444571Y-88646428D01*
X138530285Y-88646428D01*
X138591000Y-88675000D01*
X138623142Y-88703571D01*
X137891000Y-89017857D02*
X137951714Y-89046428D01*
X138066000Y-89046428D01*
X138119571Y-89017857D01*
X138141000Y-88960714D01*
X138112428Y-88732142D01*
X138076714Y-88675000D01*
X138016000Y-88646428D01*
X137901714Y-88646428D01*
X137848142Y-88675000D01*
X137826714Y-88732142D01*
X137833857Y-88789285D01*
X138126714Y-88846428D01*
X136912428Y-88732142D02*
X136830285Y-88760714D01*
X136805285Y-88789285D01*
X136783857Y-88846428D01*
X136794571Y-88932142D01*
X136830285Y-88989285D01*
X136862428Y-89017857D01*
X136923142Y-89046428D01*
X137151714Y-89046428D01*
X137076714Y-88446428D01*
X136876714Y-88446428D01*
X136823142Y-88475000D01*
X136798142Y-88503571D01*
X136776714Y-88560714D01*
X136783857Y-88617857D01*
X136819571Y-88675000D01*
X136851714Y-88703571D01*
X136912428Y-88732142D01*
X137112428Y-88732142D01*
X136558857Y-88875000D02*
X136273142Y-88875000D01*
X136637428Y-89046428D02*
X136362428Y-88446428D01*
X136237428Y-89046428D01*
X135687428Y-88989285D02*
X135719571Y-89017857D01*
X135808857Y-89046428D01*
X135866000Y-89046428D01*
X135948142Y-89017857D01*
X135998142Y-88960714D01*
X136019571Y-88903571D01*
X136033857Y-88789285D01*
X136023142Y-88703571D01*
X135980285Y-88589285D01*
X135944571Y-88532142D01*
X135880285Y-88475000D01*
X135791000Y-88446428D01*
X135733857Y-88446428D01*
X135651714Y-88475000D01*
X135626714Y-88503571D01*
X135437428Y-89046428D02*
X135362428Y-88446428D01*
X135094571Y-89046428D02*
X135308857Y-88703571D01*
X135019571Y-88446428D02*
X135405285Y-88789285D01*
X184929988Y-88536904D02*
X184953797Y-88727380D01*
X185134750Y-88651190D02*
X184953797Y-88727380D01*
X184753797Y-88651190D01*
X185087130Y-88879761D02*
X184953797Y-88727380D01*
X184858559Y-88879761D01*
X176894571Y-94496428D02*
X177237428Y-94496428D01*
X177066000Y-94496428D02*
X176991000Y-93896428D01*
X177058857Y-93982142D01*
X177123142Y-94039285D01*
X177183857Y-94067857D01*
X176398142Y-94182142D02*
X176316000Y-94210714D01*
X176291000Y-94239285D01*
X176269571Y-94296428D01*
X176280285Y-94382142D01*
X176316000Y-94439285D01*
X176348142Y-94467857D01*
X176408857Y-94496428D01*
X176637428Y-94496428D01*
X176562428Y-93896428D01*
X176362428Y-93896428D01*
X176308857Y-93925000D01*
X176283857Y-93953571D01*
X176262428Y-94010714D01*
X176269571Y-94067857D01*
X176305285Y-94125000D01*
X176337428Y-94153571D01*
X176398142Y-94182142D01*
X176598142Y-94182142D01*
X175876714Y-93896428D02*
X175894571Y-94039285D01*
X176030285Y-93982142D02*
X175894571Y-94039285D01*
X175744571Y-93982142D01*
X175994571Y-94153571D02*
X175894571Y-94039285D01*
X175823142Y-94153571D01*
X179551714Y-94496428D02*
X179894571Y-94496428D01*
X179723142Y-94496428D02*
X179648142Y-93896428D01*
X179716000Y-93982142D01*
X179780285Y-94039285D01*
X179841000Y-94067857D01*
X179301714Y-94325000D02*
X179016000Y-94325000D01*
X179380285Y-94496428D02*
X179105285Y-93896428D01*
X178980285Y-94496428D01*
X178619571Y-93896428D02*
X178637428Y-94039285D01*
X178773142Y-93982142D02*
X178637428Y-94039285D01*
X178487428Y-93982142D01*
X178737428Y-94153571D02*
X178637428Y-94039285D01*
X178566000Y-94153571D01*
X182108857Y-94521428D02*
X182033857Y-93921428D01*
X181766000Y-94521428D01*
X181691000Y-93921428D01*
X181130285Y-94464285D02*
X181162428Y-94492857D01*
X181251714Y-94521428D01*
X181308857Y-94521428D01*
X181391000Y-94492857D01*
X181441000Y-94435714D01*
X181462428Y-94378571D01*
X181476714Y-94264285D01*
X181466000Y-94178571D01*
X181423142Y-94064285D01*
X181387428Y-94007142D01*
X181323142Y-93950000D01*
X181233857Y-93921428D01*
X181176714Y-93921428D01*
X181094571Y-93950000D01*
X181069571Y-93978571D01*
X182108857Y-101671428D02*
X182033857Y-101071428D01*
X181766000Y-101671428D01*
X181691000Y-101071428D01*
X181130285Y-101614285D02*
X181162428Y-101642857D01*
X181251714Y-101671428D01*
X181308857Y-101671428D01*
X181391000Y-101642857D01*
X181441000Y-101585714D01*
X181462428Y-101528571D01*
X181476714Y-101414285D01*
X181466000Y-101328571D01*
X181423142Y-101214285D01*
X181387428Y-101157142D01*
X181323142Y-101100000D01*
X181233857Y-101071428D01*
X181176714Y-101071428D01*
X181094571Y-101100000D01*
X181069571Y-101128571D01*
X183101714Y-88686428D02*
X183444571Y-88686428D01*
X183273142Y-88686428D02*
X183198142Y-88086428D01*
X183266000Y-88172142D01*
X183330285Y-88229285D01*
X183391000Y-88257857D01*
X182851714Y-88515000D02*
X182566000Y-88515000D01*
X182930285Y-88686428D02*
X182655285Y-88086428D01*
X182530285Y-88686428D01*
X181833857Y-88372142D02*
X181376714Y-88372142D01*
X181398142Y-88543571D02*
X181855285Y-88543571D01*
X180673142Y-88686428D02*
X180598142Y-88086428D01*
X180369571Y-88086428D01*
X180316000Y-88115000D01*
X180291000Y-88143571D01*
X180269571Y-88200714D01*
X180280285Y-88286428D01*
X180316000Y-88343571D01*
X180348142Y-88372142D01*
X180408857Y-88400714D01*
X180637428Y-88400714D01*
X180073142Y-88686428D02*
X179998142Y-88086428D01*
X179787428Y-88686428D02*
X179712428Y-88086428D01*
X179444571Y-88686428D01*
X179369571Y-88086428D01*
X178387428Y-88686428D02*
X178730285Y-88686428D01*
X178558857Y-88686428D02*
X178483857Y-88086428D01*
X178551714Y-88172142D01*
X178616000Y-88229285D01*
X178676714Y-88257857D01*
X177680285Y-88515000D02*
X177394571Y-88515000D01*
X177758857Y-88686428D02*
X177483857Y-88086428D01*
X177358857Y-88686428D01*
X176773142Y-88115000D02*
X176826714Y-88086428D01*
X176912428Y-88086428D01*
X177001714Y-88115000D01*
X177066000Y-88172142D01*
X177101714Y-88229285D01*
X177144571Y-88343571D01*
X177155285Y-88429285D01*
X177141000Y-88543571D01*
X177119571Y-88600714D01*
X177069571Y-88657857D01*
X176987428Y-88686428D01*
X176930285Y-88686428D01*
X176841000Y-88657857D01*
X176808857Y-88629285D01*
X176783857Y-88429285D01*
X176898142Y-88429285D01*
X176369571Y-88086428D02*
X176255285Y-88086428D01*
X176201714Y-88115000D01*
X176151714Y-88172142D01*
X176137428Y-88286428D01*
X176162428Y-88486428D01*
X176205285Y-88600714D01*
X176269571Y-88657857D01*
X176330285Y-88686428D01*
X176444571Y-88686428D01*
X176498142Y-88657857D01*
X176548142Y-88600714D01*
X176562428Y-88486428D01*
X176537428Y-88286428D01*
X176494571Y-88172142D01*
X176430285Y-88115000D01*
X176369571Y-88086428D01*
X175930285Y-88686428D02*
X175855285Y-88086428D01*
X175587428Y-88686428D01*
X175512428Y-88086428D01*
X175016000Y-88686428D02*
X175301714Y-88686428D01*
X175226714Y-88086428D01*
X174816000Y-88686428D02*
X174741000Y-88086428D01*
X174144571Y-88115000D02*
X174198142Y-88086428D01*
X174283857Y-88086428D01*
X174373142Y-88115000D01*
X174437428Y-88172142D01*
X174473142Y-88229285D01*
X174516000Y-88343571D01*
X174526714Y-88429285D01*
X174512428Y-88543571D01*
X174491000Y-88600714D01*
X174441000Y-88657857D01*
X174358857Y-88686428D01*
X174301714Y-88686428D01*
X174212428Y-88657857D01*
X174180285Y-88629285D01*
X174155285Y-88429285D01*
X174269571Y-88429285D01*
X173930285Y-88686428D02*
X173855285Y-88086428D01*
X173891000Y-88372142D02*
X173548142Y-88372142D01*
X173587428Y-88686428D02*
X173512428Y-88086428D01*
X173312428Y-88086428D02*
X172969571Y-88086428D01*
X173216000Y-88686428D02*
X173141000Y-88086428D01*
X172805285Y-88143571D02*
X172773142Y-88115000D01*
X172712428Y-88086428D01*
X172569571Y-88086428D01*
X172516000Y-88115000D01*
X172491000Y-88143571D01*
X172469571Y-88200714D01*
X172476714Y-88257857D01*
X172516000Y-88343571D01*
X172901714Y-88686428D01*
X172530285Y-88686428D01*
X182858857Y-89706428D02*
X183201714Y-89706428D01*
X183030285Y-89706428D02*
X182955285Y-89106428D01*
X183023142Y-89192142D01*
X183087428Y-89249285D01*
X183148142Y-89277857D01*
X182362428Y-89392142D02*
X182280285Y-89420714D01*
X182255285Y-89449285D01*
X182233857Y-89506428D01*
X182244571Y-89592142D01*
X182280285Y-89649285D01*
X182312428Y-89677857D01*
X182373142Y-89706428D01*
X182601714Y-89706428D01*
X182526714Y-89106428D01*
X182326714Y-89106428D01*
X182273142Y-89135000D01*
X182248142Y-89163571D01*
X182226714Y-89220714D01*
X182233857Y-89277857D01*
X182269571Y-89335000D01*
X182301714Y-89363571D01*
X182362428Y-89392142D01*
X182562428Y-89392142D01*
X181505285Y-89392142D02*
X181048142Y-89392142D01*
X181069571Y-89563571D02*
X181526714Y-89563571D01*
X180344571Y-89706428D02*
X180269571Y-89106428D01*
X180041000Y-89106428D01*
X179987428Y-89135000D01*
X179962428Y-89163571D01*
X179941000Y-89220714D01*
X179951714Y-89306428D01*
X179987428Y-89363571D01*
X180019571Y-89392142D01*
X180080285Y-89420714D01*
X180308857Y-89420714D01*
X179744571Y-89706428D02*
X179669571Y-89106428D01*
X179458857Y-89706428D02*
X179383857Y-89106428D01*
X179116000Y-89706428D01*
X179041000Y-89106428D01*
X178058857Y-89706428D02*
X178401714Y-89706428D01*
X178230285Y-89706428D02*
X178155285Y-89106428D01*
X178223142Y-89192142D01*
X178287428Y-89249285D01*
X178348142Y-89277857D01*
X177351714Y-89535000D02*
X177066000Y-89535000D01*
X177430285Y-89706428D02*
X177155285Y-89106428D01*
X177030285Y-89706428D01*
X176444571Y-89135000D02*
X176498142Y-89106428D01*
X176583857Y-89106428D01*
X176673142Y-89135000D01*
X176737428Y-89192142D01*
X176773142Y-89249285D01*
X176816000Y-89363571D01*
X176826714Y-89449285D01*
X176812428Y-89563571D01*
X176791000Y-89620714D01*
X176741000Y-89677857D01*
X176658857Y-89706428D01*
X176601714Y-89706428D01*
X176512428Y-89677857D01*
X176480285Y-89649285D01*
X176455285Y-89449285D01*
X176569571Y-89449285D01*
X176041000Y-89106428D02*
X175926714Y-89106428D01*
X175873142Y-89135000D01*
X175823142Y-89192142D01*
X175808857Y-89306428D01*
X175833857Y-89506428D01*
X175876714Y-89620714D01*
X175941000Y-89677857D01*
X176001714Y-89706428D01*
X176116000Y-89706428D01*
X176169571Y-89677857D01*
X176219571Y-89620714D01*
X176233857Y-89506428D01*
X176208857Y-89306428D01*
X176166000Y-89192142D01*
X176101714Y-89135000D01*
X176041000Y-89106428D01*
X175601714Y-89706428D02*
X175526714Y-89106428D01*
X175258857Y-89706428D01*
X175183857Y-89106428D01*
X174687428Y-89706428D02*
X174973142Y-89706428D01*
X174898142Y-89106428D01*
X174487428Y-89706428D02*
X174412428Y-89106428D01*
X173816000Y-89135000D02*
X173869571Y-89106428D01*
X173955285Y-89106428D01*
X174044571Y-89135000D01*
X174108857Y-89192142D01*
X174144571Y-89249285D01*
X174187428Y-89363571D01*
X174198142Y-89449285D01*
X174183857Y-89563571D01*
X174162428Y-89620714D01*
X174112428Y-89677857D01*
X174030285Y-89706428D01*
X173973142Y-89706428D01*
X173883857Y-89677857D01*
X173851714Y-89649285D01*
X173826714Y-89449285D01*
X173941000Y-89449285D01*
X173601714Y-89706428D02*
X173526714Y-89106428D01*
X173562428Y-89392142D02*
X173219571Y-89392142D01*
X173258857Y-89706428D02*
X173183857Y-89106428D01*
X172983857Y-89106428D02*
X172641000Y-89106428D01*
X172887428Y-89706428D02*
X172812428Y-89106428D01*
X136583857Y-101796428D02*
X136508857Y-101196428D01*
X136241000Y-101796428D01*
X136166000Y-101196428D01*
X135605285Y-101739285D02*
X135637428Y-101767857D01*
X135726714Y-101796428D01*
X135783857Y-101796428D01*
X135866000Y-101767857D01*
X135916000Y-101710714D01*
X135937428Y-101653571D01*
X135951714Y-101539285D01*
X135941000Y-101453571D01*
X135898142Y-101339285D01*
X135862428Y-101282142D01*
X135798142Y-101225000D01*
X135708857Y-101196428D01*
X135651714Y-101196428D01*
X135569571Y-101225000D01*
X135544571Y-101253571D01*
X136583857Y-94396428D02*
X136508857Y-93796428D01*
X136241000Y-94396428D01*
X136166000Y-93796428D01*
X135605285Y-94339285D02*
X135637428Y-94367857D01*
X135726714Y-94396428D01*
X135783857Y-94396428D01*
X135866000Y-94367857D01*
X135916000Y-94310714D01*
X135937428Y-94253571D01*
X135951714Y-94139285D01*
X135941000Y-94053571D01*
X135898142Y-93939285D01*
X135862428Y-93882142D01*
X135798142Y-93825000D01*
X135708857Y-93796428D01*
X135651714Y-93796428D01*
X135569571Y-93825000D01*
X135544571Y-93853571D01*
X163348142Y-90225000D02*
X163401714Y-90196428D01*
X163487428Y-90196428D01*
X163576714Y-90225000D01*
X163641000Y-90282142D01*
X163676714Y-90339285D01*
X163719571Y-90453571D01*
X163730285Y-90539285D01*
X163716000Y-90653571D01*
X163694571Y-90710714D01*
X163644571Y-90767857D01*
X163562428Y-90796428D01*
X163505285Y-90796428D01*
X163416000Y-90767857D01*
X163383857Y-90739285D01*
X163358857Y-90539285D01*
X163473142Y-90539285D01*
X163133857Y-90796428D02*
X163058857Y-90196428D01*
X162791000Y-90796428D01*
X162716000Y-90196428D01*
X162505285Y-90796428D02*
X162430285Y-90196428D01*
X162287428Y-90196428D01*
X162205285Y-90225000D01*
X162155285Y-90282142D01*
X162133857Y-90339285D01*
X162119571Y-90453571D01*
X162130285Y-90539285D01*
X162173142Y-90653571D01*
X162208857Y-90710714D01*
X162273142Y-90767857D01*
X162362428Y-90796428D01*
X162505285Y-90796428D01*
X179623142Y-90225000D02*
X179676714Y-90196428D01*
X179762428Y-90196428D01*
X179851714Y-90225000D01*
X179916000Y-90282142D01*
X179951714Y-90339285D01*
X179994571Y-90453571D01*
X180005285Y-90539285D01*
X179991000Y-90653571D01*
X179969571Y-90710714D01*
X179919571Y-90767857D01*
X179837428Y-90796428D01*
X179780285Y-90796428D01*
X179691000Y-90767857D01*
X179658857Y-90739285D01*
X179633857Y-90539285D01*
X179748142Y-90539285D01*
X179408857Y-90796428D02*
X179333857Y-90196428D01*
X179066000Y-90796428D01*
X178991000Y-90196428D01*
X178780285Y-90796428D02*
X178705285Y-90196428D01*
X178562428Y-90196428D01*
X178480285Y-90225000D01*
X178430285Y-90282142D01*
X178408857Y-90339285D01*
X178394571Y-90453571D01*
X178405285Y-90539285D01*
X178448142Y-90653571D01*
X178483857Y-90710714D01*
X178548142Y-90767857D01*
X178637428Y-90796428D01*
X178780285Y-90796428D01*
X174223142Y-90225000D02*
X174276714Y-90196428D01*
X174362428Y-90196428D01*
X174451714Y-90225000D01*
X174516000Y-90282142D01*
X174551714Y-90339285D01*
X174594571Y-90453571D01*
X174605285Y-90539285D01*
X174591000Y-90653571D01*
X174569571Y-90710714D01*
X174519571Y-90767857D01*
X174437428Y-90796428D01*
X174380285Y-90796428D01*
X174291000Y-90767857D01*
X174258857Y-90739285D01*
X174233857Y-90539285D01*
X174348142Y-90539285D01*
X174008857Y-90796428D02*
X173933857Y-90196428D01*
X173666000Y-90796428D01*
X173591000Y-90196428D01*
X173380285Y-90796428D02*
X173305285Y-90196428D01*
X173162428Y-90196428D01*
X173080285Y-90225000D01*
X173030285Y-90282142D01*
X173008857Y-90339285D01*
X172994571Y-90453571D01*
X173005285Y-90539285D01*
X173048142Y-90653571D01*
X173083857Y-90710714D01*
X173148142Y-90767857D01*
X173237428Y-90796428D01*
X173380285Y-90796428D01*
X168798142Y-90225000D02*
X168851714Y-90196428D01*
X168937428Y-90196428D01*
X169026714Y-90225000D01*
X169091000Y-90282142D01*
X169126714Y-90339285D01*
X169169571Y-90453571D01*
X169180285Y-90539285D01*
X169166000Y-90653571D01*
X169144571Y-90710714D01*
X169094571Y-90767857D01*
X169012428Y-90796428D01*
X168955285Y-90796428D01*
X168866000Y-90767857D01*
X168833857Y-90739285D01*
X168808857Y-90539285D01*
X168923142Y-90539285D01*
X168583857Y-90796428D02*
X168508857Y-90196428D01*
X168241000Y-90796428D01*
X168166000Y-90196428D01*
X167955285Y-90796428D02*
X167880285Y-90196428D01*
X167737428Y-90196428D01*
X167655285Y-90225000D01*
X167605285Y-90282142D01*
X167583857Y-90339285D01*
X167569571Y-90453571D01*
X167580285Y-90539285D01*
X167623142Y-90653571D01*
X167658857Y-90710714D01*
X167723142Y-90767857D01*
X167812428Y-90796428D01*
X167955285Y-90796428D01*
X157798142Y-90225000D02*
X157851714Y-90196428D01*
X157937428Y-90196428D01*
X158026714Y-90225000D01*
X158091000Y-90282142D01*
X158126714Y-90339285D01*
X158169571Y-90453571D01*
X158180285Y-90539285D01*
X158166000Y-90653571D01*
X158144571Y-90710714D01*
X158094571Y-90767857D01*
X158012428Y-90796428D01*
X157955285Y-90796428D01*
X157866000Y-90767857D01*
X157833857Y-90739285D01*
X157808857Y-90539285D01*
X157923142Y-90539285D01*
X157583857Y-90796428D02*
X157508857Y-90196428D01*
X157241000Y-90796428D01*
X157166000Y-90196428D01*
X156955285Y-90796428D02*
X156880285Y-90196428D01*
X156737428Y-90196428D01*
X156655285Y-90225000D01*
X156605285Y-90282142D01*
X156583857Y-90339285D01*
X156569571Y-90453571D01*
X156580285Y-90539285D01*
X156623142Y-90653571D01*
X156658857Y-90710714D01*
X156723142Y-90767857D01*
X156812428Y-90796428D01*
X156955285Y-90796428D01*
X152448142Y-90225000D02*
X152501714Y-90196428D01*
X152587428Y-90196428D01*
X152676714Y-90225000D01*
X152741000Y-90282142D01*
X152776714Y-90339285D01*
X152819571Y-90453571D01*
X152830285Y-90539285D01*
X152816000Y-90653571D01*
X152794571Y-90710714D01*
X152744571Y-90767857D01*
X152662428Y-90796428D01*
X152605285Y-90796428D01*
X152516000Y-90767857D01*
X152483857Y-90739285D01*
X152458857Y-90539285D01*
X152573142Y-90539285D01*
X152233857Y-90796428D02*
X152158857Y-90196428D01*
X151891000Y-90796428D01*
X151816000Y-90196428D01*
X151605285Y-90796428D02*
X151530285Y-90196428D01*
X151387428Y-90196428D01*
X151305285Y-90225000D01*
X151255285Y-90282142D01*
X151233857Y-90339285D01*
X151219571Y-90453571D01*
X151230285Y-90539285D01*
X151273142Y-90653571D01*
X151308857Y-90710714D01*
X151373142Y-90767857D01*
X151462428Y-90796428D01*
X151605285Y-90796428D01*
X146998142Y-90225000D02*
X147051714Y-90196428D01*
X147137428Y-90196428D01*
X147226714Y-90225000D01*
X147291000Y-90282142D01*
X147326714Y-90339285D01*
X147369571Y-90453571D01*
X147380285Y-90539285D01*
X147366000Y-90653571D01*
X147344571Y-90710714D01*
X147294571Y-90767857D01*
X147212428Y-90796428D01*
X147155285Y-90796428D01*
X147066000Y-90767857D01*
X147033857Y-90739285D01*
X147008857Y-90539285D01*
X147123142Y-90539285D01*
X146783857Y-90796428D02*
X146708857Y-90196428D01*
X146441000Y-90796428D01*
X146366000Y-90196428D01*
X146155285Y-90796428D02*
X146080285Y-90196428D01*
X145937428Y-90196428D01*
X145855285Y-90225000D01*
X145805285Y-90282142D01*
X145783857Y-90339285D01*
X145769571Y-90453571D01*
X145780285Y-90539285D01*
X145823142Y-90653571D01*
X145858857Y-90710714D01*
X145923142Y-90767857D01*
X146012428Y-90796428D01*
X146155285Y-90796428D01*
X141548142Y-90225000D02*
X141601714Y-90196428D01*
X141687428Y-90196428D01*
X141776714Y-90225000D01*
X141841000Y-90282142D01*
X141876714Y-90339285D01*
X141919571Y-90453571D01*
X141930285Y-90539285D01*
X141916000Y-90653571D01*
X141894571Y-90710714D01*
X141844571Y-90767857D01*
X141762428Y-90796428D01*
X141705285Y-90796428D01*
X141616000Y-90767857D01*
X141583857Y-90739285D01*
X141558857Y-90539285D01*
X141673142Y-90539285D01*
X141333857Y-90796428D02*
X141258857Y-90196428D01*
X140991000Y-90796428D01*
X140916000Y-90196428D01*
X140705285Y-90796428D02*
X140630285Y-90196428D01*
X140487428Y-90196428D01*
X140405285Y-90225000D01*
X140355285Y-90282142D01*
X140333857Y-90339285D01*
X140319571Y-90453571D01*
X140330285Y-90539285D01*
X140373142Y-90653571D01*
X140408857Y-90710714D01*
X140473142Y-90767857D01*
X140562428Y-90796428D01*
X140705285Y-90796428D01*
X152098142Y-108321428D02*
X152262428Y-108035714D01*
X152441000Y-108321428D02*
X152366000Y-107721428D01*
X152137428Y-107721428D01*
X152083857Y-107750000D01*
X152058857Y-107778571D01*
X152037428Y-107835714D01*
X152048142Y-107921428D01*
X152083857Y-107978571D01*
X152116000Y-108007142D01*
X152176714Y-108035714D01*
X152405285Y-108035714D01*
X151608857Y-108292857D02*
X151669571Y-108321428D01*
X151783857Y-108321428D01*
X151837428Y-108292857D01*
X151858857Y-108235714D01*
X151830285Y-108007142D01*
X151794571Y-107950000D01*
X151733857Y-107921428D01*
X151619571Y-107921428D01*
X151566000Y-107950000D01*
X151544571Y-108007142D01*
X151551714Y-108064285D01*
X151844571Y-108121428D01*
X151333857Y-107921428D02*
X151241000Y-108321428D01*
X151048142Y-107921428D01*
X150223142Y-107721428D02*
X150166000Y-107721428D01*
X150112428Y-107750000D01*
X150087428Y-107778571D01*
X150066000Y-107835714D01*
X150051714Y-107950000D01*
X150069571Y-108092857D01*
X150112428Y-108207142D01*
X150148142Y-108264285D01*
X150180285Y-108292857D01*
X150241000Y-108321428D01*
X150298142Y-108321428D01*
X150351714Y-108292857D01*
X150376714Y-108264285D01*
X150398142Y-108207142D01*
X150412428Y-108092857D01*
X150394571Y-107950000D01*
X150351714Y-107835714D01*
X150316000Y-107778571D01*
X150283857Y-107750000D01*
X150223142Y-107721428D01*
X149526714Y-108321428D02*
X149869571Y-108321428D01*
X149698142Y-108321428D02*
X149623142Y-107721428D01*
X149691000Y-107807142D01*
X149755285Y-107864285D01*
X149816000Y-107892857D01*
X148819571Y-108150000D02*
X148533857Y-108150000D01*
X148898142Y-108321428D02*
X148623142Y-107721428D01*
X148498142Y-108321428D01*
X148041000Y-108321428D02*
X147966000Y-107721428D01*
X148037428Y-108292857D02*
X148098142Y-108321428D01*
X148212428Y-108321428D01*
X148266000Y-108292857D01*
X148291000Y-108264285D01*
X148312428Y-108207142D01*
X148291000Y-108035714D01*
X148255285Y-107978571D01*
X148223142Y-107950000D01*
X148162428Y-107921428D01*
X148048142Y-107921428D01*
X147994571Y-107950000D01*
X147498142Y-108321428D02*
X147458857Y-108007142D01*
X147480285Y-107950000D01*
X147533857Y-107921428D01*
X147648142Y-107921428D01*
X147708857Y-107950000D01*
X147494571Y-108292857D02*
X147555285Y-108321428D01*
X147698142Y-108321428D01*
X147751714Y-108292857D01*
X147773142Y-108235714D01*
X147766000Y-108178571D01*
X147730285Y-108121428D01*
X147669571Y-108092857D01*
X147526714Y-108092857D01*
X147466000Y-108064285D01*
X147212428Y-108321428D02*
X147162428Y-107921428D01*
X147169571Y-107978571D02*
X147137428Y-107950000D01*
X147076714Y-107921428D01*
X146991000Y-107921428D01*
X146937428Y-107950000D01*
X146916000Y-108007142D01*
X146955285Y-108321428D01*
X146916000Y-108007142D02*
X146880285Y-107950000D01*
X146819571Y-107921428D01*
X146733857Y-107921428D01*
X146680285Y-107950000D01*
X146658857Y-108007142D01*
X146698142Y-108321428D01*
X146423142Y-107721428D02*
X146080285Y-107721428D01*
X146326714Y-108321428D02*
X146251714Y-107721428D01*
X145641000Y-108321428D02*
X145983857Y-108321428D01*
X145812428Y-108321428D02*
X145737428Y-107721428D01*
X145805285Y-107807142D01*
X145869571Y-107864285D01*
X145930285Y-107892857D01*
X145069571Y-108321428D02*
X145412428Y-108321428D01*
X145241000Y-108321428D02*
X145166000Y-107721428D01*
X145233857Y-107807142D01*
X145298142Y-107864285D01*
X145358857Y-107892857D01*
X144794571Y-107721428D02*
X144394571Y-107721428D01*
X144726714Y-108321428D01*
X143641000Y-108550000D02*
X143666000Y-108521428D01*
X143712428Y-108435714D01*
X143733857Y-108378571D01*
X143751714Y-108292857D01*
X143762428Y-108150000D01*
X143748142Y-108035714D01*
X143701714Y-107892857D01*
X143662428Y-107807142D01*
X143626714Y-107750000D01*
X143558857Y-107664285D01*
X143526714Y-107635714D01*
X143383857Y-108321428D02*
X143308857Y-107721428D01*
X143298142Y-108092857D02*
X143155285Y-108321428D01*
X143105285Y-107921428D02*
X143362428Y-108150000D01*
X142641000Y-108321428D02*
X142601714Y-108007142D01*
X142623142Y-107950000D01*
X142676714Y-107921428D01*
X142791000Y-107921428D01*
X142851714Y-107950000D01*
X142637428Y-108292857D02*
X142698142Y-108321428D01*
X142841000Y-108321428D01*
X142894571Y-108292857D01*
X142916000Y-108235714D01*
X142908857Y-108178571D01*
X142873142Y-108121428D01*
X142812428Y-108092857D01*
X142669571Y-108092857D01*
X142608857Y-108064285D01*
X142362428Y-107921428D02*
X142269571Y-108321428D01*
X142076714Y-107921428D02*
X142269571Y-108321428D01*
X142344571Y-108464285D01*
X142376714Y-108492857D01*
X142437428Y-108521428D01*
X141933857Y-107921428D02*
X141705285Y-107921428D01*
X141823142Y-107721428D02*
X141887428Y-108235714D01*
X141866000Y-108292857D01*
X141812428Y-108321428D01*
X141755285Y-108321428D01*
X141469571Y-108321428D02*
X141523142Y-108292857D01*
X141548142Y-108264285D01*
X141569571Y-108207142D01*
X141548142Y-108035714D01*
X141512428Y-107978571D01*
X141480285Y-107950000D01*
X141419571Y-107921428D01*
X141333857Y-107921428D01*
X141280285Y-107950000D01*
X141255285Y-107978571D01*
X141233857Y-108035714D01*
X141255285Y-108207142D01*
X141291000Y-108264285D01*
X141323142Y-108292857D01*
X141383857Y-108321428D01*
X141469571Y-108321428D01*
X140605285Y-108035714D02*
X140630285Y-108007142D01*
X140683857Y-107978571D01*
X140741000Y-107978571D01*
X140801714Y-108007142D01*
X140833857Y-108035714D01*
X140869571Y-108092857D01*
X140876714Y-108150000D01*
X140855285Y-108207142D01*
X140830285Y-108235714D01*
X140776714Y-108264285D01*
X140719571Y-108264285D01*
X140658857Y-108235714D01*
X140626714Y-108207142D01*
X140598142Y-107978571D02*
X140626714Y-108207142D01*
X140601714Y-108235714D01*
X140573142Y-108235714D01*
X140512428Y-108207142D01*
X140476714Y-108150000D01*
X140458857Y-108007142D01*
X140505285Y-107921428D01*
X140583857Y-107864285D01*
X140694571Y-107835714D01*
X140812428Y-107864285D01*
X140905285Y-107921428D01*
X140973142Y-108007142D01*
X141016000Y-108121428D01*
X141001714Y-108235714D01*
X140955285Y-108321428D01*
X140876714Y-108378571D01*
X140766000Y-108407142D01*
X140648142Y-108378571D01*
X140555285Y-108321428D01*
X139933857Y-107921428D02*
X139994571Y-108407142D01*
X140030285Y-108464285D01*
X140062428Y-108492857D01*
X140123142Y-108521428D01*
X140208857Y-108521428D01*
X140262428Y-108492857D01*
X139980285Y-108292857D02*
X140041000Y-108321428D01*
X140155285Y-108321428D01*
X140208857Y-108292857D01*
X140233857Y-108264285D01*
X140255285Y-108207142D01*
X140233857Y-108035714D01*
X140198142Y-107978571D01*
X140166000Y-107950000D01*
X140105285Y-107921428D01*
X139991000Y-107921428D01*
X139937428Y-107950000D01*
X139698142Y-108321428D02*
X139648142Y-107921428D01*
X139623142Y-107721428D02*
X139655285Y-107750000D01*
X139630285Y-107778571D01*
X139598142Y-107750000D01*
X139623142Y-107721428D01*
X139630285Y-107778571D01*
X139448142Y-107921428D02*
X139219571Y-107921428D01*
X139337428Y-107721428D02*
X139401714Y-108235714D01*
X139380285Y-108292857D01*
X139326714Y-108321428D01*
X139269571Y-108321428D01*
X139069571Y-108321428D02*
X138994571Y-107721428D01*
X138812428Y-108321428D02*
X138773142Y-108007142D01*
X138794571Y-107950000D01*
X138848142Y-107921428D01*
X138933857Y-107921428D01*
X138994571Y-107950000D01*
X139026714Y-107978571D01*
X138219571Y-107921428D02*
X138269571Y-108321428D01*
X138476714Y-107921428D02*
X138516000Y-108235714D01*
X138494571Y-108292857D01*
X138441000Y-108321428D01*
X138355285Y-108321428D01*
X138294571Y-108292857D01*
X138262428Y-108264285D01*
X137983857Y-108321428D02*
X137908857Y-107721428D01*
X137937428Y-107950000D02*
X137876714Y-107921428D01*
X137762428Y-107921428D01*
X137708857Y-107950000D01*
X137683857Y-107978571D01*
X137662428Y-108035714D01*
X137683857Y-108207142D01*
X137719571Y-108264285D01*
X137751714Y-108292857D01*
X137812428Y-108321428D01*
X137926714Y-108321428D01*
X137980285Y-108292857D01*
X137433857Y-108264285D02*
X137408857Y-108292857D01*
X137441000Y-108321428D01*
X137466000Y-108292857D01*
X137433857Y-108264285D01*
X137441000Y-108321428D01*
X136894571Y-108292857D02*
X136955285Y-108321428D01*
X137069571Y-108321428D01*
X137123142Y-108292857D01*
X137148142Y-108264285D01*
X137169571Y-108207142D01*
X137148142Y-108035714D01*
X137112428Y-107978571D01*
X137080285Y-107950000D01*
X137019571Y-107921428D01*
X136905285Y-107921428D01*
X136851714Y-107950000D01*
X136555285Y-108321428D02*
X136608857Y-108292857D01*
X136633857Y-108264285D01*
X136655285Y-108207142D01*
X136633857Y-108035714D01*
X136598142Y-107978571D01*
X136566000Y-107950000D01*
X136505285Y-107921428D01*
X136419571Y-107921428D01*
X136366000Y-107950000D01*
X136341000Y-107978571D01*
X136319571Y-108035714D01*
X136341000Y-108207142D01*
X136376714Y-108264285D01*
X136408857Y-108292857D01*
X136469571Y-108321428D01*
X136555285Y-108321428D01*
X136098142Y-108321428D02*
X136048142Y-107921428D01*
X136055285Y-107978571D02*
X136023142Y-107950000D01*
X135962428Y-107921428D01*
X135876714Y-107921428D01*
X135823142Y-107950000D01*
X135801714Y-108007142D01*
X135841000Y-108321428D01*
X135801714Y-108007142D02*
X135766000Y-107950000D01*
X135705285Y-107921428D01*
X135619571Y-107921428D01*
X135566000Y-107950000D01*
X135544571Y-108007142D01*
X135583857Y-108321428D01*
X135383857Y-108550000D02*
X135351714Y-108521428D01*
X135283857Y-108435714D01*
X135248142Y-108378571D01*
X135208857Y-108292857D01*
X135162428Y-108150000D01*
X135148142Y-108035714D01*
X135158857Y-107892857D01*
X135176714Y-107807142D01*
X135198142Y-107750000D01*
X135244571Y-107664285D01*
X135269571Y-107635714D01*
D11*
%TO.C,REF\u002A\u002A*%
G36*
X175296090Y-102817348D02*
G01*
X175217546Y-102817778D01*
X175160702Y-102818942D01*
X175121895Y-102821207D01*
X175097462Y-102824940D01*
X175083738Y-102830506D01*
X175077060Y-102838273D01*
X175073764Y-102848605D01*
X175073444Y-102849943D01*
X175068438Y-102874079D01*
X175059171Y-102921701D01*
X175046608Y-102987741D01*
X175031713Y-103067128D01*
X175015449Y-103154796D01*
X175014881Y-103157875D01*
X174998590Y-103243789D01*
X174983348Y-103319696D01*
X174970139Y-103381045D01*
X174959946Y-103423282D01*
X174953752Y-103441855D01*
X174953457Y-103442184D01*
X174935212Y-103451253D01*
X174897595Y-103466367D01*
X174848729Y-103484262D01*
X174848457Y-103484358D01*
X174786907Y-103507493D01*
X174714343Y-103536965D01*
X174645943Y-103566597D01*
X174642706Y-103568062D01*
X174531298Y-103618626D01*
X174284601Y-103450160D01*
X174208923Y-103398803D01*
X174140369Y-103352889D01*
X174082912Y-103315030D01*
X174040524Y-103287837D01*
X174017175Y-103273921D01*
X174014958Y-103272889D01*
X173997990Y-103277484D01*
X173966299Y-103299655D01*
X173918648Y-103340447D01*
X173853802Y-103400905D01*
X173787603Y-103465227D01*
X173723786Y-103528612D01*
X173666671Y-103586451D01*
X173619695Y-103635175D01*
X173586297Y-103671210D01*
X173569915Y-103690984D01*
X173569306Y-103692002D01*
X173567495Y-103705572D01*
X173574317Y-103727733D01*
X173591460Y-103761478D01*
X173620607Y-103809800D01*
X173663445Y-103875692D01*
X173720552Y-103960517D01*
X173771234Y-104035177D01*
X173816539Y-104102140D01*
X173853850Y-104157516D01*
X173880548Y-104197420D01*
X173894015Y-104217962D01*
X173894863Y-104219356D01*
X173893219Y-104239038D01*
X173880755Y-104277293D01*
X173859952Y-104326889D01*
X173852538Y-104342728D01*
X173820186Y-104413290D01*
X173785672Y-104493353D01*
X173757635Y-104562629D01*
X173737432Y-104614045D01*
X173721385Y-104653119D01*
X173712112Y-104673541D01*
X173710959Y-104675114D01*
X173693904Y-104677721D01*
X173653702Y-104684863D01*
X173595698Y-104695523D01*
X173525237Y-104708685D01*
X173447665Y-104723333D01*
X173368328Y-104738449D01*
X173292569Y-104753018D01*
X173225736Y-104766022D01*
X173173172Y-104776445D01*
X173140224Y-104783270D01*
X173132143Y-104785199D01*
X173123795Y-104789962D01*
X173117494Y-104800718D01*
X173112955Y-104821098D01*
X173109896Y-104854734D01*
X173108033Y-104905255D01*
X173107082Y-104976292D01*
X173106760Y-105071476D01*
X173106743Y-105110492D01*
X173106743Y-105427799D01*
X173182943Y-105442839D01*
X173225337Y-105450995D01*
X173288600Y-105462899D01*
X173365038Y-105477116D01*
X173446957Y-105492210D01*
X173469600Y-105496355D01*
X173545194Y-105511053D01*
X173611047Y-105525505D01*
X173661634Y-105538375D01*
X173691426Y-105548322D01*
X173696388Y-105551287D01*
X173708574Y-105572283D01*
X173726047Y-105612967D01*
X173745423Y-105665322D01*
X173749266Y-105676600D01*
X173774661Y-105746523D01*
X173806183Y-105825418D01*
X173837031Y-105896266D01*
X173837183Y-105896595D01*
X173888553Y-106007733D01*
X173719601Y-106256253D01*
X173550648Y-106504772D01*
X173767571Y-106722058D01*
X173833181Y-106786726D01*
X173893021Y-106843733D01*
X173943733Y-106890033D01*
X173981954Y-106922584D01*
X174004325Y-106938343D01*
X174007534Y-106939343D01*
X174026374Y-106931469D01*
X174064820Y-106909578D01*
X174118670Y-106876267D01*
X174183724Y-106834131D01*
X174254060Y-106786943D01*
X174325445Y-106738810D01*
X174389092Y-106696928D01*
X174440959Y-106663871D01*
X174477005Y-106642218D01*
X174493133Y-106634543D01*
X174512811Y-106641037D01*
X174550125Y-106658150D01*
X174597379Y-106682326D01*
X174602388Y-106685013D01*
X174666023Y-106716927D01*
X174709659Y-106732579D01*
X174736798Y-106732745D01*
X174750943Y-106718204D01*
X174751025Y-106718000D01*
X174758095Y-106700779D01*
X174774958Y-106659899D01*
X174800305Y-106598525D01*
X174832829Y-106519819D01*
X174871222Y-106426947D01*
X174914178Y-106323072D01*
X174955778Y-106222502D01*
X175001496Y-106111516D01*
X175043474Y-106008703D01*
X175080452Y-105917215D01*
X175111173Y-105840201D01*
X175134378Y-105780815D01*
X175148810Y-105742209D01*
X175153257Y-105727800D01*
X175142104Y-105711272D01*
X175112931Y-105684930D01*
X175074029Y-105655887D01*
X174963243Y-105564039D01*
X174876649Y-105458759D01*
X174815284Y-105342266D01*
X174780185Y-105216776D01*
X174772392Y-105084507D01*
X174778057Y-105023457D01*
X174808922Y-104896795D01*
X174862080Y-104784941D01*
X174934233Y-104689001D01*
X175022083Y-104610076D01*
X175122335Y-104549270D01*
X175231690Y-104507687D01*
X175346853Y-104486428D01*
X175464525Y-104486599D01*
X175581410Y-104509301D01*
X175694211Y-104555638D01*
X175799631Y-104626713D01*
X175843632Y-104666911D01*
X175928021Y-104770129D01*
X175986778Y-104882925D01*
X176020296Y-105002010D01*
X176028965Y-105124095D01*
X176013177Y-105245893D01*
X175973322Y-105364116D01*
X175909793Y-105475475D01*
X175822979Y-105576684D01*
X175725971Y-105655887D01*
X175685563Y-105686162D01*
X175657018Y-105712219D01*
X175646743Y-105727825D01*
X175652123Y-105744843D01*
X175667425Y-105785500D01*
X175691388Y-105846642D01*
X175722756Y-105925119D01*
X175760268Y-106017780D01*
X175802667Y-106121472D01*
X175844337Y-106222526D01*
X175890310Y-106333607D01*
X175932893Y-106436541D01*
X175970779Y-106528165D01*
X176002660Y-106605316D01*
X176027229Y-106664831D01*
X176043180Y-106703544D01*
X176049090Y-106718000D01*
X176063052Y-106732685D01*
X176090060Y-106732642D01*
X176133587Y-106717099D01*
X176197110Y-106685284D01*
X176197612Y-106685013D01*
X176245440Y-106660323D01*
X176284103Y-106642338D01*
X176305905Y-106634614D01*
X176306867Y-106634543D01*
X176323279Y-106642378D01*
X176359513Y-106664165D01*
X176411526Y-106697328D01*
X176475275Y-106739291D01*
X176545940Y-106786943D01*
X176617884Y-106835191D01*
X176682726Y-106877151D01*
X176736265Y-106910227D01*
X176774303Y-106931821D01*
X176792467Y-106939343D01*
X176809192Y-106929457D01*
X176842820Y-106901826D01*
X176889990Y-106859495D01*
X176947342Y-106805505D01*
X177011516Y-106742899D01*
X177032503Y-106721983D01*
X177249501Y-106504623D01*
X177084332Y-106262220D01*
X177034136Y-106187781D01*
X176990081Y-106120972D01*
X176954638Y-106065665D01*
X176930281Y-106025729D01*
X176919478Y-106005036D01*
X176919162Y-106003563D01*
X176924857Y-105984058D01*
X176940174Y-105944822D01*
X176962463Y-105892430D01*
X176978107Y-105857355D01*
X177007359Y-105790201D01*
X177034906Y-105722358D01*
X177056263Y-105665034D01*
X177062065Y-105647572D01*
X177078548Y-105600938D01*
X177094660Y-105564905D01*
X177103510Y-105551287D01*
X177123040Y-105542952D01*
X177165666Y-105531137D01*
X177225855Y-105517181D01*
X177298078Y-105502422D01*
X177330400Y-105496355D01*
X177412478Y-105481273D01*
X177491205Y-105466669D01*
X177558891Y-105453980D01*
X177607840Y-105444642D01*
X177617057Y-105442839D01*
X177693257Y-105427799D01*
X177693257Y-105110492D01*
X177693086Y-105006154D01*
X177692384Y-104927213D01*
X177690866Y-104870038D01*
X177688251Y-104830999D01*
X177684254Y-104806465D01*
X177678591Y-104792805D01*
X177670980Y-104786389D01*
X177667857Y-104785199D01*
X177649022Y-104780980D01*
X177607412Y-104772562D01*
X177548370Y-104760961D01*
X177477243Y-104747195D01*
X177399375Y-104732280D01*
X177320113Y-104717232D01*
X177244802Y-104703069D01*
X177178787Y-104690806D01*
X177127413Y-104681461D01*
X177096025Y-104676050D01*
X177089041Y-104675114D01*
X177082715Y-104662596D01*
X177068710Y-104629246D01*
X177049645Y-104581377D01*
X177042366Y-104562629D01*
X177013004Y-104490195D01*
X176978429Y-104410170D01*
X176947463Y-104342728D01*
X176924677Y-104291159D01*
X176909518Y-104248785D01*
X176904458Y-104222834D01*
X176905264Y-104219356D01*
X176915959Y-104202936D01*
X176940380Y-104166417D01*
X176975905Y-104113687D01*
X177019913Y-104048635D01*
X177069783Y-103975151D01*
X177079644Y-103960645D01*
X177137508Y-103874704D01*
X177180044Y-103809261D01*
X177208946Y-103761304D01*
X177225910Y-103727820D01*
X177232633Y-103705795D01*
X177230810Y-103692217D01*
X177230764Y-103692131D01*
X177216414Y-103674297D01*
X177184677Y-103639817D01*
X177138990Y-103592268D01*
X177082796Y-103535222D01*
X177019532Y-103472255D01*
X177012398Y-103465227D01*
X176932670Y-103388020D01*
X176871143Y-103331330D01*
X176826579Y-103294110D01*
X176797743Y-103275315D01*
X176785042Y-103272889D01*
X176766506Y-103283471D01*
X176728039Y-103307916D01*
X176673614Y-103343612D01*
X176607202Y-103387947D01*
X176532775Y-103438311D01*
X176515399Y-103450160D01*
X176268703Y-103618626D01*
X176157294Y-103568062D01*
X176089543Y-103538595D01*
X176016817Y-103508959D01*
X175954297Y-103485330D01*
X175951543Y-103484358D01*
X175902640Y-103466457D01*
X175864943Y-103451320D01*
X175846575Y-103442210D01*
X175846544Y-103442184D01*
X175840715Y-103425717D01*
X175830808Y-103385219D01*
X175817805Y-103325242D01*
X175802691Y-103250340D01*
X175786448Y-103165064D01*
X175785119Y-103157875D01*
X175768825Y-103070014D01*
X175753867Y-102990260D01*
X175741209Y-102923681D01*
X175731814Y-102875347D01*
X175726646Y-102850325D01*
X175726556Y-102849943D01*
X175723411Y-102839299D01*
X175717296Y-102831262D01*
X175704547Y-102825467D01*
X175681500Y-102821547D01*
X175644491Y-102819135D01*
X175589856Y-102817865D01*
X175513933Y-102817371D01*
X175413056Y-102817286D01*
X175400000Y-102817286D01*
X175296090Y-102817348D01*
G37*
X175296090Y-102817348D02*
X175217546Y-102817778D01*
X175160702Y-102818942D01*
X175121895Y-102821207D01*
X175097462Y-102824940D01*
X175083738Y-102830506D01*
X175077060Y-102838273D01*
X175073764Y-102848605D01*
X175073444Y-102849943D01*
X175068438Y-102874079D01*
X175059171Y-102921701D01*
X175046608Y-102987741D01*
X175031713Y-103067128D01*
X175015449Y-103154796D01*
X175014881Y-103157875D01*
X174998590Y-103243789D01*
X174983348Y-103319696D01*
X174970139Y-103381045D01*
X174959946Y-103423282D01*
X174953752Y-103441855D01*
X174953457Y-103442184D01*
X174935212Y-103451253D01*
X174897595Y-103466367D01*
X174848729Y-103484262D01*
X174848457Y-103484358D01*
X174786907Y-103507493D01*
X174714343Y-103536965D01*
X174645943Y-103566597D01*
X174642706Y-103568062D01*
X174531298Y-103618626D01*
X174284601Y-103450160D01*
X174208923Y-103398803D01*
X174140369Y-103352889D01*
X174082912Y-103315030D01*
X174040524Y-103287837D01*
X174017175Y-103273921D01*
X174014958Y-103272889D01*
X173997990Y-103277484D01*
X173966299Y-103299655D01*
X173918648Y-103340447D01*
X173853802Y-103400905D01*
X173787603Y-103465227D01*
X173723786Y-103528612D01*
X173666671Y-103586451D01*
X173619695Y-103635175D01*
X173586297Y-103671210D01*
X173569915Y-103690984D01*
X173569306Y-103692002D01*
X173567495Y-103705572D01*
X173574317Y-103727733D01*
X173591460Y-103761478D01*
X173620607Y-103809800D01*
X173663445Y-103875692D01*
X173720552Y-103960517D01*
X173771234Y-104035177D01*
X173816539Y-104102140D01*
X173853850Y-104157516D01*
X173880548Y-104197420D01*
X173894015Y-104217962D01*
X173894863Y-104219356D01*
X173893219Y-104239038D01*
X173880755Y-104277293D01*
X173859952Y-104326889D01*
X173852538Y-104342728D01*
X173820186Y-104413290D01*
X173785672Y-104493353D01*
X173757635Y-104562629D01*
X173737432Y-104614045D01*
X173721385Y-104653119D01*
X173712112Y-104673541D01*
X173710959Y-104675114D01*
X173693904Y-104677721D01*
X173653702Y-104684863D01*
X173595698Y-104695523D01*
X173525237Y-104708685D01*
X173447665Y-104723333D01*
X173368328Y-104738449D01*
X173292569Y-104753018D01*
X173225736Y-104766022D01*
X173173172Y-104776445D01*
X173140224Y-104783270D01*
X173132143Y-104785199D01*
X173123795Y-104789962D01*
X173117494Y-104800718D01*
X173112955Y-104821098D01*
X173109896Y-104854734D01*
X173108033Y-104905255D01*
X173107082Y-104976292D01*
X173106760Y-105071476D01*
X173106743Y-105110492D01*
X173106743Y-105427799D01*
X173182943Y-105442839D01*
X173225337Y-105450995D01*
X173288600Y-105462899D01*
X173365038Y-105477116D01*
X173446957Y-105492210D01*
X173469600Y-105496355D01*
X173545194Y-105511053D01*
X173611047Y-105525505D01*
X173661634Y-105538375D01*
X173691426Y-105548322D01*
X173696388Y-105551287D01*
X173708574Y-105572283D01*
X173726047Y-105612967D01*
X173745423Y-105665322D01*
X173749266Y-105676600D01*
X173774661Y-105746523D01*
X173806183Y-105825418D01*
X173837031Y-105896266D01*
X173837183Y-105896595D01*
X173888553Y-106007733D01*
X173719601Y-106256253D01*
X173550648Y-106504772D01*
X173767571Y-106722058D01*
X173833181Y-106786726D01*
X173893021Y-106843733D01*
X173943733Y-106890033D01*
X173981954Y-106922584D01*
X174004325Y-106938343D01*
X174007534Y-106939343D01*
X174026374Y-106931469D01*
X174064820Y-106909578D01*
X174118670Y-106876267D01*
X174183724Y-106834131D01*
X174254060Y-106786943D01*
X174325445Y-106738810D01*
X174389092Y-106696928D01*
X174440959Y-106663871D01*
X174477005Y-106642218D01*
X174493133Y-106634543D01*
X174512811Y-106641037D01*
X174550125Y-106658150D01*
X174597379Y-106682326D01*
X174602388Y-106685013D01*
X174666023Y-106716927D01*
X174709659Y-106732579D01*
X174736798Y-106732745D01*
X174750943Y-106718204D01*
X174751025Y-106718000D01*
X174758095Y-106700779D01*
X174774958Y-106659899D01*
X174800305Y-106598525D01*
X174832829Y-106519819D01*
X174871222Y-106426947D01*
X174914178Y-106323072D01*
X174955778Y-106222502D01*
X175001496Y-106111516D01*
X175043474Y-106008703D01*
X175080452Y-105917215D01*
X175111173Y-105840201D01*
X175134378Y-105780815D01*
X175148810Y-105742209D01*
X175153257Y-105727800D01*
X175142104Y-105711272D01*
X175112931Y-105684930D01*
X175074029Y-105655887D01*
X174963243Y-105564039D01*
X174876649Y-105458759D01*
X174815284Y-105342266D01*
X174780185Y-105216776D01*
X174772392Y-105084507D01*
X174778057Y-105023457D01*
X174808922Y-104896795D01*
X174862080Y-104784941D01*
X174934233Y-104689001D01*
X175022083Y-104610076D01*
X175122335Y-104549270D01*
X175231690Y-104507687D01*
X175346853Y-104486428D01*
X175464525Y-104486599D01*
X175581410Y-104509301D01*
X175694211Y-104555638D01*
X175799631Y-104626713D01*
X175843632Y-104666911D01*
X175928021Y-104770129D01*
X175986778Y-104882925D01*
X176020296Y-105002010D01*
X176028965Y-105124095D01*
X176013177Y-105245893D01*
X175973322Y-105364116D01*
X175909793Y-105475475D01*
X175822979Y-105576684D01*
X175725971Y-105655887D01*
X175685563Y-105686162D01*
X175657018Y-105712219D01*
X175646743Y-105727825D01*
X175652123Y-105744843D01*
X175667425Y-105785500D01*
X175691388Y-105846642D01*
X175722756Y-105925119D01*
X175760268Y-106017780D01*
X175802667Y-106121472D01*
X175844337Y-106222526D01*
X175890310Y-106333607D01*
X175932893Y-106436541D01*
X175970779Y-106528165D01*
X176002660Y-106605316D01*
X176027229Y-106664831D01*
X176043180Y-106703544D01*
X176049090Y-106718000D01*
X176063052Y-106732685D01*
X176090060Y-106732642D01*
X176133587Y-106717099D01*
X176197110Y-106685284D01*
X176197612Y-106685013D01*
X176245440Y-106660323D01*
X176284103Y-106642338D01*
X176305905Y-106634614D01*
X176306867Y-106634543D01*
X176323279Y-106642378D01*
X176359513Y-106664165D01*
X176411526Y-106697328D01*
X176475275Y-106739291D01*
X176545940Y-106786943D01*
X176617884Y-106835191D01*
X176682726Y-106877151D01*
X176736265Y-106910227D01*
X176774303Y-106931821D01*
X176792467Y-106939343D01*
X176809192Y-106929457D01*
X176842820Y-106901826D01*
X176889990Y-106859495D01*
X176947342Y-106805505D01*
X177011516Y-106742899D01*
X177032503Y-106721983D01*
X177249501Y-106504623D01*
X177084332Y-106262220D01*
X177034136Y-106187781D01*
X176990081Y-106120972D01*
X176954638Y-106065665D01*
X176930281Y-106025729D01*
X176919478Y-106005036D01*
X176919162Y-106003563D01*
X176924857Y-105984058D01*
X176940174Y-105944822D01*
X176962463Y-105892430D01*
X176978107Y-105857355D01*
X177007359Y-105790201D01*
X177034906Y-105722358D01*
X177056263Y-105665034D01*
X177062065Y-105647572D01*
X177078548Y-105600938D01*
X177094660Y-105564905D01*
X177103510Y-105551287D01*
X177123040Y-105542952D01*
X177165666Y-105531137D01*
X177225855Y-105517181D01*
X177298078Y-105502422D01*
X177330400Y-105496355D01*
X177412478Y-105481273D01*
X177491205Y-105466669D01*
X177558891Y-105453980D01*
X177607840Y-105444642D01*
X177617057Y-105442839D01*
X177693257Y-105427799D01*
X177693257Y-105110492D01*
X177693086Y-105006154D01*
X177692384Y-104927213D01*
X177690866Y-104870038D01*
X177688251Y-104830999D01*
X177684254Y-104806465D01*
X177678591Y-104792805D01*
X177670980Y-104786389D01*
X177667857Y-104785199D01*
X177649022Y-104780980D01*
X177607412Y-104772562D01*
X177548370Y-104760961D01*
X177477243Y-104747195D01*
X177399375Y-104732280D01*
X177320113Y-104717232D01*
X177244802Y-104703069D01*
X177178787Y-104690806D01*
X177127413Y-104681461D01*
X177096025Y-104676050D01*
X177089041Y-104675114D01*
X177082715Y-104662596D01*
X177068710Y-104629246D01*
X177049645Y-104581377D01*
X177042366Y-104562629D01*
X177013004Y-104490195D01*
X176978429Y-104410170D01*
X176947463Y-104342728D01*
X176924677Y-104291159D01*
X176909518Y-104248785D01*
X176904458Y-104222834D01*
X176905264Y-104219356D01*
X176915959Y-104202936D01*
X176940380Y-104166417D01*
X176975905Y-104113687D01*
X177019913Y-104048635D01*
X177069783Y-103975151D01*
X177079644Y-103960645D01*
X177137508Y-103874704D01*
X177180044Y-103809261D01*
X177208946Y-103761304D01*
X177225910Y-103727820D01*
X177232633Y-103705795D01*
X177230810Y-103692217D01*
X177230764Y-103692131D01*
X177216414Y-103674297D01*
X177184677Y-103639817D01*
X177138990Y-103592268D01*
X177082796Y-103535222D01*
X177019532Y-103472255D01*
X177012398Y-103465227D01*
X176932670Y-103388020D01*
X176871143Y-103331330D01*
X176826579Y-103294110D01*
X176797743Y-103275315D01*
X176785042Y-103272889D01*
X176766506Y-103283471D01*
X176728039Y-103307916D01*
X176673614Y-103343612D01*
X176607202Y-103387947D01*
X176532775Y-103438311D01*
X176515399Y-103450160D01*
X176268703Y-103618626D01*
X176157294Y-103568062D01*
X176089543Y-103538595D01*
X176016817Y-103508959D01*
X175954297Y-103485330D01*
X175951543Y-103484358D01*
X175902640Y-103466457D01*
X175864943Y-103451320D01*
X175846575Y-103442210D01*
X175846544Y-103442184D01*
X175840715Y-103425717D01*
X175830808Y-103385219D01*
X175817805Y-103325242D01*
X175802691Y-103250340D01*
X175786448Y-103165064D01*
X175785119Y-103157875D01*
X175768825Y-103070014D01*
X175753867Y-102990260D01*
X175741209Y-102923681D01*
X175731814Y-102875347D01*
X175726646Y-102850325D01*
X175726556Y-102849943D01*
X175723411Y-102839299D01*
X175717296Y-102831262D01*
X175704547Y-102825467D01*
X175681500Y-102821547D01*
X175644491Y-102819135D01*
X175589856Y-102817865D01*
X175513933Y-102817371D01*
X175413056Y-102817286D01*
X175400000Y-102817286D01*
X175296090Y-102817348D01*
G36*
X172246405Y-107541966D02*
G01*
X172188979Y-107579497D01*
X172161281Y-107613096D01*
X172139338Y-107674064D01*
X172137595Y-107722308D01*
X172141543Y-107786816D01*
X172290314Y-107851934D01*
X172362651Y-107885202D01*
X172409916Y-107911964D01*
X172434493Y-107935144D01*
X172438763Y-107957667D01*
X172425111Y-107982455D01*
X172410057Y-107998886D01*
X172366254Y-108025235D01*
X172318611Y-108027081D01*
X172274855Y-108006546D01*
X172242711Y-107965752D01*
X172236962Y-107951347D01*
X172209424Y-107906356D01*
X172177742Y-107887182D01*
X172134286Y-107870779D01*
X172134286Y-107932966D01*
X172138128Y-107975283D01*
X172153177Y-108010969D01*
X172184720Y-108051943D01*
X172189408Y-108057267D01*
X172224494Y-108093720D01*
X172254653Y-108113283D01*
X172292385Y-108122283D01*
X172323665Y-108125230D01*
X172379615Y-108125965D01*
X172419445Y-108116660D01*
X172444292Y-108102846D01*
X172483344Y-108072467D01*
X172510375Y-108039613D01*
X172527483Y-107998294D01*
X172536762Y-107942521D01*
X172540307Y-107866305D01*
X172540590Y-107827622D01*
X172539628Y-107781247D01*
X172451993Y-107781247D01*
X172450977Y-107806126D01*
X172448444Y-107810200D01*
X172431726Y-107804665D01*
X172395751Y-107790017D01*
X172347669Y-107769190D01*
X172337614Y-107764714D01*
X172276848Y-107733814D01*
X172243368Y-107706657D01*
X172236010Y-107681220D01*
X172253609Y-107655481D01*
X172268144Y-107644109D01*
X172320590Y-107621364D01*
X172369678Y-107625122D01*
X172410773Y-107652884D01*
X172439242Y-107702152D01*
X172448369Y-107741257D01*
X172451993Y-107781247D01*
X172539628Y-107781247D01*
X172538715Y-107737249D01*
X172531804Y-107670384D01*
X172518116Y-107621695D01*
X172495904Y-107585849D01*
X172463426Y-107557513D01*
X172449267Y-107548355D01*
X172384947Y-107524507D01*
X172314527Y-107523006D01*
X172246405Y-107541966D01*
G37*
X172246405Y-107541966D02*
X172188979Y-107579497D01*
X172161281Y-107613096D01*
X172139338Y-107674064D01*
X172137595Y-107722308D01*
X172141543Y-107786816D01*
X172290314Y-107851934D01*
X172362651Y-107885202D01*
X172409916Y-107911964D01*
X172434493Y-107935144D01*
X172438763Y-107957667D01*
X172425111Y-107982455D01*
X172410057Y-107998886D01*
X172366254Y-108025235D01*
X172318611Y-108027081D01*
X172274855Y-108006546D01*
X172242711Y-107965752D01*
X172236962Y-107951347D01*
X172209424Y-107906356D01*
X172177742Y-107887182D01*
X172134286Y-107870779D01*
X172134286Y-107932966D01*
X172138128Y-107975283D01*
X172153177Y-108010969D01*
X172184720Y-108051943D01*
X172189408Y-108057267D01*
X172224494Y-108093720D01*
X172254653Y-108113283D01*
X172292385Y-108122283D01*
X172323665Y-108125230D01*
X172379615Y-108125965D01*
X172419445Y-108116660D01*
X172444292Y-108102846D01*
X172483344Y-108072467D01*
X172510375Y-108039613D01*
X172527483Y-107998294D01*
X172536762Y-107942521D01*
X172540307Y-107866305D01*
X172540590Y-107827622D01*
X172539628Y-107781247D01*
X172451993Y-107781247D01*
X172450977Y-107806126D01*
X172448444Y-107810200D01*
X172431726Y-107804665D01*
X172395751Y-107790017D01*
X172347669Y-107769190D01*
X172337614Y-107764714D01*
X172276848Y-107733814D01*
X172243368Y-107706657D01*
X172236010Y-107681220D01*
X172253609Y-107655481D01*
X172268144Y-107644109D01*
X172320590Y-107621364D01*
X172369678Y-107625122D01*
X172410773Y-107652884D01*
X172439242Y-107702152D01*
X172448369Y-107741257D01*
X172451993Y-107781247D01*
X172539628Y-107781247D01*
X172538715Y-107737249D01*
X172531804Y-107670384D01*
X172518116Y-107621695D01*
X172495904Y-107585849D01*
X172463426Y-107557513D01*
X172449267Y-107548355D01*
X172384947Y-107524507D01*
X172314527Y-107523006D01*
X172246405Y-107541966D01*
G36*
X172747400Y-107533752D02*
G01*
X172730052Y-107541334D01*
X172688644Y-107574128D01*
X172653235Y-107621547D01*
X172631336Y-107672151D01*
X172627771Y-107697098D01*
X172639721Y-107731927D01*
X172665933Y-107750357D01*
X172694036Y-107761516D01*
X172706905Y-107763572D01*
X172713171Y-107748649D01*
X172725544Y-107716175D01*
X172730972Y-107701502D01*
X172761410Y-107650744D01*
X172805480Y-107625427D01*
X172861990Y-107626206D01*
X172866175Y-107627203D01*
X172896345Y-107641507D01*
X172918524Y-107669393D01*
X172933673Y-107714287D01*
X172942750Y-107779615D01*
X172946714Y-107868804D01*
X172947086Y-107916261D01*
X172947270Y-107991071D01*
X172948478Y-108042069D01*
X172951691Y-108074471D01*
X172957891Y-108093495D01*
X172968060Y-108104356D01*
X172983181Y-108112272D01*
X172984054Y-108112670D01*
X173013172Y-108124981D01*
X173027597Y-108129514D01*
X173029814Y-108115809D01*
X173031711Y-108077925D01*
X173033153Y-108020715D01*
X173034002Y-107949027D01*
X173034171Y-107896565D01*
X173033308Y-107795047D01*
X173029930Y-107718032D01*
X173022858Y-107661023D01*
X173010912Y-107619526D01*
X172992910Y-107589043D01*
X172967673Y-107565080D01*
X172942753Y-107548355D01*
X172882829Y-107526097D01*
X172813089Y-107521076D01*
X172747400Y-107533752D01*
G37*
X172747400Y-107533752D02*
X172730052Y-107541334D01*
X172688644Y-107574128D01*
X172653235Y-107621547D01*
X172631336Y-107672151D01*
X172627771Y-107697098D01*
X172639721Y-107731927D01*
X172665933Y-107750357D01*
X172694036Y-107761516D01*
X172706905Y-107763572D01*
X172713171Y-107748649D01*
X172725544Y-107716175D01*
X172730972Y-107701502D01*
X172761410Y-107650744D01*
X172805480Y-107625427D01*
X172861990Y-107626206D01*
X172866175Y-107627203D01*
X172896345Y-107641507D01*
X172918524Y-107669393D01*
X172933673Y-107714287D01*
X172942750Y-107779615D01*
X172946714Y-107868804D01*
X172947086Y-107916261D01*
X172947270Y-107991071D01*
X172948478Y-108042069D01*
X172951691Y-108074471D01*
X172957891Y-108093495D01*
X172968060Y-108104356D01*
X172983181Y-108112272D01*
X172984054Y-108112670D01*
X173013172Y-108124981D01*
X173027597Y-108129514D01*
X173029814Y-108115809D01*
X173031711Y-108077925D01*
X173033153Y-108020715D01*
X173034002Y-107949027D01*
X173034171Y-107896565D01*
X173033308Y-107795047D01*
X173029930Y-107718032D01*
X173022858Y-107661023D01*
X173010912Y-107619526D01*
X172992910Y-107589043D01*
X172967673Y-107565080D01*
X172942753Y-107548355D01*
X172882829Y-107526097D01*
X172813089Y-107521076D01*
X172747400Y-107533752D01*
G36*
X173255124Y-107531335D02*
G01*
X173213333Y-107550344D01*
X173180531Y-107573378D01*
X173156497Y-107599133D01*
X173139903Y-107632358D01*
X173129423Y-107677800D01*
X173123729Y-107740207D01*
X173121493Y-107824327D01*
X173121257Y-107879721D01*
X173121257Y-108095826D01*
X173158226Y-108112670D01*
X173187344Y-108124981D01*
X173201769Y-108129514D01*
X173204528Y-108116025D01*
X173206718Y-108079653D01*
X173208058Y-108026542D01*
X173208343Y-107984372D01*
X173209566Y-107923447D01*
X173212864Y-107875115D01*
X173217679Y-107845518D01*
X173221504Y-107839229D01*
X173247217Y-107845652D01*
X173287582Y-107862125D01*
X173334321Y-107884458D01*
X173379155Y-107908457D01*
X173413807Y-107929930D01*
X173429998Y-107944685D01*
X173430062Y-107944845D01*
X173428670Y-107972152D01*
X173416182Y-107998219D01*
X173394257Y-108019392D01*
X173362257Y-108026474D01*
X173334908Y-108025649D01*
X173296174Y-108025042D01*
X173275842Y-108034116D01*
X173263631Y-108058092D01*
X173262091Y-108062613D01*
X173256797Y-108096806D01*
X173270953Y-108117568D01*
X173307852Y-108127462D01*
X173347711Y-108129292D01*
X173419438Y-108115727D01*
X173456568Y-108096355D01*
X173502424Y-108050845D01*
X173526744Y-107994983D01*
X173528927Y-107935957D01*
X173508371Y-107880953D01*
X173477451Y-107846486D01*
X173446580Y-107827189D01*
X173398058Y-107802759D01*
X173341515Y-107777985D01*
X173332090Y-107774199D01*
X173269981Y-107746791D01*
X173234178Y-107722634D01*
X173222663Y-107698619D01*
X173233420Y-107671635D01*
X173251886Y-107650543D01*
X173295531Y-107624572D01*
X173343554Y-107622624D01*
X173387594Y-107642637D01*
X173419291Y-107682551D01*
X173423451Y-107692848D01*
X173447673Y-107730724D01*
X173483035Y-107758842D01*
X173527657Y-107781917D01*
X173527657Y-107716485D01*
X173525031Y-107676506D01*
X173513770Y-107644997D01*
X173488801Y-107611378D01*
X173464831Y-107585484D01*
X173427559Y-107548817D01*
X173398599Y-107529121D01*
X173367495Y-107521220D01*
X173332287Y-107519914D01*
X173255124Y-107531335D01*
G37*
X173255124Y-107531335D02*
X173213333Y-107550344D01*
X173180531Y-107573378D01*
X173156497Y-107599133D01*
X173139903Y-107632358D01*
X173129423Y-107677800D01*
X173123729Y-107740207D01*
X173121493Y-107824327D01*
X173121257Y-107879721D01*
X173121257Y-108095826D01*
X173158226Y-108112670D01*
X173187344Y-108124981D01*
X173201769Y-108129514D01*
X173204528Y-108116025D01*
X173206718Y-108079653D01*
X173208058Y-108026542D01*
X173208343Y-107984372D01*
X173209566Y-107923447D01*
X173212864Y-107875115D01*
X173217679Y-107845518D01*
X173221504Y-107839229D01*
X173247217Y-107845652D01*
X173287582Y-107862125D01*
X173334321Y-107884458D01*
X173379155Y-107908457D01*
X173413807Y-107929930D01*
X173429998Y-107944685D01*
X173430062Y-107944845D01*
X173428670Y-107972152D01*
X173416182Y-107998219D01*
X173394257Y-108019392D01*
X173362257Y-108026474D01*
X173334908Y-108025649D01*
X173296174Y-108025042D01*
X173275842Y-108034116D01*
X173263631Y-108058092D01*
X173262091Y-108062613D01*
X173256797Y-108096806D01*
X173270953Y-108117568D01*
X173307852Y-108127462D01*
X173347711Y-108129292D01*
X173419438Y-108115727D01*
X173456568Y-108096355D01*
X173502424Y-108050845D01*
X173526744Y-107994983D01*
X173528927Y-107935957D01*
X173508371Y-107880953D01*
X173477451Y-107846486D01*
X173446580Y-107827189D01*
X173398058Y-107802759D01*
X173341515Y-107777985D01*
X173332090Y-107774199D01*
X173269981Y-107746791D01*
X173234178Y-107722634D01*
X173222663Y-107698619D01*
X173233420Y-107671635D01*
X173251886Y-107650543D01*
X173295531Y-107624572D01*
X173343554Y-107622624D01*
X173387594Y-107642637D01*
X173419291Y-107682551D01*
X173423451Y-107692848D01*
X173447673Y-107730724D01*
X173483035Y-107758842D01*
X173527657Y-107781917D01*
X173527657Y-107716485D01*
X173525031Y-107676506D01*
X173513770Y-107644997D01*
X173488801Y-107611378D01*
X173464831Y-107585484D01*
X173427559Y-107548817D01*
X173398599Y-107529121D01*
X173367495Y-107521220D01*
X173332287Y-107519914D01*
X173255124Y-107531335D01*
G36*
X173620167Y-107533663D02*
G01*
X173617952Y-107571850D01*
X173616216Y-107629886D01*
X173615101Y-107703180D01*
X173614743Y-107780055D01*
X173614743Y-108040196D01*
X173660674Y-108086127D01*
X173692325Y-108114429D01*
X173720110Y-108125893D01*
X173758085Y-108125168D01*
X173773160Y-108123321D01*
X173820274Y-108117948D01*
X173859244Y-108114869D01*
X173868743Y-108114585D01*
X173900767Y-108116445D01*
X173946568Y-108121114D01*
X173964326Y-108123321D01*
X174007943Y-108126735D01*
X174037255Y-108119320D01*
X174066320Y-108096427D01*
X174076812Y-108086127D01*
X174122743Y-108040196D01*
X174122743Y-107553602D01*
X174085774Y-107536758D01*
X174053941Y-107524282D01*
X174035317Y-107519914D01*
X174030542Y-107533718D01*
X174026079Y-107572286D01*
X174022225Y-107631356D01*
X174019278Y-107706663D01*
X174017857Y-107770286D01*
X174013886Y-108020657D01*
X173979241Y-108025556D01*
X173947732Y-108022131D01*
X173932292Y-108011041D01*
X173927977Y-107990308D01*
X173924292Y-107946145D01*
X173921531Y-107884146D01*
X173919988Y-107809909D01*
X173919765Y-107771706D01*
X173919543Y-107551783D01*
X173873834Y-107535849D01*
X173841482Y-107525015D01*
X173823885Y-107519962D01*
X173823377Y-107519914D01*
X173821612Y-107533648D01*
X173819671Y-107571730D01*
X173817718Y-107629482D01*
X173815916Y-107702227D01*
X173814657Y-107770286D01*
X173810686Y-108020657D01*
X173723600Y-108020657D01*
X173719604Y-107792240D01*
X173715608Y-107563822D01*
X173673153Y-107541868D01*
X173641808Y-107526793D01*
X173623256Y-107519951D01*
X173622721Y-107519914D01*
X173620167Y-107533663D01*
G37*
X173620167Y-107533663D02*
X173617952Y-107571850D01*
X173616216Y-107629886D01*
X173615101Y-107703180D01*
X173614743Y-107780055D01*
X173614743Y-108040196D01*
X173660674Y-108086127D01*
X173692325Y-108114429D01*
X173720110Y-108125893D01*
X173758085Y-108125168D01*
X173773160Y-108123321D01*
X173820274Y-108117948D01*
X173859244Y-108114869D01*
X173868743Y-108114585D01*
X173900767Y-108116445D01*
X173946568Y-108121114D01*
X173964326Y-108123321D01*
X174007943Y-108126735D01*
X174037255Y-108119320D01*
X174066320Y-108096427D01*
X174076812Y-108086127D01*
X174122743Y-108040196D01*
X174122743Y-107553602D01*
X174085774Y-107536758D01*
X174053941Y-107524282D01*
X174035317Y-107519914D01*
X174030542Y-107533718D01*
X174026079Y-107572286D01*
X174022225Y-107631356D01*
X174019278Y-107706663D01*
X174017857Y-107770286D01*
X174013886Y-108020657D01*
X173979241Y-108025556D01*
X173947732Y-108022131D01*
X173932292Y-108011041D01*
X173927977Y-107990308D01*
X173924292Y-107946145D01*
X173921531Y-107884146D01*
X173919988Y-107809909D01*
X173919765Y-107771706D01*
X173919543Y-107551783D01*
X173873834Y-107535849D01*
X173841482Y-107525015D01*
X173823885Y-107519962D01*
X173823377Y-107519914D01*
X173821612Y-107533648D01*
X173819671Y-107571730D01*
X173817718Y-107629482D01*
X173815916Y-107702227D01*
X173814657Y-107770286D01*
X173810686Y-108020657D01*
X173723600Y-108020657D01*
X173719604Y-107792240D01*
X173715608Y-107563822D01*
X173673153Y-107541868D01*
X173641808Y-107526793D01*
X173623256Y-107519951D01*
X173622721Y-107519914D01*
X173620167Y-107533663D01*
G36*
X174209883Y-107640358D02*
G01*
X174210067Y-107748837D01*
X174210781Y-107832287D01*
X174212325Y-107894704D01*
X174214999Y-107940085D01*
X174219106Y-107972429D01*
X174224945Y-107995733D01*
X174232818Y-108013995D01*
X174238779Y-108024418D01*
X174288145Y-108080945D01*
X174350736Y-108116377D01*
X174419987Y-108129090D01*
X174489332Y-108117463D01*
X174530625Y-108096568D01*
X174573975Y-108060422D01*
X174603519Y-108016276D01*
X174621345Y-107958462D01*
X174629537Y-107881313D01*
X174630698Y-107824714D01*
X174630542Y-107820647D01*
X174529143Y-107820647D01*
X174528524Y-107885550D01*
X174525686Y-107928514D01*
X174519160Y-107956622D01*
X174507477Y-107976953D01*
X174493517Y-107992288D01*
X174446635Y-108021890D01*
X174396299Y-108024419D01*
X174348724Y-107999705D01*
X174345021Y-107996356D01*
X174329217Y-107978935D01*
X174319307Y-107958209D01*
X174313942Y-107927362D01*
X174311772Y-107879577D01*
X174311429Y-107826748D01*
X174312173Y-107760381D01*
X174315252Y-107716106D01*
X174321939Y-107687009D01*
X174333504Y-107666173D01*
X174342987Y-107655107D01*
X174387040Y-107627198D01*
X174437776Y-107623843D01*
X174486204Y-107645159D01*
X174495550Y-107653073D01*
X174511460Y-107670647D01*
X174521390Y-107691587D01*
X174526722Y-107722782D01*
X174528837Y-107771122D01*
X174529143Y-107820647D01*
X174630542Y-107820647D01*
X174627190Y-107733568D01*
X174615274Y-107665086D01*
X174592865Y-107613600D01*
X174557876Y-107573443D01*
X174530625Y-107552861D01*
X174481093Y-107530625D01*
X174423684Y-107520304D01*
X174370318Y-107523067D01*
X174340457Y-107534212D01*
X174328739Y-107537383D01*
X174320963Y-107525557D01*
X174315535Y-107493866D01*
X174311429Y-107445593D01*
X174306933Y-107391829D01*
X174300687Y-107359482D01*
X174289324Y-107340985D01*
X174269472Y-107328770D01*
X174257000Y-107323362D01*
X174209829Y-107303601D01*
X174209883Y-107640358D01*
G37*
X174209883Y-107640358D02*
X174210067Y-107748837D01*
X174210781Y-107832287D01*
X174212325Y-107894704D01*
X174214999Y-107940085D01*
X174219106Y-107972429D01*
X174224945Y-107995733D01*
X174232818Y-108013995D01*
X174238779Y-108024418D01*
X174288145Y-108080945D01*
X174350736Y-108116377D01*
X174419987Y-108129090D01*
X174489332Y-108117463D01*
X174530625Y-108096568D01*
X174573975Y-108060422D01*
X174603519Y-108016276D01*
X174621345Y-107958462D01*
X174629537Y-107881313D01*
X174630698Y-107824714D01*
X174630542Y-107820647D01*
X174529143Y-107820647D01*
X174528524Y-107885550D01*
X174525686Y-107928514D01*
X174519160Y-107956622D01*
X174507477Y-107976953D01*
X174493517Y-107992288D01*
X174446635Y-108021890D01*
X174396299Y-108024419D01*
X174348724Y-107999705D01*
X174345021Y-107996356D01*
X174329217Y-107978935D01*
X174319307Y-107958209D01*
X174313942Y-107927362D01*
X174311772Y-107879577D01*
X174311429Y-107826748D01*
X174312173Y-107760381D01*
X174315252Y-107716106D01*
X174321939Y-107687009D01*
X174333504Y-107666173D01*
X174342987Y-107655107D01*
X174387040Y-107627198D01*
X174437776Y-107623843D01*
X174486204Y-107645159D01*
X174495550Y-107653073D01*
X174511460Y-107670647D01*
X174521390Y-107691587D01*
X174526722Y-107722782D01*
X174528837Y-107771122D01*
X174529143Y-107820647D01*
X174630542Y-107820647D01*
X174627190Y-107733568D01*
X174615274Y-107665086D01*
X174592865Y-107613600D01*
X174557876Y-107573443D01*
X174530625Y-107552861D01*
X174481093Y-107530625D01*
X174423684Y-107520304D01*
X174370318Y-107523067D01*
X174340457Y-107534212D01*
X174328739Y-107537383D01*
X174320963Y-107525557D01*
X174315535Y-107493866D01*
X174311429Y-107445593D01*
X174306933Y-107391829D01*
X174300687Y-107359482D01*
X174289324Y-107340985D01*
X174269472Y-107328770D01*
X174257000Y-107323362D01*
X174209829Y-107303601D01*
X174209883Y-107640358D01*
G36*
X174870074Y-107524755D02*
G01*
X174804142Y-107549084D01*
X174750727Y-107592117D01*
X174729836Y-107622409D01*
X174707061Y-107677994D01*
X174707534Y-107718186D01*
X174731438Y-107745217D01*
X174740283Y-107749813D01*
X174778470Y-107764144D01*
X174797972Y-107760472D01*
X174804578Y-107736407D01*
X174804914Y-107723114D01*
X174817008Y-107674210D01*
X174848529Y-107639999D01*
X174892341Y-107623476D01*
X174941305Y-107627634D01*
X174981106Y-107649227D01*
X174994550Y-107661544D01*
X175004079Y-107676487D01*
X175010515Y-107699075D01*
X175014683Y-107734328D01*
X175017403Y-107787266D01*
X175019498Y-107862907D01*
X175020040Y-107886857D01*
X175022019Y-107968790D01*
X175024269Y-108026455D01*
X175027643Y-108064608D01*
X175032994Y-108088004D01*
X175041176Y-108101398D01*
X175053041Y-108109545D01*
X175060638Y-108113144D01*
X175092898Y-108125452D01*
X175111889Y-108129514D01*
X175118164Y-108115948D01*
X175121994Y-108074934D01*
X175123400Y-108005999D01*
X175122402Y-107908669D01*
X175122092Y-107893657D01*
X175119899Y-107804859D01*
X175117307Y-107740019D01*
X175113618Y-107694067D01*
X175108136Y-107661935D01*
X175100165Y-107638553D01*
X175089007Y-107618852D01*
X175083170Y-107610410D01*
X175049704Y-107573057D01*
X175012273Y-107544003D01*
X175007691Y-107541467D01*
X174940574Y-107521443D01*
X174870074Y-107524755D01*
G37*
X174870074Y-107524755D02*
X174804142Y-107549084D01*
X174750727Y-107592117D01*
X174729836Y-107622409D01*
X174707061Y-107677994D01*
X174707534Y-107718186D01*
X174731438Y-107745217D01*
X174740283Y-107749813D01*
X174778470Y-107764144D01*
X174797972Y-107760472D01*
X174804578Y-107736407D01*
X174804914Y-107723114D01*
X174817008Y-107674210D01*
X174848529Y-107639999D01*
X174892341Y-107623476D01*
X174941305Y-107627634D01*
X174981106Y-107649227D01*
X174994550Y-107661544D01*
X175004079Y-107676487D01*
X175010515Y-107699075D01*
X175014683Y-107734328D01*
X175017403Y-107787266D01*
X175019498Y-107862907D01*
X175020040Y-107886857D01*
X175022019Y-107968790D01*
X175024269Y-108026455D01*
X175027643Y-108064608D01*
X175032994Y-108088004D01*
X175041176Y-108101398D01*
X175053041Y-108109545D01*
X175060638Y-108113144D01*
X175092898Y-108125452D01*
X175111889Y-108129514D01*
X175118164Y-108115948D01*
X175121994Y-108074934D01*
X175123400Y-108005999D01*
X175122402Y-107908669D01*
X175122092Y-107893657D01*
X175119899Y-107804859D01*
X175117307Y-107740019D01*
X175113618Y-107694067D01*
X175108136Y-107661935D01*
X175100165Y-107638553D01*
X175089007Y-107618852D01*
X175083170Y-107610410D01*
X175049704Y-107573057D01*
X175012273Y-107544003D01*
X175007691Y-107541467D01*
X174940574Y-107521443D01*
X174870074Y-107524755D01*
G36*
X175360256Y-107525968D02*
G01*
X175303384Y-107547087D01*
X175302733Y-107547493D01*
X175267560Y-107573380D01*
X175241593Y-107603633D01*
X175223330Y-107643058D01*
X175211268Y-107696462D01*
X175203904Y-107768651D01*
X175199736Y-107864432D01*
X175199371Y-107878078D01*
X175194124Y-108083842D01*
X175238284Y-108106678D01*
X175270237Y-108122110D01*
X175289530Y-108129423D01*
X175290422Y-108129514D01*
X175293761Y-108116022D01*
X175296413Y-108079626D01*
X175298044Y-108026452D01*
X175298400Y-107983393D01*
X175298408Y-107913641D01*
X175301597Y-107869837D01*
X175312712Y-107848944D01*
X175336499Y-107847925D01*
X175377704Y-107863741D01*
X175439914Y-107892815D01*
X175485659Y-107916963D01*
X175509187Y-107937913D01*
X175516104Y-107960747D01*
X175516114Y-107961877D01*
X175504701Y-108001212D01*
X175470908Y-108022462D01*
X175419191Y-108025539D01*
X175381939Y-108025006D01*
X175362297Y-108035735D01*
X175350048Y-108061505D01*
X175342998Y-108094337D01*
X175353158Y-108112966D01*
X175356983Y-108115632D01*
X175392999Y-108126340D01*
X175443434Y-108127856D01*
X175495374Y-108120759D01*
X175532178Y-108107788D01*
X175583062Y-108064585D01*
X175611986Y-108004446D01*
X175617714Y-107957462D01*
X175613343Y-107915082D01*
X175597525Y-107880488D01*
X175566203Y-107849763D01*
X175515322Y-107818990D01*
X175440824Y-107784252D01*
X175436286Y-107782288D01*
X175369179Y-107751287D01*
X175327768Y-107725862D01*
X175310019Y-107703014D01*
X175313893Y-107679745D01*
X175337357Y-107653056D01*
X175344373Y-107646914D01*
X175391370Y-107623100D01*
X175440067Y-107624103D01*
X175482478Y-107647451D01*
X175510616Y-107690675D01*
X175513231Y-107699160D01*
X175538692Y-107740308D01*
X175570999Y-107760128D01*
X175617714Y-107779770D01*
X175617714Y-107728950D01*
X175603504Y-107655082D01*
X175561325Y-107587327D01*
X175539376Y-107564661D01*
X175489483Y-107535569D01*
X175426033Y-107522400D01*
X175360256Y-107525968D01*
G37*
X175360256Y-107525968D02*
X175303384Y-107547087D01*
X175302733Y-107547493D01*
X175267560Y-107573380D01*
X175241593Y-107603633D01*
X175223330Y-107643058D01*
X175211268Y-107696462D01*
X175203904Y-107768651D01*
X175199736Y-107864432D01*
X175199371Y-107878078D01*
X175194124Y-108083842D01*
X175238284Y-108106678D01*
X175270237Y-108122110D01*
X175289530Y-108129423D01*
X175290422Y-108129514D01*
X175293761Y-108116022D01*
X175296413Y-108079626D01*
X175298044Y-108026452D01*
X175298400Y-107983393D01*
X175298408Y-107913641D01*
X175301597Y-107869837D01*
X175312712Y-107848944D01*
X175336499Y-107847925D01*
X175377704Y-107863741D01*
X175439914Y-107892815D01*
X175485659Y-107916963D01*
X175509187Y-107937913D01*
X175516104Y-107960747D01*
X175516114Y-107961877D01*
X175504701Y-108001212D01*
X175470908Y-108022462D01*
X175419191Y-108025539D01*
X175381939Y-108025006D01*
X175362297Y-108035735D01*
X175350048Y-108061505D01*
X175342998Y-108094337D01*
X175353158Y-108112966D01*
X175356983Y-108115632D01*
X175392999Y-108126340D01*
X175443434Y-108127856D01*
X175495374Y-108120759D01*
X175532178Y-108107788D01*
X175583062Y-108064585D01*
X175611986Y-108004446D01*
X175617714Y-107957462D01*
X175613343Y-107915082D01*
X175597525Y-107880488D01*
X175566203Y-107849763D01*
X175515322Y-107818990D01*
X175440824Y-107784252D01*
X175436286Y-107782288D01*
X175369179Y-107751287D01*
X175327768Y-107725862D01*
X175310019Y-107703014D01*
X175313893Y-107679745D01*
X175337357Y-107653056D01*
X175344373Y-107646914D01*
X175391370Y-107623100D01*
X175440067Y-107624103D01*
X175482478Y-107647451D01*
X175510616Y-107690675D01*
X175513231Y-107699160D01*
X175538692Y-107740308D01*
X175570999Y-107760128D01*
X175617714Y-107779770D01*
X175617714Y-107728950D01*
X175603504Y-107655082D01*
X175561325Y-107587327D01*
X175539376Y-107564661D01*
X175489483Y-107535569D01*
X175426033Y-107522400D01*
X175360256Y-107525968D01*
G36*
X176024114Y-107426289D02*
G01*
X176019861Y-107485613D01*
X176014975Y-107520572D01*
X176008205Y-107535820D01*
X175998298Y-107536015D01*
X175995086Y-107534195D01*
X175952356Y-107521015D01*
X175896773Y-107521785D01*
X175840263Y-107535333D01*
X175804918Y-107552861D01*
X175768679Y-107580861D01*
X175742187Y-107612549D01*
X175724001Y-107652813D01*
X175712678Y-107706543D01*
X175706778Y-107778626D01*
X175704857Y-107873951D01*
X175704823Y-107892237D01*
X175704800Y-108097646D01*
X175750509Y-108113580D01*
X175782973Y-108124420D01*
X175800785Y-108129468D01*
X175801309Y-108129514D01*
X175803063Y-108115828D01*
X175804556Y-108078076D01*
X175805674Y-108021224D01*
X175806303Y-107950234D01*
X175806400Y-107907073D01*
X175806602Y-107821973D01*
X175807642Y-107760981D01*
X175810169Y-107719177D01*
X175814836Y-107691642D01*
X175822293Y-107673456D01*
X175833189Y-107659698D01*
X175839993Y-107653073D01*
X175886728Y-107626375D01*
X175937728Y-107624375D01*
X175983999Y-107646955D01*
X175992556Y-107655107D01*
X176005107Y-107670436D01*
X176013812Y-107688618D01*
X176019369Y-107714909D01*
X176022474Y-107754562D01*
X176023824Y-107812832D01*
X176024114Y-107893173D01*
X176024114Y-108097646D01*
X176069823Y-108113580D01*
X176102287Y-108124420D01*
X176120099Y-108129468D01*
X176120623Y-108129514D01*
X176121963Y-108115623D01*
X176123172Y-108076439D01*
X176124199Y-108015700D01*
X176124998Y-107937141D01*
X176125519Y-107844498D01*
X176125714Y-107741509D01*
X176125714Y-107344342D01*
X176078543Y-107324444D01*
X176031371Y-107304547D01*
X176024114Y-107426289D01*
G37*
X176024114Y-107426289D02*
X176019861Y-107485613D01*
X176014975Y-107520572D01*
X176008205Y-107535820D01*
X175998298Y-107536015D01*
X175995086Y-107534195D01*
X175952356Y-107521015D01*
X175896773Y-107521785D01*
X175840263Y-107535333D01*
X175804918Y-107552861D01*
X175768679Y-107580861D01*
X175742187Y-107612549D01*
X175724001Y-107652813D01*
X175712678Y-107706543D01*
X175706778Y-107778626D01*
X175704857Y-107873951D01*
X175704823Y-107892237D01*
X175704800Y-108097646D01*
X175750509Y-108113580D01*
X175782973Y-108124420D01*
X175800785Y-108129468D01*
X175801309Y-108129514D01*
X175803063Y-108115828D01*
X175804556Y-108078076D01*
X175805674Y-108021224D01*
X175806303Y-107950234D01*
X175806400Y-107907073D01*
X175806602Y-107821973D01*
X175807642Y-107760981D01*
X175810169Y-107719177D01*
X175814836Y-107691642D01*
X175822293Y-107673456D01*
X175833189Y-107659698D01*
X175839993Y-107653073D01*
X175886728Y-107626375D01*
X175937728Y-107624375D01*
X175983999Y-107646955D01*
X175992556Y-107655107D01*
X176005107Y-107670436D01*
X176013812Y-107688618D01*
X176019369Y-107714909D01*
X176022474Y-107754562D01*
X176023824Y-107812832D01*
X176024114Y-107893173D01*
X176024114Y-108097646D01*
X176069823Y-108113580D01*
X176102287Y-108124420D01*
X176120099Y-108129468D01*
X176120623Y-108129514D01*
X176121963Y-108115623D01*
X176123172Y-108076439D01*
X176124199Y-108015700D01*
X176124998Y-107937141D01*
X176125519Y-107844498D01*
X176125714Y-107741509D01*
X176125714Y-107344342D01*
X176078543Y-107324444D01*
X176031371Y-107304547D01*
X176024114Y-107426289D01*
G36*
X177231697Y-107506239D02*
G01*
X177174473Y-107544735D01*
X177130251Y-107600335D01*
X177103833Y-107671086D01*
X177098490Y-107723162D01*
X177099097Y-107744893D01*
X177104178Y-107761531D01*
X177118145Y-107776437D01*
X177145411Y-107792973D01*
X177190388Y-107814498D01*
X177257489Y-107844374D01*
X177257829Y-107844524D01*
X177319593Y-107872813D01*
X177370241Y-107897933D01*
X177404596Y-107917179D01*
X177417482Y-107927848D01*
X177417486Y-107927934D01*
X177406128Y-107951166D01*
X177379569Y-107976774D01*
X177349077Y-107995221D01*
X177333630Y-107998886D01*
X177291485Y-107986212D01*
X177255192Y-107954471D01*
X177237483Y-107919572D01*
X177220448Y-107893845D01*
X177187078Y-107864546D01*
X177147851Y-107839235D01*
X177113244Y-107825471D01*
X177106007Y-107824714D01*
X177097861Y-107837160D01*
X177097370Y-107868972D01*
X177103357Y-107911866D01*
X177114643Y-107957558D01*
X177130050Y-107997761D01*
X177130829Y-107999322D01*
X177177196Y-108064062D01*
X177237289Y-108108097D01*
X177305535Y-108129711D01*
X177376362Y-108127185D01*
X177444196Y-108098804D01*
X177447212Y-108096808D01*
X177500573Y-108048448D01*
X177535660Y-107985352D01*
X177555078Y-107902387D01*
X177557684Y-107879078D01*
X177562299Y-107769055D01*
X177556767Y-107717748D01*
X177417486Y-107717748D01*
X177415676Y-107749753D01*
X177405778Y-107759093D01*
X177381102Y-107752105D01*
X177342205Y-107735587D01*
X177298725Y-107714881D01*
X177297644Y-107714333D01*
X177260791Y-107694949D01*
X177246000Y-107682013D01*
X177249647Y-107668451D01*
X177265005Y-107650632D01*
X177304077Y-107624845D01*
X177346154Y-107622950D01*
X177383897Y-107641717D01*
X177409966Y-107677915D01*
X177417486Y-107717748D01*
X177556767Y-107717748D01*
X177552806Y-107681027D01*
X177528450Y-107611212D01*
X177494544Y-107562302D01*
X177433347Y-107512878D01*
X177365937Y-107488359D01*
X177297120Y-107486797D01*
X177231697Y-107506239D01*
G37*
X177231697Y-107506239D02*
X177174473Y-107544735D01*
X177130251Y-107600335D01*
X177103833Y-107671086D01*
X177098490Y-107723162D01*
X177099097Y-107744893D01*
X177104178Y-107761531D01*
X177118145Y-107776437D01*
X177145411Y-107792973D01*
X177190388Y-107814498D01*
X177257489Y-107844374D01*
X177257829Y-107844524D01*
X177319593Y-107872813D01*
X177370241Y-107897933D01*
X177404596Y-107917179D01*
X177417482Y-107927848D01*
X177417486Y-107927934D01*
X177406128Y-107951166D01*
X177379569Y-107976774D01*
X177349077Y-107995221D01*
X177333630Y-107998886D01*
X177291485Y-107986212D01*
X177255192Y-107954471D01*
X177237483Y-107919572D01*
X177220448Y-107893845D01*
X177187078Y-107864546D01*
X177147851Y-107839235D01*
X177113244Y-107825471D01*
X177106007Y-107824714D01*
X177097861Y-107837160D01*
X177097370Y-107868972D01*
X177103357Y-107911866D01*
X177114643Y-107957558D01*
X177130050Y-107997761D01*
X177130829Y-107999322D01*
X177177196Y-108064062D01*
X177237289Y-108108097D01*
X177305535Y-108129711D01*
X177376362Y-108127185D01*
X177444196Y-108098804D01*
X177447212Y-108096808D01*
X177500573Y-108048448D01*
X177535660Y-107985352D01*
X177555078Y-107902387D01*
X177557684Y-107879078D01*
X177562299Y-107769055D01*
X177556767Y-107717748D01*
X177417486Y-107717748D01*
X177415676Y-107749753D01*
X177405778Y-107759093D01*
X177381102Y-107752105D01*
X177342205Y-107735587D01*
X177298725Y-107714881D01*
X177297644Y-107714333D01*
X177260791Y-107694949D01*
X177246000Y-107682013D01*
X177249647Y-107668451D01*
X177265005Y-107650632D01*
X177304077Y-107624845D01*
X177346154Y-107622950D01*
X177383897Y-107641717D01*
X177409966Y-107677915D01*
X177417486Y-107717748D01*
X177556767Y-107717748D01*
X177552806Y-107681027D01*
X177528450Y-107611212D01*
X177494544Y-107562302D01*
X177433347Y-107512878D01*
X177365937Y-107488359D01*
X177297120Y-107486797D01*
X177231697Y-107506239D01*
G36*
X178358885Y-107496962D02*
G01*
X178290855Y-107532733D01*
X178240649Y-107590301D01*
X178222815Y-107627312D01*
X178208937Y-107682882D01*
X178201833Y-107753096D01*
X178201160Y-107829727D01*
X178206573Y-107904552D01*
X178217730Y-107969342D01*
X178234286Y-108015873D01*
X178239374Y-108023887D01*
X178299645Y-108083707D01*
X178371231Y-108119535D01*
X178448908Y-108130020D01*
X178527452Y-108113810D01*
X178549311Y-108104092D01*
X178591878Y-108074143D01*
X178629237Y-108034433D01*
X178632768Y-108029397D01*
X178647119Y-108005124D01*
X178656606Y-107979178D01*
X178662210Y-107945022D01*
X178664914Y-107896119D01*
X178665701Y-107825935D01*
X178665714Y-107810200D01*
X178665678Y-107805192D01*
X178520571Y-107805192D01*
X178519727Y-107871430D01*
X178516404Y-107915386D01*
X178509417Y-107943779D01*
X178497584Y-107963325D01*
X178491543Y-107969857D01*
X178456814Y-107994680D01*
X178423097Y-107993548D01*
X178389005Y-107972016D01*
X178368671Y-107949029D01*
X178356629Y-107915478D01*
X178349866Y-107862569D01*
X178349402Y-107856399D01*
X178348248Y-107760513D01*
X178360312Y-107689299D01*
X178385430Y-107643194D01*
X178423440Y-107622635D01*
X178437008Y-107621514D01*
X178472636Y-107627152D01*
X178497006Y-107646686D01*
X178511907Y-107684042D01*
X178519125Y-107743150D01*
X178520571Y-107805192D01*
X178665678Y-107805192D01*
X178665174Y-107735413D01*
X178662904Y-107683159D01*
X178657932Y-107646949D01*
X178649287Y-107620299D01*
X178635995Y-107596722D01*
X178633057Y-107592338D01*
X178583687Y-107533249D01*
X178529891Y-107498947D01*
X178464398Y-107485331D01*
X178442158Y-107484665D01*
X178358885Y-107496962D01*
G37*
X178358885Y-107496962D02*
X178290855Y-107532733D01*
X178240649Y-107590301D01*
X178222815Y-107627312D01*
X178208937Y-107682882D01*
X178201833Y-107753096D01*
X178201160Y-107829727D01*
X178206573Y-107904552D01*
X178217730Y-107969342D01*
X178234286Y-108015873D01*
X178239374Y-108023887D01*
X178299645Y-108083707D01*
X178371231Y-108119535D01*
X178448908Y-108130020D01*
X178527452Y-108113810D01*
X178549311Y-108104092D01*
X178591878Y-108074143D01*
X178629237Y-108034433D01*
X178632768Y-108029397D01*
X178647119Y-108005124D01*
X178656606Y-107979178D01*
X178662210Y-107945022D01*
X178664914Y-107896119D01*
X178665701Y-107825935D01*
X178665714Y-107810200D01*
X178665678Y-107805192D01*
X178520571Y-107805192D01*
X178519727Y-107871430D01*
X178516404Y-107915386D01*
X178509417Y-107943779D01*
X178497584Y-107963325D01*
X178491543Y-107969857D01*
X178456814Y-107994680D01*
X178423097Y-107993548D01*
X178389005Y-107972016D01*
X178368671Y-107949029D01*
X178356629Y-107915478D01*
X178349866Y-107862569D01*
X178349402Y-107856399D01*
X178348248Y-107760513D01*
X178360312Y-107689299D01*
X178385430Y-107643194D01*
X178423440Y-107622635D01*
X178437008Y-107621514D01*
X178472636Y-107627152D01*
X178497006Y-107646686D01*
X178511907Y-107684042D01*
X178519125Y-107743150D01*
X178520571Y-107805192D01*
X178665678Y-107805192D01*
X178665174Y-107735413D01*
X178662904Y-107683159D01*
X178657932Y-107646949D01*
X178649287Y-107620299D01*
X178635995Y-107596722D01*
X178633057Y-107592338D01*
X178583687Y-107533249D01*
X178529891Y-107498947D01*
X178464398Y-107485331D01*
X178442158Y-107484665D01*
X178358885Y-107496962D01*
G36*
X176683907Y-107502780D02*
G01*
X176637328Y-107529723D01*
X176604943Y-107556466D01*
X176581258Y-107584484D01*
X176564941Y-107618748D01*
X176554661Y-107664227D01*
X176549086Y-107725892D01*
X176546884Y-107808711D01*
X176546629Y-107868246D01*
X176546629Y-108087391D01*
X176608314Y-108115044D01*
X176670000Y-108142697D01*
X176677257Y-107902670D01*
X176680256Y-107813028D01*
X176683402Y-107747962D01*
X176687299Y-107703026D01*
X176692553Y-107673770D01*
X176699769Y-107655748D01*
X176709550Y-107644511D01*
X176712688Y-107642079D01*
X176760239Y-107623083D01*
X176808303Y-107630600D01*
X176836914Y-107650543D01*
X176848553Y-107664675D01*
X176856609Y-107683220D01*
X176861729Y-107711334D01*
X176864559Y-107754173D01*
X176865744Y-107816895D01*
X176865943Y-107882261D01*
X176865982Y-107964268D01*
X176867386Y-108022316D01*
X176872086Y-108061465D01*
X176882013Y-108086780D01*
X176899097Y-108103323D01*
X176925268Y-108116156D01*
X176960225Y-108129491D01*
X176998404Y-108144007D01*
X176993859Y-107886389D01*
X176992029Y-107793519D01*
X176989888Y-107724889D01*
X176986819Y-107675711D01*
X176982206Y-107641198D01*
X176975432Y-107616562D01*
X176965881Y-107597016D01*
X176954366Y-107579770D01*
X176898810Y-107524680D01*
X176831020Y-107492822D01*
X176757287Y-107485191D01*
X176683907Y-107502780D01*
G37*
X176683907Y-107502780D02*
X176637328Y-107529723D01*
X176604943Y-107556466D01*
X176581258Y-107584484D01*
X176564941Y-107618748D01*
X176554661Y-107664227D01*
X176549086Y-107725892D01*
X176546884Y-107808711D01*
X176546629Y-107868246D01*
X176546629Y-108087391D01*
X176608314Y-108115044D01*
X176670000Y-108142697D01*
X176677257Y-107902670D01*
X176680256Y-107813028D01*
X176683402Y-107747962D01*
X176687299Y-107703026D01*
X176692553Y-107673770D01*
X176699769Y-107655748D01*
X176709550Y-107644511D01*
X176712688Y-107642079D01*
X176760239Y-107623083D01*
X176808303Y-107630600D01*
X176836914Y-107650543D01*
X176848553Y-107664675D01*
X176856609Y-107683220D01*
X176861729Y-107711334D01*
X176864559Y-107754173D01*
X176865744Y-107816895D01*
X176865943Y-107882261D01*
X176865982Y-107964268D01*
X176867386Y-108022316D01*
X176872086Y-108061465D01*
X176882013Y-108086780D01*
X176899097Y-108103323D01*
X176925268Y-108116156D01*
X176960225Y-108129491D01*
X176998404Y-108144007D01*
X176993859Y-107886389D01*
X176992029Y-107793519D01*
X176989888Y-107724889D01*
X176986819Y-107675711D01*
X176982206Y-107641198D01*
X176975432Y-107616562D01*
X176965881Y-107597016D01*
X176954366Y-107579770D01*
X176898810Y-107524680D01*
X176831020Y-107492822D01*
X176757287Y-107485191D01*
X176683907Y-107502780D01*
G36*
X177800256Y-107494918D02*
G01*
X177744799Y-107522568D01*
X177695852Y-107573480D01*
X177682371Y-107592338D01*
X177667686Y-107617015D01*
X177658158Y-107643816D01*
X177652707Y-107679587D01*
X177650253Y-107731169D01*
X177649714Y-107799267D01*
X177652148Y-107892588D01*
X177660606Y-107962657D01*
X177676826Y-108014931D01*
X177702546Y-108054869D01*
X177739503Y-108087929D01*
X177742218Y-108089886D01*
X177778640Y-108109908D01*
X177822498Y-108119815D01*
X177878276Y-108122257D01*
X177968952Y-108122257D01*
X177968990Y-108210283D01*
X177969834Y-108259308D01*
X177974976Y-108288065D01*
X177988413Y-108305311D01*
X178014142Y-108319808D01*
X178020321Y-108322769D01*
X178049236Y-108336648D01*
X178071624Y-108345414D01*
X178088271Y-108346171D01*
X178099964Y-108336023D01*
X178107490Y-108312073D01*
X178111634Y-108271426D01*
X178113185Y-108211186D01*
X178112929Y-108128455D01*
X178111651Y-108020339D01*
X178111252Y-107988000D01*
X178109815Y-107876524D01*
X178108528Y-107803603D01*
X177969029Y-107803603D01*
X177968245Y-107865499D01*
X177964760Y-107905997D01*
X177956876Y-107932708D01*
X177942895Y-107953244D01*
X177933403Y-107963260D01*
X177894596Y-107992567D01*
X177860237Y-107994952D01*
X177824784Y-107970750D01*
X177823886Y-107969857D01*
X177809461Y-107951153D01*
X177800687Y-107925732D01*
X177796261Y-107886584D01*
X177794882Y-107826697D01*
X177794857Y-107813430D01*
X177798188Y-107730901D01*
X177809031Y-107673691D01*
X177828660Y-107638766D01*
X177858350Y-107623094D01*
X177875509Y-107621514D01*
X177916234Y-107628926D01*
X177944168Y-107653330D01*
X177960983Y-107697980D01*
X177968350Y-107766130D01*
X177969029Y-107803603D01*
X178108528Y-107803603D01*
X178108292Y-107790245D01*
X178106323Y-107725333D01*
X178103550Y-107677958D01*
X178099612Y-107644290D01*
X178094151Y-107620498D01*
X178086808Y-107602753D01*
X178077223Y-107587224D01*
X178073113Y-107581381D01*
X178018595Y-107526185D01*
X177949664Y-107494890D01*
X177869928Y-107486165D01*
X177800256Y-107494918D01*
G37*
X177800256Y-107494918D02*
X177744799Y-107522568D01*
X177695852Y-107573480D01*
X177682371Y-107592338D01*
X177667686Y-107617015D01*
X177658158Y-107643816D01*
X177652707Y-107679587D01*
X177650253Y-107731169D01*
X177649714Y-107799267D01*
X177652148Y-107892588D01*
X177660606Y-107962657D01*
X177676826Y-108014931D01*
X177702546Y-108054869D01*
X177739503Y-108087929D01*
X177742218Y-108089886D01*
X177778640Y-108109908D01*
X177822498Y-108119815D01*
X177878276Y-108122257D01*
X177968952Y-108122257D01*
X177968990Y-108210283D01*
X177969834Y-108259308D01*
X177974976Y-108288065D01*
X177988413Y-108305311D01*
X178014142Y-108319808D01*
X178020321Y-108322769D01*
X178049236Y-108336648D01*
X178071624Y-108345414D01*
X178088271Y-108346171D01*
X178099964Y-108336023D01*
X178107490Y-108312073D01*
X178111634Y-108271426D01*
X178113185Y-108211186D01*
X178112929Y-108128455D01*
X178111651Y-108020339D01*
X178111252Y-107988000D01*
X178109815Y-107876524D01*
X178108528Y-107803603D01*
X177969029Y-107803603D01*
X177968245Y-107865499D01*
X177964760Y-107905997D01*
X177956876Y-107932708D01*
X177942895Y-107953244D01*
X177933403Y-107963260D01*
X177894596Y-107992567D01*
X177860237Y-107994952D01*
X177824784Y-107970750D01*
X177823886Y-107969857D01*
X177809461Y-107951153D01*
X177800687Y-107925732D01*
X177796261Y-107886584D01*
X177794882Y-107826697D01*
X177794857Y-107813430D01*
X177798188Y-107730901D01*
X177809031Y-107673691D01*
X177828660Y-107638766D01*
X177858350Y-107623094D01*
X177875509Y-107621514D01*
X177916234Y-107628926D01*
X177944168Y-107653330D01*
X177960983Y-107697980D01*
X177968350Y-107766130D01*
X177969029Y-107803603D01*
X178108528Y-107803603D01*
X178108292Y-107790245D01*
X178106323Y-107725333D01*
X178103550Y-107677958D01*
X178099612Y-107644290D01*
X178094151Y-107620498D01*
X178086808Y-107602753D01*
X178077223Y-107587224D01*
X178073113Y-107581381D01*
X178018595Y-107526185D01*
X177949664Y-107494890D01*
X177869928Y-107486165D01*
X177800256Y-107494918D01*
D10*
%TO.C,J1*%
X183080000Y-100345000D02*
X183080000Y-97745000D01*
X183080000Y-100345000D02*
X134700000Y-100345000D01*
X134700000Y-100345000D02*
X134700000Y-95145000D01*
X180480000Y-95145000D02*
X134700000Y-95145000D01*
X180480000Y-97745000D02*
X180480000Y-95145000D01*
X183080000Y-97745000D02*
X180480000Y-97745000D01*
X183080000Y-95145000D02*
X181750000Y-95145000D01*
X183080000Y-96475000D02*
X183080000Y-95145000D01*
D12*
X183972380Y-97411666D02*
X184686666Y-97411666D01*
X184829523Y-97364047D01*
X184924761Y-97268809D01*
X184972380Y-97125952D01*
X184972380Y-97030714D01*
X184972380Y-98411666D02*
X184972380Y-97840238D01*
X184972380Y-98125952D02*
X183972380Y-98125952D01*
X184115238Y-98030714D01*
X184210476Y-97935476D01*
X184258095Y-97840238D01*
%TD*%
%LPC*%
D13*
%TO.C,PC_0*%
X179210000Y-92145000D03*
D14*
X176670000Y-92145000D03*
%TD*%
%TO.C,PC_1*%
X171227142Y-92145000D03*
D13*
X173767142Y-92145000D03*
%TD*%
%TO.C,PC_2*%
X168324285Y-92145000D03*
D14*
X165784285Y-92145000D03*
%TD*%
%TO.C,PC_3*%
X160341428Y-92145000D03*
D13*
X162881428Y-92145000D03*
%TD*%
%TO.C,PC_4*%
X157438571Y-92145000D03*
D14*
X154898571Y-92145000D03*
%TD*%
D13*
%TO.C,PC_5*%
X151995714Y-92145000D03*
D14*
X149455714Y-92145000D03*
%TD*%
%TO.C,PC_6*%
X144012857Y-92145000D03*
D13*
X146552857Y-92145000D03*
%TD*%
D14*
%TO.C,PC_7*%
X138570000Y-92145000D03*
D13*
X141110000Y-92145000D03*
%TD*%
D15*
%TO.C,J1*%
X181750000Y-96475000D03*
D16*
X181750000Y-99015000D03*
X179210000Y-96475000D03*
X179210000Y-99015000D03*
X176670000Y-96475000D03*
X176670000Y-99015000D03*
X174130000Y-96475000D03*
X174130000Y-99015000D03*
X171590000Y-96475000D03*
X171590000Y-99015000D03*
X169050000Y-96475000D03*
X169050000Y-99015000D03*
X166510000Y-96475000D03*
X166510000Y-99015000D03*
X163970000Y-96475000D03*
X163970000Y-99015000D03*
X161430000Y-96475000D03*
X161430000Y-99015000D03*
X158890000Y-96475000D03*
X158890000Y-99015000D03*
X156350000Y-96475000D03*
X156350000Y-99015000D03*
X153810000Y-96475000D03*
X153810000Y-99015000D03*
X151270000Y-96475000D03*
X151270000Y-99015000D03*
X148730000Y-96475000D03*
X148730000Y-99015000D03*
X146190000Y-96475000D03*
X146190000Y-99015000D03*
X143650000Y-96475000D03*
X143650000Y-99015000D03*
X141110000Y-96475000D03*
X141110000Y-99015000D03*
X138570000Y-96475000D03*
X138570000Y-99015000D03*
X136030000Y-96475000D03*
X136030000Y-99015000D03*
%TD*%
D17*
%TO.C,R0*%
X179210000Y-103000000D03*
D18*
X171590000Y-103000000D03*
%TD*%
%TO.C,R1*%
X160676666Y-103000000D03*
D17*
X168296666Y-103000000D03*
%TD*%
%TO.C,R2*%
X157383333Y-103125000D03*
D18*
X149763333Y-103125000D03*
%TD*%
%TO.C,R3*%
X138850000Y-103100000D03*
D17*
X146470000Y-103100000D03*
%TD*%
%TO.C,R4*%
X179220000Y-106200000D03*
D18*
X171600000Y-106200000D03*
%TD*%
%TO.C,R5*%
X160675000Y-106200000D03*
D17*
X168295000Y-106200000D03*
%TD*%
%TO.C,R6*%
X150055000Y-106200000D03*
D18*
X157675000Y-106200000D03*
%TD*%
%TO.C,R7*%
X146470000Y-106200000D03*
D17*
X138850000Y-106200000D03*
%TD*%
M02*
