%TF.GenerationSoftware,KiCad,Pcbnew,(5.1.9)-1*%
%TF.CreationDate,2023-04-10T19:45:02+01:00*%
%TF.ProjectId,#1_Blinkenlight,23315f42-6c69-46e6-9b65-6e6c69676874,Rev 01*%
%TF.SameCoordinates,Original*%
%TF.FileFunction,Copper,L1,Top*%
%TF.FilePolarity,Positive*%
%FSLAX46Y46*%
G04 Gerber Fmt 4.6, Leading zero omitted, Abs format (unit mm)*
G04 Created by KiCad (PCBNEW (5.1.9)-1) date 2023-04-10 19:45:02*
%MOMM*%
%LPD*%
G01*
G04 APERTURE LIST*
%TA.AperFunction,ComponentPad*%
%ADD10R,1.800000X1.800000*%
%TD*%
%TA.AperFunction,ComponentPad*%
%ADD11C,1.800000*%
%TD*%
%TA.AperFunction,ComponentPad*%
%ADD12R,1.700000X1.700000*%
%TD*%
%TA.AperFunction,ComponentPad*%
%ADD13O,1.700000X1.700000*%
%TD*%
%TA.AperFunction,ComponentPad*%
%ADD14O,1.600000X1.600000*%
%TD*%
%TA.AperFunction,ComponentPad*%
%ADD15C,1.600000*%
%TD*%
%TA.AperFunction,Conductor*%
%ADD16C,0.250000*%
%TD*%
G04 APERTURE END LIST*
D10*
%TO.P,PC_0,1*%
%TO.N,GND*%
X179210000Y-92145000D03*
D11*
%TO.P,PC_0,2*%
%TO.N,Net-(D0-Pad2)*%
X176670000Y-92145000D03*
%TD*%
%TO.P,PC_1,2*%
%TO.N,Net-(D1-Pad2)*%
X171227142Y-92145000D03*
D10*
%TO.P,PC_1,1*%
%TO.N,GND*%
X173767142Y-92145000D03*
%TD*%
%TO.P,PC_2,1*%
%TO.N,GND*%
X168324285Y-92145000D03*
D11*
%TO.P,PC_2,2*%
%TO.N,Net-(D2-Pad2)*%
X165784285Y-92145000D03*
%TD*%
%TO.P,PC_3,2*%
%TO.N,Net-(D3-Pad2)*%
X160341428Y-92145000D03*
D10*
%TO.P,PC_3,1*%
%TO.N,GND*%
X162881428Y-92145000D03*
%TD*%
%TO.P,PC_4,1*%
%TO.N,GND*%
X157438571Y-92145000D03*
D11*
%TO.P,PC_4,2*%
%TO.N,Net-(D4-Pad2)*%
X154898571Y-92145000D03*
%TD*%
D10*
%TO.P,PC_5,1*%
%TO.N,GND*%
X151995714Y-92145000D03*
D11*
%TO.P,PC_5,2*%
%TO.N,Net-(D5-Pad2)*%
X149455714Y-92145000D03*
%TD*%
%TO.P,PC_6,2*%
%TO.N,Net-(D6-Pad2)*%
X144012857Y-92145000D03*
D10*
%TO.P,PC_6,1*%
%TO.N,GND*%
X146552857Y-92145000D03*
%TD*%
D11*
%TO.P,PC_7,2*%
%TO.N,Net-(D7-Pad2)*%
X138570000Y-92145000D03*
D10*
%TO.P,PC_7,1*%
%TO.N,GND*%
X141110000Y-92145000D03*
%TD*%
D12*
%TO.P,J1,1*%
%TO.N,Net-(J1-Pad1)*%
X181750000Y-96475000D03*
D13*
%TO.P,J1,2*%
%TO.N,Net-(J1-Pad2)*%
X181750000Y-99015000D03*
%TO.P,J1,3*%
%TO.N,Net-(J1-Pad3)*%
X179210000Y-96475000D03*
%TO.P,J1,4*%
%TO.N,Net-(J1-Pad4)*%
X179210000Y-99015000D03*
%TO.P,J1,5*%
%TO.N,GND*%
X176670000Y-96475000D03*
%TO.P,J1,6*%
%TO.N,Net-(J1-Pad6)*%
X176670000Y-99015000D03*
%TO.P,J1,7*%
%TO.N,GND*%
X174130000Y-96475000D03*
%TO.P,J1,8*%
%TO.N,Net-(J1-Pad8)*%
X174130000Y-99015000D03*
%TO.P,J1,9*%
%TO.N,Net-(J1-Pad9)*%
X171590000Y-96475000D03*
%TO.P,J1,10*%
%TO.N,Net-(J1-Pad10)*%
X171590000Y-99015000D03*
%TO.P,J1,11*%
%TO.N,Net-(J1-Pad11)*%
X169050000Y-96475000D03*
%TO.P,J1,12*%
%TO.N,Net-(J1-Pad12)*%
X169050000Y-99015000D03*
%TO.P,J1,13*%
%TO.N,Net-(J1-Pad13)*%
X166510000Y-96475000D03*
%TO.P,J1,14*%
%TO.N,Net-(J1-Pad14)*%
X166510000Y-99015000D03*
%TO.P,J1,15*%
%TO.N,Net-(J1-Pad15)*%
X163970000Y-96475000D03*
%TO.P,J1,16*%
%TO.N,Net-(J1-Pad16)*%
X163970000Y-99015000D03*
%TO.P,J1,17*%
%TO.N,Net-(J1-Pad17)*%
X161430000Y-96475000D03*
%TO.P,J1,18*%
%TO.N,Net-(J1-Pad18)*%
X161430000Y-99015000D03*
%TO.P,J1,19*%
%TO.N,GPIO_PC0*%
X158890000Y-96475000D03*
%TO.P,J1,20*%
%TO.N,GPIO_PC1*%
X158890000Y-99015000D03*
%TO.P,J1,21*%
%TO.N,GPIO_PC2*%
X156350000Y-96475000D03*
%TO.P,J1,22*%
%TO.N,GPIO_PC3*%
X156350000Y-99015000D03*
%TO.P,J1,23*%
%TO.N,GPIO_PC4*%
X153810000Y-96475000D03*
%TO.P,J1,24*%
%TO.N,GPIO_PC5*%
X153810000Y-99015000D03*
%TO.P,J1,25*%
%TO.N,GPIO_PC6*%
X151270000Y-96475000D03*
%TO.P,J1,26*%
%TO.N,GPIO_PC7*%
X151270000Y-99015000D03*
%TO.P,J1,27*%
%TO.N,Net-(J1-Pad27)*%
X148730000Y-96475000D03*
%TO.P,J1,28*%
%TO.N,Net-(J1-Pad28)*%
X148730000Y-99015000D03*
%TO.P,J1,29*%
%TO.N,Net-(J1-Pad29)*%
X146190000Y-96475000D03*
%TO.P,J1,30*%
%TO.N,Net-(J1-Pad30)*%
X146190000Y-99015000D03*
%TO.P,J1,31*%
%TO.N,Net-(J1-Pad31)*%
X143650000Y-96475000D03*
%TO.P,J1,32*%
%TO.N,Net-(J1-Pad32)*%
X143650000Y-99015000D03*
%TO.P,J1,33*%
%TO.N,Net-(J1-Pad33)*%
X141110000Y-96475000D03*
%TO.P,J1,34*%
%TO.N,Net-(J1-Pad34)*%
X141110000Y-99015000D03*
%TO.P,J1,35*%
%TO.N,Net-(J1-Pad35)*%
X138570000Y-96475000D03*
%TO.P,J1,36*%
%TO.N,Net-(J1-Pad36)*%
X138570000Y-99015000D03*
%TO.P,J1,37*%
%TO.N,Net-(J1-Pad37)*%
X136030000Y-96475000D03*
%TO.P,J1,38*%
%TO.N,Net-(J1-Pad38)*%
X136030000Y-99015000D03*
%TD*%
D14*
%TO.P,R0,2*%
%TO.N,Net-(D0-Pad2)*%
X179210000Y-103000000D03*
D15*
%TO.P,R0,1*%
%TO.N,GPIO_PC0*%
X171590000Y-103000000D03*
%TD*%
%TO.P,R1,1*%
%TO.N,GPIO_PC1*%
X160676666Y-103000000D03*
D14*
%TO.P,R1,2*%
%TO.N,Net-(D1-Pad2)*%
X168296666Y-103000000D03*
%TD*%
%TO.P,R2,2*%
%TO.N,Net-(D2-Pad2)*%
X157383333Y-103125000D03*
D15*
%TO.P,R2,1*%
%TO.N,GPIO_PC2*%
X149763333Y-103125000D03*
%TD*%
%TO.P,R3,1*%
%TO.N,GPIO_PC4*%
X138850000Y-103100000D03*
D14*
%TO.P,R3,2*%
%TO.N,Net-(D3-Pad2)*%
X146470000Y-103100000D03*
%TD*%
%TO.P,R4,2*%
%TO.N,Net-(D4-Pad2)*%
X179220000Y-106200000D03*
D15*
%TO.P,R4,1*%
%TO.N,GPIO_PC4*%
X171600000Y-106200000D03*
%TD*%
%TO.P,R5,1*%
%TO.N,GPIO_PC5*%
X160675000Y-106200000D03*
D14*
%TO.P,R5,2*%
%TO.N,Net-(D5-Pad2)*%
X168295000Y-106200000D03*
%TD*%
%TO.P,R6,2*%
%TO.N,Net-(D6-Pad2)*%
X150055000Y-106200000D03*
D15*
%TO.P,R6,1*%
%TO.N,GPIO_PC6*%
X157675000Y-106200000D03*
%TD*%
%TO.P,R7,1*%
%TO.N,GPIO_PC7*%
X146470000Y-106200000D03*
D14*
%TO.P,R7,2*%
%TO.N,Net-(D7-Pad2)*%
X138850000Y-106200000D03*
%TD*%
D16*
%TO.N,GPIO_PC1*%
X158890000Y-101213334D02*
X160676666Y-103000000D01*
X158890000Y-99015000D02*
X158890000Y-101213334D01*
%TO.N,GPIO_PC2*%
X149763333Y-103125000D02*
X152425000Y-103125000D01*
X155174999Y-97650001D02*
X156350000Y-96475000D01*
X155174999Y-100375001D02*
X155174999Y-97650001D01*
X152425000Y-103125000D02*
X155174999Y-100375001D01*
%TO.N,GPIO_PC4*%
X139745001Y-96100997D02*
X139745001Y-102204999D01*
X140545999Y-95299999D02*
X139745001Y-96100997D01*
X139745001Y-102204999D02*
X138850000Y-103100000D01*
X152634999Y-95299999D02*
X140545999Y-95299999D01*
X153810000Y-96475000D02*
X152634999Y-95299999D01*
%TO.N,Net-(D0-Pad2)*%
X176670000Y-93695000D02*
X176670000Y-91395000D01*
X177400000Y-94425000D02*
X176670000Y-93695000D01*
X179725000Y-94425000D02*
X177400000Y-94425000D01*
X180500000Y-95200000D02*
X179725000Y-94425000D01*
X180500000Y-101710000D02*
X180500000Y-95200000D01*
X179210000Y-103000000D02*
X180500000Y-101710000D01*
%TO.N,Net-(D1-Pad2)*%
X170327143Y-100969523D02*
X168296666Y-103000000D01*
X170327143Y-92294999D02*
X170327143Y-100969523D01*
X171227142Y-91395000D02*
X170327143Y-92294999D01*
%TO.N,Net-(D2-Pad2)*%
X165145001Y-92034284D02*
X165784285Y-91395000D01*
X165145001Y-100704999D02*
X165145001Y-92034284D01*
X161725000Y-104125000D02*
X165145001Y-100704999D01*
X158383333Y-104125000D02*
X161725000Y-104125000D01*
X157383333Y-103125000D02*
X158383333Y-104125000D01*
%TO.N,Net-(D3-Pad2)*%
X158598572Y-93370001D02*
X158663572Y-93305001D01*
X158366427Y-93370001D02*
X158598572Y-93370001D01*
X158663572Y-93072856D02*
X160341428Y-91395000D01*
X158663572Y-93305001D02*
X158663572Y-93072856D01*
X157600000Y-94136428D02*
X158366427Y-93370001D01*
X157600000Y-99650000D02*
X157600000Y-94136428D01*
X152750000Y-104500000D02*
X157600000Y-99650000D01*
X147870000Y-104500000D02*
X152750000Y-104500000D01*
X146470000Y-103100000D02*
X147870000Y-104500000D01*
%TD*%
M02*
