%FSLAX45Y45*%
G04 Gerber Fmt 4.5, Leading zero omitted, Abs format (unit mm)*
G04 Created by KiCad (PCBNEW (5.1.9)-1) date 2023-05-18 19:44:40*
%MOMM*%
%LPD*%
G01*
G04 APERTURE LIST*
%TA.AperFunction,Profile*%
%ADD10C,0.100000*%
%TD*%
%ADD11C,0.200000*%
%ADD12C,0.300000*%
G04 APERTURE END LIST*
D10*
X18629000Y-8750000D02*
X18629000Y-10900000D01*
X13403000Y-8750000D02*
X18629000Y-8750000D01*
X13403000Y-10900000D02*
X13403000Y-8750000D01*
X18629000Y-10900000D02*
X13403000Y-10900000D01*
D11*
X13845000Y-10270000D02*
X13925000Y-10350000D01*
X13925000Y-10270000D02*
X13845000Y-10350000D01*
X13845000Y-10580000D02*
X13925000Y-10660000D01*
X13925000Y-10580000D02*
X13845000Y-10660000D01*
X14607000Y-10270000D02*
X14687000Y-10350000D01*
X14687000Y-10270000D02*
X14607000Y-10350000D01*
X14607000Y-10580000D02*
X14687000Y-10660000D01*
X14687000Y-10580000D02*
X14607000Y-10660000D01*
X14936333Y-10272500D02*
X15016333Y-10352500D01*
X15016333Y-10272500D02*
X14936333Y-10352500D01*
X14965500Y-10580000D02*
X15045500Y-10660000D01*
X15045500Y-10580000D02*
X14965500Y-10660000D01*
X15698333Y-10272500D02*
X15778333Y-10352500D01*
X15778333Y-10272500D02*
X15698333Y-10352500D01*
X15727500Y-10580000D02*
X15807500Y-10660000D01*
X15807500Y-10580000D02*
X15727500Y-10660000D01*
X16027500Y-10580000D02*
X16107500Y-10660000D01*
X16107500Y-10580000D02*
X16027500Y-10660000D01*
X16027667Y-10260000D02*
X16107667Y-10340000D01*
X16107667Y-10260000D02*
X16027667Y-10340000D01*
X16789500Y-10580000D02*
X16869500Y-10660000D01*
X16869500Y-10580000D02*
X16789500Y-10660000D01*
X16789667Y-10260000D02*
X16869667Y-10340000D01*
X16869667Y-10260000D02*
X16789667Y-10340000D01*
X17119000Y-10260000D02*
X17199000Y-10340000D01*
X17199000Y-10260000D02*
X17119000Y-10340000D01*
X17120000Y-10580000D02*
X17200000Y-10660000D01*
X17200000Y-10580000D02*
X17120000Y-10660000D01*
X17881000Y-10260000D02*
X17961000Y-10340000D01*
X17961000Y-10260000D02*
X17881000Y-10340000D01*
X17882000Y-10580000D02*
X17962000Y-10660000D01*
X17962000Y-10580000D02*
X17882000Y-10660000D01*
X13902000Y-9214500D02*
G75*
G03*
X13902000Y-9214500I-45000J0D01*
G01*
X14156000Y-9214500D02*
G75*
G03*
X14156000Y-9214500I-45000J0D01*
G01*
X14446286Y-9214500D02*
G75*
G03*
X14446286Y-9214500I-45000J0D01*
G01*
X14700286Y-9214500D02*
G75*
G03*
X14700286Y-9214500I-45000J0D01*
G01*
X14990571Y-9214500D02*
G75*
G03*
X14990571Y-9214500I-45000J0D01*
G01*
X15244571Y-9214500D02*
G75*
G03*
X15244571Y-9214500I-45000J0D01*
G01*
X15534857Y-9214500D02*
G75*
G03*
X15534857Y-9214500I-45000J0D01*
G01*
X15788857Y-9214500D02*
G75*
G03*
X15788857Y-9214500I-45000J0D01*
G01*
X16079143Y-9214500D02*
G75*
G03*
X16079143Y-9214500I-45000J0D01*
G01*
X16333143Y-9214500D02*
G75*
G03*
X16333143Y-9214500I-45000J0D01*
G01*
X16623428Y-9214500D02*
G75*
G03*
X16623428Y-9214500I-45000J0D01*
G01*
X16877429Y-9214500D02*
G75*
G03*
X16877429Y-9214500I-45000J0D01*
G01*
X17167714Y-9214500D02*
G75*
G03*
X17167714Y-9214500I-45000J0D01*
G01*
X17421714Y-9214500D02*
G75*
G03*
X17421714Y-9214500I-45000J0D01*
G01*
X17712000Y-9214500D02*
G75*
G03*
X17712000Y-9214500I-45000J0D01*
G01*
X17966000Y-9214500D02*
G75*
G03*
X17966000Y-9214500I-45000J0D01*
G01*
X13603000Y-9597500D02*
X13603000Y-9697500D01*
X13553000Y-9647500D02*
X13653000Y-9647500D01*
X13603000Y-9851500D02*
X13603000Y-9951500D01*
X13553000Y-9901500D02*
X13653000Y-9901500D01*
X13857000Y-9597500D02*
X13857000Y-9697500D01*
X13807000Y-9647500D02*
X13907000Y-9647500D01*
X13857000Y-9851500D02*
X13857000Y-9951500D01*
X13807000Y-9901500D02*
X13907000Y-9901500D01*
X14111000Y-9597500D02*
X14111000Y-9697500D01*
X14061000Y-9647500D02*
X14161000Y-9647500D01*
X14111000Y-9851500D02*
X14111000Y-9951500D01*
X14061000Y-9901500D02*
X14161000Y-9901500D01*
X14365000Y-9597500D02*
X14365000Y-9697500D01*
X14315000Y-9647500D02*
X14415000Y-9647500D01*
X14365000Y-9851500D02*
X14365000Y-9951500D01*
X14315000Y-9901500D02*
X14415000Y-9901500D01*
X14619000Y-9597500D02*
X14619000Y-9697500D01*
X14569000Y-9647500D02*
X14669000Y-9647500D01*
X14619000Y-9851500D02*
X14619000Y-9951500D01*
X14569000Y-9901500D02*
X14669000Y-9901500D01*
X14873000Y-9597500D02*
X14873000Y-9697500D01*
X14823000Y-9647500D02*
X14923000Y-9647500D01*
X14873000Y-9851500D02*
X14873000Y-9951500D01*
X14823000Y-9901500D02*
X14923000Y-9901500D01*
X15127000Y-9597500D02*
X15127000Y-9697500D01*
X15077000Y-9647500D02*
X15177000Y-9647500D01*
X15127000Y-9851500D02*
X15127000Y-9951500D01*
X15077000Y-9901500D02*
X15177000Y-9901500D01*
X15381000Y-9597500D02*
X15381000Y-9697500D01*
X15331000Y-9647500D02*
X15431000Y-9647500D01*
X15381000Y-9851500D02*
X15381000Y-9951500D01*
X15331000Y-9901500D02*
X15431000Y-9901500D01*
X15635000Y-9597500D02*
X15635000Y-9697500D01*
X15585000Y-9647500D02*
X15685000Y-9647500D01*
X15635000Y-9851500D02*
X15635000Y-9951500D01*
X15585000Y-9901500D02*
X15685000Y-9901500D01*
X15889000Y-9597500D02*
X15889000Y-9697500D01*
X15839000Y-9647500D02*
X15939000Y-9647500D01*
X15889000Y-9851500D02*
X15889000Y-9951500D01*
X15839000Y-9901500D02*
X15939000Y-9901500D01*
X16143000Y-9597500D02*
X16143000Y-9697500D01*
X16093000Y-9647500D02*
X16193000Y-9647500D01*
X16143000Y-9851500D02*
X16143000Y-9951500D01*
X16093000Y-9901500D02*
X16193000Y-9901500D01*
X16397000Y-9597500D02*
X16397000Y-9697500D01*
X16347000Y-9647500D02*
X16447000Y-9647500D01*
X16397000Y-9851500D02*
X16397000Y-9951500D01*
X16347000Y-9901500D02*
X16447000Y-9901500D01*
X16651000Y-9597500D02*
X16651000Y-9697500D01*
X16601000Y-9647500D02*
X16701000Y-9647500D01*
X16651000Y-9851500D02*
X16651000Y-9951500D01*
X16601000Y-9901500D02*
X16701000Y-9901500D01*
X16905000Y-9597500D02*
X16905000Y-9697500D01*
X16855000Y-9647500D02*
X16955000Y-9647500D01*
X16905000Y-9851500D02*
X16905000Y-9951500D01*
X16855000Y-9901500D02*
X16955000Y-9901500D01*
X17159000Y-9597500D02*
X17159000Y-9697500D01*
X17109000Y-9647500D02*
X17209000Y-9647500D01*
X17159000Y-9851500D02*
X17159000Y-9951500D01*
X17109000Y-9901500D02*
X17209000Y-9901500D01*
X17413000Y-9597500D02*
X17413000Y-9697500D01*
X17363000Y-9647500D02*
X17463000Y-9647500D01*
X17413000Y-9851500D02*
X17413000Y-9951500D01*
X17363000Y-9901500D02*
X17463000Y-9901500D01*
X17667000Y-9597500D02*
X17667000Y-9697500D01*
X17617000Y-9647500D02*
X17717000Y-9647500D01*
X17667000Y-9851500D02*
X17667000Y-9951500D01*
X17617000Y-9901500D02*
X17717000Y-9901500D01*
X17921000Y-9597500D02*
X17921000Y-9697500D01*
X17871000Y-9647500D02*
X17971000Y-9647500D01*
X17921000Y-9851500D02*
X17921000Y-9951500D01*
X17871000Y-9901500D02*
X17971000Y-9901500D01*
X18175000Y-9597500D02*
X18175000Y-9697500D01*
X18125000Y-9647500D02*
X18225000Y-9647500D01*
X18175000Y-9851500D02*
X18175000Y-9951500D01*
X18125000Y-9901500D02*
X18225000Y-9901500D01*
D12*
X13684428Y-11370714D02*
X13684428Y-11070714D01*
X13755857Y-11070714D01*
X13798714Y-11085000D01*
X13827286Y-11113572D01*
X13841571Y-11142143D01*
X13855857Y-11199286D01*
X13855857Y-11242143D01*
X13841571Y-11299286D01*
X13827286Y-11327857D01*
X13798714Y-11356429D01*
X13755857Y-11370714D01*
X13684428Y-11370714D01*
X13984428Y-11370714D02*
X13984428Y-11170714D01*
X13984428Y-11227857D02*
X13998714Y-11199286D01*
X14013000Y-11185000D01*
X14041571Y-11170714D01*
X14070143Y-11170714D01*
X14170143Y-11370714D02*
X14170143Y-11170714D01*
X14170143Y-11070714D02*
X14155857Y-11085000D01*
X14170143Y-11099286D01*
X14184428Y-11085000D01*
X14170143Y-11070714D01*
X14170143Y-11099286D01*
X14355857Y-11370714D02*
X14327286Y-11356429D01*
X14313000Y-11327857D01*
X14313000Y-11070714D01*
X14513000Y-11370714D02*
X14484428Y-11356429D01*
X14470143Y-11327857D01*
X14470143Y-11070714D01*
X14855857Y-11370714D02*
X14855857Y-11070714D01*
X14955857Y-11285000D01*
X15055857Y-11070714D01*
X15055857Y-11370714D01*
X15327286Y-11370714D02*
X15327286Y-11213571D01*
X15313000Y-11185000D01*
X15284428Y-11170714D01*
X15227286Y-11170714D01*
X15198714Y-11185000D01*
X15327286Y-11356429D02*
X15298714Y-11370714D01*
X15227286Y-11370714D01*
X15198714Y-11356429D01*
X15184428Y-11327857D01*
X15184428Y-11299286D01*
X15198714Y-11270714D01*
X15227286Y-11256429D01*
X15298714Y-11256429D01*
X15327286Y-11242143D01*
X15470143Y-11170714D02*
X15470143Y-11470714D01*
X15470143Y-11185000D02*
X15498714Y-11170714D01*
X15555857Y-11170714D01*
X15584428Y-11185000D01*
X15598714Y-11199286D01*
X15613000Y-11227857D01*
X15613000Y-11313571D01*
X15598714Y-11342143D01*
X15584428Y-11356429D01*
X15555857Y-11370714D01*
X15498714Y-11370714D01*
X15470143Y-11356429D01*
X15741571Y-11342143D02*
X15755857Y-11356429D01*
X15741571Y-11370714D01*
X15727286Y-11356429D01*
X15741571Y-11342143D01*
X15741571Y-11370714D01*
X15741571Y-11185000D02*
X15755857Y-11199286D01*
X15741571Y-11213571D01*
X15727286Y-11199286D01*
X15741571Y-11185000D01*
X15741571Y-11213571D01*
X13318000Y-11825000D02*
X13398000Y-11905000D01*
X13398000Y-11825000D02*
X13318000Y-11905000D01*
X13741571Y-11700714D02*
X13770143Y-11700714D01*
X13798714Y-11715000D01*
X13813000Y-11729286D01*
X13827286Y-11757857D01*
X13841571Y-11815000D01*
X13841571Y-11886429D01*
X13827286Y-11943571D01*
X13813000Y-11972143D01*
X13798714Y-11986429D01*
X13770143Y-12000714D01*
X13741571Y-12000714D01*
X13713000Y-11986429D01*
X13698714Y-11972143D01*
X13684428Y-11943571D01*
X13670143Y-11886429D01*
X13670143Y-11815000D01*
X13684428Y-11757857D01*
X13698714Y-11729286D01*
X13713000Y-11715000D01*
X13741571Y-11700714D01*
X13970143Y-11972143D02*
X13984428Y-11986429D01*
X13970143Y-12000714D01*
X13955857Y-11986429D01*
X13970143Y-11972143D01*
X13970143Y-12000714D01*
X14155857Y-11829286D02*
X14127286Y-11815000D01*
X14113000Y-11800714D01*
X14098714Y-11772143D01*
X14098714Y-11757857D01*
X14113000Y-11729286D01*
X14127286Y-11715000D01*
X14155857Y-11700714D01*
X14213000Y-11700714D01*
X14241571Y-11715000D01*
X14255857Y-11729286D01*
X14270143Y-11757857D01*
X14270143Y-11772143D01*
X14255857Y-11800714D01*
X14241571Y-11815000D01*
X14213000Y-11829286D01*
X14155857Y-11829286D01*
X14127286Y-11843571D01*
X14113000Y-11857857D01*
X14098714Y-11886429D01*
X14098714Y-11943571D01*
X14113000Y-11972143D01*
X14127286Y-11986429D01*
X14155857Y-12000714D01*
X14213000Y-12000714D01*
X14241571Y-11986429D01*
X14255857Y-11972143D01*
X14270143Y-11943571D01*
X14270143Y-11886429D01*
X14255857Y-11857857D01*
X14241571Y-11843571D01*
X14213000Y-11829286D01*
X14455857Y-11700714D02*
X14484428Y-11700714D01*
X14513000Y-11715000D01*
X14527286Y-11729286D01*
X14541571Y-11757857D01*
X14555857Y-11815000D01*
X14555857Y-11886429D01*
X14541571Y-11943571D01*
X14527286Y-11972143D01*
X14513000Y-11986429D01*
X14484428Y-12000714D01*
X14455857Y-12000714D01*
X14427286Y-11986429D01*
X14413000Y-11972143D01*
X14398714Y-11943571D01*
X14384428Y-11886429D01*
X14384428Y-11815000D01*
X14398714Y-11757857D01*
X14413000Y-11729286D01*
X14427286Y-11715000D01*
X14455857Y-11700714D01*
X14684428Y-12000714D02*
X14684428Y-11800714D01*
X14684428Y-11829286D02*
X14698714Y-11815000D01*
X14727286Y-11800714D01*
X14770143Y-11800714D01*
X14798714Y-11815000D01*
X14813000Y-11843571D01*
X14813000Y-12000714D01*
X14813000Y-11843571D02*
X14827286Y-11815000D01*
X14855857Y-11800714D01*
X14898714Y-11800714D01*
X14927286Y-11815000D01*
X14941571Y-11843571D01*
X14941571Y-12000714D01*
X15084428Y-12000714D02*
X15084428Y-11800714D01*
X15084428Y-11829286D02*
X15098714Y-11815000D01*
X15127286Y-11800714D01*
X15170143Y-11800714D01*
X15198714Y-11815000D01*
X15213000Y-11843571D01*
X15213000Y-12000714D01*
X15213000Y-11843571D02*
X15227286Y-11815000D01*
X15255857Y-11800714D01*
X15298714Y-11800714D01*
X15327286Y-11815000D01*
X15341571Y-11843571D01*
X15341571Y-12000714D01*
X15927286Y-11686429D02*
X15670143Y-12072143D01*
X16313000Y-11700714D02*
X16341571Y-11700714D01*
X16370143Y-11715000D01*
X16384428Y-11729286D01*
X16398714Y-11757857D01*
X16413000Y-11815000D01*
X16413000Y-11886429D01*
X16398714Y-11943571D01*
X16384428Y-11972143D01*
X16370143Y-11986429D01*
X16341571Y-12000714D01*
X16313000Y-12000714D01*
X16284428Y-11986429D01*
X16270143Y-11972143D01*
X16255857Y-11943571D01*
X16241571Y-11886429D01*
X16241571Y-11815000D01*
X16255857Y-11757857D01*
X16270143Y-11729286D01*
X16284428Y-11715000D01*
X16313000Y-11700714D01*
X16541571Y-11972143D02*
X16555857Y-11986429D01*
X16541571Y-12000714D01*
X16527286Y-11986429D01*
X16541571Y-11972143D01*
X16541571Y-12000714D01*
X16741571Y-11700714D02*
X16770143Y-11700714D01*
X16798714Y-11715000D01*
X16813000Y-11729286D01*
X16827286Y-11757857D01*
X16841571Y-11815000D01*
X16841571Y-11886429D01*
X16827286Y-11943571D01*
X16813000Y-11972143D01*
X16798714Y-11986429D01*
X16770143Y-12000714D01*
X16741571Y-12000714D01*
X16713000Y-11986429D01*
X16698714Y-11972143D01*
X16684428Y-11943571D01*
X16670143Y-11886429D01*
X16670143Y-11815000D01*
X16684428Y-11757857D01*
X16698714Y-11729286D01*
X16713000Y-11715000D01*
X16741571Y-11700714D01*
X16941571Y-11700714D02*
X17127286Y-11700714D01*
X17027286Y-11815000D01*
X17070143Y-11815000D01*
X17098714Y-11829286D01*
X17113000Y-11843571D01*
X17127286Y-11872143D01*
X17127286Y-11943571D01*
X17113000Y-11972143D01*
X17098714Y-11986429D01*
X17070143Y-12000714D01*
X16984428Y-12000714D01*
X16955857Y-11986429D01*
X16941571Y-11972143D01*
X17413000Y-12000714D02*
X17241571Y-12000714D01*
X17327286Y-12000714D02*
X17327286Y-11700714D01*
X17298714Y-11743571D01*
X17270143Y-11772143D01*
X17241571Y-11786429D01*
X17527286Y-11700714D02*
X17527286Y-11757857D01*
X17641571Y-11700714D02*
X17641571Y-11757857D01*
X18084428Y-12115000D02*
X18070143Y-12100714D01*
X18041571Y-12057857D01*
X18027286Y-12029286D01*
X18013000Y-11986429D01*
X17998714Y-11915000D01*
X17998714Y-11857857D01*
X18013000Y-11786429D01*
X18027286Y-11743571D01*
X18041571Y-11715000D01*
X18070143Y-11672143D01*
X18084428Y-11657857D01*
X18355857Y-12000714D02*
X18184428Y-12000714D01*
X18270143Y-12000714D02*
X18270143Y-11700714D01*
X18241571Y-11743571D01*
X18213000Y-11772143D01*
X18184428Y-11786429D01*
X18613000Y-11700714D02*
X18555857Y-11700714D01*
X18527286Y-11715000D01*
X18513000Y-11729286D01*
X18484428Y-11772143D01*
X18470143Y-11829286D01*
X18470143Y-11943571D01*
X18484428Y-11972143D01*
X18498714Y-11986429D01*
X18527286Y-12000714D01*
X18584428Y-12000714D01*
X18613000Y-11986429D01*
X18627286Y-11972143D01*
X18641571Y-11943571D01*
X18641571Y-11872143D01*
X18627286Y-11843571D01*
X18613000Y-11829286D01*
X18584428Y-11815000D01*
X18527286Y-11815000D01*
X18498714Y-11829286D01*
X18484428Y-11843571D01*
X18470143Y-11872143D01*
X18998714Y-12000714D02*
X18998714Y-11700714D01*
X19127286Y-12000714D02*
X19127286Y-11843571D01*
X19113000Y-11815000D01*
X19084428Y-11800714D01*
X19041571Y-11800714D01*
X19013000Y-11815000D01*
X18998714Y-11829286D01*
X19313000Y-12000714D02*
X19284428Y-11986429D01*
X19270143Y-11972143D01*
X19255857Y-11943571D01*
X19255857Y-11857857D01*
X19270143Y-11829286D01*
X19284428Y-11815000D01*
X19313000Y-11800714D01*
X19355857Y-11800714D01*
X19384428Y-11815000D01*
X19398714Y-11829286D01*
X19413000Y-11857857D01*
X19413000Y-11943571D01*
X19398714Y-11972143D01*
X19384428Y-11986429D01*
X19355857Y-12000714D01*
X19313000Y-12000714D01*
X19584428Y-12000714D02*
X19555857Y-11986429D01*
X19541571Y-11957857D01*
X19541571Y-11700714D01*
X19813000Y-11986429D02*
X19784428Y-12000714D01*
X19727286Y-12000714D01*
X19698714Y-11986429D01*
X19684428Y-11957857D01*
X19684428Y-11843571D01*
X19698714Y-11815000D01*
X19727286Y-11800714D01*
X19784428Y-11800714D01*
X19813000Y-11815000D01*
X19827286Y-11843571D01*
X19827286Y-11872143D01*
X19684428Y-11900714D01*
X19941571Y-11986429D02*
X19970143Y-12000714D01*
X20027286Y-12000714D01*
X20055857Y-11986429D01*
X20070143Y-11957857D01*
X20070143Y-11943571D01*
X20055857Y-11915000D01*
X20027286Y-11900714D01*
X19984428Y-11900714D01*
X19955857Y-11886429D01*
X19941571Y-11857857D01*
X19941571Y-11843571D01*
X19955857Y-11815000D01*
X19984428Y-11800714D01*
X20027286Y-11800714D01*
X20055857Y-11815000D01*
X20170143Y-12115000D02*
X20184428Y-12100714D01*
X20213000Y-12057857D01*
X20227286Y-12029286D01*
X20241571Y-11986429D01*
X20255857Y-11915000D01*
X20255857Y-11857857D01*
X20241571Y-11786429D01*
X20227286Y-11743571D01*
X20213000Y-11715000D01*
X20184428Y-11672143D01*
X20170143Y-11657857D01*
X13398000Y-12261000D02*
G75*
G03*
X13398000Y-12261000I-45000J0D01*
G01*
X13741571Y-12096714D02*
X13770143Y-12096714D01*
X13798714Y-12111000D01*
X13813000Y-12125286D01*
X13827286Y-12153857D01*
X13841571Y-12211000D01*
X13841571Y-12282429D01*
X13827286Y-12339571D01*
X13813000Y-12368143D01*
X13798714Y-12382429D01*
X13770143Y-12396714D01*
X13741571Y-12396714D01*
X13713000Y-12382429D01*
X13698714Y-12368143D01*
X13684428Y-12339571D01*
X13670143Y-12282429D01*
X13670143Y-12211000D01*
X13684428Y-12153857D01*
X13698714Y-12125286D01*
X13713000Y-12111000D01*
X13741571Y-12096714D01*
X13970143Y-12368143D02*
X13984428Y-12382429D01*
X13970143Y-12396714D01*
X13955857Y-12382429D01*
X13970143Y-12368143D01*
X13970143Y-12396714D01*
X14127286Y-12396714D02*
X14184428Y-12396714D01*
X14213000Y-12382429D01*
X14227286Y-12368143D01*
X14255857Y-12325286D01*
X14270143Y-12268143D01*
X14270143Y-12153857D01*
X14255857Y-12125286D01*
X14241571Y-12111000D01*
X14213000Y-12096714D01*
X14155857Y-12096714D01*
X14127286Y-12111000D01*
X14113000Y-12125286D01*
X14098714Y-12153857D01*
X14098714Y-12225286D01*
X14113000Y-12253857D01*
X14127286Y-12268143D01*
X14155857Y-12282429D01*
X14213000Y-12282429D01*
X14241571Y-12268143D01*
X14255857Y-12253857D01*
X14270143Y-12225286D01*
X14455857Y-12096714D02*
X14484428Y-12096714D01*
X14513000Y-12111000D01*
X14527286Y-12125286D01*
X14541571Y-12153857D01*
X14555857Y-12211000D01*
X14555857Y-12282429D01*
X14541571Y-12339571D01*
X14527286Y-12368143D01*
X14513000Y-12382429D01*
X14484428Y-12396714D01*
X14455857Y-12396714D01*
X14427286Y-12382429D01*
X14413000Y-12368143D01*
X14398714Y-12339571D01*
X14384428Y-12282429D01*
X14384428Y-12211000D01*
X14398714Y-12153857D01*
X14413000Y-12125286D01*
X14427286Y-12111000D01*
X14455857Y-12096714D01*
X14684428Y-12396714D02*
X14684428Y-12196714D01*
X14684428Y-12225286D02*
X14698714Y-12211000D01*
X14727286Y-12196714D01*
X14770143Y-12196714D01*
X14798714Y-12211000D01*
X14813000Y-12239571D01*
X14813000Y-12396714D01*
X14813000Y-12239571D02*
X14827286Y-12211000D01*
X14855857Y-12196714D01*
X14898714Y-12196714D01*
X14927286Y-12211000D01*
X14941571Y-12239571D01*
X14941571Y-12396714D01*
X15084428Y-12396714D02*
X15084428Y-12196714D01*
X15084428Y-12225286D02*
X15098714Y-12211000D01*
X15127286Y-12196714D01*
X15170143Y-12196714D01*
X15198714Y-12211000D01*
X15213000Y-12239571D01*
X15213000Y-12396714D01*
X15213000Y-12239571D02*
X15227286Y-12211000D01*
X15255857Y-12196714D01*
X15298714Y-12196714D01*
X15327286Y-12211000D01*
X15341571Y-12239571D01*
X15341571Y-12396714D01*
X15927286Y-12082429D02*
X15670143Y-12468143D01*
X16313000Y-12096714D02*
X16341571Y-12096714D01*
X16370143Y-12111000D01*
X16384428Y-12125286D01*
X16398714Y-12153857D01*
X16413000Y-12211000D01*
X16413000Y-12282429D01*
X16398714Y-12339571D01*
X16384428Y-12368143D01*
X16370143Y-12382429D01*
X16341571Y-12396714D01*
X16313000Y-12396714D01*
X16284428Y-12382429D01*
X16270143Y-12368143D01*
X16255857Y-12339571D01*
X16241571Y-12282429D01*
X16241571Y-12211000D01*
X16255857Y-12153857D01*
X16270143Y-12125286D01*
X16284428Y-12111000D01*
X16313000Y-12096714D01*
X16541571Y-12368143D02*
X16555857Y-12382429D01*
X16541571Y-12396714D01*
X16527286Y-12382429D01*
X16541571Y-12368143D01*
X16541571Y-12396714D01*
X16741571Y-12096714D02*
X16770143Y-12096714D01*
X16798714Y-12111000D01*
X16813000Y-12125286D01*
X16827286Y-12153857D01*
X16841571Y-12211000D01*
X16841571Y-12282429D01*
X16827286Y-12339571D01*
X16813000Y-12368143D01*
X16798714Y-12382429D01*
X16770143Y-12396714D01*
X16741571Y-12396714D01*
X16713000Y-12382429D01*
X16698714Y-12368143D01*
X16684428Y-12339571D01*
X16670143Y-12282429D01*
X16670143Y-12211000D01*
X16684428Y-12153857D01*
X16698714Y-12125286D01*
X16713000Y-12111000D01*
X16741571Y-12096714D01*
X16941571Y-12096714D02*
X17127286Y-12096714D01*
X17027286Y-12211000D01*
X17070143Y-12211000D01*
X17098714Y-12225286D01*
X17113000Y-12239571D01*
X17127286Y-12268143D01*
X17127286Y-12339571D01*
X17113000Y-12368143D01*
X17098714Y-12382429D01*
X17070143Y-12396714D01*
X16984428Y-12396714D01*
X16955857Y-12382429D01*
X16941571Y-12368143D01*
X17398714Y-12096714D02*
X17255857Y-12096714D01*
X17241571Y-12239571D01*
X17255857Y-12225286D01*
X17284428Y-12211000D01*
X17355857Y-12211000D01*
X17384428Y-12225286D01*
X17398714Y-12239571D01*
X17413000Y-12268143D01*
X17413000Y-12339571D01*
X17398714Y-12368143D01*
X17384428Y-12382429D01*
X17355857Y-12396714D01*
X17284428Y-12396714D01*
X17255857Y-12382429D01*
X17241571Y-12368143D01*
X17527286Y-12096714D02*
X17527286Y-12153857D01*
X17641571Y-12096714D02*
X17641571Y-12153857D01*
X18084428Y-12511000D02*
X18070143Y-12496714D01*
X18041571Y-12453857D01*
X18027286Y-12425286D01*
X18013000Y-12382429D01*
X17998714Y-12311000D01*
X17998714Y-12253857D01*
X18013000Y-12182429D01*
X18027286Y-12139571D01*
X18041571Y-12111000D01*
X18070143Y-12068143D01*
X18084428Y-12053857D01*
X18355857Y-12396714D02*
X18184428Y-12396714D01*
X18270143Y-12396714D02*
X18270143Y-12096714D01*
X18241571Y-12139571D01*
X18213000Y-12168143D01*
X18184428Y-12182429D01*
X18613000Y-12096714D02*
X18555857Y-12096714D01*
X18527286Y-12111000D01*
X18513000Y-12125286D01*
X18484428Y-12168143D01*
X18470143Y-12225286D01*
X18470143Y-12339571D01*
X18484428Y-12368143D01*
X18498714Y-12382429D01*
X18527286Y-12396714D01*
X18584428Y-12396714D01*
X18613000Y-12382429D01*
X18627286Y-12368143D01*
X18641571Y-12339571D01*
X18641571Y-12268143D01*
X18627286Y-12239571D01*
X18613000Y-12225286D01*
X18584428Y-12211000D01*
X18527286Y-12211000D01*
X18498714Y-12225286D01*
X18484428Y-12239571D01*
X18470143Y-12268143D01*
X18998714Y-12396714D02*
X18998714Y-12096714D01*
X19127286Y-12396714D02*
X19127286Y-12239571D01*
X19113000Y-12211000D01*
X19084428Y-12196714D01*
X19041571Y-12196714D01*
X19013000Y-12211000D01*
X18998714Y-12225286D01*
X19313000Y-12396714D02*
X19284428Y-12382429D01*
X19270143Y-12368143D01*
X19255857Y-12339571D01*
X19255857Y-12253857D01*
X19270143Y-12225286D01*
X19284428Y-12211000D01*
X19313000Y-12196714D01*
X19355857Y-12196714D01*
X19384428Y-12211000D01*
X19398714Y-12225286D01*
X19413000Y-12253857D01*
X19413000Y-12339571D01*
X19398714Y-12368143D01*
X19384428Y-12382429D01*
X19355857Y-12396714D01*
X19313000Y-12396714D01*
X19584428Y-12396714D02*
X19555857Y-12382429D01*
X19541571Y-12353857D01*
X19541571Y-12096714D01*
X19813000Y-12382429D02*
X19784428Y-12396714D01*
X19727286Y-12396714D01*
X19698714Y-12382429D01*
X19684428Y-12353857D01*
X19684428Y-12239571D01*
X19698714Y-12211000D01*
X19727286Y-12196714D01*
X19784428Y-12196714D01*
X19813000Y-12211000D01*
X19827286Y-12239571D01*
X19827286Y-12268143D01*
X19684428Y-12296714D01*
X19941571Y-12382429D02*
X19970143Y-12396714D01*
X20027286Y-12396714D01*
X20055857Y-12382429D01*
X20070143Y-12353857D01*
X20070143Y-12339571D01*
X20055857Y-12311000D01*
X20027286Y-12296714D01*
X19984428Y-12296714D01*
X19955857Y-12282429D01*
X19941571Y-12253857D01*
X19941571Y-12239571D01*
X19955857Y-12211000D01*
X19984428Y-12196714D01*
X20027286Y-12196714D01*
X20055857Y-12211000D01*
X20170143Y-12511000D02*
X20184428Y-12496714D01*
X20213000Y-12453857D01*
X20227286Y-12425286D01*
X20241571Y-12382429D01*
X20255857Y-12311000D01*
X20255857Y-12253857D01*
X20241571Y-12182429D01*
X20227286Y-12139571D01*
X20213000Y-12111000D01*
X20184428Y-12068143D01*
X20170143Y-12053857D01*
X13348000Y-12607000D02*
X13348000Y-12707000D01*
X13298000Y-12657000D02*
X13398000Y-12657000D01*
X13841571Y-12792714D02*
X13670143Y-12792714D01*
X13755857Y-12792714D02*
X13755857Y-12492714D01*
X13727286Y-12535571D01*
X13698714Y-12564143D01*
X13670143Y-12578429D01*
X13970143Y-12764143D02*
X13984428Y-12778429D01*
X13970143Y-12792714D01*
X13955857Y-12778429D01*
X13970143Y-12764143D01*
X13970143Y-12792714D01*
X14170143Y-12492714D02*
X14198714Y-12492714D01*
X14227286Y-12507000D01*
X14241571Y-12521286D01*
X14255857Y-12549857D01*
X14270143Y-12607000D01*
X14270143Y-12678429D01*
X14255857Y-12735571D01*
X14241571Y-12764143D01*
X14227286Y-12778429D01*
X14198714Y-12792714D01*
X14170143Y-12792714D01*
X14141571Y-12778429D01*
X14127286Y-12764143D01*
X14113000Y-12735571D01*
X14098714Y-12678429D01*
X14098714Y-12607000D01*
X14113000Y-12549857D01*
X14127286Y-12521286D01*
X14141571Y-12507000D01*
X14170143Y-12492714D01*
X14455857Y-12492714D02*
X14484428Y-12492714D01*
X14513000Y-12507000D01*
X14527286Y-12521286D01*
X14541571Y-12549857D01*
X14555857Y-12607000D01*
X14555857Y-12678429D01*
X14541571Y-12735571D01*
X14527286Y-12764143D01*
X14513000Y-12778429D01*
X14484428Y-12792714D01*
X14455857Y-12792714D01*
X14427286Y-12778429D01*
X14413000Y-12764143D01*
X14398714Y-12735571D01*
X14384428Y-12678429D01*
X14384428Y-12607000D01*
X14398714Y-12549857D01*
X14413000Y-12521286D01*
X14427286Y-12507000D01*
X14455857Y-12492714D01*
X14684428Y-12792714D02*
X14684428Y-12592714D01*
X14684428Y-12621286D02*
X14698714Y-12607000D01*
X14727286Y-12592714D01*
X14770143Y-12592714D01*
X14798714Y-12607000D01*
X14813000Y-12635571D01*
X14813000Y-12792714D01*
X14813000Y-12635571D02*
X14827286Y-12607000D01*
X14855857Y-12592714D01*
X14898714Y-12592714D01*
X14927286Y-12607000D01*
X14941571Y-12635571D01*
X14941571Y-12792714D01*
X15084428Y-12792714D02*
X15084428Y-12592714D01*
X15084428Y-12621286D02*
X15098714Y-12607000D01*
X15127286Y-12592714D01*
X15170143Y-12592714D01*
X15198714Y-12607000D01*
X15213000Y-12635571D01*
X15213000Y-12792714D01*
X15213000Y-12635571D02*
X15227286Y-12607000D01*
X15255857Y-12592714D01*
X15298714Y-12592714D01*
X15327286Y-12607000D01*
X15341571Y-12635571D01*
X15341571Y-12792714D01*
X15927286Y-12478429D02*
X15670143Y-12864143D01*
X16313000Y-12492714D02*
X16341571Y-12492714D01*
X16370143Y-12507000D01*
X16384428Y-12521286D01*
X16398714Y-12549857D01*
X16413000Y-12607000D01*
X16413000Y-12678429D01*
X16398714Y-12735571D01*
X16384428Y-12764143D01*
X16370143Y-12778429D01*
X16341571Y-12792714D01*
X16313000Y-12792714D01*
X16284428Y-12778429D01*
X16270143Y-12764143D01*
X16255857Y-12735571D01*
X16241571Y-12678429D01*
X16241571Y-12607000D01*
X16255857Y-12549857D01*
X16270143Y-12521286D01*
X16284428Y-12507000D01*
X16313000Y-12492714D01*
X16541571Y-12764143D02*
X16555857Y-12778429D01*
X16541571Y-12792714D01*
X16527286Y-12778429D01*
X16541571Y-12764143D01*
X16541571Y-12792714D01*
X16741571Y-12492714D02*
X16770143Y-12492714D01*
X16798714Y-12507000D01*
X16813000Y-12521286D01*
X16827286Y-12549857D01*
X16841571Y-12607000D01*
X16841571Y-12678429D01*
X16827286Y-12735571D01*
X16813000Y-12764143D01*
X16798714Y-12778429D01*
X16770143Y-12792714D01*
X16741571Y-12792714D01*
X16713000Y-12778429D01*
X16698714Y-12764143D01*
X16684428Y-12735571D01*
X16670143Y-12678429D01*
X16670143Y-12607000D01*
X16684428Y-12549857D01*
X16698714Y-12521286D01*
X16713000Y-12507000D01*
X16741571Y-12492714D01*
X16941571Y-12492714D02*
X17127286Y-12492714D01*
X17027286Y-12607000D01*
X17070143Y-12607000D01*
X17098714Y-12621286D01*
X17113000Y-12635571D01*
X17127286Y-12664143D01*
X17127286Y-12735571D01*
X17113000Y-12764143D01*
X17098714Y-12778429D01*
X17070143Y-12792714D01*
X16984428Y-12792714D01*
X16955857Y-12778429D01*
X16941571Y-12764143D01*
X17270143Y-12792714D02*
X17327286Y-12792714D01*
X17355857Y-12778429D01*
X17370143Y-12764143D01*
X17398714Y-12721286D01*
X17413000Y-12664143D01*
X17413000Y-12549857D01*
X17398714Y-12521286D01*
X17384428Y-12507000D01*
X17355857Y-12492714D01*
X17298714Y-12492714D01*
X17270143Y-12507000D01*
X17255857Y-12521286D01*
X17241571Y-12549857D01*
X17241571Y-12621286D01*
X17255857Y-12649857D01*
X17270143Y-12664143D01*
X17298714Y-12678429D01*
X17355857Y-12678429D01*
X17384428Y-12664143D01*
X17398714Y-12649857D01*
X17413000Y-12621286D01*
X17527286Y-12492714D02*
X17527286Y-12549857D01*
X17641571Y-12492714D02*
X17641571Y-12549857D01*
X18084428Y-12907000D02*
X18070143Y-12892714D01*
X18041571Y-12849857D01*
X18027286Y-12821286D01*
X18013000Y-12778429D01*
X17998714Y-12707000D01*
X17998714Y-12649857D01*
X18013000Y-12578429D01*
X18027286Y-12535571D01*
X18041571Y-12507000D01*
X18070143Y-12464143D01*
X18084428Y-12449857D01*
X18170143Y-12492714D02*
X18355857Y-12492714D01*
X18255857Y-12607000D01*
X18298714Y-12607000D01*
X18327286Y-12621286D01*
X18341571Y-12635571D01*
X18355857Y-12664143D01*
X18355857Y-12735571D01*
X18341571Y-12764143D01*
X18327286Y-12778429D01*
X18298714Y-12792714D01*
X18213000Y-12792714D01*
X18184428Y-12778429D01*
X18170143Y-12764143D01*
X18527286Y-12621286D02*
X18498714Y-12607000D01*
X18484428Y-12592714D01*
X18470143Y-12564143D01*
X18470143Y-12549857D01*
X18484428Y-12521286D01*
X18498714Y-12507000D01*
X18527286Y-12492714D01*
X18584428Y-12492714D01*
X18613000Y-12507000D01*
X18627286Y-12521286D01*
X18641571Y-12549857D01*
X18641571Y-12564143D01*
X18627286Y-12592714D01*
X18613000Y-12607000D01*
X18584428Y-12621286D01*
X18527286Y-12621286D01*
X18498714Y-12635571D01*
X18484428Y-12649857D01*
X18470143Y-12678429D01*
X18470143Y-12735571D01*
X18484428Y-12764143D01*
X18498714Y-12778429D01*
X18527286Y-12792714D01*
X18584428Y-12792714D01*
X18613000Y-12778429D01*
X18627286Y-12764143D01*
X18641571Y-12735571D01*
X18641571Y-12678429D01*
X18627286Y-12649857D01*
X18613000Y-12635571D01*
X18584428Y-12621286D01*
X18998714Y-12792714D02*
X18998714Y-12492714D01*
X19127286Y-12792714D02*
X19127286Y-12635571D01*
X19113000Y-12607000D01*
X19084428Y-12592714D01*
X19041571Y-12592714D01*
X19013000Y-12607000D01*
X18998714Y-12621286D01*
X19313000Y-12792714D02*
X19284428Y-12778429D01*
X19270143Y-12764143D01*
X19255857Y-12735571D01*
X19255857Y-12649857D01*
X19270143Y-12621286D01*
X19284428Y-12607000D01*
X19313000Y-12592714D01*
X19355857Y-12592714D01*
X19384428Y-12607000D01*
X19398714Y-12621286D01*
X19413000Y-12649857D01*
X19413000Y-12735571D01*
X19398714Y-12764143D01*
X19384428Y-12778429D01*
X19355857Y-12792714D01*
X19313000Y-12792714D01*
X19584428Y-12792714D02*
X19555857Y-12778429D01*
X19541571Y-12749857D01*
X19541571Y-12492714D01*
X19813000Y-12778429D02*
X19784428Y-12792714D01*
X19727286Y-12792714D01*
X19698714Y-12778429D01*
X19684428Y-12749857D01*
X19684428Y-12635571D01*
X19698714Y-12607000D01*
X19727286Y-12592714D01*
X19784428Y-12592714D01*
X19813000Y-12607000D01*
X19827286Y-12635571D01*
X19827286Y-12664143D01*
X19684428Y-12692714D01*
X19941571Y-12778429D02*
X19970143Y-12792714D01*
X20027286Y-12792714D01*
X20055857Y-12778429D01*
X20070143Y-12749857D01*
X20070143Y-12735571D01*
X20055857Y-12707000D01*
X20027286Y-12692714D01*
X19984428Y-12692714D01*
X19955857Y-12678429D01*
X19941571Y-12649857D01*
X19941571Y-12635571D01*
X19955857Y-12607000D01*
X19984428Y-12592714D01*
X20027286Y-12592714D01*
X20055857Y-12607000D01*
X20170143Y-12907000D02*
X20184428Y-12892714D01*
X20213000Y-12849857D01*
X20227286Y-12821286D01*
X20241571Y-12778429D01*
X20255857Y-12707000D01*
X20255857Y-12649857D01*
X20241571Y-12578429D01*
X20227286Y-12535571D01*
X20213000Y-12507000D01*
X20184428Y-12464143D01*
X20170143Y-12449857D01*
M02*
