%TF.GenerationSoftware,KiCad,Pcbnew,(5.1.9)-1*%
%TF.CreationDate,2023-04-12T18:55:13+01:00*%
%TF.ProjectId,#2_7segment,23325f37-7365-4676-9d65-6e742e6b6963,Rev 01*%
%TF.SameCoordinates,Original*%
%TF.FileFunction,Legend,Bot*%
%TF.FilePolarity,Positive*%
%FSLAX46Y46*%
G04 Gerber Fmt 4.6, Leading zero omitted, Abs format (unit mm)*
G04 Created by KiCad (PCBNEW (5.1.9)-1) date 2023-04-12 18:55:13*
%MOMM*%
%LPD*%
G01*
G04 APERTURE LIST*
%ADD10C,0.120000*%
%ADD11C,0.150000*%
%ADD12C,0.010000*%
%ADD13R,1.700000X1.700000*%
%ADD14O,1.700000X1.700000*%
%ADD15O,1.600000X1.600000*%
%ADD16C,1.600000*%
%ADD17O,1.524000X2.524000*%
%ADD18R,1.524000X2.524000*%
%ADD19R,1.000000X1.500000*%
G04 APERTURE END LIST*
D10*
X184705285Y-105026428D02*
X184723142Y-105169285D01*
X184858857Y-105112142D02*
X184723142Y-105169285D01*
X184573142Y-105112142D01*
X184823142Y-105283571D02*
X184723142Y-105169285D01*
X184651714Y-105283571D01*
X184248142Y-105026428D02*
X184266000Y-105169285D01*
X184401714Y-105112142D02*
X184266000Y-105169285D01*
X184116000Y-105112142D01*
X184366000Y-105283571D02*
X184266000Y-105169285D01*
X184194571Y-105283571D01*
X183248142Y-105026428D02*
X183301714Y-105455000D01*
X183341000Y-105540714D01*
X183405285Y-105597857D01*
X183494571Y-105626428D01*
X183551714Y-105626428D01*
X183037428Y-105626428D02*
X182962428Y-105026428D01*
X182733857Y-105026428D01*
X182680285Y-105055000D01*
X182655285Y-105083571D01*
X182633857Y-105140714D01*
X182644571Y-105226428D01*
X182680285Y-105283571D01*
X182712428Y-105312142D01*
X182773142Y-105340714D01*
X183001714Y-105340714D01*
X182123142Y-105626428D02*
X182466000Y-105626428D01*
X182294571Y-105626428D02*
X182219571Y-105026428D01*
X182287428Y-105112142D01*
X182351714Y-105169285D01*
X182412428Y-105197857D01*
X181408857Y-105626428D02*
X181333857Y-105026428D01*
X181362428Y-105255000D02*
X181301714Y-105226428D01*
X181187428Y-105226428D01*
X181133857Y-105255000D01*
X181108857Y-105283571D01*
X181087428Y-105340714D01*
X181108857Y-105512142D01*
X181144571Y-105569285D01*
X181176714Y-105597857D01*
X181237428Y-105626428D01*
X181351714Y-105626428D01*
X181405285Y-105597857D01*
X180866000Y-105626428D02*
X180816000Y-105226428D01*
X180830285Y-105340714D02*
X180794571Y-105283571D01*
X180762428Y-105255000D01*
X180701714Y-105226428D01*
X180644571Y-105226428D01*
X180494571Y-105626428D02*
X180444571Y-105226428D01*
X180419571Y-105026428D02*
X180451714Y-105055000D01*
X180426714Y-105083571D01*
X180394571Y-105055000D01*
X180419571Y-105026428D01*
X180426714Y-105083571D01*
X179951714Y-105626428D02*
X179876714Y-105026428D01*
X179948142Y-105597857D02*
X180008857Y-105626428D01*
X180123142Y-105626428D01*
X180176714Y-105597857D01*
X180201714Y-105569285D01*
X180223142Y-105512142D01*
X180201714Y-105340714D01*
X180166000Y-105283571D01*
X180133857Y-105255000D01*
X180073142Y-105226428D01*
X179958857Y-105226428D01*
X179905285Y-105255000D01*
X179358857Y-105226428D02*
X179419571Y-105712142D01*
X179455285Y-105769285D01*
X179487428Y-105797857D01*
X179548142Y-105826428D01*
X179633857Y-105826428D01*
X179687428Y-105797857D01*
X179405285Y-105597857D02*
X179466000Y-105626428D01*
X179580285Y-105626428D01*
X179633857Y-105597857D01*
X179658857Y-105569285D01*
X179680285Y-105512142D01*
X179658857Y-105340714D01*
X179623142Y-105283571D01*
X179591000Y-105255000D01*
X179530285Y-105226428D01*
X179416000Y-105226428D01*
X179362428Y-105255000D01*
X178891000Y-105597857D02*
X178951714Y-105626428D01*
X179066000Y-105626428D01*
X179119571Y-105597857D01*
X179141000Y-105540714D01*
X179112428Y-105312142D01*
X179076714Y-105255000D01*
X179016000Y-105226428D01*
X178901714Y-105226428D01*
X178848142Y-105255000D01*
X178826714Y-105312142D01*
X178833857Y-105369285D01*
X179126714Y-105426428D01*
X178633857Y-105597857D02*
X178580285Y-105626428D01*
X178466000Y-105626428D01*
X178405285Y-105597857D01*
X178369571Y-105540714D01*
X178366000Y-105512142D01*
X178387428Y-105455000D01*
X178441000Y-105426428D01*
X178526714Y-105426428D01*
X178580285Y-105397857D01*
X178601714Y-105340714D01*
X178598142Y-105312142D01*
X178562428Y-105255000D01*
X178501714Y-105226428D01*
X178416000Y-105226428D01*
X178362428Y-105255000D01*
X184658857Y-106475000D02*
X184373142Y-106475000D01*
X184737428Y-106646428D02*
X184462428Y-106046428D01*
X184337428Y-106646428D01*
X184137428Y-106646428D02*
X184062428Y-106046428D01*
X183794571Y-106646428D01*
X183719571Y-106046428D01*
X183319571Y-106046428D02*
X183205285Y-106046428D01*
X183151714Y-106075000D01*
X183101714Y-106132142D01*
X183087428Y-106246428D01*
X183112428Y-106446428D01*
X183155285Y-106560714D01*
X183219571Y-106617857D01*
X183280285Y-106646428D01*
X183394571Y-106646428D01*
X183448142Y-106617857D01*
X183498142Y-106560714D01*
X183512428Y-106446428D01*
X183487428Y-106246428D01*
X183444571Y-106132142D01*
X183380285Y-106075000D01*
X183319571Y-106046428D01*
X182880285Y-106646428D02*
X182805285Y-106046428D01*
X182662428Y-106046428D01*
X182580285Y-106075000D01*
X182530285Y-106132142D01*
X182508857Y-106189285D01*
X182494571Y-106303571D01*
X182505285Y-106389285D01*
X182548142Y-106503571D01*
X182583857Y-106560714D01*
X182648142Y-106617857D01*
X182737428Y-106646428D01*
X182880285Y-106646428D01*
X182241000Y-106332142D02*
X182041000Y-106332142D01*
X181994571Y-106646428D02*
X182280285Y-106646428D01*
X182205285Y-106046428D01*
X181919571Y-106046428D01*
X180966000Y-106646428D02*
X181308857Y-106646428D01*
X181137428Y-106646428D02*
X181062428Y-106046428D01*
X181130285Y-106132142D01*
X181194571Y-106189285D01*
X181255285Y-106217857D01*
X180287428Y-106246428D02*
X180058857Y-106246428D01*
X180176714Y-106046428D02*
X180241000Y-106560714D01*
X180219571Y-106617857D01*
X180166000Y-106646428D01*
X180108857Y-106646428D01*
X179823142Y-106646428D02*
X179876714Y-106617857D01*
X179901714Y-106589285D01*
X179923142Y-106532142D01*
X179901714Y-106360714D01*
X179866000Y-106303571D01*
X179833857Y-106275000D01*
X179773142Y-106246428D01*
X179687428Y-106246428D01*
X179633857Y-106275000D01*
X179608857Y-106303571D01*
X179587428Y-106360714D01*
X179608857Y-106532142D01*
X179644571Y-106589285D01*
X179676714Y-106617857D01*
X179737428Y-106646428D01*
X179823142Y-106646428D01*
X178869571Y-106103571D02*
X178837428Y-106075000D01*
X178776714Y-106046428D01*
X178633857Y-106046428D01*
X178580285Y-106075000D01*
X178555285Y-106103571D01*
X178533857Y-106160714D01*
X178541000Y-106217857D01*
X178580285Y-106303571D01*
X178966000Y-106646428D01*
X178594571Y-106646428D01*
X184830285Y-107609285D02*
X184862428Y-107637857D01*
X184951714Y-107666428D01*
X185008857Y-107666428D01*
X185091000Y-107637857D01*
X185141000Y-107580714D01*
X185162428Y-107523571D01*
X185176714Y-107409285D01*
X185166000Y-107323571D01*
X185123142Y-107209285D01*
X185087428Y-107152142D01*
X185023142Y-107095000D01*
X184933857Y-107066428D01*
X184876714Y-107066428D01*
X184794571Y-107095000D01*
X184769571Y-107123571D01*
X184587428Y-107495000D02*
X184301714Y-107495000D01*
X184666000Y-107666428D02*
X184391000Y-107066428D01*
X184266000Y-107666428D01*
X184076714Y-107066428D02*
X183733857Y-107066428D01*
X183980285Y-107666428D02*
X183905285Y-107066428D01*
X183608857Y-107666428D02*
X183533857Y-107066428D01*
X183569571Y-107352142D02*
X183226714Y-107352142D01*
X183266000Y-107666428D02*
X183191000Y-107066428D01*
X182791000Y-107066428D02*
X182676714Y-107066428D01*
X182623142Y-107095000D01*
X182573142Y-107152142D01*
X182558857Y-107266428D01*
X182583857Y-107466428D01*
X182626714Y-107580714D01*
X182691000Y-107637857D01*
X182751714Y-107666428D01*
X182866000Y-107666428D01*
X182919571Y-107637857D01*
X182969571Y-107580714D01*
X182983857Y-107466428D01*
X182958857Y-107266428D01*
X182916000Y-107152142D01*
X182851714Y-107095000D01*
X182791000Y-107066428D01*
X182351714Y-107666428D02*
X182276714Y-107066428D01*
X182133857Y-107066428D01*
X182051714Y-107095000D01*
X182001714Y-107152142D01*
X181980285Y-107209285D01*
X181966000Y-107323571D01*
X181976714Y-107409285D01*
X182019571Y-107523571D01*
X182055285Y-107580714D01*
X182119571Y-107637857D01*
X182208857Y-107666428D01*
X182351714Y-107666428D01*
X181712428Y-107352142D02*
X181512428Y-107352142D01*
X181466000Y-107666428D02*
X181751714Y-107666428D01*
X181676714Y-107066428D01*
X181391000Y-107066428D01*
X180712428Y-107123571D02*
X180680285Y-107095000D01*
X180619571Y-107066428D01*
X180476714Y-107066428D01*
X180423142Y-107095000D01*
X180398142Y-107123571D01*
X180376714Y-107180714D01*
X180383857Y-107237857D01*
X180423142Y-107323571D01*
X180808857Y-107666428D01*
X180437428Y-107666428D01*
X179758857Y-107266428D02*
X179530285Y-107266428D01*
X179648142Y-107066428D02*
X179712428Y-107580714D01*
X179691000Y-107637857D01*
X179637428Y-107666428D01*
X179580285Y-107666428D01*
X179294571Y-107666428D02*
X179348142Y-107637857D01*
X179373142Y-107609285D01*
X179394571Y-107552142D01*
X179373142Y-107380714D01*
X179337428Y-107323571D01*
X179305285Y-107295000D01*
X179244571Y-107266428D01*
X179158857Y-107266428D01*
X179105285Y-107295000D01*
X179080285Y-107323571D01*
X179058857Y-107380714D01*
X179080285Y-107552142D01*
X179116000Y-107609285D01*
X179148142Y-107637857D01*
X179208857Y-107666428D01*
X179294571Y-107666428D01*
X178362428Y-107066428D02*
X177991000Y-107066428D01*
X178219571Y-107295000D01*
X178133857Y-107295000D01*
X178080285Y-107323571D01*
X178055285Y-107352142D01*
X178033857Y-107409285D01*
X178051714Y-107552142D01*
X178087428Y-107609285D01*
X178119571Y-107637857D01*
X178180285Y-107666428D01*
X178351714Y-107666428D01*
X178405285Y-107637857D01*
X178430285Y-107609285D01*
D11*
X158996428Y-100678571D02*
X158967857Y-100650000D01*
X158910714Y-100621428D01*
X158767857Y-100621428D01*
X158710714Y-100650000D01*
X158682142Y-100678571D01*
X158653571Y-100735714D01*
X158653571Y-100792857D01*
X158682142Y-100878571D01*
X159025000Y-101221428D01*
X158653571Y-101221428D01*
D10*
X179654988Y-91186904D02*
X179678797Y-91377380D01*
X179859750Y-91301190D02*
X179678797Y-91377380D01*
X179478797Y-91301190D01*
X179812130Y-91529761D02*
X179678797Y-91377380D01*
X179583559Y-91529761D01*
X178280285Y-91671428D02*
X178623142Y-91671428D01*
X178451713Y-91671428D02*
X178376713Y-91071428D01*
X178444570Y-91157142D01*
X178508856Y-91214285D01*
X178569570Y-91242857D01*
X177783856Y-91357142D02*
X177701713Y-91385714D01*
X177676713Y-91414285D01*
X177655285Y-91471428D01*
X177665999Y-91557142D01*
X177701713Y-91614285D01*
X177733856Y-91642857D01*
X177794570Y-91671428D01*
X178023142Y-91671428D01*
X177948142Y-91071428D01*
X177748142Y-91071428D01*
X177694570Y-91100000D01*
X177669570Y-91128571D01*
X177648142Y-91185714D01*
X177655285Y-91242857D01*
X177690999Y-91300000D01*
X177723142Y-91328571D01*
X177783856Y-91357142D01*
X177983856Y-91357142D01*
X176926713Y-91357142D02*
X176469570Y-91357142D01*
X176490999Y-91528571D02*
X176948142Y-91528571D01*
X175765999Y-91671428D02*
X175690999Y-91071428D01*
X175462428Y-91071428D01*
X175408856Y-91100000D01*
X175383856Y-91128571D01*
X175362428Y-91185714D01*
X175373142Y-91271428D01*
X175408856Y-91328571D01*
X175440999Y-91357142D01*
X175501713Y-91385714D01*
X175730285Y-91385714D01*
X175165999Y-91671428D02*
X175090999Y-91071428D01*
X174880285Y-91671428D02*
X174805285Y-91071428D01*
X174537428Y-91671428D01*
X174462428Y-91071428D01*
X173480285Y-91671428D02*
X173823142Y-91671428D01*
X173651713Y-91671428D02*
X173576713Y-91071428D01*
X173644570Y-91157142D01*
X173708856Y-91214285D01*
X173769570Y-91242857D01*
X172773142Y-91500000D02*
X172487428Y-91500000D01*
X172851713Y-91671428D02*
X172576713Y-91071428D01*
X172451713Y-91671428D01*
X171865999Y-91100000D02*
X171919570Y-91071428D01*
X172005285Y-91071428D01*
X172094570Y-91100000D01*
X172158856Y-91157142D01*
X172194570Y-91214285D01*
X172237428Y-91328571D01*
X172248142Y-91414285D01*
X172233856Y-91528571D01*
X172212428Y-91585714D01*
X172162428Y-91642857D01*
X172080285Y-91671428D01*
X172023142Y-91671428D01*
X171933856Y-91642857D01*
X171901713Y-91614285D01*
X171876713Y-91414285D01*
X171990999Y-91414285D01*
X171462428Y-91071428D02*
X171348142Y-91071428D01*
X171294570Y-91100000D01*
X171244570Y-91157142D01*
X171230285Y-91271428D01*
X171255285Y-91471428D01*
X171298142Y-91585714D01*
X171362428Y-91642857D01*
X171423142Y-91671428D01*
X171537428Y-91671428D01*
X171590999Y-91642857D01*
X171640999Y-91585714D01*
X171655285Y-91471428D01*
X171630285Y-91271428D01*
X171587428Y-91157142D01*
X171523142Y-91100000D01*
X171462428Y-91071428D01*
X171023142Y-91671428D02*
X170948142Y-91071428D01*
X170680285Y-91671428D01*
X170605285Y-91071428D01*
X170108856Y-91671428D02*
X170394570Y-91671428D01*
X170319570Y-91071428D01*
X169908856Y-91671428D02*
X169833856Y-91071428D01*
X169237428Y-91100000D02*
X169290999Y-91071428D01*
X169376713Y-91071428D01*
X169465999Y-91100000D01*
X169530285Y-91157142D01*
X169565999Y-91214285D01*
X169608856Y-91328571D01*
X169619570Y-91414285D01*
X169605285Y-91528571D01*
X169583856Y-91585714D01*
X169533856Y-91642857D01*
X169451713Y-91671428D01*
X169394570Y-91671428D01*
X169305285Y-91642857D01*
X169273142Y-91614285D01*
X169248142Y-91414285D01*
X169362428Y-91414285D01*
X169023142Y-91671428D02*
X168948142Y-91071428D01*
X168983856Y-91357142D02*
X168640999Y-91357142D01*
X168680285Y-91671428D02*
X168605285Y-91071428D01*
X168405285Y-91071428D02*
X168062428Y-91071428D01*
X168308856Y-91671428D02*
X168233856Y-91071428D01*
X161701714Y-107846428D02*
X161473142Y-107846428D01*
X161666000Y-108246428D02*
X161601714Y-107732142D01*
X161566000Y-107675000D01*
X161505285Y-107646428D01*
X161448142Y-107646428D01*
X159066000Y-107646428D02*
X159083857Y-107789285D01*
X159219571Y-107732142D02*
X159083857Y-107789285D01*
X158933857Y-107732142D01*
X159183857Y-107903571D02*
X159083857Y-107789285D01*
X159012428Y-107903571D01*
X158608857Y-107646428D02*
X158626714Y-107789285D01*
X158762428Y-107732142D02*
X158626714Y-107789285D01*
X158476714Y-107732142D01*
X158726714Y-107903571D02*
X158626714Y-107789285D01*
X158555285Y-107903571D01*
X163894571Y-108217857D02*
X163955285Y-108246428D01*
X164069571Y-108246428D01*
X164123142Y-108217857D01*
X164144571Y-108160714D01*
X164116000Y-107932142D01*
X164080285Y-107875000D01*
X164019571Y-107846428D01*
X163905285Y-107846428D01*
X163851714Y-107875000D01*
X163830285Y-107932142D01*
X163837428Y-107989285D01*
X164130285Y-108046428D01*
X153880285Y-108246428D02*
X153805285Y-107646428D01*
X153876714Y-108217857D02*
X153937428Y-108246428D01*
X154051714Y-108246428D01*
X154105285Y-108217857D01*
X154130285Y-108189285D01*
X154151714Y-108132142D01*
X154130285Y-107960714D01*
X154094571Y-107903571D01*
X154062428Y-107875000D01*
X154001714Y-107846428D01*
X153887428Y-107846428D01*
X153833857Y-107875000D01*
X153544571Y-107846428D02*
X153619571Y-108446428D01*
X153548142Y-107875000D02*
X153487428Y-107846428D01*
X153373142Y-107846428D01*
X153319571Y-107875000D01*
X153294571Y-107903571D01*
X153273142Y-107960714D01*
X153294571Y-108132142D01*
X153330285Y-108189285D01*
X153362428Y-108217857D01*
X153423142Y-108246428D01*
X153537428Y-108246428D01*
X153591000Y-108217857D01*
X156283857Y-107846428D02*
X156344571Y-108332142D01*
X156380285Y-108389285D01*
X156412428Y-108417857D01*
X156473142Y-108446428D01*
X156558857Y-108446428D01*
X156612428Y-108417857D01*
X156330285Y-108217857D02*
X156391000Y-108246428D01*
X156505285Y-108246428D01*
X156558857Y-108217857D01*
X156583857Y-108189285D01*
X156605285Y-108132142D01*
X156583857Y-107960714D01*
X156548142Y-107903571D01*
X156516000Y-107875000D01*
X156455285Y-107846428D01*
X156341000Y-107846428D01*
X156287428Y-107875000D01*
X163858857Y-92896428D02*
X163783857Y-92296428D01*
X163855285Y-92867857D02*
X163916000Y-92896428D01*
X164030285Y-92896428D01*
X164083857Y-92867857D01*
X164108857Y-92839285D01*
X164130285Y-92782142D01*
X164108857Y-92610714D01*
X164073142Y-92553571D01*
X164041000Y-92525000D01*
X163980285Y-92496428D01*
X163866000Y-92496428D01*
X163812428Y-92525000D01*
X159041000Y-92296428D02*
X159058857Y-92439285D01*
X159194571Y-92382142D02*
X159058857Y-92439285D01*
X158908857Y-92382142D01*
X159158857Y-92553571D02*
X159058857Y-92439285D01*
X158987428Y-92553571D01*
X158583857Y-92296428D02*
X158601714Y-92439285D01*
X158737428Y-92382142D02*
X158601714Y-92439285D01*
X158451714Y-92382142D01*
X158701714Y-92553571D02*
X158601714Y-92439285D01*
X158530285Y-92553571D01*
X161466000Y-92867857D02*
X161526714Y-92896428D01*
X161641000Y-92896428D01*
X161694571Y-92867857D01*
X161719571Y-92839285D01*
X161741000Y-92782142D01*
X161719571Y-92610714D01*
X161683857Y-92553571D01*
X161651714Y-92525000D01*
X161591000Y-92496428D01*
X161476714Y-92496428D01*
X161423142Y-92525000D01*
X149787428Y-91046428D02*
X149444571Y-91046428D01*
X149691000Y-91646428D02*
X149616000Y-91046428D01*
X149319571Y-91646428D02*
X149244571Y-91046428D01*
X149062428Y-91646428D02*
X149023142Y-91332142D01*
X149044571Y-91275000D01*
X149098142Y-91246428D01*
X149183857Y-91246428D01*
X149244571Y-91275000D01*
X149276714Y-91303571D01*
X148776714Y-91646428D02*
X148726714Y-91246428D01*
X148701714Y-91046428D02*
X148733857Y-91075000D01*
X148708857Y-91103571D01*
X148676714Y-91075000D01*
X148701714Y-91046428D01*
X148708857Y-91103571D01*
X148516000Y-91617857D02*
X148462428Y-91646428D01*
X148348142Y-91646428D01*
X148287428Y-91617857D01*
X148251714Y-91560714D01*
X148248142Y-91532142D01*
X148269571Y-91475000D01*
X148323142Y-91446428D01*
X148408857Y-91446428D01*
X148462428Y-91417857D01*
X148483857Y-91360714D01*
X148480285Y-91332142D01*
X148444571Y-91275000D01*
X148383857Y-91246428D01*
X148298142Y-91246428D01*
X148244571Y-91275000D01*
X147573142Y-91617857D02*
X147519571Y-91646428D01*
X147405285Y-91646428D01*
X147344571Y-91617857D01*
X147308857Y-91560714D01*
X147305285Y-91532142D01*
X147326714Y-91475000D01*
X147380285Y-91446428D01*
X147466000Y-91446428D01*
X147519571Y-91417857D01*
X147541000Y-91360714D01*
X147537428Y-91332142D01*
X147501714Y-91275000D01*
X147441000Y-91246428D01*
X147355285Y-91246428D01*
X147301714Y-91275000D01*
X147062428Y-91646428D02*
X147012428Y-91246428D01*
X146987428Y-91046428D02*
X147019571Y-91075000D01*
X146994571Y-91103571D01*
X146962428Y-91075000D01*
X146987428Y-91046428D01*
X146994571Y-91103571D01*
X146519571Y-91646428D02*
X146444571Y-91046428D01*
X146516000Y-91617857D02*
X146576714Y-91646428D01*
X146691000Y-91646428D01*
X146744571Y-91617857D01*
X146769571Y-91589285D01*
X146791000Y-91532142D01*
X146769571Y-91360714D01*
X146733857Y-91303571D01*
X146701714Y-91275000D01*
X146641000Y-91246428D01*
X146526714Y-91246428D01*
X146473142Y-91275000D01*
X146001714Y-91617857D02*
X146062428Y-91646428D01*
X146176714Y-91646428D01*
X146230285Y-91617857D01*
X146251714Y-91560714D01*
X146223142Y-91332142D01*
X146187428Y-91275000D01*
X146126714Y-91246428D01*
X146012428Y-91246428D01*
X145958857Y-91275000D01*
X145937428Y-91332142D01*
X145944571Y-91389285D01*
X146237428Y-91446428D01*
X145262428Y-91646428D02*
X145212428Y-91246428D01*
X145187428Y-91046428D02*
X145219571Y-91075000D01*
X145194571Y-91103571D01*
X145162428Y-91075000D01*
X145187428Y-91046428D01*
X145194571Y-91103571D01*
X145001714Y-91617857D02*
X144948142Y-91646428D01*
X144833857Y-91646428D01*
X144773142Y-91617857D01*
X144737428Y-91560714D01*
X144733857Y-91532142D01*
X144755285Y-91475000D01*
X144808857Y-91446428D01*
X144894571Y-91446428D01*
X144948142Y-91417857D01*
X144969571Y-91360714D01*
X144966000Y-91332142D01*
X144930285Y-91275000D01*
X144869571Y-91246428D01*
X144783857Y-91246428D01*
X144730285Y-91275000D01*
X144069571Y-91246428D02*
X143841000Y-91246428D01*
X143958857Y-91046428D02*
X144023142Y-91560714D01*
X144001714Y-91617857D01*
X143948142Y-91646428D01*
X143891000Y-91646428D01*
X143691000Y-91646428D02*
X143616000Y-91046428D01*
X143433857Y-91646428D02*
X143394571Y-91332142D01*
X143416000Y-91275000D01*
X143469571Y-91246428D01*
X143555285Y-91246428D01*
X143616000Y-91275000D01*
X143648142Y-91303571D01*
X142916000Y-91617857D02*
X142976714Y-91646428D01*
X143091000Y-91646428D01*
X143144571Y-91617857D01*
X143166000Y-91560714D01*
X143137428Y-91332142D01*
X143101714Y-91275000D01*
X143041000Y-91246428D01*
X142926714Y-91246428D01*
X142873142Y-91275000D01*
X142851714Y-91332142D01*
X142858857Y-91389285D01*
X143151714Y-91446428D01*
X141937428Y-91332142D02*
X141855285Y-91360714D01*
X141830285Y-91389285D01*
X141808857Y-91446428D01*
X141819571Y-91532142D01*
X141855285Y-91589285D01*
X141887428Y-91617857D01*
X141948142Y-91646428D01*
X142176714Y-91646428D01*
X142101714Y-91046428D01*
X141901714Y-91046428D01*
X141848142Y-91075000D01*
X141823142Y-91103571D01*
X141801714Y-91160714D01*
X141808857Y-91217857D01*
X141844571Y-91275000D01*
X141876714Y-91303571D01*
X141937428Y-91332142D01*
X142137428Y-91332142D01*
X141583857Y-91475000D02*
X141298142Y-91475000D01*
X141662428Y-91646428D02*
X141387428Y-91046428D01*
X141262428Y-91646428D01*
X140712428Y-91589285D02*
X140744571Y-91617857D01*
X140833857Y-91646428D01*
X140891000Y-91646428D01*
X140973142Y-91617857D01*
X141023142Y-91560714D01*
X141044571Y-91503571D01*
X141058857Y-91389285D01*
X141048142Y-91303571D01*
X141005285Y-91189285D01*
X140969571Y-91132142D01*
X140905285Y-91075000D01*
X140816000Y-91046428D01*
X140758857Y-91046428D01*
X140676714Y-91075000D01*
X140651714Y-91103571D01*
X140462428Y-91646428D02*
X140387428Y-91046428D01*
X140119571Y-91646428D02*
X140333857Y-91303571D01*
X140044571Y-91046428D02*
X140430285Y-91389285D01*
X179654988Y-88061904D02*
X179678797Y-88252380D01*
X179859750Y-88176190D02*
X179678797Y-88252380D01*
X179478797Y-88176190D01*
X179812130Y-88404761D02*
X179678797Y-88252380D01*
X179583559Y-88404761D01*
X176819571Y-94646428D02*
X177162428Y-94646428D01*
X176991000Y-94646428D02*
X176916000Y-94046428D01*
X176983857Y-94132142D01*
X177048142Y-94189285D01*
X177108857Y-94217857D01*
X176323142Y-94332142D02*
X176241000Y-94360714D01*
X176216000Y-94389285D01*
X176194571Y-94446428D01*
X176205285Y-94532142D01*
X176241000Y-94589285D01*
X176273142Y-94617857D01*
X176333857Y-94646428D01*
X176562428Y-94646428D01*
X176487428Y-94046428D01*
X176287428Y-94046428D01*
X176233857Y-94075000D01*
X176208857Y-94103571D01*
X176187428Y-94160714D01*
X176194571Y-94217857D01*
X176230285Y-94275000D01*
X176262428Y-94303571D01*
X176323142Y-94332142D01*
X176523142Y-94332142D01*
X175801714Y-94046428D02*
X175819571Y-94189285D01*
X175955285Y-94132142D02*
X175819571Y-94189285D01*
X175669571Y-94132142D01*
X175919571Y-94303571D02*
X175819571Y-94189285D01*
X175748142Y-94303571D01*
X179476714Y-94646428D02*
X179819571Y-94646428D01*
X179648142Y-94646428D02*
X179573142Y-94046428D01*
X179641000Y-94132142D01*
X179705285Y-94189285D01*
X179766000Y-94217857D01*
X179226714Y-94475000D02*
X178941000Y-94475000D01*
X179305285Y-94646428D02*
X179030285Y-94046428D01*
X178905285Y-94646428D01*
X178544571Y-94046428D02*
X178562428Y-94189285D01*
X178698142Y-94132142D02*
X178562428Y-94189285D01*
X178412428Y-94132142D01*
X178662428Y-94303571D02*
X178562428Y-94189285D01*
X178491000Y-94303571D01*
X182083857Y-94646428D02*
X182008857Y-94046428D01*
X181741000Y-94646428D01*
X181666000Y-94046428D01*
X181105285Y-94589285D02*
X181137428Y-94617857D01*
X181226714Y-94646428D01*
X181283857Y-94646428D01*
X181366000Y-94617857D01*
X181416000Y-94560714D01*
X181437428Y-94503571D01*
X181451714Y-94389285D01*
X181441000Y-94303571D01*
X181398142Y-94189285D01*
X181362428Y-94132142D01*
X181298142Y-94075000D01*
X181208857Y-94046428D01*
X181151714Y-94046428D01*
X181069571Y-94075000D01*
X181044571Y-94103571D01*
X182108857Y-101671428D02*
X182033857Y-101071428D01*
X181766000Y-101671428D01*
X181691000Y-101071428D01*
X181130285Y-101614285D02*
X181162428Y-101642857D01*
X181251714Y-101671428D01*
X181308857Y-101671428D01*
X181391000Y-101642857D01*
X181441000Y-101585714D01*
X181462428Y-101528571D01*
X181476714Y-101414285D01*
X181466000Y-101328571D01*
X181423142Y-101214285D01*
X181387428Y-101157142D01*
X181323142Y-101100000D01*
X181233857Y-101071428D01*
X181176714Y-101071428D01*
X181094571Y-101100000D01*
X181069571Y-101128571D01*
X178280285Y-88546428D02*
X178623142Y-88546428D01*
X178451714Y-88546428D02*
X178376714Y-87946428D01*
X178444571Y-88032142D01*
X178508857Y-88089285D01*
X178569571Y-88117857D01*
X178030285Y-88375000D02*
X177744571Y-88375000D01*
X178108857Y-88546428D02*
X177833857Y-87946428D01*
X177708857Y-88546428D01*
X177012428Y-88232142D02*
X176555285Y-88232142D01*
X176576714Y-88403571D02*
X177033857Y-88403571D01*
X175851714Y-88546428D02*
X175776714Y-87946428D01*
X175548142Y-87946428D01*
X175494571Y-87975000D01*
X175469571Y-88003571D01*
X175448142Y-88060714D01*
X175458857Y-88146428D01*
X175494571Y-88203571D01*
X175526714Y-88232142D01*
X175587428Y-88260714D01*
X175816000Y-88260714D01*
X175251714Y-88546428D02*
X175176714Y-87946428D01*
X174966000Y-88546428D02*
X174891000Y-87946428D01*
X174623142Y-88546428D01*
X174548142Y-87946428D01*
X173566000Y-88546428D02*
X173908857Y-88546428D01*
X173737428Y-88546428D02*
X173662428Y-87946428D01*
X173730285Y-88032142D01*
X173794571Y-88089285D01*
X173855285Y-88117857D01*
X172858857Y-88375000D02*
X172573142Y-88375000D01*
X172937428Y-88546428D02*
X172662428Y-87946428D01*
X172537428Y-88546428D01*
X171951714Y-87975000D02*
X172005285Y-87946428D01*
X172091000Y-87946428D01*
X172180285Y-87975000D01*
X172244571Y-88032142D01*
X172280285Y-88089285D01*
X172323142Y-88203571D01*
X172333857Y-88289285D01*
X172319571Y-88403571D01*
X172298142Y-88460714D01*
X172248142Y-88517857D01*
X172166000Y-88546428D01*
X172108857Y-88546428D01*
X172019571Y-88517857D01*
X171987428Y-88489285D01*
X171962428Y-88289285D01*
X172076714Y-88289285D01*
X171548142Y-87946428D02*
X171433857Y-87946428D01*
X171380285Y-87975000D01*
X171330285Y-88032142D01*
X171316000Y-88146428D01*
X171341000Y-88346428D01*
X171383857Y-88460714D01*
X171448142Y-88517857D01*
X171508857Y-88546428D01*
X171623142Y-88546428D01*
X171676714Y-88517857D01*
X171726714Y-88460714D01*
X171741000Y-88346428D01*
X171716000Y-88146428D01*
X171673142Y-88032142D01*
X171608857Y-87975000D01*
X171548142Y-87946428D01*
X171108857Y-88546428D02*
X171033857Y-87946428D01*
X170766000Y-88546428D01*
X170691000Y-87946428D01*
X170194571Y-88546428D02*
X170480285Y-88546428D01*
X170405285Y-87946428D01*
X169994571Y-88546428D02*
X169919571Y-87946428D01*
X169323142Y-87975000D02*
X169376714Y-87946428D01*
X169462428Y-87946428D01*
X169551714Y-87975000D01*
X169616000Y-88032142D01*
X169651714Y-88089285D01*
X169694571Y-88203571D01*
X169705285Y-88289285D01*
X169691000Y-88403571D01*
X169669571Y-88460714D01*
X169619571Y-88517857D01*
X169537428Y-88546428D01*
X169480285Y-88546428D01*
X169391000Y-88517857D01*
X169358857Y-88489285D01*
X169333857Y-88289285D01*
X169448142Y-88289285D01*
X169108857Y-88546428D02*
X169033857Y-87946428D01*
X169069571Y-88232142D02*
X168726714Y-88232142D01*
X168766000Y-88546428D02*
X168691000Y-87946428D01*
X168491000Y-87946428D02*
X168148142Y-87946428D01*
X168394571Y-88546428D02*
X168319571Y-87946428D01*
X167983857Y-88003571D02*
X167951714Y-87975000D01*
X167891000Y-87946428D01*
X167748142Y-87946428D01*
X167694571Y-87975000D01*
X167669571Y-88003571D01*
X167648142Y-88060714D01*
X167655285Y-88117857D01*
X167694571Y-88203571D01*
X168080285Y-88546428D01*
X167708857Y-88546428D01*
X136583857Y-101796428D02*
X136508857Y-101196428D01*
X136241000Y-101796428D01*
X136166000Y-101196428D01*
X135605285Y-101739285D02*
X135637428Y-101767857D01*
X135726714Y-101796428D01*
X135783857Y-101796428D01*
X135866000Y-101767857D01*
X135916000Y-101710714D01*
X135937428Y-101653571D01*
X135951714Y-101539285D01*
X135941000Y-101453571D01*
X135898142Y-101339285D01*
X135862428Y-101282142D01*
X135798142Y-101225000D01*
X135708857Y-101196428D01*
X135651714Y-101196428D01*
X135569571Y-101225000D01*
X135544571Y-101253571D01*
X136583857Y-94396428D02*
X136508857Y-93796428D01*
X136241000Y-94396428D01*
X136166000Y-93796428D01*
X135605285Y-94339285D02*
X135637428Y-94367857D01*
X135726714Y-94396428D01*
X135783857Y-94396428D01*
X135866000Y-94367857D01*
X135916000Y-94310714D01*
X135937428Y-94253571D01*
X135951714Y-94139285D01*
X135941000Y-94053571D01*
X135898142Y-93939285D01*
X135862428Y-93882142D01*
X135798142Y-93825000D01*
X135708857Y-93796428D01*
X135651714Y-93796428D01*
X135569571Y-93825000D01*
X135544571Y-93853571D01*
X156566000Y-92896428D02*
X156491000Y-92296428D01*
X156519571Y-92525000D02*
X156458857Y-92496428D01*
X156344571Y-92496428D01*
X156291000Y-92525000D01*
X156266000Y-92553571D01*
X156244571Y-92610714D01*
X156266000Y-92782142D01*
X156301714Y-92839285D01*
X156333857Y-92867857D01*
X156394571Y-92896428D01*
X156508857Y-92896428D01*
X156562428Y-92867857D01*
X153583857Y-92896428D02*
X153544571Y-92582142D01*
X153566000Y-92525000D01*
X153619571Y-92496428D01*
X153733857Y-92496428D01*
X153794571Y-92525000D01*
X153580285Y-92867857D02*
X153641000Y-92896428D01*
X153783857Y-92896428D01*
X153837428Y-92867857D01*
X153858857Y-92810714D01*
X153851714Y-92753571D01*
X153816000Y-92696428D01*
X153755285Y-92667857D01*
X153612428Y-92667857D01*
X153551714Y-92639285D01*
X152098142Y-108321428D02*
X152262428Y-108035714D01*
X152441000Y-108321428D02*
X152366000Y-107721428D01*
X152137428Y-107721428D01*
X152083857Y-107750000D01*
X152058857Y-107778571D01*
X152037428Y-107835714D01*
X152048142Y-107921428D01*
X152083857Y-107978571D01*
X152116000Y-108007142D01*
X152176714Y-108035714D01*
X152405285Y-108035714D01*
X151608857Y-108292857D02*
X151669571Y-108321428D01*
X151783857Y-108321428D01*
X151837428Y-108292857D01*
X151858857Y-108235714D01*
X151830285Y-108007142D01*
X151794571Y-107950000D01*
X151733857Y-107921428D01*
X151619571Y-107921428D01*
X151566000Y-107950000D01*
X151544571Y-108007142D01*
X151551714Y-108064285D01*
X151844571Y-108121428D01*
X151333857Y-107921428D02*
X151241000Y-108321428D01*
X151048142Y-107921428D01*
X150223142Y-107721428D02*
X150166000Y-107721428D01*
X150112428Y-107750000D01*
X150087428Y-107778571D01*
X150066000Y-107835714D01*
X150051714Y-107950000D01*
X150069571Y-108092857D01*
X150112428Y-108207142D01*
X150148142Y-108264285D01*
X150180285Y-108292857D01*
X150241000Y-108321428D01*
X150298142Y-108321428D01*
X150351714Y-108292857D01*
X150376714Y-108264285D01*
X150398142Y-108207142D01*
X150412428Y-108092857D01*
X150394571Y-107950000D01*
X150351714Y-107835714D01*
X150316000Y-107778571D01*
X150283857Y-107750000D01*
X150223142Y-107721428D01*
X149526714Y-108321428D02*
X149869571Y-108321428D01*
X149698142Y-108321428D02*
X149623142Y-107721428D01*
X149691000Y-107807142D01*
X149755285Y-107864285D01*
X149816000Y-107892857D01*
X148819571Y-108150000D02*
X148533857Y-108150000D01*
X148898142Y-108321428D02*
X148623142Y-107721428D01*
X148498142Y-108321428D01*
X148041000Y-108321428D02*
X147966000Y-107721428D01*
X148037428Y-108292857D02*
X148098142Y-108321428D01*
X148212428Y-108321428D01*
X148266000Y-108292857D01*
X148291000Y-108264285D01*
X148312428Y-108207142D01*
X148291000Y-108035714D01*
X148255285Y-107978571D01*
X148223142Y-107950000D01*
X148162428Y-107921428D01*
X148048142Y-107921428D01*
X147994571Y-107950000D01*
X147498142Y-108321428D02*
X147458857Y-108007142D01*
X147480285Y-107950000D01*
X147533857Y-107921428D01*
X147648142Y-107921428D01*
X147708857Y-107950000D01*
X147494571Y-108292857D02*
X147555285Y-108321428D01*
X147698142Y-108321428D01*
X147751714Y-108292857D01*
X147773142Y-108235714D01*
X147766000Y-108178571D01*
X147730285Y-108121428D01*
X147669571Y-108092857D01*
X147526714Y-108092857D01*
X147466000Y-108064285D01*
X147212428Y-108321428D02*
X147162428Y-107921428D01*
X147169571Y-107978571D02*
X147137428Y-107950000D01*
X147076714Y-107921428D01*
X146991000Y-107921428D01*
X146937428Y-107950000D01*
X146916000Y-108007142D01*
X146955285Y-108321428D01*
X146916000Y-108007142D02*
X146880285Y-107950000D01*
X146819571Y-107921428D01*
X146733857Y-107921428D01*
X146680285Y-107950000D01*
X146658857Y-108007142D01*
X146698142Y-108321428D01*
X146423142Y-107721428D02*
X146080285Y-107721428D01*
X146326714Y-108321428D02*
X146251714Y-107721428D01*
X145641000Y-108321428D02*
X145983857Y-108321428D01*
X145812428Y-108321428D02*
X145737428Y-107721428D01*
X145805285Y-107807142D01*
X145869571Y-107864285D01*
X145930285Y-107892857D01*
X145069571Y-108321428D02*
X145412428Y-108321428D01*
X145241000Y-108321428D02*
X145166000Y-107721428D01*
X145233857Y-107807142D01*
X145298142Y-107864285D01*
X145358857Y-107892857D01*
X144794571Y-107721428D02*
X144394571Y-107721428D01*
X144726714Y-108321428D01*
X143641000Y-108550000D02*
X143666000Y-108521428D01*
X143712428Y-108435714D01*
X143733857Y-108378571D01*
X143751714Y-108292857D01*
X143762428Y-108150000D01*
X143748142Y-108035714D01*
X143701714Y-107892857D01*
X143662428Y-107807142D01*
X143626714Y-107750000D01*
X143558857Y-107664285D01*
X143526714Y-107635714D01*
X143383857Y-108321428D02*
X143308857Y-107721428D01*
X143298142Y-108092857D02*
X143155285Y-108321428D01*
X143105285Y-107921428D02*
X143362428Y-108150000D01*
X142641000Y-108321428D02*
X142601714Y-108007142D01*
X142623142Y-107950000D01*
X142676714Y-107921428D01*
X142791000Y-107921428D01*
X142851714Y-107950000D01*
X142637428Y-108292857D02*
X142698142Y-108321428D01*
X142841000Y-108321428D01*
X142894571Y-108292857D01*
X142916000Y-108235714D01*
X142908857Y-108178571D01*
X142873142Y-108121428D01*
X142812428Y-108092857D01*
X142669571Y-108092857D01*
X142608857Y-108064285D01*
X142362428Y-107921428D02*
X142269571Y-108321428D01*
X142076714Y-107921428D02*
X142269571Y-108321428D01*
X142344571Y-108464285D01*
X142376714Y-108492857D01*
X142437428Y-108521428D01*
X141933857Y-107921428D02*
X141705285Y-107921428D01*
X141823142Y-107721428D02*
X141887428Y-108235714D01*
X141866000Y-108292857D01*
X141812428Y-108321428D01*
X141755285Y-108321428D01*
X141469571Y-108321428D02*
X141523142Y-108292857D01*
X141548142Y-108264285D01*
X141569571Y-108207142D01*
X141548142Y-108035714D01*
X141512428Y-107978571D01*
X141480285Y-107950000D01*
X141419571Y-107921428D01*
X141333857Y-107921428D01*
X141280285Y-107950000D01*
X141255285Y-107978571D01*
X141233857Y-108035714D01*
X141255285Y-108207142D01*
X141291000Y-108264285D01*
X141323142Y-108292857D01*
X141383857Y-108321428D01*
X141469571Y-108321428D01*
X140605285Y-108035714D02*
X140630285Y-108007142D01*
X140683857Y-107978571D01*
X140741000Y-107978571D01*
X140801714Y-108007142D01*
X140833857Y-108035714D01*
X140869571Y-108092857D01*
X140876714Y-108150000D01*
X140855285Y-108207142D01*
X140830285Y-108235714D01*
X140776714Y-108264285D01*
X140719571Y-108264285D01*
X140658857Y-108235714D01*
X140626714Y-108207142D01*
X140598142Y-107978571D02*
X140626714Y-108207142D01*
X140601714Y-108235714D01*
X140573142Y-108235714D01*
X140512428Y-108207142D01*
X140476714Y-108150000D01*
X140458857Y-108007142D01*
X140505285Y-107921428D01*
X140583857Y-107864285D01*
X140694571Y-107835714D01*
X140812428Y-107864285D01*
X140905285Y-107921428D01*
X140973142Y-108007142D01*
X141016000Y-108121428D01*
X141001714Y-108235714D01*
X140955285Y-108321428D01*
X140876714Y-108378571D01*
X140766000Y-108407142D01*
X140648142Y-108378571D01*
X140555285Y-108321428D01*
X139933857Y-107921428D02*
X139994571Y-108407142D01*
X140030285Y-108464285D01*
X140062428Y-108492857D01*
X140123142Y-108521428D01*
X140208857Y-108521428D01*
X140262428Y-108492857D01*
X139980285Y-108292857D02*
X140041000Y-108321428D01*
X140155285Y-108321428D01*
X140208857Y-108292857D01*
X140233857Y-108264285D01*
X140255285Y-108207142D01*
X140233857Y-108035714D01*
X140198142Y-107978571D01*
X140166000Y-107950000D01*
X140105285Y-107921428D01*
X139991000Y-107921428D01*
X139937428Y-107950000D01*
X139698142Y-108321428D02*
X139648142Y-107921428D01*
X139623142Y-107721428D02*
X139655285Y-107750000D01*
X139630285Y-107778571D01*
X139598142Y-107750000D01*
X139623142Y-107721428D01*
X139630285Y-107778571D01*
X139448142Y-107921428D02*
X139219571Y-107921428D01*
X139337428Y-107721428D02*
X139401714Y-108235714D01*
X139380285Y-108292857D01*
X139326714Y-108321428D01*
X139269571Y-108321428D01*
X139069571Y-108321428D02*
X138994571Y-107721428D01*
X138812428Y-108321428D02*
X138773142Y-108007142D01*
X138794571Y-107950000D01*
X138848142Y-107921428D01*
X138933857Y-107921428D01*
X138994571Y-107950000D01*
X139026714Y-107978571D01*
X138219571Y-107921428D02*
X138269571Y-108321428D01*
X138476714Y-107921428D02*
X138516000Y-108235714D01*
X138494571Y-108292857D01*
X138441000Y-108321428D01*
X138355285Y-108321428D01*
X138294571Y-108292857D01*
X138262428Y-108264285D01*
X137983857Y-108321428D02*
X137908857Y-107721428D01*
X137937428Y-107950000D02*
X137876714Y-107921428D01*
X137762428Y-107921428D01*
X137708857Y-107950000D01*
X137683857Y-107978571D01*
X137662428Y-108035714D01*
X137683857Y-108207142D01*
X137719571Y-108264285D01*
X137751714Y-108292857D01*
X137812428Y-108321428D01*
X137926714Y-108321428D01*
X137980285Y-108292857D01*
X137433857Y-108264285D02*
X137408857Y-108292857D01*
X137441000Y-108321428D01*
X137466000Y-108292857D01*
X137433857Y-108264285D01*
X137441000Y-108321428D01*
X136894571Y-108292857D02*
X136955285Y-108321428D01*
X137069571Y-108321428D01*
X137123142Y-108292857D01*
X137148142Y-108264285D01*
X137169571Y-108207142D01*
X137148142Y-108035714D01*
X137112428Y-107978571D01*
X137080285Y-107950000D01*
X137019571Y-107921428D01*
X136905285Y-107921428D01*
X136851714Y-107950000D01*
X136555285Y-108321428D02*
X136608857Y-108292857D01*
X136633857Y-108264285D01*
X136655285Y-108207142D01*
X136633857Y-108035714D01*
X136598142Y-107978571D01*
X136566000Y-107950000D01*
X136505285Y-107921428D01*
X136419571Y-107921428D01*
X136366000Y-107950000D01*
X136341000Y-107978571D01*
X136319571Y-108035714D01*
X136341000Y-108207142D01*
X136376714Y-108264285D01*
X136408857Y-108292857D01*
X136469571Y-108321428D01*
X136555285Y-108321428D01*
X136098142Y-108321428D02*
X136048142Y-107921428D01*
X136055285Y-107978571D02*
X136023142Y-107950000D01*
X135962428Y-107921428D01*
X135876714Y-107921428D01*
X135823142Y-107950000D01*
X135801714Y-108007142D01*
X135841000Y-108321428D01*
X135801714Y-108007142D02*
X135766000Y-107950000D01*
X135705285Y-107921428D01*
X135619571Y-107921428D01*
X135566000Y-107950000D01*
X135544571Y-108007142D01*
X135583857Y-108321428D01*
X135383857Y-108550000D02*
X135351714Y-108521428D01*
X135283857Y-108435714D01*
X135248142Y-108378571D01*
X135208857Y-108292857D01*
X135162428Y-108150000D01*
X135148142Y-108035714D01*
X135158857Y-107892857D01*
X135176714Y-107807142D01*
X135198142Y-107750000D01*
X135244571Y-107664285D01*
X135269571Y-107635714D01*
D12*
%TO.C,REF\u002A\u002A*%
G36*
X175150256Y-107644918D02*
G01*
X175094799Y-107672568D01*
X175045852Y-107723480D01*
X175032371Y-107742338D01*
X175017686Y-107767015D01*
X175008158Y-107793816D01*
X175002707Y-107829587D01*
X175000253Y-107881169D01*
X174999714Y-107949267D01*
X175002148Y-108042588D01*
X175010606Y-108112657D01*
X175026826Y-108164931D01*
X175052546Y-108204869D01*
X175089503Y-108237929D01*
X175092218Y-108239886D01*
X175128640Y-108259908D01*
X175172498Y-108269815D01*
X175228276Y-108272257D01*
X175318952Y-108272257D01*
X175318990Y-108360283D01*
X175319834Y-108409308D01*
X175324976Y-108438065D01*
X175338413Y-108455311D01*
X175364142Y-108469808D01*
X175370321Y-108472769D01*
X175399236Y-108486648D01*
X175421624Y-108495414D01*
X175438271Y-108496171D01*
X175449964Y-108486023D01*
X175457490Y-108462073D01*
X175461634Y-108421426D01*
X175463185Y-108361186D01*
X175462929Y-108278455D01*
X175461651Y-108170339D01*
X175461252Y-108138000D01*
X175459815Y-108026524D01*
X175458528Y-107953603D01*
X175319029Y-107953603D01*
X175318245Y-108015499D01*
X175314760Y-108055997D01*
X175306876Y-108082708D01*
X175292895Y-108103244D01*
X175283403Y-108113260D01*
X175244596Y-108142567D01*
X175210237Y-108144952D01*
X175174784Y-108120750D01*
X175173886Y-108119857D01*
X175159461Y-108101153D01*
X175150687Y-108075732D01*
X175146261Y-108036584D01*
X175144882Y-107976697D01*
X175144857Y-107963430D01*
X175148188Y-107880901D01*
X175159031Y-107823691D01*
X175178660Y-107788766D01*
X175208350Y-107773094D01*
X175225509Y-107771514D01*
X175266234Y-107778926D01*
X175294168Y-107803330D01*
X175310983Y-107847980D01*
X175318350Y-107916130D01*
X175319029Y-107953603D01*
X175458528Y-107953603D01*
X175458292Y-107940245D01*
X175456323Y-107875333D01*
X175453550Y-107827958D01*
X175449612Y-107794290D01*
X175444151Y-107770498D01*
X175436808Y-107752753D01*
X175427223Y-107737224D01*
X175423113Y-107731381D01*
X175368595Y-107676185D01*
X175299664Y-107644890D01*
X175219928Y-107636165D01*
X175150256Y-107644918D01*
G37*
X175150256Y-107644918D02*
X175094799Y-107672568D01*
X175045852Y-107723480D01*
X175032371Y-107742338D01*
X175017686Y-107767015D01*
X175008158Y-107793816D01*
X175002707Y-107829587D01*
X175000253Y-107881169D01*
X174999714Y-107949267D01*
X175002148Y-108042588D01*
X175010606Y-108112657D01*
X175026826Y-108164931D01*
X175052546Y-108204869D01*
X175089503Y-108237929D01*
X175092218Y-108239886D01*
X175128640Y-108259908D01*
X175172498Y-108269815D01*
X175228276Y-108272257D01*
X175318952Y-108272257D01*
X175318990Y-108360283D01*
X175319834Y-108409308D01*
X175324976Y-108438065D01*
X175338413Y-108455311D01*
X175364142Y-108469808D01*
X175370321Y-108472769D01*
X175399236Y-108486648D01*
X175421624Y-108495414D01*
X175438271Y-108496171D01*
X175449964Y-108486023D01*
X175457490Y-108462073D01*
X175461634Y-108421426D01*
X175463185Y-108361186D01*
X175462929Y-108278455D01*
X175461651Y-108170339D01*
X175461252Y-108138000D01*
X175459815Y-108026524D01*
X175458528Y-107953603D01*
X175319029Y-107953603D01*
X175318245Y-108015499D01*
X175314760Y-108055997D01*
X175306876Y-108082708D01*
X175292895Y-108103244D01*
X175283403Y-108113260D01*
X175244596Y-108142567D01*
X175210237Y-108144952D01*
X175174784Y-108120750D01*
X175173886Y-108119857D01*
X175159461Y-108101153D01*
X175150687Y-108075732D01*
X175146261Y-108036584D01*
X175144882Y-107976697D01*
X175144857Y-107963430D01*
X175148188Y-107880901D01*
X175159031Y-107823691D01*
X175178660Y-107788766D01*
X175208350Y-107773094D01*
X175225509Y-107771514D01*
X175266234Y-107778926D01*
X175294168Y-107803330D01*
X175310983Y-107847980D01*
X175318350Y-107916130D01*
X175319029Y-107953603D01*
X175458528Y-107953603D01*
X175458292Y-107940245D01*
X175456323Y-107875333D01*
X175453550Y-107827958D01*
X175449612Y-107794290D01*
X175444151Y-107770498D01*
X175436808Y-107752753D01*
X175427223Y-107737224D01*
X175423113Y-107731381D01*
X175368595Y-107676185D01*
X175299664Y-107644890D01*
X175219928Y-107636165D01*
X175150256Y-107644918D01*
G36*
X174033907Y-107652780D02*
G01*
X173987328Y-107679723D01*
X173954943Y-107706466D01*
X173931258Y-107734484D01*
X173914941Y-107768748D01*
X173904661Y-107814227D01*
X173899086Y-107875892D01*
X173896884Y-107958711D01*
X173896629Y-108018246D01*
X173896629Y-108237391D01*
X173958314Y-108265044D01*
X174020000Y-108292697D01*
X174027257Y-108052670D01*
X174030256Y-107963028D01*
X174033402Y-107897962D01*
X174037299Y-107853026D01*
X174042553Y-107823770D01*
X174049769Y-107805748D01*
X174059550Y-107794511D01*
X174062688Y-107792079D01*
X174110239Y-107773083D01*
X174158303Y-107780600D01*
X174186914Y-107800543D01*
X174198553Y-107814675D01*
X174206609Y-107833220D01*
X174211729Y-107861334D01*
X174214559Y-107904173D01*
X174215744Y-107966895D01*
X174215943Y-108032261D01*
X174215982Y-108114268D01*
X174217386Y-108172316D01*
X174222086Y-108211465D01*
X174232013Y-108236780D01*
X174249097Y-108253323D01*
X174275268Y-108266156D01*
X174310225Y-108279491D01*
X174348404Y-108294007D01*
X174343859Y-108036389D01*
X174342029Y-107943519D01*
X174339888Y-107874889D01*
X174336819Y-107825711D01*
X174332206Y-107791198D01*
X174325432Y-107766562D01*
X174315881Y-107747016D01*
X174304366Y-107729770D01*
X174248810Y-107674680D01*
X174181020Y-107642822D01*
X174107287Y-107635191D01*
X174033907Y-107652780D01*
G37*
X174033907Y-107652780D02*
X173987328Y-107679723D01*
X173954943Y-107706466D01*
X173931258Y-107734484D01*
X173914941Y-107768748D01*
X173904661Y-107814227D01*
X173899086Y-107875892D01*
X173896884Y-107958711D01*
X173896629Y-108018246D01*
X173896629Y-108237391D01*
X173958314Y-108265044D01*
X174020000Y-108292697D01*
X174027257Y-108052670D01*
X174030256Y-107963028D01*
X174033402Y-107897962D01*
X174037299Y-107853026D01*
X174042553Y-107823770D01*
X174049769Y-107805748D01*
X174059550Y-107794511D01*
X174062688Y-107792079D01*
X174110239Y-107773083D01*
X174158303Y-107780600D01*
X174186914Y-107800543D01*
X174198553Y-107814675D01*
X174206609Y-107833220D01*
X174211729Y-107861334D01*
X174214559Y-107904173D01*
X174215744Y-107966895D01*
X174215943Y-108032261D01*
X174215982Y-108114268D01*
X174217386Y-108172316D01*
X174222086Y-108211465D01*
X174232013Y-108236780D01*
X174249097Y-108253323D01*
X174275268Y-108266156D01*
X174310225Y-108279491D01*
X174348404Y-108294007D01*
X174343859Y-108036389D01*
X174342029Y-107943519D01*
X174339888Y-107874889D01*
X174336819Y-107825711D01*
X174332206Y-107791198D01*
X174325432Y-107766562D01*
X174315881Y-107747016D01*
X174304366Y-107729770D01*
X174248810Y-107674680D01*
X174181020Y-107642822D01*
X174107287Y-107635191D01*
X174033907Y-107652780D01*
G36*
X175708885Y-107646962D02*
G01*
X175640855Y-107682733D01*
X175590649Y-107740301D01*
X175572815Y-107777312D01*
X175558937Y-107832882D01*
X175551833Y-107903096D01*
X175551160Y-107979727D01*
X175556573Y-108054552D01*
X175567730Y-108119342D01*
X175584286Y-108165873D01*
X175589374Y-108173887D01*
X175649645Y-108233707D01*
X175721231Y-108269535D01*
X175798908Y-108280020D01*
X175877452Y-108263810D01*
X175899311Y-108254092D01*
X175941878Y-108224143D01*
X175979237Y-108184433D01*
X175982768Y-108179397D01*
X175997119Y-108155124D01*
X176006606Y-108129178D01*
X176012210Y-108095022D01*
X176014914Y-108046119D01*
X176015701Y-107975935D01*
X176015714Y-107960200D01*
X176015678Y-107955192D01*
X175870571Y-107955192D01*
X175869727Y-108021430D01*
X175866404Y-108065386D01*
X175859417Y-108093779D01*
X175847584Y-108113325D01*
X175841543Y-108119857D01*
X175806814Y-108144680D01*
X175773097Y-108143548D01*
X175739005Y-108122016D01*
X175718671Y-108099029D01*
X175706629Y-108065478D01*
X175699866Y-108012569D01*
X175699402Y-108006399D01*
X175698248Y-107910513D01*
X175710312Y-107839299D01*
X175735430Y-107793194D01*
X175773440Y-107772635D01*
X175787008Y-107771514D01*
X175822636Y-107777152D01*
X175847006Y-107796686D01*
X175861907Y-107834042D01*
X175869125Y-107893150D01*
X175870571Y-107955192D01*
X176015678Y-107955192D01*
X176015174Y-107885413D01*
X176012904Y-107833159D01*
X176007932Y-107796949D01*
X175999287Y-107770299D01*
X175985995Y-107746722D01*
X175983057Y-107742338D01*
X175933687Y-107683249D01*
X175879891Y-107648947D01*
X175814398Y-107635331D01*
X175792158Y-107634665D01*
X175708885Y-107646962D01*
G37*
X175708885Y-107646962D02*
X175640855Y-107682733D01*
X175590649Y-107740301D01*
X175572815Y-107777312D01*
X175558937Y-107832882D01*
X175551833Y-107903096D01*
X175551160Y-107979727D01*
X175556573Y-108054552D01*
X175567730Y-108119342D01*
X175584286Y-108165873D01*
X175589374Y-108173887D01*
X175649645Y-108233707D01*
X175721231Y-108269535D01*
X175798908Y-108280020D01*
X175877452Y-108263810D01*
X175899311Y-108254092D01*
X175941878Y-108224143D01*
X175979237Y-108184433D01*
X175982768Y-108179397D01*
X175997119Y-108155124D01*
X176006606Y-108129178D01*
X176012210Y-108095022D01*
X176014914Y-108046119D01*
X176015701Y-107975935D01*
X176015714Y-107960200D01*
X176015678Y-107955192D01*
X175870571Y-107955192D01*
X175869727Y-108021430D01*
X175866404Y-108065386D01*
X175859417Y-108093779D01*
X175847584Y-108113325D01*
X175841543Y-108119857D01*
X175806814Y-108144680D01*
X175773097Y-108143548D01*
X175739005Y-108122016D01*
X175718671Y-108099029D01*
X175706629Y-108065478D01*
X175699866Y-108012569D01*
X175699402Y-108006399D01*
X175698248Y-107910513D01*
X175710312Y-107839299D01*
X175735430Y-107793194D01*
X175773440Y-107772635D01*
X175787008Y-107771514D01*
X175822636Y-107777152D01*
X175847006Y-107796686D01*
X175861907Y-107834042D01*
X175869125Y-107893150D01*
X175870571Y-107955192D01*
X176015678Y-107955192D01*
X176015174Y-107885413D01*
X176012904Y-107833159D01*
X176007932Y-107796949D01*
X175999287Y-107770299D01*
X175985995Y-107746722D01*
X175983057Y-107742338D01*
X175933687Y-107683249D01*
X175879891Y-107648947D01*
X175814398Y-107635331D01*
X175792158Y-107634665D01*
X175708885Y-107646962D01*
G36*
X174581697Y-107656239D02*
G01*
X174524473Y-107694735D01*
X174480251Y-107750335D01*
X174453833Y-107821086D01*
X174448490Y-107873162D01*
X174449097Y-107894893D01*
X174454178Y-107911531D01*
X174468145Y-107926437D01*
X174495411Y-107942973D01*
X174540388Y-107964498D01*
X174607489Y-107994374D01*
X174607829Y-107994524D01*
X174669593Y-108022813D01*
X174720241Y-108047933D01*
X174754596Y-108067179D01*
X174767482Y-108077848D01*
X174767486Y-108077934D01*
X174756128Y-108101166D01*
X174729569Y-108126774D01*
X174699077Y-108145221D01*
X174683630Y-108148886D01*
X174641485Y-108136212D01*
X174605192Y-108104471D01*
X174587483Y-108069572D01*
X174570448Y-108043845D01*
X174537078Y-108014546D01*
X174497851Y-107989235D01*
X174463244Y-107975471D01*
X174456007Y-107974714D01*
X174447861Y-107987160D01*
X174447370Y-108018972D01*
X174453357Y-108061866D01*
X174464643Y-108107558D01*
X174480050Y-108147761D01*
X174480829Y-108149322D01*
X174527196Y-108214062D01*
X174587289Y-108258097D01*
X174655535Y-108279711D01*
X174726362Y-108277185D01*
X174794196Y-108248804D01*
X174797212Y-108246808D01*
X174850573Y-108198448D01*
X174885660Y-108135352D01*
X174905078Y-108052387D01*
X174907684Y-108029078D01*
X174912299Y-107919055D01*
X174906767Y-107867748D01*
X174767486Y-107867748D01*
X174765676Y-107899753D01*
X174755778Y-107909093D01*
X174731102Y-107902105D01*
X174692205Y-107885587D01*
X174648725Y-107864881D01*
X174647644Y-107864333D01*
X174610791Y-107844949D01*
X174596000Y-107832013D01*
X174599647Y-107818451D01*
X174615005Y-107800632D01*
X174654077Y-107774845D01*
X174696154Y-107772950D01*
X174733897Y-107791717D01*
X174759966Y-107827915D01*
X174767486Y-107867748D01*
X174906767Y-107867748D01*
X174902806Y-107831027D01*
X174878450Y-107761212D01*
X174844544Y-107712302D01*
X174783347Y-107662878D01*
X174715937Y-107638359D01*
X174647120Y-107636797D01*
X174581697Y-107656239D01*
G37*
X174581697Y-107656239D02*
X174524473Y-107694735D01*
X174480251Y-107750335D01*
X174453833Y-107821086D01*
X174448490Y-107873162D01*
X174449097Y-107894893D01*
X174454178Y-107911531D01*
X174468145Y-107926437D01*
X174495411Y-107942973D01*
X174540388Y-107964498D01*
X174607489Y-107994374D01*
X174607829Y-107994524D01*
X174669593Y-108022813D01*
X174720241Y-108047933D01*
X174754596Y-108067179D01*
X174767482Y-108077848D01*
X174767486Y-108077934D01*
X174756128Y-108101166D01*
X174729569Y-108126774D01*
X174699077Y-108145221D01*
X174683630Y-108148886D01*
X174641485Y-108136212D01*
X174605192Y-108104471D01*
X174587483Y-108069572D01*
X174570448Y-108043845D01*
X174537078Y-108014546D01*
X174497851Y-107989235D01*
X174463244Y-107975471D01*
X174456007Y-107974714D01*
X174447861Y-107987160D01*
X174447370Y-108018972D01*
X174453357Y-108061866D01*
X174464643Y-108107558D01*
X174480050Y-108147761D01*
X174480829Y-108149322D01*
X174527196Y-108214062D01*
X174587289Y-108258097D01*
X174655535Y-108279711D01*
X174726362Y-108277185D01*
X174794196Y-108248804D01*
X174797212Y-108246808D01*
X174850573Y-108198448D01*
X174885660Y-108135352D01*
X174905078Y-108052387D01*
X174907684Y-108029078D01*
X174912299Y-107919055D01*
X174906767Y-107867748D01*
X174767486Y-107867748D01*
X174765676Y-107899753D01*
X174755778Y-107909093D01*
X174731102Y-107902105D01*
X174692205Y-107885587D01*
X174648725Y-107864881D01*
X174647644Y-107864333D01*
X174610791Y-107844949D01*
X174596000Y-107832013D01*
X174599647Y-107818451D01*
X174615005Y-107800632D01*
X174654077Y-107774845D01*
X174696154Y-107772950D01*
X174733897Y-107791717D01*
X174759966Y-107827915D01*
X174767486Y-107867748D01*
X174906767Y-107867748D01*
X174902806Y-107831027D01*
X174878450Y-107761212D01*
X174844544Y-107712302D01*
X174783347Y-107662878D01*
X174715937Y-107638359D01*
X174647120Y-107636797D01*
X174581697Y-107656239D01*
G36*
X173374114Y-107576289D02*
G01*
X173369861Y-107635613D01*
X173364975Y-107670572D01*
X173358205Y-107685820D01*
X173348298Y-107686015D01*
X173345086Y-107684195D01*
X173302356Y-107671015D01*
X173246773Y-107671785D01*
X173190263Y-107685333D01*
X173154918Y-107702861D01*
X173118679Y-107730861D01*
X173092187Y-107762549D01*
X173074001Y-107802813D01*
X173062678Y-107856543D01*
X173056778Y-107928626D01*
X173054857Y-108023951D01*
X173054823Y-108042237D01*
X173054800Y-108247646D01*
X173100509Y-108263580D01*
X173132973Y-108274420D01*
X173150785Y-108279468D01*
X173151309Y-108279514D01*
X173153063Y-108265828D01*
X173154556Y-108228076D01*
X173155674Y-108171224D01*
X173156303Y-108100234D01*
X173156400Y-108057073D01*
X173156602Y-107971973D01*
X173157642Y-107910981D01*
X173160169Y-107869177D01*
X173164836Y-107841642D01*
X173172293Y-107823456D01*
X173183189Y-107809698D01*
X173189993Y-107803073D01*
X173236728Y-107776375D01*
X173287728Y-107774375D01*
X173333999Y-107796955D01*
X173342556Y-107805107D01*
X173355107Y-107820436D01*
X173363812Y-107838618D01*
X173369369Y-107864909D01*
X173372474Y-107904562D01*
X173373824Y-107962832D01*
X173374114Y-108043173D01*
X173374114Y-108247646D01*
X173419823Y-108263580D01*
X173452287Y-108274420D01*
X173470099Y-108279468D01*
X173470623Y-108279514D01*
X173471963Y-108265623D01*
X173473172Y-108226439D01*
X173474199Y-108165700D01*
X173474998Y-108087141D01*
X173475519Y-107994498D01*
X173475714Y-107891509D01*
X173475714Y-107494342D01*
X173428543Y-107474444D01*
X173381371Y-107454547D01*
X173374114Y-107576289D01*
G37*
X173374114Y-107576289D02*
X173369861Y-107635613D01*
X173364975Y-107670572D01*
X173358205Y-107685820D01*
X173348298Y-107686015D01*
X173345086Y-107684195D01*
X173302356Y-107671015D01*
X173246773Y-107671785D01*
X173190263Y-107685333D01*
X173154918Y-107702861D01*
X173118679Y-107730861D01*
X173092187Y-107762549D01*
X173074001Y-107802813D01*
X173062678Y-107856543D01*
X173056778Y-107928626D01*
X173054857Y-108023951D01*
X173054823Y-108042237D01*
X173054800Y-108247646D01*
X173100509Y-108263580D01*
X173132973Y-108274420D01*
X173150785Y-108279468D01*
X173151309Y-108279514D01*
X173153063Y-108265828D01*
X173154556Y-108228076D01*
X173155674Y-108171224D01*
X173156303Y-108100234D01*
X173156400Y-108057073D01*
X173156602Y-107971973D01*
X173157642Y-107910981D01*
X173160169Y-107869177D01*
X173164836Y-107841642D01*
X173172293Y-107823456D01*
X173183189Y-107809698D01*
X173189993Y-107803073D01*
X173236728Y-107776375D01*
X173287728Y-107774375D01*
X173333999Y-107796955D01*
X173342556Y-107805107D01*
X173355107Y-107820436D01*
X173363812Y-107838618D01*
X173369369Y-107864909D01*
X173372474Y-107904562D01*
X173373824Y-107962832D01*
X173374114Y-108043173D01*
X173374114Y-108247646D01*
X173419823Y-108263580D01*
X173452287Y-108274420D01*
X173470099Y-108279468D01*
X173470623Y-108279514D01*
X173471963Y-108265623D01*
X173473172Y-108226439D01*
X173474199Y-108165700D01*
X173474998Y-108087141D01*
X173475519Y-107994498D01*
X173475714Y-107891509D01*
X173475714Y-107494342D01*
X173428543Y-107474444D01*
X173381371Y-107454547D01*
X173374114Y-107576289D01*
G36*
X172710256Y-107675968D02*
G01*
X172653384Y-107697087D01*
X172652733Y-107697493D01*
X172617560Y-107723380D01*
X172591593Y-107753633D01*
X172573330Y-107793058D01*
X172561268Y-107846462D01*
X172553904Y-107918651D01*
X172549736Y-108014432D01*
X172549371Y-108028078D01*
X172544124Y-108233842D01*
X172588284Y-108256678D01*
X172620237Y-108272110D01*
X172639530Y-108279423D01*
X172640422Y-108279514D01*
X172643761Y-108266022D01*
X172646413Y-108229626D01*
X172648044Y-108176452D01*
X172648400Y-108133393D01*
X172648408Y-108063641D01*
X172651597Y-108019837D01*
X172662712Y-107998944D01*
X172686499Y-107997925D01*
X172727704Y-108013741D01*
X172789914Y-108042815D01*
X172835659Y-108066963D01*
X172859187Y-108087913D01*
X172866104Y-108110747D01*
X172866114Y-108111877D01*
X172854701Y-108151212D01*
X172820908Y-108172462D01*
X172769191Y-108175539D01*
X172731939Y-108175006D01*
X172712297Y-108185735D01*
X172700048Y-108211505D01*
X172692998Y-108244337D01*
X172703158Y-108262966D01*
X172706983Y-108265632D01*
X172742999Y-108276340D01*
X172793434Y-108277856D01*
X172845374Y-108270759D01*
X172882178Y-108257788D01*
X172933062Y-108214585D01*
X172961986Y-108154446D01*
X172967714Y-108107462D01*
X172963343Y-108065082D01*
X172947525Y-108030488D01*
X172916203Y-107999763D01*
X172865322Y-107968990D01*
X172790824Y-107934252D01*
X172786286Y-107932288D01*
X172719179Y-107901287D01*
X172677768Y-107875862D01*
X172660019Y-107853014D01*
X172663893Y-107829745D01*
X172687357Y-107803056D01*
X172694373Y-107796914D01*
X172741370Y-107773100D01*
X172790067Y-107774103D01*
X172832478Y-107797451D01*
X172860616Y-107840675D01*
X172863231Y-107849160D01*
X172888692Y-107890308D01*
X172920999Y-107910128D01*
X172967714Y-107929770D01*
X172967714Y-107878950D01*
X172953504Y-107805082D01*
X172911325Y-107737327D01*
X172889376Y-107714661D01*
X172839483Y-107685569D01*
X172776033Y-107672400D01*
X172710256Y-107675968D01*
G37*
X172710256Y-107675968D02*
X172653384Y-107697087D01*
X172652733Y-107697493D01*
X172617560Y-107723380D01*
X172591593Y-107753633D01*
X172573330Y-107793058D01*
X172561268Y-107846462D01*
X172553904Y-107918651D01*
X172549736Y-108014432D01*
X172549371Y-108028078D01*
X172544124Y-108233842D01*
X172588284Y-108256678D01*
X172620237Y-108272110D01*
X172639530Y-108279423D01*
X172640422Y-108279514D01*
X172643761Y-108266022D01*
X172646413Y-108229626D01*
X172648044Y-108176452D01*
X172648400Y-108133393D01*
X172648408Y-108063641D01*
X172651597Y-108019837D01*
X172662712Y-107998944D01*
X172686499Y-107997925D01*
X172727704Y-108013741D01*
X172789914Y-108042815D01*
X172835659Y-108066963D01*
X172859187Y-108087913D01*
X172866104Y-108110747D01*
X172866114Y-108111877D01*
X172854701Y-108151212D01*
X172820908Y-108172462D01*
X172769191Y-108175539D01*
X172731939Y-108175006D01*
X172712297Y-108185735D01*
X172700048Y-108211505D01*
X172692998Y-108244337D01*
X172703158Y-108262966D01*
X172706983Y-108265632D01*
X172742999Y-108276340D01*
X172793434Y-108277856D01*
X172845374Y-108270759D01*
X172882178Y-108257788D01*
X172933062Y-108214585D01*
X172961986Y-108154446D01*
X172967714Y-108107462D01*
X172963343Y-108065082D01*
X172947525Y-108030488D01*
X172916203Y-107999763D01*
X172865322Y-107968990D01*
X172790824Y-107934252D01*
X172786286Y-107932288D01*
X172719179Y-107901287D01*
X172677768Y-107875862D01*
X172660019Y-107853014D01*
X172663893Y-107829745D01*
X172687357Y-107803056D01*
X172694373Y-107796914D01*
X172741370Y-107773100D01*
X172790067Y-107774103D01*
X172832478Y-107797451D01*
X172860616Y-107840675D01*
X172863231Y-107849160D01*
X172888692Y-107890308D01*
X172920999Y-107910128D01*
X172967714Y-107929770D01*
X172967714Y-107878950D01*
X172953504Y-107805082D01*
X172911325Y-107737327D01*
X172889376Y-107714661D01*
X172839483Y-107685569D01*
X172776033Y-107672400D01*
X172710256Y-107675968D01*
G36*
X172220074Y-107674755D02*
G01*
X172154142Y-107699084D01*
X172100727Y-107742117D01*
X172079836Y-107772409D01*
X172057061Y-107827994D01*
X172057534Y-107868186D01*
X172081438Y-107895217D01*
X172090283Y-107899813D01*
X172128470Y-107914144D01*
X172147972Y-107910472D01*
X172154578Y-107886407D01*
X172154914Y-107873114D01*
X172167008Y-107824210D01*
X172198529Y-107789999D01*
X172242341Y-107773476D01*
X172291305Y-107777634D01*
X172331106Y-107799227D01*
X172344550Y-107811544D01*
X172354079Y-107826487D01*
X172360515Y-107849075D01*
X172364683Y-107884328D01*
X172367403Y-107937266D01*
X172369498Y-108012907D01*
X172370040Y-108036857D01*
X172372019Y-108118790D01*
X172374269Y-108176455D01*
X172377643Y-108214608D01*
X172382994Y-108238004D01*
X172391176Y-108251398D01*
X172403041Y-108259545D01*
X172410638Y-108263144D01*
X172442898Y-108275452D01*
X172461889Y-108279514D01*
X172468164Y-108265948D01*
X172471994Y-108224934D01*
X172473400Y-108155999D01*
X172472402Y-108058669D01*
X172472092Y-108043657D01*
X172469899Y-107954859D01*
X172467307Y-107890019D01*
X172463618Y-107844067D01*
X172458136Y-107811935D01*
X172450165Y-107788553D01*
X172439007Y-107768852D01*
X172433170Y-107760410D01*
X172399704Y-107723057D01*
X172362273Y-107694003D01*
X172357691Y-107691467D01*
X172290574Y-107671443D01*
X172220074Y-107674755D01*
G37*
X172220074Y-107674755D02*
X172154142Y-107699084D01*
X172100727Y-107742117D01*
X172079836Y-107772409D01*
X172057061Y-107827994D01*
X172057534Y-107868186D01*
X172081438Y-107895217D01*
X172090283Y-107899813D01*
X172128470Y-107914144D01*
X172147972Y-107910472D01*
X172154578Y-107886407D01*
X172154914Y-107873114D01*
X172167008Y-107824210D01*
X172198529Y-107789999D01*
X172242341Y-107773476D01*
X172291305Y-107777634D01*
X172331106Y-107799227D01*
X172344550Y-107811544D01*
X172354079Y-107826487D01*
X172360515Y-107849075D01*
X172364683Y-107884328D01*
X172367403Y-107937266D01*
X172369498Y-108012907D01*
X172370040Y-108036857D01*
X172372019Y-108118790D01*
X172374269Y-108176455D01*
X172377643Y-108214608D01*
X172382994Y-108238004D01*
X172391176Y-108251398D01*
X172403041Y-108259545D01*
X172410638Y-108263144D01*
X172442898Y-108275452D01*
X172461889Y-108279514D01*
X172468164Y-108265948D01*
X172471994Y-108224934D01*
X172473400Y-108155999D01*
X172472402Y-108058669D01*
X172472092Y-108043657D01*
X172469899Y-107954859D01*
X172467307Y-107890019D01*
X172463618Y-107844067D01*
X172458136Y-107811935D01*
X172450165Y-107788553D01*
X172439007Y-107768852D01*
X172433170Y-107760410D01*
X172399704Y-107723057D01*
X172362273Y-107694003D01*
X172357691Y-107691467D01*
X172290574Y-107671443D01*
X172220074Y-107674755D01*
G36*
X171559883Y-107790358D02*
G01*
X171560067Y-107898837D01*
X171560781Y-107982287D01*
X171562325Y-108044704D01*
X171564999Y-108090085D01*
X171569106Y-108122429D01*
X171574945Y-108145733D01*
X171582818Y-108163995D01*
X171588779Y-108174418D01*
X171638145Y-108230945D01*
X171700736Y-108266377D01*
X171769987Y-108279090D01*
X171839332Y-108267463D01*
X171880625Y-108246568D01*
X171923975Y-108210422D01*
X171953519Y-108166276D01*
X171971345Y-108108462D01*
X171979537Y-108031313D01*
X171980698Y-107974714D01*
X171980542Y-107970647D01*
X171879143Y-107970647D01*
X171878524Y-108035550D01*
X171875686Y-108078514D01*
X171869160Y-108106622D01*
X171857477Y-108126953D01*
X171843517Y-108142288D01*
X171796635Y-108171890D01*
X171746299Y-108174419D01*
X171698724Y-108149705D01*
X171695021Y-108146356D01*
X171679217Y-108128935D01*
X171669307Y-108108209D01*
X171663942Y-108077362D01*
X171661772Y-108029577D01*
X171661429Y-107976748D01*
X171662173Y-107910381D01*
X171665252Y-107866106D01*
X171671939Y-107837009D01*
X171683504Y-107816173D01*
X171692987Y-107805107D01*
X171737040Y-107777198D01*
X171787776Y-107773843D01*
X171836204Y-107795159D01*
X171845550Y-107803073D01*
X171861460Y-107820647D01*
X171871390Y-107841587D01*
X171876722Y-107872782D01*
X171878837Y-107921122D01*
X171879143Y-107970647D01*
X171980542Y-107970647D01*
X171977190Y-107883568D01*
X171965274Y-107815086D01*
X171942865Y-107763600D01*
X171907876Y-107723443D01*
X171880625Y-107702861D01*
X171831093Y-107680625D01*
X171773684Y-107670304D01*
X171720318Y-107673067D01*
X171690457Y-107684212D01*
X171678739Y-107687383D01*
X171670963Y-107675557D01*
X171665535Y-107643866D01*
X171661429Y-107595593D01*
X171656933Y-107541829D01*
X171650687Y-107509482D01*
X171639324Y-107490985D01*
X171619472Y-107478770D01*
X171607000Y-107473362D01*
X171559829Y-107453601D01*
X171559883Y-107790358D01*
G37*
X171559883Y-107790358D02*
X171560067Y-107898837D01*
X171560781Y-107982287D01*
X171562325Y-108044704D01*
X171564999Y-108090085D01*
X171569106Y-108122429D01*
X171574945Y-108145733D01*
X171582818Y-108163995D01*
X171588779Y-108174418D01*
X171638145Y-108230945D01*
X171700736Y-108266377D01*
X171769987Y-108279090D01*
X171839332Y-108267463D01*
X171880625Y-108246568D01*
X171923975Y-108210422D01*
X171953519Y-108166276D01*
X171971345Y-108108462D01*
X171979537Y-108031313D01*
X171980698Y-107974714D01*
X171980542Y-107970647D01*
X171879143Y-107970647D01*
X171878524Y-108035550D01*
X171875686Y-108078514D01*
X171869160Y-108106622D01*
X171857477Y-108126953D01*
X171843517Y-108142288D01*
X171796635Y-108171890D01*
X171746299Y-108174419D01*
X171698724Y-108149705D01*
X171695021Y-108146356D01*
X171679217Y-108128935D01*
X171669307Y-108108209D01*
X171663942Y-108077362D01*
X171661772Y-108029577D01*
X171661429Y-107976748D01*
X171662173Y-107910381D01*
X171665252Y-107866106D01*
X171671939Y-107837009D01*
X171683504Y-107816173D01*
X171692987Y-107805107D01*
X171737040Y-107777198D01*
X171787776Y-107773843D01*
X171836204Y-107795159D01*
X171845550Y-107803073D01*
X171861460Y-107820647D01*
X171871390Y-107841587D01*
X171876722Y-107872782D01*
X171878837Y-107921122D01*
X171879143Y-107970647D01*
X171980542Y-107970647D01*
X171977190Y-107883568D01*
X171965274Y-107815086D01*
X171942865Y-107763600D01*
X171907876Y-107723443D01*
X171880625Y-107702861D01*
X171831093Y-107680625D01*
X171773684Y-107670304D01*
X171720318Y-107673067D01*
X171690457Y-107684212D01*
X171678739Y-107687383D01*
X171670963Y-107675557D01*
X171665535Y-107643866D01*
X171661429Y-107595593D01*
X171656933Y-107541829D01*
X171650687Y-107509482D01*
X171639324Y-107490985D01*
X171619472Y-107478770D01*
X171607000Y-107473362D01*
X171559829Y-107453601D01*
X171559883Y-107790358D01*
G36*
X170970167Y-107683663D02*
G01*
X170967952Y-107721850D01*
X170966216Y-107779886D01*
X170965101Y-107853180D01*
X170964743Y-107930055D01*
X170964743Y-108190196D01*
X171010674Y-108236127D01*
X171042325Y-108264429D01*
X171070110Y-108275893D01*
X171108085Y-108275168D01*
X171123160Y-108273321D01*
X171170274Y-108267948D01*
X171209244Y-108264869D01*
X171218743Y-108264585D01*
X171250767Y-108266445D01*
X171296568Y-108271114D01*
X171314326Y-108273321D01*
X171357943Y-108276735D01*
X171387255Y-108269320D01*
X171416320Y-108246427D01*
X171426812Y-108236127D01*
X171472743Y-108190196D01*
X171472743Y-107703602D01*
X171435774Y-107686758D01*
X171403941Y-107674282D01*
X171385317Y-107669914D01*
X171380542Y-107683718D01*
X171376079Y-107722286D01*
X171372225Y-107781356D01*
X171369278Y-107856663D01*
X171367857Y-107920286D01*
X171363886Y-108170657D01*
X171329241Y-108175556D01*
X171297732Y-108172131D01*
X171282292Y-108161041D01*
X171277977Y-108140308D01*
X171274292Y-108096145D01*
X171271531Y-108034146D01*
X171269988Y-107959909D01*
X171269765Y-107921706D01*
X171269543Y-107701783D01*
X171223834Y-107685849D01*
X171191482Y-107675015D01*
X171173885Y-107669962D01*
X171173377Y-107669914D01*
X171171612Y-107683648D01*
X171169671Y-107721730D01*
X171167718Y-107779482D01*
X171165916Y-107852227D01*
X171164657Y-107920286D01*
X171160686Y-108170657D01*
X171073600Y-108170657D01*
X171069604Y-107942240D01*
X171065608Y-107713822D01*
X171023153Y-107691868D01*
X170991808Y-107676793D01*
X170973256Y-107669951D01*
X170972721Y-107669914D01*
X170970167Y-107683663D01*
G37*
X170970167Y-107683663D02*
X170967952Y-107721850D01*
X170966216Y-107779886D01*
X170965101Y-107853180D01*
X170964743Y-107930055D01*
X170964743Y-108190196D01*
X171010674Y-108236127D01*
X171042325Y-108264429D01*
X171070110Y-108275893D01*
X171108085Y-108275168D01*
X171123160Y-108273321D01*
X171170274Y-108267948D01*
X171209244Y-108264869D01*
X171218743Y-108264585D01*
X171250767Y-108266445D01*
X171296568Y-108271114D01*
X171314326Y-108273321D01*
X171357943Y-108276735D01*
X171387255Y-108269320D01*
X171416320Y-108246427D01*
X171426812Y-108236127D01*
X171472743Y-108190196D01*
X171472743Y-107703602D01*
X171435774Y-107686758D01*
X171403941Y-107674282D01*
X171385317Y-107669914D01*
X171380542Y-107683718D01*
X171376079Y-107722286D01*
X171372225Y-107781356D01*
X171369278Y-107856663D01*
X171367857Y-107920286D01*
X171363886Y-108170657D01*
X171329241Y-108175556D01*
X171297732Y-108172131D01*
X171282292Y-108161041D01*
X171277977Y-108140308D01*
X171274292Y-108096145D01*
X171271531Y-108034146D01*
X171269988Y-107959909D01*
X171269765Y-107921706D01*
X171269543Y-107701783D01*
X171223834Y-107685849D01*
X171191482Y-107675015D01*
X171173885Y-107669962D01*
X171173377Y-107669914D01*
X171171612Y-107683648D01*
X171169671Y-107721730D01*
X171167718Y-107779482D01*
X171165916Y-107852227D01*
X171164657Y-107920286D01*
X171160686Y-108170657D01*
X171073600Y-108170657D01*
X171069604Y-107942240D01*
X171065608Y-107713822D01*
X171023153Y-107691868D01*
X170991808Y-107676793D01*
X170973256Y-107669951D01*
X170972721Y-107669914D01*
X170970167Y-107683663D01*
G36*
X170605124Y-107681335D02*
G01*
X170563333Y-107700344D01*
X170530531Y-107723378D01*
X170506497Y-107749133D01*
X170489903Y-107782358D01*
X170479423Y-107827800D01*
X170473729Y-107890207D01*
X170471493Y-107974327D01*
X170471257Y-108029721D01*
X170471257Y-108245826D01*
X170508226Y-108262670D01*
X170537344Y-108274981D01*
X170551769Y-108279514D01*
X170554528Y-108266025D01*
X170556718Y-108229653D01*
X170558058Y-108176542D01*
X170558343Y-108134372D01*
X170559566Y-108073447D01*
X170562864Y-108025115D01*
X170567679Y-107995518D01*
X170571504Y-107989229D01*
X170597217Y-107995652D01*
X170637582Y-108012125D01*
X170684321Y-108034458D01*
X170729155Y-108058457D01*
X170763807Y-108079930D01*
X170779998Y-108094685D01*
X170780062Y-108094845D01*
X170778670Y-108122152D01*
X170766182Y-108148219D01*
X170744257Y-108169392D01*
X170712257Y-108176474D01*
X170684908Y-108175649D01*
X170646174Y-108175042D01*
X170625842Y-108184116D01*
X170613631Y-108208092D01*
X170612091Y-108212613D01*
X170606797Y-108246806D01*
X170620953Y-108267568D01*
X170657852Y-108277462D01*
X170697711Y-108279292D01*
X170769438Y-108265727D01*
X170806568Y-108246355D01*
X170852424Y-108200845D01*
X170876744Y-108144983D01*
X170878927Y-108085957D01*
X170858371Y-108030953D01*
X170827451Y-107996486D01*
X170796580Y-107977189D01*
X170748058Y-107952759D01*
X170691515Y-107927985D01*
X170682090Y-107924199D01*
X170619981Y-107896791D01*
X170584178Y-107872634D01*
X170572663Y-107848619D01*
X170583420Y-107821635D01*
X170601886Y-107800543D01*
X170645531Y-107774572D01*
X170693554Y-107772624D01*
X170737594Y-107792637D01*
X170769291Y-107832551D01*
X170773451Y-107842848D01*
X170797673Y-107880724D01*
X170833035Y-107908842D01*
X170877657Y-107931917D01*
X170877657Y-107866485D01*
X170875031Y-107826506D01*
X170863770Y-107794997D01*
X170838801Y-107761378D01*
X170814831Y-107735484D01*
X170777559Y-107698817D01*
X170748599Y-107679121D01*
X170717495Y-107671220D01*
X170682287Y-107669914D01*
X170605124Y-107681335D01*
G37*
X170605124Y-107681335D02*
X170563333Y-107700344D01*
X170530531Y-107723378D01*
X170506497Y-107749133D01*
X170489903Y-107782358D01*
X170479423Y-107827800D01*
X170473729Y-107890207D01*
X170471493Y-107974327D01*
X170471257Y-108029721D01*
X170471257Y-108245826D01*
X170508226Y-108262670D01*
X170537344Y-108274981D01*
X170551769Y-108279514D01*
X170554528Y-108266025D01*
X170556718Y-108229653D01*
X170558058Y-108176542D01*
X170558343Y-108134372D01*
X170559566Y-108073447D01*
X170562864Y-108025115D01*
X170567679Y-107995518D01*
X170571504Y-107989229D01*
X170597217Y-107995652D01*
X170637582Y-108012125D01*
X170684321Y-108034458D01*
X170729155Y-108058457D01*
X170763807Y-108079930D01*
X170779998Y-108094685D01*
X170780062Y-108094845D01*
X170778670Y-108122152D01*
X170766182Y-108148219D01*
X170744257Y-108169392D01*
X170712257Y-108176474D01*
X170684908Y-108175649D01*
X170646174Y-108175042D01*
X170625842Y-108184116D01*
X170613631Y-108208092D01*
X170612091Y-108212613D01*
X170606797Y-108246806D01*
X170620953Y-108267568D01*
X170657852Y-108277462D01*
X170697711Y-108279292D01*
X170769438Y-108265727D01*
X170806568Y-108246355D01*
X170852424Y-108200845D01*
X170876744Y-108144983D01*
X170878927Y-108085957D01*
X170858371Y-108030953D01*
X170827451Y-107996486D01*
X170796580Y-107977189D01*
X170748058Y-107952759D01*
X170691515Y-107927985D01*
X170682090Y-107924199D01*
X170619981Y-107896791D01*
X170584178Y-107872634D01*
X170572663Y-107848619D01*
X170583420Y-107821635D01*
X170601886Y-107800543D01*
X170645531Y-107774572D01*
X170693554Y-107772624D01*
X170737594Y-107792637D01*
X170769291Y-107832551D01*
X170773451Y-107842848D01*
X170797673Y-107880724D01*
X170833035Y-107908842D01*
X170877657Y-107931917D01*
X170877657Y-107866485D01*
X170875031Y-107826506D01*
X170863770Y-107794997D01*
X170838801Y-107761378D01*
X170814831Y-107735484D01*
X170777559Y-107698817D01*
X170748599Y-107679121D01*
X170717495Y-107671220D01*
X170682287Y-107669914D01*
X170605124Y-107681335D01*
G36*
X170097400Y-107683752D02*
G01*
X170080052Y-107691334D01*
X170038644Y-107724128D01*
X170003235Y-107771547D01*
X169981336Y-107822151D01*
X169977771Y-107847098D01*
X169989721Y-107881927D01*
X170015933Y-107900357D01*
X170044036Y-107911516D01*
X170056905Y-107913572D01*
X170063171Y-107898649D01*
X170075544Y-107866175D01*
X170080972Y-107851502D01*
X170111410Y-107800744D01*
X170155480Y-107775427D01*
X170211990Y-107776206D01*
X170216175Y-107777203D01*
X170246345Y-107791507D01*
X170268524Y-107819393D01*
X170283673Y-107864287D01*
X170292750Y-107929615D01*
X170296714Y-108018804D01*
X170297086Y-108066261D01*
X170297270Y-108141071D01*
X170298478Y-108192069D01*
X170301691Y-108224471D01*
X170307891Y-108243495D01*
X170318060Y-108254356D01*
X170333181Y-108262272D01*
X170334054Y-108262670D01*
X170363172Y-108274981D01*
X170377597Y-108279514D01*
X170379814Y-108265809D01*
X170381711Y-108227925D01*
X170383153Y-108170715D01*
X170384002Y-108099027D01*
X170384171Y-108046565D01*
X170383308Y-107945047D01*
X170379930Y-107868032D01*
X170372858Y-107811023D01*
X170360912Y-107769526D01*
X170342910Y-107739043D01*
X170317673Y-107715080D01*
X170292753Y-107698355D01*
X170232829Y-107676097D01*
X170163089Y-107671076D01*
X170097400Y-107683752D01*
G37*
X170097400Y-107683752D02*
X170080052Y-107691334D01*
X170038644Y-107724128D01*
X170003235Y-107771547D01*
X169981336Y-107822151D01*
X169977771Y-107847098D01*
X169989721Y-107881927D01*
X170015933Y-107900357D01*
X170044036Y-107911516D01*
X170056905Y-107913572D01*
X170063171Y-107898649D01*
X170075544Y-107866175D01*
X170080972Y-107851502D01*
X170111410Y-107800744D01*
X170155480Y-107775427D01*
X170211990Y-107776206D01*
X170216175Y-107777203D01*
X170246345Y-107791507D01*
X170268524Y-107819393D01*
X170283673Y-107864287D01*
X170292750Y-107929615D01*
X170296714Y-108018804D01*
X170297086Y-108066261D01*
X170297270Y-108141071D01*
X170298478Y-108192069D01*
X170301691Y-108224471D01*
X170307891Y-108243495D01*
X170318060Y-108254356D01*
X170333181Y-108262272D01*
X170334054Y-108262670D01*
X170363172Y-108274981D01*
X170377597Y-108279514D01*
X170379814Y-108265809D01*
X170381711Y-108227925D01*
X170383153Y-108170715D01*
X170384002Y-108099027D01*
X170384171Y-108046565D01*
X170383308Y-107945047D01*
X170379930Y-107868032D01*
X170372858Y-107811023D01*
X170360912Y-107769526D01*
X170342910Y-107739043D01*
X170317673Y-107715080D01*
X170292753Y-107698355D01*
X170232829Y-107676097D01*
X170163089Y-107671076D01*
X170097400Y-107683752D01*
G36*
X169596405Y-107691966D02*
G01*
X169538979Y-107729497D01*
X169511281Y-107763096D01*
X169489338Y-107824064D01*
X169487595Y-107872308D01*
X169491543Y-107936816D01*
X169640314Y-108001934D01*
X169712651Y-108035202D01*
X169759916Y-108061964D01*
X169784493Y-108085144D01*
X169788763Y-108107667D01*
X169775111Y-108132455D01*
X169760057Y-108148886D01*
X169716254Y-108175235D01*
X169668611Y-108177081D01*
X169624855Y-108156546D01*
X169592711Y-108115752D01*
X169586962Y-108101347D01*
X169559424Y-108056356D01*
X169527742Y-108037182D01*
X169484286Y-108020779D01*
X169484286Y-108082966D01*
X169488128Y-108125283D01*
X169503177Y-108160969D01*
X169534720Y-108201943D01*
X169539408Y-108207267D01*
X169574494Y-108243720D01*
X169604653Y-108263283D01*
X169642385Y-108272283D01*
X169673665Y-108275230D01*
X169729615Y-108275965D01*
X169769445Y-108266660D01*
X169794292Y-108252846D01*
X169833344Y-108222467D01*
X169860375Y-108189613D01*
X169877483Y-108148294D01*
X169886762Y-108092521D01*
X169890307Y-108016305D01*
X169890590Y-107977622D01*
X169889628Y-107931247D01*
X169801993Y-107931247D01*
X169800977Y-107956126D01*
X169798444Y-107960200D01*
X169781726Y-107954665D01*
X169745751Y-107940017D01*
X169697669Y-107919190D01*
X169687614Y-107914714D01*
X169626848Y-107883814D01*
X169593368Y-107856657D01*
X169586010Y-107831220D01*
X169603609Y-107805481D01*
X169618144Y-107794109D01*
X169670590Y-107771364D01*
X169719678Y-107775122D01*
X169760773Y-107802884D01*
X169789242Y-107852152D01*
X169798369Y-107891257D01*
X169801993Y-107931247D01*
X169889628Y-107931247D01*
X169888715Y-107887249D01*
X169881804Y-107820384D01*
X169868116Y-107771695D01*
X169845904Y-107735849D01*
X169813426Y-107707513D01*
X169799267Y-107698355D01*
X169734947Y-107674507D01*
X169664527Y-107673006D01*
X169596405Y-107691966D01*
G37*
X169596405Y-107691966D02*
X169538979Y-107729497D01*
X169511281Y-107763096D01*
X169489338Y-107824064D01*
X169487595Y-107872308D01*
X169491543Y-107936816D01*
X169640314Y-108001934D01*
X169712651Y-108035202D01*
X169759916Y-108061964D01*
X169784493Y-108085144D01*
X169788763Y-108107667D01*
X169775111Y-108132455D01*
X169760057Y-108148886D01*
X169716254Y-108175235D01*
X169668611Y-108177081D01*
X169624855Y-108156546D01*
X169592711Y-108115752D01*
X169586962Y-108101347D01*
X169559424Y-108056356D01*
X169527742Y-108037182D01*
X169484286Y-108020779D01*
X169484286Y-108082966D01*
X169488128Y-108125283D01*
X169503177Y-108160969D01*
X169534720Y-108201943D01*
X169539408Y-108207267D01*
X169574494Y-108243720D01*
X169604653Y-108263283D01*
X169642385Y-108272283D01*
X169673665Y-108275230D01*
X169729615Y-108275965D01*
X169769445Y-108266660D01*
X169794292Y-108252846D01*
X169833344Y-108222467D01*
X169860375Y-108189613D01*
X169877483Y-108148294D01*
X169886762Y-108092521D01*
X169890307Y-108016305D01*
X169890590Y-107977622D01*
X169889628Y-107931247D01*
X169801993Y-107931247D01*
X169800977Y-107956126D01*
X169798444Y-107960200D01*
X169781726Y-107954665D01*
X169745751Y-107940017D01*
X169697669Y-107919190D01*
X169687614Y-107914714D01*
X169626848Y-107883814D01*
X169593368Y-107856657D01*
X169586010Y-107831220D01*
X169603609Y-107805481D01*
X169618144Y-107794109D01*
X169670590Y-107771364D01*
X169719678Y-107775122D01*
X169760773Y-107802884D01*
X169789242Y-107852152D01*
X169798369Y-107891257D01*
X169801993Y-107931247D01*
X169889628Y-107931247D01*
X169888715Y-107887249D01*
X169881804Y-107820384D01*
X169868116Y-107771695D01*
X169845904Y-107735849D01*
X169813426Y-107707513D01*
X169799267Y-107698355D01*
X169734947Y-107674507D01*
X169664527Y-107673006D01*
X169596405Y-107691966D01*
G36*
X172646090Y-102967348D02*
G01*
X172567546Y-102967778D01*
X172510702Y-102968942D01*
X172471895Y-102971207D01*
X172447462Y-102974940D01*
X172433738Y-102980506D01*
X172427060Y-102988273D01*
X172423764Y-102998605D01*
X172423444Y-102999943D01*
X172418438Y-103024079D01*
X172409171Y-103071701D01*
X172396608Y-103137741D01*
X172381713Y-103217128D01*
X172365449Y-103304796D01*
X172364881Y-103307875D01*
X172348590Y-103393789D01*
X172333348Y-103469696D01*
X172320139Y-103531045D01*
X172309946Y-103573282D01*
X172303752Y-103591855D01*
X172303457Y-103592184D01*
X172285212Y-103601253D01*
X172247595Y-103616367D01*
X172198729Y-103634262D01*
X172198457Y-103634358D01*
X172136907Y-103657493D01*
X172064343Y-103686965D01*
X171995943Y-103716597D01*
X171992706Y-103718062D01*
X171881298Y-103768626D01*
X171634601Y-103600160D01*
X171558923Y-103548803D01*
X171490369Y-103502889D01*
X171432912Y-103465030D01*
X171390524Y-103437837D01*
X171367175Y-103423921D01*
X171364958Y-103422889D01*
X171347990Y-103427484D01*
X171316299Y-103449655D01*
X171268648Y-103490447D01*
X171203802Y-103550905D01*
X171137603Y-103615227D01*
X171073786Y-103678612D01*
X171016671Y-103736451D01*
X170969695Y-103785175D01*
X170936297Y-103821210D01*
X170919915Y-103840984D01*
X170919306Y-103842002D01*
X170917495Y-103855572D01*
X170924317Y-103877733D01*
X170941460Y-103911478D01*
X170970607Y-103959800D01*
X171013445Y-104025692D01*
X171070552Y-104110517D01*
X171121234Y-104185177D01*
X171166539Y-104252140D01*
X171203850Y-104307516D01*
X171230548Y-104347420D01*
X171244015Y-104367962D01*
X171244863Y-104369356D01*
X171243219Y-104389038D01*
X171230755Y-104427293D01*
X171209952Y-104476889D01*
X171202538Y-104492728D01*
X171170186Y-104563290D01*
X171135672Y-104643353D01*
X171107635Y-104712629D01*
X171087432Y-104764045D01*
X171071385Y-104803119D01*
X171062112Y-104823541D01*
X171060959Y-104825114D01*
X171043904Y-104827721D01*
X171003702Y-104834863D01*
X170945698Y-104845523D01*
X170875237Y-104858685D01*
X170797665Y-104873333D01*
X170718328Y-104888449D01*
X170642569Y-104903018D01*
X170575736Y-104916022D01*
X170523172Y-104926445D01*
X170490224Y-104933270D01*
X170482143Y-104935199D01*
X170473795Y-104939962D01*
X170467494Y-104950718D01*
X170462955Y-104971098D01*
X170459896Y-105004734D01*
X170458033Y-105055255D01*
X170457082Y-105126292D01*
X170456760Y-105221476D01*
X170456743Y-105260492D01*
X170456743Y-105577799D01*
X170532943Y-105592839D01*
X170575337Y-105600995D01*
X170638600Y-105612899D01*
X170715038Y-105627116D01*
X170796957Y-105642210D01*
X170819600Y-105646355D01*
X170895194Y-105661053D01*
X170961047Y-105675505D01*
X171011634Y-105688375D01*
X171041426Y-105698322D01*
X171046388Y-105701287D01*
X171058574Y-105722283D01*
X171076047Y-105762967D01*
X171095423Y-105815322D01*
X171099266Y-105826600D01*
X171124661Y-105896523D01*
X171156183Y-105975418D01*
X171187031Y-106046266D01*
X171187183Y-106046595D01*
X171238553Y-106157733D01*
X171069601Y-106406253D01*
X170900648Y-106654772D01*
X171117571Y-106872058D01*
X171183181Y-106936726D01*
X171243021Y-106993733D01*
X171293733Y-107040033D01*
X171331954Y-107072584D01*
X171354325Y-107088343D01*
X171357534Y-107089343D01*
X171376374Y-107081469D01*
X171414820Y-107059578D01*
X171468670Y-107026267D01*
X171533724Y-106984131D01*
X171604060Y-106936943D01*
X171675445Y-106888810D01*
X171739092Y-106846928D01*
X171790959Y-106813871D01*
X171827005Y-106792218D01*
X171843133Y-106784543D01*
X171862811Y-106791037D01*
X171900125Y-106808150D01*
X171947379Y-106832326D01*
X171952388Y-106835013D01*
X172016023Y-106866927D01*
X172059659Y-106882579D01*
X172086798Y-106882745D01*
X172100943Y-106868204D01*
X172101025Y-106868000D01*
X172108095Y-106850779D01*
X172124958Y-106809899D01*
X172150305Y-106748525D01*
X172182829Y-106669819D01*
X172221222Y-106576947D01*
X172264178Y-106473072D01*
X172305778Y-106372502D01*
X172351496Y-106261516D01*
X172393474Y-106158703D01*
X172430452Y-106067215D01*
X172461173Y-105990201D01*
X172484378Y-105930815D01*
X172498810Y-105892209D01*
X172503257Y-105877800D01*
X172492104Y-105861272D01*
X172462931Y-105834930D01*
X172424029Y-105805887D01*
X172313243Y-105714039D01*
X172226649Y-105608759D01*
X172165284Y-105492266D01*
X172130185Y-105366776D01*
X172122392Y-105234507D01*
X172128057Y-105173457D01*
X172158922Y-105046795D01*
X172212080Y-104934941D01*
X172284233Y-104839001D01*
X172372083Y-104760076D01*
X172472335Y-104699270D01*
X172581690Y-104657687D01*
X172696853Y-104636428D01*
X172814525Y-104636599D01*
X172931410Y-104659301D01*
X173044211Y-104705638D01*
X173149631Y-104776713D01*
X173193632Y-104816911D01*
X173278021Y-104920129D01*
X173336778Y-105032925D01*
X173370296Y-105152010D01*
X173378965Y-105274095D01*
X173363177Y-105395893D01*
X173323322Y-105514116D01*
X173259793Y-105625475D01*
X173172979Y-105726684D01*
X173075971Y-105805887D01*
X173035563Y-105836162D01*
X173007018Y-105862219D01*
X172996743Y-105877825D01*
X173002123Y-105894843D01*
X173017425Y-105935500D01*
X173041388Y-105996642D01*
X173072756Y-106075119D01*
X173110268Y-106167780D01*
X173152667Y-106271472D01*
X173194337Y-106372526D01*
X173240310Y-106483607D01*
X173282893Y-106586541D01*
X173320779Y-106678165D01*
X173352660Y-106755316D01*
X173377229Y-106814831D01*
X173393180Y-106853544D01*
X173399090Y-106868000D01*
X173413052Y-106882685D01*
X173440060Y-106882642D01*
X173483587Y-106867099D01*
X173547110Y-106835284D01*
X173547612Y-106835013D01*
X173595440Y-106810323D01*
X173634103Y-106792338D01*
X173655905Y-106784614D01*
X173656867Y-106784543D01*
X173673279Y-106792378D01*
X173709513Y-106814165D01*
X173761526Y-106847328D01*
X173825275Y-106889291D01*
X173895940Y-106936943D01*
X173967884Y-106985191D01*
X174032726Y-107027151D01*
X174086265Y-107060227D01*
X174124303Y-107081821D01*
X174142467Y-107089343D01*
X174159192Y-107079457D01*
X174192820Y-107051826D01*
X174239990Y-107009495D01*
X174297342Y-106955505D01*
X174361516Y-106892899D01*
X174382503Y-106871983D01*
X174599501Y-106654623D01*
X174434332Y-106412220D01*
X174384136Y-106337781D01*
X174340081Y-106270972D01*
X174304638Y-106215665D01*
X174280281Y-106175729D01*
X174269478Y-106155036D01*
X174269162Y-106153563D01*
X174274857Y-106134058D01*
X174290174Y-106094822D01*
X174312463Y-106042430D01*
X174328107Y-106007355D01*
X174357359Y-105940201D01*
X174384906Y-105872358D01*
X174406263Y-105815034D01*
X174412065Y-105797572D01*
X174428548Y-105750938D01*
X174444660Y-105714905D01*
X174453510Y-105701287D01*
X174473040Y-105692952D01*
X174515666Y-105681137D01*
X174575855Y-105667181D01*
X174648078Y-105652422D01*
X174680400Y-105646355D01*
X174762478Y-105631273D01*
X174841205Y-105616669D01*
X174908891Y-105603980D01*
X174957840Y-105594642D01*
X174967057Y-105592839D01*
X175043257Y-105577799D01*
X175043257Y-105260492D01*
X175043086Y-105156154D01*
X175042384Y-105077213D01*
X175040866Y-105020038D01*
X175038251Y-104980999D01*
X175034254Y-104956465D01*
X175028591Y-104942805D01*
X175020980Y-104936389D01*
X175017857Y-104935199D01*
X174999022Y-104930980D01*
X174957412Y-104922562D01*
X174898370Y-104910961D01*
X174827243Y-104897195D01*
X174749375Y-104882280D01*
X174670113Y-104867232D01*
X174594802Y-104853069D01*
X174528787Y-104840806D01*
X174477413Y-104831461D01*
X174446025Y-104826050D01*
X174439041Y-104825114D01*
X174432715Y-104812596D01*
X174418710Y-104779246D01*
X174399645Y-104731377D01*
X174392366Y-104712629D01*
X174363004Y-104640195D01*
X174328429Y-104560170D01*
X174297463Y-104492728D01*
X174274677Y-104441159D01*
X174259518Y-104398785D01*
X174254458Y-104372834D01*
X174255264Y-104369356D01*
X174265959Y-104352936D01*
X174290380Y-104316417D01*
X174325905Y-104263687D01*
X174369913Y-104198635D01*
X174419783Y-104125151D01*
X174429644Y-104110645D01*
X174487508Y-104024704D01*
X174530044Y-103959261D01*
X174558946Y-103911304D01*
X174575910Y-103877820D01*
X174582633Y-103855795D01*
X174580810Y-103842217D01*
X174580764Y-103842131D01*
X174566414Y-103824297D01*
X174534677Y-103789817D01*
X174488990Y-103742268D01*
X174432796Y-103685222D01*
X174369532Y-103622255D01*
X174362398Y-103615227D01*
X174282670Y-103538020D01*
X174221143Y-103481330D01*
X174176579Y-103444110D01*
X174147743Y-103425315D01*
X174135042Y-103422889D01*
X174116506Y-103433471D01*
X174078039Y-103457916D01*
X174023614Y-103493612D01*
X173957202Y-103537947D01*
X173882775Y-103588311D01*
X173865399Y-103600160D01*
X173618703Y-103768626D01*
X173507294Y-103718062D01*
X173439543Y-103688595D01*
X173366817Y-103658959D01*
X173304297Y-103635330D01*
X173301543Y-103634358D01*
X173252640Y-103616457D01*
X173214943Y-103601320D01*
X173196575Y-103592210D01*
X173196544Y-103592184D01*
X173190715Y-103575717D01*
X173180808Y-103535219D01*
X173167805Y-103475242D01*
X173152691Y-103400340D01*
X173136448Y-103315064D01*
X173135119Y-103307875D01*
X173118825Y-103220014D01*
X173103867Y-103140260D01*
X173091209Y-103073681D01*
X173081814Y-103025347D01*
X173076646Y-103000325D01*
X173076556Y-102999943D01*
X173073411Y-102989299D01*
X173067296Y-102981262D01*
X173054547Y-102975467D01*
X173031500Y-102971547D01*
X172994491Y-102969135D01*
X172939856Y-102967865D01*
X172863933Y-102967371D01*
X172763056Y-102967286D01*
X172750000Y-102967286D01*
X172646090Y-102967348D01*
G37*
X172646090Y-102967348D02*
X172567546Y-102967778D01*
X172510702Y-102968942D01*
X172471895Y-102971207D01*
X172447462Y-102974940D01*
X172433738Y-102980506D01*
X172427060Y-102988273D01*
X172423764Y-102998605D01*
X172423444Y-102999943D01*
X172418438Y-103024079D01*
X172409171Y-103071701D01*
X172396608Y-103137741D01*
X172381713Y-103217128D01*
X172365449Y-103304796D01*
X172364881Y-103307875D01*
X172348590Y-103393789D01*
X172333348Y-103469696D01*
X172320139Y-103531045D01*
X172309946Y-103573282D01*
X172303752Y-103591855D01*
X172303457Y-103592184D01*
X172285212Y-103601253D01*
X172247595Y-103616367D01*
X172198729Y-103634262D01*
X172198457Y-103634358D01*
X172136907Y-103657493D01*
X172064343Y-103686965D01*
X171995943Y-103716597D01*
X171992706Y-103718062D01*
X171881298Y-103768626D01*
X171634601Y-103600160D01*
X171558923Y-103548803D01*
X171490369Y-103502889D01*
X171432912Y-103465030D01*
X171390524Y-103437837D01*
X171367175Y-103423921D01*
X171364958Y-103422889D01*
X171347990Y-103427484D01*
X171316299Y-103449655D01*
X171268648Y-103490447D01*
X171203802Y-103550905D01*
X171137603Y-103615227D01*
X171073786Y-103678612D01*
X171016671Y-103736451D01*
X170969695Y-103785175D01*
X170936297Y-103821210D01*
X170919915Y-103840984D01*
X170919306Y-103842002D01*
X170917495Y-103855572D01*
X170924317Y-103877733D01*
X170941460Y-103911478D01*
X170970607Y-103959800D01*
X171013445Y-104025692D01*
X171070552Y-104110517D01*
X171121234Y-104185177D01*
X171166539Y-104252140D01*
X171203850Y-104307516D01*
X171230548Y-104347420D01*
X171244015Y-104367962D01*
X171244863Y-104369356D01*
X171243219Y-104389038D01*
X171230755Y-104427293D01*
X171209952Y-104476889D01*
X171202538Y-104492728D01*
X171170186Y-104563290D01*
X171135672Y-104643353D01*
X171107635Y-104712629D01*
X171087432Y-104764045D01*
X171071385Y-104803119D01*
X171062112Y-104823541D01*
X171060959Y-104825114D01*
X171043904Y-104827721D01*
X171003702Y-104834863D01*
X170945698Y-104845523D01*
X170875237Y-104858685D01*
X170797665Y-104873333D01*
X170718328Y-104888449D01*
X170642569Y-104903018D01*
X170575736Y-104916022D01*
X170523172Y-104926445D01*
X170490224Y-104933270D01*
X170482143Y-104935199D01*
X170473795Y-104939962D01*
X170467494Y-104950718D01*
X170462955Y-104971098D01*
X170459896Y-105004734D01*
X170458033Y-105055255D01*
X170457082Y-105126292D01*
X170456760Y-105221476D01*
X170456743Y-105260492D01*
X170456743Y-105577799D01*
X170532943Y-105592839D01*
X170575337Y-105600995D01*
X170638600Y-105612899D01*
X170715038Y-105627116D01*
X170796957Y-105642210D01*
X170819600Y-105646355D01*
X170895194Y-105661053D01*
X170961047Y-105675505D01*
X171011634Y-105688375D01*
X171041426Y-105698322D01*
X171046388Y-105701287D01*
X171058574Y-105722283D01*
X171076047Y-105762967D01*
X171095423Y-105815322D01*
X171099266Y-105826600D01*
X171124661Y-105896523D01*
X171156183Y-105975418D01*
X171187031Y-106046266D01*
X171187183Y-106046595D01*
X171238553Y-106157733D01*
X171069601Y-106406253D01*
X170900648Y-106654772D01*
X171117571Y-106872058D01*
X171183181Y-106936726D01*
X171243021Y-106993733D01*
X171293733Y-107040033D01*
X171331954Y-107072584D01*
X171354325Y-107088343D01*
X171357534Y-107089343D01*
X171376374Y-107081469D01*
X171414820Y-107059578D01*
X171468670Y-107026267D01*
X171533724Y-106984131D01*
X171604060Y-106936943D01*
X171675445Y-106888810D01*
X171739092Y-106846928D01*
X171790959Y-106813871D01*
X171827005Y-106792218D01*
X171843133Y-106784543D01*
X171862811Y-106791037D01*
X171900125Y-106808150D01*
X171947379Y-106832326D01*
X171952388Y-106835013D01*
X172016023Y-106866927D01*
X172059659Y-106882579D01*
X172086798Y-106882745D01*
X172100943Y-106868204D01*
X172101025Y-106868000D01*
X172108095Y-106850779D01*
X172124958Y-106809899D01*
X172150305Y-106748525D01*
X172182829Y-106669819D01*
X172221222Y-106576947D01*
X172264178Y-106473072D01*
X172305778Y-106372502D01*
X172351496Y-106261516D01*
X172393474Y-106158703D01*
X172430452Y-106067215D01*
X172461173Y-105990201D01*
X172484378Y-105930815D01*
X172498810Y-105892209D01*
X172503257Y-105877800D01*
X172492104Y-105861272D01*
X172462931Y-105834930D01*
X172424029Y-105805887D01*
X172313243Y-105714039D01*
X172226649Y-105608759D01*
X172165284Y-105492266D01*
X172130185Y-105366776D01*
X172122392Y-105234507D01*
X172128057Y-105173457D01*
X172158922Y-105046795D01*
X172212080Y-104934941D01*
X172284233Y-104839001D01*
X172372083Y-104760076D01*
X172472335Y-104699270D01*
X172581690Y-104657687D01*
X172696853Y-104636428D01*
X172814525Y-104636599D01*
X172931410Y-104659301D01*
X173044211Y-104705638D01*
X173149631Y-104776713D01*
X173193632Y-104816911D01*
X173278021Y-104920129D01*
X173336778Y-105032925D01*
X173370296Y-105152010D01*
X173378965Y-105274095D01*
X173363177Y-105395893D01*
X173323322Y-105514116D01*
X173259793Y-105625475D01*
X173172979Y-105726684D01*
X173075971Y-105805887D01*
X173035563Y-105836162D01*
X173007018Y-105862219D01*
X172996743Y-105877825D01*
X173002123Y-105894843D01*
X173017425Y-105935500D01*
X173041388Y-105996642D01*
X173072756Y-106075119D01*
X173110268Y-106167780D01*
X173152667Y-106271472D01*
X173194337Y-106372526D01*
X173240310Y-106483607D01*
X173282893Y-106586541D01*
X173320779Y-106678165D01*
X173352660Y-106755316D01*
X173377229Y-106814831D01*
X173393180Y-106853544D01*
X173399090Y-106868000D01*
X173413052Y-106882685D01*
X173440060Y-106882642D01*
X173483587Y-106867099D01*
X173547110Y-106835284D01*
X173547612Y-106835013D01*
X173595440Y-106810323D01*
X173634103Y-106792338D01*
X173655905Y-106784614D01*
X173656867Y-106784543D01*
X173673279Y-106792378D01*
X173709513Y-106814165D01*
X173761526Y-106847328D01*
X173825275Y-106889291D01*
X173895940Y-106936943D01*
X173967884Y-106985191D01*
X174032726Y-107027151D01*
X174086265Y-107060227D01*
X174124303Y-107081821D01*
X174142467Y-107089343D01*
X174159192Y-107079457D01*
X174192820Y-107051826D01*
X174239990Y-107009495D01*
X174297342Y-106955505D01*
X174361516Y-106892899D01*
X174382503Y-106871983D01*
X174599501Y-106654623D01*
X174434332Y-106412220D01*
X174384136Y-106337781D01*
X174340081Y-106270972D01*
X174304638Y-106215665D01*
X174280281Y-106175729D01*
X174269478Y-106155036D01*
X174269162Y-106153563D01*
X174274857Y-106134058D01*
X174290174Y-106094822D01*
X174312463Y-106042430D01*
X174328107Y-106007355D01*
X174357359Y-105940201D01*
X174384906Y-105872358D01*
X174406263Y-105815034D01*
X174412065Y-105797572D01*
X174428548Y-105750938D01*
X174444660Y-105714905D01*
X174453510Y-105701287D01*
X174473040Y-105692952D01*
X174515666Y-105681137D01*
X174575855Y-105667181D01*
X174648078Y-105652422D01*
X174680400Y-105646355D01*
X174762478Y-105631273D01*
X174841205Y-105616669D01*
X174908891Y-105603980D01*
X174957840Y-105594642D01*
X174967057Y-105592839D01*
X175043257Y-105577799D01*
X175043257Y-105260492D01*
X175043086Y-105156154D01*
X175042384Y-105077213D01*
X175040866Y-105020038D01*
X175038251Y-104980999D01*
X175034254Y-104956465D01*
X175028591Y-104942805D01*
X175020980Y-104936389D01*
X175017857Y-104935199D01*
X174999022Y-104930980D01*
X174957412Y-104922562D01*
X174898370Y-104910961D01*
X174827243Y-104897195D01*
X174749375Y-104882280D01*
X174670113Y-104867232D01*
X174594802Y-104853069D01*
X174528787Y-104840806D01*
X174477413Y-104831461D01*
X174446025Y-104826050D01*
X174439041Y-104825114D01*
X174432715Y-104812596D01*
X174418710Y-104779246D01*
X174399645Y-104731377D01*
X174392366Y-104712629D01*
X174363004Y-104640195D01*
X174328429Y-104560170D01*
X174297463Y-104492728D01*
X174274677Y-104441159D01*
X174259518Y-104398785D01*
X174254458Y-104372834D01*
X174255264Y-104369356D01*
X174265959Y-104352936D01*
X174290380Y-104316417D01*
X174325905Y-104263687D01*
X174369913Y-104198635D01*
X174419783Y-104125151D01*
X174429644Y-104110645D01*
X174487508Y-104024704D01*
X174530044Y-103959261D01*
X174558946Y-103911304D01*
X174575910Y-103877820D01*
X174582633Y-103855795D01*
X174580810Y-103842217D01*
X174580764Y-103842131D01*
X174566414Y-103824297D01*
X174534677Y-103789817D01*
X174488990Y-103742268D01*
X174432796Y-103685222D01*
X174369532Y-103622255D01*
X174362398Y-103615227D01*
X174282670Y-103538020D01*
X174221143Y-103481330D01*
X174176579Y-103444110D01*
X174147743Y-103425315D01*
X174135042Y-103422889D01*
X174116506Y-103433471D01*
X174078039Y-103457916D01*
X174023614Y-103493612D01*
X173957202Y-103537947D01*
X173882775Y-103588311D01*
X173865399Y-103600160D01*
X173618703Y-103768626D01*
X173507294Y-103718062D01*
X173439543Y-103688595D01*
X173366817Y-103658959D01*
X173304297Y-103635330D01*
X173301543Y-103634358D01*
X173252640Y-103616457D01*
X173214943Y-103601320D01*
X173196575Y-103592210D01*
X173196544Y-103592184D01*
X173190715Y-103575717D01*
X173180808Y-103535219D01*
X173167805Y-103475242D01*
X173152691Y-103400340D01*
X173136448Y-103315064D01*
X173135119Y-103307875D01*
X173118825Y-103220014D01*
X173103867Y-103140260D01*
X173091209Y-103073681D01*
X173081814Y-103025347D01*
X173076646Y-103000325D01*
X173076556Y-102999943D01*
X173073411Y-102989299D01*
X173067296Y-102981262D01*
X173054547Y-102975467D01*
X173031500Y-102971547D01*
X172994491Y-102969135D01*
X172939856Y-102967865D01*
X172863933Y-102967371D01*
X172763056Y-102967286D01*
X172750000Y-102967286D01*
X172646090Y-102967348D01*
D10*
%TO.C,J1*%
X183080000Y-100345000D02*
X183080000Y-97745000D01*
X183080000Y-100345000D02*
X134700000Y-100345000D01*
X134700000Y-100345000D02*
X134700000Y-95145000D01*
X180480000Y-95145000D02*
X134700000Y-95145000D01*
X180480000Y-97745000D02*
X180480000Y-95145000D01*
X183080000Y-97745000D02*
X180480000Y-97745000D01*
X183080000Y-95145000D02*
X181750000Y-95145000D01*
X183080000Y-96475000D02*
X183080000Y-95145000D01*
%TO.C,JP1*%
X156825000Y-101475000D02*
X156825000Y-103475000D01*
X160925000Y-101475000D02*
X156825000Y-101475000D01*
X160925000Y-103475000D02*
X160925000Y-101475000D01*
X156825000Y-103475000D02*
X160925000Y-103475000D01*
%TO.C,J1*%
D11*
X183972380Y-97411666D02*
X184686666Y-97411666D01*
X184829523Y-97364047D01*
X184924761Y-97268809D01*
X184972380Y-97125952D01*
X184972380Y-97030714D01*
X184972380Y-98411666D02*
X184972380Y-97840238D01*
X184972380Y-98125952D02*
X183972380Y-98125952D01*
X184115238Y-98030714D01*
X184210476Y-97935476D01*
X184258095Y-97840238D01*
%TO.C,JP1*%
X154408333Y-101902380D02*
X154408333Y-102616666D01*
X154455952Y-102759523D01*
X154551190Y-102854761D01*
X154694047Y-102902380D01*
X154789285Y-102902380D01*
X153932142Y-102902380D02*
X153932142Y-101902380D01*
X153551190Y-101902380D01*
X153455952Y-101950000D01*
X153408333Y-101997619D01*
X153360714Y-102092857D01*
X153360714Y-102235714D01*
X153408333Y-102330952D01*
X153455952Y-102378571D01*
X153551190Y-102426190D01*
X153932142Y-102426190D01*
X152408333Y-102902380D02*
X152979761Y-102902380D01*
X152694047Y-102902380D02*
X152694047Y-101902380D01*
X152789285Y-102045238D01*
X152884523Y-102140476D01*
X152979761Y-102188095D01*
X161808333Y-101927380D02*
X161189285Y-101927380D01*
X161522619Y-102308333D01*
X161379761Y-102308333D01*
X161284523Y-102355952D01*
X161236904Y-102403571D01*
X161189285Y-102498809D01*
X161189285Y-102736904D01*
X161236904Y-102832142D01*
X161284523Y-102879761D01*
X161379761Y-102927380D01*
X161665476Y-102927380D01*
X161760714Y-102879761D01*
X161808333Y-102832142D01*
X155989285Y-102927380D02*
X156560714Y-102927380D01*
X156275000Y-102927380D02*
X156275000Y-101927380D01*
X156370238Y-102070238D01*
X156465476Y-102165476D01*
X156560714Y-102213095D01*
%TD*%
%LPC*%
D13*
%TO.C,J1*%
X181750000Y-96475000D03*
D14*
X181750000Y-99015000D03*
X179210000Y-96475000D03*
X179210000Y-99015000D03*
X176670000Y-96475000D03*
X176670000Y-99015000D03*
X174130000Y-96475000D03*
X174130000Y-99015000D03*
X171590000Y-96475000D03*
X171590000Y-99015000D03*
X169050000Y-96475000D03*
X169050000Y-99015000D03*
X166510000Y-96475000D03*
X166510000Y-99015000D03*
X163970000Y-96475000D03*
X163970000Y-99015000D03*
X161430000Y-96475000D03*
X161430000Y-99015000D03*
X158890000Y-96475000D03*
X158890000Y-99015000D03*
X156350000Y-96475000D03*
X156350000Y-99015000D03*
X153810000Y-96475000D03*
X153810000Y-99015000D03*
X151270000Y-96475000D03*
X151270000Y-99015000D03*
X148730000Y-96475000D03*
X148730000Y-99015000D03*
X146190000Y-96475000D03*
X146190000Y-99015000D03*
X143650000Y-96475000D03*
X143650000Y-99015000D03*
X141110000Y-96475000D03*
X141110000Y-99015000D03*
X138570000Y-96475000D03*
X138570000Y-99015000D03*
X136030000Y-96475000D03*
X136030000Y-99015000D03*
%TD*%
D15*
%TO.C,R0*%
X169050000Y-92935000D03*
D16*
X176670000Y-92935000D03*
%TD*%
%TO.C,R1*%
X176670000Y-89735000D03*
D15*
X169050000Y-89735000D03*
%TD*%
%TO.C,R2*%
X169050000Y-105755000D03*
D16*
X176670000Y-105755000D03*
%TD*%
%TO.C,R3*%
X141110000Y-105755000D03*
D15*
X148730000Y-105755000D03*
%TD*%
%TO.C,R4*%
X148730000Y-102555000D03*
D16*
X141110000Y-102555000D03*
%TD*%
%TO.C,R5*%
X141110000Y-92935000D03*
D15*
X148730000Y-92935000D03*
%TD*%
%TO.C,R6*%
X148730000Y-89735000D03*
D16*
X141110000Y-89735000D03*
%TD*%
%TO.C,R7*%
X176670000Y-102555000D03*
D15*
X169050000Y-102555000D03*
%TD*%
D17*
%TO.C,U1*%
X153810000Y-90485000D03*
X156350000Y-90485000D03*
X158890000Y-90485000D03*
X161430000Y-90485000D03*
X163970000Y-90485000D03*
X163970000Y-105725000D03*
X161430000Y-105725000D03*
X158890000Y-105725000D03*
X156350000Y-105725000D03*
D18*
X153810000Y-105725000D03*
%TD*%
D19*
%TO.C,JP1*%
X160175000Y-102475000D03*
X158875000Y-102475000D03*
X157575000Y-102475000D03*
%TD*%
M02*
