%TF.GenerationSoftware,KiCad,Pcbnew,(5.1.9)-1*%
%TF.CreationDate,2023-04-12T14:25:31+01:00*%
%TF.ProjectId,#2_7segment,23325f37-7365-4676-9d65-6e742e6b6963,Rev 01*%
%TF.SameCoordinates,Original*%
%TF.FileFunction,Copper,L1,Top*%
%TF.FilePolarity,Positive*%
%FSLAX46Y46*%
G04 Gerber Fmt 4.6, Leading zero omitted, Abs format (unit mm)*
G04 Created by KiCad (PCBNEW (5.1.9)-1) date 2023-04-12 14:25:31*
%MOMM*%
%LPD*%
G01*
G04 APERTURE LIST*
%TA.AperFunction,ComponentPad*%
%ADD10R,1.700000X1.700000*%
%TD*%
%TA.AperFunction,ComponentPad*%
%ADD11O,1.700000X1.700000*%
%TD*%
%TA.AperFunction,ComponentPad*%
%ADD12O,1.600000X1.600000*%
%TD*%
%TA.AperFunction,ComponentPad*%
%ADD13C,1.600000*%
%TD*%
%TA.AperFunction,ComponentPad*%
%ADD14O,1.524000X2.524000*%
%TD*%
%TA.AperFunction,ComponentPad*%
%ADD15R,1.524000X2.524000*%
%TD*%
%TA.AperFunction,Conductor*%
%ADD16C,0.250000*%
%TD*%
%TA.AperFunction,Conductor*%
%ADD17C,0.254000*%
%TD*%
%TA.AperFunction,Conductor*%
%ADD18C,0.100000*%
%TD*%
G04 APERTURE END LIST*
D10*
%TO.P,J1,1*%
%TO.N,Net-(J1-Pad1)*%
X181750000Y-96475000D03*
D11*
%TO.P,J1,2*%
%TO.N,Net-(J1-Pad2)*%
X181750000Y-99015000D03*
%TO.P,J1,3*%
%TO.N,Net-(J1-Pad3)*%
X179210000Y-96475000D03*
%TO.P,J1,4*%
%TO.N,Net-(J1-Pad4)*%
X179210000Y-99015000D03*
%TO.P,J1,5*%
%TO.N,GND*%
X176670000Y-96475000D03*
%TO.P,J1,6*%
%TO.N,Net-(J1-Pad6)*%
X176670000Y-99015000D03*
%TO.P,J1,7*%
%TO.N,GND*%
X174130000Y-96475000D03*
%TO.P,J1,8*%
%TO.N,Net-(J1-Pad8)*%
X174130000Y-99015000D03*
%TO.P,J1,9*%
%TO.N,Net-(J1-Pad9)*%
X171590000Y-96475000D03*
%TO.P,J1,10*%
%TO.N,Net-(J1-Pad10)*%
X171590000Y-99015000D03*
%TO.P,J1,11*%
%TO.N,Net-(J1-Pad11)*%
X169050000Y-96475000D03*
%TO.P,J1,12*%
%TO.N,Net-(J1-Pad12)*%
X169050000Y-99015000D03*
%TO.P,J1,13*%
%TO.N,Net-(J1-Pad13)*%
X166510000Y-96475000D03*
%TO.P,J1,14*%
%TO.N,Net-(J1-Pad14)*%
X166510000Y-99015000D03*
%TO.P,J1,15*%
%TO.N,Net-(J1-Pad15)*%
X163970000Y-96475000D03*
%TO.P,J1,16*%
%TO.N,Net-(J1-Pad16)*%
X163970000Y-99015000D03*
%TO.P,J1,17*%
%TO.N,Net-(J1-Pad17)*%
X161430000Y-96475000D03*
%TO.P,J1,18*%
%TO.N,Net-(J1-Pad18)*%
X161430000Y-99015000D03*
%TO.P,J1,19*%
%TO.N,GPIO_PC0*%
X158890000Y-96475000D03*
%TO.P,J1,20*%
%TO.N,GPIO_PC1*%
X158890000Y-99015000D03*
%TO.P,J1,21*%
%TO.N,GPIO_PC2*%
X156350000Y-96475000D03*
%TO.P,J1,22*%
%TO.N,GPIO_PC3*%
X156350000Y-99015000D03*
%TO.P,J1,23*%
%TO.N,GPIO_PC4*%
X153810000Y-96475000D03*
%TO.P,J1,24*%
%TO.N,GPIO_PC5*%
X153810000Y-99015000D03*
%TO.P,J1,25*%
%TO.N,GPIO_PC6*%
X151270000Y-96475000D03*
%TO.P,J1,26*%
%TO.N,GPIO_PC7*%
X151270000Y-99015000D03*
%TO.P,J1,27*%
%TO.N,Net-(J1-Pad27)*%
X148730000Y-96475000D03*
%TO.P,J1,28*%
%TO.N,Net-(J1-Pad28)*%
X148730000Y-99015000D03*
%TO.P,J1,29*%
%TO.N,Net-(J1-Pad29)*%
X146190000Y-96475000D03*
%TO.P,J1,30*%
%TO.N,Net-(J1-Pad30)*%
X146190000Y-99015000D03*
%TO.P,J1,31*%
%TO.N,Net-(J1-Pad31)*%
X143650000Y-96475000D03*
%TO.P,J1,32*%
%TO.N,Net-(J1-Pad32)*%
X143650000Y-99015000D03*
%TO.P,J1,33*%
%TO.N,Net-(J1-Pad33)*%
X141110000Y-96475000D03*
%TO.P,J1,34*%
%TO.N,Net-(J1-Pad34)*%
X141110000Y-99015000D03*
%TO.P,J1,35*%
%TO.N,GND*%
X138570000Y-96475000D03*
%TO.P,J1,36*%
%TO.N,3.3V*%
X138570000Y-99015000D03*
%TO.P,J1,37*%
%TO.N,Net-(J1-Pad37)*%
X136030000Y-96475000D03*
%TO.P,J1,38*%
%TO.N,Net-(J1-Pad38)*%
X136030000Y-99015000D03*
%TD*%
D12*
%TO.P,R0,2*%
%TO.N,Net-(R0-Pad2)*%
X169050000Y-92935000D03*
D13*
%TO.P,R0,1*%
%TO.N,GPIO_PC0*%
X176670000Y-92935000D03*
%TD*%
%TO.P,R1,1*%
%TO.N,GPIO_PC1*%
X176670000Y-89735000D03*
D12*
%TO.P,R1,2*%
%TO.N,Net-(R1-Pad2)*%
X169050000Y-89735000D03*
%TD*%
%TO.P,R2,2*%
%TO.N,Net-(R2-Pad2)*%
X169050000Y-105755000D03*
D13*
%TO.P,R2,1*%
%TO.N,GPIO_PC2*%
X176670000Y-105755000D03*
%TD*%
%TO.P,R3,1*%
%TO.N,GPIO_PC3*%
X141110000Y-105755000D03*
D12*
%TO.P,R3,2*%
%TO.N,Net-(R3-Pad2)*%
X148730000Y-105755000D03*
%TD*%
%TO.P,R4,2*%
%TO.N,Net-(R4-Pad2)*%
X148730000Y-102555000D03*
D13*
%TO.P,R4,1*%
%TO.N,GPIO_PC4*%
X141110000Y-102555000D03*
%TD*%
%TO.P,R5,1*%
%TO.N,GPIO_PC5*%
X141110000Y-92935000D03*
D12*
%TO.P,R5,2*%
%TO.N,Net-(R5-Pad2)*%
X148730000Y-92935000D03*
%TD*%
%TO.P,R6,2*%
%TO.N,Net-(R6-Pad2)*%
X148730000Y-89735000D03*
D13*
%TO.P,R6,1*%
%TO.N,GPIO_PC6*%
X141110000Y-89735000D03*
%TD*%
%TO.P,R7,1*%
%TO.N,GPIO_PC7*%
X176670000Y-102555000D03*
D12*
%TO.P,R7,2*%
%TO.N,Net-(R7-Pad2)*%
X169050000Y-102555000D03*
%TD*%
D14*
%TO.P,U1,10*%
%TO.N,Net-(R6-Pad2)*%
X153810000Y-90485000D03*
%TO.P,U1,9*%
%TO.N,Net-(R5-Pad2)*%
X156350000Y-90485000D03*
%TO.P,U1,8*%
%TO.N,Net-(JP1-Pad2)*%
X158890000Y-90485000D03*
%TO.P,U1,7*%
%TO.N,Net-(R0-Pad2)*%
X161430000Y-90485000D03*
%TO.P,U1,6*%
%TO.N,Net-(R1-Pad2)*%
X163970000Y-90485000D03*
%TO.P,U1,5*%
%TO.N,Net-(R7-Pad2)*%
X163970000Y-105725000D03*
%TO.P,U1,4*%
%TO.N,Net-(R2-Pad2)*%
X161430000Y-105725000D03*
%TO.P,U1,3*%
%TO.N,Net-(JP1-Pad2)*%
X158890000Y-105725000D03*
%TO.P,U1,2*%
%TO.N,Net-(R3-Pad2)*%
X156350000Y-105725000D03*
D15*
%TO.P,U1,1*%
%TO.N,Net-(R4-Pad2)*%
X153810000Y-105725000D03*
%TD*%
D16*
%TO.N,GPIO_PC1*%
X176670000Y-89735000D02*
X172080000Y-94325000D01*
X160065001Y-97839999D02*
X158890000Y-99015000D01*
X160065001Y-96100997D02*
X160065001Y-97839999D01*
X161840998Y-94325000D02*
X160065001Y-96100997D01*
X172080000Y-94325000D02*
X161840998Y-94325000D01*
%TO.N,GPIO_PC2*%
X176670000Y-105755000D02*
X178250000Y-104175000D01*
X178250000Y-104175000D02*
X178250000Y-101875000D01*
X157525001Y-97650001D02*
X156350000Y-96475000D01*
X157525001Y-99579001D02*
X157525001Y-97650001D01*
X159375999Y-101429999D02*
X157525001Y-99579001D01*
X177804999Y-101429999D02*
X159375999Y-101429999D01*
X178250000Y-101875000D02*
X177804999Y-101429999D01*
%TO.N,GPIO_PC7*%
X175450000Y-103775000D02*
X176670000Y-102555000D01*
X156030000Y-103775000D02*
X175450000Y-103775000D01*
X151270000Y-99015000D02*
X156030000Y-103775000D01*
%TO.N,Net-(R3-Pad2)*%
X150512500Y-107537500D02*
X148730000Y-105755000D01*
X154862500Y-107537500D02*
X150512500Y-107537500D01*
X156350000Y-106050000D02*
X154862500Y-107537500D01*
X156350000Y-105725000D02*
X156350000Y-106050000D01*
%TO.N,Net-(R4-Pad2)*%
X151900000Y-105725000D02*
X148730000Y-102555000D01*
X153810000Y-105725000D02*
X151900000Y-105725000D01*
%TD*%
D17*
%TO.N,3.3V*%
X185605000Y-89584606D02*
X185605001Y-106940393D01*
X184230394Y-108315000D01*
X135269606Y-108315000D01*
X134715000Y-107760394D01*
X134715000Y-105613665D01*
X139675000Y-105613665D01*
X139675000Y-105896335D01*
X139730147Y-106173574D01*
X139838320Y-106434727D01*
X139995363Y-106669759D01*
X140195241Y-106869637D01*
X140430273Y-107026680D01*
X140691426Y-107134853D01*
X140968665Y-107190000D01*
X141251335Y-107190000D01*
X141528574Y-107134853D01*
X141789727Y-107026680D01*
X142024759Y-106869637D01*
X142224637Y-106669759D01*
X142381680Y-106434727D01*
X142489853Y-106173574D01*
X142545000Y-105896335D01*
X142545000Y-105613665D01*
X142489853Y-105336426D01*
X142381680Y-105075273D01*
X142224637Y-104840241D01*
X142024759Y-104640363D01*
X141789727Y-104483320D01*
X141528574Y-104375147D01*
X141251335Y-104320000D01*
X140968665Y-104320000D01*
X140691426Y-104375147D01*
X140430273Y-104483320D01*
X140195241Y-104640363D01*
X139995363Y-104840241D01*
X139838320Y-105075273D01*
X139730147Y-105336426D01*
X139675000Y-105613665D01*
X134715000Y-105613665D01*
X134715000Y-102413665D01*
X139675000Y-102413665D01*
X139675000Y-102696335D01*
X139730147Y-102973574D01*
X139838320Y-103234727D01*
X139995363Y-103469759D01*
X140195241Y-103669637D01*
X140430273Y-103826680D01*
X140691426Y-103934853D01*
X140968665Y-103990000D01*
X141251335Y-103990000D01*
X141528574Y-103934853D01*
X141789727Y-103826680D01*
X142024759Y-103669637D01*
X142224637Y-103469759D01*
X142381680Y-103234727D01*
X142489853Y-102973574D01*
X142545000Y-102696335D01*
X142545000Y-102413665D01*
X142489853Y-102136426D01*
X142381680Y-101875273D01*
X142224637Y-101640241D01*
X142024759Y-101440363D01*
X141789727Y-101283320D01*
X141528574Y-101175147D01*
X141251335Y-101120000D01*
X140968665Y-101120000D01*
X140691426Y-101175147D01*
X140430273Y-101283320D01*
X140195241Y-101440363D01*
X139995363Y-101640241D01*
X139838320Y-101875273D01*
X139730147Y-102136426D01*
X139675000Y-102413665D01*
X134715000Y-102413665D01*
X134715000Y-99719893D01*
X134876525Y-99961632D01*
X135083368Y-100168475D01*
X135326589Y-100330990D01*
X135596842Y-100442932D01*
X135883740Y-100500000D01*
X136176260Y-100500000D01*
X136463158Y-100442932D01*
X136733411Y-100330990D01*
X136976632Y-100168475D01*
X137183475Y-99961632D01*
X137305195Y-99779466D01*
X137374822Y-99896355D01*
X137569731Y-100112588D01*
X137803080Y-100286641D01*
X138065901Y-100411825D01*
X138213110Y-100456476D01*
X138443000Y-100335155D01*
X138443000Y-99142000D01*
X138423000Y-99142000D01*
X138423000Y-98888000D01*
X138443000Y-98888000D01*
X138443000Y-98868000D01*
X138697000Y-98868000D01*
X138697000Y-98888000D01*
X138717000Y-98888000D01*
X138717000Y-99142000D01*
X138697000Y-99142000D01*
X138697000Y-100335155D01*
X138926890Y-100456476D01*
X139074099Y-100411825D01*
X139336920Y-100286641D01*
X139570269Y-100112588D01*
X139765178Y-99896355D01*
X139834805Y-99779466D01*
X139956525Y-99961632D01*
X140163368Y-100168475D01*
X140406589Y-100330990D01*
X140676842Y-100442932D01*
X140963740Y-100500000D01*
X141256260Y-100500000D01*
X141543158Y-100442932D01*
X141813411Y-100330990D01*
X142056632Y-100168475D01*
X142263475Y-99961632D01*
X142380000Y-99787240D01*
X142496525Y-99961632D01*
X142703368Y-100168475D01*
X142946589Y-100330990D01*
X143216842Y-100442932D01*
X143503740Y-100500000D01*
X143796260Y-100500000D01*
X144083158Y-100442932D01*
X144353411Y-100330990D01*
X144596632Y-100168475D01*
X144803475Y-99961632D01*
X144920000Y-99787240D01*
X145036525Y-99961632D01*
X145243368Y-100168475D01*
X145486589Y-100330990D01*
X145756842Y-100442932D01*
X146043740Y-100500000D01*
X146336260Y-100500000D01*
X146623158Y-100442932D01*
X146893411Y-100330990D01*
X147136632Y-100168475D01*
X147343475Y-99961632D01*
X147460000Y-99787240D01*
X147576525Y-99961632D01*
X147783368Y-100168475D01*
X148026589Y-100330990D01*
X148296842Y-100442932D01*
X148583740Y-100500000D01*
X148876260Y-100500000D01*
X149163158Y-100442932D01*
X149433411Y-100330990D01*
X149676632Y-100168475D01*
X149883475Y-99961632D01*
X150000000Y-99787240D01*
X150116525Y-99961632D01*
X150323368Y-100168475D01*
X150566589Y-100330990D01*
X150836842Y-100442932D01*
X151123740Y-100500000D01*
X151416260Y-100500000D01*
X151636408Y-100456209D01*
X155387710Y-104207512D01*
X155357392Y-104232393D01*
X155205579Y-104417379D01*
X155197812Y-104338518D01*
X155161502Y-104218820D01*
X155102537Y-104108506D01*
X155023185Y-104011815D01*
X154926494Y-103932463D01*
X154816180Y-103873498D01*
X154696482Y-103837188D01*
X154572000Y-103824928D01*
X153048000Y-103824928D01*
X152923518Y-103837188D01*
X152803820Y-103873498D01*
X152693506Y-103932463D01*
X152596815Y-104011815D01*
X152517463Y-104108506D01*
X152458498Y-104218820D01*
X152422188Y-104338518D01*
X152409928Y-104463000D01*
X152409928Y-104965000D01*
X152214802Y-104965000D01*
X150128688Y-102878886D01*
X150165000Y-102696335D01*
X150165000Y-102413665D01*
X150109853Y-102136426D01*
X150001680Y-101875273D01*
X149844637Y-101640241D01*
X149644759Y-101440363D01*
X149409727Y-101283320D01*
X149148574Y-101175147D01*
X148871335Y-101120000D01*
X148588665Y-101120000D01*
X148311426Y-101175147D01*
X148050273Y-101283320D01*
X147815241Y-101440363D01*
X147615363Y-101640241D01*
X147458320Y-101875273D01*
X147350147Y-102136426D01*
X147295000Y-102413665D01*
X147295000Y-102696335D01*
X147350147Y-102973574D01*
X147458320Y-103234727D01*
X147615363Y-103469759D01*
X147815241Y-103669637D01*
X148050273Y-103826680D01*
X148311426Y-103934853D01*
X148588665Y-103990000D01*
X148871335Y-103990000D01*
X149053886Y-103953688D01*
X151336201Y-106236003D01*
X151359999Y-106265001D01*
X151388997Y-106288799D01*
X151475723Y-106359974D01*
X151531849Y-106389974D01*
X151607753Y-106430546D01*
X151751014Y-106474003D01*
X151862667Y-106485000D01*
X151862677Y-106485000D01*
X151900000Y-106488676D01*
X151937322Y-106485000D01*
X152409928Y-106485000D01*
X152409928Y-106777500D01*
X150827302Y-106777500D01*
X150128688Y-106078886D01*
X150165000Y-105896335D01*
X150165000Y-105613665D01*
X150109853Y-105336426D01*
X150001680Y-105075273D01*
X149844637Y-104840241D01*
X149644759Y-104640363D01*
X149409727Y-104483320D01*
X149148574Y-104375147D01*
X148871335Y-104320000D01*
X148588665Y-104320000D01*
X148311426Y-104375147D01*
X148050273Y-104483320D01*
X147815241Y-104640363D01*
X147615363Y-104840241D01*
X147458320Y-105075273D01*
X147350147Y-105336426D01*
X147295000Y-105613665D01*
X147295000Y-105896335D01*
X147350147Y-106173574D01*
X147458320Y-106434727D01*
X147615363Y-106669759D01*
X147815241Y-106869637D01*
X148050273Y-107026680D01*
X148311426Y-107134853D01*
X148588665Y-107190000D01*
X148871335Y-107190000D01*
X149053886Y-107153688D01*
X149948701Y-108048503D01*
X149972499Y-108077501D01*
X150088224Y-108172474D01*
X150220253Y-108243046D01*
X150363514Y-108286503D01*
X150475167Y-108297500D01*
X150475175Y-108297500D01*
X150512500Y-108301176D01*
X150549825Y-108297500D01*
X154825178Y-108297500D01*
X154862500Y-108301176D01*
X154899822Y-108297500D01*
X154899833Y-108297500D01*
X155011486Y-108286503D01*
X155154747Y-108243046D01*
X155286776Y-108172474D01*
X155402501Y-108077501D01*
X155426304Y-108048497D01*
X155920292Y-107554510D01*
X156076141Y-107601786D01*
X156350000Y-107628759D01*
X156623860Y-107601786D01*
X156887195Y-107521904D01*
X157129887Y-107392183D01*
X157342608Y-107217608D01*
X157517183Y-107004887D01*
X157620000Y-106812529D01*
X157722817Y-107004887D01*
X157897393Y-107217608D01*
X158110114Y-107392183D01*
X158352806Y-107521904D01*
X158616141Y-107601786D01*
X158890000Y-107628759D01*
X159163860Y-107601786D01*
X159427195Y-107521904D01*
X159669887Y-107392183D01*
X159882608Y-107217608D01*
X160057183Y-107004887D01*
X160160000Y-106812529D01*
X160262817Y-107004887D01*
X160437393Y-107217608D01*
X160650114Y-107392183D01*
X160892806Y-107521904D01*
X161156141Y-107601786D01*
X161430000Y-107628759D01*
X161703860Y-107601786D01*
X161967195Y-107521904D01*
X162209887Y-107392183D01*
X162422608Y-107217608D01*
X162597183Y-107004887D01*
X162700000Y-106812529D01*
X162802817Y-107004887D01*
X162977393Y-107217608D01*
X163190114Y-107392183D01*
X163432806Y-107521904D01*
X163696141Y-107601786D01*
X163970000Y-107628759D01*
X164243860Y-107601786D01*
X164507195Y-107521904D01*
X164749887Y-107392183D01*
X164962608Y-107217608D01*
X165137183Y-107004887D01*
X165266904Y-106762195D01*
X165346786Y-106498860D01*
X165367000Y-106293625D01*
X165367000Y-105156375D01*
X165346786Y-104951140D01*
X165266904Y-104687805D01*
X165185228Y-104535000D01*
X168292928Y-104535000D01*
X168135241Y-104640363D01*
X167935363Y-104840241D01*
X167778320Y-105075273D01*
X167670147Y-105336426D01*
X167615000Y-105613665D01*
X167615000Y-105896335D01*
X167670147Y-106173574D01*
X167778320Y-106434727D01*
X167935363Y-106669759D01*
X168135241Y-106869637D01*
X168370273Y-107026680D01*
X168631426Y-107134853D01*
X168908665Y-107190000D01*
X169191335Y-107190000D01*
X169468574Y-107134853D01*
X169729727Y-107026680D01*
X169964759Y-106869637D01*
X170164637Y-106669759D01*
X170321680Y-106434727D01*
X170429853Y-106173574D01*
X170485000Y-105896335D01*
X170485000Y-105613665D01*
X170429853Y-105336426D01*
X170321680Y-105075273D01*
X170164637Y-104840241D01*
X169964759Y-104640363D01*
X169807072Y-104535000D01*
X175412678Y-104535000D01*
X175450000Y-104538676D01*
X175487322Y-104535000D01*
X175487333Y-104535000D01*
X175598986Y-104524003D01*
X175742247Y-104480546D01*
X175874276Y-104409974D01*
X175990001Y-104315001D01*
X176013804Y-104285997D01*
X176346114Y-103953688D01*
X176528665Y-103990000D01*
X176811335Y-103990000D01*
X177088574Y-103934853D01*
X177349727Y-103826680D01*
X177490000Y-103732953D01*
X177490000Y-103860197D01*
X176993886Y-104356312D01*
X176811335Y-104320000D01*
X176528665Y-104320000D01*
X176251426Y-104375147D01*
X175990273Y-104483320D01*
X175755241Y-104640363D01*
X175555363Y-104840241D01*
X175398320Y-105075273D01*
X175290147Y-105336426D01*
X175235000Y-105613665D01*
X175235000Y-105896335D01*
X175290147Y-106173574D01*
X175398320Y-106434727D01*
X175555363Y-106669759D01*
X175755241Y-106869637D01*
X175990273Y-107026680D01*
X176251426Y-107134853D01*
X176528665Y-107190000D01*
X176811335Y-107190000D01*
X177088574Y-107134853D01*
X177349727Y-107026680D01*
X177584759Y-106869637D01*
X177784637Y-106669759D01*
X177941680Y-106434727D01*
X178049853Y-106173574D01*
X178105000Y-105896335D01*
X178105000Y-105613665D01*
X178068688Y-105431114D01*
X178761009Y-104738794D01*
X178790001Y-104715001D01*
X178813795Y-104686008D01*
X178813799Y-104686004D01*
X178884973Y-104599277D01*
X178884974Y-104599276D01*
X178955546Y-104467247D01*
X178999003Y-104323986D01*
X179010000Y-104212333D01*
X179010000Y-104212324D01*
X179013676Y-104175001D01*
X179010000Y-104137678D01*
X179010000Y-101912322D01*
X179013676Y-101874999D01*
X179010000Y-101837676D01*
X179010000Y-101837667D01*
X178999003Y-101726014D01*
X178955546Y-101582753D01*
X178884974Y-101450724D01*
X178790001Y-101334999D01*
X178761002Y-101311200D01*
X178368802Y-100919001D01*
X178345000Y-100889998D01*
X178229275Y-100795025D01*
X178097246Y-100724453D01*
X177953985Y-100680996D01*
X177842332Y-100669999D01*
X177842321Y-100669999D01*
X177804999Y-100666323D01*
X177767677Y-100669999D01*
X159690802Y-100669999D01*
X159422561Y-100401758D01*
X159593411Y-100330990D01*
X159836632Y-100168475D01*
X160043475Y-99961632D01*
X160160000Y-99787240D01*
X160276525Y-99961632D01*
X160483368Y-100168475D01*
X160726589Y-100330990D01*
X160996842Y-100442932D01*
X161283740Y-100500000D01*
X161576260Y-100500000D01*
X161863158Y-100442932D01*
X162133411Y-100330990D01*
X162376632Y-100168475D01*
X162583475Y-99961632D01*
X162700000Y-99787240D01*
X162816525Y-99961632D01*
X163023368Y-100168475D01*
X163266589Y-100330990D01*
X163536842Y-100442932D01*
X163823740Y-100500000D01*
X164116260Y-100500000D01*
X164403158Y-100442932D01*
X164673411Y-100330990D01*
X164916632Y-100168475D01*
X165123475Y-99961632D01*
X165240000Y-99787240D01*
X165356525Y-99961632D01*
X165563368Y-100168475D01*
X165806589Y-100330990D01*
X166076842Y-100442932D01*
X166363740Y-100500000D01*
X166656260Y-100500000D01*
X166943158Y-100442932D01*
X167213411Y-100330990D01*
X167456632Y-100168475D01*
X167663475Y-99961632D01*
X167780000Y-99787240D01*
X167896525Y-99961632D01*
X168103368Y-100168475D01*
X168346589Y-100330990D01*
X168616842Y-100442932D01*
X168903740Y-100500000D01*
X169196260Y-100500000D01*
X169483158Y-100442932D01*
X169753411Y-100330990D01*
X169996632Y-100168475D01*
X170203475Y-99961632D01*
X170320000Y-99787240D01*
X170436525Y-99961632D01*
X170643368Y-100168475D01*
X170886589Y-100330990D01*
X171156842Y-100442932D01*
X171443740Y-100500000D01*
X171736260Y-100500000D01*
X172023158Y-100442932D01*
X172293411Y-100330990D01*
X172536632Y-100168475D01*
X172743475Y-99961632D01*
X172860000Y-99787240D01*
X172976525Y-99961632D01*
X173183368Y-100168475D01*
X173426589Y-100330990D01*
X173696842Y-100442932D01*
X173983740Y-100500000D01*
X174276260Y-100500000D01*
X174563158Y-100442932D01*
X174833411Y-100330990D01*
X175076632Y-100168475D01*
X175283475Y-99961632D01*
X175400000Y-99787240D01*
X175516525Y-99961632D01*
X175723368Y-100168475D01*
X175966589Y-100330990D01*
X176236842Y-100442932D01*
X176523740Y-100500000D01*
X176816260Y-100500000D01*
X177103158Y-100442932D01*
X177373411Y-100330990D01*
X177616632Y-100168475D01*
X177823475Y-99961632D01*
X177940000Y-99787240D01*
X178056525Y-99961632D01*
X178263368Y-100168475D01*
X178506589Y-100330990D01*
X178776842Y-100442932D01*
X179063740Y-100500000D01*
X179356260Y-100500000D01*
X179643158Y-100442932D01*
X179913411Y-100330990D01*
X180156632Y-100168475D01*
X180363475Y-99961632D01*
X180480000Y-99787240D01*
X180596525Y-99961632D01*
X180803368Y-100168475D01*
X181046589Y-100330990D01*
X181316842Y-100442932D01*
X181603740Y-100500000D01*
X181896260Y-100500000D01*
X182183158Y-100442932D01*
X182453411Y-100330990D01*
X182696632Y-100168475D01*
X182903475Y-99961632D01*
X183065990Y-99718411D01*
X183177932Y-99448158D01*
X183235000Y-99161260D01*
X183235000Y-98868740D01*
X183177932Y-98581842D01*
X183065990Y-98311589D01*
X182903475Y-98068368D01*
X182771620Y-97936513D01*
X182844180Y-97914502D01*
X182954494Y-97855537D01*
X183051185Y-97776185D01*
X183130537Y-97679494D01*
X183189502Y-97569180D01*
X183225812Y-97449482D01*
X183238072Y-97325000D01*
X183238072Y-95625000D01*
X183225812Y-95500518D01*
X183189502Y-95380820D01*
X183130537Y-95270506D01*
X183051185Y-95173815D01*
X182954494Y-95094463D01*
X182844180Y-95035498D01*
X182724482Y-94999188D01*
X182600000Y-94986928D01*
X180900000Y-94986928D01*
X180775518Y-94999188D01*
X180655820Y-95035498D01*
X180545506Y-95094463D01*
X180448815Y-95173815D01*
X180369463Y-95270506D01*
X180310498Y-95380820D01*
X180288487Y-95453380D01*
X180156632Y-95321525D01*
X179913411Y-95159010D01*
X179643158Y-95047068D01*
X179356260Y-94990000D01*
X179063740Y-94990000D01*
X178776842Y-95047068D01*
X178506589Y-95159010D01*
X178263368Y-95321525D01*
X178056525Y-95528368D01*
X177940000Y-95702760D01*
X177823475Y-95528368D01*
X177616632Y-95321525D01*
X177373411Y-95159010D01*
X177103158Y-95047068D01*
X176816260Y-94990000D01*
X176523740Y-94990000D01*
X176236842Y-95047068D01*
X175966589Y-95159010D01*
X175723368Y-95321525D01*
X175516525Y-95528368D01*
X175400000Y-95702760D01*
X175283475Y-95528368D01*
X175076632Y-95321525D01*
X174833411Y-95159010D01*
X174563158Y-95047068D01*
X174276260Y-94990000D01*
X173983740Y-94990000D01*
X173696842Y-95047068D01*
X173426589Y-95159010D01*
X173183368Y-95321525D01*
X172976525Y-95528368D01*
X172860000Y-95702760D01*
X172743475Y-95528368D01*
X172536632Y-95321525D01*
X172293411Y-95159010D01*
X172115232Y-95085206D01*
X172117322Y-95085000D01*
X172117333Y-95085000D01*
X172228986Y-95074003D01*
X172372247Y-95030546D01*
X172504276Y-94959974D01*
X172620001Y-94865001D01*
X172643804Y-94835997D01*
X174686136Y-92793665D01*
X175235000Y-92793665D01*
X175235000Y-93076335D01*
X175290147Y-93353574D01*
X175398320Y-93614727D01*
X175555363Y-93849759D01*
X175755241Y-94049637D01*
X175990273Y-94206680D01*
X176251426Y-94314853D01*
X176528665Y-94370000D01*
X176811335Y-94370000D01*
X177088574Y-94314853D01*
X177349727Y-94206680D01*
X177584759Y-94049637D01*
X177784637Y-93849759D01*
X177941680Y-93614727D01*
X178049853Y-93353574D01*
X178105000Y-93076335D01*
X178105000Y-92793665D01*
X178049853Y-92516426D01*
X177941680Y-92255273D01*
X177784637Y-92020241D01*
X177584759Y-91820363D01*
X177349727Y-91663320D01*
X177088574Y-91555147D01*
X176811335Y-91500000D01*
X176528665Y-91500000D01*
X176251426Y-91555147D01*
X175990273Y-91663320D01*
X175755241Y-91820363D01*
X175555363Y-92020241D01*
X175398320Y-92255273D01*
X175290147Y-92516426D01*
X175235000Y-92793665D01*
X174686136Y-92793665D01*
X176346114Y-91133688D01*
X176528665Y-91170000D01*
X176811335Y-91170000D01*
X177088574Y-91114853D01*
X177349727Y-91006680D01*
X177584759Y-90849637D01*
X177784637Y-90649759D01*
X177941680Y-90414727D01*
X178049853Y-90153574D01*
X178105000Y-89876335D01*
X178105000Y-89593665D01*
X178049853Y-89316426D01*
X177941680Y-89055273D01*
X177784637Y-88820241D01*
X177584759Y-88620363D01*
X177349727Y-88463320D01*
X177088574Y-88355147D01*
X176811335Y-88300000D01*
X176528665Y-88300000D01*
X176251426Y-88355147D01*
X175990273Y-88463320D01*
X175755241Y-88620363D01*
X175555363Y-88820241D01*
X175398320Y-89055273D01*
X175290147Y-89316426D01*
X175235000Y-89593665D01*
X175235000Y-89876335D01*
X175271312Y-90058886D01*
X171765199Y-93565000D01*
X170342278Y-93565000D01*
X170429853Y-93353574D01*
X170485000Y-93076335D01*
X170485000Y-92793665D01*
X170429853Y-92516426D01*
X170321680Y-92255273D01*
X170164637Y-92020241D01*
X169964759Y-91820363D01*
X169729727Y-91663320D01*
X169468574Y-91555147D01*
X169191335Y-91500000D01*
X168908665Y-91500000D01*
X168631426Y-91555147D01*
X168370273Y-91663320D01*
X168135241Y-91820363D01*
X167935363Y-92020241D01*
X167778320Y-92255273D01*
X167670147Y-92516426D01*
X167615000Y-92793665D01*
X167615000Y-93076335D01*
X167670147Y-93353574D01*
X167757722Y-93565000D01*
X161878320Y-93565000D01*
X161840997Y-93561324D01*
X161803674Y-93565000D01*
X161803665Y-93565000D01*
X161692012Y-93575997D01*
X161564334Y-93614727D01*
X161548751Y-93619454D01*
X161416721Y-93690026D01*
X161333081Y-93758668D01*
X161300997Y-93784999D01*
X161277199Y-93813997D01*
X159796492Y-95294705D01*
X159593411Y-95159010D01*
X159323158Y-95047068D01*
X159036260Y-94990000D01*
X158743740Y-94990000D01*
X158456842Y-95047068D01*
X158186589Y-95159010D01*
X157943368Y-95321525D01*
X157736525Y-95528368D01*
X157620000Y-95702760D01*
X157503475Y-95528368D01*
X157296632Y-95321525D01*
X157053411Y-95159010D01*
X156783158Y-95047068D01*
X156496260Y-94990000D01*
X156203740Y-94990000D01*
X155916842Y-95047068D01*
X155646589Y-95159010D01*
X155403368Y-95321525D01*
X155196525Y-95528368D01*
X155080000Y-95702760D01*
X154963475Y-95528368D01*
X154756632Y-95321525D01*
X154513411Y-95159010D01*
X154243158Y-95047068D01*
X153956260Y-94990000D01*
X153663740Y-94990000D01*
X153376842Y-95047068D01*
X153106589Y-95159010D01*
X152863368Y-95321525D01*
X152656525Y-95528368D01*
X152540000Y-95702760D01*
X152423475Y-95528368D01*
X152216632Y-95321525D01*
X151973411Y-95159010D01*
X151703158Y-95047068D01*
X151416260Y-94990000D01*
X151123740Y-94990000D01*
X150836842Y-95047068D01*
X150566589Y-95159010D01*
X150323368Y-95321525D01*
X150116525Y-95528368D01*
X150000000Y-95702760D01*
X149883475Y-95528368D01*
X149676632Y-95321525D01*
X149433411Y-95159010D01*
X149163158Y-95047068D01*
X148876260Y-94990000D01*
X148583740Y-94990000D01*
X148296842Y-95047068D01*
X148026589Y-95159010D01*
X147783368Y-95321525D01*
X147576525Y-95528368D01*
X147460000Y-95702760D01*
X147343475Y-95528368D01*
X147136632Y-95321525D01*
X146893411Y-95159010D01*
X146623158Y-95047068D01*
X146336260Y-94990000D01*
X146043740Y-94990000D01*
X145756842Y-95047068D01*
X145486589Y-95159010D01*
X145243368Y-95321525D01*
X145036525Y-95528368D01*
X144920000Y-95702760D01*
X144803475Y-95528368D01*
X144596632Y-95321525D01*
X144353411Y-95159010D01*
X144083158Y-95047068D01*
X143796260Y-94990000D01*
X143503740Y-94990000D01*
X143216842Y-95047068D01*
X142946589Y-95159010D01*
X142703368Y-95321525D01*
X142496525Y-95528368D01*
X142380000Y-95702760D01*
X142263475Y-95528368D01*
X142056632Y-95321525D01*
X141813411Y-95159010D01*
X141543158Y-95047068D01*
X141256260Y-94990000D01*
X140963740Y-94990000D01*
X140676842Y-95047068D01*
X140406589Y-95159010D01*
X140163368Y-95321525D01*
X139956525Y-95528368D01*
X139840000Y-95702760D01*
X139723475Y-95528368D01*
X139516632Y-95321525D01*
X139273411Y-95159010D01*
X139003158Y-95047068D01*
X138716260Y-94990000D01*
X138423740Y-94990000D01*
X138136842Y-95047068D01*
X137866589Y-95159010D01*
X137623368Y-95321525D01*
X137416525Y-95528368D01*
X137300000Y-95702760D01*
X137183475Y-95528368D01*
X136976632Y-95321525D01*
X136733411Y-95159010D01*
X136463158Y-95047068D01*
X136176260Y-94990000D01*
X135883740Y-94990000D01*
X135596842Y-95047068D01*
X135326589Y-95159010D01*
X135083368Y-95321525D01*
X134876525Y-95528368D01*
X134715000Y-95770107D01*
X134715000Y-92793665D01*
X139675000Y-92793665D01*
X139675000Y-93076335D01*
X139730147Y-93353574D01*
X139838320Y-93614727D01*
X139995363Y-93849759D01*
X140195241Y-94049637D01*
X140430273Y-94206680D01*
X140691426Y-94314853D01*
X140968665Y-94370000D01*
X141251335Y-94370000D01*
X141528574Y-94314853D01*
X141789727Y-94206680D01*
X142024759Y-94049637D01*
X142224637Y-93849759D01*
X142381680Y-93614727D01*
X142489853Y-93353574D01*
X142545000Y-93076335D01*
X142545000Y-92793665D01*
X147295000Y-92793665D01*
X147295000Y-93076335D01*
X147350147Y-93353574D01*
X147458320Y-93614727D01*
X147615363Y-93849759D01*
X147815241Y-94049637D01*
X148050273Y-94206680D01*
X148311426Y-94314853D01*
X148588665Y-94370000D01*
X148871335Y-94370000D01*
X149148574Y-94314853D01*
X149409727Y-94206680D01*
X149644759Y-94049637D01*
X149844637Y-93849759D01*
X150001680Y-93614727D01*
X150109853Y-93353574D01*
X150165000Y-93076335D01*
X150165000Y-92793665D01*
X150109853Y-92516426D01*
X150001680Y-92255273D01*
X149844637Y-92020241D01*
X149644759Y-91820363D01*
X149409727Y-91663320D01*
X149148574Y-91555147D01*
X148871335Y-91500000D01*
X148588665Y-91500000D01*
X148311426Y-91555147D01*
X148050273Y-91663320D01*
X147815241Y-91820363D01*
X147615363Y-92020241D01*
X147458320Y-92255273D01*
X147350147Y-92516426D01*
X147295000Y-92793665D01*
X142545000Y-92793665D01*
X142489853Y-92516426D01*
X142381680Y-92255273D01*
X142224637Y-92020241D01*
X142024759Y-91820363D01*
X141789727Y-91663320D01*
X141528574Y-91555147D01*
X141251335Y-91500000D01*
X140968665Y-91500000D01*
X140691426Y-91555147D01*
X140430273Y-91663320D01*
X140195241Y-91820363D01*
X139995363Y-92020241D01*
X139838320Y-92255273D01*
X139730147Y-92516426D01*
X139675000Y-92793665D01*
X134715000Y-92793665D01*
X134715000Y-89593665D01*
X139675000Y-89593665D01*
X139675000Y-89876335D01*
X139730147Y-90153574D01*
X139838320Y-90414727D01*
X139995363Y-90649759D01*
X140195241Y-90849637D01*
X140430273Y-91006680D01*
X140691426Y-91114853D01*
X140968665Y-91170000D01*
X141251335Y-91170000D01*
X141528574Y-91114853D01*
X141789727Y-91006680D01*
X142024759Y-90849637D01*
X142224637Y-90649759D01*
X142381680Y-90414727D01*
X142489853Y-90153574D01*
X142545000Y-89876335D01*
X142545000Y-89593665D01*
X147295000Y-89593665D01*
X147295000Y-89876335D01*
X147350147Y-90153574D01*
X147458320Y-90414727D01*
X147615363Y-90649759D01*
X147815241Y-90849637D01*
X148050273Y-91006680D01*
X148311426Y-91114853D01*
X148588665Y-91170000D01*
X148871335Y-91170000D01*
X149148574Y-91114853D01*
X149409727Y-91006680D01*
X149644759Y-90849637D01*
X149844637Y-90649759D01*
X150001680Y-90414727D01*
X150109853Y-90153574D01*
X150157035Y-89916376D01*
X152413000Y-89916376D01*
X152413000Y-91053625D01*
X152433214Y-91258860D01*
X152513096Y-91522195D01*
X152642817Y-91764887D01*
X152817393Y-91977608D01*
X153030114Y-92152183D01*
X153272806Y-92281904D01*
X153536141Y-92361786D01*
X153810000Y-92388759D01*
X154083860Y-92361786D01*
X154347195Y-92281904D01*
X154589887Y-92152183D01*
X154802608Y-91977608D01*
X154977183Y-91764887D01*
X155080000Y-91572529D01*
X155182817Y-91764887D01*
X155357393Y-91977608D01*
X155570114Y-92152183D01*
X155812806Y-92281904D01*
X156076141Y-92361786D01*
X156350000Y-92388759D01*
X156623860Y-92361786D01*
X156887195Y-92281904D01*
X157129887Y-92152183D01*
X157342608Y-91977608D01*
X157517183Y-91764887D01*
X157620000Y-91572529D01*
X157722817Y-91764887D01*
X157897393Y-91977608D01*
X158110114Y-92152183D01*
X158352806Y-92281904D01*
X158616141Y-92361786D01*
X158890000Y-92388759D01*
X159163860Y-92361786D01*
X159427195Y-92281904D01*
X159669887Y-92152183D01*
X159882608Y-91977608D01*
X160057183Y-91764887D01*
X160160000Y-91572529D01*
X160262817Y-91764887D01*
X160437393Y-91977608D01*
X160650114Y-92152183D01*
X160892806Y-92281904D01*
X161156141Y-92361786D01*
X161430000Y-92388759D01*
X161703860Y-92361786D01*
X161967195Y-92281904D01*
X162209887Y-92152183D01*
X162422608Y-91977608D01*
X162597183Y-91764887D01*
X162700000Y-91572529D01*
X162802817Y-91764887D01*
X162977393Y-91977608D01*
X163190114Y-92152183D01*
X163432806Y-92281904D01*
X163696141Y-92361786D01*
X163970000Y-92388759D01*
X164243860Y-92361786D01*
X164507195Y-92281904D01*
X164749887Y-92152183D01*
X164962608Y-91977608D01*
X165137183Y-91764887D01*
X165266904Y-91522195D01*
X165346786Y-91258860D01*
X165367000Y-91053625D01*
X165367000Y-89916375D01*
X165346786Y-89711140D01*
X165311151Y-89593665D01*
X167615000Y-89593665D01*
X167615000Y-89876335D01*
X167670147Y-90153574D01*
X167778320Y-90414727D01*
X167935363Y-90649759D01*
X168135241Y-90849637D01*
X168370273Y-91006680D01*
X168631426Y-91114853D01*
X168908665Y-91170000D01*
X169191335Y-91170000D01*
X169468574Y-91114853D01*
X169729727Y-91006680D01*
X169964759Y-90849637D01*
X170164637Y-90649759D01*
X170321680Y-90414727D01*
X170429853Y-90153574D01*
X170485000Y-89876335D01*
X170485000Y-89593665D01*
X170429853Y-89316426D01*
X170321680Y-89055273D01*
X170164637Y-88820241D01*
X169964759Y-88620363D01*
X169729727Y-88463320D01*
X169468574Y-88355147D01*
X169191335Y-88300000D01*
X168908665Y-88300000D01*
X168631426Y-88355147D01*
X168370273Y-88463320D01*
X168135241Y-88620363D01*
X167935363Y-88820241D01*
X167778320Y-89055273D01*
X167670147Y-89316426D01*
X167615000Y-89593665D01*
X165311151Y-89593665D01*
X165266904Y-89447805D01*
X165137183Y-89205113D01*
X164962607Y-88992392D01*
X164749886Y-88817817D01*
X164507194Y-88688096D01*
X164243859Y-88608214D01*
X163970000Y-88581241D01*
X163696140Y-88608214D01*
X163432805Y-88688096D01*
X163190113Y-88817817D01*
X162977392Y-88992393D01*
X162802817Y-89205114D01*
X162700000Y-89397471D01*
X162597183Y-89205113D01*
X162422607Y-88992392D01*
X162209886Y-88817817D01*
X161967194Y-88688096D01*
X161703859Y-88608214D01*
X161430000Y-88581241D01*
X161156140Y-88608214D01*
X160892805Y-88688096D01*
X160650113Y-88817817D01*
X160437392Y-88992393D01*
X160262817Y-89205114D01*
X160160000Y-89397471D01*
X160057183Y-89205113D01*
X159882607Y-88992392D01*
X159669886Y-88817817D01*
X159427194Y-88688096D01*
X159163859Y-88608214D01*
X158890000Y-88581241D01*
X158616140Y-88608214D01*
X158352805Y-88688096D01*
X158110113Y-88817817D01*
X157897392Y-88992393D01*
X157722817Y-89205114D01*
X157620000Y-89397471D01*
X157517183Y-89205113D01*
X157342607Y-88992392D01*
X157129886Y-88817817D01*
X156887194Y-88688096D01*
X156623859Y-88608214D01*
X156350000Y-88581241D01*
X156076140Y-88608214D01*
X155812805Y-88688096D01*
X155570113Y-88817817D01*
X155357392Y-88992393D01*
X155182817Y-89205114D01*
X155080000Y-89397471D01*
X154977183Y-89205113D01*
X154802607Y-88992392D01*
X154589886Y-88817817D01*
X154347194Y-88688096D01*
X154083859Y-88608214D01*
X153810000Y-88581241D01*
X153536140Y-88608214D01*
X153272805Y-88688096D01*
X153030113Y-88817817D01*
X152817392Y-88992393D01*
X152642817Y-89205114D01*
X152513096Y-89447806D01*
X152433214Y-89711141D01*
X152413000Y-89916376D01*
X150157035Y-89916376D01*
X150165000Y-89876335D01*
X150165000Y-89593665D01*
X150109853Y-89316426D01*
X150001680Y-89055273D01*
X149844637Y-88820241D01*
X149644759Y-88620363D01*
X149409727Y-88463320D01*
X149148574Y-88355147D01*
X148871335Y-88300000D01*
X148588665Y-88300000D01*
X148311426Y-88355147D01*
X148050273Y-88463320D01*
X147815241Y-88620363D01*
X147615363Y-88820241D01*
X147458320Y-89055273D01*
X147350147Y-89316426D01*
X147295000Y-89593665D01*
X142545000Y-89593665D01*
X142489853Y-89316426D01*
X142381680Y-89055273D01*
X142224637Y-88820241D01*
X142024759Y-88620363D01*
X141789727Y-88463320D01*
X141528574Y-88355147D01*
X141251335Y-88300000D01*
X140968665Y-88300000D01*
X140691426Y-88355147D01*
X140430273Y-88463320D01*
X140195241Y-88620363D01*
X139995363Y-88820241D01*
X139838320Y-89055273D01*
X139730147Y-89316426D01*
X139675000Y-89593665D01*
X134715000Y-89593665D01*
X134715000Y-88764606D01*
X135294606Y-88185000D01*
X184205394Y-88185000D01*
X185605000Y-89584606D01*
%TA.AperFunction,Conductor*%
D18*
G36*
X185605000Y-89584606D02*
G01*
X185605001Y-106940393D01*
X184230394Y-108315000D01*
X135269606Y-108315000D01*
X134715000Y-107760394D01*
X134715000Y-105613665D01*
X139675000Y-105613665D01*
X139675000Y-105896335D01*
X139730147Y-106173574D01*
X139838320Y-106434727D01*
X139995363Y-106669759D01*
X140195241Y-106869637D01*
X140430273Y-107026680D01*
X140691426Y-107134853D01*
X140968665Y-107190000D01*
X141251335Y-107190000D01*
X141528574Y-107134853D01*
X141789727Y-107026680D01*
X142024759Y-106869637D01*
X142224637Y-106669759D01*
X142381680Y-106434727D01*
X142489853Y-106173574D01*
X142545000Y-105896335D01*
X142545000Y-105613665D01*
X142489853Y-105336426D01*
X142381680Y-105075273D01*
X142224637Y-104840241D01*
X142024759Y-104640363D01*
X141789727Y-104483320D01*
X141528574Y-104375147D01*
X141251335Y-104320000D01*
X140968665Y-104320000D01*
X140691426Y-104375147D01*
X140430273Y-104483320D01*
X140195241Y-104640363D01*
X139995363Y-104840241D01*
X139838320Y-105075273D01*
X139730147Y-105336426D01*
X139675000Y-105613665D01*
X134715000Y-105613665D01*
X134715000Y-102413665D01*
X139675000Y-102413665D01*
X139675000Y-102696335D01*
X139730147Y-102973574D01*
X139838320Y-103234727D01*
X139995363Y-103469759D01*
X140195241Y-103669637D01*
X140430273Y-103826680D01*
X140691426Y-103934853D01*
X140968665Y-103990000D01*
X141251335Y-103990000D01*
X141528574Y-103934853D01*
X141789727Y-103826680D01*
X142024759Y-103669637D01*
X142224637Y-103469759D01*
X142381680Y-103234727D01*
X142489853Y-102973574D01*
X142545000Y-102696335D01*
X142545000Y-102413665D01*
X142489853Y-102136426D01*
X142381680Y-101875273D01*
X142224637Y-101640241D01*
X142024759Y-101440363D01*
X141789727Y-101283320D01*
X141528574Y-101175147D01*
X141251335Y-101120000D01*
X140968665Y-101120000D01*
X140691426Y-101175147D01*
X140430273Y-101283320D01*
X140195241Y-101440363D01*
X139995363Y-101640241D01*
X139838320Y-101875273D01*
X139730147Y-102136426D01*
X139675000Y-102413665D01*
X134715000Y-102413665D01*
X134715000Y-99719893D01*
X134876525Y-99961632D01*
X135083368Y-100168475D01*
X135326589Y-100330990D01*
X135596842Y-100442932D01*
X135883740Y-100500000D01*
X136176260Y-100500000D01*
X136463158Y-100442932D01*
X136733411Y-100330990D01*
X136976632Y-100168475D01*
X137183475Y-99961632D01*
X137305195Y-99779466D01*
X137374822Y-99896355D01*
X137569731Y-100112588D01*
X137803080Y-100286641D01*
X138065901Y-100411825D01*
X138213110Y-100456476D01*
X138443000Y-100335155D01*
X138443000Y-99142000D01*
X138423000Y-99142000D01*
X138423000Y-98888000D01*
X138443000Y-98888000D01*
X138443000Y-98868000D01*
X138697000Y-98868000D01*
X138697000Y-98888000D01*
X138717000Y-98888000D01*
X138717000Y-99142000D01*
X138697000Y-99142000D01*
X138697000Y-100335155D01*
X138926890Y-100456476D01*
X139074099Y-100411825D01*
X139336920Y-100286641D01*
X139570269Y-100112588D01*
X139765178Y-99896355D01*
X139834805Y-99779466D01*
X139956525Y-99961632D01*
X140163368Y-100168475D01*
X140406589Y-100330990D01*
X140676842Y-100442932D01*
X140963740Y-100500000D01*
X141256260Y-100500000D01*
X141543158Y-100442932D01*
X141813411Y-100330990D01*
X142056632Y-100168475D01*
X142263475Y-99961632D01*
X142380000Y-99787240D01*
X142496525Y-99961632D01*
X142703368Y-100168475D01*
X142946589Y-100330990D01*
X143216842Y-100442932D01*
X143503740Y-100500000D01*
X143796260Y-100500000D01*
X144083158Y-100442932D01*
X144353411Y-100330990D01*
X144596632Y-100168475D01*
X144803475Y-99961632D01*
X144920000Y-99787240D01*
X145036525Y-99961632D01*
X145243368Y-100168475D01*
X145486589Y-100330990D01*
X145756842Y-100442932D01*
X146043740Y-100500000D01*
X146336260Y-100500000D01*
X146623158Y-100442932D01*
X146893411Y-100330990D01*
X147136632Y-100168475D01*
X147343475Y-99961632D01*
X147460000Y-99787240D01*
X147576525Y-99961632D01*
X147783368Y-100168475D01*
X148026589Y-100330990D01*
X148296842Y-100442932D01*
X148583740Y-100500000D01*
X148876260Y-100500000D01*
X149163158Y-100442932D01*
X149433411Y-100330990D01*
X149676632Y-100168475D01*
X149883475Y-99961632D01*
X150000000Y-99787240D01*
X150116525Y-99961632D01*
X150323368Y-100168475D01*
X150566589Y-100330990D01*
X150836842Y-100442932D01*
X151123740Y-100500000D01*
X151416260Y-100500000D01*
X151636408Y-100456209D01*
X155387710Y-104207512D01*
X155357392Y-104232393D01*
X155205579Y-104417379D01*
X155197812Y-104338518D01*
X155161502Y-104218820D01*
X155102537Y-104108506D01*
X155023185Y-104011815D01*
X154926494Y-103932463D01*
X154816180Y-103873498D01*
X154696482Y-103837188D01*
X154572000Y-103824928D01*
X153048000Y-103824928D01*
X152923518Y-103837188D01*
X152803820Y-103873498D01*
X152693506Y-103932463D01*
X152596815Y-104011815D01*
X152517463Y-104108506D01*
X152458498Y-104218820D01*
X152422188Y-104338518D01*
X152409928Y-104463000D01*
X152409928Y-104965000D01*
X152214802Y-104965000D01*
X150128688Y-102878886D01*
X150165000Y-102696335D01*
X150165000Y-102413665D01*
X150109853Y-102136426D01*
X150001680Y-101875273D01*
X149844637Y-101640241D01*
X149644759Y-101440363D01*
X149409727Y-101283320D01*
X149148574Y-101175147D01*
X148871335Y-101120000D01*
X148588665Y-101120000D01*
X148311426Y-101175147D01*
X148050273Y-101283320D01*
X147815241Y-101440363D01*
X147615363Y-101640241D01*
X147458320Y-101875273D01*
X147350147Y-102136426D01*
X147295000Y-102413665D01*
X147295000Y-102696335D01*
X147350147Y-102973574D01*
X147458320Y-103234727D01*
X147615363Y-103469759D01*
X147815241Y-103669637D01*
X148050273Y-103826680D01*
X148311426Y-103934853D01*
X148588665Y-103990000D01*
X148871335Y-103990000D01*
X149053886Y-103953688D01*
X151336201Y-106236003D01*
X151359999Y-106265001D01*
X151388997Y-106288799D01*
X151475723Y-106359974D01*
X151531849Y-106389974D01*
X151607753Y-106430546D01*
X151751014Y-106474003D01*
X151862667Y-106485000D01*
X151862677Y-106485000D01*
X151900000Y-106488676D01*
X151937322Y-106485000D01*
X152409928Y-106485000D01*
X152409928Y-106777500D01*
X150827302Y-106777500D01*
X150128688Y-106078886D01*
X150165000Y-105896335D01*
X150165000Y-105613665D01*
X150109853Y-105336426D01*
X150001680Y-105075273D01*
X149844637Y-104840241D01*
X149644759Y-104640363D01*
X149409727Y-104483320D01*
X149148574Y-104375147D01*
X148871335Y-104320000D01*
X148588665Y-104320000D01*
X148311426Y-104375147D01*
X148050273Y-104483320D01*
X147815241Y-104640363D01*
X147615363Y-104840241D01*
X147458320Y-105075273D01*
X147350147Y-105336426D01*
X147295000Y-105613665D01*
X147295000Y-105896335D01*
X147350147Y-106173574D01*
X147458320Y-106434727D01*
X147615363Y-106669759D01*
X147815241Y-106869637D01*
X148050273Y-107026680D01*
X148311426Y-107134853D01*
X148588665Y-107190000D01*
X148871335Y-107190000D01*
X149053886Y-107153688D01*
X149948701Y-108048503D01*
X149972499Y-108077501D01*
X150088224Y-108172474D01*
X150220253Y-108243046D01*
X150363514Y-108286503D01*
X150475167Y-108297500D01*
X150475175Y-108297500D01*
X150512500Y-108301176D01*
X150549825Y-108297500D01*
X154825178Y-108297500D01*
X154862500Y-108301176D01*
X154899822Y-108297500D01*
X154899833Y-108297500D01*
X155011486Y-108286503D01*
X155154747Y-108243046D01*
X155286776Y-108172474D01*
X155402501Y-108077501D01*
X155426304Y-108048497D01*
X155920292Y-107554510D01*
X156076141Y-107601786D01*
X156350000Y-107628759D01*
X156623860Y-107601786D01*
X156887195Y-107521904D01*
X157129887Y-107392183D01*
X157342608Y-107217608D01*
X157517183Y-107004887D01*
X157620000Y-106812529D01*
X157722817Y-107004887D01*
X157897393Y-107217608D01*
X158110114Y-107392183D01*
X158352806Y-107521904D01*
X158616141Y-107601786D01*
X158890000Y-107628759D01*
X159163860Y-107601786D01*
X159427195Y-107521904D01*
X159669887Y-107392183D01*
X159882608Y-107217608D01*
X160057183Y-107004887D01*
X160160000Y-106812529D01*
X160262817Y-107004887D01*
X160437393Y-107217608D01*
X160650114Y-107392183D01*
X160892806Y-107521904D01*
X161156141Y-107601786D01*
X161430000Y-107628759D01*
X161703860Y-107601786D01*
X161967195Y-107521904D01*
X162209887Y-107392183D01*
X162422608Y-107217608D01*
X162597183Y-107004887D01*
X162700000Y-106812529D01*
X162802817Y-107004887D01*
X162977393Y-107217608D01*
X163190114Y-107392183D01*
X163432806Y-107521904D01*
X163696141Y-107601786D01*
X163970000Y-107628759D01*
X164243860Y-107601786D01*
X164507195Y-107521904D01*
X164749887Y-107392183D01*
X164962608Y-107217608D01*
X165137183Y-107004887D01*
X165266904Y-106762195D01*
X165346786Y-106498860D01*
X165367000Y-106293625D01*
X165367000Y-105156375D01*
X165346786Y-104951140D01*
X165266904Y-104687805D01*
X165185228Y-104535000D01*
X168292928Y-104535000D01*
X168135241Y-104640363D01*
X167935363Y-104840241D01*
X167778320Y-105075273D01*
X167670147Y-105336426D01*
X167615000Y-105613665D01*
X167615000Y-105896335D01*
X167670147Y-106173574D01*
X167778320Y-106434727D01*
X167935363Y-106669759D01*
X168135241Y-106869637D01*
X168370273Y-107026680D01*
X168631426Y-107134853D01*
X168908665Y-107190000D01*
X169191335Y-107190000D01*
X169468574Y-107134853D01*
X169729727Y-107026680D01*
X169964759Y-106869637D01*
X170164637Y-106669759D01*
X170321680Y-106434727D01*
X170429853Y-106173574D01*
X170485000Y-105896335D01*
X170485000Y-105613665D01*
X170429853Y-105336426D01*
X170321680Y-105075273D01*
X170164637Y-104840241D01*
X169964759Y-104640363D01*
X169807072Y-104535000D01*
X175412678Y-104535000D01*
X175450000Y-104538676D01*
X175487322Y-104535000D01*
X175487333Y-104535000D01*
X175598986Y-104524003D01*
X175742247Y-104480546D01*
X175874276Y-104409974D01*
X175990001Y-104315001D01*
X176013804Y-104285997D01*
X176346114Y-103953688D01*
X176528665Y-103990000D01*
X176811335Y-103990000D01*
X177088574Y-103934853D01*
X177349727Y-103826680D01*
X177490000Y-103732953D01*
X177490000Y-103860197D01*
X176993886Y-104356312D01*
X176811335Y-104320000D01*
X176528665Y-104320000D01*
X176251426Y-104375147D01*
X175990273Y-104483320D01*
X175755241Y-104640363D01*
X175555363Y-104840241D01*
X175398320Y-105075273D01*
X175290147Y-105336426D01*
X175235000Y-105613665D01*
X175235000Y-105896335D01*
X175290147Y-106173574D01*
X175398320Y-106434727D01*
X175555363Y-106669759D01*
X175755241Y-106869637D01*
X175990273Y-107026680D01*
X176251426Y-107134853D01*
X176528665Y-107190000D01*
X176811335Y-107190000D01*
X177088574Y-107134853D01*
X177349727Y-107026680D01*
X177584759Y-106869637D01*
X177784637Y-106669759D01*
X177941680Y-106434727D01*
X178049853Y-106173574D01*
X178105000Y-105896335D01*
X178105000Y-105613665D01*
X178068688Y-105431114D01*
X178761009Y-104738794D01*
X178790001Y-104715001D01*
X178813795Y-104686008D01*
X178813799Y-104686004D01*
X178884973Y-104599277D01*
X178884974Y-104599276D01*
X178955546Y-104467247D01*
X178999003Y-104323986D01*
X179010000Y-104212333D01*
X179010000Y-104212324D01*
X179013676Y-104175001D01*
X179010000Y-104137678D01*
X179010000Y-101912322D01*
X179013676Y-101874999D01*
X179010000Y-101837676D01*
X179010000Y-101837667D01*
X178999003Y-101726014D01*
X178955546Y-101582753D01*
X178884974Y-101450724D01*
X178790001Y-101334999D01*
X178761002Y-101311200D01*
X178368802Y-100919001D01*
X178345000Y-100889998D01*
X178229275Y-100795025D01*
X178097246Y-100724453D01*
X177953985Y-100680996D01*
X177842332Y-100669999D01*
X177842321Y-100669999D01*
X177804999Y-100666323D01*
X177767677Y-100669999D01*
X159690802Y-100669999D01*
X159422561Y-100401758D01*
X159593411Y-100330990D01*
X159836632Y-100168475D01*
X160043475Y-99961632D01*
X160160000Y-99787240D01*
X160276525Y-99961632D01*
X160483368Y-100168475D01*
X160726589Y-100330990D01*
X160996842Y-100442932D01*
X161283740Y-100500000D01*
X161576260Y-100500000D01*
X161863158Y-100442932D01*
X162133411Y-100330990D01*
X162376632Y-100168475D01*
X162583475Y-99961632D01*
X162700000Y-99787240D01*
X162816525Y-99961632D01*
X163023368Y-100168475D01*
X163266589Y-100330990D01*
X163536842Y-100442932D01*
X163823740Y-100500000D01*
X164116260Y-100500000D01*
X164403158Y-100442932D01*
X164673411Y-100330990D01*
X164916632Y-100168475D01*
X165123475Y-99961632D01*
X165240000Y-99787240D01*
X165356525Y-99961632D01*
X165563368Y-100168475D01*
X165806589Y-100330990D01*
X166076842Y-100442932D01*
X166363740Y-100500000D01*
X166656260Y-100500000D01*
X166943158Y-100442932D01*
X167213411Y-100330990D01*
X167456632Y-100168475D01*
X167663475Y-99961632D01*
X167780000Y-99787240D01*
X167896525Y-99961632D01*
X168103368Y-100168475D01*
X168346589Y-100330990D01*
X168616842Y-100442932D01*
X168903740Y-100500000D01*
X169196260Y-100500000D01*
X169483158Y-100442932D01*
X169753411Y-100330990D01*
X169996632Y-100168475D01*
X170203475Y-99961632D01*
X170320000Y-99787240D01*
X170436525Y-99961632D01*
X170643368Y-100168475D01*
X170886589Y-100330990D01*
X171156842Y-100442932D01*
X171443740Y-100500000D01*
X171736260Y-100500000D01*
X172023158Y-100442932D01*
X172293411Y-100330990D01*
X172536632Y-100168475D01*
X172743475Y-99961632D01*
X172860000Y-99787240D01*
X172976525Y-99961632D01*
X173183368Y-100168475D01*
X173426589Y-100330990D01*
X173696842Y-100442932D01*
X173983740Y-100500000D01*
X174276260Y-100500000D01*
X174563158Y-100442932D01*
X174833411Y-100330990D01*
X175076632Y-100168475D01*
X175283475Y-99961632D01*
X175400000Y-99787240D01*
X175516525Y-99961632D01*
X175723368Y-100168475D01*
X175966589Y-100330990D01*
X176236842Y-100442932D01*
X176523740Y-100500000D01*
X176816260Y-100500000D01*
X177103158Y-100442932D01*
X177373411Y-100330990D01*
X177616632Y-100168475D01*
X177823475Y-99961632D01*
X177940000Y-99787240D01*
X178056525Y-99961632D01*
X178263368Y-100168475D01*
X178506589Y-100330990D01*
X178776842Y-100442932D01*
X179063740Y-100500000D01*
X179356260Y-100500000D01*
X179643158Y-100442932D01*
X179913411Y-100330990D01*
X180156632Y-100168475D01*
X180363475Y-99961632D01*
X180480000Y-99787240D01*
X180596525Y-99961632D01*
X180803368Y-100168475D01*
X181046589Y-100330990D01*
X181316842Y-100442932D01*
X181603740Y-100500000D01*
X181896260Y-100500000D01*
X182183158Y-100442932D01*
X182453411Y-100330990D01*
X182696632Y-100168475D01*
X182903475Y-99961632D01*
X183065990Y-99718411D01*
X183177932Y-99448158D01*
X183235000Y-99161260D01*
X183235000Y-98868740D01*
X183177932Y-98581842D01*
X183065990Y-98311589D01*
X182903475Y-98068368D01*
X182771620Y-97936513D01*
X182844180Y-97914502D01*
X182954494Y-97855537D01*
X183051185Y-97776185D01*
X183130537Y-97679494D01*
X183189502Y-97569180D01*
X183225812Y-97449482D01*
X183238072Y-97325000D01*
X183238072Y-95625000D01*
X183225812Y-95500518D01*
X183189502Y-95380820D01*
X183130537Y-95270506D01*
X183051185Y-95173815D01*
X182954494Y-95094463D01*
X182844180Y-95035498D01*
X182724482Y-94999188D01*
X182600000Y-94986928D01*
X180900000Y-94986928D01*
X180775518Y-94999188D01*
X180655820Y-95035498D01*
X180545506Y-95094463D01*
X180448815Y-95173815D01*
X180369463Y-95270506D01*
X180310498Y-95380820D01*
X180288487Y-95453380D01*
X180156632Y-95321525D01*
X179913411Y-95159010D01*
X179643158Y-95047068D01*
X179356260Y-94990000D01*
X179063740Y-94990000D01*
X178776842Y-95047068D01*
X178506589Y-95159010D01*
X178263368Y-95321525D01*
X178056525Y-95528368D01*
X177940000Y-95702760D01*
X177823475Y-95528368D01*
X177616632Y-95321525D01*
X177373411Y-95159010D01*
X177103158Y-95047068D01*
X176816260Y-94990000D01*
X176523740Y-94990000D01*
X176236842Y-95047068D01*
X175966589Y-95159010D01*
X175723368Y-95321525D01*
X175516525Y-95528368D01*
X175400000Y-95702760D01*
X175283475Y-95528368D01*
X175076632Y-95321525D01*
X174833411Y-95159010D01*
X174563158Y-95047068D01*
X174276260Y-94990000D01*
X173983740Y-94990000D01*
X173696842Y-95047068D01*
X173426589Y-95159010D01*
X173183368Y-95321525D01*
X172976525Y-95528368D01*
X172860000Y-95702760D01*
X172743475Y-95528368D01*
X172536632Y-95321525D01*
X172293411Y-95159010D01*
X172115232Y-95085206D01*
X172117322Y-95085000D01*
X172117333Y-95085000D01*
X172228986Y-95074003D01*
X172372247Y-95030546D01*
X172504276Y-94959974D01*
X172620001Y-94865001D01*
X172643804Y-94835997D01*
X174686136Y-92793665D01*
X175235000Y-92793665D01*
X175235000Y-93076335D01*
X175290147Y-93353574D01*
X175398320Y-93614727D01*
X175555363Y-93849759D01*
X175755241Y-94049637D01*
X175990273Y-94206680D01*
X176251426Y-94314853D01*
X176528665Y-94370000D01*
X176811335Y-94370000D01*
X177088574Y-94314853D01*
X177349727Y-94206680D01*
X177584759Y-94049637D01*
X177784637Y-93849759D01*
X177941680Y-93614727D01*
X178049853Y-93353574D01*
X178105000Y-93076335D01*
X178105000Y-92793665D01*
X178049853Y-92516426D01*
X177941680Y-92255273D01*
X177784637Y-92020241D01*
X177584759Y-91820363D01*
X177349727Y-91663320D01*
X177088574Y-91555147D01*
X176811335Y-91500000D01*
X176528665Y-91500000D01*
X176251426Y-91555147D01*
X175990273Y-91663320D01*
X175755241Y-91820363D01*
X175555363Y-92020241D01*
X175398320Y-92255273D01*
X175290147Y-92516426D01*
X175235000Y-92793665D01*
X174686136Y-92793665D01*
X176346114Y-91133688D01*
X176528665Y-91170000D01*
X176811335Y-91170000D01*
X177088574Y-91114853D01*
X177349727Y-91006680D01*
X177584759Y-90849637D01*
X177784637Y-90649759D01*
X177941680Y-90414727D01*
X178049853Y-90153574D01*
X178105000Y-89876335D01*
X178105000Y-89593665D01*
X178049853Y-89316426D01*
X177941680Y-89055273D01*
X177784637Y-88820241D01*
X177584759Y-88620363D01*
X177349727Y-88463320D01*
X177088574Y-88355147D01*
X176811335Y-88300000D01*
X176528665Y-88300000D01*
X176251426Y-88355147D01*
X175990273Y-88463320D01*
X175755241Y-88620363D01*
X175555363Y-88820241D01*
X175398320Y-89055273D01*
X175290147Y-89316426D01*
X175235000Y-89593665D01*
X175235000Y-89876335D01*
X175271312Y-90058886D01*
X171765199Y-93565000D01*
X170342278Y-93565000D01*
X170429853Y-93353574D01*
X170485000Y-93076335D01*
X170485000Y-92793665D01*
X170429853Y-92516426D01*
X170321680Y-92255273D01*
X170164637Y-92020241D01*
X169964759Y-91820363D01*
X169729727Y-91663320D01*
X169468574Y-91555147D01*
X169191335Y-91500000D01*
X168908665Y-91500000D01*
X168631426Y-91555147D01*
X168370273Y-91663320D01*
X168135241Y-91820363D01*
X167935363Y-92020241D01*
X167778320Y-92255273D01*
X167670147Y-92516426D01*
X167615000Y-92793665D01*
X167615000Y-93076335D01*
X167670147Y-93353574D01*
X167757722Y-93565000D01*
X161878320Y-93565000D01*
X161840997Y-93561324D01*
X161803674Y-93565000D01*
X161803665Y-93565000D01*
X161692012Y-93575997D01*
X161564334Y-93614727D01*
X161548751Y-93619454D01*
X161416721Y-93690026D01*
X161333081Y-93758668D01*
X161300997Y-93784999D01*
X161277199Y-93813997D01*
X159796492Y-95294705D01*
X159593411Y-95159010D01*
X159323158Y-95047068D01*
X159036260Y-94990000D01*
X158743740Y-94990000D01*
X158456842Y-95047068D01*
X158186589Y-95159010D01*
X157943368Y-95321525D01*
X157736525Y-95528368D01*
X157620000Y-95702760D01*
X157503475Y-95528368D01*
X157296632Y-95321525D01*
X157053411Y-95159010D01*
X156783158Y-95047068D01*
X156496260Y-94990000D01*
X156203740Y-94990000D01*
X155916842Y-95047068D01*
X155646589Y-95159010D01*
X155403368Y-95321525D01*
X155196525Y-95528368D01*
X155080000Y-95702760D01*
X154963475Y-95528368D01*
X154756632Y-95321525D01*
X154513411Y-95159010D01*
X154243158Y-95047068D01*
X153956260Y-94990000D01*
X153663740Y-94990000D01*
X153376842Y-95047068D01*
X153106589Y-95159010D01*
X152863368Y-95321525D01*
X152656525Y-95528368D01*
X152540000Y-95702760D01*
X152423475Y-95528368D01*
X152216632Y-95321525D01*
X151973411Y-95159010D01*
X151703158Y-95047068D01*
X151416260Y-94990000D01*
X151123740Y-94990000D01*
X150836842Y-95047068D01*
X150566589Y-95159010D01*
X150323368Y-95321525D01*
X150116525Y-95528368D01*
X150000000Y-95702760D01*
X149883475Y-95528368D01*
X149676632Y-95321525D01*
X149433411Y-95159010D01*
X149163158Y-95047068D01*
X148876260Y-94990000D01*
X148583740Y-94990000D01*
X148296842Y-95047068D01*
X148026589Y-95159010D01*
X147783368Y-95321525D01*
X147576525Y-95528368D01*
X147460000Y-95702760D01*
X147343475Y-95528368D01*
X147136632Y-95321525D01*
X146893411Y-95159010D01*
X146623158Y-95047068D01*
X146336260Y-94990000D01*
X146043740Y-94990000D01*
X145756842Y-95047068D01*
X145486589Y-95159010D01*
X145243368Y-95321525D01*
X145036525Y-95528368D01*
X144920000Y-95702760D01*
X144803475Y-95528368D01*
X144596632Y-95321525D01*
X144353411Y-95159010D01*
X144083158Y-95047068D01*
X143796260Y-94990000D01*
X143503740Y-94990000D01*
X143216842Y-95047068D01*
X142946589Y-95159010D01*
X142703368Y-95321525D01*
X142496525Y-95528368D01*
X142380000Y-95702760D01*
X142263475Y-95528368D01*
X142056632Y-95321525D01*
X141813411Y-95159010D01*
X141543158Y-95047068D01*
X141256260Y-94990000D01*
X140963740Y-94990000D01*
X140676842Y-95047068D01*
X140406589Y-95159010D01*
X140163368Y-95321525D01*
X139956525Y-95528368D01*
X139840000Y-95702760D01*
X139723475Y-95528368D01*
X139516632Y-95321525D01*
X139273411Y-95159010D01*
X139003158Y-95047068D01*
X138716260Y-94990000D01*
X138423740Y-94990000D01*
X138136842Y-95047068D01*
X137866589Y-95159010D01*
X137623368Y-95321525D01*
X137416525Y-95528368D01*
X137300000Y-95702760D01*
X137183475Y-95528368D01*
X136976632Y-95321525D01*
X136733411Y-95159010D01*
X136463158Y-95047068D01*
X136176260Y-94990000D01*
X135883740Y-94990000D01*
X135596842Y-95047068D01*
X135326589Y-95159010D01*
X135083368Y-95321525D01*
X134876525Y-95528368D01*
X134715000Y-95770107D01*
X134715000Y-92793665D01*
X139675000Y-92793665D01*
X139675000Y-93076335D01*
X139730147Y-93353574D01*
X139838320Y-93614727D01*
X139995363Y-93849759D01*
X140195241Y-94049637D01*
X140430273Y-94206680D01*
X140691426Y-94314853D01*
X140968665Y-94370000D01*
X141251335Y-94370000D01*
X141528574Y-94314853D01*
X141789727Y-94206680D01*
X142024759Y-94049637D01*
X142224637Y-93849759D01*
X142381680Y-93614727D01*
X142489853Y-93353574D01*
X142545000Y-93076335D01*
X142545000Y-92793665D01*
X147295000Y-92793665D01*
X147295000Y-93076335D01*
X147350147Y-93353574D01*
X147458320Y-93614727D01*
X147615363Y-93849759D01*
X147815241Y-94049637D01*
X148050273Y-94206680D01*
X148311426Y-94314853D01*
X148588665Y-94370000D01*
X148871335Y-94370000D01*
X149148574Y-94314853D01*
X149409727Y-94206680D01*
X149644759Y-94049637D01*
X149844637Y-93849759D01*
X150001680Y-93614727D01*
X150109853Y-93353574D01*
X150165000Y-93076335D01*
X150165000Y-92793665D01*
X150109853Y-92516426D01*
X150001680Y-92255273D01*
X149844637Y-92020241D01*
X149644759Y-91820363D01*
X149409727Y-91663320D01*
X149148574Y-91555147D01*
X148871335Y-91500000D01*
X148588665Y-91500000D01*
X148311426Y-91555147D01*
X148050273Y-91663320D01*
X147815241Y-91820363D01*
X147615363Y-92020241D01*
X147458320Y-92255273D01*
X147350147Y-92516426D01*
X147295000Y-92793665D01*
X142545000Y-92793665D01*
X142489853Y-92516426D01*
X142381680Y-92255273D01*
X142224637Y-92020241D01*
X142024759Y-91820363D01*
X141789727Y-91663320D01*
X141528574Y-91555147D01*
X141251335Y-91500000D01*
X140968665Y-91500000D01*
X140691426Y-91555147D01*
X140430273Y-91663320D01*
X140195241Y-91820363D01*
X139995363Y-92020241D01*
X139838320Y-92255273D01*
X139730147Y-92516426D01*
X139675000Y-92793665D01*
X134715000Y-92793665D01*
X134715000Y-89593665D01*
X139675000Y-89593665D01*
X139675000Y-89876335D01*
X139730147Y-90153574D01*
X139838320Y-90414727D01*
X139995363Y-90649759D01*
X140195241Y-90849637D01*
X140430273Y-91006680D01*
X140691426Y-91114853D01*
X140968665Y-91170000D01*
X141251335Y-91170000D01*
X141528574Y-91114853D01*
X141789727Y-91006680D01*
X142024759Y-90849637D01*
X142224637Y-90649759D01*
X142381680Y-90414727D01*
X142489853Y-90153574D01*
X142545000Y-89876335D01*
X142545000Y-89593665D01*
X147295000Y-89593665D01*
X147295000Y-89876335D01*
X147350147Y-90153574D01*
X147458320Y-90414727D01*
X147615363Y-90649759D01*
X147815241Y-90849637D01*
X148050273Y-91006680D01*
X148311426Y-91114853D01*
X148588665Y-91170000D01*
X148871335Y-91170000D01*
X149148574Y-91114853D01*
X149409727Y-91006680D01*
X149644759Y-90849637D01*
X149844637Y-90649759D01*
X150001680Y-90414727D01*
X150109853Y-90153574D01*
X150157035Y-89916376D01*
X152413000Y-89916376D01*
X152413000Y-91053625D01*
X152433214Y-91258860D01*
X152513096Y-91522195D01*
X152642817Y-91764887D01*
X152817393Y-91977608D01*
X153030114Y-92152183D01*
X153272806Y-92281904D01*
X153536141Y-92361786D01*
X153810000Y-92388759D01*
X154083860Y-92361786D01*
X154347195Y-92281904D01*
X154589887Y-92152183D01*
X154802608Y-91977608D01*
X154977183Y-91764887D01*
X155080000Y-91572529D01*
X155182817Y-91764887D01*
X155357393Y-91977608D01*
X155570114Y-92152183D01*
X155812806Y-92281904D01*
X156076141Y-92361786D01*
X156350000Y-92388759D01*
X156623860Y-92361786D01*
X156887195Y-92281904D01*
X157129887Y-92152183D01*
X157342608Y-91977608D01*
X157517183Y-91764887D01*
X157620000Y-91572529D01*
X157722817Y-91764887D01*
X157897393Y-91977608D01*
X158110114Y-92152183D01*
X158352806Y-92281904D01*
X158616141Y-92361786D01*
X158890000Y-92388759D01*
X159163860Y-92361786D01*
X159427195Y-92281904D01*
X159669887Y-92152183D01*
X159882608Y-91977608D01*
X160057183Y-91764887D01*
X160160000Y-91572529D01*
X160262817Y-91764887D01*
X160437393Y-91977608D01*
X160650114Y-92152183D01*
X160892806Y-92281904D01*
X161156141Y-92361786D01*
X161430000Y-92388759D01*
X161703860Y-92361786D01*
X161967195Y-92281904D01*
X162209887Y-92152183D01*
X162422608Y-91977608D01*
X162597183Y-91764887D01*
X162700000Y-91572529D01*
X162802817Y-91764887D01*
X162977393Y-91977608D01*
X163190114Y-92152183D01*
X163432806Y-92281904D01*
X163696141Y-92361786D01*
X163970000Y-92388759D01*
X164243860Y-92361786D01*
X164507195Y-92281904D01*
X164749887Y-92152183D01*
X164962608Y-91977608D01*
X165137183Y-91764887D01*
X165266904Y-91522195D01*
X165346786Y-91258860D01*
X165367000Y-91053625D01*
X165367000Y-89916375D01*
X165346786Y-89711140D01*
X165311151Y-89593665D01*
X167615000Y-89593665D01*
X167615000Y-89876335D01*
X167670147Y-90153574D01*
X167778320Y-90414727D01*
X167935363Y-90649759D01*
X168135241Y-90849637D01*
X168370273Y-91006680D01*
X168631426Y-91114853D01*
X168908665Y-91170000D01*
X169191335Y-91170000D01*
X169468574Y-91114853D01*
X169729727Y-91006680D01*
X169964759Y-90849637D01*
X170164637Y-90649759D01*
X170321680Y-90414727D01*
X170429853Y-90153574D01*
X170485000Y-89876335D01*
X170485000Y-89593665D01*
X170429853Y-89316426D01*
X170321680Y-89055273D01*
X170164637Y-88820241D01*
X169964759Y-88620363D01*
X169729727Y-88463320D01*
X169468574Y-88355147D01*
X169191335Y-88300000D01*
X168908665Y-88300000D01*
X168631426Y-88355147D01*
X168370273Y-88463320D01*
X168135241Y-88620363D01*
X167935363Y-88820241D01*
X167778320Y-89055273D01*
X167670147Y-89316426D01*
X167615000Y-89593665D01*
X165311151Y-89593665D01*
X165266904Y-89447805D01*
X165137183Y-89205113D01*
X164962607Y-88992392D01*
X164749886Y-88817817D01*
X164507194Y-88688096D01*
X164243859Y-88608214D01*
X163970000Y-88581241D01*
X163696140Y-88608214D01*
X163432805Y-88688096D01*
X163190113Y-88817817D01*
X162977392Y-88992393D01*
X162802817Y-89205114D01*
X162700000Y-89397471D01*
X162597183Y-89205113D01*
X162422607Y-88992392D01*
X162209886Y-88817817D01*
X161967194Y-88688096D01*
X161703859Y-88608214D01*
X161430000Y-88581241D01*
X161156140Y-88608214D01*
X160892805Y-88688096D01*
X160650113Y-88817817D01*
X160437392Y-88992393D01*
X160262817Y-89205114D01*
X160160000Y-89397471D01*
X160057183Y-89205113D01*
X159882607Y-88992392D01*
X159669886Y-88817817D01*
X159427194Y-88688096D01*
X159163859Y-88608214D01*
X158890000Y-88581241D01*
X158616140Y-88608214D01*
X158352805Y-88688096D01*
X158110113Y-88817817D01*
X157897392Y-88992393D01*
X157722817Y-89205114D01*
X157620000Y-89397471D01*
X157517183Y-89205113D01*
X157342607Y-88992392D01*
X157129886Y-88817817D01*
X156887194Y-88688096D01*
X156623859Y-88608214D01*
X156350000Y-88581241D01*
X156076140Y-88608214D01*
X155812805Y-88688096D01*
X155570113Y-88817817D01*
X155357392Y-88992393D01*
X155182817Y-89205114D01*
X155080000Y-89397471D01*
X154977183Y-89205113D01*
X154802607Y-88992392D01*
X154589886Y-88817817D01*
X154347194Y-88688096D01*
X154083859Y-88608214D01*
X153810000Y-88581241D01*
X153536140Y-88608214D01*
X153272805Y-88688096D01*
X153030113Y-88817817D01*
X152817392Y-88992393D01*
X152642817Y-89205114D01*
X152513096Y-89447806D01*
X152433214Y-89711141D01*
X152413000Y-89916376D01*
X150157035Y-89916376D01*
X150165000Y-89876335D01*
X150165000Y-89593665D01*
X150109853Y-89316426D01*
X150001680Y-89055273D01*
X149844637Y-88820241D01*
X149644759Y-88620363D01*
X149409727Y-88463320D01*
X149148574Y-88355147D01*
X148871335Y-88300000D01*
X148588665Y-88300000D01*
X148311426Y-88355147D01*
X148050273Y-88463320D01*
X147815241Y-88620363D01*
X147615363Y-88820241D01*
X147458320Y-89055273D01*
X147350147Y-89316426D01*
X147295000Y-89593665D01*
X142545000Y-89593665D01*
X142489853Y-89316426D01*
X142381680Y-89055273D01*
X142224637Y-88820241D01*
X142024759Y-88620363D01*
X141789727Y-88463320D01*
X141528574Y-88355147D01*
X141251335Y-88300000D01*
X140968665Y-88300000D01*
X140691426Y-88355147D01*
X140430273Y-88463320D01*
X140195241Y-88620363D01*
X139995363Y-88820241D01*
X139838320Y-89055273D01*
X139730147Y-89316426D01*
X139675000Y-89593665D01*
X134715000Y-89593665D01*
X134715000Y-88764606D01*
X135294606Y-88185000D01*
X184205394Y-88185000D01*
X185605000Y-89584606D01*
G37*
%TD.AperFunction*%
%TD*%
M02*
