%TF.GenerationSoftware,KiCad,Pcbnew,(5.1.9)-1*%
%TF.CreationDate,2023-04-12T18:55:13+01:00*%
%TF.ProjectId,#2_7segment,23325f37-7365-4676-9d65-6e742e6b6963,Rev 01*%
%TF.SameCoordinates,Original*%
%TF.FileFunction,Legend,Top*%
%TF.FilePolarity,Positive*%
%FSLAX46Y46*%
G04 Gerber Fmt 4.6, Leading zero omitted, Abs format (unit mm)*
G04 Created by KiCad (PCBNEW (5.1.9)-1) date 2023-04-12 18:55:13*
%MOMM*%
%LPD*%
G01*
G04 APERTURE LIST*
%ADD10C,0.120000*%
%ADD11C,0.075000*%
%ADD12C,0.150000*%
%ADD13R,1.700000X1.700000*%
%ADD14O,1.700000X1.700000*%
%ADD15O,1.600000X1.600000*%
%ADD16C,1.600000*%
%ADD17O,1.524000X2.524000*%
%ADD18R,1.524000X2.524000*%
G04 APERTURE END LIST*
D10*
X170725000Y-105421428D02*
X171034523Y-105421428D01*
X170867857Y-105650000D01*
X170939285Y-105650000D01*
X170986904Y-105678571D01*
X171010714Y-105707142D01*
X171034523Y-105764285D01*
X171034523Y-105907142D01*
X171010714Y-105964285D01*
X170986904Y-105992857D01*
X170939285Y-106021428D01*
X170796428Y-106021428D01*
X170748809Y-105992857D01*
X170725000Y-105964285D01*
X171201190Y-105421428D02*
X171510714Y-105421428D01*
X171344047Y-105650000D01*
X171415476Y-105650000D01*
X171463095Y-105678571D01*
X171486904Y-105707142D01*
X171510714Y-105764285D01*
X171510714Y-105907142D01*
X171486904Y-105964285D01*
X171463095Y-105992857D01*
X171415476Y-106021428D01*
X171272619Y-106021428D01*
X171225000Y-105992857D01*
X171201190Y-105964285D01*
X171820238Y-105421428D02*
X171867857Y-105421428D01*
X171915476Y-105450000D01*
X171939285Y-105478571D01*
X171963095Y-105535714D01*
X171986904Y-105650000D01*
X171986904Y-105792857D01*
X171963095Y-105907142D01*
X171939285Y-105964285D01*
X171915476Y-105992857D01*
X171867857Y-106021428D01*
X171820238Y-106021428D01*
X171772619Y-105992857D01*
X171748809Y-105964285D01*
X171725000Y-105907142D01*
X171701190Y-105792857D01*
X171701190Y-105650000D01*
X171725000Y-105535714D01*
X171748809Y-105478571D01*
X171772619Y-105450000D01*
X171820238Y-105421428D01*
X172582142Y-106021428D02*
X172582142Y-105621428D01*
X172582142Y-105735714D02*
X172605952Y-105678571D01*
X172629761Y-105650000D01*
X172677380Y-105621428D01*
X172725000Y-105621428D01*
X173082142Y-105992857D02*
X173034523Y-106021428D01*
X172939285Y-106021428D01*
X172891666Y-105992857D01*
X172867857Y-105935714D01*
X172867857Y-105707142D01*
X172891666Y-105650000D01*
X172939285Y-105621428D01*
X173034523Y-105621428D01*
X173082142Y-105650000D01*
X173105952Y-105707142D01*
X173105952Y-105764285D01*
X172867857Y-105821428D01*
X173296428Y-105992857D02*
X173344047Y-106021428D01*
X173439285Y-106021428D01*
X173486904Y-105992857D01*
X173510714Y-105935714D01*
X173510714Y-105907142D01*
X173486904Y-105850000D01*
X173439285Y-105821428D01*
X173367857Y-105821428D01*
X173320238Y-105792857D01*
X173296428Y-105735714D01*
X173296428Y-105707142D01*
X173320238Y-105650000D01*
X173367857Y-105621428D01*
X173439285Y-105621428D01*
X173486904Y-105650000D01*
X173725000Y-106021428D02*
X173725000Y-105621428D01*
X173725000Y-105421428D02*
X173701190Y-105450000D01*
X173725000Y-105478571D01*
X173748809Y-105450000D01*
X173725000Y-105421428D01*
X173725000Y-105478571D01*
X173939285Y-105992857D02*
X173986904Y-106021428D01*
X174082142Y-106021428D01*
X174129761Y-105992857D01*
X174153571Y-105935714D01*
X174153571Y-105907142D01*
X174129761Y-105850000D01*
X174082142Y-105821428D01*
X174010714Y-105821428D01*
X173963095Y-105792857D01*
X173939285Y-105735714D01*
X173939285Y-105707142D01*
X173963095Y-105650000D01*
X174010714Y-105621428D01*
X174082142Y-105621428D01*
X174129761Y-105650000D01*
X174296428Y-105621428D02*
X174486904Y-105621428D01*
X174367857Y-105421428D02*
X174367857Y-105935714D01*
X174391666Y-105992857D01*
X174439285Y-106021428D01*
X174486904Y-106021428D01*
X174725000Y-106021428D02*
X174677380Y-105992857D01*
X174653571Y-105964285D01*
X174629761Y-105907142D01*
X174629761Y-105735714D01*
X174653571Y-105678571D01*
X174677380Y-105650000D01*
X174725000Y-105621428D01*
X174796428Y-105621428D01*
X174844047Y-105650000D01*
X174867857Y-105678571D01*
X174891666Y-105735714D01*
X174891666Y-105907142D01*
X174867857Y-105964285D01*
X174844047Y-105992857D01*
X174796428Y-106021428D01*
X174725000Y-106021428D01*
X175105952Y-106021428D02*
X175105952Y-105621428D01*
X175105952Y-105735714D02*
X175129761Y-105678571D01*
X175153571Y-105650000D01*
X175201190Y-105621428D01*
X175248809Y-105621428D01*
X170725000Y-92471428D02*
X171034523Y-92471428D01*
X170867857Y-92700000D01*
X170939285Y-92700000D01*
X170986904Y-92728571D01*
X171010714Y-92757142D01*
X171034523Y-92814285D01*
X171034523Y-92957142D01*
X171010714Y-93014285D01*
X170986904Y-93042857D01*
X170939285Y-93071428D01*
X170796428Y-93071428D01*
X170748809Y-93042857D01*
X170725000Y-93014285D01*
X171201190Y-92471428D02*
X171510714Y-92471428D01*
X171344047Y-92700000D01*
X171415476Y-92700000D01*
X171463095Y-92728571D01*
X171486904Y-92757142D01*
X171510714Y-92814285D01*
X171510714Y-92957142D01*
X171486904Y-93014285D01*
X171463095Y-93042857D01*
X171415476Y-93071428D01*
X171272619Y-93071428D01*
X171225000Y-93042857D01*
X171201190Y-93014285D01*
X171820238Y-92471428D02*
X171867857Y-92471428D01*
X171915476Y-92500000D01*
X171939285Y-92528571D01*
X171963095Y-92585714D01*
X171986904Y-92700000D01*
X171986904Y-92842857D01*
X171963095Y-92957142D01*
X171939285Y-93014285D01*
X171915476Y-93042857D01*
X171867857Y-93071428D01*
X171820238Y-93071428D01*
X171772619Y-93042857D01*
X171748809Y-93014285D01*
X171725000Y-92957142D01*
X171701190Y-92842857D01*
X171701190Y-92700000D01*
X171725000Y-92585714D01*
X171748809Y-92528571D01*
X171772619Y-92500000D01*
X171820238Y-92471428D01*
X172582142Y-93071428D02*
X172582142Y-92671428D01*
X172582142Y-92785714D02*
X172605952Y-92728571D01*
X172629761Y-92700000D01*
X172677380Y-92671428D01*
X172725000Y-92671428D01*
X173082142Y-93042857D02*
X173034523Y-93071428D01*
X172939285Y-93071428D01*
X172891666Y-93042857D01*
X172867857Y-92985714D01*
X172867857Y-92757142D01*
X172891666Y-92700000D01*
X172939285Y-92671428D01*
X173034523Y-92671428D01*
X173082142Y-92700000D01*
X173105952Y-92757142D01*
X173105952Y-92814285D01*
X172867857Y-92871428D01*
X173296428Y-93042857D02*
X173344047Y-93071428D01*
X173439285Y-93071428D01*
X173486904Y-93042857D01*
X173510714Y-92985714D01*
X173510714Y-92957142D01*
X173486904Y-92900000D01*
X173439285Y-92871428D01*
X173367857Y-92871428D01*
X173320238Y-92842857D01*
X173296428Y-92785714D01*
X173296428Y-92757142D01*
X173320238Y-92700000D01*
X173367857Y-92671428D01*
X173439285Y-92671428D01*
X173486904Y-92700000D01*
X173725000Y-93071428D02*
X173725000Y-92671428D01*
X173725000Y-92471428D02*
X173701190Y-92500000D01*
X173725000Y-92528571D01*
X173748809Y-92500000D01*
X173725000Y-92471428D01*
X173725000Y-92528571D01*
X173939285Y-93042857D02*
X173986904Y-93071428D01*
X174082142Y-93071428D01*
X174129761Y-93042857D01*
X174153571Y-92985714D01*
X174153571Y-92957142D01*
X174129761Y-92900000D01*
X174082142Y-92871428D01*
X174010714Y-92871428D01*
X173963095Y-92842857D01*
X173939285Y-92785714D01*
X173939285Y-92757142D01*
X173963095Y-92700000D01*
X174010714Y-92671428D01*
X174082142Y-92671428D01*
X174129761Y-92700000D01*
X174296428Y-92671428D02*
X174486904Y-92671428D01*
X174367857Y-92471428D02*
X174367857Y-92985714D01*
X174391666Y-93042857D01*
X174439285Y-93071428D01*
X174486904Y-93071428D01*
X174725000Y-93071428D02*
X174677380Y-93042857D01*
X174653571Y-93014285D01*
X174629761Y-92957142D01*
X174629761Y-92785714D01*
X174653571Y-92728571D01*
X174677380Y-92700000D01*
X174725000Y-92671428D01*
X174796428Y-92671428D01*
X174844047Y-92700000D01*
X174867857Y-92728571D01*
X174891666Y-92785714D01*
X174891666Y-92957142D01*
X174867857Y-93014285D01*
X174844047Y-93042857D01*
X174796428Y-93071428D01*
X174725000Y-93071428D01*
X175105952Y-93071428D02*
X175105952Y-92671428D01*
X175105952Y-92785714D02*
X175129761Y-92728571D01*
X175153571Y-92700000D01*
X175201190Y-92671428D01*
X175248809Y-92671428D01*
X142625000Y-92471428D02*
X142934523Y-92471428D01*
X142767857Y-92700000D01*
X142839285Y-92700000D01*
X142886904Y-92728571D01*
X142910714Y-92757142D01*
X142934523Y-92814285D01*
X142934523Y-92957142D01*
X142910714Y-93014285D01*
X142886904Y-93042857D01*
X142839285Y-93071428D01*
X142696428Y-93071428D01*
X142648809Y-93042857D01*
X142625000Y-93014285D01*
X143101190Y-92471428D02*
X143410714Y-92471428D01*
X143244047Y-92700000D01*
X143315476Y-92700000D01*
X143363095Y-92728571D01*
X143386904Y-92757142D01*
X143410714Y-92814285D01*
X143410714Y-92957142D01*
X143386904Y-93014285D01*
X143363095Y-93042857D01*
X143315476Y-93071428D01*
X143172619Y-93071428D01*
X143125000Y-93042857D01*
X143101190Y-93014285D01*
X143720238Y-92471428D02*
X143767857Y-92471428D01*
X143815476Y-92500000D01*
X143839285Y-92528571D01*
X143863095Y-92585714D01*
X143886904Y-92700000D01*
X143886904Y-92842857D01*
X143863095Y-92957142D01*
X143839285Y-93014285D01*
X143815476Y-93042857D01*
X143767857Y-93071428D01*
X143720238Y-93071428D01*
X143672619Y-93042857D01*
X143648809Y-93014285D01*
X143625000Y-92957142D01*
X143601190Y-92842857D01*
X143601190Y-92700000D01*
X143625000Y-92585714D01*
X143648809Y-92528571D01*
X143672619Y-92500000D01*
X143720238Y-92471428D01*
X144482142Y-93071428D02*
X144482142Y-92671428D01*
X144482142Y-92785714D02*
X144505952Y-92728571D01*
X144529761Y-92700000D01*
X144577380Y-92671428D01*
X144625000Y-92671428D01*
X144982142Y-93042857D02*
X144934523Y-93071428D01*
X144839285Y-93071428D01*
X144791666Y-93042857D01*
X144767857Y-92985714D01*
X144767857Y-92757142D01*
X144791666Y-92700000D01*
X144839285Y-92671428D01*
X144934523Y-92671428D01*
X144982142Y-92700000D01*
X145005952Y-92757142D01*
X145005952Y-92814285D01*
X144767857Y-92871428D01*
X145196428Y-93042857D02*
X145244047Y-93071428D01*
X145339285Y-93071428D01*
X145386904Y-93042857D01*
X145410714Y-92985714D01*
X145410714Y-92957142D01*
X145386904Y-92900000D01*
X145339285Y-92871428D01*
X145267857Y-92871428D01*
X145220238Y-92842857D01*
X145196428Y-92785714D01*
X145196428Y-92757142D01*
X145220238Y-92700000D01*
X145267857Y-92671428D01*
X145339285Y-92671428D01*
X145386904Y-92700000D01*
X145625000Y-93071428D02*
X145625000Y-92671428D01*
X145625000Y-92471428D02*
X145601190Y-92500000D01*
X145625000Y-92528571D01*
X145648809Y-92500000D01*
X145625000Y-92471428D01*
X145625000Y-92528571D01*
X145839285Y-93042857D02*
X145886904Y-93071428D01*
X145982142Y-93071428D01*
X146029761Y-93042857D01*
X146053571Y-92985714D01*
X146053571Y-92957142D01*
X146029761Y-92900000D01*
X145982142Y-92871428D01*
X145910714Y-92871428D01*
X145863095Y-92842857D01*
X145839285Y-92785714D01*
X145839285Y-92757142D01*
X145863095Y-92700000D01*
X145910714Y-92671428D01*
X145982142Y-92671428D01*
X146029761Y-92700000D01*
X146196428Y-92671428D02*
X146386904Y-92671428D01*
X146267857Y-92471428D02*
X146267857Y-92985714D01*
X146291666Y-93042857D01*
X146339285Y-93071428D01*
X146386904Y-93071428D01*
X146625000Y-93071428D02*
X146577380Y-93042857D01*
X146553571Y-93014285D01*
X146529761Y-92957142D01*
X146529761Y-92785714D01*
X146553571Y-92728571D01*
X146577380Y-92700000D01*
X146625000Y-92671428D01*
X146696428Y-92671428D01*
X146744047Y-92700000D01*
X146767857Y-92728571D01*
X146791666Y-92785714D01*
X146791666Y-92957142D01*
X146767857Y-93014285D01*
X146744047Y-93042857D01*
X146696428Y-93071428D01*
X146625000Y-93071428D01*
X147005952Y-93071428D02*
X147005952Y-92671428D01*
X147005952Y-92785714D02*
X147029761Y-92728571D01*
X147053571Y-92700000D01*
X147101190Y-92671428D01*
X147148809Y-92671428D01*
X170725000Y-102246428D02*
X171034523Y-102246428D01*
X170867857Y-102475000D01*
X170939285Y-102475000D01*
X170986904Y-102503571D01*
X171010714Y-102532142D01*
X171034523Y-102589285D01*
X171034523Y-102732142D01*
X171010714Y-102789285D01*
X170986904Y-102817857D01*
X170939285Y-102846428D01*
X170796428Y-102846428D01*
X170748809Y-102817857D01*
X170725000Y-102789285D01*
X171201190Y-102246428D02*
X171510714Y-102246428D01*
X171344047Y-102475000D01*
X171415476Y-102475000D01*
X171463095Y-102503571D01*
X171486904Y-102532142D01*
X171510714Y-102589285D01*
X171510714Y-102732142D01*
X171486904Y-102789285D01*
X171463095Y-102817857D01*
X171415476Y-102846428D01*
X171272619Y-102846428D01*
X171225000Y-102817857D01*
X171201190Y-102789285D01*
X171820238Y-102246428D02*
X171867857Y-102246428D01*
X171915476Y-102275000D01*
X171939285Y-102303571D01*
X171963095Y-102360714D01*
X171986904Y-102475000D01*
X171986904Y-102617857D01*
X171963095Y-102732142D01*
X171939285Y-102789285D01*
X171915476Y-102817857D01*
X171867857Y-102846428D01*
X171820238Y-102846428D01*
X171772619Y-102817857D01*
X171748809Y-102789285D01*
X171725000Y-102732142D01*
X171701190Y-102617857D01*
X171701190Y-102475000D01*
X171725000Y-102360714D01*
X171748809Y-102303571D01*
X171772619Y-102275000D01*
X171820238Y-102246428D01*
X172582142Y-102846428D02*
X172582142Y-102446428D01*
X172582142Y-102560714D02*
X172605952Y-102503571D01*
X172629761Y-102475000D01*
X172677380Y-102446428D01*
X172725000Y-102446428D01*
X173082142Y-102817857D02*
X173034523Y-102846428D01*
X172939285Y-102846428D01*
X172891666Y-102817857D01*
X172867857Y-102760714D01*
X172867857Y-102532142D01*
X172891666Y-102475000D01*
X172939285Y-102446428D01*
X173034523Y-102446428D01*
X173082142Y-102475000D01*
X173105952Y-102532142D01*
X173105952Y-102589285D01*
X172867857Y-102646428D01*
X173296428Y-102817857D02*
X173344047Y-102846428D01*
X173439285Y-102846428D01*
X173486904Y-102817857D01*
X173510714Y-102760714D01*
X173510714Y-102732142D01*
X173486904Y-102675000D01*
X173439285Y-102646428D01*
X173367857Y-102646428D01*
X173320238Y-102617857D01*
X173296428Y-102560714D01*
X173296428Y-102532142D01*
X173320238Y-102475000D01*
X173367857Y-102446428D01*
X173439285Y-102446428D01*
X173486904Y-102475000D01*
X173725000Y-102846428D02*
X173725000Y-102446428D01*
X173725000Y-102246428D02*
X173701190Y-102275000D01*
X173725000Y-102303571D01*
X173748809Y-102275000D01*
X173725000Y-102246428D01*
X173725000Y-102303571D01*
X173939285Y-102817857D02*
X173986904Y-102846428D01*
X174082142Y-102846428D01*
X174129761Y-102817857D01*
X174153571Y-102760714D01*
X174153571Y-102732142D01*
X174129761Y-102675000D01*
X174082142Y-102646428D01*
X174010714Y-102646428D01*
X173963095Y-102617857D01*
X173939285Y-102560714D01*
X173939285Y-102532142D01*
X173963095Y-102475000D01*
X174010714Y-102446428D01*
X174082142Y-102446428D01*
X174129761Y-102475000D01*
X174296428Y-102446428D02*
X174486904Y-102446428D01*
X174367857Y-102246428D02*
X174367857Y-102760714D01*
X174391666Y-102817857D01*
X174439285Y-102846428D01*
X174486904Y-102846428D01*
X174725000Y-102846428D02*
X174677380Y-102817857D01*
X174653571Y-102789285D01*
X174629761Y-102732142D01*
X174629761Y-102560714D01*
X174653571Y-102503571D01*
X174677380Y-102475000D01*
X174725000Y-102446428D01*
X174796428Y-102446428D01*
X174844047Y-102475000D01*
X174867857Y-102503571D01*
X174891666Y-102560714D01*
X174891666Y-102732142D01*
X174867857Y-102789285D01*
X174844047Y-102817857D01*
X174796428Y-102846428D01*
X174725000Y-102846428D01*
X175105952Y-102846428D02*
X175105952Y-102446428D01*
X175105952Y-102560714D02*
X175129761Y-102503571D01*
X175153571Y-102475000D01*
X175201190Y-102446428D01*
X175248809Y-102446428D01*
X170725000Y-89396428D02*
X171034523Y-89396428D01*
X170867857Y-89625000D01*
X170939285Y-89625000D01*
X170986904Y-89653571D01*
X171010714Y-89682142D01*
X171034523Y-89739285D01*
X171034523Y-89882142D01*
X171010714Y-89939285D01*
X170986904Y-89967857D01*
X170939285Y-89996428D01*
X170796428Y-89996428D01*
X170748809Y-89967857D01*
X170725000Y-89939285D01*
X171201190Y-89396428D02*
X171510714Y-89396428D01*
X171344047Y-89625000D01*
X171415476Y-89625000D01*
X171463095Y-89653571D01*
X171486904Y-89682142D01*
X171510714Y-89739285D01*
X171510714Y-89882142D01*
X171486904Y-89939285D01*
X171463095Y-89967857D01*
X171415476Y-89996428D01*
X171272619Y-89996428D01*
X171225000Y-89967857D01*
X171201190Y-89939285D01*
X171820238Y-89396428D02*
X171867857Y-89396428D01*
X171915476Y-89425000D01*
X171939285Y-89453571D01*
X171963095Y-89510714D01*
X171986904Y-89625000D01*
X171986904Y-89767857D01*
X171963095Y-89882142D01*
X171939285Y-89939285D01*
X171915476Y-89967857D01*
X171867857Y-89996428D01*
X171820238Y-89996428D01*
X171772619Y-89967857D01*
X171748809Y-89939285D01*
X171725000Y-89882142D01*
X171701190Y-89767857D01*
X171701190Y-89625000D01*
X171725000Y-89510714D01*
X171748809Y-89453571D01*
X171772619Y-89425000D01*
X171820238Y-89396428D01*
X172582142Y-89996428D02*
X172582142Y-89596428D01*
X172582142Y-89710714D02*
X172605952Y-89653571D01*
X172629761Y-89625000D01*
X172677380Y-89596428D01*
X172725000Y-89596428D01*
X173082142Y-89967857D02*
X173034523Y-89996428D01*
X172939285Y-89996428D01*
X172891666Y-89967857D01*
X172867857Y-89910714D01*
X172867857Y-89682142D01*
X172891666Y-89625000D01*
X172939285Y-89596428D01*
X173034523Y-89596428D01*
X173082142Y-89625000D01*
X173105952Y-89682142D01*
X173105952Y-89739285D01*
X172867857Y-89796428D01*
X173296428Y-89967857D02*
X173344047Y-89996428D01*
X173439285Y-89996428D01*
X173486904Y-89967857D01*
X173510714Y-89910714D01*
X173510714Y-89882142D01*
X173486904Y-89825000D01*
X173439285Y-89796428D01*
X173367857Y-89796428D01*
X173320238Y-89767857D01*
X173296428Y-89710714D01*
X173296428Y-89682142D01*
X173320238Y-89625000D01*
X173367857Y-89596428D01*
X173439285Y-89596428D01*
X173486904Y-89625000D01*
X173725000Y-89996428D02*
X173725000Y-89596428D01*
X173725000Y-89396428D02*
X173701190Y-89425000D01*
X173725000Y-89453571D01*
X173748809Y-89425000D01*
X173725000Y-89396428D01*
X173725000Y-89453571D01*
X173939285Y-89967857D02*
X173986904Y-89996428D01*
X174082142Y-89996428D01*
X174129761Y-89967857D01*
X174153571Y-89910714D01*
X174153571Y-89882142D01*
X174129761Y-89825000D01*
X174082142Y-89796428D01*
X174010714Y-89796428D01*
X173963095Y-89767857D01*
X173939285Y-89710714D01*
X173939285Y-89682142D01*
X173963095Y-89625000D01*
X174010714Y-89596428D01*
X174082142Y-89596428D01*
X174129761Y-89625000D01*
X174296428Y-89596428D02*
X174486904Y-89596428D01*
X174367857Y-89396428D02*
X174367857Y-89910714D01*
X174391666Y-89967857D01*
X174439285Y-89996428D01*
X174486904Y-89996428D01*
X174725000Y-89996428D02*
X174677380Y-89967857D01*
X174653571Y-89939285D01*
X174629761Y-89882142D01*
X174629761Y-89710714D01*
X174653571Y-89653571D01*
X174677380Y-89625000D01*
X174725000Y-89596428D01*
X174796428Y-89596428D01*
X174844047Y-89625000D01*
X174867857Y-89653571D01*
X174891666Y-89710714D01*
X174891666Y-89882142D01*
X174867857Y-89939285D01*
X174844047Y-89967857D01*
X174796428Y-89996428D01*
X174725000Y-89996428D01*
X175105952Y-89996428D02*
X175105952Y-89596428D01*
X175105952Y-89710714D02*
X175129761Y-89653571D01*
X175153571Y-89625000D01*
X175201190Y-89596428D01*
X175248809Y-89596428D01*
X142625000Y-89396428D02*
X142934523Y-89396428D01*
X142767857Y-89625000D01*
X142839285Y-89625000D01*
X142886904Y-89653571D01*
X142910714Y-89682142D01*
X142934523Y-89739285D01*
X142934523Y-89882142D01*
X142910714Y-89939285D01*
X142886904Y-89967857D01*
X142839285Y-89996428D01*
X142696428Y-89996428D01*
X142648809Y-89967857D01*
X142625000Y-89939285D01*
X143101190Y-89396428D02*
X143410714Y-89396428D01*
X143244047Y-89625000D01*
X143315476Y-89625000D01*
X143363095Y-89653571D01*
X143386904Y-89682142D01*
X143410714Y-89739285D01*
X143410714Y-89882142D01*
X143386904Y-89939285D01*
X143363095Y-89967857D01*
X143315476Y-89996428D01*
X143172619Y-89996428D01*
X143125000Y-89967857D01*
X143101190Y-89939285D01*
X143720238Y-89396428D02*
X143767857Y-89396428D01*
X143815476Y-89425000D01*
X143839285Y-89453571D01*
X143863095Y-89510714D01*
X143886904Y-89625000D01*
X143886904Y-89767857D01*
X143863095Y-89882142D01*
X143839285Y-89939285D01*
X143815476Y-89967857D01*
X143767857Y-89996428D01*
X143720238Y-89996428D01*
X143672619Y-89967857D01*
X143648809Y-89939285D01*
X143625000Y-89882142D01*
X143601190Y-89767857D01*
X143601190Y-89625000D01*
X143625000Y-89510714D01*
X143648809Y-89453571D01*
X143672619Y-89425000D01*
X143720238Y-89396428D01*
X144482142Y-89996428D02*
X144482142Y-89596428D01*
X144482142Y-89710714D02*
X144505952Y-89653571D01*
X144529761Y-89625000D01*
X144577380Y-89596428D01*
X144625000Y-89596428D01*
X144982142Y-89967857D02*
X144934523Y-89996428D01*
X144839285Y-89996428D01*
X144791666Y-89967857D01*
X144767857Y-89910714D01*
X144767857Y-89682142D01*
X144791666Y-89625000D01*
X144839285Y-89596428D01*
X144934523Y-89596428D01*
X144982142Y-89625000D01*
X145005952Y-89682142D01*
X145005952Y-89739285D01*
X144767857Y-89796428D01*
X145196428Y-89967857D02*
X145244047Y-89996428D01*
X145339285Y-89996428D01*
X145386904Y-89967857D01*
X145410714Y-89910714D01*
X145410714Y-89882142D01*
X145386904Y-89825000D01*
X145339285Y-89796428D01*
X145267857Y-89796428D01*
X145220238Y-89767857D01*
X145196428Y-89710714D01*
X145196428Y-89682142D01*
X145220238Y-89625000D01*
X145267857Y-89596428D01*
X145339285Y-89596428D01*
X145386904Y-89625000D01*
X145625000Y-89996428D02*
X145625000Y-89596428D01*
X145625000Y-89396428D02*
X145601190Y-89425000D01*
X145625000Y-89453571D01*
X145648809Y-89425000D01*
X145625000Y-89396428D01*
X145625000Y-89453571D01*
X145839285Y-89967857D02*
X145886904Y-89996428D01*
X145982142Y-89996428D01*
X146029761Y-89967857D01*
X146053571Y-89910714D01*
X146053571Y-89882142D01*
X146029761Y-89825000D01*
X145982142Y-89796428D01*
X145910714Y-89796428D01*
X145863095Y-89767857D01*
X145839285Y-89710714D01*
X145839285Y-89682142D01*
X145863095Y-89625000D01*
X145910714Y-89596428D01*
X145982142Y-89596428D01*
X146029761Y-89625000D01*
X146196428Y-89596428D02*
X146386904Y-89596428D01*
X146267857Y-89396428D02*
X146267857Y-89910714D01*
X146291666Y-89967857D01*
X146339285Y-89996428D01*
X146386904Y-89996428D01*
X146625000Y-89996428D02*
X146577380Y-89967857D01*
X146553571Y-89939285D01*
X146529761Y-89882142D01*
X146529761Y-89710714D01*
X146553571Y-89653571D01*
X146577380Y-89625000D01*
X146625000Y-89596428D01*
X146696428Y-89596428D01*
X146744047Y-89625000D01*
X146767857Y-89653571D01*
X146791666Y-89710714D01*
X146791666Y-89882142D01*
X146767857Y-89939285D01*
X146744047Y-89967857D01*
X146696428Y-89996428D01*
X146625000Y-89996428D01*
X147005952Y-89996428D02*
X147005952Y-89596428D01*
X147005952Y-89710714D02*
X147029761Y-89653571D01*
X147053571Y-89625000D01*
X147101190Y-89596428D01*
X147148809Y-89596428D01*
X142625000Y-102246428D02*
X142934523Y-102246428D01*
X142767857Y-102475000D01*
X142839285Y-102475000D01*
X142886904Y-102503571D01*
X142910714Y-102532142D01*
X142934523Y-102589285D01*
X142934523Y-102732142D01*
X142910714Y-102789285D01*
X142886904Y-102817857D01*
X142839285Y-102846428D01*
X142696428Y-102846428D01*
X142648809Y-102817857D01*
X142625000Y-102789285D01*
X143101190Y-102246428D02*
X143410714Y-102246428D01*
X143244047Y-102475000D01*
X143315476Y-102475000D01*
X143363095Y-102503571D01*
X143386904Y-102532142D01*
X143410714Y-102589285D01*
X143410714Y-102732142D01*
X143386904Y-102789285D01*
X143363095Y-102817857D01*
X143315476Y-102846428D01*
X143172619Y-102846428D01*
X143125000Y-102817857D01*
X143101190Y-102789285D01*
X143720238Y-102246428D02*
X143767857Y-102246428D01*
X143815476Y-102275000D01*
X143839285Y-102303571D01*
X143863095Y-102360714D01*
X143886904Y-102475000D01*
X143886904Y-102617857D01*
X143863095Y-102732142D01*
X143839285Y-102789285D01*
X143815476Y-102817857D01*
X143767857Y-102846428D01*
X143720238Y-102846428D01*
X143672619Y-102817857D01*
X143648809Y-102789285D01*
X143625000Y-102732142D01*
X143601190Y-102617857D01*
X143601190Y-102475000D01*
X143625000Y-102360714D01*
X143648809Y-102303571D01*
X143672619Y-102275000D01*
X143720238Y-102246428D01*
X144482142Y-102846428D02*
X144482142Y-102446428D01*
X144482142Y-102560714D02*
X144505952Y-102503571D01*
X144529761Y-102475000D01*
X144577380Y-102446428D01*
X144625000Y-102446428D01*
X144982142Y-102817857D02*
X144934523Y-102846428D01*
X144839285Y-102846428D01*
X144791666Y-102817857D01*
X144767857Y-102760714D01*
X144767857Y-102532142D01*
X144791666Y-102475000D01*
X144839285Y-102446428D01*
X144934523Y-102446428D01*
X144982142Y-102475000D01*
X145005952Y-102532142D01*
X145005952Y-102589285D01*
X144767857Y-102646428D01*
X145196428Y-102817857D02*
X145244047Y-102846428D01*
X145339285Y-102846428D01*
X145386904Y-102817857D01*
X145410714Y-102760714D01*
X145410714Y-102732142D01*
X145386904Y-102675000D01*
X145339285Y-102646428D01*
X145267857Y-102646428D01*
X145220238Y-102617857D01*
X145196428Y-102560714D01*
X145196428Y-102532142D01*
X145220238Y-102475000D01*
X145267857Y-102446428D01*
X145339285Y-102446428D01*
X145386904Y-102475000D01*
X145625000Y-102846428D02*
X145625000Y-102446428D01*
X145625000Y-102246428D02*
X145601190Y-102275000D01*
X145625000Y-102303571D01*
X145648809Y-102275000D01*
X145625000Y-102246428D01*
X145625000Y-102303571D01*
X145839285Y-102817857D02*
X145886904Y-102846428D01*
X145982142Y-102846428D01*
X146029761Y-102817857D01*
X146053571Y-102760714D01*
X146053571Y-102732142D01*
X146029761Y-102675000D01*
X145982142Y-102646428D01*
X145910714Y-102646428D01*
X145863095Y-102617857D01*
X145839285Y-102560714D01*
X145839285Y-102532142D01*
X145863095Y-102475000D01*
X145910714Y-102446428D01*
X145982142Y-102446428D01*
X146029761Y-102475000D01*
X146196428Y-102446428D02*
X146386904Y-102446428D01*
X146267857Y-102246428D02*
X146267857Y-102760714D01*
X146291666Y-102817857D01*
X146339285Y-102846428D01*
X146386904Y-102846428D01*
X146625000Y-102846428D02*
X146577380Y-102817857D01*
X146553571Y-102789285D01*
X146529761Y-102732142D01*
X146529761Y-102560714D01*
X146553571Y-102503571D01*
X146577380Y-102475000D01*
X146625000Y-102446428D01*
X146696428Y-102446428D01*
X146744047Y-102475000D01*
X146767857Y-102503571D01*
X146791666Y-102560714D01*
X146791666Y-102732142D01*
X146767857Y-102789285D01*
X146744047Y-102817857D01*
X146696428Y-102846428D01*
X146625000Y-102846428D01*
X147005952Y-102846428D02*
X147005952Y-102446428D01*
X147005952Y-102560714D02*
X147029761Y-102503571D01*
X147053571Y-102475000D01*
X147101190Y-102446428D01*
X147148809Y-102446428D01*
X142625000Y-105421428D02*
X142934523Y-105421428D01*
X142767857Y-105650000D01*
X142839285Y-105650000D01*
X142886904Y-105678571D01*
X142910714Y-105707142D01*
X142934523Y-105764285D01*
X142934523Y-105907142D01*
X142910714Y-105964285D01*
X142886904Y-105992857D01*
X142839285Y-106021428D01*
X142696428Y-106021428D01*
X142648809Y-105992857D01*
X142625000Y-105964285D01*
X143101190Y-105421428D02*
X143410714Y-105421428D01*
X143244047Y-105650000D01*
X143315476Y-105650000D01*
X143363095Y-105678571D01*
X143386904Y-105707142D01*
X143410714Y-105764285D01*
X143410714Y-105907142D01*
X143386904Y-105964285D01*
X143363095Y-105992857D01*
X143315476Y-106021428D01*
X143172619Y-106021428D01*
X143125000Y-105992857D01*
X143101190Y-105964285D01*
X143720238Y-105421428D02*
X143767857Y-105421428D01*
X143815476Y-105450000D01*
X143839285Y-105478571D01*
X143863095Y-105535714D01*
X143886904Y-105650000D01*
X143886904Y-105792857D01*
X143863095Y-105907142D01*
X143839285Y-105964285D01*
X143815476Y-105992857D01*
X143767857Y-106021428D01*
X143720238Y-106021428D01*
X143672619Y-105992857D01*
X143648809Y-105964285D01*
X143625000Y-105907142D01*
X143601190Y-105792857D01*
X143601190Y-105650000D01*
X143625000Y-105535714D01*
X143648809Y-105478571D01*
X143672619Y-105450000D01*
X143720238Y-105421428D01*
X144482142Y-106021428D02*
X144482142Y-105621428D01*
X144482142Y-105735714D02*
X144505952Y-105678571D01*
X144529761Y-105650000D01*
X144577380Y-105621428D01*
X144625000Y-105621428D01*
X144982142Y-105992857D02*
X144934523Y-106021428D01*
X144839285Y-106021428D01*
X144791666Y-105992857D01*
X144767857Y-105935714D01*
X144767857Y-105707142D01*
X144791666Y-105650000D01*
X144839285Y-105621428D01*
X144934523Y-105621428D01*
X144982142Y-105650000D01*
X145005952Y-105707142D01*
X145005952Y-105764285D01*
X144767857Y-105821428D01*
X145196428Y-105992857D02*
X145244047Y-106021428D01*
X145339285Y-106021428D01*
X145386904Y-105992857D01*
X145410714Y-105935714D01*
X145410714Y-105907142D01*
X145386904Y-105850000D01*
X145339285Y-105821428D01*
X145267857Y-105821428D01*
X145220238Y-105792857D01*
X145196428Y-105735714D01*
X145196428Y-105707142D01*
X145220238Y-105650000D01*
X145267857Y-105621428D01*
X145339285Y-105621428D01*
X145386904Y-105650000D01*
X145625000Y-106021428D02*
X145625000Y-105621428D01*
X145625000Y-105421428D02*
X145601190Y-105450000D01*
X145625000Y-105478571D01*
X145648809Y-105450000D01*
X145625000Y-105421428D01*
X145625000Y-105478571D01*
X145839285Y-105992857D02*
X145886904Y-106021428D01*
X145982142Y-106021428D01*
X146029761Y-105992857D01*
X146053571Y-105935714D01*
X146053571Y-105907142D01*
X146029761Y-105850000D01*
X145982142Y-105821428D01*
X145910714Y-105821428D01*
X145863095Y-105792857D01*
X145839285Y-105735714D01*
X145839285Y-105707142D01*
X145863095Y-105650000D01*
X145910714Y-105621428D01*
X145982142Y-105621428D01*
X146029761Y-105650000D01*
X146196428Y-105621428D02*
X146386904Y-105621428D01*
X146267857Y-105421428D02*
X146267857Y-105935714D01*
X146291666Y-105992857D01*
X146339285Y-106021428D01*
X146386904Y-106021428D01*
X146625000Y-106021428D02*
X146577380Y-105992857D01*
X146553571Y-105964285D01*
X146529761Y-105907142D01*
X146529761Y-105735714D01*
X146553571Y-105678571D01*
X146577380Y-105650000D01*
X146625000Y-105621428D01*
X146696428Y-105621428D01*
X146744047Y-105650000D01*
X146767857Y-105678571D01*
X146791666Y-105735714D01*
X146791666Y-105907142D01*
X146767857Y-105964285D01*
X146744047Y-105992857D01*
X146696428Y-106021428D01*
X146625000Y-106021428D01*
X147005952Y-106021428D02*
X147005952Y-105621428D01*
X147005952Y-105735714D02*
X147029761Y-105678571D01*
X147053571Y-105650000D01*
X147101190Y-105621428D01*
X147148809Y-105621428D01*
D11*
X135610714Y-101932142D02*
X135610714Y-101760714D01*
X135910714Y-101846428D02*
X135610714Y-101846428D01*
X135910714Y-101660714D02*
X135610714Y-101660714D01*
X135825000Y-101560714D01*
X135610714Y-101460714D01*
X135910714Y-101460714D01*
D12*
X137007142Y-104578571D02*
X136964285Y-104664285D01*
X136878571Y-104707142D01*
X136107142Y-104707142D01*
X137007142Y-104235714D02*
X136407142Y-104235714D01*
X136107142Y-104235714D02*
X136150000Y-104278571D01*
X136192857Y-104235714D01*
X136150000Y-104192857D01*
X136107142Y-104235714D01*
X136192857Y-104235714D01*
X136407142Y-103421428D02*
X137135714Y-103421428D01*
X137221428Y-103464285D01*
X137264285Y-103507142D01*
X137307142Y-103592857D01*
X137307142Y-103721428D01*
X137264285Y-103807142D01*
X136964285Y-103421428D02*
X137007142Y-103507142D01*
X137007142Y-103678571D01*
X136964285Y-103764285D01*
X136921428Y-103807142D01*
X136835714Y-103850000D01*
X136578571Y-103850000D01*
X136492857Y-103807142D01*
X136450000Y-103764285D01*
X136407142Y-103678571D01*
X136407142Y-103507142D01*
X136450000Y-103421428D01*
X137007142Y-102992857D02*
X136107142Y-102992857D01*
X137007142Y-102607142D02*
X136535714Y-102607142D01*
X136450000Y-102650000D01*
X136407142Y-102735714D01*
X136407142Y-102864285D01*
X136450000Y-102950000D01*
X136492857Y-102992857D01*
X136407142Y-102307142D02*
X136407142Y-101964285D01*
X136107142Y-102178571D02*
X136878571Y-102178571D01*
X136964285Y-102135714D01*
X137007142Y-102050000D01*
X137007142Y-101964285D01*
X135350000Y-108214285D02*
X135350000Y-107642857D01*
X135692857Y-108328571D02*
X134492857Y-107928571D01*
X135692857Y-107528571D01*
X134892857Y-106614285D02*
X135864285Y-106614285D01*
X135978571Y-106671428D01*
X136035714Y-106728571D01*
X136092857Y-106842857D01*
X136092857Y-107014285D01*
X136035714Y-107128571D01*
X135635714Y-106614285D02*
X135692857Y-106728571D01*
X135692857Y-106957142D01*
X135635714Y-107071428D01*
X135578571Y-107128571D01*
X135464285Y-107185714D01*
X135121428Y-107185714D01*
X135007142Y-107128571D01*
X134950000Y-107071428D01*
X134892857Y-106957142D01*
X134892857Y-106728571D01*
X134950000Y-106614285D01*
X135692857Y-105871428D02*
X135635714Y-105985714D01*
X135578571Y-106042857D01*
X135464285Y-106100000D01*
X135121428Y-106100000D01*
X135007142Y-106042857D01*
X134950000Y-105985714D01*
X134892857Y-105871428D01*
X134892857Y-105700000D01*
X134950000Y-105585714D01*
X135007142Y-105528571D01*
X135121428Y-105471428D01*
X135464285Y-105471428D01*
X135578571Y-105528571D01*
X135635714Y-105585714D01*
X135692857Y-105700000D01*
X135692857Y-105871428D01*
X134892857Y-104957142D02*
X135692857Y-104957142D01*
X135007142Y-104957142D02*
X134950000Y-104900000D01*
X134892857Y-104785714D01*
X134892857Y-104614285D01*
X134950000Y-104500000D01*
X135064285Y-104442857D01*
X135692857Y-104442857D01*
X184535714Y-105404761D02*
X184535714Y-104690476D01*
X184107142Y-105119047D02*
X185392857Y-105404761D01*
X184964285Y-104785714D02*
X184964285Y-105500000D01*
X185392857Y-105071428D02*
X184107142Y-104785714D01*
X184297619Y-104404761D02*
X184250000Y-104357142D01*
X184202380Y-104261904D01*
X184202380Y-104023809D01*
X184250000Y-103928571D01*
X184297619Y-103880952D01*
X184392857Y-103833333D01*
X184488095Y-103833333D01*
X184630952Y-103880952D01*
X185202380Y-104452380D01*
X185202380Y-103833333D01*
X185154761Y-102690476D02*
X185202380Y-102547619D01*
X185202380Y-102309523D01*
X185154761Y-102214285D01*
X185107142Y-102166666D01*
X185011904Y-102119047D01*
X184916666Y-102119047D01*
X184821428Y-102166666D01*
X184773809Y-102214285D01*
X184726190Y-102309523D01*
X184678571Y-102500000D01*
X184630952Y-102595238D01*
X184583333Y-102642857D01*
X184488095Y-102690476D01*
X184392857Y-102690476D01*
X184297619Y-102642857D01*
X184250000Y-102595238D01*
X184202380Y-102500000D01*
X184202380Y-102261904D01*
X184250000Y-102119047D01*
X185154761Y-101309523D02*
X185202380Y-101404761D01*
X185202380Y-101595238D01*
X185154761Y-101690476D01*
X185059523Y-101738095D01*
X184678571Y-101738095D01*
X184583333Y-101690476D01*
X184535714Y-101595238D01*
X184535714Y-101404761D01*
X184583333Y-101309523D01*
X184678571Y-101261904D01*
X184773809Y-101261904D01*
X184869047Y-101738095D01*
X184535714Y-100928571D02*
X185202380Y-100690476D01*
X184535714Y-100452380D01*
X185154761Y-99690476D02*
X185202380Y-99785714D01*
X185202380Y-99976190D01*
X185154761Y-100071428D01*
X185059523Y-100119047D01*
X184678571Y-100119047D01*
X184583333Y-100071428D01*
X184535714Y-99976190D01*
X184535714Y-99785714D01*
X184583333Y-99690476D01*
X184678571Y-99642857D01*
X184773809Y-99642857D01*
X184869047Y-100119047D01*
X184535714Y-99214285D02*
X185202380Y-99214285D01*
X184630952Y-99214285D02*
X184583333Y-99166666D01*
X184535714Y-99071428D01*
X184535714Y-98928571D01*
X184583333Y-98833333D01*
X184678571Y-98785714D01*
X185202380Y-98785714D01*
X185154761Y-97595238D02*
X185202380Y-97452380D01*
X185202380Y-97214285D01*
X185154761Y-97119047D01*
X185107142Y-97071428D01*
X185011904Y-97023809D01*
X184916666Y-97023809D01*
X184821428Y-97071428D01*
X184773809Y-97119047D01*
X184726190Y-97214285D01*
X184678571Y-97404761D01*
X184630952Y-97500000D01*
X184583333Y-97547619D01*
X184488095Y-97595238D01*
X184392857Y-97595238D01*
X184297619Y-97547619D01*
X184250000Y-97500000D01*
X184202380Y-97404761D01*
X184202380Y-97166666D01*
X184250000Y-97023809D01*
X185154761Y-96214285D02*
X185202380Y-96309523D01*
X185202380Y-96500000D01*
X185154761Y-96595238D01*
X185059523Y-96642857D01*
X184678571Y-96642857D01*
X184583333Y-96595238D01*
X184535714Y-96500000D01*
X184535714Y-96309523D01*
X184583333Y-96214285D01*
X184678571Y-96166666D01*
X184773809Y-96166666D01*
X184869047Y-96642857D01*
X184535714Y-95309523D02*
X185345238Y-95309523D01*
X185440476Y-95357142D01*
X185488095Y-95404761D01*
X185535714Y-95500000D01*
X185535714Y-95642857D01*
X185488095Y-95738095D01*
X185154761Y-95309523D02*
X185202380Y-95404761D01*
X185202380Y-95595238D01*
X185154761Y-95690476D01*
X185107142Y-95738095D01*
X185011904Y-95785714D01*
X184726190Y-95785714D01*
X184630952Y-95738095D01*
X184583333Y-95690476D01*
X184535714Y-95595238D01*
X184535714Y-95404761D01*
X184583333Y-95309523D01*
X185202380Y-94833333D02*
X184535714Y-94833333D01*
X184630952Y-94833333D02*
X184583333Y-94785714D01*
X184535714Y-94690476D01*
X184535714Y-94547619D01*
X184583333Y-94452380D01*
X184678571Y-94404761D01*
X185202380Y-94404761D01*
X184678571Y-94404761D02*
X184583333Y-94357142D01*
X184535714Y-94261904D01*
X184535714Y-94119047D01*
X184583333Y-94023809D01*
X184678571Y-93976190D01*
X185202380Y-93976190D01*
X185154761Y-93119047D02*
X185202380Y-93214285D01*
X185202380Y-93404761D01*
X185154761Y-93500000D01*
X185059523Y-93547619D01*
X184678571Y-93547619D01*
X184583333Y-93500000D01*
X184535714Y-93404761D01*
X184535714Y-93214285D01*
X184583333Y-93119047D01*
X184678571Y-93071428D01*
X184773809Y-93071428D01*
X184869047Y-93547619D01*
X184535714Y-92642857D02*
X185202380Y-92642857D01*
X184630952Y-92642857D02*
X184583333Y-92595238D01*
X184535714Y-92500000D01*
X184535714Y-92357142D01*
X184583333Y-92261904D01*
X184678571Y-92214285D01*
X185202380Y-92214285D01*
X184535714Y-91880952D02*
X184535714Y-91500000D01*
X184202380Y-91738095D02*
X185059523Y-91738095D01*
X185154761Y-91690476D01*
X185202380Y-91595238D01*
X185202380Y-91500000D01*
D10*
%TO.C,R0*%
X169590000Y-91565000D02*
X169590000Y-91895000D01*
X176130000Y-91565000D02*
X169590000Y-91565000D01*
X176130000Y-91895000D02*
X176130000Y-91565000D01*
X169590000Y-94305000D02*
X169590000Y-93975000D01*
X176130000Y-94305000D02*
X169590000Y-94305000D01*
X176130000Y-93975000D02*
X176130000Y-94305000D01*
%TO.C,R1*%
X169590000Y-88365000D02*
X169590000Y-88695000D01*
X176130000Y-88365000D02*
X169590000Y-88365000D01*
X176130000Y-88695000D02*
X176130000Y-88365000D01*
X169590000Y-91105000D02*
X169590000Y-90775000D01*
X176130000Y-91105000D02*
X169590000Y-91105000D01*
X176130000Y-90775000D02*
X176130000Y-91105000D01*
%TO.C,R2*%
X176130000Y-106795000D02*
X176130000Y-107125000D01*
X176130000Y-107125000D02*
X169590000Y-107125000D01*
X169590000Y-107125000D02*
X169590000Y-106795000D01*
X176130000Y-104715000D02*
X176130000Y-104385000D01*
X176130000Y-104385000D02*
X169590000Y-104385000D01*
X169590000Y-104385000D02*
X169590000Y-104715000D01*
%TO.C,R3*%
X148190000Y-107125000D02*
X148190000Y-106795000D01*
X141650000Y-107125000D02*
X148190000Y-107125000D01*
X141650000Y-106795000D02*
X141650000Y-107125000D01*
X148190000Y-104385000D02*
X148190000Y-104715000D01*
X141650000Y-104385000D02*
X148190000Y-104385000D01*
X141650000Y-104715000D02*
X141650000Y-104385000D01*
%TO.C,R4*%
X141650000Y-101515000D02*
X141650000Y-101185000D01*
X141650000Y-101185000D02*
X148190000Y-101185000D01*
X148190000Y-101185000D02*
X148190000Y-101515000D01*
X141650000Y-103595000D02*
X141650000Y-103925000D01*
X141650000Y-103925000D02*
X148190000Y-103925000D01*
X148190000Y-103925000D02*
X148190000Y-103595000D01*
%TO.C,R5*%
X148190000Y-94305000D02*
X148190000Y-93975000D01*
X141650000Y-94305000D02*
X148190000Y-94305000D01*
X141650000Y-93975000D02*
X141650000Y-94305000D01*
X148190000Y-91565000D02*
X148190000Y-91895000D01*
X141650000Y-91565000D02*
X148190000Y-91565000D01*
X141650000Y-91895000D02*
X141650000Y-91565000D01*
%TO.C,R6*%
X141650000Y-88695000D02*
X141650000Y-88365000D01*
X141650000Y-88365000D02*
X148190000Y-88365000D01*
X148190000Y-88365000D02*
X148190000Y-88695000D01*
X141650000Y-90775000D02*
X141650000Y-91105000D01*
X141650000Y-91105000D02*
X148190000Y-91105000D01*
X148190000Y-91105000D02*
X148190000Y-90775000D01*
%TO.C,R7*%
X169590000Y-101185000D02*
X169590000Y-101515000D01*
X176130000Y-101185000D02*
X169590000Y-101185000D01*
X176130000Y-101515000D02*
X176130000Y-101185000D01*
X169590000Y-103925000D02*
X169590000Y-103595000D01*
X176130000Y-103925000D02*
X169590000Y-103925000D01*
X176130000Y-103595000D02*
X176130000Y-103925000D01*
%TO.C,U1*%
X152480000Y-103820000D02*
X152480000Y-92390000D01*
X165300000Y-103820000D02*
X165300000Y-92390000D01*
X153590000Y-107740000D02*
X165190000Y-107740000D01*
X165190000Y-88470000D02*
X152590000Y-88470000D01*
X155890000Y-93105000D02*
X154890000Y-98105000D01*
X154890000Y-98105000D02*
X153890000Y-103105000D01*
X153890000Y-103105000D02*
X160890000Y-103105000D01*
X160890000Y-103105000D02*
X161890000Y-98105000D01*
X162890000Y-93105000D02*
X161890000Y-98105000D01*
X161890000Y-98105000D02*
X154890000Y-98105000D01*
X155890000Y-93105000D02*
X162890000Y-93105000D01*
X163337214Y-103105000D02*
G75*
G03*
X163337214Y-103105000I-447214J0D01*
G01*
D12*
X153527380Y-94436904D02*
X154336904Y-94436904D01*
X154432142Y-94389285D01*
X154479761Y-94341666D01*
X154527380Y-94246428D01*
X154527380Y-94055952D01*
X154479761Y-93960714D01*
X154432142Y-93913095D01*
X154336904Y-93865476D01*
X153527380Y-93865476D01*
X154527380Y-92865476D02*
X154527380Y-93436904D01*
X154527380Y-93151190D02*
X153527380Y-93151190D01*
X153670238Y-93246428D01*
X153765476Y-93341666D01*
X153813095Y-93436904D01*
%TD*%
%LPC*%
D13*
%TO.C,J1*%
X181750000Y-96475000D03*
D14*
X181750000Y-99015000D03*
X179210000Y-96475000D03*
X179210000Y-99015000D03*
X176670000Y-96475000D03*
X176670000Y-99015000D03*
X174130000Y-96475000D03*
X174130000Y-99015000D03*
X171590000Y-96475000D03*
X171590000Y-99015000D03*
X169050000Y-96475000D03*
X169050000Y-99015000D03*
X166510000Y-96475000D03*
X166510000Y-99015000D03*
X163970000Y-96475000D03*
X163970000Y-99015000D03*
X161430000Y-96475000D03*
X161430000Y-99015000D03*
X158890000Y-96475000D03*
X158890000Y-99015000D03*
X156350000Y-96475000D03*
X156350000Y-99015000D03*
X153810000Y-96475000D03*
X153810000Y-99015000D03*
X151270000Y-96475000D03*
X151270000Y-99015000D03*
X148730000Y-96475000D03*
X148730000Y-99015000D03*
X146190000Y-96475000D03*
X146190000Y-99015000D03*
X143650000Y-96475000D03*
X143650000Y-99015000D03*
X141110000Y-96475000D03*
X141110000Y-99015000D03*
X138570000Y-96475000D03*
X138570000Y-99015000D03*
X136030000Y-96475000D03*
X136030000Y-99015000D03*
%TD*%
D15*
%TO.C,R0*%
X169050000Y-92935000D03*
D16*
X176670000Y-92935000D03*
%TD*%
%TO.C,R1*%
X176670000Y-89735000D03*
D15*
X169050000Y-89735000D03*
%TD*%
%TO.C,R2*%
X169050000Y-105755000D03*
D16*
X176670000Y-105755000D03*
%TD*%
%TO.C,R3*%
X141110000Y-105755000D03*
D15*
X148730000Y-105755000D03*
%TD*%
%TO.C,R4*%
X148730000Y-102555000D03*
D16*
X141110000Y-102555000D03*
%TD*%
%TO.C,R5*%
X141110000Y-92935000D03*
D15*
X148730000Y-92935000D03*
%TD*%
%TO.C,R6*%
X148730000Y-89735000D03*
D16*
X141110000Y-89735000D03*
%TD*%
%TO.C,R7*%
X176670000Y-102555000D03*
D15*
X169050000Y-102555000D03*
%TD*%
D17*
%TO.C,U1*%
X153810000Y-90485000D03*
X156350000Y-90485000D03*
X158890000Y-90485000D03*
X161430000Y-90485000D03*
X163970000Y-90485000D03*
X163970000Y-105725000D03*
X161430000Y-105725000D03*
X158890000Y-105725000D03*
X156350000Y-105725000D03*
D18*
X153810000Y-105725000D03*
%TD*%
M02*
