%TF.GenerationSoftware,KiCad,Pcbnew,(5.1.9)-1*%
%TF.CreationDate,2023-04-12T14:25:31+01:00*%
%TF.ProjectId,#2_7segment,23325f37-7365-4676-9d65-6e742e6b6963,Rev 01*%
%TF.SameCoordinates,Original*%
%TF.FileFunction,Copper,L2,Bot*%
%TF.FilePolarity,Positive*%
%FSLAX46Y46*%
G04 Gerber Fmt 4.6, Leading zero omitted, Abs format (unit mm)*
G04 Created by KiCad (PCBNEW (5.1.9)-1) date 2023-04-12 14:25:31*
%MOMM*%
%LPD*%
G01*
G04 APERTURE LIST*
%TA.AperFunction,ComponentPad*%
%ADD10R,1.700000X1.700000*%
%TD*%
%TA.AperFunction,ComponentPad*%
%ADD11O,1.700000X1.700000*%
%TD*%
%TA.AperFunction,ComponentPad*%
%ADD12O,1.600000X1.600000*%
%TD*%
%TA.AperFunction,ComponentPad*%
%ADD13C,1.600000*%
%TD*%
%TA.AperFunction,ComponentPad*%
%ADD14O,1.524000X2.524000*%
%TD*%
%TA.AperFunction,ComponentPad*%
%ADD15R,1.524000X2.524000*%
%TD*%
%TA.AperFunction,SMDPad,CuDef*%
%ADD16R,1.000000X1.500000*%
%TD*%
%TA.AperFunction,Conductor*%
%ADD17C,0.250000*%
%TD*%
%TA.AperFunction,Conductor*%
%ADD18C,0.500000*%
%TD*%
%TA.AperFunction,Conductor*%
%ADD19C,0.400000*%
%TD*%
%TA.AperFunction,Conductor*%
%ADD20C,0.254000*%
%TD*%
%TA.AperFunction,Conductor*%
%ADD21C,0.100000*%
%TD*%
G04 APERTURE END LIST*
D10*
%TO.P,J1,1*%
%TO.N,Net-(J1-Pad1)*%
X181750000Y-96475000D03*
D11*
%TO.P,J1,2*%
%TO.N,Net-(J1-Pad2)*%
X181750000Y-99015000D03*
%TO.P,J1,3*%
%TO.N,Net-(J1-Pad3)*%
X179210000Y-96475000D03*
%TO.P,J1,4*%
%TO.N,Net-(J1-Pad4)*%
X179210000Y-99015000D03*
%TO.P,J1,5*%
%TO.N,GND*%
X176670000Y-96475000D03*
%TO.P,J1,6*%
%TO.N,Net-(J1-Pad6)*%
X176670000Y-99015000D03*
%TO.P,J1,7*%
%TO.N,GND*%
X174130000Y-96475000D03*
%TO.P,J1,8*%
%TO.N,Net-(J1-Pad8)*%
X174130000Y-99015000D03*
%TO.P,J1,9*%
%TO.N,Net-(J1-Pad9)*%
X171590000Y-96475000D03*
%TO.P,J1,10*%
%TO.N,Net-(J1-Pad10)*%
X171590000Y-99015000D03*
%TO.P,J1,11*%
%TO.N,Net-(J1-Pad11)*%
X169050000Y-96475000D03*
%TO.P,J1,12*%
%TO.N,Net-(J1-Pad12)*%
X169050000Y-99015000D03*
%TO.P,J1,13*%
%TO.N,Net-(J1-Pad13)*%
X166510000Y-96475000D03*
%TO.P,J1,14*%
%TO.N,Net-(J1-Pad14)*%
X166510000Y-99015000D03*
%TO.P,J1,15*%
%TO.N,Net-(J1-Pad15)*%
X163970000Y-96475000D03*
%TO.P,J1,16*%
%TO.N,Net-(J1-Pad16)*%
X163970000Y-99015000D03*
%TO.P,J1,17*%
%TO.N,Net-(J1-Pad17)*%
X161430000Y-96475000D03*
%TO.P,J1,18*%
%TO.N,Net-(J1-Pad18)*%
X161430000Y-99015000D03*
%TO.P,J1,19*%
%TO.N,GPIO_PC0*%
X158890000Y-96475000D03*
%TO.P,J1,20*%
%TO.N,GPIO_PC1*%
X158890000Y-99015000D03*
%TO.P,J1,21*%
%TO.N,GPIO_PC2*%
X156350000Y-96475000D03*
%TO.P,J1,22*%
%TO.N,GPIO_PC3*%
X156350000Y-99015000D03*
%TO.P,J1,23*%
%TO.N,GPIO_PC4*%
X153810000Y-96475000D03*
%TO.P,J1,24*%
%TO.N,GPIO_PC5*%
X153810000Y-99015000D03*
%TO.P,J1,25*%
%TO.N,GPIO_PC6*%
X151270000Y-96475000D03*
%TO.P,J1,26*%
%TO.N,GPIO_PC7*%
X151270000Y-99015000D03*
%TO.P,J1,27*%
%TO.N,Net-(J1-Pad27)*%
X148730000Y-96475000D03*
%TO.P,J1,28*%
%TO.N,Net-(J1-Pad28)*%
X148730000Y-99015000D03*
%TO.P,J1,29*%
%TO.N,Net-(J1-Pad29)*%
X146190000Y-96475000D03*
%TO.P,J1,30*%
%TO.N,Net-(J1-Pad30)*%
X146190000Y-99015000D03*
%TO.P,J1,31*%
%TO.N,Net-(J1-Pad31)*%
X143650000Y-96475000D03*
%TO.P,J1,32*%
%TO.N,Net-(J1-Pad32)*%
X143650000Y-99015000D03*
%TO.P,J1,33*%
%TO.N,Net-(J1-Pad33)*%
X141110000Y-96475000D03*
%TO.P,J1,34*%
%TO.N,Net-(J1-Pad34)*%
X141110000Y-99015000D03*
%TO.P,J1,35*%
%TO.N,GND*%
X138570000Y-96475000D03*
%TO.P,J1,36*%
%TO.N,3.3V*%
X138570000Y-99015000D03*
%TO.P,J1,37*%
%TO.N,Net-(J1-Pad37)*%
X136030000Y-96475000D03*
%TO.P,J1,38*%
%TO.N,Net-(J1-Pad38)*%
X136030000Y-99015000D03*
%TD*%
D12*
%TO.P,R0,2*%
%TO.N,Net-(R0-Pad2)*%
X169050000Y-92935000D03*
D13*
%TO.P,R0,1*%
%TO.N,GPIO_PC0*%
X176670000Y-92935000D03*
%TD*%
%TO.P,R1,1*%
%TO.N,GPIO_PC1*%
X176670000Y-89735000D03*
D12*
%TO.P,R1,2*%
%TO.N,Net-(R1-Pad2)*%
X169050000Y-89735000D03*
%TD*%
%TO.P,R2,2*%
%TO.N,Net-(R2-Pad2)*%
X169050000Y-105755000D03*
D13*
%TO.P,R2,1*%
%TO.N,GPIO_PC2*%
X176670000Y-105755000D03*
%TD*%
%TO.P,R3,1*%
%TO.N,GPIO_PC3*%
X141110000Y-105755000D03*
D12*
%TO.P,R3,2*%
%TO.N,Net-(R3-Pad2)*%
X148730000Y-105755000D03*
%TD*%
%TO.P,R4,2*%
%TO.N,Net-(R4-Pad2)*%
X148730000Y-102555000D03*
D13*
%TO.P,R4,1*%
%TO.N,GPIO_PC4*%
X141110000Y-102555000D03*
%TD*%
%TO.P,R5,1*%
%TO.N,GPIO_PC5*%
X141110000Y-92935000D03*
D12*
%TO.P,R5,2*%
%TO.N,Net-(R5-Pad2)*%
X148730000Y-92935000D03*
%TD*%
%TO.P,R6,2*%
%TO.N,Net-(R6-Pad2)*%
X148730000Y-89735000D03*
D13*
%TO.P,R6,1*%
%TO.N,GPIO_PC6*%
X141110000Y-89735000D03*
%TD*%
%TO.P,R7,1*%
%TO.N,GPIO_PC7*%
X176670000Y-102555000D03*
D12*
%TO.P,R7,2*%
%TO.N,Net-(R7-Pad2)*%
X169050000Y-102555000D03*
%TD*%
D14*
%TO.P,U1,10*%
%TO.N,Net-(R6-Pad2)*%
X153810000Y-90485000D03*
%TO.P,U1,9*%
%TO.N,Net-(R5-Pad2)*%
X156350000Y-90485000D03*
%TO.P,U1,8*%
%TO.N,Net-(JP1-Pad2)*%
X158890000Y-90485000D03*
%TO.P,U1,7*%
%TO.N,Net-(R0-Pad2)*%
X161430000Y-90485000D03*
%TO.P,U1,6*%
%TO.N,Net-(R1-Pad2)*%
X163970000Y-90485000D03*
%TO.P,U1,5*%
%TO.N,Net-(R7-Pad2)*%
X163970000Y-105725000D03*
%TO.P,U1,4*%
%TO.N,Net-(R2-Pad2)*%
X161430000Y-105725000D03*
%TO.P,U1,3*%
%TO.N,Net-(JP1-Pad2)*%
X158890000Y-105725000D03*
%TO.P,U1,2*%
%TO.N,Net-(R3-Pad2)*%
X156350000Y-105725000D03*
D15*
%TO.P,U1,1*%
%TO.N,Net-(R4-Pad2)*%
X153810000Y-105725000D03*
%TD*%
D16*
%TO.P,JP1,3*%
%TO.N,GND*%
X160175000Y-102475000D03*
%TO.P,JP1,2*%
%TO.N,Net-(JP1-Pad2)*%
X158875000Y-102475000D03*
%TO.P,JP1,1*%
%TO.N,3.3V*%
X157575000Y-102475000D03*
%TD*%
D17*
%TO.N,GPIO_PC0*%
X158890000Y-96475000D02*
X160965000Y-94400000D01*
X175205000Y-94400000D02*
X176670000Y-92935000D01*
X160965000Y-94400000D02*
X175205000Y-94400000D01*
%TO.N,GPIO_PC4*%
X141110000Y-102555000D02*
X143190011Y-100474989D01*
X143190011Y-100474989D02*
X154089013Y-100474989D01*
X154089013Y-100474989D02*
X154985001Y-99579001D01*
X154985001Y-99579001D02*
X154985001Y-97650001D01*
X154985001Y-97650001D02*
X153810000Y-96475000D01*
%TO.N,GPIO_PC5*%
X152634999Y-97839999D02*
X153810000Y-99015000D01*
X150094999Y-97228999D02*
X150705999Y-97839999D01*
X150094999Y-96100997D02*
X150094999Y-97228999D01*
X149294001Y-95299999D02*
X150094999Y-96100997D01*
X150705999Y-97839999D02*
X152634999Y-97839999D01*
X143474999Y-95299999D02*
X149294001Y-95299999D01*
X141110000Y-92935000D02*
X143474999Y-95299999D01*
%TO.N,GPIO_PC6*%
X141110000Y-89735000D02*
X143310000Y-89735000D01*
X143310000Y-89735000D02*
X148350000Y-94775000D01*
X149570000Y-94775000D02*
X151270000Y-96475000D01*
X148350000Y-94775000D02*
X149570000Y-94775000D01*
%TO.N,GPIO_PC3*%
X154440000Y-100925000D02*
X156350000Y-99015000D01*
X145940000Y-100925000D02*
X154440000Y-100925000D01*
X141110000Y-105755000D02*
X145940000Y-100925000D01*
D18*
%TO.N,3.3V*%
X138400000Y-99185000D02*
X138570000Y-99015000D01*
D19*
X139600000Y-107250000D02*
X138400000Y-106050000D01*
X143500000Y-107250000D02*
X139600000Y-107250000D01*
X146944999Y-103805001D02*
X143500000Y-107250000D01*
X138400000Y-106050000D02*
X138400000Y-99185000D01*
X149494999Y-103805001D02*
X146944999Y-103805001D01*
X150825000Y-102475000D02*
X149494999Y-103805001D01*
X157575000Y-102475000D02*
X150825000Y-102475000D01*
D17*
%TO.N,Net-(R0-Pad2)*%
X163880000Y-92935000D02*
X169050000Y-92935000D01*
X161430000Y-90485000D02*
X163880000Y-92935000D01*
%TO.N,Net-(R1-Pad2)*%
X168300000Y-90485000D02*
X169050000Y-89735000D01*
X163970000Y-90485000D02*
X168300000Y-90485000D01*
%TO.N,Net-(R2-Pad2)*%
X163017010Y-107312010D02*
X161430000Y-105725000D01*
X167492990Y-107312010D02*
X163017010Y-107312010D01*
X169050000Y-105755000D02*
X167492990Y-107312010D01*
%TO.N,Net-(R5-Pad2)*%
X153900000Y-92935000D02*
X156350000Y-90485000D01*
X148730000Y-92935000D02*
X153900000Y-92935000D01*
%TO.N,Net-(R6-Pad2)*%
X153060000Y-89735000D02*
X153810000Y-90485000D01*
X148730000Y-89735000D02*
X153060000Y-89735000D01*
%TO.N,Net-(R7-Pad2)*%
X167140000Y-102555000D02*
X163970000Y-105725000D01*
X169050000Y-102555000D02*
X167140000Y-102555000D01*
D18*
%TO.N,Net-(JP1-Pad2)*%
X158875000Y-105710000D02*
X158890000Y-105725000D01*
D19*
X158875000Y-102475000D02*
X158875000Y-105710000D01*
X157639999Y-91735001D02*
X158890000Y-90485000D01*
X157639999Y-99615001D02*
X157639999Y-91735001D01*
X158875000Y-100850002D02*
X157639999Y-99615001D01*
X158875000Y-102475000D02*
X158875000Y-100850002D01*
%TD*%
D20*
%TO.N,GND*%
X185605000Y-89584606D02*
X185605001Y-106940393D01*
X184230394Y-108315000D01*
X135269606Y-108315000D01*
X134715000Y-107760394D01*
X134715000Y-99719893D01*
X134876525Y-99961632D01*
X135083368Y-100168475D01*
X135326589Y-100330990D01*
X135596842Y-100442932D01*
X135883740Y-100500000D01*
X136176260Y-100500000D01*
X136463158Y-100442932D01*
X136733411Y-100330990D01*
X136976632Y-100168475D01*
X137183475Y-99961632D01*
X137300000Y-99787240D01*
X137416525Y-99961632D01*
X137565001Y-100110108D01*
X137565000Y-106008981D01*
X137560960Y-106050000D01*
X137565000Y-106091018D01*
X137577082Y-106213688D01*
X137624828Y-106371086D01*
X137702364Y-106516145D01*
X137806709Y-106643291D01*
X137838579Y-106669446D01*
X138980558Y-107811426D01*
X139006709Y-107843291D01*
X139133854Y-107947636D01*
X139278913Y-108025172D01*
X139436311Y-108072918D01*
X139558981Y-108085000D01*
X139558991Y-108085000D01*
X139599999Y-108089039D01*
X139641007Y-108085000D01*
X143458982Y-108085000D01*
X143500000Y-108089040D01*
X143541018Y-108085000D01*
X143541019Y-108085000D01*
X143663689Y-108072918D01*
X143821087Y-108025172D01*
X143966146Y-107947636D01*
X144093291Y-107843291D01*
X144119446Y-107811421D01*
X147290867Y-104640001D01*
X147815783Y-104640001D01*
X147815241Y-104640363D01*
X147615363Y-104840241D01*
X147458320Y-105075273D01*
X147350147Y-105336426D01*
X147295000Y-105613665D01*
X147295000Y-105896335D01*
X147350147Y-106173574D01*
X147458320Y-106434727D01*
X147615363Y-106669759D01*
X147815241Y-106869637D01*
X148050273Y-107026680D01*
X148311426Y-107134853D01*
X148588665Y-107190000D01*
X148871335Y-107190000D01*
X149148574Y-107134853D01*
X149409727Y-107026680D01*
X149644759Y-106869637D01*
X149844637Y-106669759D01*
X150001680Y-106434727D01*
X150109853Y-106173574D01*
X150165000Y-105896335D01*
X150165000Y-105613665D01*
X150109853Y-105336426D01*
X150001680Y-105075273D01*
X149844637Y-104840241D01*
X149644759Y-104640363D01*
X149630317Y-104630713D01*
X149658688Y-104627919D01*
X149816086Y-104580173D01*
X149961145Y-104502637D01*
X150088290Y-104398292D01*
X150114445Y-104366422D01*
X151170868Y-103310000D01*
X156445299Y-103310000D01*
X156449188Y-103349482D01*
X156485498Y-103469180D01*
X156544463Y-103579494D01*
X156623815Y-103676185D01*
X156720506Y-103755537D01*
X156830820Y-103814502D01*
X156950518Y-103850812D01*
X157075000Y-103863072D01*
X158040000Y-103863072D01*
X158040001Y-104115357D01*
X157897392Y-104232393D01*
X157722817Y-104445114D01*
X157620000Y-104637471D01*
X157517183Y-104445113D01*
X157342607Y-104232392D01*
X157129886Y-104057817D01*
X156887194Y-103928096D01*
X156623859Y-103848214D01*
X156350000Y-103821241D01*
X156076140Y-103848214D01*
X155812805Y-103928096D01*
X155570113Y-104057817D01*
X155357392Y-104232393D01*
X155205579Y-104417379D01*
X155197812Y-104338518D01*
X155161502Y-104218820D01*
X155102537Y-104108506D01*
X155023185Y-104011815D01*
X154926494Y-103932463D01*
X154816180Y-103873498D01*
X154696482Y-103837188D01*
X154572000Y-103824928D01*
X153048000Y-103824928D01*
X152923518Y-103837188D01*
X152803820Y-103873498D01*
X152693506Y-103932463D01*
X152596815Y-104011815D01*
X152517463Y-104108506D01*
X152458498Y-104218820D01*
X152422188Y-104338518D01*
X152409928Y-104463000D01*
X152409928Y-106987000D01*
X152422188Y-107111482D01*
X152458498Y-107231180D01*
X152517463Y-107341494D01*
X152596815Y-107438185D01*
X152693506Y-107517537D01*
X152803820Y-107576502D01*
X152923518Y-107612812D01*
X153048000Y-107625072D01*
X154572000Y-107625072D01*
X154696482Y-107612812D01*
X154816180Y-107576502D01*
X154926494Y-107517537D01*
X155023185Y-107438185D01*
X155102537Y-107341494D01*
X155161502Y-107231180D01*
X155197812Y-107111482D01*
X155205579Y-107032622D01*
X155357393Y-107217608D01*
X155570114Y-107392183D01*
X155812806Y-107521904D01*
X156076141Y-107601786D01*
X156350000Y-107628759D01*
X156623860Y-107601786D01*
X156887195Y-107521904D01*
X157129887Y-107392183D01*
X157342608Y-107217608D01*
X157517183Y-107004887D01*
X157620000Y-106812529D01*
X157722817Y-107004887D01*
X157897393Y-107217608D01*
X158110114Y-107392183D01*
X158352806Y-107521904D01*
X158616141Y-107601786D01*
X158890000Y-107628759D01*
X159163860Y-107601786D01*
X159427195Y-107521904D01*
X159669887Y-107392183D01*
X159882608Y-107217608D01*
X160057183Y-107004887D01*
X160160000Y-106812529D01*
X160262817Y-107004887D01*
X160437393Y-107217608D01*
X160650114Y-107392183D01*
X160892806Y-107521904D01*
X161156141Y-107601786D01*
X161430000Y-107628759D01*
X161703860Y-107601786D01*
X161967195Y-107521904D01*
X162087694Y-107457496D01*
X162453211Y-107823013D01*
X162477009Y-107852011D01*
X162506007Y-107875809D01*
X162592733Y-107946984D01*
X162724763Y-108017556D01*
X162868024Y-108061013D01*
X162979677Y-108072010D01*
X162979686Y-108072010D01*
X163017009Y-108075686D01*
X163054332Y-108072010D01*
X167455668Y-108072010D01*
X167492990Y-108075686D01*
X167530312Y-108072010D01*
X167530323Y-108072010D01*
X167641976Y-108061013D01*
X167785237Y-108017556D01*
X167917266Y-107946984D01*
X168032991Y-107852011D01*
X168056794Y-107823007D01*
X168726114Y-107153688D01*
X168908665Y-107190000D01*
X169191335Y-107190000D01*
X169468574Y-107134853D01*
X169729727Y-107026680D01*
X169964759Y-106869637D01*
X170164637Y-106669759D01*
X170321680Y-106434727D01*
X170429853Y-106173574D01*
X170485000Y-105896335D01*
X170485000Y-105613665D01*
X175235000Y-105613665D01*
X175235000Y-105896335D01*
X175290147Y-106173574D01*
X175398320Y-106434727D01*
X175555363Y-106669759D01*
X175755241Y-106869637D01*
X175990273Y-107026680D01*
X176251426Y-107134853D01*
X176528665Y-107190000D01*
X176811335Y-107190000D01*
X177088574Y-107134853D01*
X177349727Y-107026680D01*
X177584759Y-106869637D01*
X177784637Y-106669759D01*
X177941680Y-106434727D01*
X178049853Y-106173574D01*
X178105000Y-105896335D01*
X178105000Y-105613665D01*
X178049853Y-105336426D01*
X177941680Y-105075273D01*
X177784637Y-104840241D01*
X177584759Y-104640363D01*
X177349727Y-104483320D01*
X177088574Y-104375147D01*
X176811335Y-104320000D01*
X176528665Y-104320000D01*
X176251426Y-104375147D01*
X175990273Y-104483320D01*
X175755241Y-104640363D01*
X175555363Y-104840241D01*
X175398320Y-105075273D01*
X175290147Y-105336426D01*
X175235000Y-105613665D01*
X170485000Y-105613665D01*
X170429853Y-105336426D01*
X170321680Y-105075273D01*
X170164637Y-104840241D01*
X169964759Y-104640363D01*
X169729727Y-104483320D01*
X169468574Y-104375147D01*
X169191335Y-104320000D01*
X168908665Y-104320000D01*
X168631426Y-104375147D01*
X168370273Y-104483320D01*
X168135241Y-104640363D01*
X167935363Y-104840241D01*
X167778320Y-105075273D01*
X167670147Y-105336426D01*
X167615000Y-105613665D01*
X167615000Y-105896335D01*
X167651312Y-106078886D01*
X167178189Y-106552010D01*
X165330663Y-106552010D01*
X165346786Y-106498860D01*
X165367000Y-106293625D01*
X165367000Y-105402801D01*
X167454802Y-103315000D01*
X167831957Y-103315000D01*
X167935363Y-103469759D01*
X168135241Y-103669637D01*
X168370273Y-103826680D01*
X168631426Y-103934853D01*
X168908665Y-103990000D01*
X169191335Y-103990000D01*
X169468574Y-103934853D01*
X169729727Y-103826680D01*
X169964759Y-103669637D01*
X170164637Y-103469759D01*
X170321680Y-103234727D01*
X170429853Y-102973574D01*
X170485000Y-102696335D01*
X170485000Y-102413665D01*
X175235000Y-102413665D01*
X175235000Y-102696335D01*
X175290147Y-102973574D01*
X175398320Y-103234727D01*
X175555363Y-103469759D01*
X175755241Y-103669637D01*
X175990273Y-103826680D01*
X176251426Y-103934853D01*
X176528665Y-103990000D01*
X176811335Y-103990000D01*
X177088574Y-103934853D01*
X177349727Y-103826680D01*
X177584759Y-103669637D01*
X177784637Y-103469759D01*
X177941680Y-103234727D01*
X178049853Y-102973574D01*
X178105000Y-102696335D01*
X178105000Y-102413665D01*
X178049853Y-102136426D01*
X177941680Y-101875273D01*
X177784637Y-101640241D01*
X177584759Y-101440363D01*
X177349727Y-101283320D01*
X177088574Y-101175147D01*
X176811335Y-101120000D01*
X176528665Y-101120000D01*
X176251426Y-101175147D01*
X175990273Y-101283320D01*
X175755241Y-101440363D01*
X175555363Y-101640241D01*
X175398320Y-101875273D01*
X175290147Y-102136426D01*
X175235000Y-102413665D01*
X170485000Y-102413665D01*
X170429853Y-102136426D01*
X170321680Y-101875273D01*
X170164637Y-101640241D01*
X169964759Y-101440363D01*
X169729727Y-101283320D01*
X169468574Y-101175147D01*
X169191335Y-101120000D01*
X168908665Y-101120000D01*
X168631426Y-101175147D01*
X168370273Y-101283320D01*
X168135241Y-101440363D01*
X167935363Y-101640241D01*
X167831957Y-101795000D01*
X167177322Y-101795000D01*
X167140000Y-101791324D01*
X167102677Y-101795000D01*
X167102667Y-101795000D01*
X166991014Y-101805997D01*
X166847753Y-101849454D01*
X166715723Y-101920026D01*
X166632083Y-101988668D01*
X166599999Y-102014999D01*
X166576201Y-102043997D01*
X164627694Y-103992504D01*
X164507194Y-103928096D01*
X164243859Y-103848214D01*
X163970000Y-103821241D01*
X163696140Y-103848214D01*
X163432805Y-103928096D01*
X163190113Y-104057817D01*
X162977392Y-104232393D01*
X162802817Y-104445114D01*
X162700000Y-104637471D01*
X162597183Y-104445113D01*
X162422607Y-104232392D01*
X162209886Y-104057817D01*
X161967194Y-103928096D01*
X161703859Y-103848214D01*
X161430000Y-103821241D01*
X161156140Y-103848214D01*
X160892805Y-103928096D01*
X160650113Y-104057817D01*
X160437392Y-104232393D01*
X160262817Y-104445114D01*
X160160000Y-104637471D01*
X160057183Y-104445113D01*
X159882607Y-104232392D01*
X159710000Y-104090738D01*
X159710000Y-103862570D01*
X159889250Y-103860000D01*
X160048000Y-103701250D01*
X160048000Y-102602000D01*
X160302000Y-102602000D01*
X160302000Y-103701250D01*
X160460750Y-103860000D01*
X160675000Y-103863072D01*
X160799482Y-103850812D01*
X160919180Y-103814502D01*
X161029494Y-103755537D01*
X161126185Y-103676185D01*
X161205537Y-103579494D01*
X161264502Y-103469180D01*
X161300812Y-103349482D01*
X161313072Y-103225000D01*
X161310000Y-102760750D01*
X161151250Y-102602000D01*
X160302000Y-102602000D01*
X160048000Y-102602000D01*
X160028000Y-102602000D01*
X160028000Y-102348000D01*
X160048000Y-102348000D01*
X160048000Y-101248750D01*
X160302000Y-101248750D01*
X160302000Y-102348000D01*
X161151250Y-102348000D01*
X161310000Y-102189250D01*
X161313072Y-101725000D01*
X161300812Y-101600518D01*
X161264502Y-101480820D01*
X161205537Y-101370506D01*
X161126185Y-101273815D01*
X161029494Y-101194463D01*
X160919180Y-101135498D01*
X160799482Y-101099188D01*
X160675000Y-101086928D01*
X160460750Y-101090000D01*
X160302000Y-101248750D01*
X160048000Y-101248750D01*
X159889250Y-101090000D01*
X159710000Y-101087430D01*
X159710000Y-100891020D01*
X159714040Y-100850001D01*
X159697918Y-100686313D01*
X159650172Y-100528915D01*
X159572636Y-100383856D01*
X159545527Y-100350824D01*
X159593411Y-100330990D01*
X159836632Y-100168475D01*
X160043475Y-99961632D01*
X160160000Y-99787240D01*
X160276525Y-99961632D01*
X160483368Y-100168475D01*
X160726589Y-100330990D01*
X160996842Y-100442932D01*
X161283740Y-100500000D01*
X161576260Y-100500000D01*
X161863158Y-100442932D01*
X162133411Y-100330990D01*
X162376632Y-100168475D01*
X162583475Y-99961632D01*
X162700000Y-99787240D01*
X162816525Y-99961632D01*
X163023368Y-100168475D01*
X163266589Y-100330990D01*
X163536842Y-100442932D01*
X163823740Y-100500000D01*
X164116260Y-100500000D01*
X164403158Y-100442932D01*
X164673411Y-100330990D01*
X164916632Y-100168475D01*
X165123475Y-99961632D01*
X165240000Y-99787240D01*
X165356525Y-99961632D01*
X165563368Y-100168475D01*
X165806589Y-100330990D01*
X166076842Y-100442932D01*
X166363740Y-100500000D01*
X166656260Y-100500000D01*
X166943158Y-100442932D01*
X167213411Y-100330990D01*
X167456632Y-100168475D01*
X167663475Y-99961632D01*
X167780000Y-99787240D01*
X167896525Y-99961632D01*
X168103368Y-100168475D01*
X168346589Y-100330990D01*
X168616842Y-100442932D01*
X168903740Y-100500000D01*
X169196260Y-100500000D01*
X169483158Y-100442932D01*
X169753411Y-100330990D01*
X169996632Y-100168475D01*
X170203475Y-99961632D01*
X170320000Y-99787240D01*
X170436525Y-99961632D01*
X170643368Y-100168475D01*
X170886589Y-100330990D01*
X171156842Y-100442932D01*
X171443740Y-100500000D01*
X171736260Y-100500000D01*
X172023158Y-100442932D01*
X172293411Y-100330990D01*
X172536632Y-100168475D01*
X172743475Y-99961632D01*
X172860000Y-99787240D01*
X172976525Y-99961632D01*
X173183368Y-100168475D01*
X173426589Y-100330990D01*
X173696842Y-100442932D01*
X173983740Y-100500000D01*
X174276260Y-100500000D01*
X174563158Y-100442932D01*
X174833411Y-100330990D01*
X175076632Y-100168475D01*
X175283475Y-99961632D01*
X175400000Y-99787240D01*
X175516525Y-99961632D01*
X175723368Y-100168475D01*
X175966589Y-100330990D01*
X176236842Y-100442932D01*
X176523740Y-100500000D01*
X176816260Y-100500000D01*
X177103158Y-100442932D01*
X177373411Y-100330990D01*
X177616632Y-100168475D01*
X177823475Y-99961632D01*
X177940000Y-99787240D01*
X178056525Y-99961632D01*
X178263368Y-100168475D01*
X178506589Y-100330990D01*
X178776842Y-100442932D01*
X179063740Y-100500000D01*
X179356260Y-100500000D01*
X179643158Y-100442932D01*
X179913411Y-100330990D01*
X180156632Y-100168475D01*
X180363475Y-99961632D01*
X180480000Y-99787240D01*
X180596525Y-99961632D01*
X180803368Y-100168475D01*
X181046589Y-100330990D01*
X181316842Y-100442932D01*
X181603740Y-100500000D01*
X181896260Y-100500000D01*
X182183158Y-100442932D01*
X182453411Y-100330990D01*
X182696632Y-100168475D01*
X182903475Y-99961632D01*
X183065990Y-99718411D01*
X183177932Y-99448158D01*
X183235000Y-99161260D01*
X183235000Y-98868740D01*
X183177932Y-98581842D01*
X183065990Y-98311589D01*
X182903475Y-98068368D01*
X182771620Y-97936513D01*
X182844180Y-97914502D01*
X182954494Y-97855537D01*
X183051185Y-97776185D01*
X183130537Y-97679494D01*
X183189502Y-97569180D01*
X183225812Y-97449482D01*
X183238072Y-97325000D01*
X183238072Y-95625000D01*
X183225812Y-95500518D01*
X183189502Y-95380820D01*
X183130537Y-95270506D01*
X183051185Y-95173815D01*
X182954494Y-95094463D01*
X182844180Y-95035498D01*
X182724482Y-94999188D01*
X182600000Y-94986928D01*
X180900000Y-94986928D01*
X180775518Y-94999188D01*
X180655820Y-95035498D01*
X180545506Y-95094463D01*
X180448815Y-95173815D01*
X180369463Y-95270506D01*
X180310498Y-95380820D01*
X180288487Y-95453380D01*
X180156632Y-95321525D01*
X179913411Y-95159010D01*
X179643158Y-95047068D01*
X179356260Y-94990000D01*
X179063740Y-94990000D01*
X178776842Y-95047068D01*
X178506589Y-95159010D01*
X178263368Y-95321525D01*
X178056525Y-95528368D01*
X177934805Y-95710534D01*
X177865178Y-95593645D01*
X177670269Y-95377412D01*
X177436920Y-95203359D01*
X177174099Y-95078175D01*
X177026890Y-95033524D01*
X176797000Y-95154845D01*
X176797000Y-96348000D01*
X176817000Y-96348000D01*
X176817000Y-96602000D01*
X176797000Y-96602000D01*
X176797000Y-96622000D01*
X176543000Y-96622000D01*
X176543000Y-96602000D01*
X174257000Y-96602000D01*
X174257000Y-96622000D01*
X174003000Y-96622000D01*
X174003000Y-96602000D01*
X173983000Y-96602000D01*
X173983000Y-96348000D01*
X174003000Y-96348000D01*
X174003000Y-96328000D01*
X174257000Y-96328000D01*
X174257000Y-96348000D01*
X176543000Y-96348000D01*
X176543000Y-95154845D01*
X176313110Y-95033524D01*
X176165901Y-95078175D01*
X175903080Y-95203359D01*
X175669731Y-95377412D01*
X175474822Y-95593645D01*
X175400000Y-95719255D01*
X175325178Y-95593645D01*
X175130269Y-95377412D01*
X174896920Y-95203359D01*
X174805889Y-95160000D01*
X175167678Y-95160000D01*
X175205000Y-95163676D01*
X175242322Y-95160000D01*
X175242333Y-95160000D01*
X175353986Y-95149003D01*
X175497247Y-95105546D01*
X175629276Y-95034974D01*
X175745001Y-94940001D01*
X175768804Y-94910997D01*
X176346114Y-94333688D01*
X176528665Y-94370000D01*
X176811335Y-94370000D01*
X177088574Y-94314853D01*
X177349727Y-94206680D01*
X177584759Y-94049637D01*
X177784637Y-93849759D01*
X177941680Y-93614727D01*
X178049853Y-93353574D01*
X178105000Y-93076335D01*
X178105000Y-92793665D01*
X178049853Y-92516426D01*
X177941680Y-92255273D01*
X177784637Y-92020241D01*
X177584759Y-91820363D01*
X177349727Y-91663320D01*
X177088574Y-91555147D01*
X176811335Y-91500000D01*
X176528665Y-91500000D01*
X176251426Y-91555147D01*
X175990273Y-91663320D01*
X175755241Y-91820363D01*
X175555363Y-92020241D01*
X175398320Y-92255273D01*
X175290147Y-92516426D01*
X175235000Y-92793665D01*
X175235000Y-93076335D01*
X175271312Y-93258886D01*
X174890199Y-93640000D01*
X170304793Y-93640000D01*
X170321680Y-93614727D01*
X170429853Y-93353574D01*
X170485000Y-93076335D01*
X170485000Y-92793665D01*
X170429853Y-92516426D01*
X170321680Y-92255273D01*
X170164637Y-92020241D01*
X169964759Y-91820363D01*
X169729727Y-91663320D01*
X169468574Y-91555147D01*
X169191335Y-91500000D01*
X168908665Y-91500000D01*
X168631426Y-91555147D01*
X168370273Y-91663320D01*
X168135241Y-91820363D01*
X167935363Y-92020241D01*
X167831957Y-92175000D01*
X164707199Y-92175000D01*
X164749887Y-92152183D01*
X164962608Y-91977608D01*
X165137183Y-91764887D01*
X165266904Y-91522195D01*
X165346786Y-91258860D01*
X165348151Y-91245000D01*
X168262678Y-91245000D01*
X168300000Y-91248676D01*
X168337322Y-91245000D01*
X168337333Y-91245000D01*
X168448986Y-91234003D01*
X168592247Y-91190546D01*
X168706076Y-91129702D01*
X168908665Y-91170000D01*
X169191335Y-91170000D01*
X169468574Y-91114853D01*
X169729727Y-91006680D01*
X169964759Y-90849637D01*
X170164637Y-90649759D01*
X170321680Y-90414727D01*
X170429853Y-90153574D01*
X170485000Y-89876335D01*
X170485000Y-89593665D01*
X175235000Y-89593665D01*
X175235000Y-89876335D01*
X175290147Y-90153574D01*
X175398320Y-90414727D01*
X175555363Y-90649759D01*
X175755241Y-90849637D01*
X175990273Y-91006680D01*
X176251426Y-91114853D01*
X176528665Y-91170000D01*
X176811335Y-91170000D01*
X177088574Y-91114853D01*
X177349727Y-91006680D01*
X177584759Y-90849637D01*
X177784637Y-90649759D01*
X177941680Y-90414727D01*
X178049853Y-90153574D01*
X178105000Y-89876335D01*
X178105000Y-89593665D01*
X178049853Y-89316426D01*
X177941680Y-89055273D01*
X177784637Y-88820241D01*
X177584759Y-88620363D01*
X177349727Y-88463320D01*
X177088574Y-88355147D01*
X176811335Y-88300000D01*
X176528665Y-88300000D01*
X176251426Y-88355147D01*
X175990273Y-88463320D01*
X175755241Y-88620363D01*
X175555363Y-88820241D01*
X175398320Y-89055273D01*
X175290147Y-89316426D01*
X175235000Y-89593665D01*
X170485000Y-89593665D01*
X170429853Y-89316426D01*
X170321680Y-89055273D01*
X170164637Y-88820241D01*
X169964759Y-88620363D01*
X169729727Y-88463320D01*
X169468574Y-88355147D01*
X169191335Y-88300000D01*
X168908665Y-88300000D01*
X168631426Y-88355147D01*
X168370273Y-88463320D01*
X168135241Y-88620363D01*
X167935363Y-88820241D01*
X167778320Y-89055273D01*
X167670147Y-89316426D01*
X167615000Y-89593665D01*
X167615000Y-89725000D01*
X165348151Y-89725000D01*
X165346786Y-89711140D01*
X165266904Y-89447805D01*
X165137183Y-89205113D01*
X164962607Y-88992392D01*
X164749886Y-88817817D01*
X164507194Y-88688096D01*
X164243859Y-88608214D01*
X163970000Y-88581241D01*
X163696140Y-88608214D01*
X163432805Y-88688096D01*
X163190113Y-88817817D01*
X162977392Y-88992393D01*
X162802817Y-89205114D01*
X162700000Y-89397471D01*
X162597183Y-89205113D01*
X162422607Y-88992392D01*
X162209886Y-88817817D01*
X161967194Y-88688096D01*
X161703859Y-88608214D01*
X161430000Y-88581241D01*
X161156140Y-88608214D01*
X160892805Y-88688096D01*
X160650113Y-88817817D01*
X160437392Y-88992393D01*
X160262817Y-89205114D01*
X160160000Y-89397471D01*
X160057183Y-89205113D01*
X159882607Y-88992392D01*
X159669886Y-88817817D01*
X159427194Y-88688096D01*
X159163859Y-88608214D01*
X158890000Y-88581241D01*
X158616140Y-88608214D01*
X158352805Y-88688096D01*
X158110113Y-88817817D01*
X157897392Y-88992393D01*
X157722817Y-89205114D01*
X157620000Y-89397471D01*
X157517183Y-89205113D01*
X157342607Y-88992392D01*
X157129886Y-88817817D01*
X156887194Y-88688096D01*
X156623859Y-88608214D01*
X156350000Y-88581241D01*
X156076140Y-88608214D01*
X155812805Y-88688096D01*
X155570113Y-88817817D01*
X155357392Y-88992393D01*
X155182817Y-89205114D01*
X155080000Y-89397471D01*
X154977183Y-89205113D01*
X154802607Y-88992392D01*
X154589886Y-88817817D01*
X154347194Y-88688096D01*
X154083859Y-88608214D01*
X153810000Y-88581241D01*
X153536140Y-88608214D01*
X153272805Y-88688096D01*
X153030113Y-88817817D01*
X152838585Y-88975000D01*
X149948043Y-88975000D01*
X149844637Y-88820241D01*
X149644759Y-88620363D01*
X149409727Y-88463320D01*
X149148574Y-88355147D01*
X148871335Y-88300000D01*
X148588665Y-88300000D01*
X148311426Y-88355147D01*
X148050273Y-88463320D01*
X147815241Y-88620363D01*
X147615363Y-88820241D01*
X147458320Y-89055273D01*
X147350147Y-89316426D01*
X147295000Y-89593665D01*
X147295000Y-89876335D01*
X147350147Y-90153574D01*
X147458320Y-90414727D01*
X147615363Y-90649759D01*
X147815241Y-90849637D01*
X148050273Y-91006680D01*
X148311426Y-91114853D01*
X148588665Y-91170000D01*
X148871335Y-91170000D01*
X149148574Y-91114853D01*
X149409727Y-91006680D01*
X149644759Y-90849637D01*
X149844637Y-90649759D01*
X149948043Y-90495000D01*
X152413000Y-90495000D01*
X152413000Y-91053625D01*
X152433214Y-91258860D01*
X152513096Y-91522195D01*
X152642817Y-91764887D01*
X152817393Y-91977608D01*
X153030114Y-92152183D01*
X153072802Y-92175000D01*
X149948043Y-92175000D01*
X149844637Y-92020241D01*
X149644759Y-91820363D01*
X149409727Y-91663320D01*
X149148574Y-91555147D01*
X148871335Y-91500000D01*
X148588665Y-91500000D01*
X148311426Y-91555147D01*
X148050273Y-91663320D01*
X147815241Y-91820363D01*
X147615363Y-92020241D01*
X147458320Y-92255273D01*
X147350147Y-92516426D01*
X147319632Y-92669831D01*
X143873804Y-89224003D01*
X143850001Y-89194999D01*
X143734276Y-89100026D01*
X143602247Y-89029454D01*
X143458986Y-88985997D01*
X143347333Y-88975000D01*
X143347322Y-88975000D01*
X143310000Y-88971324D01*
X143272678Y-88975000D01*
X142328043Y-88975000D01*
X142224637Y-88820241D01*
X142024759Y-88620363D01*
X141789727Y-88463320D01*
X141528574Y-88355147D01*
X141251335Y-88300000D01*
X140968665Y-88300000D01*
X140691426Y-88355147D01*
X140430273Y-88463320D01*
X140195241Y-88620363D01*
X139995363Y-88820241D01*
X139838320Y-89055273D01*
X139730147Y-89316426D01*
X139675000Y-89593665D01*
X139675000Y-89876335D01*
X139730147Y-90153574D01*
X139838320Y-90414727D01*
X139995363Y-90649759D01*
X140195241Y-90849637D01*
X140430273Y-91006680D01*
X140691426Y-91114853D01*
X140968665Y-91170000D01*
X141251335Y-91170000D01*
X141528574Y-91114853D01*
X141789727Y-91006680D01*
X142024759Y-90849637D01*
X142224637Y-90649759D01*
X142328043Y-90495000D01*
X142995199Y-90495000D01*
X147040197Y-94539999D01*
X143789801Y-94539999D01*
X142508688Y-93258886D01*
X142545000Y-93076335D01*
X142545000Y-92793665D01*
X142489853Y-92516426D01*
X142381680Y-92255273D01*
X142224637Y-92020241D01*
X142024759Y-91820363D01*
X141789727Y-91663320D01*
X141528574Y-91555147D01*
X141251335Y-91500000D01*
X140968665Y-91500000D01*
X140691426Y-91555147D01*
X140430273Y-91663320D01*
X140195241Y-91820363D01*
X139995363Y-92020241D01*
X139838320Y-92255273D01*
X139730147Y-92516426D01*
X139675000Y-92793665D01*
X139675000Y-93076335D01*
X139730147Y-93353574D01*
X139838320Y-93614727D01*
X139995363Y-93849759D01*
X140195241Y-94049637D01*
X140430273Y-94206680D01*
X140691426Y-94314853D01*
X140968665Y-94370000D01*
X141251335Y-94370000D01*
X141433886Y-94333688D01*
X142562546Y-95462347D01*
X142496525Y-95528368D01*
X142380000Y-95702760D01*
X142263475Y-95528368D01*
X142056632Y-95321525D01*
X141813411Y-95159010D01*
X141543158Y-95047068D01*
X141256260Y-94990000D01*
X140963740Y-94990000D01*
X140676842Y-95047068D01*
X140406589Y-95159010D01*
X140163368Y-95321525D01*
X139956525Y-95528368D01*
X139834805Y-95710534D01*
X139765178Y-95593645D01*
X139570269Y-95377412D01*
X139336920Y-95203359D01*
X139074099Y-95078175D01*
X138926890Y-95033524D01*
X138697000Y-95154845D01*
X138697000Y-96348000D01*
X138717000Y-96348000D01*
X138717000Y-96602000D01*
X138697000Y-96602000D01*
X138697000Y-96622000D01*
X138443000Y-96622000D01*
X138443000Y-96602000D01*
X138423000Y-96602000D01*
X138423000Y-96348000D01*
X138443000Y-96348000D01*
X138443000Y-95154845D01*
X138213110Y-95033524D01*
X138065901Y-95078175D01*
X137803080Y-95203359D01*
X137569731Y-95377412D01*
X137374822Y-95593645D01*
X137305195Y-95710534D01*
X137183475Y-95528368D01*
X136976632Y-95321525D01*
X136733411Y-95159010D01*
X136463158Y-95047068D01*
X136176260Y-94990000D01*
X135883740Y-94990000D01*
X135596842Y-95047068D01*
X135326589Y-95159010D01*
X135083368Y-95321525D01*
X134876525Y-95528368D01*
X134715000Y-95770107D01*
X134715000Y-88764606D01*
X135294606Y-88185000D01*
X184205394Y-88185000D01*
X185605000Y-89584606D01*
%TA.AperFunction,Conductor*%
D21*
G36*
X185605000Y-89584606D02*
G01*
X185605001Y-106940393D01*
X184230394Y-108315000D01*
X135269606Y-108315000D01*
X134715000Y-107760394D01*
X134715000Y-99719893D01*
X134876525Y-99961632D01*
X135083368Y-100168475D01*
X135326589Y-100330990D01*
X135596842Y-100442932D01*
X135883740Y-100500000D01*
X136176260Y-100500000D01*
X136463158Y-100442932D01*
X136733411Y-100330990D01*
X136976632Y-100168475D01*
X137183475Y-99961632D01*
X137300000Y-99787240D01*
X137416525Y-99961632D01*
X137565001Y-100110108D01*
X137565000Y-106008981D01*
X137560960Y-106050000D01*
X137565000Y-106091018D01*
X137577082Y-106213688D01*
X137624828Y-106371086D01*
X137702364Y-106516145D01*
X137806709Y-106643291D01*
X137838579Y-106669446D01*
X138980558Y-107811426D01*
X139006709Y-107843291D01*
X139133854Y-107947636D01*
X139278913Y-108025172D01*
X139436311Y-108072918D01*
X139558981Y-108085000D01*
X139558991Y-108085000D01*
X139599999Y-108089039D01*
X139641007Y-108085000D01*
X143458982Y-108085000D01*
X143500000Y-108089040D01*
X143541018Y-108085000D01*
X143541019Y-108085000D01*
X143663689Y-108072918D01*
X143821087Y-108025172D01*
X143966146Y-107947636D01*
X144093291Y-107843291D01*
X144119446Y-107811421D01*
X147290867Y-104640001D01*
X147815783Y-104640001D01*
X147815241Y-104640363D01*
X147615363Y-104840241D01*
X147458320Y-105075273D01*
X147350147Y-105336426D01*
X147295000Y-105613665D01*
X147295000Y-105896335D01*
X147350147Y-106173574D01*
X147458320Y-106434727D01*
X147615363Y-106669759D01*
X147815241Y-106869637D01*
X148050273Y-107026680D01*
X148311426Y-107134853D01*
X148588665Y-107190000D01*
X148871335Y-107190000D01*
X149148574Y-107134853D01*
X149409727Y-107026680D01*
X149644759Y-106869637D01*
X149844637Y-106669759D01*
X150001680Y-106434727D01*
X150109853Y-106173574D01*
X150165000Y-105896335D01*
X150165000Y-105613665D01*
X150109853Y-105336426D01*
X150001680Y-105075273D01*
X149844637Y-104840241D01*
X149644759Y-104640363D01*
X149630317Y-104630713D01*
X149658688Y-104627919D01*
X149816086Y-104580173D01*
X149961145Y-104502637D01*
X150088290Y-104398292D01*
X150114445Y-104366422D01*
X151170868Y-103310000D01*
X156445299Y-103310000D01*
X156449188Y-103349482D01*
X156485498Y-103469180D01*
X156544463Y-103579494D01*
X156623815Y-103676185D01*
X156720506Y-103755537D01*
X156830820Y-103814502D01*
X156950518Y-103850812D01*
X157075000Y-103863072D01*
X158040000Y-103863072D01*
X158040001Y-104115357D01*
X157897392Y-104232393D01*
X157722817Y-104445114D01*
X157620000Y-104637471D01*
X157517183Y-104445113D01*
X157342607Y-104232392D01*
X157129886Y-104057817D01*
X156887194Y-103928096D01*
X156623859Y-103848214D01*
X156350000Y-103821241D01*
X156076140Y-103848214D01*
X155812805Y-103928096D01*
X155570113Y-104057817D01*
X155357392Y-104232393D01*
X155205579Y-104417379D01*
X155197812Y-104338518D01*
X155161502Y-104218820D01*
X155102537Y-104108506D01*
X155023185Y-104011815D01*
X154926494Y-103932463D01*
X154816180Y-103873498D01*
X154696482Y-103837188D01*
X154572000Y-103824928D01*
X153048000Y-103824928D01*
X152923518Y-103837188D01*
X152803820Y-103873498D01*
X152693506Y-103932463D01*
X152596815Y-104011815D01*
X152517463Y-104108506D01*
X152458498Y-104218820D01*
X152422188Y-104338518D01*
X152409928Y-104463000D01*
X152409928Y-106987000D01*
X152422188Y-107111482D01*
X152458498Y-107231180D01*
X152517463Y-107341494D01*
X152596815Y-107438185D01*
X152693506Y-107517537D01*
X152803820Y-107576502D01*
X152923518Y-107612812D01*
X153048000Y-107625072D01*
X154572000Y-107625072D01*
X154696482Y-107612812D01*
X154816180Y-107576502D01*
X154926494Y-107517537D01*
X155023185Y-107438185D01*
X155102537Y-107341494D01*
X155161502Y-107231180D01*
X155197812Y-107111482D01*
X155205579Y-107032622D01*
X155357393Y-107217608D01*
X155570114Y-107392183D01*
X155812806Y-107521904D01*
X156076141Y-107601786D01*
X156350000Y-107628759D01*
X156623860Y-107601786D01*
X156887195Y-107521904D01*
X157129887Y-107392183D01*
X157342608Y-107217608D01*
X157517183Y-107004887D01*
X157620000Y-106812529D01*
X157722817Y-107004887D01*
X157897393Y-107217608D01*
X158110114Y-107392183D01*
X158352806Y-107521904D01*
X158616141Y-107601786D01*
X158890000Y-107628759D01*
X159163860Y-107601786D01*
X159427195Y-107521904D01*
X159669887Y-107392183D01*
X159882608Y-107217608D01*
X160057183Y-107004887D01*
X160160000Y-106812529D01*
X160262817Y-107004887D01*
X160437393Y-107217608D01*
X160650114Y-107392183D01*
X160892806Y-107521904D01*
X161156141Y-107601786D01*
X161430000Y-107628759D01*
X161703860Y-107601786D01*
X161967195Y-107521904D01*
X162087694Y-107457496D01*
X162453211Y-107823013D01*
X162477009Y-107852011D01*
X162506007Y-107875809D01*
X162592733Y-107946984D01*
X162724763Y-108017556D01*
X162868024Y-108061013D01*
X162979677Y-108072010D01*
X162979686Y-108072010D01*
X163017009Y-108075686D01*
X163054332Y-108072010D01*
X167455668Y-108072010D01*
X167492990Y-108075686D01*
X167530312Y-108072010D01*
X167530323Y-108072010D01*
X167641976Y-108061013D01*
X167785237Y-108017556D01*
X167917266Y-107946984D01*
X168032991Y-107852011D01*
X168056794Y-107823007D01*
X168726114Y-107153688D01*
X168908665Y-107190000D01*
X169191335Y-107190000D01*
X169468574Y-107134853D01*
X169729727Y-107026680D01*
X169964759Y-106869637D01*
X170164637Y-106669759D01*
X170321680Y-106434727D01*
X170429853Y-106173574D01*
X170485000Y-105896335D01*
X170485000Y-105613665D01*
X175235000Y-105613665D01*
X175235000Y-105896335D01*
X175290147Y-106173574D01*
X175398320Y-106434727D01*
X175555363Y-106669759D01*
X175755241Y-106869637D01*
X175990273Y-107026680D01*
X176251426Y-107134853D01*
X176528665Y-107190000D01*
X176811335Y-107190000D01*
X177088574Y-107134853D01*
X177349727Y-107026680D01*
X177584759Y-106869637D01*
X177784637Y-106669759D01*
X177941680Y-106434727D01*
X178049853Y-106173574D01*
X178105000Y-105896335D01*
X178105000Y-105613665D01*
X178049853Y-105336426D01*
X177941680Y-105075273D01*
X177784637Y-104840241D01*
X177584759Y-104640363D01*
X177349727Y-104483320D01*
X177088574Y-104375147D01*
X176811335Y-104320000D01*
X176528665Y-104320000D01*
X176251426Y-104375147D01*
X175990273Y-104483320D01*
X175755241Y-104640363D01*
X175555363Y-104840241D01*
X175398320Y-105075273D01*
X175290147Y-105336426D01*
X175235000Y-105613665D01*
X170485000Y-105613665D01*
X170429853Y-105336426D01*
X170321680Y-105075273D01*
X170164637Y-104840241D01*
X169964759Y-104640363D01*
X169729727Y-104483320D01*
X169468574Y-104375147D01*
X169191335Y-104320000D01*
X168908665Y-104320000D01*
X168631426Y-104375147D01*
X168370273Y-104483320D01*
X168135241Y-104640363D01*
X167935363Y-104840241D01*
X167778320Y-105075273D01*
X167670147Y-105336426D01*
X167615000Y-105613665D01*
X167615000Y-105896335D01*
X167651312Y-106078886D01*
X167178189Y-106552010D01*
X165330663Y-106552010D01*
X165346786Y-106498860D01*
X165367000Y-106293625D01*
X165367000Y-105402801D01*
X167454802Y-103315000D01*
X167831957Y-103315000D01*
X167935363Y-103469759D01*
X168135241Y-103669637D01*
X168370273Y-103826680D01*
X168631426Y-103934853D01*
X168908665Y-103990000D01*
X169191335Y-103990000D01*
X169468574Y-103934853D01*
X169729727Y-103826680D01*
X169964759Y-103669637D01*
X170164637Y-103469759D01*
X170321680Y-103234727D01*
X170429853Y-102973574D01*
X170485000Y-102696335D01*
X170485000Y-102413665D01*
X175235000Y-102413665D01*
X175235000Y-102696335D01*
X175290147Y-102973574D01*
X175398320Y-103234727D01*
X175555363Y-103469759D01*
X175755241Y-103669637D01*
X175990273Y-103826680D01*
X176251426Y-103934853D01*
X176528665Y-103990000D01*
X176811335Y-103990000D01*
X177088574Y-103934853D01*
X177349727Y-103826680D01*
X177584759Y-103669637D01*
X177784637Y-103469759D01*
X177941680Y-103234727D01*
X178049853Y-102973574D01*
X178105000Y-102696335D01*
X178105000Y-102413665D01*
X178049853Y-102136426D01*
X177941680Y-101875273D01*
X177784637Y-101640241D01*
X177584759Y-101440363D01*
X177349727Y-101283320D01*
X177088574Y-101175147D01*
X176811335Y-101120000D01*
X176528665Y-101120000D01*
X176251426Y-101175147D01*
X175990273Y-101283320D01*
X175755241Y-101440363D01*
X175555363Y-101640241D01*
X175398320Y-101875273D01*
X175290147Y-102136426D01*
X175235000Y-102413665D01*
X170485000Y-102413665D01*
X170429853Y-102136426D01*
X170321680Y-101875273D01*
X170164637Y-101640241D01*
X169964759Y-101440363D01*
X169729727Y-101283320D01*
X169468574Y-101175147D01*
X169191335Y-101120000D01*
X168908665Y-101120000D01*
X168631426Y-101175147D01*
X168370273Y-101283320D01*
X168135241Y-101440363D01*
X167935363Y-101640241D01*
X167831957Y-101795000D01*
X167177322Y-101795000D01*
X167140000Y-101791324D01*
X167102677Y-101795000D01*
X167102667Y-101795000D01*
X166991014Y-101805997D01*
X166847753Y-101849454D01*
X166715723Y-101920026D01*
X166632083Y-101988668D01*
X166599999Y-102014999D01*
X166576201Y-102043997D01*
X164627694Y-103992504D01*
X164507194Y-103928096D01*
X164243859Y-103848214D01*
X163970000Y-103821241D01*
X163696140Y-103848214D01*
X163432805Y-103928096D01*
X163190113Y-104057817D01*
X162977392Y-104232393D01*
X162802817Y-104445114D01*
X162700000Y-104637471D01*
X162597183Y-104445113D01*
X162422607Y-104232392D01*
X162209886Y-104057817D01*
X161967194Y-103928096D01*
X161703859Y-103848214D01*
X161430000Y-103821241D01*
X161156140Y-103848214D01*
X160892805Y-103928096D01*
X160650113Y-104057817D01*
X160437392Y-104232393D01*
X160262817Y-104445114D01*
X160160000Y-104637471D01*
X160057183Y-104445113D01*
X159882607Y-104232392D01*
X159710000Y-104090738D01*
X159710000Y-103862570D01*
X159889250Y-103860000D01*
X160048000Y-103701250D01*
X160048000Y-102602000D01*
X160302000Y-102602000D01*
X160302000Y-103701250D01*
X160460750Y-103860000D01*
X160675000Y-103863072D01*
X160799482Y-103850812D01*
X160919180Y-103814502D01*
X161029494Y-103755537D01*
X161126185Y-103676185D01*
X161205537Y-103579494D01*
X161264502Y-103469180D01*
X161300812Y-103349482D01*
X161313072Y-103225000D01*
X161310000Y-102760750D01*
X161151250Y-102602000D01*
X160302000Y-102602000D01*
X160048000Y-102602000D01*
X160028000Y-102602000D01*
X160028000Y-102348000D01*
X160048000Y-102348000D01*
X160048000Y-101248750D01*
X160302000Y-101248750D01*
X160302000Y-102348000D01*
X161151250Y-102348000D01*
X161310000Y-102189250D01*
X161313072Y-101725000D01*
X161300812Y-101600518D01*
X161264502Y-101480820D01*
X161205537Y-101370506D01*
X161126185Y-101273815D01*
X161029494Y-101194463D01*
X160919180Y-101135498D01*
X160799482Y-101099188D01*
X160675000Y-101086928D01*
X160460750Y-101090000D01*
X160302000Y-101248750D01*
X160048000Y-101248750D01*
X159889250Y-101090000D01*
X159710000Y-101087430D01*
X159710000Y-100891020D01*
X159714040Y-100850001D01*
X159697918Y-100686313D01*
X159650172Y-100528915D01*
X159572636Y-100383856D01*
X159545527Y-100350824D01*
X159593411Y-100330990D01*
X159836632Y-100168475D01*
X160043475Y-99961632D01*
X160160000Y-99787240D01*
X160276525Y-99961632D01*
X160483368Y-100168475D01*
X160726589Y-100330990D01*
X160996842Y-100442932D01*
X161283740Y-100500000D01*
X161576260Y-100500000D01*
X161863158Y-100442932D01*
X162133411Y-100330990D01*
X162376632Y-100168475D01*
X162583475Y-99961632D01*
X162700000Y-99787240D01*
X162816525Y-99961632D01*
X163023368Y-100168475D01*
X163266589Y-100330990D01*
X163536842Y-100442932D01*
X163823740Y-100500000D01*
X164116260Y-100500000D01*
X164403158Y-100442932D01*
X164673411Y-100330990D01*
X164916632Y-100168475D01*
X165123475Y-99961632D01*
X165240000Y-99787240D01*
X165356525Y-99961632D01*
X165563368Y-100168475D01*
X165806589Y-100330990D01*
X166076842Y-100442932D01*
X166363740Y-100500000D01*
X166656260Y-100500000D01*
X166943158Y-100442932D01*
X167213411Y-100330990D01*
X167456632Y-100168475D01*
X167663475Y-99961632D01*
X167780000Y-99787240D01*
X167896525Y-99961632D01*
X168103368Y-100168475D01*
X168346589Y-100330990D01*
X168616842Y-100442932D01*
X168903740Y-100500000D01*
X169196260Y-100500000D01*
X169483158Y-100442932D01*
X169753411Y-100330990D01*
X169996632Y-100168475D01*
X170203475Y-99961632D01*
X170320000Y-99787240D01*
X170436525Y-99961632D01*
X170643368Y-100168475D01*
X170886589Y-100330990D01*
X171156842Y-100442932D01*
X171443740Y-100500000D01*
X171736260Y-100500000D01*
X172023158Y-100442932D01*
X172293411Y-100330990D01*
X172536632Y-100168475D01*
X172743475Y-99961632D01*
X172860000Y-99787240D01*
X172976525Y-99961632D01*
X173183368Y-100168475D01*
X173426589Y-100330990D01*
X173696842Y-100442932D01*
X173983740Y-100500000D01*
X174276260Y-100500000D01*
X174563158Y-100442932D01*
X174833411Y-100330990D01*
X175076632Y-100168475D01*
X175283475Y-99961632D01*
X175400000Y-99787240D01*
X175516525Y-99961632D01*
X175723368Y-100168475D01*
X175966589Y-100330990D01*
X176236842Y-100442932D01*
X176523740Y-100500000D01*
X176816260Y-100500000D01*
X177103158Y-100442932D01*
X177373411Y-100330990D01*
X177616632Y-100168475D01*
X177823475Y-99961632D01*
X177940000Y-99787240D01*
X178056525Y-99961632D01*
X178263368Y-100168475D01*
X178506589Y-100330990D01*
X178776842Y-100442932D01*
X179063740Y-100500000D01*
X179356260Y-100500000D01*
X179643158Y-100442932D01*
X179913411Y-100330990D01*
X180156632Y-100168475D01*
X180363475Y-99961632D01*
X180480000Y-99787240D01*
X180596525Y-99961632D01*
X180803368Y-100168475D01*
X181046589Y-100330990D01*
X181316842Y-100442932D01*
X181603740Y-100500000D01*
X181896260Y-100500000D01*
X182183158Y-100442932D01*
X182453411Y-100330990D01*
X182696632Y-100168475D01*
X182903475Y-99961632D01*
X183065990Y-99718411D01*
X183177932Y-99448158D01*
X183235000Y-99161260D01*
X183235000Y-98868740D01*
X183177932Y-98581842D01*
X183065990Y-98311589D01*
X182903475Y-98068368D01*
X182771620Y-97936513D01*
X182844180Y-97914502D01*
X182954494Y-97855537D01*
X183051185Y-97776185D01*
X183130537Y-97679494D01*
X183189502Y-97569180D01*
X183225812Y-97449482D01*
X183238072Y-97325000D01*
X183238072Y-95625000D01*
X183225812Y-95500518D01*
X183189502Y-95380820D01*
X183130537Y-95270506D01*
X183051185Y-95173815D01*
X182954494Y-95094463D01*
X182844180Y-95035498D01*
X182724482Y-94999188D01*
X182600000Y-94986928D01*
X180900000Y-94986928D01*
X180775518Y-94999188D01*
X180655820Y-95035498D01*
X180545506Y-95094463D01*
X180448815Y-95173815D01*
X180369463Y-95270506D01*
X180310498Y-95380820D01*
X180288487Y-95453380D01*
X180156632Y-95321525D01*
X179913411Y-95159010D01*
X179643158Y-95047068D01*
X179356260Y-94990000D01*
X179063740Y-94990000D01*
X178776842Y-95047068D01*
X178506589Y-95159010D01*
X178263368Y-95321525D01*
X178056525Y-95528368D01*
X177934805Y-95710534D01*
X177865178Y-95593645D01*
X177670269Y-95377412D01*
X177436920Y-95203359D01*
X177174099Y-95078175D01*
X177026890Y-95033524D01*
X176797000Y-95154845D01*
X176797000Y-96348000D01*
X176817000Y-96348000D01*
X176817000Y-96602000D01*
X176797000Y-96602000D01*
X176797000Y-96622000D01*
X176543000Y-96622000D01*
X176543000Y-96602000D01*
X174257000Y-96602000D01*
X174257000Y-96622000D01*
X174003000Y-96622000D01*
X174003000Y-96602000D01*
X173983000Y-96602000D01*
X173983000Y-96348000D01*
X174003000Y-96348000D01*
X174003000Y-96328000D01*
X174257000Y-96328000D01*
X174257000Y-96348000D01*
X176543000Y-96348000D01*
X176543000Y-95154845D01*
X176313110Y-95033524D01*
X176165901Y-95078175D01*
X175903080Y-95203359D01*
X175669731Y-95377412D01*
X175474822Y-95593645D01*
X175400000Y-95719255D01*
X175325178Y-95593645D01*
X175130269Y-95377412D01*
X174896920Y-95203359D01*
X174805889Y-95160000D01*
X175167678Y-95160000D01*
X175205000Y-95163676D01*
X175242322Y-95160000D01*
X175242333Y-95160000D01*
X175353986Y-95149003D01*
X175497247Y-95105546D01*
X175629276Y-95034974D01*
X175745001Y-94940001D01*
X175768804Y-94910997D01*
X176346114Y-94333688D01*
X176528665Y-94370000D01*
X176811335Y-94370000D01*
X177088574Y-94314853D01*
X177349727Y-94206680D01*
X177584759Y-94049637D01*
X177784637Y-93849759D01*
X177941680Y-93614727D01*
X178049853Y-93353574D01*
X178105000Y-93076335D01*
X178105000Y-92793665D01*
X178049853Y-92516426D01*
X177941680Y-92255273D01*
X177784637Y-92020241D01*
X177584759Y-91820363D01*
X177349727Y-91663320D01*
X177088574Y-91555147D01*
X176811335Y-91500000D01*
X176528665Y-91500000D01*
X176251426Y-91555147D01*
X175990273Y-91663320D01*
X175755241Y-91820363D01*
X175555363Y-92020241D01*
X175398320Y-92255273D01*
X175290147Y-92516426D01*
X175235000Y-92793665D01*
X175235000Y-93076335D01*
X175271312Y-93258886D01*
X174890199Y-93640000D01*
X170304793Y-93640000D01*
X170321680Y-93614727D01*
X170429853Y-93353574D01*
X170485000Y-93076335D01*
X170485000Y-92793665D01*
X170429853Y-92516426D01*
X170321680Y-92255273D01*
X170164637Y-92020241D01*
X169964759Y-91820363D01*
X169729727Y-91663320D01*
X169468574Y-91555147D01*
X169191335Y-91500000D01*
X168908665Y-91500000D01*
X168631426Y-91555147D01*
X168370273Y-91663320D01*
X168135241Y-91820363D01*
X167935363Y-92020241D01*
X167831957Y-92175000D01*
X164707199Y-92175000D01*
X164749887Y-92152183D01*
X164962608Y-91977608D01*
X165137183Y-91764887D01*
X165266904Y-91522195D01*
X165346786Y-91258860D01*
X165348151Y-91245000D01*
X168262678Y-91245000D01*
X168300000Y-91248676D01*
X168337322Y-91245000D01*
X168337333Y-91245000D01*
X168448986Y-91234003D01*
X168592247Y-91190546D01*
X168706076Y-91129702D01*
X168908665Y-91170000D01*
X169191335Y-91170000D01*
X169468574Y-91114853D01*
X169729727Y-91006680D01*
X169964759Y-90849637D01*
X170164637Y-90649759D01*
X170321680Y-90414727D01*
X170429853Y-90153574D01*
X170485000Y-89876335D01*
X170485000Y-89593665D01*
X175235000Y-89593665D01*
X175235000Y-89876335D01*
X175290147Y-90153574D01*
X175398320Y-90414727D01*
X175555363Y-90649759D01*
X175755241Y-90849637D01*
X175990273Y-91006680D01*
X176251426Y-91114853D01*
X176528665Y-91170000D01*
X176811335Y-91170000D01*
X177088574Y-91114853D01*
X177349727Y-91006680D01*
X177584759Y-90849637D01*
X177784637Y-90649759D01*
X177941680Y-90414727D01*
X178049853Y-90153574D01*
X178105000Y-89876335D01*
X178105000Y-89593665D01*
X178049853Y-89316426D01*
X177941680Y-89055273D01*
X177784637Y-88820241D01*
X177584759Y-88620363D01*
X177349727Y-88463320D01*
X177088574Y-88355147D01*
X176811335Y-88300000D01*
X176528665Y-88300000D01*
X176251426Y-88355147D01*
X175990273Y-88463320D01*
X175755241Y-88620363D01*
X175555363Y-88820241D01*
X175398320Y-89055273D01*
X175290147Y-89316426D01*
X175235000Y-89593665D01*
X170485000Y-89593665D01*
X170429853Y-89316426D01*
X170321680Y-89055273D01*
X170164637Y-88820241D01*
X169964759Y-88620363D01*
X169729727Y-88463320D01*
X169468574Y-88355147D01*
X169191335Y-88300000D01*
X168908665Y-88300000D01*
X168631426Y-88355147D01*
X168370273Y-88463320D01*
X168135241Y-88620363D01*
X167935363Y-88820241D01*
X167778320Y-89055273D01*
X167670147Y-89316426D01*
X167615000Y-89593665D01*
X167615000Y-89725000D01*
X165348151Y-89725000D01*
X165346786Y-89711140D01*
X165266904Y-89447805D01*
X165137183Y-89205113D01*
X164962607Y-88992392D01*
X164749886Y-88817817D01*
X164507194Y-88688096D01*
X164243859Y-88608214D01*
X163970000Y-88581241D01*
X163696140Y-88608214D01*
X163432805Y-88688096D01*
X163190113Y-88817817D01*
X162977392Y-88992393D01*
X162802817Y-89205114D01*
X162700000Y-89397471D01*
X162597183Y-89205113D01*
X162422607Y-88992392D01*
X162209886Y-88817817D01*
X161967194Y-88688096D01*
X161703859Y-88608214D01*
X161430000Y-88581241D01*
X161156140Y-88608214D01*
X160892805Y-88688096D01*
X160650113Y-88817817D01*
X160437392Y-88992393D01*
X160262817Y-89205114D01*
X160160000Y-89397471D01*
X160057183Y-89205113D01*
X159882607Y-88992392D01*
X159669886Y-88817817D01*
X159427194Y-88688096D01*
X159163859Y-88608214D01*
X158890000Y-88581241D01*
X158616140Y-88608214D01*
X158352805Y-88688096D01*
X158110113Y-88817817D01*
X157897392Y-88992393D01*
X157722817Y-89205114D01*
X157620000Y-89397471D01*
X157517183Y-89205113D01*
X157342607Y-88992392D01*
X157129886Y-88817817D01*
X156887194Y-88688096D01*
X156623859Y-88608214D01*
X156350000Y-88581241D01*
X156076140Y-88608214D01*
X155812805Y-88688096D01*
X155570113Y-88817817D01*
X155357392Y-88992393D01*
X155182817Y-89205114D01*
X155080000Y-89397471D01*
X154977183Y-89205113D01*
X154802607Y-88992392D01*
X154589886Y-88817817D01*
X154347194Y-88688096D01*
X154083859Y-88608214D01*
X153810000Y-88581241D01*
X153536140Y-88608214D01*
X153272805Y-88688096D01*
X153030113Y-88817817D01*
X152838585Y-88975000D01*
X149948043Y-88975000D01*
X149844637Y-88820241D01*
X149644759Y-88620363D01*
X149409727Y-88463320D01*
X149148574Y-88355147D01*
X148871335Y-88300000D01*
X148588665Y-88300000D01*
X148311426Y-88355147D01*
X148050273Y-88463320D01*
X147815241Y-88620363D01*
X147615363Y-88820241D01*
X147458320Y-89055273D01*
X147350147Y-89316426D01*
X147295000Y-89593665D01*
X147295000Y-89876335D01*
X147350147Y-90153574D01*
X147458320Y-90414727D01*
X147615363Y-90649759D01*
X147815241Y-90849637D01*
X148050273Y-91006680D01*
X148311426Y-91114853D01*
X148588665Y-91170000D01*
X148871335Y-91170000D01*
X149148574Y-91114853D01*
X149409727Y-91006680D01*
X149644759Y-90849637D01*
X149844637Y-90649759D01*
X149948043Y-90495000D01*
X152413000Y-90495000D01*
X152413000Y-91053625D01*
X152433214Y-91258860D01*
X152513096Y-91522195D01*
X152642817Y-91764887D01*
X152817393Y-91977608D01*
X153030114Y-92152183D01*
X153072802Y-92175000D01*
X149948043Y-92175000D01*
X149844637Y-92020241D01*
X149644759Y-91820363D01*
X149409727Y-91663320D01*
X149148574Y-91555147D01*
X148871335Y-91500000D01*
X148588665Y-91500000D01*
X148311426Y-91555147D01*
X148050273Y-91663320D01*
X147815241Y-91820363D01*
X147615363Y-92020241D01*
X147458320Y-92255273D01*
X147350147Y-92516426D01*
X147319632Y-92669831D01*
X143873804Y-89224003D01*
X143850001Y-89194999D01*
X143734276Y-89100026D01*
X143602247Y-89029454D01*
X143458986Y-88985997D01*
X143347333Y-88975000D01*
X143347322Y-88975000D01*
X143310000Y-88971324D01*
X143272678Y-88975000D01*
X142328043Y-88975000D01*
X142224637Y-88820241D01*
X142024759Y-88620363D01*
X141789727Y-88463320D01*
X141528574Y-88355147D01*
X141251335Y-88300000D01*
X140968665Y-88300000D01*
X140691426Y-88355147D01*
X140430273Y-88463320D01*
X140195241Y-88620363D01*
X139995363Y-88820241D01*
X139838320Y-89055273D01*
X139730147Y-89316426D01*
X139675000Y-89593665D01*
X139675000Y-89876335D01*
X139730147Y-90153574D01*
X139838320Y-90414727D01*
X139995363Y-90649759D01*
X140195241Y-90849637D01*
X140430273Y-91006680D01*
X140691426Y-91114853D01*
X140968665Y-91170000D01*
X141251335Y-91170000D01*
X141528574Y-91114853D01*
X141789727Y-91006680D01*
X142024759Y-90849637D01*
X142224637Y-90649759D01*
X142328043Y-90495000D01*
X142995199Y-90495000D01*
X147040197Y-94539999D01*
X143789801Y-94539999D01*
X142508688Y-93258886D01*
X142545000Y-93076335D01*
X142545000Y-92793665D01*
X142489853Y-92516426D01*
X142381680Y-92255273D01*
X142224637Y-92020241D01*
X142024759Y-91820363D01*
X141789727Y-91663320D01*
X141528574Y-91555147D01*
X141251335Y-91500000D01*
X140968665Y-91500000D01*
X140691426Y-91555147D01*
X140430273Y-91663320D01*
X140195241Y-91820363D01*
X139995363Y-92020241D01*
X139838320Y-92255273D01*
X139730147Y-92516426D01*
X139675000Y-92793665D01*
X139675000Y-93076335D01*
X139730147Y-93353574D01*
X139838320Y-93614727D01*
X139995363Y-93849759D01*
X140195241Y-94049637D01*
X140430273Y-94206680D01*
X140691426Y-94314853D01*
X140968665Y-94370000D01*
X141251335Y-94370000D01*
X141433886Y-94333688D01*
X142562546Y-95462347D01*
X142496525Y-95528368D01*
X142380000Y-95702760D01*
X142263475Y-95528368D01*
X142056632Y-95321525D01*
X141813411Y-95159010D01*
X141543158Y-95047068D01*
X141256260Y-94990000D01*
X140963740Y-94990000D01*
X140676842Y-95047068D01*
X140406589Y-95159010D01*
X140163368Y-95321525D01*
X139956525Y-95528368D01*
X139834805Y-95710534D01*
X139765178Y-95593645D01*
X139570269Y-95377412D01*
X139336920Y-95203359D01*
X139074099Y-95078175D01*
X138926890Y-95033524D01*
X138697000Y-95154845D01*
X138697000Y-96348000D01*
X138717000Y-96348000D01*
X138717000Y-96602000D01*
X138697000Y-96602000D01*
X138697000Y-96622000D01*
X138443000Y-96622000D01*
X138443000Y-96602000D01*
X138423000Y-96602000D01*
X138423000Y-96348000D01*
X138443000Y-96348000D01*
X138443000Y-95154845D01*
X138213110Y-95033524D01*
X138065901Y-95078175D01*
X137803080Y-95203359D01*
X137569731Y-95377412D01*
X137374822Y-95593645D01*
X137305195Y-95710534D01*
X137183475Y-95528368D01*
X136976632Y-95321525D01*
X136733411Y-95159010D01*
X136463158Y-95047068D01*
X136176260Y-94990000D01*
X135883740Y-94990000D01*
X135596842Y-95047068D01*
X135326589Y-95159010D01*
X135083368Y-95321525D01*
X134876525Y-95528368D01*
X134715000Y-95770107D01*
X134715000Y-88764606D01*
X135294606Y-88185000D01*
X184205394Y-88185000D01*
X185605000Y-89584606D01*
G37*
%TD.AperFunction*%
%TD*%
M02*
