M48
; DRILL file {KiCad (5.1.9)-1} date 04/12/23 18:55:17
; FORMAT={-:-/ absolute / metric / decimal}
; #@! TF.CreationDate,2023-04-12T18:55:17+01:00
; #@! TF.GenerationSoftware,Kicad,Pcbnew,(5.1.9)-1
; #@! TF.FileFunction,Plated,1,2,PTH
FMAT,2
METRIC
T1C0.800
T2C1.000
%
G90
G05
T1
X141.11Y-89.735
X141.11Y-92.935
X141.11Y-102.555
X141.11Y-105.755
X148.73Y-89.735
X148.73Y-92.935
X148.73Y-102.555
X148.73Y-105.755
X153.81Y-90.485
X153.81Y-105.725
X156.35Y-90.485
X156.35Y-105.725
X158.89Y-90.485
X158.89Y-105.725
X161.43Y-90.485
X161.43Y-105.725
X163.97Y-90.485
X163.97Y-105.725
X169.05Y-89.735
X169.05Y-92.935
X169.05Y-102.555
X169.05Y-105.755
X176.67Y-89.735
X176.67Y-92.935
X176.67Y-102.555
X176.67Y-105.755
T2
X136.03Y-96.475
X136.03Y-99.015
X138.57Y-96.475
X138.57Y-99.015
X141.11Y-96.475
X141.11Y-99.015
X143.65Y-96.475
X143.65Y-99.015
X146.19Y-96.475
X146.19Y-99.015
X148.73Y-96.475
X148.73Y-99.015
X151.27Y-96.475
X151.27Y-99.015
X153.81Y-96.475
X153.81Y-99.015
X156.35Y-96.475
X156.35Y-99.015
X158.89Y-96.475
X158.89Y-99.015
X161.43Y-96.475
X161.43Y-99.015
X163.97Y-96.475
X163.97Y-99.015
X166.51Y-96.475
X166.51Y-99.015
X169.05Y-96.475
X169.05Y-99.015
X171.59Y-96.475
X171.59Y-99.015
X174.13Y-96.475
X174.13Y-99.015
X176.67Y-96.475
X176.67Y-99.015
X179.21Y-96.475
X179.21Y-99.015
X181.75Y-96.475
X181.75Y-99.015
T0
M30
