%TF.GenerationSoftware,KiCad,Pcbnew,(5.1.9)-1*%
%TF.CreationDate,2023-04-12T14:25:31+01:00*%
%TF.ProjectId,#2_7segment,23325f37-7365-4676-9d65-6e742e6b6963,Rev 01*%
%TF.SameCoordinates,Original*%
%TF.FileFunction,Legend,Bot*%
%TF.FilePolarity,Positive*%
%FSLAX46Y46*%
G04 Gerber Fmt 4.6, Leading zero omitted, Abs format (unit mm)*
G04 Created by KiCad (PCBNEW (5.1.9)-1) date 2023-04-12 14:25:31*
%MOMM*%
%LPD*%
G01*
G04 APERTURE LIST*
%ADD10C,0.120000*%
%ADD11C,0.150000*%
%ADD12R,1.700000X1.700000*%
%ADD13O,1.700000X1.700000*%
%ADD14O,1.600000X1.600000*%
%ADD15C,1.600000*%
%ADD16O,1.524000X2.524000*%
%ADD17R,1.524000X2.524000*%
%ADD18R,1.000000X1.500000*%
G04 APERTURE END LIST*
D10*
X184705285Y-105026428D02*
X184723142Y-105169285D01*
X184858857Y-105112142D02*
X184723142Y-105169285D01*
X184573142Y-105112142D01*
X184823142Y-105283571D02*
X184723142Y-105169285D01*
X184651714Y-105283571D01*
X184248142Y-105026428D02*
X184266000Y-105169285D01*
X184401714Y-105112142D02*
X184266000Y-105169285D01*
X184116000Y-105112142D01*
X184366000Y-105283571D02*
X184266000Y-105169285D01*
X184194571Y-105283571D01*
X183248142Y-105026428D02*
X183301714Y-105455000D01*
X183341000Y-105540714D01*
X183405285Y-105597857D01*
X183494571Y-105626428D01*
X183551714Y-105626428D01*
X183037428Y-105626428D02*
X182962428Y-105026428D01*
X182733857Y-105026428D01*
X182680285Y-105055000D01*
X182655285Y-105083571D01*
X182633857Y-105140714D01*
X182644571Y-105226428D01*
X182680285Y-105283571D01*
X182712428Y-105312142D01*
X182773142Y-105340714D01*
X183001714Y-105340714D01*
X182123142Y-105626428D02*
X182466000Y-105626428D01*
X182294571Y-105626428D02*
X182219571Y-105026428D01*
X182287428Y-105112142D01*
X182351714Y-105169285D01*
X182412428Y-105197857D01*
X181408857Y-105626428D02*
X181333857Y-105026428D01*
X181362428Y-105255000D02*
X181301714Y-105226428D01*
X181187428Y-105226428D01*
X181133857Y-105255000D01*
X181108857Y-105283571D01*
X181087428Y-105340714D01*
X181108857Y-105512142D01*
X181144571Y-105569285D01*
X181176714Y-105597857D01*
X181237428Y-105626428D01*
X181351714Y-105626428D01*
X181405285Y-105597857D01*
X180866000Y-105626428D02*
X180816000Y-105226428D01*
X180830285Y-105340714D02*
X180794571Y-105283571D01*
X180762428Y-105255000D01*
X180701714Y-105226428D01*
X180644571Y-105226428D01*
X180494571Y-105626428D02*
X180444571Y-105226428D01*
X180419571Y-105026428D02*
X180451714Y-105055000D01*
X180426714Y-105083571D01*
X180394571Y-105055000D01*
X180419571Y-105026428D01*
X180426714Y-105083571D01*
X179951714Y-105626428D02*
X179876714Y-105026428D01*
X179948142Y-105597857D02*
X180008857Y-105626428D01*
X180123142Y-105626428D01*
X180176714Y-105597857D01*
X180201714Y-105569285D01*
X180223142Y-105512142D01*
X180201714Y-105340714D01*
X180166000Y-105283571D01*
X180133857Y-105255000D01*
X180073142Y-105226428D01*
X179958857Y-105226428D01*
X179905285Y-105255000D01*
X179358857Y-105226428D02*
X179419571Y-105712142D01*
X179455285Y-105769285D01*
X179487428Y-105797857D01*
X179548142Y-105826428D01*
X179633857Y-105826428D01*
X179687428Y-105797857D01*
X179405285Y-105597857D02*
X179466000Y-105626428D01*
X179580285Y-105626428D01*
X179633857Y-105597857D01*
X179658857Y-105569285D01*
X179680285Y-105512142D01*
X179658857Y-105340714D01*
X179623142Y-105283571D01*
X179591000Y-105255000D01*
X179530285Y-105226428D01*
X179416000Y-105226428D01*
X179362428Y-105255000D01*
X178891000Y-105597857D02*
X178951714Y-105626428D01*
X179066000Y-105626428D01*
X179119571Y-105597857D01*
X179141000Y-105540714D01*
X179112428Y-105312142D01*
X179076714Y-105255000D01*
X179016000Y-105226428D01*
X178901714Y-105226428D01*
X178848142Y-105255000D01*
X178826714Y-105312142D01*
X178833857Y-105369285D01*
X179126714Y-105426428D01*
X178633857Y-105597857D02*
X178580285Y-105626428D01*
X178466000Y-105626428D01*
X178405285Y-105597857D01*
X178369571Y-105540714D01*
X178366000Y-105512142D01*
X178387428Y-105455000D01*
X178441000Y-105426428D01*
X178526714Y-105426428D01*
X178580285Y-105397857D01*
X178601714Y-105340714D01*
X178598142Y-105312142D01*
X178562428Y-105255000D01*
X178501714Y-105226428D01*
X178416000Y-105226428D01*
X178362428Y-105255000D01*
X184658857Y-106475000D02*
X184373142Y-106475000D01*
X184737428Y-106646428D02*
X184462428Y-106046428D01*
X184337428Y-106646428D01*
X184137428Y-106646428D02*
X184062428Y-106046428D01*
X183794571Y-106646428D01*
X183719571Y-106046428D01*
X183319571Y-106046428D02*
X183205285Y-106046428D01*
X183151714Y-106075000D01*
X183101714Y-106132142D01*
X183087428Y-106246428D01*
X183112428Y-106446428D01*
X183155285Y-106560714D01*
X183219571Y-106617857D01*
X183280285Y-106646428D01*
X183394571Y-106646428D01*
X183448142Y-106617857D01*
X183498142Y-106560714D01*
X183512428Y-106446428D01*
X183487428Y-106246428D01*
X183444571Y-106132142D01*
X183380285Y-106075000D01*
X183319571Y-106046428D01*
X182880285Y-106646428D02*
X182805285Y-106046428D01*
X182662428Y-106046428D01*
X182580285Y-106075000D01*
X182530285Y-106132142D01*
X182508857Y-106189285D01*
X182494571Y-106303571D01*
X182505285Y-106389285D01*
X182548142Y-106503571D01*
X182583857Y-106560714D01*
X182648142Y-106617857D01*
X182737428Y-106646428D01*
X182880285Y-106646428D01*
X182241000Y-106332142D02*
X182041000Y-106332142D01*
X181994571Y-106646428D02*
X182280285Y-106646428D01*
X182205285Y-106046428D01*
X181919571Y-106046428D01*
X180966000Y-106646428D02*
X181308857Y-106646428D01*
X181137428Y-106646428D02*
X181062428Y-106046428D01*
X181130285Y-106132142D01*
X181194571Y-106189285D01*
X181255285Y-106217857D01*
X180287428Y-106246428D02*
X180058857Y-106246428D01*
X180176714Y-106046428D02*
X180241000Y-106560714D01*
X180219571Y-106617857D01*
X180166000Y-106646428D01*
X180108857Y-106646428D01*
X179823142Y-106646428D02*
X179876714Y-106617857D01*
X179901714Y-106589285D01*
X179923142Y-106532142D01*
X179901714Y-106360714D01*
X179866000Y-106303571D01*
X179833857Y-106275000D01*
X179773142Y-106246428D01*
X179687428Y-106246428D01*
X179633857Y-106275000D01*
X179608857Y-106303571D01*
X179587428Y-106360714D01*
X179608857Y-106532142D01*
X179644571Y-106589285D01*
X179676714Y-106617857D01*
X179737428Y-106646428D01*
X179823142Y-106646428D01*
X178869571Y-106103571D02*
X178837428Y-106075000D01*
X178776714Y-106046428D01*
X178633857Y-106046428D01*
X178580285Y-106075000D01*
X178555285Y-106103571D01*
X178533857Y-106160714D01*
X178541000Y-106217857D01*
X178580285Y-106303571D01*
X178966000Y-106646428D01*
X178594571Y-106646428D01*
X184830285Y-107609285D02*
X184862428Y-107637857D01*
X184951714Y-107666428D01*
X185008857Y-107666428D01*
X185091000Y-107637857D01*
X185141000Y-107580714D01*
X185162428Y-107523571D01*
X185176714Y-107409285D01*
X185166000Y-107323571D01*
X185123142Y-107209285D01*
X185087428Y-107152142D01*
X185023142Y-107095000D01*
X184933857Y-107066428D01*
X184876714Y-107066428D01*
X184794571Y-107095000D01*
X184769571Y-107123571D01*
X184587428Y-107495000D02*
X184301714Y-107495000D01*
X184666000Y-107666428D02*
X184391000Y-107066428D01*
X184266000Y-107666428D01*
X184076714Y-107066428D02*
X183733857Y-107066428D01*
X183980285Y-107666428D02*
X183905285Y-107066428D01*
X183608857Y-107666428D02*
X183533857Y-107066428D01*
X183569571Y-107352142D02*
X183226714Y-107352142D01*
X183266000Y-107666428D02*
X183191000Y-107066428D01*
X182791000Y-107066428D02*
X182676714Y-107066428D01*
X182623142Y-107095000D01*
X182573142Y-107152142D01*
X182558857Y-107266428D01*
X182583857Y-107466428D01*
X182626714Y-107580714D01*
X182691000Y-107637857D01*
X182751714Y-107666428D01*
X182866000Y-107666428D01*
X182919571Y-107637857D01*
X182969571Y-107580714D01*
X182983857Y-107466428D01*
X182958857Y-107266428D01*
X182916000Y-107152142D01*
X182851714Y-107095000D01*
X182791000Y-107066428D01*
X182351714Y-107666428D02*
X182276714Y-107066428D01*
X182133857Y-107066428D01*
X182051714Y-107095000D01*
X182001714Y-107152142D01*
X181980285Y-107209285D01*
X181966000Y-107323571D01*
X181976714Y-107409285D01*
X182019571Y-107523571D01*
X182055285Y-107580714D01*
X182119571Y-107637857D01*
X182208857Y-107666428D01*
X182351714Y-107666428D01*
X181712428Y-107352142D02*
X181512428Y-107352142D01*
X181466000Y-107666428D02*
X181751714Y-107666428D01*
X181676714Y-107066428D01*
X181391000Y-107066428D01*
X180712428Y-107123571D02*
X180680285Y-107095000D01*
X180619571Y-107066428D01*
X180476714Y-107066428D01*
X180423142Y-107095000D01*
X180398142Y-107123571D01*
X180376714Y-107180714D01*
X180383857Y-107237857D01*
X180423142Y-107323571D01*
X180808857Y-107666428D01*
X180437428Y-107666428D01*
X179758857Y-107266428D02*
X179530285Y-107266428D01*
X179648142Y-107066428D02*
X179712428Y-107580714D01*
X179691000Y-107637857D01*
X179637428Y-107666428D01*
X179580285Y-107666428D01*
X179294571Y-107666428D02*
X179348142Y-107637857D01*
X179373142Y-107609285D01*
X179394571Y-107552142D01*
X179373142Y-107380714D01*
X179337428Y-107323571D01*
X179305285Y-107295000D01*
X179244571Y-107266428D01*
X179158857Y-107266428D01*
X179105285Y-107295000D01*
X179080285Y-107323571D01*
X179058857Y-107380714D01*
X179080285Y-107552142D01*
X179116000Y-107609285D01*
X179148142Y-107637857D01*
X179208857Y-107666428D01*
X179294571Y-107666428D01*
X178362428Y-107066428D02*
X177991000Y-107066428D01*
X178219571Y-107295000D01*
X178133857Y-107295000D01*
X178080285Y-107323571D01*
X178055285Y-107352142D01*
X178033857Y-107409285D01*
X178051714Y-107552142D01*
X178087428Y-107609285D01*
X178119571Y-107637857D01*
X178180285Y-107666428D01*
X178351714Y-107666428D01*
X178405285Y-107637857D01*
X178430285Y-107609285D01*
D11*
X158996428Y-100678571D02*
X158967857Y-100650000D01*
X158910714Y-100621428D01*
X158767857Y-100621428D01*
X158710714Y-100650000D01*
X158682142Y-100678571D01*
X158653571Y-100735714D01*
X158653571Y-100792857D01*
X158682142Y-100878571D01*
X159025000Y-101221428D01*
X158653571Y-101221428D01*
D10*
X179654988Y-91186904D02*
X179678797Y-91377380D01*
X179859750Y-91301190D02*
X179678797Y-91377380D01*
X179478797Y-91301190D01*
X179812130Y-91529761D02*
X179678797Y-91377380D01*
X179583559Y-91529761D01*
X178280285Y-91671428D02*
X178623142Y-91671428D01*
X178451713Y-91671428D02*
X178376713Y-91071428D01*
X178444570Y-91157142D01*
X178508856Y-91214285D01*
X178569570Y-91242857D01*
X177783856Y-91357142D02*
X177701713Y-91385714D01*
X177676713Y-91414285D01*
X177655285Y-91471428D01*
X177665999Y-91557142D01*
X177701713Y-91614285D01*
X177733856Y-91642857D01*
X177794570Y-91671428D01*
X178023142Y-91671428D01*
X177948142Y-91071428D01*
X177748142Y-91071428D01*
X177694570Y-91100000D01*
X177669570Y-91128571D01*
X177648142Y-91185714D01*
X177655285Y-91242857D01*
X177690999Y-91300000D01*
X177723142Y-91328571D01*
X177783856Y-91357142D01*
X177983856Y-91357142D01*
X176926713Y-91357142D02*
X176469570Y-91357142D01*
X176490999Y-91528571D02*
X176948142Y-91528571D01*
X175765999Y-91671428D02*
X175690999Y-91071428D01*
X175462428Y-91071428D01*
X175408856Y-91100000D01*
X175383856Y-91128571D01*
X175362428Y-91185714D01*
X175373142Y-91271428D01*
X175408856Y-91328571D01*
X175440999Y-91357142D01*
X175501713Y-91385714D01*
X175730285Y-91385714D01*
X175165999Y-91671428D02*
X175090999Y-91071428D01*
X174880285Y-91671428D02*
X174805285Y-91071428D01*
X174537428Y-91671428D01*
X174462428Y-91071428D01*
X173480285Y-91671428D02*
X173823142Y-91671428D01*
X173651713Y-91671428D02*
X173576713Y-91071428D01*
X173644570Y-91157142D01*
X173708856Y-91214285D01*
X173769570Y-91242857D01*
X172773142Y-91500000D02*
X172487428Y-91500000D01*
X172851713Y-91671428D02*
X172576713Y-91071428D01*
X172451713Y-91671428D01*
X171865999Y-91100000D02*
X171919570Y-91071428D01*
X172005285Y-91071428D01*
X172094570Y-91100000D01*
X172158856Y-91157142D01*
X172194570Y-91214285D01*
X172237428Y-91328571D01*
X172248142Y-91414285D01*
X172233856Y-91528571D01*
X172212428Y-91585714D01*
X172162428Y-91642857D01*
X172080285Y-91671428D01*
X172023142Y-91671428D01*
X171933856Y-91642857D01*
X171901713Y-91614285D01*
X171876713Y-91414285D01*
X171990999Y-91414285D01*
X171462428Y-91071428D02*
X171348142Y-91071428D01*
X171294570Y-91100000D01*
X171244570Y-91157142D01*
X171230285Y-91271428D01*
X171255285Y-91471428D01*
X171298142Y-91585714D01*
X171362428Y-91642857D01*
X171423142Y-91671428D01*
X171537428Y-91671428D01*
X171590999Y-91642857D01*
X171640999Y-91585714D01*
X171655285Y-91471428D01*
X171630285Y-91271428D01*
X171587428Y-91157142D01*
X171523142Y-91100000D01*
X171462428Y-91071428D01*
X171023142Y-91671428D02*
X170948142Y-91071428D01*
X170680285Y-91671428D01*
X170605285Y-91071428D01*
X170108856Y-91671428D02*
X170394570Y-91671428D01*
X170319570Y-91071428D01*
X169908856Y-91671428D02*
X169833856Y-91071428D01*
X169237428Y-91100000D02*
X169290999Y-91071428D01*
X169376713Y-91071428D01*
X169465999Y-91100000D01*
X169530285Y-91157142D01*
X169565999Y-91214285D01*
X169608856Y-91328571D01*
X169619570Y-91414285D01*
X169605285Y-91528571D01*
X169583856Y-91585714D01*
X169533856Y-91642857D01*
X169451713Y-91671428D01*
X169394570Y-91671428D01*
X169305285Y-91642857D01*
X169273142Y-91614285D01*
X169248142Y-91414285D01*
X169362428Y-91414285D01*
X169023142Y-91671428D02*
X168948142Y-91071428D01*
X168983856Y-91357142D02*
X168640999Y-91357142D01*
X168680285Y-91671428D02*
X168605285Y-91071428D01*
X168405285Y-91071428D02*
X168062428Y-91071428D01*
X168308856Y-91671428D02*
X168233856Y-91071428D01*
X161701714Y-107846428D02*
X161473142Y-107846428D01*
X161666000Y-108246428D02*
X161601714Y-107732142D01*
X161566000Y-107675000D01*
X161505285Y-107646428D01*
X161448142Y-107646428D01*
X159066000Y-107646428D02*
X159083857Y-107789285D01*
X159219571Y-107732142D02*
X159083857Y-107789285D01*
X158933857Y-107732142D01*
X159183857Y-107903571D02*
X159083857Y-107789285D01*
X159012428Y-107903571D01*
X158608857Y-107646428D02*
X158626714Y-107789285D01*
X158762428Y-107732142D02*
X158626714Y-107789285D01*
X158476714Y-107732142D01*
X158726714Y-107903571D02*
X158626714Y-107789285D01*
X158555285Y-107903571D01*
X163894571Y-108217857D02*
X163955285Y-108246428D01*
X164069571Y-108246428D01*
X164123142Y-108217857D01*
X164144571Y-108160714D01*
X164116000Y-107932142D01*
X164080285Y-107875000D01*
X164019571Y-107846428D01*
X163905285Y-107846428D01*
X163851714Y-107875000D01*
X163830285Y-107932142D01*
X163837428Y-107989285D01*
X164130285Y-108046428D01*
X153880285Y-108246428D02*
X153805285Y-107646428D01*
X153876714Y-108217857D02*
X153937428Y-108246428D01*
X154051714Y-108246428D01*
X154105285Y-108217857D01*
X154130285Y-108189285D01*
X154151714Y-108132142D01*
X154130285Y-107960714D01*
X154094571Y-107903571D01*
X154062428Y-107875000D01*
X154001714Y-107846428D01*
X153887428Y-107846428D01*
X153833857Y-107875000D01*
X153544571Y-107846428D02*
X153619571Y-108446428D01*
X153548142Y-107875000D02*
X153487428Y-107846428D01*
X153373142Y-107846428D01*
X153319571Y-107875000D01*
X153294571Y-107903571D01*
X153273142Y-107960714D01*
X153294571Y-108132142D01*
X153330285Y-108189285D01*
X153362428Y-108217857D01*
X153423142Y-108246428D01*
X153537428Y-108246428D01*
X153591000Y-108217857D01*
X156283857Y-107846428D02*
X156344571Y-108332142D01*
X156380285Y-108389285D01*
X156412428Y-108417857D01*
X156473142Y-108446428D01*
X156558857Y-108446428D01*
X156612428Y-108417857D01*
X156330285Y-108217857D02*
X156391000Y-108246428D01*
X156505285Y-108246428D01*
X156558857Y-108217857D01*
X156583857Y-108189285D01*
X156605285Y-108132142D01*
X156583857Y-107960714D01*
X156548142Y-107903571D01*
X156516000Y-107875000D01*
X156455285Y-107846428D01*
X156341000Y-107846428D01*
X156287428Y-107875000D01*
X163858857Y-92896428D02*
X163783857Y-92296428D01*
X163855285Y-92867857D02*
X163916000Y-92896428D01*
X164030285Y-92896428D01*
X164083857Y-92867857D01*
X164108857Y-92839285D01*
X164130285Y-92782142D01*
X164108857Y-92610714D01*
X164073142Y-92553571D01*
X164041000Y-92525000D01*
X163980285Y-92496428D01*
X163866000Y-92496428D01*
X163812428Y-92525000D01*
X159041000Y-92296428D02*
X159058857Y-92439285D01*
X159194571Y-92382142D02*
X159058857Y-92439285D01*
X158908857Y-92382142D01*
X159158857Y-92553571D02*
X159058857Y-92439285D01*
X158987428Y-92553571D01*
X158583857Y-92296428D02*
X158601714Y-92439285D01*
X158737428Y-92382142D02*
X158601714Y-92439285D01*
X158451714Y-92382142D01*
X158701714Y-92553571D02*
X158601714Y-92439285D01*
X158530285Y-92553571D01*
X161466000Y-92867857D02*
X161526714Y-92896428D01*
X161641000Y-92896428D01*
X161694571Y-92867857D01*
X161719571Y-92839285D01*
X161741000Y-92782142D01*
X161719571Y-92610714D01*
X161683857Y-92553571D01*
X161651714Y-92525000D01*
X161591000Y-92496428D01*
X161476714Y-92496428D01*
X161423142Y-92525000D01*
X149787428Y-91046428D02*
X149444571Y-91046428D01*
X149691000Y-91646428D02*
X149616000Y-91046428D01*
X149319571Y-91646428D02*
X149244571Y-91046428D01*
X149062428Y-91646428D02*
X149023142Y-91332142D01*
X149044571Y-91275000D01*
X149098142Y-91246428D01*
X149183857Y-91246428D01*
X149244571Y-91275000D01*
X149276714Y-91303571D01*
X148776714Y-91646428D02*
X148726714Y-91246428D01*
X148701714Y-91046428D02*
X148733857Y-91075000D01*
X148708857Y-91103571D01*
X148676714Y-91075000D01*
X148701714Y-91046428D01*
X148708857Y-91103571D01*
X148516000Y-91617857D02*
X148462428Y-91646428D01*
X148348142Y-91646428D01*
X148287428Y-91617857D01*
X148251714Y-91560714D01*
X148248142Y-91532142D01*
X148269571Y-91475000D01*
X148323142Y-91446428D01*
X148408857Y-91446428D01*
X148462428Y-91417857D01*
X148483857Y-91360714D01*
X148480285Y-91332142D01*
X148444571Y-91275000D01*
X148383857Y-91246428D01*
X148298142Y-91246428D01*
X148244571Y-91275000D01*
X147573142Y-91617857D02*
X147519571Y-91646428D01*
X147405285Y-91646428D01*
X147344571Y-91617857D01*
X147308857Y-91560714D01*
X147305285Y-91532142D01*
X147326714Y-91475000D01*
X147380285Y-91446428D01*
X147466000Y-91446428D01*
X147519571Y-91417857D01*
X147541000Y-91360714D01*
X147537428Y-91332142D01*
X147501714Y-91275000D01*
X147441000Y-91246428D01*
X147355285Y-91246428D01*
X147301714Y-91275000D01*
X147062428Y-91646428D02*
X147012428Y-91246428D01*
X146987428Y-91046428D02*
X147019571Y-91075000D01*
X146994571Y-91103571D01*
X146962428Y-91075000D01*
X146987428Y-91046428D01*
X146994571Y-91103571D01*
X146519571Y-91646428D02*
X146444571Y-91046428D01*
X146516000Y-91617857D02*
X146576714Y-91646428D01*
X146691000Y-91646428D01*
X146744571Y-91617857D01*
X146769571Y-91589285D01*
X146791000Y-91532142D01*
X146769571Y-91360714D01*
X146733857Y-91303571D01*
X146701714Y-91275000D01*
X146641000Y-91246428D01*
X146526714Y-91246428D01*
X146473142Y-91275000D01*
X146001714Y-91617857D02*
X146062428Y-91646428D01*
X146176714Y-91646428D01*
X146230285Y-91617857D01*
X146251714Y-91560714D01*
X146223142Y-91332142D01*
X146187428Y-91275000D01*
X146126714Y-91246428D01*
X146012428Y-91246428D01*
X145958857Y-91275000D01*
X145937428Y-91332142D01*
X145944571Y-91389285D01*
X146237428Y-91446428D01*
X145262428Y-91646428D02*
X145212428Y-91246428D01*
X145187428Y-91046428D02*
X145219571Y-91075000D01*
X145194571Y-91103571D01*
X145162428Y-91075000D01*
X145187428Y-91046428D01*
X145194571Y-91103571D01*
X145001714Y-91617857D02*
X144948142Y-91646428D01*
X144833857Y-91646428D01*
X144773142Y-91617857D01*
X144737428Y-91560714D01*
X144733857Y-91532142D01*
X144755285Y-91475000D01*
X144808857Y-91446428D01*
X144894571Y-91446428D01*
X144948142Y-91417857D01*
X144969571Y-91360714D01*
X144966000Y-91332142D01*
X144930285Y-91275000D01*
X144869571Y-91246428D01*
X144783857Y-91246428D01*
X144730285Y-91275000D01*
X144069571Y-91246428D02*
X143841000Y-91246428D01*
X143958857Y-91046428D02*
X144023142Y-91560714D01*
X144001714Y-91617857D01*
X143948142Y-91646428D01*
X143891000Y-91646428D01*
X143691000Y-91646428D02*
X143616000Y-91046428D01*
X143433857Y-91646428D02*
X143394571Y-91332142D01*
X143416000Y-91275000D01*
X143469571Y-91246428D01*
X143555285Y-91246428D01*
X143616000Y-91275000D01*
X143648142Y-91303571D01*
X142916000Y-91617857D02*
X142976714Y-91646428D01*
X143091000Y-91646428D01*
X143144571Y-91617857D01*
X143166000Y-91560714D01*
X143137428Y-91332142D01*
X143101714Y-91275000D01*
X143041000Y-91246428D01*
X142926714Y-91246428D01*
X142873142Y-91275000D01*
X142851714Y-91332142D01*
X142858857Y-91389285D01*
X143151714Y-91446428D01*
X141937428Y-91332142D02*
X141855285Y-91360714D01*
X141830285Y-91389285D01*
X141808857Y-91446428D01*
X141819571Y-91532142D01*
X141855285Y-91589285D01*
X141887428Y-91617857D01*
X141948142Y-91646428D01*
X142176714Y-91646428D01*
X142101714Y-91046428D01*
X141901714Y-91046428D01*
X141848142Y-91075000D01*
X141823142Y-91103571D01*
X141801714Y-91160714D01*
X141808857Y-91217857D01*
X141844571Y-91275000D01*
X141876714Y-91303571D01*
X141937428Y-91332142D01*
X142137428Y-91332142D01*
X141583857Y-91475000D02*
X141298142Y-91475000D01*
X141662428Y-91646428D02*
X141387428Y-91046428D01*
X141262428Y-91646428D01*
X140712428Y-91589285D02*
X140744571Y-91617857D01*
X140833857Y-91646428D01*
X140891000Y-91646428D01*
X140973142Y-91617857D01*
X141023142Y-91560714D01*
X141044571Y-91503571D01*
X141058857Y-91389285D01*
X141048142Y-91303571D01*
X141005285Y-91189285D01*
X140969571Y-91132142D01*
X140905285Y-91075000D01*
X140816000Y-91046428D01*
X140758857Y-91046428D01*
X140676714Y-91075000D01*
X140651714Y-91103571D01*
X140462428Y-91646428D02*
X140387428Y-91046428D01*
X140119571Y-91646428D02*
X140333857Y-91303571D01*
X140044571Y-91046428D02*
X140430285Y-91389285D01*
X179654988Y-88061904D02*
X179678797Y-88252380D01*
X179859750Y-88176190D02*
X179678797Y-88252380D01*
X179478797Y-88176190D01*
X179812130Y-88404761D02*
X179678797Y-88252380D01*
X179583559Y-88404761D01*
X176819571Y-94646428D02*
X177162428Y-94646428D01*
X176991000Y-94646428D02*
X176916000Y-94046428D01*
X176983857Y-94132142D01*
X177048142Y-94189285D01*
X177108857Y-94217857D01*
X176323142Y-94332142D02*
X176241000Y-94360714D01*
X176216000Y-94389285D01*
X176194571Y-94446428D01*
X176205285Y-94532142D01*
X176241000Y-94589285D01*
X176273142Y-94617857D01*
X176333857Y-94646428D01*
X176562428Y-94646428D01*
X176487428Y-94046428D01*
X176287428Y-94046428D01*
X176233857Y-94075000D01*
X176208857Y-94103571D01*
X176187428Y-94160714D01*
X176194571Y-94217857D01*
X176230285Y-94275000D01*
X176262428Y-94303571D01*
X176323142Y-94332142D01*
X176523142Y-94332142D01*
X175801714Y-94046428D02*
X175819571Y-94189285D01*
X175955285Y-94132142D02*
X175819571Y-94189285D01*
X175669571Y-94132142D01*
X175919571Y-94303571D02*
X175819571Y-94189285D01*
X175748142Y-94303571D01*
X179476714Y-94646428D02*
X179819571Y-94646428D01*
X179648142Y-94646428D02*
X179573142Y-94046428D01*
X179641000Y-94132142D01*
X179705285Y-94189285D01*
X179766000Y-94217857D01*
X179226714Y-94475000D02*
X178941000Y-94475000D01*
X179305285Y-94646428D02*
X179030285Y-94046428D01*
X178905285Y-94646428D01*
X178544571Y-94046428D02*
X178562428Y-94189285D01*
X178698142Y-94132142D02*
X178562428Y-94189285D01*
X178412428Y-94132142D01*
X178662428Y-94303571D02*
X178562428Y-94189285D01*
X178491000Y-94303571D01*
X182083857Y-94646428D02*
X182008857Y-94046428D01*
X181741000Y-94646428D01*
X181666000Y-94046428D01*
X181105285Y-94589285D02*
X181137428Y-94617857D01*
X181226714Y-94646428D01*
X181283857Y-94646428D01*
X181366000Y-94617857D01*
X181416000Y-94560714D01*
X181437428Y-94503571D01*
X181451714Y-94389285D01*
X181441000Y-94303571D01*
X181398142Y-94189285D01*
X181362428Y-94132142D01*
X181298142Y-94075000D01*
X181208857Y-94046428D01*
X181151714Y-94046428D01*
X181069571Y-94075000D01*
X181044571Y-94103571D01*
X182108857Y-101671428D02*
X182033857Y-101071428D01*
X181766000Y-101671428D01*
X181691000Y-101071428D01*
X181130285Y-101614285D02*
X181162428Y-101642857D01*
X181251714Y-101671428D01*
X181308857Y-101671428D01*
X181391000Y-101642857D01*
X181441000Y-101585714D01*
X181462428Y-101528571D01*
X181476714Y-101414285D01*
X181466000Y-101328571D01*
X181423142Y-101214285D01*
X181387428Y-101157142D01*
X181323142Y-101100000D01*
X181233857Y-101071428D01*
X181176714Y-101071428D01*
X181094571Y-101100000D01*
X181069571Y-101128571D01*
X178280285Y-88546428D02*
X178623142Y-88546428D01*
X178451714Y-88546428D02*
X178376714Y-87946428D01*
X178444571Y-88032142D01*
X178508857Y-88089285D01*
X178569571Y-88117857D01*
X178030285Y-88375000D02*
X177744571Y-88375000D01*
X178108857Y-88546428D02*
X177833857Y-87946428D01*
X177708857Y-88546428D01*
X177012428Y-88232142D02*
X176555285Y-88232142D01*
X176576714Y-88403571D02*
X177033857Y-88403571D01*
X175851714Y-88546428D02*
X175776714Y-87946428D01*
X175548142Y-87946428D01*
X175494571Y-87975000D01*
X175469571Y-88003571D01*
X175448142Y-88060714D01*
X175458857Y-88146428D01*
X175494571Y-88203571D01*
X175526714Y-88232142D01*
X175587428Y-88260714D01*
X175816000Y-88260714D01*
X175251714Y-88546428D02*
X175176714Y-87946428D01*
X174966000Y-88546428D02*
X174891000Y-87946428D01*
X174623142Y-88546428D01*
X174548142Y-87946428D01*
X173566000Y-88546428D02*
X173908857Y-88546428D01*
X173737428Y-88546428D02*
X173662428Y-87946428D01*
X173730285Y-88032142D01*
X173794571Y-88089285D01*
X173855285Y-88117857D01*
X172858857Y-88375000D02*
X172573142Y-88375000D01*
X172937428Y-88546428D02*
X172662428Y-87946428D01*
X172537428Y-88546428D01*
X171951714Y-87975000D02*
X172005285Y-87946428D01*
X172091000Y-87946428D01*
X172180285Y-87975000D01*
X172244571Y-88032142D01*
X172280285Y-88089285D01*
X172323142Y-88203571D01*
X172333857Y-88289285D01*
X172319571Y-88403571D01*
X172298142Y-88460714D01*
X172248142Y-88517857D01*
X172166000Y-88546428D01*
X172108857Y-88546428D01*
X172019571Y-88517857D01*
X171987428Y-88489285D01*
X171962428Y-88289285D01*
X172076714Y-88289285D01*
X171548142Y-87946428D02*
X171433857Y-87946428D01*
X171380285Y-87975000D01*
X171330285Y-88032142D01*
X171316000Y-88146428D01*
X171341000Y-88346428D01*
X171383857Y-88460714D01*
X171448142Y-88517857D01*
X171508857Y-88546428D01*
X171623142Y-88546428D01*
X171676714Y-88517857D01*
X171726714Y-88460714D01*
X171741000Y-88346428D01*
X171716000Y-88146428D01*
X171673142Y-88032142D01*
X171608857Y-87975000D01*
X171548142Y-87946428D01*
X171108857Y-88546428D02*
X171033857Y-87946428D01*
X170766000Y-88546428D01*
X170691000Y-87946428D01*
X170194571Y-88546428D02*
X170480285Y-88546428D01*
X170405285Y-87946428D01*
X169994571Y-88546428D02*
X169919571Y-87946428D01*
X169323142Y-87975000D02*
X169376714Y-87946428D01*
X169462428Y-87946428D01*
X169551714Y-87975000D01*
X169616000Y-88032142D01*
X169651714Y-88089285D01*
X169694571Y-88203571D01*
X169705285Y-88289285D01*
X169691000Y-88403571D01*
X169669571Y-88460714D01*
X169619571Y-88517857D01*
X169537428Y-88546428D01*
X169480285Y-88546428D01*
X169391000Y-88517857D01*
X169358857Y-88489285D01*
X169333857Y-88289285D01*
X169448142Y-88289285D01*
X169108857Y-88546428D02*
X169033857Y-87946428D01*
X169069571Y-88232142D02*
X168726714Y-88232142D01*
X168766000Y-88546428D02*
X168691000Y-87946428D01*
X168491000Y-87946428D02*
X168148142Y-87946428D01*
X168394571Y-88546428D02*
X168319571Y-87946428D01*
X167983857Y-88003571D02*
X167951714Y-87975000D01*
X167891000Y-87946428D01*
X167748142Y-87946428D01*
X167694571Y-87975000D01*
X167669571Y-88003571D01*
X167648142Y-88060714D01*
X167655285Y-88117857D01*
X167694571Y-88203571D01*
X168080285Y-88546428D01*
X167708857Y-88546428D01*
X136583857Y-101796428D02*
X136508857Y-101196428D01*
X136241000Y-101796428D01*
X136166000Y-101196428D01*
X135605285Y-101739285D02*
X135637428Y-101767857D01*
X135726714Y-101796428D01*
X135783857Y-101796428D01*
X135866000Y-101767857D01*
X135916000Y-101710714D01*
X135937428Y-101653571D01*
X135951714Y-101539285D01*
X135941000Y-101453571D01*
X135898142Y-101339285D01*
X135862428Y-101282142D01*
X135798142Y-101225000D01*
X135708857Y-101196428D01*
X135651714Y-101196428D01*
X135569571Y-101225000D01*
X135544571Y-101253571D01*
X136583857Y-94396428D02*
X136508857Y-93796428D01*
X136241000Y-94396428D01*
X136166000Y-93796428D01*
X135605285Y-94339285D02*
X135637428Y-94367857D01*
X135726714Y-94396428D01*
X135783857Y-94396428D01*
X135866000Y-94367857D01*
X135916000Y-94310714D01*
X135937428Y-94253571D01*
X135951714Y-94139285D01*
X135941000Y-94053571D01*
X135898142Y-93939285D01*
X135862428Y-93882142D01*
X135798142Y-93825000D01*
X135708857Y-93796428D01*
X135651714Y-93796428D01*
X135569571Y-93825000D01*
X135544571Y-93853571D01*
X156566000Y-92896428D02*
X156491000Y-92296428D01*
X156519571Y-92525000D02*
X156458857Y-92496428D01*
X156344571Y-92496428D01*
X156291000Y-92525000D01*
X156266000Y-92553571D01*
X156244571Y-92610714D01*
X156266000Y-92782142D01*
X156301714Y-92839285D01*
X156333857Y-92867857D01*
X156394571Y-92896428D01*
X156508857Y-92896428D01*
X156562428Y-92867857D01*
X153583857Y-92896428D02*
X153544571Y-92582142D01*
X153566000Y-92525000D01*
X153619571Y-92496428D01*
X153733857Y-92496428D01*
X153794571Y-92525000D01*
X153580285Y-92867857D02*
X153641000Y-92896428D01*
X153783857Y-92896428D01*
X153837428Y-92867857D01*
X153858857Y-92810714D01*
X153851714Y-92753571D01*
X153816000Y-92696428D01*
X153755285Y-92667857D01*
X153612428Y-92667857D01*
X153551714Y-92639285D01*
X152098142Y-108321428D02*
X152262428Y-108035714D01*
X152441000Y-108321428D02*
X152366000Y-107721428D01*
X152137428Y-107721428D01*
X152083857Y-107750000D01*
X152058857Y-107778571D01*
X152037428Y-107835714D01*
X152048142Y-107921428D01*
X152083857Y-107978571D01*
X152116000Y-108007142D01*
X152176714Y-108035714D01*
X152405285Y-108035714D01*
X151608857Y-108292857D02*
X151669571Y-108321428D01*
X151783857Y-108321428D01*
X151837428Y-108292857D01*
X151858857Y-108235714D01*
X151830285Y-108007142D01*
X151794571Y-107950000D01*
X151733857Y-107921428D01*
X151619571Y-107921428D01*
X151566000Y-107950000D01*
X151544571Y-108007142D01*
X151551714Y-108064285D01*
X151844571Y-108121428D01*
X151333857Y-107921428D02*
X151241000Y-108321428D01*
X151048142Y-107921428D01*
X150223142Y-107721428D02*
X150166000Y-107721428D01*
X150112428Y-107750000D01*
X150087428Y-107778571D01*
X150066000Y-107835714D01*
X150051714Y-107950000D01*
X150069571Y-108092857D01*
X150112428Y-108207142D01*
X150148142Y-108264285D01*
X150180285Y-108292857D01*
X150241000Y-108321428D01*
X150298142Y-108321428D01*
X150351714Y-108292857D01*
X150376714Y-108264285D01*
X150398142Y-108207142D01*
X150412428Y-108092857D01*
X150394571Y-107950000D01*
X150351714Y-107835714D01*
X150316000Y-107778571D01*
X150283857Y-107750000D01*
X150223142Y-107721428D01*
X149526714Y-108321428D02*
X149869571Y-108321428D01*
X149698142Y-108321428D02*
X149623142Y-107721428D01*
X149691000Y-107807142D01*
X149755285Y-107864285D01*
X149816000Y-107892857D01*
X148819571Y-108150000D02*
X148533857Y-108150000D01*
X148898142Y-108321428D02*
X148623142Y-107721428D01*
X148498142Y-108321428D01*
X148041000Y-108321428D02*
X147966000Y-107721428D01*
X148037428Y-108292857D02*
X148098142Y-108321428D01*
X148212428Y-108321428D01*
X148266000Y-108292857D01*
X148291000Y-108264285D01*
X148312428Y-108207142D01*
X148291000Y-108035714D01*
X148255285Y-107978571D01*
X148223142Y-107950000D01*
X148162428Y-107921428D01*
X148048142Y-107921428D01*
X147994571Y-107950000D01*
X147498142Y-108321428D02*
X147458857Y-108007142D01*
X147480285Y-107950000D01*
X147533857Y-107921428D01*
X147648142Y-107921428D01*
X147708857Y-107950000D01*
X147494571Y-108292857D02*
X147555285Y-108321428D01*
X147698142Y-108321428D01*
X147751714Y-108292857D01*
X147773142Y-108235714D01*
X147766000Y-108178571D01*
X147730285Y-108121428D01*
X147669571Y-108092857D01*
X147526714Y-108092857D01*
X147466000Y-108064285D01*
X147212428Y-108321428D02*
X147162428Y-107921428D01*
X147169571Y-107978571D02*
X147137428Y-107950000D01*
X147076714Y-107921428D01*
X146991000Y-107921428D01*
X146937428Y-107950000D01*
X146916000Y-108007142D01*
X146955285Y-108321428D01*
X146916000Y-108007142D02*
X146880285Y-107950000D01*
X146819571Y-107921428D01*
X146733857Y-107921428D01*
X146680285Y-107950000D01*
X146658857Y-108007142D01*
X146698142Y-108321428D01*
X146423142Y-107721428D02*
X146080285Y-107721428D01*
X146326714Y-108321428D02*
X146251714Y-107721428D01*
X145641000Y-108321428D02*
X145983857Y-108321428D01*
X145812428Y-108321428D02*
X145737428Y-107721428D01*
X145805285Y-107807142D01*
X145869571Y-107864285D01*
X145930285Y-107892857D01*
X145069571Y-108321428D02*
X145412428Y-108321428D01*
X145241000Y-108321428D02*
X145166000Y-107721428D01*
X145233857Y-107807142D01*
X145298142Y-107864285D01*
X145358857Y-107892857D01*
X144794571Y-107721428D02*
X144394571Y-107721428D01*
X144726714Y-108321428D01*
X143641000Y-108550000D02*
X143666000Y-108521428D01*
X143712428Y-108435714D01*
X143733857Y-108378571D01*
X143751714Y-108292857D01*
X143762428Y-108150000D01*
X143748142Y-108035714D01*
X143701714Y-107892857D01*
X143662428Y-107807142D01*
X143626714Y-107750000D01*
X143558857Y-107664285D01*
X143526714Y-107635714D01*
X143383857Y-108321428D02*
X143308857Y-107721428D01*
X143298142Y-108092857D02*
X143155285Y-108321428D01*
X143105285Y-107921428D02*
X143362428Y-108150000D01*
X142641000Y-108321428D02*
X142601714Y-108007142D01*
X142623142Y-107950000D01*
X142676714Y-107921428D01*
X142791000Y-107921428D01*
X142851714Y-107950000D01*
X142637428Y-108292857D02*
X142698142Y-108321428D01*
X142841000Y-108321428D01*
X142894571Y-108292857D01*
X142916000Y-108235714D01*
X142908857Y-108178571D01*
X142873142Y-108121428D01*
X142812428Y-108092857D01*
X142669571Y-108092857D01*
X142608857Y-108064285D01*
X142362428Y-107921428D02*
X142269571Y-108321428D01*
X142076714Y-107921428D02*
X142269571Y-108321428D01*
X142344571Y-108464285D01*
X142376714Y-108492857D01*
X142437428Y-108521428D01*
X141933857Y-107921428D02*
X141705285Y-107921428D01*
X141823142Y-107721428D02*
X141887428Y-108235714D01*
X141866000Y-108292857D01*
X141812428Y-108321428D01*
X141755285Y-108321428D01*
X141469571Y-108321428D02*
X141523142Y-108292857D01*
X141548142Y-108264285D01*
X141569571Y-108207142D01*
X141548142Y-108035714D01*
X141512428Y-107978571D01*
X141480285Y-107950000D01*
X141419571Y-107921428D01*
X141333857Y-107921428D01*
X141280285Y-107950000D01*
X141255285Y-107978571D01*
X141233857Y-108035714D01*
X141255285Y-108207142D01*
X141291000Y-108264285D01*
X141323142Y-108292857D01*
X141383857Y-108321428D01*
X141469571Y-108321428D01*
X140605285Y-108035714D02*
X140630285Y-108007142D01*
X140683857Y-107978571D01*
X140741000Y-107978571D01*
X140801714Y-108007142D01*
X140833857Y-108035714D01*
X140869571Y-108092857D01*
X140876714Y-108150000D01*
X140855285Y-108207142D01*
X140830285Y-108235714D01*
X140776714Y-108264285D01*
X140719571Y-108264285D01*
X140658857Y-108235714D01*
X140626714Y-108207142D01*
X140598142Y-107978571D02*
X140626714Y-108207142D01*
X140601714Y-108235714D01*
X140573142Y-108235714D01*
X140512428Y-108207142D01*
X140476714Y-108150000D01*
X140458857Y-108007142D01*
X140505285Y-107921428D01*
X140583857Y-107864285D01*
X140694571Y-107835714D01*
X140812428Y-107864285D01*
X140905285Y-107921428D01*
X140973142Y-108007142D01*
X141016000Y-108121428D01*
X141001714Y-108235714D01*
X140955285Y-108321428D01*
X140876714Y-108378571D01*
X140766000Y-108407142D01*
X140648142Y-108378571D01*
X140555285Y-108321428D01*
X139933857Y-107921428D02*
X139994571Y-108407142D01*
X140030285Y-108464285D01*
X140062428Y-108492857D01*
X140123142Y-108521428D01*
X140208857Y-108521428D01*
X140262428Y-108492857D01*
X139980285Y-108292857D02*
X140041000Y-108321428D01*
X140155285Y-108321428D01*
X140208857Y-108292857D01*
X140233857Y-108264285D01*
X140255285Y-108207142D01*
X140233857Y-108035714D01*
X140198142Y-107978571D01*
X140166000Y-107950000D01*
X140105285Y-107921428D01*
X139991000Y-107921428D01*
X139937428Y-107950000D01*
X139698142Y-108321428D02*
X139648142Y-107921428D01*
X139623142Y-107721428D02*
X139655285Y-107750000D01*
X139630285Y-107778571D01*
X139598142Y-107750000D01*
X139623142Y-107721428D01*
X139630285Y-107778571D01*
X139448142Y-107921428D02*
X139219571Y-107921428D01*
X139337428Y-107721428D02*
X139401714Y-108235714D01*
X139380285Y-108292857D01*
X139326714Y-108321428D01*
X139269571Y-108321428D01*
X139069571Y-108321428D02*
X138994571Y-107721428D01*
X138812428Y-108321428D02*
X138773142Y-108007142D01*
X138794571Y-107950000D01*
X138848142Y-107921428D01*
X138933857Y-107921428D01*
X138994571Y-107950000D01*
X139026714Y-107978571D01*
X138219571Y-107921428D02*
X138269571Y-108321428D01*
X138476714Y-107921428D02*
X138516000Y-108235714D01*
X138494571Y-108292857D01*
X138441000Y-108321428D01*
X138355285Y-108321428D01*
X138294571Y-108292857D01*
X138262428Y-108264285D01*
X137983857Y-108321428D02*
X137908857Y-107721428D01*
X137937428Y-107950000D02*
X137876714Y-107921428D01*
X137762428Y-107921428D01*
X137708857Y-107950000D01*
X137683857Y-107978571D01*
X137662428Y-108035714D01*
X137683857Y-108207142D01*
X137719571Y-108264285D01*
X137751714Y-108292857D01*
X137812428Y-108321428D01*
X137926714Y-108321428D01*
X137980285Y-108292857D01*
X137433857Y-108264285D02*
X137408857Y-108292857D01*
X137441000Y-108321428D01*
X137466000Y-108292857D01*
X137433857Y-108264285D01*
X137441000Y-108321428D01*
X136894571Y-108292857D02*
X136955285Y-108321428D01*
X137069571Y-108321428D01*
X137123142Y-108292857D01*
X137148142Y-108264285D01*
X137169571Y-108207142D01*
X137148142Y-108035714D01*
X137112428Y-107978571D01*
X137080285Y-107950000D01*
X137019571Y-107921428D01*
X136905285Y-107921428D01*
X136851714Y-107950000D01*
X136555285Y-108321428D02*
X136608857Y-108292857D01*
X136633857Y-108264285D01*
X136655285Y-108207142D01*
X136633857Y-108035714D01*
X136598142Y-107978571D01*
X136566000Y-107950000D01*
X136505285Y-107921428D01*
X136419571Y-107921428D01*
X136366000Y-107950000D01*
X136341000Y-107978571D01*
X136319571Y-108035714D01*
X136341000Y-108207142D01*
X136376714Y-108264285D01*
X136408857Y-108292857D01*
X136469571Y-108321428D01*
X136555285Y-108321428D01*
X136098142Y-108321428D02*
X136048142Y-107921428D01*
X136055285Y-107978571D02*
X136023142Y-107950000D01*
X135962428Y-107921428D01*
X135876714Y-107921428D01*
X135823142Y-107950000D01*
X135801714Y-108007142D01*
X135841000Y-108321428D01*
X135801714Y-108007142D02*
X135766000Y-107950000D01*
X135705285Y-107921428D01*
X135619571Y-107921428D01*
X135566000Y-107950000D01*
X135544571Y-108007142D01*
X135583857Y-108321428D01*
X135383857Y-108550000D02*
X135351714Y-108521428D01*
X135283857Y-108435714D01*
X135248142Y-108378571D01*
X135208857Y-108292857D01*
X135162428Y-108150000D01*
X135148142Y-108035714D01*
X135158857Y-107892857D01*
X135176714Y-107807142D01*
X135198142Y-107750000D01*
X135244571Y-107664285D01*
X135269571Y-107635714D01*
%TO.C,J1*%
X183080000Y-96475000D02*
X183080000Y-95145000D01*
X183080000Y-95145000D02*
X181750000Y-95145000D01*
X183080000Y-97745000D02*
X180480000Y-97745000D01*
X180480000Y-97745000D02*
X180480000Y-95145000D01*
X180480000Y-95145000D02*
X134700000Y-95145000D01*
X134700000Y-100345000D02*
X134700000Y-95145000D01*
X183080000Y-100345000D02*
X134700000Y-100345000D01*
X183080000Y-100345000D02*
X183080000Y-97745000D01*
%TO.C,JP1*%
X156825000Y-103475000D02*
X160925000Y-103475000D01*
X160925000Y-103475000D02*
X160925000Y-101475000D01*
X160925000Y-101475000D02*
X156825000Y-101475000D01*
X156825000Y-101475000D02*
X156825000Y-103475000D01*
%TO.C,J1*%
D11*
X183972380Y-97411666D02*
X184686666Y-97411666D01*
X184829523Y-97364047D01*
X184924761Y-97268809D01*
X184972380Y-97125952D01*
X184972380Y-97030714D01*
X184972380Y-98411666D02*
X184972380Y-97840238D01*
X184972380Y-98125952D02*
X183972380Y-98125952D01*
X184115238Y-98030714D01*
X184210476Y-97935476D01*
X184258095Y-97840238D01*
%TO.C,JP1*%
X154408333Y-101902380D02*
X154408333Y-102616666D01*
X154455952Y-102759523D01*
X154551190Y-102854761D01*
X154694047Y-102902380D01*
X154789285Y-102902380D01*
X153932142Y-102902380D02*
X153932142Y-101902380D01*
X153551190Y-101902380D01*
X153455952Y-101950000D01*
X153408333Y-101997619D01*
X153360714Y-102092857D01*
X153360714Y-102235714D01*
X153408333Y-102330952D01*
X153455952Y-102378571D01*
X153551190Y-102426190D01*
X153932142Y-102426190D01*
X152408333Y-102902380D02*
X152979761Y-102902380D01*
X152694047Y-102902380D02*
X152694047Y-101902380D01*
X152789285Y-102045238D01*
X152884523Y-102140476D01*
X152979761Y-102188095D01*
X161808333Y-101927380D02*
X161189285Y-101927380D01*
X161522619Y-102308333D01*
X161379761Y-102308333D01*
X161284523Y-102355952D01*
X161236904Y-102403571D01*
X161189285Y-102498809D01*
X161189285Y-102736904D01*
X161236904Y-102832142D01*
X161284523Y-102879761D01*
X161379761Y-102927380D01*
X161665476Y-102927380D01*
X161760714Y-102879761D01*
X161808333Y-102832142D01*
X155989285Y-102927380D02*
X156560714Y-102927380D01*
X156275000Y-102927380D02*
X156275000Y-101927380D01*
X156370238Y-102070238D01*
X156465476Y-102165476D01*
X156560714Y-102213095D01*
%TD*%
%LPC*%
D12*
%TO.C,J1*%
X181750000Y-96475000D03*
D13*
X181750000Y-99015000D03*
X179210000Y-96475000D03*
X179210000Y-99015000D03*
X176670000Y-96475000D03*
X176670000Y-99015000D03*
X174130000Y-96475000D03*
X174130000Y-99015000D03*
X171590000Y-96475000D03*
X171590000Y-99015000D03*
X169050000Y-96475000D03*
X169050000Y-99015000D03*
X166510000Y-96475000D03*
X166510000Y-99015000D03*
X163970000Y-96475000D03*
X163970000Y-99015000D03*
X161430000Y-96475000D03*
X161430000Y-99015000D03*
X158890000Y-96475000D03*
X158890000Y-99015000D03*
X156350000Y-96475000D03*
X156350000Y-99015000D03*
X153810000Y-96475000D03*
X153810000Y-99015000D03*
X151270000Y-96475000D03*
X151270000Y-99015000D03*
X148730000Y-96475000D03*
X148730000Y-99015000D03*
X146190000Y-96475000D03*
X146190000Y-99015000D03*
X143650000Y-96475000D03*
X143650000Y-99015000D03*
X141110000Y-96475000D03*
X141110000Y-99015000D03*
X138570000Y-96475000D03*
X138570000Y-99015000D03*
X136030000Y-96475000D03*
X136030000Y-99015000D03*
%TD*%
D14*
%TO.C,R0*%
X169050000Y-92935000D03*
D15*
X176670000Y-92935000D03*
%TD*%
%TO.C,R1*%
X176670000Y-89735000D03*
D14*
X169050000Y-89735000D03*
%TD*%
%TO.C,R2*%
X169050000Y-105755000D03*
D15*
X176670000Y-105755000D03*
%TD*%
%TO.C,R3*%
X141110000Y-105755000D03*
D14*
X148730000Y-105755000D03*
%TD*%
%TO.C,R4*%
X148730000Y-102555000D03*
D15*
X141110000Y-102555000D03*
%TD*%
%TO.C,R5*%
X141110000Y-92935000D03*
D14*
X148730000Y-92935000D03*
%TD*%
%TO.C,R6*%
X148730000Y-89735000D03*
D15*
X141110000Y-89735000D03*
%TD*%
%TO.C,R7*%
X176670000Y-102555000D03*
D14*
X169050000Y-102555000D03*
%TD*%
D16*
%TO.C,U1*%
X153810000Y-90485000D03*
X156350000Y-90485000D03*
X158890000Y-90485000D03*
X161430000Y-90485000D03*
X163970000Y-90485000D03*
X163970000Y-105725000D03*
X161430000Y-105725000D03*
X158890000Y-105725000D03*
X156350000Y-105725000D03*
D17*
X153810000Y-105725000D03*
%TD*%
D18*
%TO.C,JP1*%
X160175000Y-102475000D03*
X158875000Y-102475000D03*
X157575000Y-102475000D03*
%TD*%
M02*
